<svg xmlns="http://www.w3.org/2000/svg" viewBox="0 0 19 19" width="19px" height="19px"><defs><style>.a { fill: #062942; }</style></defs><title>black-list</title><path class="a" d="M4.89,18.72a2.12,2.12,0,0,1-.63-.52L.33,12.46a1.6,1.6,0,0,1-.33-1,1.57,1.57,0,0,1,.49-1.15,1.64,1.64,0,0,1,1.2-.49,1.65,1.65,0,0,1,.79.19,1.57,1.57,0,0,1,.57.52l2.62,3.72L15.08.71a1.58,1.58,0,0,1,.57-.52A1.64,1.64,0,0,1,16.45,0a1.71,1.71,0,0,1,1.12.38,1.61,1.61,0,0,1,.57,1v.27a1.6,1.6,0,0,1-.33,1L7,18.2a1.52,1.52,0,0,1-.6.52,1.7,1.7,0,0,1-.76.19,1.64,1.64,0,0,1-.79-.19"/></svg>
