<svg xmlns="http://www.w3.org/2000/svg" viewBox="0 0 26 20" width="26px" height="20px"><defs><style>.a { fill: #fff; }</style></defs><title>mail-icon</title><path class="a" d="M18.72,10.61l5.61,6V4.82ZM3.06,17.86,3,17.91l-.05,0a1.16,1.16,0,0,0,.35.16,1.44,1.44,0,0,0,.38.05h19.1a1.29,1.29,0,0,0,.36-.05,1.92,1.92,0,0,0,.34-.13l-.05,0-.05,0-5.74-6.13-1.89,2a3.53,3.53,0,0,1-1.18.82,3.63,3.63,0,0,1-1.46.3,3.56,3.56,0,0,1-1.49-.31,3.83,3.83,0,0,1-1.2-.85L8.78,12ZM2.89,2.33a1.68,1.68,0,0,0-.56.52l.14.09L2.6,3l9,9.55a2,2,0,0,0,.67.48,2.06,2.06,0,0,0,.83.17h.05a2,2,0,0,0,.81-.17,2.21,2.21,0,0,0,.66-.45l9.26-9.55L24,3l.14-.09a1.85,1.85,0,0,0-.58-.54,1.47,1.47,0,0,0-.76-.21H3.66a1.47,1.47,0,0,0-.76.21Zm4.8,8.46-5.62-6V16.54Zm-6.26,8A3.07,3.07,0,0,1,.5,16.54V3.73a3.07,3.07,0,0,1,.93-2.25A3,3,0,0,1,3.66.55h19.1A3.07,3.07,0,0,1,25,1.48a3.07,3.07,0,0,1,.93,2.25V16.54a3.18,3.18,0,0,1-3.18,3.18H3.66a3,3,0,0,1-2.22-.93Z"/></svg>
