<?xml version="1.0" encoding="UTF-8"?>
<svg width="17px" height="13px" viewBox="0 0 17 13" version="1.1" xmlns="http://www.w3.org/2000/svg" xmlns:xlink="http://www.w3.org/1999/xlink">
    <!-- Generator: Sketch 47.1 (45422) - http://www.bohemiancoding.com/sketch -->
    <title>mail-blue</title>
    <desc>Created with Sketch.</desc>
    <defs></defs>
    <g id="Hi-Fi-Design" stroke="none" stroke-width="1" fill="none" fill-rule="evenodd">
        <g id="Artboard" transform="translate(-355.000000, -1215.000000)" fill="#6AB4E9">
            <g id="mail-blue" transform="translate(355.000000, 1215.000000)">
                <path d="M14.2304,1.54371789 C14.3704,1.54371789 14.4944,1.60071789 14.5914,1.68671789 L8.9274,7.51771789 C8.7194,7.73171789 8.4424,7.84971789 8.1444,7.84971789 L8.1344,7.84971789 C7.8344,7.84671789 7.5534,7.72471789 7.3474,7.50571789 L1.8764,1.68171789 C1.9724,1.59871789 2.0934,1.54371789 2.2304,1.54371789 L14.2304,1.54371789 Z M5.4454,7.59671789 L6.2914,8.49771789 C6.7714,9.00871789 7.4214,9.29371789 8.1234,9.29871789 L8.1444,9.29871789 C8.8374,9.29871789 9.4844,9.02571789 9.9684,8.52771789 L10.9944,7.47171789 L14.0354,10.7077179 L2.4244,10.7077179 L5.4454,7.59671789 Z M1.6804,3.59071789 L4.4504,6.53871789 L1.6804,9.39171789 L1.6804,3.59071789 Z M14.7804,9.38471789 L12.0054,6.43071789 L14.7804,3.57371789 L14.7804,9.38471789 Z M14.2304,0.0937178929 L2.2304,0.0937178929 C1.1264,0.0937178929 0.2304,0.988717893 0.2304,2.09371789 L0.2304,10.1577179 C0.2304,11.2627179 1.1264,12.1577179 2.2304,12.1577179 L14.2304,12.1577179 C15.3354,12.1577179 16.2304,11.2627179 16.2304,10.1577179 L16.2304,2.09371789 C16.2304,0.988717893 15.3354,0.0937178929 14.2304,0.0937178929 L14.2304,0.0937178929 Z" id="Fill-47"></path>
            </g>
        </g>
    </g>
</svg>