<?xml version="1.0" encoding="UTF-8"?>
<svg width="13px" height="16px" viewBox="0 0 13 16" version="1.1" xmlns="http://www.w3.org/2000/svg" xmlns:xlink="http://www.w3.org/1999/xlink">
    <!-- Generator: Sketch 47.1 (45422) - http://www.bohemiancoding.com/sketch -->
    <title>share-blue</title>
    <desc>Created with Sketch.</desc>
    <defs></defs>
    <g id="Hi-Fi-Design" stroke="none" stroke-width="1" fill="none" fill-rule="evenodd">
        <g id="Artboard" transform="translate(-359.000000, -1182.000000)" fill="#6AB4E9">
            <g id="share-blue" transform="translate(359.000000, 1181.000000)">
                <path d="M0.7251,11.9740179 C1.1251,11.9740179 1.4501,11.6500179 1.4501,11.2490179 C1.4501,8.30801789 3.8431,5.91401789 6.7841,5.91401789 L9.5091,5.91401789 L6.4861,8.07501789 C6.1611,8.30701789 6.0851,8.76001789 6.3181,9.08601789 C6.4591,9.28401789 6.6821,9.38901789 6.9081,9.38901789 C7.0541,9.38901789 7.2021,9.34501789 7.3291,9.25401789 L12.1911,5.78001789 C12.3821,5.64401789 12.4951,5.42401789 12.4951,5.19001789 C12.4951,4.95501789 12.3821,4.73601789 12.1911,4.60001789 L7.3291,1.12501789 C7.0041,0.891017893 6.5511,0.969017893 6.3181,1.29301789 C6.0851,1.62001789 6.1611,2.07301789 6.4861,2.30501789 L9.5091,4.46501789 L6.7841,4.46501789 C3.0431,4.46501789 0.000100000001,7.50801789 0.000100000001,11.2490179 C0.000100000001,11.6500179 0.3251,11.9740179 0.7251,11.9740179" id="Fill-99"></path>
                <path d="M11.77,10.5248179 C11.37,10.5248179 11.045,10.8488179 11.045,11.2498179 L11.045,14.0448179 C11.045,14.7478179 10.473,15.3198179 9.77,15.3198179 L0.725,15.3198179 C0.325,15.3198179 0,15.6438179 0,16.0448179 C0,16.4448179 0.325,16.7688179 0.725,16.7688179 L9.77,16.7688179 C11.272,16.7688179 12.495,15.5468179 12.495,14.0448179 L12.495,11.2498179 C12.495,10.8488179 12.17,10.5248179 11.77,10.5248179" id="Fill-101"></path>
            </g>
        </g>
    </g>
</svg>