<?xml version="1.0" encoding="UTF-8"?>
<svg width="14px" height="19px" viewBox="0 0 14 19" version="1.1" xmlns="http://www.w3.org/2000/svg" xmlns:xlink="http://www.w3.org/1999/xlink">
    <!-- Generator: Sketch 47.1 (45422) - http://www.bohemiancoding.com/sketch -->
    <title>share-white</title>
    <desc>Created with Sketch.</desc>
    <defs></defs>
    <g id="Hi-Fi-Design" stroke="none" stroke-width="1" fill="none" fill-rule="evenodd">
        <g id="Artboard" transform="translate(-593.000000, -1200.000000)" fill="#FFFFFF">
            <g id="share-white" transform="translate(593.000000, 1200.000000)">
                <path d="M0.780876923,13.3001241 C1.21164615,13.3001241 1.56164615,12.9165653 1.56164615,12.4418521 C1.56164615,8.96022706 4.13872308,6.12615353 7.30595385,6.12615353 L10.2405692,6.12615353 L6.98503077,8.68439618 C6.63503077,8.95904324 6.55318462,9.4953153 6.80410769,9.88124177 C6.95595385,10.1156388 7.19610769,10.2399403 7.43949231,10.2399403 C7.59672308,10.2399403 7.75610769,10.1878521 7.89287692,10.0801241 L13.1288769,5.96752118 C13.3345692,5.80652118 13.4562615,5.54608001 13.4562615,5.2690653 C13.4562615,4.99086677 13.3345692,4.73160942 13.1288769,4.57060942 L7.89287692,0.456822653 C7.54287692,0.179807947 7.05503077,0.272146182 6.80410769,0.655705006 C6.55318462,1.0428153 6.63503077,1.57908736 6.98503077,1.85373442 L10.2405692,4.41079324 L7.30595385,4.41079324 C3.27718462,4.41079324 0.000107692308,8.01316824 0.000107692308,12.4418521 C0.000107692308,12.9165653 0.350107692,13.3001241 0.780876923,13.3001241" id="Fill-99"></path>
                <path d="M12.6753846,11.5845271 C12.2446154,11.5845271 11.8946154,11.9680859 11.8946154,12.4427991 L11.8946154,15.7515859 C11.8946154,16.5838138 11.2786154,17.2609609 10.5215385,17.2609609 L0.780769231,17.2609609 C0.35,17.2609609 0,17.6445197 0,18.1192329 C0,18.5927624 0.35,18.9763212 0.780769231,18.9763212 L10.5215385,18.9763212 C12.1390769,18.9763212 13.4561538,17.5296888 13.4561538,15.7515859 L13.4561538,12.4427991 C13.4561538,11.9680859 13.1061538,11.5845271 12.6753846,11.5845271" id="Fill-101"></path>
            </g>
        </g>
    </g>
</svg>