<?xml version="1.0" encoding="UTF-8"?>
<svg width="12px" height="12px" viewBox="0 0 12 12" version="1.1" xmlns="http://www.w3.org/2000/svg" xmlns:xlink="http://www.w3.org/1999/xlink">
    <!-- Generator: Sketch 47.1 (45422) - http://www.bohemiancoding.com/sketch -->
    <title>third-party-app</title>
    <desc>Created with Sketch.</desc>
    <defs></defs>
    <g id="Hi-Fi-Design" stroke="none" stroke-width="1" fill="none" fill-rule="evenodd">
        <g id="Artboard" transform="translate(-249.000000, -1189.000000)" fill="#8596A2">
            <path d="M260.753883,1193.24445 L258.068228,1195.92339 L259.072856,1196.92802 L258.001256,1197.99958 C256.534527,1199.4663 254.297593,1199.67393 252.636654,1198.57554 L250.212218,1201 L249,1201 L249,1199.78779 L251.424436,1197.36332 C250.326075,1195.70239 250.533702,1193.46546 252.000394,1191.99874 L253.071995,1190.92717 L254.076586,1191.93176 L256.755533,1189.24612 C257.090433,1188.91796 257.632887,1188.91796 257.967787,1189.24612 C258.302651,1189.58101 258.302651,1190.13018 257.967787,1190.45837 L255.28884,1193.14398 L256.85601,1194.71118 L259.541665,1192.03224 C259.876529,1191.69738 260.419019,1191.69738 260.753883,1192.03224 C261.082039,1192.3671 261.082039,1192.90959 260.753883,1193.24445" id="third-party-app"></path>
        </g>
    </g>
</svg>