<?xml version="1.0" encoding="UTF-8"?>
<svg width="16px" height="16px" viewBox="0 0 16 16" version="1.1" xmlns="http://www.w3.org/2000/svg" xmlns:xlink="http://www.w3.org/1999/xlink">
    <!-- Generator: Sketch 47.1 (45422) - http://www.bohemiancoding.com/sketch -->
    <title>call-blue</title>
    <desc>Created with Sketch.</desc>
    <defs></defs>
    <g id="Hi-Fi-Design" stroke="none" stroke-width="1" fill="none" fill-rule="evenodd">
        <g id="Artboard" transform="translate(-358.000000, -1245.000000)" fill="#6AB4E9">
            <path d="M372.330767,1258.08568 C370.424096,1259.99167 367.321786,1259.99167 365.417164,1258.08568 L360.914307,1253.58303 C359.008661,1251.67704 359.008661,1248.57519 360.914307,1246.66817 C361.032129,1246.55135 361.18581,1246.48782 361.350761,1246.48782 C361.361007,1246.48782 361.371252,1246.48782 361.381498,1246.48884 C361.557719,1246.49704 361.717547,1246.57697 361.829222,1246.71223 L364.352666,1249.77822 C364.473562,1249.92578 364.519667,1250.1174 364.478685,1250.3039 C364.460243,1250.38895 364.420286,1250.46478 364.370084,1250.53344 C364.340372,1250.55496 364.306562,1250.56623 364.279924,1250.59287 C363.89777,1250.9751 363.029984,1251.13496 361.714473,1251.06117 C361.316951,1251.04478 360.954264,1251.35322 360.932749,1251.76311 C360.911233,1252.173 361.224743,1252.52346 361.634559,1252.54498 C361.872253,1252.55728 362.098676,1252.56445 362.31383,1252.56445 C362.378376,1252.56445 362.429603,1252.55523 362.493124,1252.5542 C362.397842,1253.209 362.612996,1253.87507 363.082236,1254.3444 L364.493028,1255.75545 C364.971489,1256.23502 365.657932,1256.45534 366.325932,1256.34159 C366.322859,1256.5865 366.326957,1256.84063 366.3413,1257.11526 C366.362816,1257.51183 366.690669,1257.81925 367.082044,1257.81925 C367.096387,1257.81925 367.108682,1257.81822 367.123025,1257.81822 C367.531817,1257.79568 367.846351,1257.44522 367.824836,1257.03636 C367.754142,1255.72163 367.910897,1254.86291 368.287928,1254.47761 C368.358622,1254.4233 368.440585,1254.38334 368.530744,1254.36284 C368.718235,1254.31878 368.909825,1254.36899 369.057359,1254.49094 L372.29081,1257.1706 C372.427074,1257.28229 372.505963,1257.44112 372.51416,1257.61635 C372.522356,1257.79261 372.45781,1257.95759 372.330767,1258.08568 M373.239535,1256.02598 L370.005059,1253.34632 C369.502009,1252.93028 368.850401,1252.77247 368.212112,1252.91183 C367.853523,1252.99074 367.535915,1253.16494 367.270559,1253.40165 C367.262363,1253.40882 367.251093,1253.4119 367.241872,1253.4201 C367.221381,1253.44059 367.206013,1253.46416 367.186547,1253.48568 C367.019547,1253.65168 366.872013,1253.83716 366.766485,1254.05543 L366.536988,1254.535 C366.448877,1254.71842 366.283926,1254.84242 366.083116,1254.87726 C365.881281,1254.9121 365.687643,1254.84857 365.543183,1254.7051 L364.13239,1253.29303 C363.98793,1253.14957 363.926457,1252.95282 363.960267,1252.753 C363.994077,1252.55318 364.118046,1252.38717 364.301439,1252.30007 L364.787072,1252.06643 C365.373109,1251.78566 365.789073,1251.25895 365.929435,1250.62362 C366.069797,1249.98829 365.912018,1249.33553 365.499128,1248.83342 L362.975683,1245.76744 C362.598652,1245.31143 362.044376,1245.03271 361.453215,1245.00401 C360.856933,1244.9661 360.28319,1245.19871 359.864152,1245.61783 C357.378616,1248.10381 357.378616,1252.14841 359.864152,1254.63337 L364.36701,1259.13602 C365.608754,1260.37902 367.239823,1261 368.872941,1261 C370.506059,1261 372.139178,1260.37799 373.383995,1259.13295 C373.803032,1258.71486 374.025358,1258.13691 373.997695,1257.54667 C373.970033,1256.95643 373.693406,1256.40205 373.239535,1256.02598" id="call-blue"></path>
        </g>
    </g>
</svg>