<?xml version="1.0" encoding="UTF-8" standalone="no"?>
<svg width="17px" height="18px" viewBox="0 0 17 18" version="1.1" xmlns="http://www.w3.org/2000/svg" xmlns:xlink="http://www.w3.org/1999/xlink">
    <!-- Generator: Sketch 47.1 (45422) - http://www.bohemiancoding.com/sketch -->
    <title> copy</title>
    <desc>Created with Sketch.</desc>
    <defs></defs>
    <g id="Hi-Fi-Design" stroke="none" stroke-width="1" fill="none" fill-rule="evenodd">
        <g id="05-Default-Load-(Top-Picks)-1280" transform="translate(-176.000000, -341.000000)" fill="#8596A2">
            <g id="Group-7" transform="translate(160.000000, 185.000000)">
                <path d="M27.5714424,163.928563 C27.5714424,161.447533 25.5524667,159.428558 23.071437,159.428558 C20.5904073,159.428558 18.5714316,161.447533 18.5714316,163.928563 C18.5714316,166.409593 20.5904073,168.428568 23.071437,168.428568 C25.5524667,168.428568 27.5714424,166.409593 27.5714424,163.928563 Z M32.7143056,172.285716 C32.7143056,172.988842 32.1317157,173.571432 31.4285898,173.571432 C31.0870716,173.571432 30.7555979,173.430806 30.5245709,173.189735 L27.0792543,169.754463 C25.9040297,170.56808 24.497778,171 23.071437,171 C19.1640663,171 16,167.835934 16,163.928563 C16,160.021192 19.1640663,156.857126 23.071437,156.857126 C26.9788077,156.857126 30.142874,160.021192 30.142874,163.928563 C30.142874,165.354904 29.7109538,166.761156 28.8973368,167.93638 L32.3426534,171.381697 C32.5736805,171.612724 32.7143056,171.944198 32.7143056,172.285716 Z" id="-copy"></path>
            </g>
        </g>
    </g>
</svg>