<svg width="34" height="34" viewBox="0 0 34 34" xmlns="http://www.w3.org/2000/svg"><title>Fill 2</title><path d="M20.13 3.418c-4.572-4.572-11.99-4.563-16.573.02-4.582 4.58-4.59 12-.02 16.572 4.12 4.12 10.554 4.52 15.135 1.203 2.054 2.89 5.28 7.14 8.868 10.726 1.622 1.62 3.387 1.407 4.61.185 1.222-1.223 1.425-3-.186-4.61-3.548-3.548-7.806-6.79-10.712-8.854 3.403-4.588 3.03-11.09-1.123-15.242zm-2.917 13.676c-2.978 2.978-7.8 2.984-10.772.012-2.97-2.97-2.965-7.793.013-10.772 2.98-2.978 7.802-2.983 10.773-.012 2.97 2.97 2.965 7.794-.013 10.772z" fill="#A1A1A1" fill-rule="evenodd"/></svg>