<svg xmlns="http://www.w3.org/2000/svg" viewBox="0 0 15 15" width="15px" height="15px"><defs><style>.a { fill: #fff; }</style></defs><title>phone</title><path class="a" d="M10.13,14.21h0a5.49,5.49,0,0,1-3.94-1.64L2.08,8.49A5.66,5.66,0,0,1,.88,6.71,5.43,5.43,0,0,1,.44,4.54,5.43,5.43,0,0,1,.88,2.36,5.66,5.66,0,0,1,2.08.58,1.74,1.74,0,0,1,2.62.22,1.64,1.64,0,0,1,3.28.08h.09a1.59,1.59,0,0,1,.7.19,1.78,1.78,0,0,1,.54.44l2.3,2.78a1.94,1.94,0,0,1,.28.5A1.67,1.67,0,0,1,7,5.5a1.72,1.72,0,0,1-.7.62l-.45.22a.77.77,0,0,0-.3.27A.74.74,0,0,0,5.45,7a.75.75,0,0,0,.05.29.74.74,0,0,0,.16.24L7,8.83A.77.77,0,0,0,7.19,9a.72.72,0,0,0,.3.06h.13a.72.72,0,0,0,.33-.14.77.77,0,0,0,.22-.27l.22-.44a1.76,1.76,0,0,1,.48-.61,1.56,1.56,0,0,1,.7-.33l.18,0,.2,0a1.62,1.62,0,0,1,.59.11,1.72,1.72,0,0,1,.5.3L14,10a1.69,1.69,0,0,1,.45.58,1.72,1.72,0,0,1,.16.75,1.66,1.66,0,0,1-.13.66,1.71,1.71,0,0,1-.37.55,5.49,5.49,0,0,1-3.94,1.64ZM3.28,1A.67.67,0,0,0,3,1.1a.86.86,0,0,0-.24.17,4.61,4.61,0,0,0-1,1.47,4.54,4.54,0,0,0-.36,1.8,4.54,4.54,0,0,0,.36,1.8,4.61,4.61,0,0,0,1,1.47L6.84,11.9a4.72,4.72,0,0,0,1.47,1,4.58,4.58,0,0,0,3.59,0,4.72,4.72,0,0,0,1.47-1,.86.86,0,0,0,.17-.24.67.67,0,0,0,.06-.29.71.71,0,0,0-.08-.34.89.89,0,0,0-.2-.26L10.41,8.35a1.08,1.08,0,0,0-.23-.12.69.69,0,0,0-.26,0H9.84l-.09,0-.16.05-.14.09a2.61,2.61,0,0,0-.34.59A4.58,4.58,0,0,0,9,10.82v0a.46.46,0,0,1-.13.34.5.5,0,0,1-.32.15h0a.46.46,0,0,1-.33-.13A.48.48,0,0,1,8,10.86q0-.23,0-.47t0-.47L7.75,10l-.27,0a1.71,1.71,0,0,1-1.22-.5L5,8.22a1.82,1.82,0,0,1-.37-.55A1.58,1.58,0,0,1,4.48,7q0-.08,0-.16t0-.16l0-.09,0-.09-.2,0H4.16l-.61,0a.5.5,0,0,1-.32-.15.46.46,0,0,1-.13-.34.45.45,0,0,1,.14-.33.47.47,0,0,1,.34-.14h.75a4.14,4.14,0,0,0,.73-.06,3.75,3.75,0,0,0,.68-.19l0,0,.17-.1.14-.12,0,0,0,0,0,0a.65.65,0,0,0,.12-.21.76.76,0,0,0,0-.24.76.76,0,0,0-.17-.48L3.88,1.32a.81.81,0,0,0-.25-.2A.85.85,0,0,0,3.33,1Z"/></svg>
