<?xml version="1.0" encoding="UTF-8"?>
<svg width="39px" height="39px" viewBox="0 0 39 39" version="1.1" xmlns="http://www.w3.org/2000/svg" xmlns:xlink="http://www.w3.org/1999/xlink">
    <!-- Generator: Sketch 53 (72520) - https://sketchapp.com -->
    <title>play-button copy 2</title>
    <desc>Created with Sketch.</desc>
    <g id="Page-1" stroke="none" stroke-width="1" fill="none" fill-rule="evenodd">
        <g id="Projects" transform="translate(-868.000000, -2569.000000)" fill="#0D83DD" fill-rule="nonzero">
            <g id="play-button-copy-2" transform="translate(868.000000, 2569.000000)">
                <path d="M36.3840479,9.75149621 C31.0002378,0.426328072 19.0757866,-2.76890332 9.75147367,2.61596373 C0.426415688,7.99909228 -2.76890213,19.9231877 2.6159013,29.2479833 C7.99896627,38.5731514 19.923045,41.7688795 29.2474821,36.3845092 C38.5726642,30.999518 41.7694722,19.0760434 36.3840479,9.75149621 Z M27.2982786,33.0064874 C19.8393498,37.3144804 10.2992176,34.7581462 5.99251728,27.2976392 C1.68482354,19.8386223 4.24199671,10.2985015 11.7011739,5.99261959 C19.1605993,1.68487497 28.7002349,4.24096074 33.0071835,11.7012194 C37.3142564,19.1613539 34.7578283,28.6994878 27.2982786,33.0064874 Z M26.5185724,18.7074823 L16.3094997,12.7532578 C15.379167,12.210102 14.6287665,12.6443535 14.6339819,13.7204825 L14.6862603,25.5390263 C14.690979,26.614907 15.4505686,27.0528838 16.3836332,26.51395 L26.5145987,20.6647804 C27.4466699,20.1268401 27.4486567,19.2506381 26.5185724,18.7074823 Z" id="Shape"></path>
            </g>
        </g>
    </g>
</svg>