<svg xmlns="http://www.w3.org/2000/svg" viewBox="0 0 17 18" width="16.7px" height="16.7px"><defs><style>.a{opacity:0.5;}.b{fill:#889ea6;}</style></defs><title>search</title><g class="a"><path class="b" d="M11.71,7.71a4.33,4.33,0,0,0-1.32-3.18A4.33,4.33,0,0,0,7.21,3.21,4.33,4.33,0,0,0,4,4.54,4.33,4.33,0,0,0,2.71,7.71,4.33,4.33,0,0,0,4,10.89a4.33,4.33,0,0,0,3.18,1.32,4.33,4.33,0,0,0,3.18-1.32,4.33,4.33,0,0,0,1.32-3.18Zm5.14,8.36a1.3,1.3,0,0,1-1.29,1.29,1.19,1.19,0,0,1-.9-.38l-3.45-3.44a6.88,6.88,0,0,1-4,1.25,7,7,0,0,1-2.75-.56A6.93,6.93,0,0,1,.7,10.46,7,7,0,0,1,.7,5,6.93,6.93,0,0,1,4.47,1.2,7,7,0,0,1,10,1.2,6.93,6.93,0,0,1,13.73,5a7,7,0,0,1,.56,2.75,6.88,6.88,0,0,1-1.25,4l3.45,3.45a1.23,1.23,0,0,1,.37.9Z"/></g></svg>
