<?xml version="1.0" encoding="UTF-8"?>
<svg width="13px" height="13px" viewBox="0 0 13 13" version="1.1" xmlns="http://www.w3.org/2000/svg" xmlns:xlink="http://www.w3.org/1999/xlink">
    <!-- Generator: Sketch 52.2 (67145) - http://www.bohemiancoding.com/sketch -->
    <title>Fill 1</title>
    <desc>Created with Sketch.</desc>
    <g id="Versions" stroke="none" stroke-width="1" fill="none" fill-rule="evenodd">
        <g id="Design-2-Copy" transform="translate(-271.000000, -1590.000000)" fill="#257801">
            <g id="Group-13" transform="translate(246.000000, 1485.000000)">
                <g id="Group-44" transform="translate(11.000000, 0.000000)">
                    <g id="Group-18" transform="translate(0.000000, 84.000000)">
                        <g id="Group-2">
                            <path d="M17.960132,33.8219878 C17.8016202,33.7368807 17.6614064,33.6209224 17.5394905,33.4745383 L14.9060665,29.6345094 C14.8330872,29.5368491 14.7781932,29.4332313 14.7415972,29.3234433 C14.7050011,29.213868 14.6867031,29.0981224 14.6867031,28.9762066 C14.6867031,28.6836512 14.7964912,28.4274791 15.0158545,28.2081157 C15.2354307,27.9887524 15.5035178,27.8789643 15.8205414,27.8789643 C16.0156493,27.8789643 16.1922464,27.9217306 16.350971,28.0070504 C16.5094828,28.0923702 16.6373561,28.2081157 16.7348036,28.3544998 L18.4903488,30.841327 L24.7810344,21.7712588 C24.8784819,21.6250875 25.0063552,21.5093419 25.1648671,21.4238094 C25.3231661,21.3384896 25.5001887,21.2959361 25.6950838,21.2959361 C25.9876392,21.2959361 26.2376411,21.3812559 26.4448767,21.5518955 C26.6523251,21.7227478 26.7801984,21.9421112 26.8289221,22.2101983 L26.8289221,22.3014756 L26.8289221,22.3929656 C26.8289221,22.5148814 26.8106241,22.6308397 26.7740281,22.7406278 C26.7374321,22.8504159 26.682538,22.9538209 26.609346,23.0514812 L19.404611,33.4745383 C19.3071634,33.6209224 19.1731199,33.7368807 19.0022675,33.8219878 C18.8318407,33.9073075 18.6609883,33.9500738 18.4903488,33.9500738 C18.2952409,33.9500738 18.1184311,33.9073075 17.960132,33.8219878" id="Fill-1"></path>
                        </g>
                    </g>
                </g>
            </g>
        </g>
    </g>
</svg>