<?xml version="1.0" encoding="UTF-8" standalone="no"?>
<svg width="11px" height="11px" viewBox="0 0 11 11" version="1.1" xmlns="http://www.w3.org/2000/svg" xmlns:xlink="http://www.w3.org/1999/xlink">
    <!-- Generator: Sketch 47.1 (45422) - http://www.bohemiancoding.com/sketch -->
    <title>Fill 1</title>
    <desc>Created with Sketch.</desc>
    <defs></defs>
    <g id="Symbols" stroke="none" stroke-width="1" fill="none" fill-rule="evenodd">
        <g id="Card:-Top-Picks-Hi-Fi" transform="translate(-23.000000, -161.000000)" fill="#0D83DD">
            <g id="Group-5">
                <g id="Group-8-Copy" transform="translate(23.000000, 155.000000)">
                    <path d="M2.94841599,16.8640122 C2.76687676,16.7730593 2.62091557,16.648551 2.51053243,16.4887212 L0.231713385,13.3389259 C0.154171504,13.2320783 0.0966992868,13.1199326 0.058384475,13.0033716 C0.0191574059,12.8859276 0,12.7578871 0,12.6192502 C0,12.2783977 0.124067009,11.9878783 0.372201028,11.7476921 C0.61942279,11.5083889 0.914081937,11.3882957 1.25526621,11.3882957 C1.47603251,11.3882957 1.67672914,11.4359798 1.85826837,11.5322309 C2.0398076,11.6275989 2.19124233,11.7556394 2.31257257,11.9154692 L3.55141815,13.6426909 L8.68833969,6.51216184 C8.80875767,6.35233202 8.9601924,6.22694068 9.14264389,6.1359878 C9.32418311,6.04591796 9.5194062,6 9.72831315,6 C10.0804445,6 10.3805772,6.12009312 10.6287112,6.36027936 C10.8768452,6.59958256 11,6.88480372 11,7.21505981 C11,7.35369672 10.9781058,7.48173718 10.9343175,7.59918118 C10.8905291,7.71662519 10.8348814,7.82788793 10.7691989,7.93473549 L4.59139161,16.4887212 C4.47097363,16.648551 4.3195389,16.7730593 4.13799967,16.8640122 C3.95554818,16.9549651 3.7603251,17 3.55141815,17 C3.33065185,17 3.12995522,16.9549651 2.94841599,16.8640122" id="Fill-1"></path>
                </g>
            </g>
        </g>
    </g>
</svg>