<svg xmlns="http://www.w3.org/2000/svg" viewBox="0 0 19 15" width="26px" height="22px"><defs><style>.a{fill:#fff;}</style></defs><title>twitter-white</title><path class="a" d="M18.35,2a7.27,7.27,0,0,1-2.09.57,3.64,3.64,0,0,0,1.6-2,7.26,7.26,0,0,1-2.31.88A3.64,3.64,0,0,0,9.37,4.77,10.32,10.32,0,0,1,1.88,1,3.64,3.64,0,0,0,3,5.82a3.61,3.61,0,0,1-1.65-.45v0A3.63,3.63,0,0,0,4.27,9,3.65,3.65,0,0,1,2.63,9,3.64,3.64,0,0,0,6,11.56a7.29,7.29,0,0,1-4.51,1.56,7.31,7.31,0,0,1-.87-.05,10.28,10.28,0,0,0,5.57,1.63A10.27,10.27,0,0,0,16.55,4.36c0-.16,0-.31,0-.47A7.39,7.39,0,0,0,18.35,2"/></svg>
