<svg xmlns="http://www.w3.org/2000/svg" width="26" height="22" viewBox="0 0 26 22">
    <g fill="#062942" fill-rule="nonzero">
        <path d="M22.09 6.998C21.86 3.108 18.646 0 14.77 0c-2.353 0-4.632 1.15-6.043 3.028-.033-.016-.067-.028-.1-.044a4.045 4.045 0 0 0-.41-.17 3.935 3.935 0 0 0-.268-.083c-.05-.013-.1-.027-.15-.038a4.156 4.156 0 0 0-.298-.054c-.043-.007-.086-.015-.13-.02a3.899 3.899 0 0 0-4.337 3.863c0 .056.003.11.007.165C1.238 7.627 0 9.68 0 11.734c0 3.061 2.497 5.552 5.566 5.552H7.8a.432.432 0 1 0 0-.865H5.566c-2.591 0-4.7-2.102-4.7-4.687 0-1.795 1.173-3.658 2.788-4.43l.246-.117v-.273c0-.052.003-.104.006-.157l.005-.08-.005-.084c-.003-.037-.006-.074-.006-.11a3.033 3.033 0 0 1 3.033-3.026 3.04 3.04 0 0 1 .499.045c.115.019.23.044.342.076l.045.012c.124.037.244.085.362.139.031.013.061.028.091.043a3.021 3.021 0 0 1 1.694 2.71.432.432 0 0 0 .867 0c0-1.19-.54-2.255-1.386-2.97C10.689 1.893 12.735.865 14.77.865c3.356 0 6.144 2.651 6.434 6.002a8.3 8.3 0 0 0-1.769.053.432.432 0 1 0 .13.855c.965-.146 1.97-.01 2.03-.001 2.017.382 3.538 2.236 3.538 4.315 0 2.39-1.95 4.333-4.345 4.333h-1.721a.432.432 0 1 0 0 .865h1.72c2.875 0 5.213-2.332 5.213-5.198 0-2.372-1.658-4.5-3.91-5.09z"/>
        <path d="M16.586 17.248l-2.754 2.571v-8.41c0-.226-.196-.409-.438-.409s-.438.183-.438.409v8.41l-2.754-2.57a.46.46 0 0 0-.62 0 .39.39 0 0 0 0 .577l3.502 3.268a.46.46 0 0 0 .62 0l3.501-3.268a.39.39 0 0 0 0-.578.46.46 0 0 0-.619 0z"/>
    </g>
</svg>
