<?xml version="1.0" encoding="UTF-8"?>
<svg width="11px" height="11px" viewBox="0 0 11 11" version="1.1" xmlns="http://www.w3.org/2000/svg" xmlns:xlink="http://www.w3.org/1999/xlink">
    <!-- Generator: Sketch 53.2 (72643) - https://sketchapp.com -->
    <title>Fill 4@3x</title>
    <desc>Created with Sketch.</desc>
    <g id="Effects" stroke="none" stroke-width="1" fill="none" fill-rule="evenodd">
        <g id="Menu" transform="translate(-664.000000, -159.000000)" fill="#0081E0">
            <g id="past-reports-copy-2" transform="translate(636.000000, 99.000000)">
                <path d="M30.948,70.8640345 C30.767,70.7730345 30.621,70.6490345 30.511,70.4890345 L28.232,67.3390345 C28.154,67.2320345 28.096,67.1200345 28.058,67.0030345 C28.019,66.8860345 28,66.7580345 28,66.6190345 C28,66.2780345 28.124,65.9880345 28.372,65.7480345 C28.619,65.5080345 28.914,65.3880345 29.255,65.3880345 C29.476,65.3880345 29.677,65.4360345 29.858,65.5320345 C30.04,65.6280345 30.191,65.7560345 30.312,65.9150345 L31.551,67.6430345 L36.688,60.5120345 C36.808,60.3520345 36.96,60.2270345 37.142,60.1360345 C37.324,60.0460345 37.519,60.0000345 37.728,60.0000345 C38.08,60.0000345 38.381,60.1200345 38.629,60.3600345 C38.877,60.6000345 39,60.8850345 39,61.2150345 C39,61.3540345 38.978,61.4820345 38.934,61.5990345 C38.89,61.7170345 38.835,61.8280345 38.769,61.9350345 L32.591,70.4890345 C32.471,70.6490345 32.32,70.7730345 32.138,70.8640345 C31.955,70.9550345 31.76,71.0000345 31.551,71.0000345 C31.33,71.0000345 31.13,70.9550345 30.948,70.8640345" id="Fill-4"></path>
            </g>
        </g>
    </g>
</svg>