<svg xmlns="http://www.w3.org/2000/svg" width="23" height="20" viewBox="0 0 23 20">
    <g fill="#062942" fill-rule="nonzero">
        <path d="M17.497.171a.51.51 0 0 0-.552-.107.503.503 0 0 0-.312.464V3.21c-2.736.108-4.106 1.234-4.316 1.42a7.61 7.61 0 0 0-2.665 4.43 7.744 7.744 0 0 0-.09 2.553v.003a.888.888 0 0 0 .003.022l.108.614a.508.508 0 0 0 .933.172l.323-.533c.99-1.635 2.226-2.719 3.671-3.221a5.36 5.36 0 0 1 2.033-.296v2.778c0 .204.124.387.313.465a.51.51 0 0 0 .553-.11l5.353-5.34a.5.5 0 0 0-.001-.71L17.497.17zm.15 9.763V7.922a.504.504 0 0 0-.427-.496c-.433-.07-1.589-.18-2.955.295-1.457.507-2.718 1.504-3.756 2.969a7.107 7.107 0 0 1 .137-1.434c.308-1.545 1.09-2.843 2.324-3.856a.465.465 0 0 0 .031-.028c.036-.033 1.322-1.185 4.135-1.165h.003c.28 0 .507-.225.507-.503V1.737l4.131 4.078-4.13 4.119z"/>
        <path d="M21.143 14.826a.505.505 0 0 0-.506.503v2.124c0 .833-.68 1.508-1.52 1.508H2.533a1.516 1.516 0 0 1-1.52-1.508V5.478a1.516 1.516 0 0 1 1.52-1.508h3.504c.28 0 .506-.225.506-.503a.505.505 0 0 0-.506-.503H2.533A2.526 2.526 0 0 0 0 5.478v11.975a2.526 2.526 0 0 0 2.533 2.514h16.584a2.526 2.526 0 0 0 2.533-2.514V15.33a.505.505 0 0 0-.507-.503z"/>
    </g>
</svg>
