<?xml version="1.0" encoding="UTF-8"?>
<svg width="14px" height="20px" viewBox="0 0 14 20" version="1.1" xmlns="http://www.w3.org/2000/svg" xmlns:xlink="http://www.w3.org/1999/xlink">
    <!-- Generator: Sketch 44.1 (41455) - http://www.bohemiancoding.com/sketch -->
    <title>Page 1</title>
    <desc>Created with Sketch.</desc>
    <defs>
        <polygon id="path-1" points="13.1927355 16.7458255 13.1927355 -0.000209325435 0.000523313587 -0.000209325435 0.000523313587 16.7458255"></polygon>
    </defs>
    <g id="Navigation" stroke="none" stroke-width="1" fill="none" fill-rule="evenodd">
        <g id="1440-How-It-Works" transform="translate(-969.000000, -171.000000)">
            <g id="Page-1" transform="translate(969.000000, 171.000000)">
                <g id="Group-7" transform="translate(1.030769, 0.000000)" fill="#0D83DD">
                    <path d="M9.11575794,4.31890703 L2.01543919,4.31890703 C1.43770099,4.31890703 0.968812015,3.85001806 0.968812015,3.27227986 L0.968812015,2.48730948 C0.968812015,1.90957128 1.43770099,1.44068231 2.01543919,1.44068231 L9.11575794,1.44068231 C9.69349614,1.44068231 10.1623851,1.90957128 10.1623851,2.48730948 L10.1623851,3.27227986 C10.1623851,3.85001806 9.69349614,4.31890703 9.11575794,4.31890703" id="Fill-4"></path>
                    <path d="M5.56580789,2.87979467 L5.56580789,2.87979467 C4.77037124,2.87979467 4.1256489,2.23507233 4.1256489,1.43963568 L4.1256489,1.43963568 C4.1256489,0.644199026 4.77037124,0.000523313587 5.56580789,0.000523313587 L5.56580789,0.000523313587 C6.36124454,0.000523313587 7.00596688,0.644199026 7.00596688,1.43963568 L7.00596688,1.43963568 C7.00596688,2.23507233 6.36124454,2.87979467 5.56580789,2.87979467" id="Fill-6"></path>
                </g>
                <g id="Group-3" transform="translate(0.000000, 2.433408)">
                    <rect id="Rectangle" fill="#FFFFFF" x="1.0307692" y="0.658899425" width="11.3384612" height="15.461538"></rect>
                    <mask id="mask-2" fill="white">
                        <use xlink:href="#path-1"></use>
                    </mask>
                    <g id="Clip-2"></g>
                    <path d="M12.1466317,14.1397238 C12.137212,14.5698876 11.9823112,14.9309739 11.6756494,15.2418222 C11.3721276,15.5505772 11.0120878,15.6991983 10.5745977,15.6991983 L2.6191845,15.6991983 C2.18064772,15.6991983 1.81642146,15.5495306 1.50661982,15.239729 C1.1978648,14.9299273 1.04715049,14.5719808 1.04715049,14.1449569 L1.04715049,2.61845186 C1.04715049,2.17991508 1.1978648,1.81673545 1.50661982,1.50693381 C1.81642146,1.19713216 2.18064772,1.04641785 2.6191845,1.04641785 L10.5745977,1.04641785 C11.0120878,1.04641785 11.3721276,1.19608553 11.6756494,1.50484055 C11.9844045,1.81778208 12.1382587,2.18514821 12.1466317,2.61845186 L12.1466317,14.1397238 Z M12.420848,0.769061647 C11.9174203,0.258307587 11.2967704,-0.000209325435 10.5745977,-0.000209325435 L2.6191845,-0.000209325435 C1.89910501,-0.000209325435 1.27531521,0.257260959 0.766654405,0.766968393 C0.257993598,1.27458257 0.000523313587,1.89837237 0.000523313587,2.61845186 L0.000523313587,14.1449569 C0.000523313587,14.8545702 0.257993598,15.4710336 0.766654405,15.9796944 C1.27531521,16.4883552 1.89910501,16.7458255 2.6191845,16.7458255 L10.5745977,16.7458255 C11.2967704,16.7458255 11.9174203,16.4873085 12.420848,15.9776011 C12.9190425,15.4710336 13.1796527,14.8587567 13.1932588,14.1554232 L13.1932588,2.60798559 C13.1796527,1.89418586 12.9190425,1.27458257 12.420848,0.769061647 L12.420848,0.769061647 Z" id="Fill-1" stroke="#0D83DD" stroke-width="0.4" fill="#0D83DD" mask="url(#mask-2)"></path>
                </g>
                <g id="Group-8" transform="translate(4.123077, 6.184615)" stroke="#0D83DD" stroke-width="0.2" fill="#0D83DD">
                    <path d="M4.70982228,1.04662717 L0.523313587,1.04662717 C0.234444487,1.04662717 0,0.812182687 0,0.523313587 C0,0.234444487 0.234444487,0 0.523313587,0 L4.70982228,0 C4.99869138,0 5.23313587,0.234444487 5.23313587,0.523313587 C5.23313587,0.812182687 4.99869138,1.04662717 4.70982228,1.04662717" id="Fill-8"></path>
                    <path d="M4.70982228,4.13893478 L0.523313587,4.13893478 C0.234444487,4.13893478 0,3.90449029 0,3.61562119 C0,3.32675209 0.234444487,3.0923076 0.523313587,3.0923076 L4.70982228,3.0923076 C4.99869138,3.0923076 5.23313587,3.32675209 5.23313587,3.61562119 C5.23313587,3.90449029 4.99869138,4.13893478 4.70982228,4.13893478" id="Fill-10"></path>
                    <path d="M4.70982228,7.23124238 L0.523313587,7.23124238 C0.234444487,7.23124238 0,6.9967979 0,6.7079288 C0,6.4190597 0.234444487,6.18461521 0.523313587,6.18461521 L4.70982228,6.18461521 C4.99869138,6.18461521 5.23313587,6.4190597 5.23313587,6.7079288 C5.23313587,6.9967979 4.99869138,7.23124238 4.70982228,7.23124238" id="Fill-12"></path>
                </g>
            </g>
        </g>
    </g>
</svg>