<?xml version="1.0" encoding="UTF-8"?>
<svg width="14px" height="19px" viewBox="0 0 14 19" version="1.1" xmlns="http://www.w3.org/2000/svg" xmlns:xlink="http://www.w3.org/1999/xlink">
    <!-- Generator: Sketch 44.1 (41455) - http://www.bohemiancoding.com/sketch -->
    <title>Page 1</title>
    <desc>Created with Sketch.</desc>
    <defs>
        <polygon id="path-1" points="13.0316304 18.6090234 13.0316304 0 0.000516923061 0 0.000516923061 18.6090234"></polygon>
        <polygon id="path-3" points="0 18.6092302 13.0316304 18.6092302 13.0316304 0 0 0"></polygon>
    </defs>
    <g id="Navigation" stroke="none" stroke-width="1" fill="none" fill-rule="evenodd">
        <g id="1024" transform="translate(-525.000000, -214.000000)">
            <g id="Stacked-Group-6" transform="translate(525.000000, 168.000000)">
                <g id="Group-9" transform="translate(0.000000, 41.000000)">
                    <g id="Page-1" transform="translate(0.000000, 5.000000)">
                        <g id="Group-3">
                            <mask id="mask-2" fill="white">
                                <use xlink:href="#path-1"></use>
                            </mask>
                            <g id="Clip-2"></g>
                            <path d="M11.9983012,16.0347466 C11.9889965,16.4596573 11.8359873,16.8163342 11.5330704,17.1233865 C11.233255,17.4283711 10.877612,17.5751773 10.4454643,17.5751773 L2.58719992,17.5751773 C2.15401839,17.5751773 1.79423994,17.4273373 1.48822149,17.1213189 C1.18323689,16.8153004 1.03436304,16.461725 1.03436304,16.0399158 L1.03436304,2.58647623 C1.03436304,2.1532947 1.18323689,1.7945501 1.48822149,1.48853165 C1.79423994,1.18251319 2.15401839,1.03363935 2.58719992,1.03363935 L10.4454643,1.03363935 C10.877612,1.03363935 11.233255,1.18147935 11.5330704,1.48646395 C11.838055,1.79558394 11.9900304,2.15846393 11.9983012,2.58647623 L11.9983012,16.0347466 Z M12.2691688,0.75967013 C11.7718889,0.255153223 11.1588181,-0.000206769224 10.4454643,-0.000206769224 L2.58719992,-0.000206769224 C1.87591379,-0.000206769224 1.2597415,0.254119377 0.757292284,0.757602438 C0.254843069,1.25901781 0.000516923061,1.8751901 0.000516923061,2.58647623 L0.000516923061,16.0399158 C0.000516923061,16.7408635 0.254843069,17.3497988 0.757292284,17.8522481 C1.2597415,18.3546973 1.87591379,18.6090234 2.58719992,18.6090234 L10.4454643,18.6090234 C11.1588181,18.6090234 11.7718889,18.3536634 12.2691688,17.8501804 C12.7612796,17.3497988 13.0187073,16.7449989 13.0321473,16.0502543 L13.0321473,2.57613777 C13.0187073,1.87105471 12.7612796,1.25901781 12.2691688,0.75967013 L12.2691688,0.75967013 Z" id="Fill-1" stroke="#062942" stroke-width="0.3" fill="#012941" mask="url(#mask-2)"></path>
                        </g>
                        <mask id="mask-4" fill="white">
                            <use xlink:href="#path-3"></use>
                        </mask>
                        <g id="Clip-5"></g>
                        <polygon id="Fill-4" stroke="#062942" stroke-width="0.3" fill="#012941" mask="url(#mask-4)" points="0.523126138 14.7974395 12.5085042 14.7974395 12.5085042 13.7635934 0.523126138 13.7635934"></polygon>
                        <path d="M8.65236158,4.16360849 L4.51697709,4.16360849 C4.23163556,4.16360849 4.00005403,3.93202695 4.00005403,3.64668542 C4.00005403,3.3613439 4.23163556,3.12976236 4.51697709,3.12976236 L8.65236158,3.12976236 C8.93770311,3.12976236 9.16928464,3.3613439 9.16928464,3.64668542 C9.16928464,3.93202695 8.93770311,4.16360849 8.65236158,4.16360849" id="Fill-6" stroke="#062942" stroke-width="0.3" fill="#012941" mask="url(#mask-4)"></path>
                        <path d="M7.29161331,16.1878592 C7.29161331,15.7598469 6.94424101,15.4124746 6.51622872,15.4124746 C6.08821643,15.4124746 5.74084413,15.7598469 5.74084413,16.1878592 C5.74084413,16.6158715 6.08821643,16.9632438 6.51622872,16.9632438 C6.94424101,16.9632438 7.29161331,16.6158715 7.29161331,16.1878592" id="Fill-7" fill="#012941" mask="url(#mask-4)"></path>
                    </g>
                </g>
            </g>
        </g>
    </g>
</svg>