<?xml version="1.0" encoding="UTF-8"?>
<svg width="20px" height="15px" viewBox="0 0 20 15" version="1.1" xmlns="http://www.w3.org/2000/svg" xmlns:xlink="http://www.w3.org/1999/xlink">
    <!-- Generator: Sketch 44.1 (41455) - http://www.bohemiancoding.com/sketch -->
    <title></title>
    <desc>Created with Sketch.</desc>
    <defs></defs>
    <g id="Navigation" stroke="none" stroke-width="1" fill="none" fill-rule="evenodd">
        <g id="1440-How-It-Works" transform="translate(-818.000000, -257.000000)" fill="#062942">
            <path d="M820.457031,271.214844 C819.805986,271.201823 819.246096,270.964195 818.777344,270.501953 C818.308591,270.039711 818.074219,269.476566 818.074219,268.8125 L818.074219,259.691406 C818.074219,259.02734 818.308591,258.46094 818.777344,257.992188 C819.246096,257.523435 819.805986,257.289062 820.457031,257.289062 L834.871094,257.289062 C835.53516,257.289062 836.10156,257.523435 836.570312,257.992188 C837.039065,258.46094 837.273438,259.02734 837.273438,259.691406 L837.273438,268.8125 C837.273438,269.476566 837.039065,270.039711 836.570312,270.501953 C836.10156,270.964195 835.53516,271.201823 834.871094,271.214844 L820.457031,271.214844 Z M819.265625,268.8125 C819.265625,269.138022 819.382811,269.417968 819.617188,269.652344 C819.851564,269.88672 820.131509,270.003906 820.457031,270.003906 L834.871094,270.003906 C835.196616,270.003906 835.476561,269.88672 835.710938,269.652344 C835.945314,269.417968 836.0625,269.138022 836.0625,268.8125 L836.0625,262.582031 L819.265625,262.582031 L819.265625,268.8125 Z M820.457031,258.5 C820.131509,258.5 819.851564,258.617186 819.617188,258.851562 C819.382811,259.085939 819.265625,259.365884 819.265625,259.691406 L819.265625,260.863281 L836.0625,260.863281 L836.0625,259.691406 C836.0625,259.365884 835.945314,259.085939 835.710938,258.851562 C835.476561,258.617186 835.196616,258.5 834.871094,258.5 L820.457031,258.5 Z M828.289062,267.582031 C828.119791,267.582031 827.976563,267.523438 827.859375,267.40625 C827.742187,267.289062 827.683594,267.145834 827.683594,266.976562 C827.683594,266.807291 827.742187,266.664063 827.859375,266.546875 C827.976563,266.429687 828.119791,266.371094 828.289062,266.371094 L833.035156,266.371094 C833.204428,266.371094 833.347656,266.429687 833.464844,266.546875 C833.582032,266.664063 833.640625,266.807291 833.640625,266.976562 C833.640625,267.145834 833.582032,267.289062 833.464844,267.40625 C833.347656,267.523438 833.204428,267.582031 833.035156,267.582031 L828.289062,267.582031 Z M821.667969,265.53125 L823.328125,265.53125 C823.497397,265.53125 823.640624,265.593098 823.757812,265.716797 C823.875001,265.840495 823.933594,265.986978 823.933594,266.15625 L823.933594,267.816406 C823.933594,267.985678 823.875001,268.128906 823.757812,268.246094 C823.640624,268.363282 823.497397,268.421875 823.328125,268.421875 L821.667969,268.421875 C821.498697,268.421875 821.355469,268.363282 821.238281,268.246094 C821.121093,268.128906 821.0625,267.985678 821.0625,267.816406 L821.0625,266.15625 C821.0625,265.986978 821.121093,265.840495 821.238281,265.716797 C821.355469,265.593098 821.498697,265.53125 821.667969,265.53125 Z" id=""></path>
        </g>
    </g>
</svg>