<?xml version="1.0" encoding="UTF-8"?>
<svg width="17px" height="17px" viewBox="0 0 17 17" version="1.1" xmlns="http://www.w3.org/2000/svg" xmlns:xlink="http://www.w3.org/1999/xlink">
    <!-- Generator: Sketch 54.1 (76490) - https://sketchapp.com -->
    <title>ico-accounting</title>
    <desc>Created with Sketch.</desc>
    <g id="Navigation" stroke="none" stroke-width="1" fill="none" fill-rule="evenodd">
        <g id="1440-How-It-Works" transform="translate(-447.000000, -311.000000)" fill="#062942" fill-rule="nonzero">
            <g id="ico-accounting" transform="translate(447.000000, 311.000000)">
                <path d="M11.8091048,4.43919355 L5.39689677,4.43919355 C5.28724104,4.43623555 5.184625,4.49304602 5.12892541,4.58754832 C5.07322582,4.68205063 5.07322582,4.79934292 5.12892541,4.89384523 C5.184625,4.98834753 5.28724104,5.045158 5.39689677,5.0422 L11.8091048,5.0422 C11.9187606,5.045158 12.0213766,4.98834753 12.0770762,4.89384523 C12.1327758,4.79934292 12.1327758,4.68205063 12.0770762,4.58754832 C12.0213766,4.49304602 11.9187606,4.43623555 11.8091048,4.43919355 Z M11.8091048,3.12783548 L5.39689677,3.12783548 C5.28724104,3.12487748 5.184625,3.18168795 5.12892541,3.27619026 C5.07322582,3.37069257 5.07322582,3.48798485 5.12892541,3.58248716 C5.184625,3.67698947 5.28724104,3.73379994 5.39689677,3.73084194 L11.8091048,3.73084194 C11.9187606,3.73379994 12.0213766,3.67698947 12.0770762,3.58248716 C12.1327758,3.48798485 12.1327758,3.37069257 12.0770762,3.27619026 C12.0213766,3.18168795 11.9187606,3.12487748 11.8091048,3.12783548 L11.8091048,3.12783548 Z" id="Shape"></path>
                <path d="M16.5830065,16.3049194 L3.06235806,16.3049194 C2.54799839,16.3049194 1.7432129,16.3049194 1.21229194,15.3947887 C1.73569227,15.7663509 2.3710997,15.9462968 3.01160484,15.90435 L14.9632629,15.90435 C15.2891599,15.9109215 15.5589823,15.6526611 15.5666806,15.3267887 L15.5666806,1.79997097 C15.5677174,1.69094512 15.5101471,1.58975453 15.415897,1.53494013 C15.3216468,1.48012574 15.2052257,1.48012574 15.1109756,1.53494013 C15.0167254,1.58975453 14.9591552,1.69094512 14.9601919,1.79997097 L14.9601919,15.2975871 L3.01163226,15.2975871 C2.4402129,15.2975871 1.87408548,15.2317806 1.44050323,14.7841048 C1.66784154,14.8654843 1.90744513,14.9073008 2.14890968,14.9077387 L3.09693387,14.9077387 L3.09693387,14.9125645 L13.4265452,14.9125645 C13.8033505,14.9121867 14.1087173,14.6068198 14.1090952,14.2300145 L14.1090952,0.733467742 C14.1087173,0.35666241 13.8033505,0.051295598 13.4265452,0.0509177419 L3.09690645,0.0509177419 L3.09690645,0.0533306452 L2.14888226,0.0533306452 C1.02256373,0.0378362503 0.0960813031,0.936651873 0.0774322581,2.06292258 L0.0774322581,12.1282935 C0.0724152299,12.1471257 0.0693193103,12.1664178 0.0681919355,12.1858742 C0.07055,12.2442774 0.0742516129,12.2997468 0.0774322581,12.3563677 L0.0774322581,12.8980645 C0.0774322581,12.9558097 0.0814080645,13.0126226 0.0863709677,13.0691613 C0.0841626133,13.0793351 0.0825240415,13.0896242 0.0814629032,13.0999806 C0.220698387,16.4753032 1.74765484,16.9078984 3.06238548,16.9078984 L16.5830065,16.9078984 C16.6926622,16.9108564 16.7952782,16.8540459 16.8509778,16.7595436 C16.9066774,16.6650413 16.9066774,16.547749 16.8509778,16.4532467 C16.7952782,16.3587444 16.6926622,16.3019339 16.5830065,16.3048919 L16.5830065,16.3049194 Z M3.91359194,0.867603226 L13.2924097,0.867603226 L13.2924097,14.0958516 L3.91359194,14.0958516 L3.91359194,0.867603226 Z M0.930009677,2.06292258 C0.948185895,1.40731454 1.49321549,0.889908546 2.14888226,0.905825806 L3.09690645,0.905825806 L3.09690645,14.0551613 L2.14888226,14.0551613 C1.49321549,14.0710786 0.948185895,13.5536726 0.930009677,12.8980645 L0.930009677,2.06292258 Z" id="Shape"></path>
                <circle id="Oval" cx="2.06895484" cy="2.72537419" r="1"></circle>
                <circle id="Oval" cx="2.06895484" cy="12.2364629" r="1"></circle>
            </g>
        </g>
    </g>
</svg>