<svg xmlns="http://www.w3.org/2000/svg" viewBox="0 0 20 20" width="20px" height="auto"><defs><style>.a{fill:#fff;}</style></defs><title>overlay-close-icon</title><path class="a" d="M16.59.7c.52-.26.77-.52,1.29-.52A2,2,0,0,1,19.17.7,2,2,0,0,1,19.69,2c0,.52,0,1-.52,1.29L12.71,10l6.46,6.46a1.89,1.89,0,0,1,0,2.58c-.26.52-.77.52-1.29.52A2,2,0,0,1,16.59,19l-6.46-6.46L3.42,19.3a2,2,0,0,1-1.29.52c-.52,0-.77-.26-1.29-.77a1.86,1.86,0,0,1,0-2.58L7.55,9.74.83,3.29A2,2,0,0,1,.32,2,2,2,0,0,1,.83.7C1.35.44,1.61.19,2.13.19A2,2,0,0,1,3.42.7l6.71,6.71Z"/></svg>
