<svg id="Layer_1" data-name="Layer 1" xmlns="http://www.w3.org/2000/svg" viewBox="0 0 320.3 166"><defs><style>.cls-1{fill:#638c00}.cls-2{fill:#85c525}.cls-3{fill:#fff}</style></defs><title>MAT 1</title><path class="cls-1" d="M441.45 121.9s-5.3 3.1-15.1 17.4c-1.5 2.2-2.6 2.1-2.6 2.1s.5 3.4 5.5 2.4c0 0 7.1-16.9 14.5-20.2z" transform="translate(-195.75 -74.7)"/><path class="cls-2" d="M434.45 130.5s3.3-46.1 40.7-44.9c31 .9 40.9-10.9 40.9-10.9s.4 65.4-81.6 55.8z" transform="translate(-195.75 -74.7)"/><path class="cls-1" d="M439 126.1s15.4-23.4 33.7-25.2a59.83 59.83 0 0 0 29.9-11 49.09 49.09 0 0 1-31.1 15.8c-16.95 1.6-32.5 20.4-32.5 20.4z" transform="translate(-195.75 -74.7)"/><path class="cls-3" d="M291.65 220.6c-.3-2.4-.6-4.3-2.9-4.3-2.7 0-3.4 2.8-3.4 7.5 0 1.8 0 6.6 3.4 6.6 2.4 0 2.7-2.6 2.9-4.3l3.8.4c-.3 2.4-1 7.3-7 7.3s-7.1-6.2-7.1-10.4c0-4.7 1.2-10.5 7.5-10.5 5.7 0 6.4 5 6.7 7.1zM302.15 206.5v26.8h-4v-26.8h4zM319.55 223.2c0 4.7-1 10.6-7.5 10.6-5.9 0-7.5-5.3-7.5-10.4 0-4.7 1.3-10.4 7.6-10.4s7.4 5.4 7.4 10.2zm-10.8.3c0 5.2 1.1 7.3 3.3 7.3s3.3-2 3.3-7.3-1.1-7.3-3.3-7.3-3.3 2.4-3.3 7.3zM325.95 213.5V226c0 2.8 0 4.4 2.2 4.4 3.2 0 3.2-3.8 3.2-7.5v-9.5h4v19.8h-3.6v-3a4.92 4.92 0 0 1-4.7 3.5c-4.7 0-4.7-4.4-4.7-7.6v-12.7h4zM352.65 206.5v26.8H349v-3a4.71 4.71 0 0 1-4.7 3.4c-5.4 0-6.4-6.4-6.4-10.2 0-6.8 2.7-10.4 6.5-10.4a4.52 4.52 0 0 1 4.4 2.6v-9.3l3.8.1zm-3.9 15.1a7.62 7.62 0 0 0-.8-3.9 3.18 3.18 0 0 0-2.6-1.7c-2.9 0-3.3 3.8-3.3 7.1s.4 7.5 3.3 7.5a2.88 2.88 0 0 0 2.6-1.6 6.89 6.89 0 0 0 .8-4v-3.4zM361.75 218.6a6.76 6.76 0 0 1 7.1-5.6 6.66 6.66 0 0 1 5.3 2.1 9.44 9.44 0 0 1 1.2 5.9v6.7a25.4 25.4 0 0 0 .3 5.5h-3.7a18.41 18.41 0 0 1-.3-3.3 5.71 5.71 0 0 1-5.4 3.8 5 5 0 0 1-5.3-5v-.7a6.2 6.2 0 0 1 3.9-6.2 17.88 17.88 0 0 1 6.5-.8v-.8c0-1.4 0-4.3-2.8-4.3a3.12 3.12 0 0 0-3.1 3.1zm9.7 5.1h-1.2c-4.6 0-5.2 2.4-5.2 4.2a2.37 2.37 0 0 0 1.6 2.9 2.77 2.77 0 0 0 .9.1c1.7 0 3.7-1.8 3.7-6.2l.2-1zM388.35 220.6c-.3-2.4-.7-4.3-2.9-4.3-2.7 0-3.4 2.8-3.4 7.5 0 1.8 0 6.6 3.4 6.6 2.4 0 2.7-2.6 2.9-4.3l3.8.4c-.3 2.4-1 7.3-7 7.3s-7.1-6.2-7.1-10.4c0-4.7 1.2-10.5 7.5-10.5 5.7 0 6.4 5 6.7 7.1zM404.65 220.6c-.3-2.4-.7-4.3-2.9-4.3-2.7 0-3.4 2.8-3.4 7.5 0 1.8 0 6.6 3.4 6.6 2.4 0 2.7-2.6 2.9-4.3l3.8.4c-.3 2.4-1 7.3-7 7.3s-7.1-6.2-7.1-10.4c0-4.7 1.2-10.5 7.5-10.5 5.7 0 6.4 5 6.7 7.1zM425.75 223.2c0 4.7-1 10.6-7.5 10.6-5.9 0-7.5-5.3-7.5-10.4 0-4.7 1.3-10.4 7.5-10.4 6.4 0 7.5 5.4 7.5 10.2zm-10.8.3c0 5.2 1.1 7.3 3.3 7.3s3.3-2 3.3-7.3-1.1-7.3-3.3-7.3-3.3 2.4-3.3 7.3zM432.25 213.5V226c0 2.8 0 4.4 2.2 4.4 3.2 0 3.2-3.8 3.2-7.5v-9.5h3.8v19.8h-3.6v-3a4.92 4.92 0 0 1-4.7 3.5c-4.7 0-4.7-4.4-4.7-7.6v-12.7l3.8.1zM444.55 213.5h3.6v3.1a4.72 4.72 0 0 1 4.7-3.5 4.56 4.56 0 0 1 4.3 2.4 12.39 12.39 0 0 1 .7 5.1v12.8h-4v-12.5c0-2.6 0-4.5-2.4-4.5-3.1 0-3.1 3.9-3.1 5.9v11.1h-4l.2-19.9zM469.55 216.8h-3.6v8.8c0 3.5 0 4.7 2.6 4.7h1.6v3.2a28.86 28.86 0 0 1-2.9.4c-5.2 0-5.2-3.6-5.2-8v-9h-2.4v-3.3h2.6l.2-5.2 3.6-.3v5.5h3.6v3.3zM473 210.8v-4.4h4.1v4.4H473zm4 2.7v19.8h-3.9v-19.8h3.9zM480.45 213.5H484v3.1a4.72 4.72 0 0 1 4.7-3.5 4.56 4.56 0 0 1 4.3 2.4 12.39 12.39 0 0 1 .7 5.1v12.8h-4v-12.5c0-2.6 0-4.5-2.4-4.5-3.1 0-3.1 3.9-3.1 5.9v11.1h-4l.2-19.9zM512.25 213.3a2.77 2.77 0 0 0-.9-.1 2.09 2.09 0 0 0-2.1 2v.1a6.63 6.63 0 0 1 1.5 4.3 6.23 6.23 0 0 1-6 6.4h-.6a6.72 6.72 0 0 1-2.4-.4 1.83 1.83 0 0 0-1.4 1.8c0 1.5.9 1.5 4.7 1.7s7.4.4 7.4 5.4c0 5.3-5.2 6.2-8.7 6.2-2.7 0-7.7-.5-7.7-5a3.69 3.69 0 0 1 2.8-3.8 3.63 3.63 0 0 1-2.1-3.3 4.62 4.62 0 0 1 2.8-4 5.41 5.41 0 0 1-2.5-5.1 6.26 6.26 0 0 1 6-6.5h.7a7.4 7.4 0 0 1 3.6.9 3.53 3.53 0 0 1 3.2-3.7h.3c.4 0 .8.1 1.2.1zm-12.5 21.7c0 2.2 1.7 2.8 4.6 2.8 1.7 0 4.5-.3 4.5-2.7a2.23 2.23 0 0 0-2-2.4h-.3c-.7 0-4.4-.3-5.2-.3a2.72 2.72 0 0 0-1.6 2.6zm1.5-15.4c0 .6 0 3.8 2.7 3.8s2.7-3.4 2.7-3.8c0-.9-.2-3.9-2.6-3.9s-2.8 2.2-2.8 3.9zM195.75 135.4h27.8v12.9h-14.2v11.1h12.5v12.5h-12.5v23.8h-13.6v-60.3zM224.75 145.4H238a18.18 18.18 0 0 1 12.7 4.1 14.06 14.06 0 0 1 4.7 11.2 14.69 14.69 0 0 1-1.8 7.1 11.18 11.18 0 0 1-5.2 5.1l9.1 22.7h-12.1l-9.2-22.9h-.2v22.9h-11.3v-50.2zm11.3 9.7v11.8c5.1-.1 7.6-1.9 7.6-5.3a6.25 6.25 0 0 0-1.8-5 9.06 9.06 0 0 0-5.8-1.5zM258.45 145.4h23.1v10.7h-11.7v9.3h10.1v10.4h-10.1v9.1h11.9v10.7h-23.2l-.1-50.2zM306.15 145.4h11.4V164h10.1v-18.6H339v50.3h-11.4v-20.9h-10.1v20.9h-11.4v-50.3zM341.55 135.4h14c8.2 0 14 1.6 17.6 4.7a15.65 15.65 0 0 1 5.4 12.2 14.41 14.41 0 0 1-7.8 12.8 13 13 0 0 1 8.8 13.2 15.74 15.74 0 0 1-5.5 12.6 21.12 21.12 0 0 1-14.5 4.7h-18v-60.2zm13.6 11.6v13c6.4-.2 9.6-2.3 9.6-6.4a5.43 5.43 0 0 0-2.4-5.1 14.82 14.82 0 0 0-7.2-1.5zm0 23.9v13.2a16.49 16.49 0 0 0 7.9-1.6 5.47 5.47 0 0 0 2.7-5.1c0-4.3-3.2-6.5-9.5-6.5h-1.1zM398.85 197a15.58 15.58 0 0 1-13.9-7.1c-3.2-4.7-4.7-11.4-4.7-20.2 0-8.1 1.6-14.4 4.7-18.9a15.6 15.6 0 0 1 13.4-6.8 16.17 16.17 0 0 1 14 6.8c3.2 4.6 4.7 11 4.7 19.5s-1.6 15-4.7 19.6a15.57 15.57 0 0 1-13.5 7.1zm-.4-41.5c-4.1 0-6.2 4.8-6.2 14.5 0 6.2.5 10.4 1.6 12.5a4.76 4.76 0 0 0 4.5 3.1 5.41 5.41 0 0 0 4.9-3.1c1.1-2.1 1.7-6.2 1.7-12.3.1-9.8-2.1-14.7-6.5-14.7zM436.55 197a15.79 15.79 0 0 1-13.9-7.1c-3.2-4.7-4.7-11.4-4.7-20.2 0-8.1 1.6-14.4 4.7-18.9A15.6 15.6 0 0 1 436 144a16.17 16.17 0 0 1 14 6.8c3.2 4.6 4.7 11 4.7 19.5s-1.6 15-4.7 19.6a15.46 15.46 0 0 1-13.45 7.1zm-.4-41.5c-4.1 0-6.2 4.8-6.2 14.5 0 6.2.5 10.4 1.5 12.5a4.79 4.79 0 0 0 4.6 3.1 5.41 5.41 0 0 0 4.9-3.1c1.2-2.1 1.7-6.2 1.7-12.3 0-9.8-2.2-14.7-6.5-14.7zM455.75 145.4h11.4v23.7h.3l10.8-23.7h12l-11.7 25.7 11.2 24.6h-12.5l-9.7-20.9h-.2v20.9h-11.4l-.2-50.3z" transform="translate(-195.75 -74.7)"/><path class="cls-3" d="M490.55 194.8V183a19.92 19.92 0 0 0 9.1 3.2A4.75 4.75 0 0 0 503 185a4.06 4.06 0 0 0 1.2-3.1 4.78 4.78 0 0 0-1-2.8 17.77 17.77 0 0 0-3.5-3.2 40.33 40.33 0 0 1-8.6-8.4 15.06 15.06 0 0 1-2.6-8.7 14 14 0 0 1 13.4-14.7h1.3a22.31 22.31 0 0 1 9.5 2.1v11.2a18.64 18.64 0 0 0-8.3-2.8 4.81 4.81 0 0 0-3.3 1 3.45 3.45 0 0 0-1.2 2.8c0 2.1 1.9 4.5 5.7 7.1a36 36 0 0 1 6.9 6.6 15.28 15.28 0 0 1 3.5 9.8 14.29 14.29 0 0 1-4.6 10.8 16.4 16.4 0 0 1-11.6 4.3 21.54 21.54 0 0 1-9.25-2.2zM307.15 182.6l-11.5-16.4c-11.5-16.4 13.1-27.1 13.1-27.1l-1.8-1.8s-40 8.2-23.3 32.2L295 186.6c4.3 6.4-2.1 10.1-6.1 10.1h-7.2v3.2h5.6c9.55.1 30.05-2.1 19.85-17.3z" transform="translate(-195.75 -74.7)"/></svg>