<svg xmlns="http://www.w3.org/2000/svg" xmlns:xlink="http://www.w3.org/1999/xlink" width="100%" height="100%" viewBox="0 0 422 534">
    <defs>
        <path id="a" d="M.704 127.17c0 69.996 56.706 126.74 126.657 126.74 69.95 0 126.655-56.744 126.655-126.74C254.016 57.17 197.31.426 127.361.426 57.41.427.704 57.171.704 127.17"/>
    </defs>
    <g fill="none" fill-rule="evenodd">
        <path fill="#062942" d="M422 367.724l-58.953 38.615L422 534z"/>
        <path fill="#FAFDFF" d="M260.735 118.764c6.611 63.568-34.037 121.163-93.578 137.786a129.134 129.134 0 0 1-21.528 4.096c-36.857 3.837-71.712-8.238-97.71-30.677C23.851 209.21 7.351 179.602 3.805 145.5c-1.59-15.276-.448-30.202 3.032-44.296C19.496 49.794 63.225 9.424 118.902 3.63c70.958-7.384 134.453 44.163 141.833 115.134"/>
        <path fill="#00263F" d="M258.21 142.12a126.667 126.667 0 0 1-2.708 17.925c-.16.702-.334 1.406-.507 2.097-.138.611-.3 1.222-.46 1.821a126.018 126.018 0 0 1-10.601 27.307c-.738 1.406-1.51 2.79-2.305 4.16v.012a128.386 128.386 0 0 1-5.197 8.23 128.347 128.347 0 0 1-4.931 6.697 112.349 112.349 0 0 1-3.515 4.253 123.895 123.895 0 0 1-5.589 6.086c-15.405 15.676-34.717 27.19-55.999 33.127a125.233 125.233 0 0 1-21.063 4.011c-9.196.956-18.32.922-27.262-.046h-.012c-20.637-2.283-40.272-9.624-57.532-21.612a125.091 125.091 0 0 1-10.774-8.345c-10.543-9.106-19.392-19.733-26.318-31.444a125.754 125.754 0 0 1-7.028-13.763c-5.116-11.768-8.446-24.355-9.806-37.427-.922-8.909-.922-17.796.023-26.568v-.011c.45-4.253 1.118-8.472 2.005-12.668v-.012c.288-1.36.599-2.708.933-4.068 4.909-19.895 14.461-37.807 27.378-52.641l.012-.012C51.679 32.332 70.773 19.456 92.33 12.252a124.811 124.811 0 0 1 26.86-5.82c4.435-.461 8.837-.693 13.204-.693.933 0 1.856.012 2.79.035.736.012 1.461.035 2.187.07h.093c.933.034 1.867.08 2.789.149.737.035 1.475.092 2.212.161.437.024.864.059 1.29.116.565.046 1.118.092 1.67.161.277.024.554.046.82.093.702.057 1.405.15 2.108.242.219.023.437.057.657.08 1.82.242 3.63.53 5.427.854.933.161 1.866.333 2.788.53.852.172 1.705.357 2.559.54.172.047.344.081.506.116.819.197 1.637.38 2.443.588.91.23 1.82.461 2.719.715.864.22 1.706.461 2.558.726.127.035.253.07.37.115.829.23 1.647.484 2.453.761.865.265 1.729.553 2.582.864.091.024.184.058.276.093.819.277 1.625.576 2.432.875.875.312 1.739.647 2.603 1.003.865.346 1.729.692 2.582 1.06.852.347 1.705.727 2.545 1.108a55.78 55.78 0 0 1 2.525 1.175c.84.38 1.67.796 2.5 1.222.945.473 1.878.957 2.811 1.453.703.38 1.394.76 2.086 1.14a127.114 127.114 0 0 1 15.28 10.064c1.012.771 2.015 1.566 3.006 2.374.334.264.657.541.98.818h.011a125.887 125.887 0 0 1 5.266 4.633 79.377 79.377 0 0 1 1.729 1.637c.126.127.252.242.368.358.323.31.645.622.945.934.311.3.61.622.921.933a61.909 61.909 0 0 1 1.925 1.994 77.36 77.36 0 0 1 1.878 2.028c.438.484.865.958 1.28 1.442.299.334.586.668.875 1.002.519.6 1.025 1.21 1.532 1.821.496.588.98 1.188 1.44 1.787.15.173.289.346.427.53.369.473.738.946 1.094 1.418.219.277.439.565.646.842l1.175 1.59c.138.196.277.38.415.576.403.565.806 1.13 1.199 1.706.149.208.288.415.426.623.414.6.83 1.21 1.232 1.821.093.127.173.265.266.404a211.02 211.02 0 0 1 1.624 2.559c.346.53.669 1.072.991 1.625.173.276.334.553.496.841.277.45.542.9.784 1.348.253.427.495.854.737 1.292.23.414.472.84.691 1.267.208.37.403.726.588 1.096.287.53.564 1.072.83 1.613.115.196.218.403.31.611a39.6 39.6 0 0 1 1.038 2.098c.068.127.138.265.195.403.3.623.6 1.245.876 1.867.139.3.288.611.415.934.288.611.553 1.233.818 1.855.08.185.16.381.242.578a118.928 118.928 0 0 1 1.729 4.322c.207.553.414 1.095.598 1.648.173.427.323.864.473 1.29.31.877.6 1.742.887 2.629.139.438.288.876.415 1.326.196.6.38 1.198.553 1.798.23.76.45 1.522.657 2.282a99.212 99.212 0 0 1 .772 2.928c.139.53.265 1.072.392 1.613a112.84 112.84 0 0 1 .968 4.461c.184.876.345 1.752.495 2.64.127.726.254 1.44.357 2.166.37 2.26.668 4.542.91 6.847.438 4.23.669 8.46.68 12.69v.565c0 3.285-.138 6.548-.403 9.81m6.027-10.65a129.997 129.997 0 0 0-.704-13.003c-2.973-28.597-14.91-54.128-32.735-74.092a131.542 131.542 0 0 0-13.585-13.185 133.598 133.598 0 0 0-3.964-3.216C187.301 7.78 153.827-2.835 118.614.829A131.057 131.057 0 0 0 86.996 8.16h-.012C49.421 21.946 19.508 52.341 6.834 91.036v.011a129.945 129.945 0 0 0-6.43 35.524 131.009 131.009 0 0 0 .599 19.215 132.477 132.477 0 0 0 5.6 26.742 125.902 125.902 0 0 0 3.917 10.626 129.396 129.396 0 0 0 8.227 16.368c7.203 12.137 16.398 23.145 27.333 32.575a122.84 122.84 0 0 0 7.615 6.074c.197.161.393.31.588.449h.012c.357.277.726.542 1.095.795.772.554 1.555 1.107 2.338 1.638.104.08.22.15.323.218.634.439 1.28.864 1.924 1.28.289.196.565.38.853.553.404.265.795.518 1.198.76.116.081.22.15.335.22.277.173.552.345.83.506.656.405 1.325.808 1.993 1.2.057.045.115.069.161.092.783.46 1.556.91 2.35 1.348.311.185.612.346.923.507 0 0 .011 0 .011.012.46.265.933.519 1.406.761.219.126.426.242.645.345.587.312 1.175.611 1.763.9.299.173.61.323.91.46.496.254.991.496 1.498.738 2.028.992 4.08 1.914 6.142 2.778.898.381 1.809.75 2.719 1.107.727.288 1.452.576 2.189.84a130.297 130.297 0 0 0 13.908 4.37c.795.207 1.59.403 2.385.587.138.035.277.07.427.093.702.173 1.406.322 2.108.472.242.058.484.116.738.162.599.127 1.21.242 1.82.357.311.07.634.138.956.185.795.15 1.59.3 2.397.426.91.15 1.821.3 2.731.426.726.116 1.452.208 2.179.3.356.058.714.104 1.071.139l2.13.242.393.035c.76.08 1.521.15 2.293.207.807.08 1.613.138 2.431.184a34.67 34.67 0 0 0 1.52.093c.566.034 1.119.069 1.684.092h.115c.76.034 1.509.057 2.27.069.956.022 1.923.034 2.88.034 3.872 0 7.755-.173 11.626-.518a121.23 121.23 0 0 0 1.96-.185c1.59-.161 3.168-.357 4.747-.588a128.48 128.48 0 0 0 11.857-2.213c1.808-.427 3.606-.887 5.38-1.383h.013c29.636-8.276 55.618-26.891 73.156-52.41a129.52 129.52 0 0 0 6.902-11.227v-.012a125.507 125.507 0 0 0 5.404-11.043 124.653 124.653 0 0 0 3.883-10.108v-.012c.092-.23.174-.46.242-.691a131.027 131.027 0 0 0 3.883-14.304 131.409 131.409 0 0 0 2.409-16.599c.287-3.365.438-6.754.449-10.154v-.576c0-.22 0-.439-.011-.657"/>
        <path fill="#359CE4" d="M258.21 142.12a126.667 126.667 0 0 1-2.708 17.925c-.16.702-.334 1.406-.507 2.097-.138.611-.3 1.222-.46 1.821a126.018 126.018 0 0 1-10.601 27.307c-.738 1.406-1.51 2.79-2.305 4.16v.012a128.386 128.386 0 0 1-5.197 8.23 128.347 128.347 0 0 1-4.931 6.697 124.76 124.76 0 0 1-3.515 4.253 123.895 123.895 0 0 1-5.589 6.086c-15.405 15.676-34.717 27.19-55.999 33.127a125.233 125.233 0 0 1-21.063 4.011c-9.196.956-18.32.922-27.262-.046h-.012c-20.637-2.283-40.272-9.624-57.532-21.612a125.091 125.091 0 0 1-10.774-8.345c-10.543-9.106-19.392-19.733-26.318-31.444a125.754 125.754 0 0 1-7.028-13.763c-5.116-11.768-8.446-24.355-9.806-37.427-.922-8.909-.922-17.796.023-26.568v-.011c.45-4.253 1.118-8.472 2.005-12.668v-.012c.288-1.36.599-2.708.933-4.068 4.909-19.895 14.461-37.807 27.378-52.641l.012-.012C51.679 32.332 70.773 19.456 92.33 12.252a124.811 124.811 0 0 1 26.86-5.82c4.435-.461 8.837-.693 13.204-.693.933 0 1.856.012 2.79.035.736.012 1.461.035 2.187.07h.093c.933.046 1.867.092 2.789.149.737.047 1.475.104 2.212.161.437.035.864.07 1.29.116.565.046 1.118.092 1.67.161.277.024.554.046.82.093.702.069 1.405.15 2.108.242.219.023.437.057.657.08 1.82.254 3.63.53 5.427.854.933.172 1.866.345 2.788.53.852.172 1.705.357 2.559.54.172.047.344.081.506.116.819.197 1.637.38 2.443.588.91.23 1.82.461 2.719.715.864.22 1.706.461 2.558.726.127.035.253.07.37.115.829.23 1.647.484 2.453.761.865.276 1.729.565 2.582.864.091.024.184.058.276.093.819.277 1.625.576 2.432.875.875.323 1.739.657 2.603 1.003.865.346 1.729.692 2.582 1.06.852.358 1.705.727 2.545 1.108.853.38 1.695.771 2.525 1.175.84.38 1.67.796 2.5 1.222.945.473 1.878.957 2.811 1.453.703.38 1.394.76 2.086 1.14a127.114 127.114 0 0 1 15.28 10.064c1.012.771 2.015 1.566 3.006 2.374.334.264.657.541.98.818h.011a125.887 125.887 0 0 1 5.266 4.633 79.377 79.377 0 0 1 1.729 1.637c.126.127.252.242.368.358.323.31.645.622.945.934.311.3.61.622.921.933a61.909 61.909 0 0 1 1.925 1.994 77.36 77.36 0 0 1 1.878 2.028c.438.484.865.958 1.28 1.442.299.334.586.668.875 1.002.519.6 1.025 1.21 1.532 1.821.485.588.969 1.188 1.44 1.787.15.173.289.346.427.53.369.462.738.946 1.094 1.418.219.277.439.565.646.842l1.175 1.59c.138.196.277.38.415.576.403.565.806 1.13 1.199 1.706.149.208.288.415.426.623.414.6.83 1.21 1.232 1.821.093.127.173.265.266.404a211.02 211.02 0 0 1 1.624 2.559c.334.53.669 1.072.991 1.625.173.276.334.553.496.841.265.45.53.9.784 1.348.253.427.495.854.737 1.292.23.414.472.84.691 1.267.208.37.403.726.588 1.096.287.53.564 1.072.83 1.613.115.196.218.403.31.611.357.691.703 1.395 1.038 2.098.068.127.138.265.195.403.3.611.588 1.233.876 1.867.139.3.288.611.415.934a86.364 86.364 0 0 1 1.06 2.433 118.928 118.928 0 0 1 1.729 4.322c.207.553.414 1.095.598 1.648.173.427.323.864.473 1.29.31.877.6 1.742.887 2.629.139.438.288.876.415 1.326.196.588.38 1.198.553 1.798.23.76.45 1.522.657 2.282a99.212 99.212 0 0 1 .772 2.928c.139.53.265 1.072.392 1.613a112.84 112.84 0 0 1 .968 4.461c.184.876.345 1.752.495 2.64.127.726.254 1.44.357 2.166.37 2.26.668 4.542.91 6.847.438 4.23.669 8.46.68 12.69v.565c0 3.285-.138 6.548-.403 9.81m6.027-10.65a129.997 129.997 0 0 0-.704-13.003c-2.973-28.597-14.91-54.128-32.735-74.092a131.542 131.542 0 0 0-13.585-13.185 133.598 133.598 0 0 0-3.964-3.216C187.301 7.78 153.827-2.835 118.614.829A131.057 131.057 0 0 0 86.996 8.16h-.012C49.421 21.946 19.508 52.341 6.834 91.036v.011a129.945 129.945 0 0 0-6.43 35.524 131.009 131.009 0 0 0 .599 19.215 132.477 132.477 0 0 0 5.6 26.742 125.902 125.902 0 0 0 3.917 10.626 129.396 129.396 0 0 0 8.227 16.368c7.203 12.137 16.398 23.145 27.333 32.575a122.84 122.84 0 0 0 7.615 6.074c.197.161.393.31.588.449h.012c.357.277.726.542 1.095.795.772.554 1.555 1.107 2.338 1.638.104.08.22.15.323.218.634.439 1.28.864 1.924 1.28.289.196.565.38.853.553.404.265.795.518 1.198.76v.012c.116.069.22.138.335.208.277.173.552.345.83.506.656.405 1.325.808 1.993 1.2.057.045.115.069.161.092.783.46 1.556.91 2.35 1.348.311.185.612.346.923.507 0 0 .011 0 .011.012.46.265.933.519 1.406.761.219.126.426.242.645.345.587.312 1.175.611 1.763.9.299.173.61.323.91.46.496.254.991.496 1.498.738 2.028.992 4.08 1.914 6.142 2.778.898.381 1.809.75 2.719 1.107.727.288 1.452.576 2.189.84a130.297 130.297 0 0 0 13.908 4.37c.795.207 1.59.403 2.385.587.138.035.277.07.427.093.702.173 1.406.322 2.108.472.242.058.484.116.738.162.599.127 1.21.242 1.82.357.311.07.634.138.956.185.795.15 1.59.3 2.397.426.91.15 1.821.3 2.731.426.726.116 1.452.208 2.179.3.356.058.714.104 1.071.139l2.13.242.393.035c.76.08 1.521.15 2.293.207.807.08 1.613.138 2.431.184a34.67 34.67 0 0 0 1.52.093c.566.034 1.119.069 1.684.092h.115c.76.034 1.509.057 2.27.069.956.022 1.923.034 2.88.034 3.872 0 7.755-.173 11.626-.518a121.23 121.23 0 0 0 1.96-.185c1.59-.161 3.168-.357 4.747-.588a128.48 128.48 0 0 0 11.857-2.213c1.808-.427 3.606-.887 5.38-1.383h.013c29.636-8.276 55.618-26.891 73.156-52.41a129.52 129.52 0 0 0 6.902-11.227v-.012a125.507 125.507 0 0 0 5.404-11.043 124.653 124.653 0 0 0 3.883-10.108v-.012c.092-.23.174-.46.242-.691a131.027 131.027 0 0 0 3.883-14.304 131.409 131.409 0 0 0 2.409-16.599c.287-3.365.438-6.754.449-10.154v-.576c0-.22 0-.439-.011-.657"/>
        <path fill="#359CE4" d="M160.828 409.444l-.686-4.726-16.235-141.598 6.71-.77 16.238 141.628.656 4.491z"/>
        <path fill="#359CE4" d="M164.054 420.656a7.404 7.404 0 0 1-7.05-6.544l-6.312-54.318-6.371-53.8a7.401 7.401 0 0 1 6.477-8.223c4.058-.488 7.74 2.419 8.22 6.48l6.375 53.818 6.315 54.334a7.403 7.403 0 0 1-7.654 8.253"/>
        <path fill="#FCB3CD" d="M142.806 325.596l2.847 27.004a18.5 18.5 0 0 0 8.909 1.265c10.193-1.06 18.152-4.581 17.092-14.779a18.547 18.547 0 0 0-4.277-10.074l-21.707-5.002a17.484 17.484 0 0 0-2.864 1.586"/>
        <path fill="#FCB3CD" d="M156.045 352.701c10.195 3.93 20.445 7.662 30.718 11.334a1843.25 1843.25 0 0 0 9.832 3.487l3.194-23.592c-1.95-.45-4.788-1.167-6.746-1.598-10.649-2.383-21.301-4.707-32.028-6.831-4.86-.966-9.585 2.209-10.55 7.07a9 9 0 0 0 5.58 10.13"/>
        <path fill="#FCB3CD" d="M161.042 320.857s5.02.32 9.59 7.296c4.571 6.977 5.418 10.495 16.487 12.95l-10.541 4.942-13.664-8.915-1.872-16.273zM180.494 361.744c-12.53-4.946-22.476-3.912-32.53-8.154l7.573-5.355 18.054.285 6.903 13.224zM157.83 334.454s-19.214-2.97-19.174-8.743c.028-4.014 12.192-4.474 12.192-4.474l6.981 13.217z"/>
        <path fill="#FCB3CD" d="M155.702 341.727s-19.214-2.97-19.173-8.743c.027-4.014 12.191-4.474 12.191-4.474l6.982 13.217z"/>
        <path fill="#FCB3CD" d="M156.668 349.48s-19.213-2.97-19.173-8.743c.028-4.014 12.192-4.475 12.192-4.475l6.981 13.217z"/>
        <path fill="#FCB3CD" d="M160.313 356.793s-19.214-2.97-19.173-8.743c.027-4.013 12.191-4.474 12.191-4.474l6.982 13.217z"/>
        <path fill="#359CE4" d="M145.483 315.865l.856 8.245 12.3 2.727-1.856-16.314z"/>
        <path fill="#ED4382" d="M230.28 158.788c-.461.876-.911 1.533-1.291 1.994 0 0-.012 0-.012.012-.403.496-.714.76-.83.795-.172-.161-.322-.842-.253-1.96.069-1.014.3-2.409.887-4.069 1.21-3.469 2.835-5.048 3.135-5.152.207.208.38 1.176.172 2.754a5 5 0 0 1-.114.657s.01 0 0 .012c.01.035 0 .07 0 .104-.013 0-.013.012-.013.023a16.982 16.982 0 0 1-.68 2.479c-.322.91-.668 1.694-1.002 2.35m3.988-8.114c-.093-.542-.243-.957-.427-1.29-.334-.554-.749-.842-1.14-.98-.761-.265-1.994-.185-3.48 1.717-.957 1.175-1.821 2.859-2.478 4.714-.726 2.087-1.153 4.369-.98 6.098.012.092.024.185.046.265.161 1.199.657 2.074 1.557 2.386.172.07.344.103.518.103.207.024.414.012.622-.034.53-.138 1.048-.45 1.544-.934.358-.3.702-.702 1.014-1.14l.011-.012c.45-.61.876-1.303 1.268-2.086.368-.727.703-1.522.98-2.317.298-.854.54-1.706.713-2.524.208-.97.312-1.89.312-2.709.01-.473-.023-.9-.08-1.257"/>
        <path fill="#FCB3CD" d="M222.988 196.953l.049.03c2.382 1.103 6.31.71 13.74-.636.592-.123 1.19-.226 1.825-.34 3.016-.565 6.492-1.45 9.179-.463.98.364 2.003.904 3.054 1.645 8.716-1.347 16.345-4.692 22.393-9.084 6.354-4.591 10.973-10.339 13.337-16.16.04-.093.079-.185.1-.274 9.325-23.38-1.325-35.485-20.322-38.655-11.524-1.935-19.018.256-24.464 5.084-4.603 4.104-7.774 10.1-10.644 17.084-.015.024-.025.068-.06.097-.799 1.916-1.581 3.91-2.368 5.969-1.789 4.686-3.318 8.812-4.555 12.431 1.844-.177 3.397-.616 4.724-1.042 2.94-.962 4.732-1.957 5.875-.574 1.76 2.125-1.96 6.802-12.398 7.115-3.072 10.163-3.075 15.372.535 17.773"/>
        <path fill="#FCB3CD" d="M236.774 196.338c.598-.1 1.192-.222 1.833-.333 3.004-.551 6.502-1.445 9.165-.465.491.192.988.405 1.5.681.256.138.517.298.779.457.26.16.522.319.788.499l.005.021c4.055 2.777 8.882 8.462 15.413 17.961 2.001 2.474 3.851 4.964 5.376 7.22a295.656 295.656 0 0 1 5.026 7.973c.022-.005.005.021.005.021.524.875 1.012 1.691 1.477 2.513.026.015.006.02.006.02 2.523 4.352 4.406 7.99 5.786 11.016.536-.998 1.025-1.917 1.476-2.717l.032-.052c.058-.126.122-.23.186-.335 0 0 .016-.026.01-.046 1.721-3.09 2.646-4.783 2.646-4.783l.633.315 6.418 3.072c-2.36-2.856-4.634-5.531-2.42-7.96.862-.944 1.77-1.787 2.75-2.514a.35.35 0 0 1 .174-.11 4.28 4.28 0 0 1 .76-.54c.131-.099.285-.203.442-.285a12.29 12.29 0 0 1 1.127-.675l1.01-.511c.042-.01.08-.042.143-.057a14.96 14.96 0 0 1 1.835-.69c.037-.031.058-.036.084-.02.12-.052.242-.104.368-.134l.505-.122a.692.692 0 0 1 .204-.072c4.886-1.23 10.162-.396 14.736 2.411a736.118 736.118 0 0 1-5.279-4.884c-1.125-1.063-2.25-2.125-3.307-3.182a171.534 171.534 0 0 1-7.572-7.644 86.4 86.4 0 0 1-4.089-4.662 57.854 57.854 0 0 1-1.694-2.215c-5.313-7.413-8.078-13.219-9.356-17.94-1.86-6.848-.612-11.336.577-14.963.054-.147.087-.288.145-.413-.01-.042.006-.068.022-.094.032-.053.042-.1.074-.152l-.004-.021c.041-.1.069-.172.09-.266.187-.514.337-.996.504-1.503l-24.815 8.69-.021.007-1.782.632-23.77 16.851zM226.022 165.929l-3.116 7.85c.475-.01.92-.056 1.346-.097 1.844-.178 3.396-.617 4.725-1.043l3.944-20.851c-.075.204-.677 1.657-1.686 3.396-.015.024-.025.068-.059.097-1.386 2.411-3.542 5.319-6.208 6.299-4.72 1.746-8.572 1.768-8.629 2.818-.061 1.032 9.683 1.53 9.683 1.53"/>
        <path fill="#ED4382" d="M235.522 157.866c-1.22 3.47-2.846 5.06-3.134 5.152-.23-.23-.438-1.499-.046-3.539.127-.726.357-1.568.68-2.489.322-.91.668-1.695 1.014-2.352.956-1.844 1.89-2.73 2.12-2.8.31.322.576 2.558-.634 6.028m1.417-8.034c-.887-.311-1.808.057-2.673.842-.519.472-1.026 1.094-1.475 1.82 0 0 0 .012-.011.012a12.2 12.2 0 0 0-.807 1.43c-.011 0-.011.011-.011.023-.38.737-.715 1.51-.991 2.304-.288.82-.518 1.683-.691 2.525-.277 1.28-.381 2.536-.277 3.573.011.127.023.254.045.358.104.576.266 1.072.531 1.463v.012c.242.392.588.669 1.026.83.31.104.702.161 1.164.057.645-.161 1.44-.645 2.315-1.763.934-1.187 1.82-2.87 2.478-4.738 0-.034.023-.046.023-.08v-.012c.254-.703.449-1.395.61-2.074.254-1.107.392-2.144.392-3.055.012-2.432-.887-3.262-1.648-3.527"/>
        <path fill="#ED4382" d="M255.282 162.203l-18.359-3.844.443-2.118 18.36 3.844z"/>
        <path fill="#042942" d="M247.205 140.52c13.771-2.317 6.126 24.118 6.126 24.118s1.577-.792 3.663-2.323c3.454-2.533 5.403-4.192 8.368-2.644 3.751 1.958 1.724 15.017-8.882 14.036 0 0 18.883 18.77 29.73 13.68 6.342-4.587-2.003-9.617.35-15.448 9.51-23.544-.203-38.72-19.472-40.34-12.123-1.018-21.363 4.228-31.435-.156.12 1.199 1.041 10.846 11.552 9.077"/>
        <path fill="#004B9C" d="M422.038 367.812l-58.618 39.339c-16.984-38.982-70.815-148.51-70.815-148.51l6.533-1.175-.391-.668-6.88-11.527-.126-.196a17.344 17.344 0 0 1-2.454-8.587c-.116-5.072 1.935-10.132 6.06-13.705a17.474 17.474 0 0 1 11.535-4.276 17.522 17.522 0 0 1 13.25 6.086 487.029 487.029 0 0 1 6.58 7.825 422.005 422.005 0 0 1 6.36 7.85c4.172 5.268 8.331 10.536 12.364 15.918 4.033 5.372 8.065 10.754 11.995 16.218a1008.837 1008.837 0 0 1 11.58 16.587 565.05 565.05 0 0 1 11.246 16.897 627.808 627.808 0 0 1 10.786 17.336c2.258 3.758 28.818 40.75 30.995 44.588"/>
        <path fill="#004B9C" d="M199.846 343.874l-3.271 23.64a3009.807 3009.807 0 0 0 21.07 7.299l15.475 5.245 15.52 5.135 2.01.656c1.073.332 2.16.613 3.26.844a37.04 37.04 0 0 0 6.761.778c4.57.12 9.163-.724 13.44-2.303 8.572-3.171 15.924-9.658 20.14-18.01a37.934 37.934 0 0 0 2.567-6.479c.325-1.12.593-2.245.813-3.364l.425-2.112 1.588-8.011 3.12-16.037c2.108-10.691 4.1-21.4 6.132-32.093 3.982-21.415 7.897-42.843 11.439-64.328 1.575-9.54-4.88-18.542-14.405-20.109-9.477-1.571-18.427 4.803-20.08 14.245-3.757 21.46-7.143 42.976-10.45 64.505-1.62 10.774-3.28 21.534-4.82 32.32l-2.356 16.17-1.149 8.091-.271 1.913a10.4 10.4 0 0 1-.07.623c-.075.391-.17.776-.304 1.147-.52 1.467-1.711 2.87-3.302 3.651a7.275 7.275 0 0 1-2.497.75 8.323 8.323 0 0 1-1.363.027c-.233-.015-.468-.058-.712-.09l-1.904-.475-15.858-3.946-15.895-3.837a2354.42 2354.42 0 0 0-25.053-5.845"/>
        <g transform="translate(5.132 5)">
            <mask id="b" fill="#fff">
                <use xlink:href="#a"/>
            </mask>
            <path fill="#062942" d="M111 118.3c-2.416 9.387-7.567 16.604-15.741 22.054-9.469 6.311-19.055 7.911-30.169 5.035-9.485-2.455-16.675-7.586-22.043-15.78-6.313-9.483-7.9-19.153-4.998-30.429 2.367-9.195 7.449-16.244 15.534-21.55 9.57-6.278 19.394-7.849 30.896-4.932 9.439 2.835 16.41 7.889 21.288 15.425 6.339 9.83 8.003 19.42 5.234 30.176m73.302-68.814C166.69 17.435 139.94-3.425 104.8-12.521c-32.3-8.36-63.065-4.182-91.442 12.416-29.887 17.492-49.69 44.416-58.856 80.025-4.369 16.965-5.413 34.01-3.106 50.655 2.349 16.978 7.992 32.256 16.79 45.446 7.17 10.68 16.686 20.273 28.28 28.51 6.563 4.663 13.307 8.55 20.177 11.624l-93.65 85.216 99.696 25.803 120.734-109.455c26.603-24.15 43.801-50.8 51.118-79.217 8.123-31.553 4.693-61.478-10.24-89.017" mask="url(#b)"/>
        </g>
    </g>
</svg>
