<svg xmlns="http://www.w3.org/2000/svg" width="100%" height="100%" viewBox="0 0 263 338">
    <g fill="none" fill-rule="evenodd">
        <path fill="#004B88" d="M28.353 256.348s.01 0 .02.02c.047.105.096.202.135.307l.076.233c-.145-.29-.231-.503-.231-.56m69.66-124.395a12.744 12.744 0 0 0-.126-1.06c-.86-5.716-4.347-10.99-9.94-14.046a19.503 19.503 0 0 0-2.183-1.021 20.327 20.327 0 0 0-10.877-1.195c-1.266.202-2.502.52-3.71.954-4.26 1.542-7.999 4.482-10.404 8.618-.26.444-.522.925-.734 1.378-1.817 3.808-3.623 7.616-5.43 11.424v.01a6489.917 6489.917 0 0 0-20.248 43.052c-8.452 18.229-16.866 36.4-24.962 55.064-2.02 4.713-4 9.33-5.97 14.527-.502 1.34-.986 2.622-1.555 4.473l-.232.81-.251.945-.3 1.359a18.16 18.16 0 0 0-.193 1.484c-.038.55-.077 1.031-.058 1.63.02.636.067 1.272.164 1.898l.155.945.125.492.27.973c.097.328.204.656.271.8l.473 1.186.406.877c1.063 2.122 1.884 3.345 2.724 4.657.841 1.252 1.653 2.419 2.465 3.528 3.235 4.444 6.452 8.464 9.708 12.474 3.255 4 6.53 7.924 9.824 11.809.435.51 10.843 11.882 11.277 12.393l21.627-10.85a1324.31 1324.31 0 0 1-9.245-12.215c-1.112-1.484-2.213-2.959-3.314-4.443-1.739-2.352-3.468-4.685-5.16-7.038h-.008a1.472 1.472 0 0 0-.107-.154h-.009c-.377-.52-.754-1.051-1.13-1.57-.783-1.08-1.556-2.16-2.32-3.24-2.83-3.99-5.64-8.03-8.075-11.877-.26-.414-.521-.83-.763-1.234 1.874-3.923 4.135-8.223 6.366-12.425a1561.696 1561.696 0 0 1 12.626-23.088c0-.01 0-.02.01-.03 5.39-9.707 10.896-19.376 16.394-29.054a6406.27 6406.27 0 0 1 20.808-36.266c1.42-2.449 2.83-4.897 4.25-7.336l4.87-8.387.009-.02c.251-.433.492-.876.695-1.33a18.436 18.436 0 0 0 1.787-9.88"/>
        <path fill="#004B88" d="M51.084 289.326l10.52 12.214H35.675c1.7-8.3 3.448-15.212 4.869-21.642.068-.337.136-.665.213-.983.02-.115.039-.221.067-.328l.29-.838 9.97 11.577zM75.695 148.444c2.121 1.492 4.622 2.58 7.376 3.123 1.268.247 2.538.37 3.787.37 1.287 0 2.574-.123 3.806-.37 7.25-1.456 13.265-6.948 14.824-14.406l5.183-24.81 1.16-5.582.598 1.966c.072-1.089.145-2.106.217-3.07 2.23-25.567 10.24-5.371 21.893-9.02 3.05-.97 4.033-4.083 5.507-10.149.227-.931.711-1.87.89-2.226.285-.572.33-1.067.073-1.334a15.108 15.108 0 0 1-.707-.768c-2.718-3.387-3.86-5.281-3.316-5.685.488-.37 2.736 1.596 5.2 4.527.382-2.457.725-5.071 1.051-7.703l6.308 1.017c.96.14 1.63-.877 1.087-1.649l-6.235-8.878-1.25-1.774-.072-.105v-.017l-.09-.123a2.75 2.75 0 0 1-.165-2.263l1.813-4.756a17.526 17.526 0 0 0 1.014-4.194c.056-.614.128-1.21.146-1.579.253-3.124.181-6.054-.182-8.79-.2-1.58-.49-3.09-.87-4.529-4.131-15.985-18.792-23.881-34.558-23.881-18.884 0-34.344 15.353-35.539 34.744a7.25 7.25 0 0 0-.036.614c-.036.491-.073.964-.073 1.421-.435 12.476 5.238 19.636 3.553 33.971l-.073.299-1.559 7.493-5.291 25.286-.671 3.228-2.3 11.02c-1.524 7.3 1.63 14.477 7.501 18.582"/>
        <path fill="#FA8DB5" d="M125.17 235.887c-1.596 8.721-3.36 17.806-4.86 27.816-.991 6.65-1.753 13.522-2.31 20.324a736.31 736.31 0 0 1-15.803-.632c-.592-.035-1.196-.059-1.789-.094l-.75-.035c-17.567-.937-37.663-2.576-57.057-5.42-.52-.083-1.04-.153-1.559-.235 0-.047.013-.093.024-.14.097-.456.194-.901.29-1.347 1.887-8.757 3.543-17.22 4.595-25.299 1.136-8.792 2.164-17.537 3.24-26.552 3.108-25.861 6.65-53.84 14.364-91 1.959-4.354 4.1-8.382 6.433-11.987 1.547-2.412 3.18-4.636 4.909-6.662 7.943-9.318 17.797-14.364 30.07-12.995 2.478.281 4.655 2.623 6.553 6.638 9.164 19.283 12.139 76.951 13.65 127.62"/>
        <path fill="#062942" d="M117.99 284.082a333.853 333.853 0 0 0-.917 17.458l-88.489 35.777c.126-9.89 11.873-53.456 11.97-57.429.048-.211.077-.433.135-.645.02-.106.038-.222.067-.328.02-.115.04-.221.069-.327.076-.328.144-.656.221-.974 0-.04.02-.096.02-.145.473.078.937.145 1.42.222h.01c19.465 2.853 39.568 4.57 57.16 5.572.27.02.502.029.763.048.58.03 1.178.058 1.777.087 1.392.058 2.773.135 4.135.193 4.077.192 7.998.376 11.66.491"/>
        <path fill="#2672B9" d="M142.547 72.036c-.054-.145.153-.409.608-.562.449-.164 1.13-.194 1.805-.007 1.358.39 2.097 1.294 1.891 1.556-.2.275-1.137-.073-2.217-.375-1.068-.326-1.945-.295-2.087-.612"/>
        <path fill="#062942" d="M156.176 32.292c0 17.457-14.616 31.61-32.646 31.61-18.028 0-32.645-14.153-32.645-31.61 0-17.458 14.617-31.61 32.645-31.61 18.03 0 32.646 14.152 32.646 31.61"/>
        <path fill="#062942" d="M122.312 74.047c0 17.458-14.616 31.61-32.646 31.61-18.028 0-32.645-14.152-32.645-31.61 0-17.457 14.617-31.61 32.645-31.61 18.03 0 32.646 14.153 32.646 31.61"/>
        <path fill="#062942" d="M150.937 118.534c0 17.458-14.617 31.61-32.645 31.61-18.03 0-32.646-14.152-32.646-31.61 0-17.457 14.616-31.61 32.646-31.61 18.028 0 32.645 14.153 32.645 31.61"/>
        <path fill="#062942" d="M105.394 110.73c0 17.457-14.616 31.61-32.645 31.61-18.03 0-32.646-14.153-32.646-31.61 0-17.458 14.617-31.61 32.646-31.61s32.645 14.152 32.645 31.61"/>
        <path fill="#062942" d="M109.828 72.096c0 17.457-14.616 31.61-32.646 31.61-18.029 0-32.645-14.153-32.645-31.61 0-17.458 14.616-31.61 32.645-31.61 18.03 0 32.646 14.152 32.646 31.61"/>
        <path fill="#062942" d="M133.204 36.584c0 17.458-14.617 31.61-32.646 31.61s-32.645-14.152-32.645-31.61c0-17.457 14.616-31.61 32.645-31.61 18.03 0 32.646 14.153 32.646 31.61"/>
        <path fill="#004B88" d="M118.005 143.63a4389.014 4389.014 0 0 0 23.184 69.947c3.968 11.616 7.994 23.204 12.127 34.71 4.142 11.468 8.372 22.999 12.913 33.884 1.131 2.688 2.305 5.363 3.439 7.674.28.57.557 1.113.808 1.582l.56 1.001c.029.06.023.043-.215-.226-.136-.15-.317-.355-.733-.736-.467-.377-.991-.979-2.966-1.99a13.88 13.88 0 0 0-3.307-1.109 14.902 14.902 0 0 0-1.704-.236 15.406 15.406 0 0 0-1.649-.03 13.392 13.392 0 0 0-2.64.361 12.268 12.268 0 0 0-1.664.505c-.245.09-.602.248-.716.297a11.2 11.2 0 0 0-.956.474l-.436.254-.273.17c-.18.114-.356.235-.528.362a8.553 8.553 0 0 0-.643.51c-.181.16-.238.208-.356.325l-.202.207-.112.128c-.156.204.106-.068.36-.414.269-.353.595-.823.928-1.324a75.531 75.531 0 0 0 2.09-3.375c1.42-2.412 2.838-5.003 4.232-7.624 5.579-10.557 10.885-21.648 16.097-32.728 10.395-22.215 20.444-44.773 30.226-67.312l.023-.05c2.427-5.593 9.077-8.22 14.852-5.87 5.613 2.285 8.325 8.454 6.244 13.933-8.854 23.195-17.887 46.202-27.419 69.209-4.798 11.507-9.646 22.957-15.114 34.535-1.383 2.904-2.803 5.812-4.39 8.811a102.17 102.17 0 0 1-2.6 4.647 54.229 54.229 0 0 1-1.624 2.567c-.635.926-1.306 1.9-2.506 3.263l-.512.553c-.197.204-.347.364-.617.62-.263.247-.459.435-.79.718-.366.305-.641.535-1.107.874-.252.181-.51.357-.771.527l-.395.25-.567.325c-.397.217-.805.422-1.218.61a16.856 16.856 0 0 1-2.8.948 16.482 16.482 0 0 1-2.934.399c-.423.023-1.102.024-1.797-.032-.69-.052-1.36-.153-1.85-.255a15.618 15.618 0 0 1-2.756-.827c-.424-.171-.642-.276-.968-.431-2.33-1.185-3.164-2.035-3.917-2.676a19.286 19.286 0 0 1-1.54-1.582 25.804 25.804 0 0 1-1.626-2.082 44.015 44.015 0 0 1-1.892-2.947 77.697 77.697 0 0 1-1.41-2.496c-1.718-3.18-3.13-6.12-4.516-9.074-5.432-11.723-10.143-23.21-14.843-34.782-4.669-11.554-9.195-23.112-13.66-34.682a4434.594 4434.594 0 0 1-26.125-69.603c-3.237-8.84 1.54-18.544 10.668-21.676 9.127-3.135 19.15 1.49 22.387 10.328.066.182.13.364.189.547l.037.113z"/>
        <path fill="#FFCE30" d="M152.364 185.023l59.685 8.728 36.81-85.633 13.738-31.961-59.685-8.728z"/>
        <path fill="#FFF" d="M158.97 178.476l50.385 7.368 44.516-103.56-50.385-7.369z"/>
        <path fill="#7B95A1" d="M209.926 77.29c1.75-3.216 4.695-5.597 7.081-5.597.15 0 .3.01.445.033l7.58 1.112.04.018.139.009.246.035.053-.024h.051c1.922 0 2.786-1.167 3.688-2.414l.026-.02.1-.156c.103-.158.22-.323.351-.493 1.13-1.49 2.62-2.448 3.797-2.448.095 0 .188.007.279.02 1.158.172 1.433 1.46 1.304 2.638l-.015.102c-.006.048-.009.099-.02.145l-.02.1-.057.354c-.233 1.438-.551 3.408 2.126 3.9l7.568 1.104c.775.112 1.368.525 1.762 1.226.741 1.32.682 3.451-.135 5.674l-36.389-5.317z"/>
        <path fill="#7B95A1" d="M245.585 81.43l-33.899-4.955.242-.327c1.623-2.102 3.661-3.394 5.081-3.394.097 0 .193.01.29.02l7.429 1.09.087.037.29.02.502.077.135-.058c2.164-.077 3.256-1.33 4.164-2.564.039-.058.086-.116.125-.174l.04-.038.192-.3c.097-.134.194-.279.32-.433 1.004-1.33 2.24-2.024 2.937-2.024.047 0 .085 0 .124.01.396.058.463.847.406 1.426l-.02.135v.049l-.019.057-.009.106-.058.347c-.059.367-.135.868-.145 1.408-.03 1.436.445 3.21 3.13 3.701l.038.01h.039l7.526 1.099c.453.068.753.28.985.704.368.646.56 1.918.154 3.624l-.086.347m-.744-6.776l-7.526-1.1c-1.053-.192-1.382-.617-1.41-1.301-.03-.463.087-1.041.193-1.745.029-.086.039-.183.049-.28l.01-.019c.26-2.063-.561-3.654-2.194-3.895a3.31 3.31 0 0 0-.443-.028c-1.537 0-3.324 1.138-4.638 2.863-.145.193-.28.375-.396.559-.038.03-.048.058-.068.086-.348.483-.647.897-.976 1.225-.492.501-1.033.79-1.883.79h-.222c-.01-.009-.02-.009-.03-.009h-.009l-7.69-1.128a4.121 4.121 0 0 0-.599-.038c-2.491 0-5.448 2.1-7.438 5.167a14.997 14.997 0 0 0-1.16 2.178l-.067.155 38.641 5.649.068-.145c.328-.771.57-1.523.734-2.247.793-3.527-.337-6.352-2.946-6.737"/>
        <path fill="#0072B4" d="M244.744 117.998l-25.46 58.921 6.45 3.387 27.271-36.233z"/>
        <path fill="#004B88" d="M257.082 144.073c0 5.622-6.518 13.534-17.142 25.99-5.158 6.036-10.478 12.277-13.873 17.351l-6.78-4.509c3.656-5.469 9.14-11.899 14.45-18.114 5.627-6.6 15.062-17.647 15.198-20.727 0-3.529-3.286-13.076-6.437-21.158l4.34-10.095.296-.125c1.665 3.897 9.948 23.727 9.948 31.387"/>
        <path fill="#004B88" d="M243.387 162.358l-11.883-13.206-12.22 27.767 6.45 3.386z"/>
        <path fill="#004B88" d="M240.787 165.97a4.072 4.072 0 0 1-3.691-2.34l-10.184-21.67a4.06 4.06 0 0 1 1.96-5.405 4.081 4.081 0 0 1 5.417 1.954l10.184 21.672a4.06 4.06 0 0 1-1.96 5.405 4.068 4.068 0 0 1-1.726.385M241.516 168.174c-7.502 9.28-16.206 23.65-24.908 45.802 0 0-6.002-1.197-6.002-2.694 0-1.497 12.904-36.222 12.904-36.222l18.006-6.886z"/>
        <path fill="#F9679C" d="M176.796 152.817l-.52-.564 25.759-23.572 1.334 9.629 30.29-27.924.522.563-31.37 28.92-1.337-9.634z"/>
        <path fill="#F9679C" d="M233.845 110.654l-3.048.574 5.769-3.285-3.3 5.752z"/>
    </g>
</svg>
