<svg xmlns="http://www.w3.org/2000/svg" viewBox="0 0 160 160"><style>.st0{fill:#a8e0b2}.st1{fill:#efc100}.st2{fill:#f74183}.st3{fill:#cfe6f8}</style><g id="Layer_1"><circle class="st0" cx="10" cy="30" r="8.3"/><circle class="st1" cx="30" cy="30" r="8.3"/><circle class="st2" cx="50" cy="30" r="8.3"/><circle class="st0" cx="50" cy="70" r="8.3"/><circle class="st3" cx="70" cy="30" r="8.3"/><circle class="st0" cx="70" cy="50" r="8.3"/><circle class="st1" cx="10" cy="50" r="8.3"/><circle class="st3" cx="70" cy="10" r="8.3"/><circle class="st2" cx="50" cy="10" r="8.3"/><circle class="st1" cx="50" cy="50" r="8.3"/><circle class="st2" cx="30" cy="10" r="8.3"/><circle class="st3" cx="30" cy="50" r="8.3"/><circle class="st1" cx="10" cy="10" r="8.3"/><circle class="st0" cx="30" cy="70" r="8.3"/><circle class="st3" cx="10" cy="70" r="8.3"/><circle class="st1" cx="70" cy="70" r="8.3"/><circle class="st0" cx="130" cy="10" r="8.3"/><circle class="st1" cx="130" cy="30" r="8.3"/><circle class="st2" cx="130" cy="50" r="8.3"/><circle class="st0" cx="90" cy="50" r="8.3"/><circle class="st3" cx="130" cy="70" r="8.3"/><circle class="st0" cx="110" cy="70" r="8.3"/><circle class="st1" cx="110" cy="10" r="8.3"/><circle class="st3" cx="150" cy="70" r="8.3"/><circle class="st2" cx="150" cy="50" r="8.3"/><circle class="st1" cx="110" cy="50" r="8.3"/><circle class="st2" cx="150" cy="30" r="8.3"/><circle class="st3" cx="110" cy="30" r="8.3"/><circle class="st1" cx="150" cy="10" r="8.3"/><circle class="st0" cx="90" cy="30" r="8.3"/><circle class="st3" cx="90" cy="10" r="8.3"/><circle class="st1" cx="90" cy="70" r="8.3"/><circle class="st0" cx="150" cy="130" r="8.3"/><circle class="st1" cx="130" cy="130" r="8.3"/><circle class="st2" cx="110" cy="130" r="8.3"/><circle class="st0" cx="110" cy="90" r="8.3"/><circle class="st3" cx="90" cy="130" r="8.3"/><circle class="st0" cx="90" cy="110" r="8.3"/><circle class="st1" cx="150" cy="110" r="8.3"/><circle class="st3" cx="90" cy="150" r="8.3"/><circle class="st2" cx="110" cy="150" r="8.3"/><circle class="st1" cx="110" cy="110" r="8.3"/><circle class="st2" cx="130" cy="150" r="8.3"/><circle class="st3" cx="130" cy="110" r="8.3"/><circle class="st1" cx="150" cy="150" r="8.3"/><circle class="st0" cx="130" cy="90" r="8.3"/><circle class="st3" cx="150" cy="90" r="8.3"/><circle class="st1" cx="90" cy="90" r="8.3"/><circle class="st0" cx="30" cy="150" r="8.3"/><circle class="st1" cx="30" cy="130" r="8.3"/><circle class="st2" cx="30" cy="110" r="8.3"/><circle class="st0" cx="70" cy="110" r="8.3"/><circle class="st3" cx="30" cy="90" r="8.3"/><circle class="st0" cx="50" cy="90" r="8.3"/><circle class="st1" cx="50" cy="150" r="8.3"/><circle class="st3" cx="10" cy="90" r="8.3"/><circle class="st2" cx="10" cy="110" r="8.3"/><circle class="st1" cx="50" cy="110" r="8.3"/><circle class="st2" cx="10" cy="130" r="8.3"/><circle class="st3" cx="50" cy="130" r="8.3"/><circle class="st1" cx="10" cy="150" r="8.3"/><circle class="st0" cx="70" cy="130" r="8.3"/><circle class="st3" cx="70" cy="150" r="8.3"/><circle class="st1" cx="70" cy="90" r="8.3"/></g></svg>