<?xml version="1.0" encoding="utf-8"?>
<!-- Generator: Adobe Illustrator 23.0.1, SVG Export Plug-In . SVG Version: 6.00 Build 0)  -->
<svg version="1.1" id="Layer_1" xmlns="http://www.w3.org/2000/svg" xmlns:xlink="http://www.w3.org/1999/xlink" x="0px" y="0px"
	 viewBox="0 0 1079 878" style="enable-background:new 0 0 1079 878;" xml:space="preserve">
<style type="text/css">
	.st0{fill-rule:evenodd;clip-rule:evenodd;fill:#0060AF;}
	.st1{fill-rule:evenodd;clip-rule:evenodd;fill:#062942;}
	.st2{fill:#062942;}
	.st3{fill:#FFFFFF;}
	.st4{fill:#0060AF;}
</style>
<title>Group 20</title>
<desc>Created with Sketch.</desc>
<g id="Hi-Fi-Design">
	<g id="Desktop" transform="translate(-185.000000, -11153.000000)">
		<g id="Group-20" transform="translate(185.000000, 11153.000000)">
			<g id="Chart" transform="translate(84.000000, 74.000000)">
				<polygon id="Fill-1" class="st0" points="534,184.2 842.3,184.2 842.3,117 534,117 				"/>
				<polygon id="Fill-2" class="st1" points="0,184.2 380.8,184.2 380.8,117 0,117 				"/>
				<polygon id="Fill-3" class="st0" points="534,268.2 819.4,268.2 819.4,201 534,201 				"/>
				<polygon id="Fill-4" class="st1" points="59,268.2 381.1,268.2 381.1,201 59,201 				"/>
				<polygon id="Fill-5" class="st0" points="534,353.2 899.5,353.2 899.5,286 534,286 				"/>
				<polygon id="Fill-6" class="st1" points="18,353.2 380.5,353.2 380.5,286 18,286 				"/>
				<polygon id="Fill-7" class="st0" points="534,438.2 820.6,438.2 820.6,371 534,371 				"/>
				<polygon id="Fill-8" class="st1" points="22,438.2 380.7,438.2 380.7,371 22,371 				"/>
				<polygon id="Fill-9" class="st0" points="534,522.2 800.1,522.2 800.1,455 534,455 				"/>
				<polygon id="Fill-10" class="st1" points="49,522.2 381.2,522.2 381.2,455 49,455 				"/>
				<polygon id="Fill-11" class="st0" points="534,607.2 826.8,607.2 826.8,540 534,540 				"/>
				<polygon id="Fill-12" class="st1" points="40,607.2 380.9,607.2 380.9,540 40,540 				"/>
				<polygon id="Fill-13" class="st0" points="534,692.2 668.3,692.2 668.3,625 534,625 				"/>
				<polygon id="Fill-14" class="st1" points="206,692.2 381,692.2 381,625 206,625 				"/>
				<path id="Workharder" class="st2" d="M452.5,125.3l-3.6,13.7h-2.6l-2.7-10l-2.5,10h-2.5l-3.7-13.7h2.6l2.6,10l2.5-10h2.5l2.7,10
					l2.6-10H452.5z M457.5,128.7c1.7,0,2.9,0.7,3.8,2.1c0.6,1,0.8,1.9,0.8,3.2c0,3.1-2,5.2-4.8,5.2c-1.6,0-2.8-0.6-3.6-1.9
					c-0.7-1-1-2.1-1-3.4C452.8,130.8,454.7,128.7,457.5,128.7z M457.5,130.6c-1.5,0-2.3,1.2-2.3,3.4c0,2.2,0.8,3.4,2.3,3.4
					c1.5,0,2.3-1.2,2.3-3.4C459.8,131.7,459,130.6,457.5,130.6z M466.6,139h-2.3v-10.1h2.1v2.4c0.5-1.8,1.7-2.8,3.1-2.7v2.5h-0.1
					l-0.4,0c-1.3,0-2.3,1.4-2.3,3.2V139z M480.3,139h-2.4l-2.6-5.2l-2.2,2.5v2.7h-2.2v-13.7h2.2v8.5c0.2-0.3,0.3-0.4,0.5-0.6l4-4.3
					h2.5l-3,3.3L480.3,139z M438.6,164.1h-2.3v-6.6c0-1.3-0.6-1.9-1.6-1.9c-0.8,0-1.5,0.5-1.8,1.1c-0.3,0.6-0.4,1.3-0.4,2.2v5.2
					h-2.3v-13.7h2.3v5.3c0.6-1.5,1.6-2.2,3-2.2c1.2,0,2.1,0.5,2.6,1.3c0.4,0.7,0.5,1.2,0.5,2.3V164.1z M449.9,164.1h-2.2
					c-0.2-0.7-0.3-1.2-0.3-2.1c-0.7,1.6-1.7,2.3-3.4,2.3c-2,0-3.3-1.3-3.3-3.1c0-1.6,1-2.7,2.9-3.1c1.1-0.3,2-0.3,3.9-0.3V157
					c0-1-0.7-1.6-2.2-1.6c-1.4,0-2.1,0.5-2.3,1.6l-1.9-0.3c0.2-1,0.5-1.6,1.3-2.1c0.8-0.6,1.8-0.8,3.2-0.8c1.7,0,2.8,0.3,3.5,1.1
					c0.5,0.6,0.6,1.1,0.6,2.6v4.6C449.6,162.7,449.7,163.3,449.9,164.1z M447.4,159.9V159c-2.9,0-4.4,0.7-4.4,2.1
					c0,0.9,0.7,1.5,1.8,1.5C446.3,162.6,447.4,161.5,447.4,159.9z M454.6,164.1h-2.3V154h2.1v2.4c0.5-1.8,1.7-2.8,3.1-2.7v2.5h-0.1
					l-0.4,0c-1.3,0-2.3,1.4-2.3,3.2V164.1z M467.4,164.1h-2.1v-2c-0.6,1.5-1.5,2.2-3,2.2c-1.1,0-2-0.5-2.7-1.3
					c-0.7-0.9-1.1-2.5-1.1-4.1c0-1.7,0.5-3.2,1.4-4.2c0.6-0.7,1.5-1.1,2.6-1.1c1.3,0,2.2,0.6,2.7,1.8v-4.9h2.3V164.1z M465.1,159.9
					v-1.7c0-0.9-0.1-1.4-0.5-1.8c-0.4-0.5-1-0.8-1.6-0.8c-1.4,0-2.2,1.3-2.2,3.5c0,2.2,0.7,3.4,2.1,3.4
					C464.2,162.4,465.1,161.3,465.1,159.9z M476.5,160.9l2.1,0.3c-0.7,2.1-2.2,3.2-4.5,3.2c-2.8,0-4.7-2.1-4.7-5.2
					c0-3.2,1.9-5.3,4.8-5.3c2.9,0,4.5,2,4.6,5.5h-6.9v0.3c0,1.8,0.9,2.9,2.4,2.9C475.4,162.5,476,162,476.5,160.9z M471.8,157.8h4.6
					c0-0.8-0.2-1.1-0.5-1.6c-0.4-0.6-1-0.9-1.8-0.9C472.8,155.4,472,156.2,471.8,157.8z M483.1,164.1h-2.3V154h2.1v2.4
					c0.5-1.8,1.7-2.8,3.1-2.7v2.5h-0.1l-0.4,0c-1.3,0-2.3,1.4-2.3,3.2V164.1z"/>
				<path id="Havelessstress" class="st2" d="M447,228h-2.5v-5.9h-5.2v5.9h-2.5v-13.7h2.5v5.6h5.2v-5.6h2.5V228z M458.7,228h-2.2
					c-0.2-0.7-0.3-1.2-0.3-2.1c-0.7,1.6-1.7,2.3-3.4,2.3c-2,0-3.3-1.3-3.3-3.1c0-1.6,1-2.7,2.9-3.1c1.1-0.3,2-0.3,3.9-0.3v-0.8
					c0-1-0.7-1.6-2.2-1.6c-1.4,0-2.1,0.5-2.3,1.6l-1.9-0.3c0.2-1,0.5-1.6,1.3-2.1c0.8-0.6,1.8-0.8,3.2-0.8c1.7,0,2.8,0.3,3.5,1.1
					c0.5,0.6,0.6,1.1,0.6,2.6v4.6C458.3,226.6,458.4,227.2,458.7,228z M456.1,223.8v-0.9c-2.9,0-4.4,0.7-4.4,2.1
					c0,0.9,0.7,1.5,1.8,1.5C455,226.5,456.1,225.4,456.1,223.8z M468.6,217.9l-3.4,10.1h-1.9l-3.5-10.1h2.4l2.4,6.8l2.3-6.8H468.6z
					 M476.5,224.8l2.1,0.3c-0.7,2.1-2.2,3.2-4.5,3.2c-2.8,0-4.7-2.1-4.7-5.2c0-3.2,1.9-5.3,4.8-5.3c2.9,0,4.5,2,4.6,5.5h-6.9v0.3
					c0,1.8,0.9,2.9,2.4,2.9C475.4,226.4,476.1,225.9,476.5,224.8z M471.8,221.7h4.6c0-0.8-0.2-1.1-0.5-1.6c-0.4-0.6-1-0.9-1.8-0.9
					C472.8,219.3,472,220.1,471.8,221.7z M413.9,253.1h-2.3v-13.7h2.3V253.1z M423.3,249.9l2.1,0.3c-0.7,2.1-2.2,3.2-4.5,3.2
					c-2.8,0-4.7-2.1-4.7-5.2c0-3.2,1.9-5.3,4.8-5.3c2.9,0,4.5,2,4.6,5.5h-6.9v0.3c0,1.8,0.9,2.9,2.4,2.9
					C422.2,251.5,422.8,251,423.3,249.9z M418.6,246.8h4.6c0-0.8-0.2-1.1-0.5-1.6c-0.4-0.6-1-0.9-1.8-0.9
					C419.6,244.4,418.8,245.2,418.6,246.8z M426.7,250.8l2.1-0.4c0.4,0.9,1,1.2,2.2,1.2c1.3,0,2.1-0.5,2.1-1.3c0-0.5-0.4-0.9-1.1-1
					l-1.8-0.4c-2.1-0.4-3.1-1.3-3.1-3c0-0.8,0.3-1.6,0.8-2.1c0.7-0.8,1.7-1.1,3.1-1.1c2.1,0,3.4,0.8,3.9,2.3l-2,0.4
					c-0.3-0.8-0.8-1.1-1.8-1.1c-1.1,0-1.8,0.4-1.8,1.1c0,0.6,0.4,0.9,1.5,1.1l2.2,0.5c1.7,0.3,2.5,1.3,2.5,2.9c0,2-1.7,3.3-4.4,3.3
					c-1.3,0-2.4-0.3-3.2-0.9C427.2,252,426.9,251.6,426.7,250.8z M436.5,250.8l2.1-0.4c0.4,0.9,1,1.2,2.2,1.2c1.3,0,2-0.5,2-1.3
					c0-0.5-0.4-0.9-1.1-1L440,249c-2.1-0.4-3.1-1.3-3.1-3c0-0.8,0.3-1.6,0.8-2.1c0.7-0.8,1.7-1.1,3.1-1.1c2.1,0,3.4,0.8,3.9,2.3
					l-2.1,0.4c-0.3-0.8-0.8-1.1-1.8-1.1c-1.1,0-1.8,0.4-1.8,1.1c0,0.6,0.4,0.9,1.5,1.1l2.2,0.5c1.7,0.3,2.5,1.3,2.5,2.9
					c0,2-1.7,3.3-4.4,3.3c-1.3,0-2.4-0.3-3.2-0.9C437.1,252,436.8,251.6,436.5,250.8z M451.4,250.8l2.1-0.4c0.4,0.9,1,1.2,2.2,1.2
					c1.3,0,2.1-0.5,2.1-1.3c0-0.5-0.4-0.9-1.1-1l-1.8-0.4c-2.1-0.4-3.1-1.3-3.1-3c0-0.8,0.3-1.6,0.8-2.1c0.7-0.8,1.7-1.1,3.1-1.1
					c2.1,0,3.4,0.8,3.9,2.3l-2,0.4c-0.3-0.8-0.8-1.1-1.8-1.1c-1.1,0-1.8,0.4-1.8,1.1c0,0.6,0.4,0.9,1.5,1.1l2.2,0.5
					c1.7,0.3,2.5,1.3,2.5,2.9c0,2-1.7,3.3-4.4,3.3c-1.3,0-2.4-0.3-3.2-0.9C451.9,252,451.7,251.6,451.4,250.8z M466.9,251.3v1.8
					c-0.6,0.1-1.3,0.2-1.6,0.2c-0.9,0-1.7-0.3-2.2-0.8c-0.5-0.5-0.7-1.1-0.7-2.5v-5.2h-1.3V243h1.4l0.2-2.6l1.9-0.2v2.8h2.1v1.8
					h-2.1v4.9c0,1.3,0.4,1.6,1.7,1.6C466.4,251.3,466.6,251.3,466.9,251.3z M471.1,253.1h-2.3V243h2.1v2.4c0.5-1.8,1.7-2.8,3.1-2.7
					v2.5h-0.1l-0.4,0c-1.3,0-2.3,1.4-2.3,3.2V253.1z M482.1,249.9l2.1,0.3c-0.7,2.1-2.2,3.2-4.5,3.2c-2.8,0-4.7-2.1-4.7-5.2
					c0-3.2,1.9-5.3,4.8-5.3c2.9,0,4.5,2,4.6,5.5h-6.9v0.3c0,1.8,0.9,2.9,2.4,2.9C481,251.5,481.6,251,482.1,249.9z M477.4,246.8h4.6
					c0-0.8-0.2-1.1-0.5-1.6c-0.4-0.6-1-0.9-1.8-0.9C478.4,244.4,477.6,245.2,477.4,246.8z M485.5,250.8l2.1-0.4
					c0.4,0.9,1,1.2,2.2,1.2c1.3,0,2.1-0.5,2.1-1.3c0-0.5-0.4-0.9-1.1-1l-1.8-0.4c-2.1-0.4-3.1-1.3-3.1-3c0-0.8,0.3-1.6,0.8-2.1
					c0.7-0.8,1.7-1.1,3.1-1.1c2.1,0,3.4,0.8,3.9,2.3l-2,0.4c-0.3-0.8-0.8-1.1-1.8-1.1c-1.1,0-1.8,0.4-1.8,1.1c0,0.6,0.4,0.9,1.5,1.1
					l2.2,0.5c1.7,0.3,2.5,1.3,2.5,2.9c0,2-1.7,3.3-4.4,3.3c-1.3,0-2.4-0.3-3.2-0.9C486,252,485.7,251.6,485.5,250.8z M495.3,250.8
					l2.1-0.4c0.4,0.9,1,1.2,2.2,1.2c1.3,0,2-0.5,2-1.3c0-0.5-0.4-0.9-1.1-1l-1.8-0.4c-2.1-0.4-3.1-1.3-3.1-3c0-0.8,0.3-1.6,0.8-2.1
					c0.7-0.8,1.7-1.1,3.1-1.1c2.1,0,3.4,0.8,3.9,2.3l-2.1,0.4c-0.3-0.8-0.8-1.1-1.8-1.1c-1.1,0-1.8,0.4-1.8,1.1
					c0,0.6,0.4,0.9,1.5,1.1l2.2,0.5c1.7,0.3,2.5,1.3,2.5,2.9c0,2-1.7,3.3-4.4,3.3c-1.3,0-2.4-0.3-3.2-0.9
					C495.9,252,495.6,251.6,495.3,250.8z"/>
				<path id="Moreworklifebalance" class="st2" d="M426.2,313h-2.5v-12l-3.8,12h-1.3l-3.8-12v12h-2v-13.7h3.9l2.8,8.8l2.8-8.8h3.9
					V313z M433.2,302.7c1.7,0,2.9,0.7,3.8,2.1c0.6,1,0.8,1.9,0.8,3.2c0,3.1-2,5.2-4.8,5.2c-1.6,0-2.8-0.6-3.6-1.9
					c-0.7-1-1-2.1-1-3.4C428.5,304.8,430.4,302.7,433.2,302.7z M433.2,304.6c-1.5,0-2.3,1.2-2.3,3.4s0.8,3.4,2.3,3.4
					c1.5,0,2.3-1.2,2.3-3.4C435.5,305.7,434.7,304.6,433.2,304.6z M442.3,313H440v-10.1h2.1v2.4c0.5-1.8,1.7-2.8,3.1-2.7v2.5H445
					l-0.4,0c-1.3,0-2.3,1.4-2.3,3.2V313z M453.1,309.8l2.1,0.3c-0.7,2-2.2,3.2-4.5,3.2c-2.8,0-4.7-2-4.7-5.2c0-3.2,1.9-5.3,4.8-5.3
					c2.9,0,4.5,2,4.6,5.5h-6.9v0.3c0,1.8,0.9,2.9,2.4,2.9C452,311.4,452.6,310.9,453.1,309.8z M448.4,306.7h4.6
					c0-0.8-0.2-1.1-0.5-1.6c-0.4-0.6-1-0.9-1.8-0.9C449.4,304.3,448.6,305.1,448.4,306.7z M475.2,302.9l-3,10.1h-2.1l-1.8-7.1
					l-1.8,7.1h-2.1l-3.1-10.1h2.4l2,6.8l1.7-6.8h2.1l1.8,6.8l1.9-6.8H475.2z M480.7,302.7c1.7,0,2.9,0.7,3.8,2.1
					c0.6,1,0.8,1.9,0.8,3.2c0,3.1-2,5.2-4.8,5.2c-1.6,0-2.8-0.6-3.6-1.9c-0.7-1-1-2.1-1-3.4C475.9,304.8,477.9,302.7,480.7,302.7z
					 M480.7,304.6c-1.5,0-2.3,1.2-2.3,3.4s0.8,3.4,2.3,3.4c1.5,0,2.3-1.2,2.3-3.4C482.9,305.7,482.1,304.6,480.7,304.6z M489.7,313
					h-2.3v-10.1h2.1v2.4c0.5-1.8,1.7-2.8,3.1-2.7v2.5h-0.1l-0.4,0c-1.3,0-2.3,1.4-2.3,3.2V313z M503.5,313h-2.4l-2.6-5.2l-2.2,2.5
					v2.7h-2.2v-13.7h2.2v8.5c0.2-0.3,0.3-0.4,0.5-0.6l4-4.3h2.5l-3,3.3L503.5,313z M410.2,338.1H408v-13.7h2.3V338.1z M415.2,338.1
					H413V328h2.3V338.1z M415.2,326.8H413v-2.4h2.3V326.8z M420.5,338.1h-2.2v-8.3h-1.5V328h1.5c0-1.6,0.2-2.3,0.8-2.9
					c0.6-0.7,1.4-0.9,2.9-0.9c0.3,0,0.4,0,0.8,0v1.8c-0.3,0-0.4,0-0.6,0c-0.7,0-1.2,0.1-1.4,0.4c-0.2,0.3-0.2,0.4-0.2,1.6h2.3v1.8
					h-2.3V338.1z M430.7,334.9l2.1,0.3c-0.7,2-2.2,3.2-4.5,3.2c-2.8,0-4.7-2.1-4.7-5.2c0-3.2,1.9-5.3,4.8-5.3c2.9,0,4.5,2,4.6,5.5
					H426v0.3c0,1.8,0.9,2.9,2.4,2.9C429.6,336.5,430.2,336,430.7,334.9z M426,331.8h4.6c0-0.8-0.2-1.1-0.5-1.6
					c-0.4-0.6-1-0.9-1.8-0.9C427,329.4,426.2,330.2,426,331.8z M441.2,338.1h-1v-13.7h2.3v4.9c0.8-1.4,1.5-1.8,2.8-1.8
					c2.3,0,3.9,2.1,3.9,5.3c0,1.6-0.4,2.9-1.2,4c-0.8,1-1.7,1.5-3,1.5c-1.4,0-2.2-0.5-3.1-1.9L441.2,338.1z M442.4,332.3v1.5
					c0,1.7,0.8,2.7,2.1,2.7c0.7,0,1.3-0.3,1.6-0.9c0.4-0.7,0.5-1.3,0.6-2.8c-0.1-1.4-0.2-1.9-0.6-2.5c-0.3-0.5-0.9-0.8-1.5-0.8
					C443.3,329.5,442.4,330.6,442.4,332.3z M459.8,338.1h-2.2c-0.2-0.7-0.3-1.2-0.3-2c-0.7,1.6-1.7,2.3-3.4,2.3
					c-2,0-3.3-1.3-3.3-3.1c0-1.6,1-2.7,2.9-3.1c1.1-0.3,2-0.3,3.9-0.3V331c0-1-0.7-1.6-2.2-1.6c-1.4,0-2.1,0.5-2.3,1.6l-1.9-0.3
					c0.2-1,0.5-1.6,1.3-2.1c0.8-0.6,1.8-0.8,3.2-0.8c1.7,0,2.8,0.3,3.5,1.1c0.5,0.6,0.6,1.1,0.6,2.6v4.6
					C459.5,336.7,459.6,337.3,459.8,338.1z M457.3,333.9V333c-2.9,0-4.4,0.7-4.4,2.1c0,0.9,0.7,1.5,1.8,1.5
					C456.2,336.6,457.3,335.5,457.3,333.9z M464.5,338.1h-2.3v-13.7h2.3V338.1z M475.9,338.1h-2.2c-0.2-0.7-0.3-1.2-0.3-2
					c-0.7,1.6-1.7,2.3-3.4,2.3c-2,0-3.3-1.3-3.3-3.1c0-1.6,1-2.7,2.9-3.1c1.1-0.3,2-0.3,3.9-0.3V331c0-1-0.7-1.6-2.2-1.6
					c-1.4,0-2.1,0.5-2.3,1.6l-1.9-0.3c0.2-1,0.5-1.6,1.3-2.1c0.8-0.6,1.8-0.8,3.2-0.8c1.7,0,2.8,0.3,3.5,1.1
					c0.5,0.6,0.6,1.1,0.6,2.6v4.6C475.6,336.7,475.7,337.3,475.9,338.1z M473.4,333.9V333c-2.9,0-4.4,0.7-4.4,2.1
					c0,0.9,0.7,1.5,1.8,1.5C472.3,336.6,473.4,335.5,473.4,333.9z M486.7,338.1h-2.3v-6.3c0-1.2-0.6-2-1.6-2c-0.8,0-1.5,0.5-1.9,1.3
					c-0.2,0.5-0.4,1.1-0.4,1.9v5.2h-2.3V328h2.1v2.3c0.8-1.8,1.7-2.5,3.1-2.5c1.2,0,2.3,0.6,2.8,1.5c0.3,0.6,0.4,1.3,0.4,2.3V338.1z
					 M495.2,334.4l2,0.2c-0.2,1.1-0.5,1.6-0.9,2.2c-0.7,1-1.8,1.5-3.2,1.5c-2.6,0-4.3-2.1-4.3-5.2s1.8-5.3,4.5-5.3
					c1.3,0,2.3,0.5,3,1.3c0.5,0.6,0.7,1.1,0.9,2.2l-2,0.3c-0.2-1.3-0.8-1.9-1.8-1.9c-1.4,0-2.2,1.3-2.2,3.5c0,2,0.8,3.2,2.1,3.2
					C494.3,336.3,494.9,335.7,495.2,334.4z M505.5,334.9l2.1,0.3c-0.7,2-2.2,3.2-4.5,3.2c-2.8,0-4.7-2.1-4.7-5.2
					c0-3.2,1.9-5.3,4.8-5.3c2.9,0,4.5,2,4.6,5.5h-6.9v0.3c0,1.8,0.9,2.9,2.4,2.9C504.4,336.5,505,336,505.5,334.9z M500.8,331.8h4.6
					c0-0.8-0.2-1.1-0.5-1.6c-0.4-0.6-1-0.9-1.8-0.9C501.8,329.4,501,330.2,500.8,331.8z"/>
				<path id="Earnmoremoney" class="st2" d="M422.2,396h-8.9v-13.7h8.8v2h-6.3v3.7h5.1v2h-5.1v3.8h6.4V396z M432.9,396h-2.2
					c-0.2-0.7-0.3-1.2-0.3-2c-0.7,1.6-1.7,2.3-3.4,2.3c-2,0-3.3-1.3-3.3-3.1c0-1.6,1-2.7,2.9-3.1c1.1-0.3,2-0.3,3.9-0.3v-0.8
					c0-1-0.7-1.6-2.2-1.6c-1.4,0-2.1,0.5-2.3,1.6l-1.9-0.3c0.2-1,0.5-1.6,1.3-2.1c0.8-0.6,1.8-0.8,3.2-0.8c1.7,0,2.8,0.3,3.5,1.1
					c0.5,0.6,0.6,1.1,0.6,2.6v4.6C432.6,394.6,432.7,395.2,432.9,396z M430.4,391.8v-0.9c-2.9,0-4.4,0.7-4.4,2.1
					c0,0.9,0.7,1.5,1.8,1.5C429.3,394.5,430.4,393.4,430.4,391.8z M437.7,396h-2.3v-10.1h2.1v2.4c0.5-1.8,1.7-2.8,3.1-2.7v2.5h-0.1
					l-0.4,0c-1.3,0-2.3,1.4-2.3,3.2V396z M450.4,396h-2.3v-6.3c0-1.2-0.6-2-1.6-2c-0.8,0-1.5,0.5-1.9,1.3c-0.2,0.5-0.4,1.1-0.4,1.9
					v5.2h-2.3v-10.1h2.1v2.3c0.8-1.8,1.7-2.5,3.1-2.5c1.2,0,2.3,0.6,2.8,1.5c0.3,0.6,0.4,1.3,0.4,2.3V396z M473.4,396h-2.4v-6.3
					c0-1.3-0.6-1.9-1.7-1.9c-1.4,0-2.2,1.1-2.2,2.9v5.3h-2.4v-6.3c0-0.7,0-0.9-0.2-1.2c-0.3-0.5-0.8-0.8-1.4-0.8
					c-1.4,0-2.3,1.2-2.3,3v5.3h-2.4v-10.1h2.2v2.2c0.5-0.9,0.7-1.2,1.1-1.6c0.6-0.5,1.4-0.8,2.3-0.8c1.5,0,2.4,0.7,2.9,2.4
					c0.8-1.6,1.9-2.4,3.4-2.4c1.9,0,3.2,1.3,3.2,3.2V396z M480.3,385.7c1.7,0,2.9,0.7,3.8,2.1c0.6,1,0.8,1.9,0.8,3.2
					c0,3.1-2,5.2-4.8,5.2c-1.6,0-2.8-0.6-3.6-1.9c-0.7-1-1-2.1-1-3.4C475.5,387.8,477.5,385.7,480.3,385.7z M480.3,387.6
					c-1.5,0-2.3,1.2-2.3,3.4s0.8,3.4,2.3,3.4c1.5,0,2.3-1.2,2.3-3.4C482.5,388.7,481.7,387.6,480.3,387.6z M489.3,396h-2.3v-10.1
					h2.1v2.4c0.5-1.8,1.7-2.8,3.1-2.7v2.5h-0.1l-0.4,0c-1.3,0-2.3,1.4-2.3,3.2V396z M500.2,392.8l2.1,0.3c-0.7,2-2.2,3.2-4.5,3.2
					c-2.8,0-4.7-2-4.7-5.2c0-3.2,1.9-5.3,4.8-5.3c2.9,0,4.5,2,4.6,5.5h-6.9v0.3c0,1.8,0.9,2.9,2.4,2.9
					C499.1,394.4,499.7,393.9,500.2,392.8z M495.5,389.7h4.6c0-0.8-0.2-1.1-0.5-1.6c-0.4-0.6-1-0.9-1.8-0.9
					C496.5,387.3,495.7,388.1,495.5,389.7z M444.3,421.1h-2.4v-6.3c0-1.3-0.6-1.9-1.7-1.9c-1.4,0-2.2,1.1-2.2,2.9v5.3h-2.4v-6.3
					c0-0.7,0-0.9-0.2-1.2c-0.3-0.5-0.8-0.8-1.4-0.8c-1.4,0-2.3,1.2-2.3,3v5.3h-2.4V411h2.2v2.2c0.5-0.9,0.7-1.2,1.1-1.6
					c0.6-0.5,1.4-0.8,2.3-0.8c1.5,0,2.4,0.7,2.9,2.4c0.8-1.6,1.9-2.4,3.4-2.4c1.9,0,3.2,1.3,3.2,3.2V421.1z M451.2,410.8
					c1.7,0,2.9,0.7,3.8,2.1c0.6,1,0.8,1.9,0.8,3.2c0,3.1-2,5.2-4.8,5.2c-1.6,0-2.8-0.6-3.6-1.9c-0.7-1-1-2.1-1-3.4
					C446.4,412.9,448.4,410.8,451.2,410.8z M451.2,412.7c-1.5,0-2.3,1.2-2.3,3.4s0.8,3.4,2.3,3.4c1.5,0,2.3-1.2,2.3-3.4
					C453.4,413.8,452.6,412.7,451.2,412.7z M466.3,421.1H464v-6.3c0-1.2-0.6-2-1.6-2c-0.8,0-1.5,0.5-1.9,1.3
					c-0.2,0.5-0.4,1.1-0.4,1.9v5.2h-2.3V411h2.1v2.3c0.8-1.8,1.7-2.5,3.1-2.5c1.2,0,2.3,0.6,2.8,1.5c0.3,0.6,0.4,1.3,0.4,2.3V421.1z
					 M475.5,417.9l2.1,0.3c-0.7,2-2.2,3.2-4.5,3.2c-2.8,0-4.7-2.1-4.7-5.2c0-3.2,1.9-5.3,4.8-5.3c2.9,0,4.5,2,4.6,5.5h-6.9v0.3
					c0,1.8,0.9,2.9,2.4,2.9C474.4,419.5,475,419,475.5,417.9z M470.8,414.8h4.6c0-0.8-0.2-1.1-0.5-1.6c-0.4-0.6-1-0.9-1.8-0.9
					C471.8,412.4,471,413.2,470.8,414.8z M487,411l-3.9,11.5c-0.5,1.6-1.4,2.2-2.7,2.2c-0.3,0-0.8,0-1.3-0.1v-1.8c0.4,0,0.8,0,1.1,0
					c0.7,0,1.1-0.2,1.3-0.6c0.2-0.3,0.4-1,0.4-1.2c0-0.1-0.1-0.3-0.2-0.6l-3.5-9.5h2.4l2.5,6.7l2.1-6.7H487z"/>
				<path id="Morecareercertainty" class="st2" d="M419.7,480h-2.5v-12l-3.8,12h-1.3l-3.8-12v12h-2v-13.7h3.9l2.8,8.8l2.8-8.8h3.9
					V480z M426.6,469.7c1.7,0,2.9,0.7,3.8,2.1c0.6,1,0.8,1.9,0.8,3.2c0,3.1-2,5.2-4.8,5.2c-1.6,0-2.8-0.6-3.6-1.9
					c-0.7-1-1-2.1-1-3.4C421.9,471.8,423.8,469.7,426.6,469.7z M426.6,471.6c-1.5,0-2.3,1.2-2.3,3.4s0.8,3.4,2.3,3.4
					c1.5,0,2.3-1.2,2.3-3.4C428.9,472.7,428.1,471.6,426.6,471.6z M435.7,480h-2.3v-10.1h2.1v2.4c0.5-1.8,1.7-2.8,3.1-2.7v2.5h-0.1
					l-0.4,0c-1.3,0-2.3,1.4-2.3,3.2V480z M446.5,476.8l2.1,0.3c-0.7,2-2.2,3.2-4.5,3.2c-2.8,0-4.7-2-4.7-5.2c0-3.2,1.9-5.3,4.8-5.3
					c2.9,0,4.5,2,4.6,5.5h-6.9v0.3c0,1.8,0.9,2.9,2.4,2.9C445.4,478.4,446,477.9,446.5,476.8z M441.8,473.7h4.6
					c0-0.8-0.2-1.1-0.5-1.6c-0.4-0.6-1-0.9-1.8-0.9C442.8,471.3,442,472.1,441.8,473.7z M461.7,476.3l2,0.2
					c-0.2,1.1-0.5,1.6-0.9,2.2c-0.7,1-1.8,1.5-3.2,1.5c-2.6,0-4.3-2.1-4.3-5.2s1.8-5.3,4.5-5.3c1.3,0,2.3,0.5,3,1.3
					c0.5,0.6,0.7,1.1,0.9,2.2l-2,0.3c-0.2-1.3-0.8-1.9-1.8-1.9c-1.4,0-2.2,1.3-2.2,3.5c0,2,0.8,3.2,2.1,3.2
					C460.8,478.2,461.4,477.6,461.7,476.3z M474.3,480h-2.2c-0.2-0.7-0.3-1.2-0.3-2c-0.7,1.6-1.7,2.3-3.4,2.3c-2,0-3.3-1.3-3.3-3.1
					c0-1.6,1-2.7,2.9-3.1c1.1-0.3,2.1-0.3,3.9-0.3v-0.8c0-1-0.7-1.6-2.2-1.6c-1.4,0-2.1,0.5-2.3,1.6l-1.9-0.3c0.2-1,0.5-1.6,1.3-2.1
					c0.8-0.6,1.8-0.8,3.2-0.8c1.7,0,2.8,0.3,3.5,1.1c0.5,0.6,0.6,1.1,0.6,2.6v4.6C474,478.6,474.1,479.2,474.3,480z M471.7,475.8
					v-0.9c-2.9,0-4.4,0.7-4.4,2.1c0,0.9,0.7,1.5,1.8,1.5C470.7,478.5,471.7,477.4,471.7,475.8z M479,480h-2.3v-10.1h2.1v2.4
					c0.5-1.8,1.7-2.8,3.1-2.7v2.5h-0.1l-0.4,0c-1.3,0-2.3,1.4-2.3,3.2V480z M489.8,476.8l2.1,0.3c-0.7,2-2.2,3.2-4.5,3.2
					c-2.8,0-4.7-2-4.7-5.2c0-3.2,1.9-5.3,4.8-5.3c2.9,0,4.5,2,4.6,5.5h-6.9v0.3c0,1.8,0.9,2.9,2.4,2.9
					C488.7,478.4,489.3,477.9,489.8,476.8z M485.1,473.7h4.6c0-0.8-0.2-1.1-0.5-1.6c-0.4-0.6-1-0.9-1.8-0.9
					C486.1,471.3,485.3,472.1,485.1,473.7z M500.5,476.8l2.1,0.3c-0.7,2-2.2,3.2-4.5,3.2c-2.8,0-4.7-2-4.7-5.2
					c0-3.2,1.9-5.3,4.8-5.3c2.9,0,4.5,2,4.6,5.5h-6.9v0.3c0,1.8,0.9,2.9,2.4,2.9C499.4,478.4,500,477.9,500.5,476.8z M495.8,473.7
					h4.6c0-0.8-0.2-1.1-0.5-1.6c-0.4-0.6-1-0.9-1.8-0.9C496.8,471.3,496,472.1,495.8,473.7z M507.1,480h-2.3v-10.1h2.1v2.4
					c0.5-1.8,1.7-2.8,3.1-2.7v2.5h-0.1l-0.4,0c-1.3,0-2.3,1.4-2.3,3.2V480z M426.1,501.4l2,0.2c-0.2,1.1-0.5,1.6-0.9,2.2
					c-0.7,1-1.8,1.5-3.2,1.5c-2.6,0-4.3-2.1-4.3-5.2s1.8-5.3,4.5-5.3c1.3,0,2.3,0.5,3,1.3c0.5,0.6,0.7,1.1,0.9,2.2l-2,0.3
					c-0.2-1.3-0.8-1.9-1.8-1.9c-1.4,0-2.2,1.3-2.2,3.5c0,2,0.8,3.2,2.1,3.2C425.1,503.3,425.8,502.7,426.1,501.4z M436.3,501.9
					l2.1,0.3c-0.7,2-2.2,3.2-4.5,3.2c-2.8,0-4.7-2.1-4.7-5.2c0-3.2,1.9-5.3,4.8-5.3c2.9,0,4.5,2,4.6,5.5h-6.9v0.3
					c0,1.8,0.9,2.9,2.4,2.9C435.2,503.5,435.9,503,436.3,501.9z M431.6,498.8h4.6c0-0.8-0.2-1.1-0.5-1.6c-0.4-0.6-1-0.9-1.8-0.9
					C432.6,496.4,431.8,497.2,431.6,498.8z M442.9,505.1h-2.3V495h2.1v2.4c0.5-1.8,1.7-2.8,3.1-2.7v2.5h-0.1l-0.4,0
					c-1.3,0-2.3,1.4-2.3,3.2V505.1z M452.5,503.3v1.8c-0.6,0.1-1.3,0.2-1.6,0.2c-0.9,0-1.7-0.3-2.2-0.8c-0.5-0.5-0.7-1.1-0.7-2.5
					v-5.2h-1.3V495h1.4l0.2-2.6l1.9-0.2v2.8h2.1v1.8h-2.1v4.9c0,1.3,0.4,1.6,1.7,1.6C452,503.3,452.3,503.3,452.5,503.3z
					 M463.1,505.1h-2.2c-0.2-0.7-0.3-1.2-0.3-2c-0.7,1.6-1.7,2.3-3.4,2.3c-2,0-3.3-1.3-3.3-3.1c0-1.6,1-2.7,2.9-3.1
					c1.1-0.3,2.1-0.3,3.9-0.3V498c0-1-0.7-1.6-2.2-1.6c-1.4,0-2.1,0.5-2.3,1.6l-1.9-0.3c0.2-1,0.5-1.6,1.3-2.1
					c0.8-0.6,1.8-0.8,3.2-0.8c1.7,0,2.8,0.3,3.5,1.1c0.5,0.6,0.6,1.1,0.6,2.6v4.6C462.8,503.7,462.9,504.3,463.1,505.1z
					 M460.5,500.9V500c-2.9,0-4.4,0.7-4.4,2.1c0,0.9,0.7,1.5,1.8,1.5C459.5,503.6,460.5,502.5,460.5,500.9z M467.8,505.1h-2.3V495
					h2.3V505.1z M467.8,493.8h-2.3v-2.4h2.3V493.8z M478.9,505.1h-2.3v-6.3c0-1.2-0.6-2-1.6-2c-0.8,0-1.5,0.5-1.9,1.3
					c-0.2,0.5-0.4,1.1-0.4,1.9v5.2h-2.3V495h2.1v2.3c0.8-1.8,1.7-2.5,3.1-2.5c1.2,0,2.3,0.6,2.8,1.5c0.3,0.6,0.4,1.3,0.4,2.3V505.1z
					 M486.3,503.3v1.8c-0.6,0.1-1.3,0.2-1.6,0.2c-0.9,0-1.7-0.3-2.2-0.8c-0.5-0.5-0.7-1.1-0.7-2.5v-5.2h-1.3V495h1.4l0.2-2.6
					l1.9-0.2v2.8h2v1.8h-2v4.9c0,1.3,0.4,1.6,1.7,1.6C485.8,503.3,486,503.3,486.3,503.3z M495.9,495l-3.9,11.5
					c-0.5,1.6-1.4,2.2-2.7,2.2c-0.3,0-0.8,0-1.3-0.1v-1.8c0.4,0,0.8,0,1.1,0c0.7,0,1.1-0.2,1.3-0.6c0.2-0.3,0.4-1,0.4-1.2
					c0-0.1-0.1-0.3-0.2-0.6l-3.5-9.5h2.4l2.5,6.7l2.1-6.7H495.9z"/>
				<path id="Behealthier" class="st2" d="M404.5,577v-13.7h5.3c1.5,0,2.3,0.2,3,0.7c0.9,0.6,1.4,1.7,1.4,2.8c0,1.6-0.9,2.6-2.5,3
					c0.8,0.2,1.2,0.3,1.6,0.7c0.8,0.6,1.3,1.6,1.3,2.7c0,1-0.4,2-1.1,2.7c-0.7,0.7-1.7,1-3.1,1H404.5z M406.8,575h3.2
					c1.3,0,2.2-0.8,2.2-2c0-1.2-0.9-2-2.2-2h-3.2V575z M406.8,569.1h3c1.2,0,2-0.8,2-2c0-1.1-0.8-1.8-2-1.8h-3V569.1z M423.2,573.8
					l2.1,0.3c-0.7,2.1-2.2,3.2-4.5,3.2c-2.8,0-4.7-2-4.7-5.2c0-3.2,1.9-5.3,4.8-5.3c2.9,0,4.5,2,4.6,5.5h-6.9v0.3
					c0,1.8,0.9,2.9,2.4,2.9C422.1,575.4,422.8,574.9,423.2,573.8z M418.5,570.7h4.6c0-0.8-0.2-1.1-0.5-1.6c-0.4-0.6-1-0.9-1.8-0.9
					C419.5,568.3,418.7,569.1,418.5,570.7z M441.1,577h-2.3v-6.6c0-1.3-0.6-1.9-1.6-1.9c-0.8,0-1.5,0.5-1.8,1.1
					c-0.3,0.6-0.4,1.3-0.4,2.2v5.2h-2.3v-13.7h2.3v5.3c0.6-1.5,1.6-2.2,3-2.2c1.2,0,2.1,0.5,2.6,1.3c0.4,0.7,0.5,1.2,0.5,2.3V577z
					 M450.2,573.8l2.1,0.3c-0.7,2.1-2.2,3.2-4.5,3.2c-2.8,0-4.7-2-4.7-5.2c0-3.2,1.9-5.3,4.8-5.3c2.9,0,4.5,2,4.6,5.5h-6.9v0.3
					c0,1.8,0.9,2.9,2.4,2.9C449.1,575.4,449.7,574.9,450.2,573.8z M445.5,570.7h4.6c0-0.8-0.2-1.1-0.5-1.6c-0.4-0.6-1-0.9-1.8-0.9
					C446.5,568.3,445.7,569.1,445.5,570.7z M463,577h-2.2c-0.2-0.7-0.3-1.2-0.3-2c-0.7,1.6-1.7,2.3-3.4,2.3c-2,0-3.3-1.3-3.3-3.1
					c0-1.6,1-2.7,2.9-3.1c1.1-0.3,2-0.3,3.9-0.3v-0.8c0-1-0.7-1.6-2.2-1.6c-1.4,0-2.1,0.5-2.3,1.6l-1.9-0.3c0.2-1,0.5-1.6,1.3-2.1
					c0.8-0.6,1.8-0.8,3.2-0.8c1.7,0,2.8,0.3,3.5,1.1c0.5,0.6,0.6,1.1,0.6,2.6v4.6C462.7,575.6,462.8,576.2,463,577z M460.5,572.8
					v-0.9c-2.9,0-4.4,0.7-4.4,2.1c0,0.9,0.7,1.5,1.8,1.5C459.4,575.5,460.5,574.4,460.5,572.8z M467.7,577h-2.3v-13.7h2.3V577z
					 M475.1,575.2v1.8c-0.6,0.1-1.3,0.2-1.6,0.2c-0.9,0-1.7-0.3-2.2-0.8c-0.5-0.5-0.7-1.1-0.7-2.5v-5.2h-1.3v-1.8h1.4l0.2-2.6
					l1.9-0.2v2.8h2v1.8h-2v4.9c0,1.3,0.4,1.6,1.7,1.6C474.6,575.2,474.9,575.2,475.1,575.2z M485.1,577h-2.3v-6.6
					c0-1.3-0.6-1.9-1.6-1.9c-0.8,0-1.5,0.5-1.8,1.1c-0.3,0.6-0.4,1.3-0.4,2.2v5.2h-2.3v-13.7h2.3v5.3c0.6-1.5,1.6-2.2,3-2.2
					c1.2,0,2.1,0.5,2.6,1.3c0.4,0.7,0.5,1.2,0.5,2.3V577z M490.1,577h-2.3v-10.1h2.3V577z M490.1,565.7h-2.3v-2.4h2.3V565.7z
					 M499.2,573.8l2.1,0.3c-0.7,2.1-2.2,3.2-4.5,3.2c-2.8,0-4.7-2-4.7-5.2c0-3.2,1.9-5.3,4.8-5.3c2.9,0,4.5,2,4.6,5.5h-6.9v0.3
					c0,1.8,0.9,2.9,2.4,2.9C498.1,575.4,498.8,574.9,499.2,573.8z M494.5,570.7h4.6c0-0.8-0.2-1.1-0.5-1.6c-0.4-0.6-1-0.9-1.8-0.9
					C495.5,568.3,494.7,569.1,494.5,570.7z M505.8,577h-2.3v-10.1h2.1v2.4c0.5-1.8,1.7-2.8,3.1-2.7v2.5h-0.1l-0.4,0
					c-1.3,0-2.3,1.4-2.3,3.2V577z"/>
				<path id="Lonelieratwork" class="st2" d="M432.5,652h-8.4v-13.7h2.6v11.4h5.8V652z M438.1,641.7c1.7,0,2.9,0.7,3.8,2.1
					c0.6,1,0.8,1.9,0.8,3.2c0,3.1-2,5.2-4.8,5.2c-1.6,0-2.8-0.6-3.6-1.9c-0.7-1-1-2.1-1-3.4C433.4,643.8,435.3,641.7,438.1,641.7z
					 M438.1,643.6c-1.5,0-2.3,1.2-2.3,3.4c0,2.2,0.8,3.4,2.3,3.4c1.5,0,2.3-1.2,2.3-3.4C440.4,644.7,439.6,643.6,438.1,643.6z
					 M453.2,652h-2.3v-6.3c0-1.2-0.6-2-1.6-2c-0.8,0-1.5,0.5-1.9,1.3c-0.2,0.5-0.4,1.1-0.4,1.9v5.2h-2.3v-10.1h2.1v2.3
					c0.8-1.8,1.7-2.5,3.1-2.5c1.2,0,2.3,0.6,2.8,1.5c0.3,0.6,0.4,1.3,0.4,2.3V652z M462.3,648.8l2.1,0.3c-0.7,2.1-2.2,3.2-4.5,3.2
					c-2.8,0-4.7-2-4.7-5.2c0-3.2,1.9-5.3,4.8-5.3c2.9,0,4.5,2,4.6,5.5h-6.9v0.3c0,1.8,0.9,2.9,2.4,2.9
					C461.2,650.4,461.8,649.9,462.3,648.8z M457.6,645.7h4.6c0-0.8-0.2-1.1-0.5-1.6c-0.4-0.6-1-0.9-1.8-0.9
					C458.6,643.3,457.8,644.1,457.6,645.7z M468.7,652h-2.3v-13.7h2.3V652z M473.7,652h-2.3v-10.1h2.3V652z M473.7,640.7h-2.3v-2.4
					h2.3V640.7z M482.8,648.8l2.1,0.3c-0.7,2.1-2.2,3.2-4.5,3.2c-2.8,0-4.7-2-4.7-5.2c0-3.2,1.9-5.3,4.8-5.3c2.9,0,4.5,2,4.6,5.5
					h-6.9v0.3c0,1.8,0.9,2.9,2.4,2.9C481.7,650.4,482.3,649.9,482.8,648.8z M478.1,645.7h4.6c0-0.8-0.2-1.1-0.5-1.6
					c-0.4-0.6-1-0.9-1.8-0.9C479.1,643.3,478.3,644.1,478.1,645.7z M489.3,652h-2.3v-10.1h2.1v2.4c0.5-1.8,1.7-2.8,3.1-2.7v2.5h-0.1
					l-0.4,0c-1.3,0-2.3,1.4-2.3,3.2V652z M435.2,677.1H433c-0.2-0.7-0.3-1.2-0.3-2.1c-0.7,1.6-1.7,2.3-3.4,2.3c-2,0-3.3-1.3-3.3-3.1
					c0-1.6,1-2.7,2.9-3.1c1.1-0.3,2-0.3,3.9-0.3V670c0-1-0.7-1.6-2.2-1.6c-1.4,0-2.1,0.5-2.3,1.6l-1.9-0.3c0.2-1,0.5-1.6,1.3-2.1
					c0.8-0.6,1.8-0.8,3.2-0.8c1.7,0,2.8,0.3,3.5,1.1c0.5,0.6,0.6,1.1,0.6,2.6v4.6C434.8,675.7,435,676.3,435.2,677.1z M432.6,672.9
					V672c-2.9,0-4.4,0.7-4.4,2.1c0,0.9,0.7,1.5,1.8,1.5C431.5,675.6,432.6,674.5,432.6,672.9z M442,675.3v1.8
					c-0.6,0.1-1.3,0.2-1.6,0.2c-0.9,0-1.7-0.3-2.2-0.8c-0.5-0.5-0.7-1.1-0.7-2.5v-5.2h-1.3V667h1.4l0.2-2.6l1.9-0.2v2.8h2v1.8h-2
					v4.9c0,1.3,0.4,1.6,1.7,1.6C441.6,675.3,441.8,675.3,442,675.3z M461.7,667l-3,10.1h-2.1l-1.8-7.1l-1.8,7.1h-2.1l-3.1-10.1h2.4
					l2,6.8l1.7-6.8h2.1l1.8,6.8l1.9-6.8H461.7z M467.1,666.8c1.7,0,2.9,0.7,3.8,2.1c0.6,1,0.8,1.9,0.8,3.2c0,3.1-2,5.2-4.8,5.2
					c-1.6,0-2.8-0.6-3.6-1.9c-0.7-1-1-2.1-1-3.4C462.3,668.9,464.3,666.8,467.1,666.8z M467.1,668.7c-1.5,0-2.3,1.2-2.3,3.4
					c0,2.2,0.8,3.4,2.3,3.4c1.5,0,2.3-1.2,2.3-3.4C469.3,669.8,468.5,668.7,467.1,668.7z M476.1,677.1h-2.3V667h2.1v2.4
					c0.5-1.8,1.7-2.8,3.1-2.7v2.5h-0.1l-0.4,0c-1.3,0-2.3,1.4-2.3,3.2V677.1z M489.8,677.1h-2.4l-2.6-5.2l-2.2,2.5v2.7h-2.2v-13.7
					h2.2v8.5c0.2-0.3,0.3-0.4,0.5-0.6l4-4.3h2.5l-3,3.3L489.8,677.1z"/>
				<path class="st3" d="M573.6,661.8l-0.4,4.4h-16.5v-4.3c0.7-0.5,1.1-0.8,1.3-1l2.7-1.9c1.7-1.2,4.4-3.4,5.7-4.8
					c1.1-1.1,1.6-2.3,1.6-3.4c0-1.7-1.2-2.9-3-2.9c-2.2,0-3.4,1.4-3.7,4.2l-4.6-1c1-4.9,3.9-7.3,8.5-7.3c2.4,0,4,0.5,5.5,1.7
					c1.7,1.3,2.5,3.1,2.5,5.2c0,2.8-1.3,4.8-4.6,7.4c-1.3,1-2.6,1.8-5.6,3.7H573.6z M584.7,643.8c5.3,0,8.6,4.5,8.6,11.5
					c0,3.1-0.9,6-2.4,8.1c-1.4,1.9-3.6,3-6.3,3c-2.6,0-4.8-1.1-6.1-3c-1.6-2.2-2.4-5.1-2.4-8.3c0-3.1,0.8-6.2,2.3-8.2
					C579.9,644.9,582.1,643.8,584.7,643.8z M584.7,647.5c-2.3,0-3.2,2-3.2,7.5c0,5.7,0.9,7.7,3.3,7.7c2.3,0,3.2-2.1,3.2-7.4
					C588,649.6,587.2,647.5,584.7,647.5z M599.9,644c2.8,0,4.6,2.2,4.6,5.7c0,3.3-1.8,5.6-4.6,5.6c-2.7,0-4.5-2.2-4.5-5.6
					C595.4,646.2,597.1,644,599.9,644z M599.9,646c-1.2,0-1.6,0.9-1.6,3.6c0,2.7,0.4,3.7,1.6,3.7c1.2,0,1.6-1,1.6-3.5
					C601.5,646.9,601.1,646,599.9,646z M598.4,666.1l12.2-22h2.4l-12.2,22H598.4z M611.7,655c2.8,0,4.6,2.2,4.6,5.7
					c0,3.3-1.8,5.6-4.6,5.6c-2.7,0-4.5-2.2-4.5-5.6C607.1,657.2,608.9,655,611.7,655z M611.7,657c-1.2,0-1.6,0.9-1.6,3.6
					c0,2.7,0.4,3.7,1.6,3.7c1.2,0,1.6-1,1.6-3.5C613.3,658,612.9,657,611.7,657z"/>
				<path class="st3" d="M572.3,565.7h-9.6l-0.3,4.9c1.4-1.4,2.7-1.9,4.7-1.9c4.1,0,7.1,3,7.1,7c0,4.8-3.3,7.8-8.6,7.8
					c-2.6,0-4.6-0.7-6.2-2c-1.3-1.1-1.9-2.1-2.4-4.2l4.8-0.7c0.5,2,1.7,2.9,3.7,2.9c2,0,3.5-1.4,3.5-3.4c0-1.9-1.6-3.5-3.5-3.5
					c-1.4,0-2.5,0.6-3.2,1.7l-4.2-0.7l0.9-12.5h13.9L572.3,565.7z M590.6,560.8v13.4h3.1v3.9h-3.1v5.1h-5.1v-5.1h-9.6v-3.9l8.9-13.4
					H590.6z M579.7,574.2h6v-7.4c0-0.2,0-0.5,0-1.1l0-0.9L579.7,574.2z M599.9,561c2.8,0,4.6,2.2,4.6,5.7c0,3.3-1.8,5.6-4.6,5.6
					c-2.7,0-4.5-2.2-4.5-5.6C595.4,563.2,597.1,561,599.9,561z M599.9,563c-1.2,0-1.6,0.9-1.6,3.6c0,2.7,0.4,3.7,1.6,3.7
					c1.2,0,1.6-1,1.6-3.5C601.5,564,601.1,563,599.9,563z M598.4,583.2l12.2-22h2.4l-12.2,22H598.4z M611.7,572
					c2.8,0,4.6,2.2,4.6,5.7c0,3.3-1.8,5.6-4.6,5.6c-2.7,0-4.5-2.2-4.5-5.6C607.1,574.2,608.9,572,611.7,572z M611.7,574
					c-1.2,0-1.6,0.9-1.6,3.6c0,2.7,0.4,3.7,1.6,3.7c1.2,0,1.6-1,1.6-3.5C613.3,575,612.9,574,611.7,574z"/>
				<path class="st3" d="M572.3,481h-9.6l-0.3,4.9c1.4-1.4,2.7-1.9,4.7-1.9c4.1,0,7.1,3,7.1,7c0,4.8-3.3,7.8-8.6,7.8
					c-2.6,0-4.6-0.7-6.2-2c-1.3-1.1-1.9-2.1-2.4-4.2l4.8-0.7c0.5,2,1.7,2.9,3.7,2.9c2,0,3.5-1.4,3.5-3.4c0-1.9-1.6-3.5-3.5-3.5
					c-1.4,0-2.5,0.6-3.2,1.7l-4.2-0.7l0.9-12.5h13.9L572.3,481z M584.7,476.2c5.3,0,8.6,4.5,8.6,11.5c0,3.1-0.9,6-2.4,8.1
					c-1.4,1.9-3.6,3-6.3,3c-2.6,0-4.8-1.1-6.1-3c-1.6-2.2-2.4-5.1-2.4-8.3c0-3.1,0.8-6.2,2.3-8.2
					C579.9,477.3,582.1,476.2,584.7,476.2z M584.7,479.9c-2.3,0-3.2,2-3.2,7.5c0,5.7,0.9,7.7,3.3,7.7c2.3,0,3.2-2.1,3.2-7.4
					C588,481.9,587.2,479.9,584.7,479.9z M599.9,476.3c2.8,0,4.6,2.2,4.6,5.7c0,3.3-1.8,5.6-4.6,5.6c-2.7,0-4.5-2.2-4.5-5.6
					C595.4,478.6,597.1,476.3,599.9,476.3z M599.9,478.3c-1.2,0-1.6,0.9-1.6,3.6c0,2.7,0.4,3.7,1.6,3.7c1.2,0,1.6-1,1.6-3.5
					C601.5,479.3,601.1,478.3,599.9,478.3z M598.4,498.5l12.2-22h2.4l-12.2,22H598.4z M611.7,487.4c2.8,0,4.6,2.2,4.6,5.7
					c0,3.3-1.8,5.6-4.6,5.6c-2.7,0-4.5-2.2-4.5-5.6C607.1,489.6,608.9,487.4,611.7,487.4z M611.7,489.3c-1.2,0-1.6,0.9-1.6,3.6
					c0,2.7,0.4,3.7,1.6,3.7c1.2,0,1.6-1,1.6-3.5C613.3,490.3,612.9,489.3,611.7,489.3z"/>
				<path class="st3" d="M572.3,396.4h-9.6l-0.3,4.9c1.4-1.4,2.7-1.9,4.7-1.9c4.1,0,7.1,3,7.1,7c0,4.8-3.3,7.8-8.6,7.8
					c-2.6,0-4.6-0.7-6.2-2c-1.3-1.1-1.9-2.1-2.4-4.2l4.8-0.7c0.5,2,1.7,2.9,3.7,2.9c2,0,3.5-1.4,3.5-3.4c0-1.9-1.6-3.5-3.5-3.5
					c-1.4,0-2.5,0.6-3.2,1.7l-4.2-0.7l0.9-12.5h13.9L572.3,396.4z M591.6,396.4H582l-0.3,4.9c1.4-1.4,2.7-1.9,4.7-1.9
					c4.1,0,7.1,3,7.1,7c0,4.8-3.3,7.8-8.6,7.8c-2.6,0-4.6-0.7-6.2-2c-1.3-1.1-1.9-2.1-2.4-4.2l4.8-0.7c0.5,2,1.7,2.9,3.7,2.9
					c2,0,3.5-1.4,3.5-3.4c0-1.9-1.6-3.5-3.5-3.5c-1.4,0-2.5,0.6-3.2,1.7l-4.2-0.7l0.9-12.5h13.9L591.6,396.4z M599.9,391.7
					c2.8,0,4.6,2.2,4.6,5.7c0,3.3-1.8,5.6-4.6,5.6c-2.7,0-4.5-2.2-4.5-5.6C595.4,393.9,597.1,391.7,599.9,391.7z M599.9,393.7
					c-1.2,0-1.6,0.9-1.6,3.6c0,2.7,0.4,3.7,1.6,3.7c1.2,0,1.6-1,1.6-3.5C601.5,394.7,601.1,393.7,599.9,393.7z M598.4,413.9l12.2-22
					h2.4l-12.2,22H598.4z M611.7,402.7c2.8,0,4.6,2.2,4.6,5.7c0,3.3-1.8,5.6-4.6,5.6c-2.7,0-4.5-2.2-4.5-5.6
					C607.1,405,608.9,402.7,611.7,402.7z M611.7,404.7c-1.2,0-1.6,0.9-1.6,3.6c0,2.7,0.4,3.7,1.6,3.7c1.2,0,1.6-1,1.6-3.5
					C613.3,405.7,612.9,404.7,611.7,404.7z"/>
				<path class="st3" d="M573.4,307.2v3.9c-1.6,1.8-2.8,3.7-4.2,6.8c-1.2,2.5-2,6.6-2,9.6c0,0.4,0,0.9,0.1,1.6h-5.9
					c-0.2-5.6,3.1-13.3,7.5-17.5h-11.1l0.4-4.6H573.4z M584.7,306.9c5.3,0,8.6,4.5,8.6,11.5c0,3.1-0.9,6-2.4,8.1
					c-1.4,1.9-3.6,3-6.3,3c-2.6,0-4.8-1.1-6.1-3c-1.6-2.2-2.4-5.1-2.4-8.3c0-3.1,0.8-6.2,2.3-8.2C579.9,308,582.1,306.9,584.7,306.9
					z M584.7,310.6c-2.3,0-3.2,2-3.2,7.5c0,5.7,0.9,7.7,3.3,7.7c2.3,0,3.2-2.1,3.2-7.4C588,312.6,587.2,310.6,584.7,310.6z
					 M599.9,307c2.8,0,4.6,2.2,4.6,5.7c0,3.3-1.8,5.6-4.6,5.6c-2.7,0-4.5-2.2-4.5-5.6C595.4,309.3,597.1,307,599.9,307z M599.9,309
					c-1.2,0-1.6,0.9-1.6,3.6c0,2.7,0.4,3.7,1.6,3.7c1.2,0,1.6-1,1.6-3.5C601.5,310,601.1,309,599.9,309z M598.4,329.2l12.2-22h2.4
					l-12.2,22H598.4z M611.7,318.1c2.8,0,4.6,2.2,4.6,5.7c0,3.3-1.8,5.6-4.6,5.6c-2.7,0-4.5-2.2-4.5-5.6
					C607.1,320.3,608.9,318.1,611.7,318.1z M611.7,320c-1.2,0-1.6,0.9-1.6,3.6c0,2.7,0.4,3.7,1.6,3.7c1.2,0,1.6-1,1.6-3.5
					C613.3,321,612.9,320,611.7,320z"/>
				<path class="st3" d="M572.3,227.1h-9.6l-0.3,4.9c1.4-1.4,2.7-1.9,4.7-1.9c4.1,0,7.1,3,7.1,7c0,4.8-3.3,7.8-8.6,7.8
					c-2.6,0-4.6-0.7-6.2-2c-1.3-1.1-1.9-2.1-2.4-4.2l4.8-0.7c0.5,2,1.7,2.9,3.7,2.9c2,0,3.5-1.4,3.5-3.4c0-1.9-1.6-3.5-3.5-3.5
					c-1.4,0-2.5,0.6-3.2,1.7l-4.2-0.7l0.9-12.5h13.9L572.3,227.1z M591.6,227.1H582l-0.3,4.9c1.4-1.4,2.7-1.9,4.7-1.9
					c4.1,0,7.1,3,7.1,7c0,4.8-3.3,7.8-8.6,7.8c-2.6,0-4.6-0.7-6.2-2c-1.3-1.1-1.9-2.1-2.4-4.2l4.8-0.7c0.5,2,1.7,2.9,3.7,2.9
					c2,0,3.5-1.4,3.5-3.4c0-1.9-1.6-3.5-3.5-3.5c-1.4,0-2.5,0.6-3.2,1.7l-4.2-0.7l0.9-12.5h13.9L591.6,227.1z M599.9,222.4
					c2.8,0,4.6,2.2,4.6,5.7c0,3.3-1.8,5.6-4.6,5.6c-2.7,0-4.5-2.2-4.5-5.6C595.4,224.6,597.1,222.4,599.9,222.4z M599.9,224.4
					c-1.2,0-1.6,0.9-1.6,3.6c0,2.7,0.4,3.7,1.6,3.7c1.2,0,1.6-1,1.6-3.5C601.5,225.4,601.1,224.4,599.9,224.4z M598.4,244.6l12.2-22
					h2.4l-12.2,22H598.4z M611.7,233.4c2.8,0,4.6,2.2,4.6,5.7c0,3.3-1.8,5.6-4.6,5.6c-2.7,0-4.5-2.2-4.5-5.6
					C607.1,235.7,608.9,233.4,611.7,233.4z M611.7,235.4c-1.2,0-1.6,0.9-1.6,3.6c0,2.7,0.4,3.7,1.6,3.7c1.2,0,1.6-1,1.6-3.5
					C613.3,236.4,612.9,235.4,611.7,235.4z"/>
				<path class="st3" d="M574,144.5l-4.4,1.2c-0.5-2.3-1.5-3.4-3.3-3.4c-2.5,0-3.9,2.3-3.9,6.8v0.6c1.1-1.7,2.6-2.5,4.9-2.5
					c4,0,7,2.9,7,6.8c0,1.9-0.8,3.9-2.2,5.2c-1.5,1.5-3.4,2.1-5.8,2.1c-5.6,0-8.9-4.2-8.9-11.2c0-3.2,0.9-6.3,2.3-8.2
					c1.7-2.3,3.8-3.3,6.8-3.3c2.5,0,4.3,0.7,5.7,2.2C573.1,142,573.6,142.9,574,144.5z M566,150.7c-1.9,0-3.3,1.5-3.3,3.5
					c0,2,1.4,3.5,3.3,3.5s3.3-1.5,3.3-3.5C569.2,152.2,567.9,150.7,566,150.7z M585,138.7c5.3,0,8.6,4.5,8.6,11.5
					c0,3.1-0.9,6-2.4,8.1c-1.4,1.9-3.6,3-6.3,3c-2.6,0-4.8-1.1-6.1-3c-1.6-2.2-2.4-5.1-2.4-8.3c0-3.1,0.8-6.2,2.3-8.2
					C580.1,139.8,582.4,138.7,585,138.7z M585,142.4c-2.3,0-3.2,2-3.2,7.5c0,5.7,0.9,7.7,3.3,7.7c2.3,0,3.2-2.1,3.2-7.4
					C588.3,144.4,587.5,142.4,585,142.4z M600.2,138.8c2.8,0,4.6,2.2,4.6,5.7c0,3.3-1.8,5.6-4.6,5.6c-2.7,0-4.5-2.2-4.5-5.6
					C595.7,141.1,597.4,138.8,600.2,138.8z M600.2,140.8c-1.2,0-1.6,0.9-1.6,3.6c0,2.7,0.4,3.7,1.6,3.7c1.2,0,1.6-1,1.6-3.5
					C601.8,141.8,601.4,140.8,600.2,140.8z M598.7,161l12.2-22h2.4l-12.2,22H598.7z M611.9,149.9c2.8,0,4.6,2.2,4.6,5.7
					c0,3.3-1.8,5.6-4.6,5.6c-2.7,0-4.5-2.2-4.5-5.6C607.4,152.1,609.2,149.9,611.9,149.9z M612,151.8c-1.2,0-1.6,0.9-1.6,3.6
					c0,2.7,0.4,3.7,1.6,3.7c1.2,0,1.6-1,1.6-3.5C613.6,152.8,613.2,151.8,612,151.8z"/>
				<path id="Reality" class="st4" d="M540.9,12.8V21h-4.9V0.3h9.1c2.7,0,4.1,0.4,5.4,1.4c1.3,1.1,2.2,2.9,2.2,4.8
					c0,1.5-0.6,3-1.5,4c-0.5,0.5-1,0.8-2,1.3l3.8,9.1h-5.4l-3.2-8.2H540.9z M540.9,4v5.3h3c1.6,0,2-0.1,2.6-0.4
					c0.7-0.4,1.2-1.4,1.2-2.3c0-0.8-0.4-1.6-1-2c-0.6-0.5-1-0.5-2.9-0.5H540.9z M569,14.1h-9.8c0,0.2,0,0.6,0,0.7
					c0,2,1.2,3.3,2.9,3.3c1.5,0,2.4-0.8,2.7-2.4l4.1,0.3c-0.5,1.6-0.9,2.3-1.8,3.2c-1.3,1.4-3,2.1-5.2,2.1c-4.5,0-7.5-3.1-7.5-7.8
					c0-4.8,3-8.1,7.4-8.1c2.5,0,4.8,1.2,6,3.2C568.7,10.1,569,11.4,569,14.1z M559.2,11.5h5.4c-0.2-2.2-0.9-3.1-2.6-3.1
					C560.3,8.4,559.4,9.3,559.2,11.5z M584.7,21h-4.4c-0.2-1-0.2-1.2-0.2-2c0,0,0-0.2,0-0.4c-1.5,2-2.7,2.7-4.9,2.7
					c-2.9,0-4.8-1.7-4.8-4.3c0-2.2,1.2-3.8,3.4-4.6c1.2-0.4,2.6-0.7,6.1-1v-0.9c0-1.5-0.7-2.2-2.3-2.2c-1.5,0-2.4,0.8-2.6,2.2
					l-4.2-0.4c0.3-1.6,0.8-2.5,1.7-3.2c1.3-1,3.2-1.5,5.5-1.5c2.5,0,4.5,0.7,5.5,1.9c0.7,0.8,0.8,1.6,0.8,3.9v6.9
					C584.4,20,584.4,20,584.7,21z M579.9,15.1v-1.4c-1.4,0.2-2,0.2-2.7,0.5c-1.3,0.4-2,1.2-2,2.3c0,1.1,0.8,2,1.9,2
					C578.7,18.5,579.9,17,579.9,15.1z M587.7,21V0.3h4.5V21H587.7z M599.9,5.7V21h-4.5V5.7H599.9z M599.9-0.1v4.5h-4.5v-4.5H599.9z
					 M608.2,9.2v6.4c0,1.7,0.3,2,2.1,2c0.4,0,0.7,0,1.4-0.1V21c-2,0.3-2.1,0.3-2.9,0.3c-3.8,0-5.1-1.3-5.1-5V9.2h-2.4V5.7h2.7
					l0.4-4.5l3.9-0.3v4.8h3.3v3.5H608.2z M626,5.7l-4.8,14.7c-0.9,2.8-1.1,3.2-1.8,4.2c-0.9,1.2-2.1,1.8-4.2,1.8
					c-0.7,0-1.2,0-2.2-0.2v-3.5c1,0.2,1.5,0.2,2.2,0.2c1.5,0,2-0.4,2.5-1.9l-5.6-15.3h4.8l2.9,9.1l2.8-9.1H626z"/>
				<path class="st3" d="M300.7,652.8h2.3c1.3,0,2.1-0.3,2.7-0.9c0.5-0.5,0.7-1.1,0.7-1.7c0-1.6-1.3-2.7-3-2.7
					c-1.8,0-2.8,0.8-3.4,2.8l-4.6-0.7c0.5-1.7,0.9-2.5,2-3.6c1.6-1.5,3.6-2.3,6.1-2.3c4.7,0,7.8,2.4,7.8,5.9c0,2.4-1.3,4-3.8,4.9
					c1.4,0.4,2,0.7,2.8,1.4c1.1,1,1.6,2.3,1.6,3.9c0,4-3.3,6.6-8.5,6.6c-2.8,0-4.7-0.7-6.3-2.2c-1.4-1.3-2-2.4-2.4-4.5l4.7-0.7
					c0.6,2.3,1.8,3.4,4,3.4c2,0,3.4-1.2,3.4-3c0-1-0.4-1.8-1.1-2.3c-0.6-0.4-1.3-0.5-3-0.5h-2V652.8z M328,654.2
					c2.9,1.3,4.1,2.8,4.1,5.4c0,4.2-3.5,6.8-9.1,6.8c-5.1,0-8.3-2.4-8.3-6.3c0-2.4,1.1-3.8,3.9-4.9c-2.2-1.4-3.2-2.8-3.2-5
					c0-1.8,0.9-3.6,2.2-4.7c1.4-1.2,3.4-1.8,5.9-1.8c4.7,0,7.8,2.3,7.8,5.8C331.4,651.7,330.4,653.1,328,654.2z M324.7,652.8
					c1.6-0.5,2.2-1.4,2.2-2.8c0-1.8-1.4-2.9-3.5-2.9c-1.8,0-3,0.9-3,2.3C320.3,651,321.1,651.6,324.7,652.8z M322.1,656.9
					c-1.9,0.6-2.7,1.5-2.7,3c0,1.9,1.5,3,4.1,3c2.3,0,3.8-0.9,3.8-2.3c0-1.1-0.7-1.9-2-2.5C324.3,657.7,324,657.6,322.1,656.9z
					 M338.5,643.9c2.8,0,4.6,2.2,4.6,5.7c0,3.3-1.8,5.6-4.6,5.6c-2.7,0-4.5-2.2-4.5-5.6C334,646.2,335.8,643.9,338.5,643.9z
					 M338.5,645.9c-1.2,0-1.6,0.9-1.6,3.6c0,2.7,0.4,3.7,1.6,3.7c1.2,0,1.6-1,1.6-3.5C340.2,646.9,339.7,645.9,338.5,645.9z
					 M337.1,666.1l12.2-22h2.4l-12.2,22H337.1z M350.3,655c2.8,0,4.6,2.2,4.6,5.7c0,3.3-1.8,5.6-4.6,5.6c-2.7,0-4.5-2.2-4.5-5.6
					C345.8,657.2,347.6,655,350.3,655z M350.3,656.9c-1.2,0-1.6,0.9-1.6,3.6c0,2.7,0.4,3.7,1.6,3.7c1.2,0,1.6-1,1.6-3.5
					C351.9,657.9,351.5,656.9,350.3,656.9z"/>
				<path class="st3" d="M312,561.1v3.9c-1.6,1.8-2.8,3.7-4.2,6.8c-1.2,2.5-2,6.6-2,9.6c0,0.4,0,0.9,0.1,1.6h-5.9
					c-0.2-5.6,3.1-13.3,7.5-17.5h-11.1l0.4-4.6H312z M323.3,560.8c5.3,0,8.6,4.5,8.6,11.5c0,3.1-0.9,6-2.4,8.1c-1.4,1.9-3.6,3-6.3,3
					c-2.6,0-4.8-1.1-6.1-3c-1.6-2.2-2.4-5.1-2.4-8.3c0-3.1,0.8-6.2,2.3-8.2C318.5,561.9,320.7,560.8,323.3,560.8z M323.3,564.5
					c-2.3,0-3.2,2-3.2,7.5c0,5.7,0.9,7.7,3.3,7.7c2.3,0,3.2-2.1,3.2-7.4C326.7,566.5,325.8,564.5,323.3,564.5z M338.5,561
					c2.8,0,4.6,2.2,4.6,5.7c0,3.3-1.8,5.6-4.6,5.6c-2.7,0-4.5-2.2-4.5-5.6C334,563.2,335.8,561,338.5,561z M338.5,562.9
					c-1.2,0-1.6,0.9-1.6,3.6c0,2.7,0.4,3.7,1.6,3.7c1.2,0,1.6-1,1.6-3.5C340.2,563.9,339.7,562.9,338.5,562.9z M337.1,583.1l12.2-22
					h2.4l-12.2,22H337.1z M350.3,572c2.8,0,4.6,2.2,4.6,5.7c0,3.3-1.8,5.6-4.6,5.6c-2.7,0-4.5-2.2-4.5-5.6
					C345.8,574.2,347.6,572,350.3,572z M350.3,573.9c-1.2,0-1.6,0.9-1.6,3.6c0,2.7,0.4,3.7,1.6,3.7c1.2,0,1.6-1,1.6-3.5
					C351.9,574.9,351.5,573.9,350.3,573.9z"/>
				<path class="st3" d="M312.3,482l-4.4,1.2c-0.5-2.3-1.5-3.4-3.3-3.4c-2.5,0-3.9,2.3-3.9,6.8v0.6c1.1-1.7,2.6-2.5,4.9-2.5
					c4,0,7,2.9,7,6.8c0,1.9-0.8,3.9-2.2,5.2c-1.5,1.5-3.4,2.1-5.8,2.1c-5.6,0-8.9-4.2-8.9-11.2c0-3.2,0.9-6.3,2.3-8.2
					c1.7-2.3,3.8-3.3,6.8-3.3c2.5,0,4.3,0.7,5.7,2.2C311.5,479.4,311.9,480.4,312.3,482z M304.3,488.2c-1.9,0-3.3,1.5-3.3,3.5
					c0,2,1.4,3.5,3.3,3.5s3.3-1.5,3.3-3.5C307.6,489.6,306.2,488.2,304.3,488.2z M331.7,482l-4.4,1.2c-0.5-2.3-1.5-3.4-3.3-3.4
					c-2.5,0-3.9,2.3-3.9,6.8v0.6c1.1-1.7,2.6-2.5,4.9-2.5c4,0,7,2.9,7,6.8c0,1.9-0.8,3.9-2.2,5.2c-1.5,1.5-3.4,2.1-5.8,2.1
					c-5.6,0-8.9-4.2-8.9-11.2c0-3.2,0.9-6.3,2.3-8.2c1.7-2.3,3.8-3.3,6.8-3.3c2.5,0,4.3,0.7,5.7,2.2
					C330.8,479.4,331.3,480.4,331.7,482z M323.7,488.2c-1.9,0-3.3,1.5-3.3,3.5c0,2,1.4,3.5,3.3,3.5s3.3-1.5,3.3-3.5
					C326.9,489.6,325.6,488.2,323.7,488.2z M338.5,476.3c2.8,0,4.6,2.2,4.6,5.7c0,3.3-1.8,5.6-4.6,5.6c-2.7,0-4.5-2.2-4.5-5.6
					C334,478.5,335.8,476.3,338.5,476.3z M338.5,478.3c-1.2,0-1.6,0.9-1.6,3.6c0,2.7,0.4,3.7,1.6,3.7c1.2,0,1.6-1,1.6-3.5
					C340.2,479.3,339.7,478.3,338.5,478.3z M337.1,498.5l12.2-22h2.4l-12.2,22H337.1z M350.3,487.3c2.8,0,4.6,2.2,4.6,5.7
					c0,3.3-1.8,5.6-4.6,5.6c-2.7,0-4.5-2.2-4.5-5.6C345.8,489.6,347.6,487.3,350.3,487.3z M350.3,489.3c-1.2,0-1.6,0.9-1.6,3.6
					c0,2.7,0.4,3.7,1.6,3.7c1.2,0,1.6-1,1.6-3.5C351.9,490.3,351.5,489.3,350.3,489.3z"/>
				<path class="st3" d="M312,391.8v3.9c-1.6,1.8-2.8,3.7-4.2,6.8c-1.2,2.5-2,6.6-2,9.6c0,0.4,0,0.9,0.1,1.6h-5.9
					c-0.2-5.6,3.1-13.3,7.5-17.5h-11.1l0.4-4.6H312z M331.6,409.4l-0.4,4.4h-16.5v-4.3c0.7-0.5,1.1-0.8,1.3-1l2.7-1.9
					c1.7-1.2,4.4-3.4,5.7-4.8c1.1-1.1,1.6-2.3,1.6-3.4c0-1.7-1.2-2.9-3-2.9c-2.2,0-3.4,1.4-3.7,4.2l-4.6-1c1-4.9,3.9-7.3,8.5-7.3
					c2.4,0,4,0.5,5.5,1.7c1.7,1.3,2.5,3.1,2.5,5.2c0,2.8-1.3,4.8-4.6,7.4c-1.3,1-2.6,1.8-5.6,3.7H331.6z M338.5,391.7
					c2.8,0,4.6,2.2,4.6,5.7c0,3.3-1.8,5.6-4.6,5.6c-2.7,0-4.5-2.2-4.5-5.6C334,393.9,335.8,391.7,338.5,391.7z M338.5,393.6
					c-1.2,0-1.6,0.9-1.6,3.6c0,2.7,0.4,3.7,1.6,3.7c1.2,0,1.6-1,1.6-3.5C340.2,394.6,339.7,393.6,338.5,393.6z M337.1,413.8l12.2-22
					h2.4l-12.2,22H337.1z M350.3,402.7c2.8,0,4.6,2.2,4.6,5.7c0,3.3-1.8,5.6-4.6,5.6c-2.7,0-4.5-2.2-4.5-5.6
					C345.8,404.9,347.6,402.7,350.3,402.7z M350.3,404.7c-1.2,0-1.6,0.9-1.6,3.6c0,2.7,0.4,3.7,1.6,3.7c1.2,0,1.6-1,1.6-3.5
					C351.9,405.6,351.5,404.7,350.3,404.7z"/>
				<path class="st3" d="M312,307.2v3.9c-1.6,1.8-2.8,3.7-4.2,6.8c-1.2,2.5-2,6.6-2,9.6c0,0.4,0,0.9,0.1,1.6h-5.9
					c-0.2-5.6,3.1-13.3,7.5-17.5h-11.1l0.4-4.6H312z M320.1,315.9h2.3c1.3,0,2.1-0.3,2.7-0.9c0.5-0.5,0.7-1.1,0.7-1.7
					c0-1.6-1.3-2.7-3-2.7c-1.8,0-2.8,0.8-3.4,2.8l-4.6-0.7c0.5-1.7,0.9-2.5,2-3.6c1.6-1.5,3.6-2.3,6.1-2.3c4.7,0,7.8,2.4,7.8,5.9
					c0,2.4-1.3,4-3.8,4.9c1.4,0.4,2,0.7,2.8,1.4c1.1,1,1.6,2.3,1.6,3.9c0,4-3.3,6.6-8.5,6.6c-2.8,0-4.7-0.7-6.3-2.2
					c-1.4-1.3-2-2.4-2.4-4.5l4.7-0.7c0.6,2.3,1.8,3.4,4,3.4c2,0,3.4-1.2,3.4-3c0-1-0.4-1.8-1.1-2.3c-0.6-0.4-1.3-0.5-3-0.5h-2V315.9
					z M338.5,307c2.8,0,4.6,2.2,4.6,5.7c0,3.3-1.8,5.6-4.6,5.6c-2.7,0-4.5-2.2-4.5-5.6C334,309.3,335.8,307,338.5,307z M338.5,309
					c-1.2,0-1.6,0.9-1.6,3.6c0,2.7,0.4,3.7,1.6,3.7c1.2,0,1.6-1,1.6-3.5C340.2,310,339.7,309,338.5,309z M337.1,329.2l12.2-22h2.4
					l-12.2,22H337.1z M350.3,318c2.8,0,4.6,2.2,4.6,5.7c0,3.3-1.8,5.6-4.6,5.6c-2.7,0-4.5-2.2-4.5-5.6
					C345.8,320.3,347.6,318,350.3,318z M350.3,320c-1.2,0-1.6,0.9-1.6,3.6c0,2.7,0.4,3.7,1.6,3.7c1.2,0,1.6-1,1.6-3.5
					C351.9,321,351.5,320,350.3,320z"/>
				<path class="st3" d="M312.3,228.1l-4.4,1.2c-0.5-2.3-1.5-3.4-3.3-3.4c-2.5,0-3.9,2.3-3.9,6.8v0.6c1.1-1.7,2.6-2.5,4.9-2.5
					c4,0,7,2.9,7,6.8c0,1.9-0.8,3.9-2.2,5.2c-1.5,1.5-3.4,2.1-5.8,2.1c-5.6,0-8.9-4.2-8.9-11.2c0-3.2,0.9-6.3,2.3-8.2
					c1.7-2.3,3.8-3.3,6.8-3.3c2.5,0,4.3,0.7,5.7,2.2C311.5,225.5,311.9,226.4,312.3,228.1z M304.3,234.2c-1.9,0-3.3,1.5-3.3,3.5
					c0,2,1.4,3.5,3.3,3.5s3.3-1.5,3.3-3.5C307.6,235.7,306.2,234.2,304.3,234.2z M329.2,222.2v13.4h3.1v3.9h-3.1v5.1h-5.1v-5.1h-9.6
					v-3.9l8.9-13.4H329.2z M318.3,235.6h6v-7.4c0-0.2,0-0.5,0-1.1l0-0.9L318.3,235.6z M338.5,222.4c2.8,0,4.6,2.2,4.6,5.7
					c0,3.3-1.8,5.6-4.6,5.6c-2.7,0-4.5-2.2-4.5-5.6C334,224.6,335.8,222.4,338.5,222.4z M338.5,224.3c-1.2,0-1.6,0.9-1.6,3.6
					c0,2.7,0.4,3.7,1.6,3.7c1.2,0,1.6-1,1.6-3.5C340.2,225.3,339.7,224.3,338.5,224.3z M337.1,244.5l12.2-22h2.4l-12.2,22H337.1z
					 M350.3,233.4c2.8,0,4.6,2.2,4.6,5.7c0,3.3-1.8,5.6-4.6,5.6c-2.7,0-4.5-2.2-4.5-5.6C345.8,235.6,347.6,233.4,350.3,233.4z
					 M350.3,235.4c-1.2,0-1.6,0.9-1.6,3.6c0,2.7,0.4,3.7,1.6,3.7c1.2,0,1.6-1,1.6-3.5C351.9,236.4,351.5,235.4,350.3,235.4z"/>
				<path class="st3" d="M311.6,139v3.9c-1.6,1.8-2.8,3.7-4.2,6.8c-1.2,2.5-2,6.6-2,9.6c0,0.4,0,0.9,0.1,1.6h-5.9
					c-0.2-5.6,3.1-13.3,7.5-17.5h-11.1l0.4-4.6H311.6z M329.9,143.5h-9.6l-0.3,4.9c1.4-1.4,2.7-1.9,4.7-1.9c4.1,0,7.1,3,7.1,7
					c0,4.8-3.3,7.8-8.6,7.8c-2.6,0-4.6-0.7-6.2-2c-1.3-1.1-1.9-2.1-2.4-4.2l4.8-0.7c0.5,2,1.7,2.9,3.7,2.9c2,0,3.5-1.4,3.5-3.4
					c0-1.9-1.6-3.5-3.5-3.5c-1.4,0-2.5,0.6-3.2,1.7l-4.2-0.7l0.9-12.5h13.9L329.9,143.5z M338.2,138.8c2.8,0,4.6,2.2,4.6,5.7
					c0,3.3-1.8,5.6-4.6,5.6c-2.7,0-4.5-2.2-4.5-5.6C333.7,141.1,335.4,138.8,338.2,138.8z M338.2,140.8c-1.2,0-1.6,0.9-1.6,3.6
					c0,2.7,0.4,3.7,1.6,3.7c1.2,0,1.6-1,1.6-3.5C339.8,141.8,339.4,140.8,338.2,140.8z M336.7,161l12.2-22h2.4l-12.2,22H336.7z
					 M349.9,149.9c2.8,0,4.6,2.2,4.6,5.7c0,3.3-1.8,5.6-4.6,5.6c-2.7,0-4.5-2.2-4.5-5.6C345.4,152.1,347.2,149.9,349.9,149.9z
					 M350,151.8c-1.2,0-1.6,0.9-1.6,3.6c0,2.7,0.4,3.7,1.6,3.7c1.2,0,1.6-1,1.6-3.5C351.6,152.8,351.2,151.8,350,151.8z"/>
				<path id="Expectation" class="st2" d="M236.9,4.3H227v4.2h7.8v3.9H227v4.5h9.9V21h-14.8V0.3h14.8V4.3z M252.2,5.7l-4.4,7.1
					L253,21h-5.1l-3.2-5.3l-3.1,5.3h-3.9l5.1-8.2l-4.4-7.1h5.1l2.4,4.1l2.4-4.1H252.2z M254.8,26.2V5.7h4.2v2.2
					c0.8-1.7,2.1-2.5,4-2.5c3.5,0,5.6,2.9,5.6,7.9c0,5-2.1,8-5.8,8c-1.7,0-2.9-0.6-3.7-2v6.9H254.8z M259.2,12v2.3
					c0,1.7,0.1,2.2,0.4,2.7c0.4,0.7,1.2,1.1,2,1.1c0.7,0,1.4-0.4,1.8-1.1c0.4-0.7,0.6-2,0.6-3.8c0-3.2-0.8-4.7-2.4-4.7
					C260.1,8.5,259.2,9.8,259.2,12z M285.3,14.1h-9.8c0,0.2,0,0.6,0,0.7c0,2,1.2,3.3,2.9,3.3c1.5,0,2.4-0.8,2.7-2.4l4.1,0.3
					c-0.5,1.6-0.9,2.3-1.8,3.2c-1.3,1.4-3,2.1-5.2,2.1c-4.5,0-7.5-3.1-7.5-7.8c0-4.8,3-8.1,7.4-8.1c2.5,0,4.8,1.2,6,3.2
					C284.9,10.1,285.3,11.4,285.3,14.1z M275.5,11.5h5.4c-0.2-2.2-0.9-3.1-2.6-3.1C276.6,8.4,275.7,9.3,275.5,11.5z M297.4,15
					l4.2,0.2c-0.2,1.6-0.5,2.4-1.3,3.4c-1.3,1.7-3.2,2.6-5.7,2.6c-4.4,0-7.3-3.1-7.3-7.8c0-4.8,3-8.1,7.6-8.1c2.2,0,3.9,0.7,5.2,2.1
					c1,1.1,1.4,2,1.6,3.8l-4.2,0.2c-0.2-1.9-0.9-2.8-2.4-2.8c-1.8,0-2.7,1.4-2.7,4.5c0,3.1,0.7,4.3,2.5,4.3
					C296.3,17.7,297.1,16.8,297.4,15z M309.8,9.2v6.4c0,1.7,0.3,2,2.1,2c0.4,0,0.7,0,1.4-0.1V21c-2,0.3-2.1,0.3-2.9,0.3
					c-3.8,0-5.1-1.3-5.1-5V9.2h-2.4V5.7h2.7l0.4-4.5l3.9-0.3v4.8h3.3v3.5H309.8z M329.5,21h-4.4c-0.2-1-0.2-1.2-0.2-2
					c0,0,0-0.2,0-0.4c-1.5,2-2.7,2.7-4.9,2.7c-2.9,0-4.8-1.7-4.8-4.3c0-2.2,1.2-3.8,3.4-4.6c1.2-0.4,2.6-0.7,6.1-1v-0.9
					c0-1.5-0.7-2.2-2.3-2.2c-1.5,0-2.4,0.8-2.6,2.2l-4.2-0.4c0.3-1.6,0.8-2.5,1.7-3.2c1.3-1,3.2-1.5,5.5-1.5c2.5,0,4.5,0.7,5.5,1.9
					c0.7,0.8,0.8,1.6,0.8,3.9v6.9C329.2,20,329.2,20,329.5,21z M324.7,15.1v-1.4c-1.4,0.2-2,0.2-2.7,0.5c-1.3,0.4-2,1.2-2,2.3
					c0,1.1,0.8,2,1.9,2C323.5,18.5,324.7,17,324.7,15.1z M338,9.2v6.4c0,1.7,0.3,2,2.1,2c0.4,0,0.7,0,1.4-0.1V21
					c-2,0.3-2.1,0.3-2.9,0.3c-3.8,0-5.1-1.3-5.1-5V9.2h-2.4V5.7h2.7l0.4-4.5l3.9-0.3v4.8h3.3v3.5H338z M348.4,5.7V21h-4.5V5.7H348.4
					z M348.4-0.1v4.5h-4.5v-4.5H348.4z M358.5,5.4c4.5,0,7.4,3.2,7.4,8c0,4.7-3,7.9-7.4,7.9c-2.3,0-4-0.7-5.3-2.3
					c-1.3-1.6-1.9-3.3-1.9-5.7C351.3,8.6,354.2,5.4,358.5,5.4z M358.6,8.4c-1.8,0-2.6,1.4-2.6,4.6c0,3.8,0.7,5.4,2.6,5.4
					c1.8,0,2.6-1.5,2.6-4.9C361.2,9.8,360.5,8.4,358.6,8.4z M382,21h-4.5v-8.6c0-1.6,0-2-0.3-2.5c-0.3-0.6-0.9-1-1.6-1
					c-1.6,0-2.4,1.2-2.4,3.5V21h-4.5V5.7h4.2v2.6c1.3-2.2,2.3-2.9,4.5-2.9c1.5,0,2.9,0.5,3.6,1.5c0.7,0.9,1,2.1,1,4.3V21z"/>
				<path id="Whatthenextwaveofself-employedprofessionalsexpect." class="st2" d="M122.3,39l-2.9,12h-1.5l-2.6-9.3l-2.4,9.3h-1.5
					l-3-12h1.5l2.4,9.7l2.6-9.7h1.2l2.8,9.7L121,39H122.3z M130.8,51h-1.4v-5.4c0-0.9,0-1.2-0.2-1.6c-0.2-0.6-0.9-1-1.5-1
					c-0.6,0-1.3,0.3-1.7,0.8c-0.5,0.6-0.7,1.3-0.7,2.3V51h-1.4V39h1.4v4.8c0.7-1.3,1.5-1.9,2.7-1.9c1,0,1.8,0.4,2.3,1.2
					c0.4,0.6,0.5,1.1,0.5,2.6V51z M140.5,51h-1.4c-0.1-0.4-0.1-0.6-0.2-1.6c-0.7,1.3-1.6,1.8-3.1,1.8c-1.8,0-3.1-1.1-3.1-2.7
					c0-1,0.6-2,1.5-2.4c0.8-0.4,2-0.6,3.6-0.6c0.3,0,0.6,0,1.2,0v-0.3c0-1.7-0.6-2.3-2.3-2.3c-1.3,0-2.1,0.6-2.4,1.6l-1.3-0.2
					c0.1-0.7,0.3-1,0.7-1.4c0.7-0.7,1.8-1.1,3.3-1.1c1.3,0,2.2,0.3,2.8,1c0.4,0.6,0.6,1.3,0.6,2.6v3.8
					C140.3,49.9,140.4,50.5,140.5,51z M139,46.6c-0.5,0-1,0-1.2,0c-2.3,0-3.6,0.7-3.6,2.1c0,1,0.7,1.6,1.9,1.6c1.6,0,2.9-1.3,2.9-3
					C139,47,139,46.8,139,46.6z M146.9,50v1.1c-0.6,0.1-0.9,0.1-1.3,0.1c-1.7,0-2.5-0.9-2.5-2.7v-5.3h-1.6v-1.1h1.6l0.1-2.2l1.3-0.1
					v2.3h2v1.1h-2v5.6c0,0.9,0.5,1.4,1.4,1.4C146.2,50.2,146.4,50.1,146.9,50z M157,50v1.1c-0.6,0.1-0.9,0.1-1.3,0.1
					c-1.7,0-2.5-0.9-2.5-2.7v-5.3h-1.6v-1.1h1.6l0.1-2.2l1.3-0.1v2.3h2v1.1h-2v5.6c0,0.9,0.5,1.4,1.4,1.4
					C156.2,50.2,156.5,50.1,157,50z M165.4,51H164v-5.4c0-0.9,0-1.2-0.2-1.6c-0.2-0.6-0.9-1-1.5-1c-0.6,0-1.3,0.3-1.7,0.8
					c-0.5,0.6-0.7,1.3-0.7,2.3V51h-1.4V39h1.4v4.8c0.7-1.3,1.5-1.9,2.7-1.9c1,0,1.8,0.4,2.3,1.2c0.4,0.6,0.5,1.1,0.5,2.6V51z
					 M174,48.4l1.3,0.3c-0.6,1.6-2,2.6-3.8,2.6c-2.4,0-4.1-1.9-4.1-4.6c0-2.8,1.7-4.7,4.1-4.7c1.5,0,2.7,0.8,3.3,2.1
					c0.4,0.8,0.5,1.5,0.5,2.7H169c0,1,0.1,1.5,0.4,2.1c0.4,0.8,1.3,1.3,2.3,1.3c0.7,0,1.4-0.3,1.9-0.8
					C173.6,49.1,173.8,48.8,174,48.4z M169,45.7h4.9c0-0.8-0.1-1.2-0.5-1.8c-0.5-0.6-1-0.9-1.8-0.9c-0.8,0-1.4,0.3-1.9,0.9
					C169.3,44.4,169.1,44.8,169,45.7z M189,51h-1.3v-5.7c0-1.4-0.6-2.2-1.8-2.2c-1.4,0-2.5,1.3-2.5,3V51H182v-8.9h1.3v1.6
					c0.9-1.4,1.6-1.9,2.8-1.9c1.1,0,2.1,0.6,2.6,1.5c0.2,0.5,0.3,1.1,0.3,2.4V51z M197.6,48.4l1.3,0.3c-0.6,1.6-2,2.6-3.8,2.6
					c-2.4,0-4.1-1.9-4.1-4.6c0-2.8,1.7-4.7,4.1-4.7c1.5,0,2.7,0.8,3.3,2.1c0.4,0.8,0.5,1.5,0.5,2.7h-6.5c0,1,0.1,1.5,0.4,2.1
					c0.4,0.8,1.3,1.3,2.3,1.3c0.7,0,1.4-0.3,1.9-0.8C197.3,49.1,197.4,48.8,197.6,48.4z M192.6,45.7h4.9c0-0.8-0.1-1.2-0.5-1.8
					c-0.4-0.6-1-0.9-1.8-0.9c-0.8,0-1.4,0.3-1.9,0.9C192.9,44.4,192.7,44.8,192.6,45.7z M207,51h-1.6l-2.2-3.6l-2.3,3.6h-1.4l3-4.6
					l-2.7-4.3h1.6l1.9,3l1.9-3h1.3l-2.6,4L207,51z M212.4,50v1.1c-0.6,0.1-0.9,0.1-1.3,0.1c-1.7,0-2.5-0.9-2.5-2.7v-5.3H207v-1.1
					h1.6l0.1-2.2l1.3-0.1v2.3h2v1.1h-2v5.6c0,0.9,0.5,1.4,1.4,1.4C211.7,50.2,212,50.1,212.4,50z M228.7,42.1l-2.6,8.9H225l-2-6.6
					l-1.8,6.6h-1.1l-2.7-8.9h1.4l1.9,6.6l1.9-6.6h1l2,6.6l2-6.6H228.7z M237.2,51h-1.4c-0.1-0.4-0.1-0.6-0.2-1.6
					c-0.7,1.3-1.6,1.8-3.1,1.8c-1.8,0-3.1-1.1-3.1-2.7c0-1,0.6-2,1.5-2.4c0.8-0.4,2-0.6,3.6-0.6c0.3,0,0.6,0,1.2,0v-0.3
					c0-1.7-0.6-2.3-2.3-2.3c-1.3,0-2.1,0.6-2.4,1.6l-1.3-0.2c0.1-0.7,0.3-1,0.7-1.4c0.7-0.7,1.8-1.1,3.3-1.1c1.3,0,2.2,0.3,2.8,1
					c0.4,0.6,0.6,1.3,0.6,2.6v3.8C237,49.9,237,50.5,237.2,51z M235.7,46.6c-0.5,0-1,0-1.2,0c-2.3,0-3.6,0.7-3.6,2.1
					c0,1,0.7,1.6,1.9,1.6c1.6,0,2.9-1.3,2.9-3C235.7,47,235.7,46.8,235.7,46.6z M245.8,42.1l-3.1,8.9h-1.4l-3.2-8.9h1.5l2.5,7.2
					l2.4-7.2H245.8z M253,48.4l1.3,0.3c-0.6,1.6-2,2.6-3.8,2.6c-2.4,0-4.1-1.9-4.1-4.6c0-2.8,1.7-4.7,4.1-4.7c1.5,0,2.7,0.8,3.3,2.1
					c0.4,0.8,0.5,1.5,0.5,2.7H248c0,1,0.1,1.5,0.4,2.1c0.4,0.8,1.3,1.3,2.3,1.3c0.7,0,1.4-0.3,1.9-0.8
					C252.7,49.1,252.8,48.8,253,48.4z M248.1,45.7h4.9c0-0.8-0.1-1.2-0.5-1.8c-0.4-0.6-1-0.9-1.8-0.9c-0.8,0-1.4,0.3-1.9,0.9
					C248.3,44.4,248.2,44.8,248.1,45.7z M264.3,41.9c2.4,0,4,1.9,4,4.8c0,2.7-1.7,4.6-4.1,4.6c-2.3,0-3.9-1.9-3.9-4.7
					C260.3,43.8,262,41.9,264.3,41.9z M264.3,43c-0.7,0-1.4,0.4-1.8,1c-0.4,0.6-0.6,1.4-0.6,2.5c0,2.3,0.9,3.6,2.5,3.6
					c1.5,0,2.5-1.3,2.5-3.5c0-1.2-0.2-2-0.6-2.6C265.7,43.4,265,43,264.3,43z M274,42.1v1.1h-2.2V51h-1.3v-7.8H269v-1.1h1.6
					c0-1.1,0.1-1.5,0.3-2c0.3-0.9,1.2-1.4,2.4-1.4c0.4,0,0.7,0,1.3,0.1V40c-0.4-0.1-0.6-0.1-0.8-0.1c-0.9,0-1.5,0.3-1.7,0.8
					c-0.2,0.4-0.2,0.5-0.2,1.4H274z M279.1,48.7l1.3-0.3c0.1,0.5,0.3,0.8,0.6,1c0.5,0.4,1.4,0.7,2.2,0.7c1.2,0,2.1-0.6,2.1-1.4
					c0-0.7-0.5-1.2-1.5-1.4l-1.9-0.3c-1.5-0.3-2.4-1.2-2.4-2.4c0-1.6,1.3-2.6,3.3-2.6c1.9,0,3.1,0.8,3.5,2.2l-1.3,0.3
					c-0.4-1-1.1-1.4-2.3-1.4c-1.2,0-1.9,0.5-1.9,1.3c0,0.7,0.5,1.1,1.4,1.2l1.7,0.3c1.8,0.3,2.7,1.2,2.7,2.6c0,1.6-1.5,2.7-3.7,2.7
					c-1.3,0-2.3-0.3-3-1C279.5,49.8,279.3,49.5,279.1,48.7z M294.5,48.4l1.3,0.3c-0.6,1.6-2,2.6-3.8,2.6c-2.4,0-4.1-1.9-4.1-4.6
					c0-2.8,1.7-4.7,4.1-4.7c1.5,0,2.7,0.8,3.3,2.1c0.4,0.8,0.5,1.5,0.5,2.7h-6.5c0,1,0.1,1.5,0.4,2.1c0.4,0.8,1.3,1.3,2.3,1.3
					c0.7,0,1.4-0.3,1.9-0.8C294.1,49.1,294.3,48.8,294.5,48.4z M289.5,45.7h4.9c0-0.8-0.1-1.2-0.5-1.8c-0.4-0.6-1-0.9-1.8-0.9
					c-0.8,0-1.4,0.3-1.9,0.9C289.8,44.4,289.6,44.8,289.5,45.7z M299.2,51h-1.4V39h1.4V51z M305.6,42.1v1.1h-2.2V51h-1.3v-7.8h-1.6
					v-1.1h1.6c0-1.1,0.1-1.5,0.3-2c0.3-0.9,1.2-1.4,2.4-1.4c0.4,0,0.7,0,1.3,0.1V40c-0.4-0.1-0.6-0.1-0.8-0.1
					c-0.9,0-1.5,0.3-1.7,0.8c-0.2,0.4-0.2,0.5-0.2,1.4H305.6z M310,46V47h-4V46H310z M317.5,48.4l1.3,0.3c-0.6,1.6-2,2.6-3.8,2.6
					c-2.4,0-4.1-1.9-4.1-4.6c0-2.8,1.7-4.7,4.1-4.7c1.5,0,2.7,0.8,3.3,2.1c0.4,0.8,0.5,1.5,0.5,2.7h-6.5c0,1,0.1,1.5,0.4,2.1
					c0.4,0.8,1.3,1.3,2.3,1.3c0.7,0,1.4-0.3,1.9-0.8C317.1,49.1,317.3,48.8,317.5,48.4z M312.5,45.7h4.9c0-0.8-0.1-1.2-0.5-1.8
					c-0.4-0.6-1-0.9-1.8-0.9c-0.8,0-1.4,0.3-1.9,0.9C312.7,44.4,312.6,44.8,312.5,45.7z M332.9,51h-1.4v-5.5c0-1-0.1-1.2-0.3-1.6
					c-0.3-0.5-0.9-0.8-1.4-0.8c-0.6,0-1.1,0.3-1.6,0.8c-0.5,0.6-0.7,1.2-0.7,2.1v5h-1.3v-5.8c0-0.7-0.1-1.1-0.4-1.5
					c-0.3-0.4-0.8-0.6-1.3-0.6c-1.2,0-2.2,1.2-2.2,2.7V51H321v-8.9h1.2v1.7c0.6-1.3,1.6-1.9,2.7-1.9c1.2,0,2.1,0.8,2.5,2.1
					c0.6-1.4,1.6-2.1,2.8-2.1c0.9,0,1.8,0.5,2.3,1.3c0.3,0.5,0.4,1.1,0.4,2.3V51z M336.8,54h-1.4V42.1h1.2v1.7c0.7-1.4,1.5-2,2.8-2
					c2.1,0,3.5,1.9,3.5,4.7c0,2.8-1.4,4.7-3.5,4.7c-1.2,0-1.9-0.4-2.6-1.6V54z M336.8,45.3v2.5c0.2,1.3,1.2,2.3,2.4,2.3
					c0.6,0,1.3-0.3,1.6-0.8c0.4-0.6,0.7-1.4,0.7-2.6c0-2.2-0.9-3.5-2.3-3.5C338,43.1,337.1,43.9,336.8,45.3z M346.4,51H345V39h1.4
					V51z M352.5,41.9c2.4,0,4,1.9,4,4.8c0,2.7-1.7,4.6-4.1,4.6c-2.3,0-3.9-1.9-3.9-4.7C348.4,43.8,350.1,41.9,352.5,41.9z M352.4,43
					c-0.7,0-1.4,0.4-1.8,1c-0.4,0.6-0.6,1.4-0.6,2.5c0,2.3,0.9,3.6,2.5,3.6c1.5,0,2.5-1.3,2.5-3.5c0-1.2-0.2-2-0.6-2.6
					C353.8,43.4,353.1,43,352.4,43z M364.2,42.1l-3.6,9.9c-0.3,0.8-0.7,1.4-1.2,1.8c-0.3,0.2-0.8,0.3-1.4,0.3c-0.4,0-0.6,0-1-0.1
					v-1.1c0.4,0.1,0.6,0.1,0.9,0.1c0.6,0,1.1-0.2,1.4-0.8c0.2-0.3,0.3-0.7,0.6-1.5l-3.1-8.7h1.4l2.4,6.7l2.4-6.7H364.2z M371.2,48.4
					l1.3,0.3c-0.6,1.6-2,2.6-3.8,2.6c-2.4,0-4.1-1.9-4.1-4.6c0-2.8,1.7-4.7,4.1-4.7c1.5,0,2.7,0.8,3.3,2.1c0.4,0.8,0.5,1.5,0.5,2.7
					h-6.5c0,1,0.1,1.5,0.4,2.1c0.4,0.8,1.3,1.3,2.3,1.3c0.7,0,1.4-0.3,1.9-0.8C370.9,49.1,371,48.8,371.2,48.4z M366.2,45.7h4.9
					c0-0.8-0.1-1.2-0.5-1.8c-0.5-0.6-1-0.9-1.8-0.9c-0.8,0-1.4,0.3-1.9,0.9C366.5,44.4,366.3,44.8,366.2,45.7z M381.6,39v12h-1.3
					v-1.5c-0.7,1.3-1.5,1.8-2.8,1.8c-2.1,0-3.6-1.9-3.6-4.6c0-2.8,1.5-4.8,3.6-4.8c1.1,0,1.8,0.4,2.6,1.4V39H381.6z M380.2,47.4
					v-1.9c-0.1-0.8-0.2-1.2-0.5-1.6c-0.4-0.6-1.2-0.9-1.9-0.9c-1.4,0-2.3,1.4-2.3,3.5c0,2.3,0.8,3.7,2.3,3.7c0.7,0,1.3-0.3,1.8-0.9
					C380,48.7,380.2,48.3,380.2,47.4z M225.7,80h-1.4V68.1h1.2v1.7c0.7-1.4,1.5-2,2.8-2c2.1,0,3.5,1.9,3.5,4.7
					c0,2.8-1.4,4.7-3.5,4.7c-1.2,0-1.9-0.4-2.6-1.6V80z M225.7,71.3v2.5c0.2,1.3,1.2,2.3,2.4,2.3c0.6,0,1.3-0.3,1.6-0.8
					c0.4-0.6,0.7-1.4,0.7-2.6c0-2.2-0.9-3.5-2.3-3.5C227,69.1,226.1,69.9,225.7,71.3z M235.3,77h-1.4v-8.9h1.2v2.1
					c0.4-0.9,0.6-1.2,0.9-1.5c0.4-0.5,1.1-0.8,1.7-0.8c0.1,0,0.3,0,0.5,0v1.3c-1.7-0.1-3,1.2-3,3.1V77z M242.9,67.9
					c2.4,0,4,1.9,4,4.8c0,2.7-1.7,4.6-4.1,4.6c-2.3,0-3.9-1.9-3.9-4.7C238.9,69.8,240.5,67.9,242.9,67.9z M242.9,69
					c-0.7,0-1.4,0.4-1.8,1c-0.4,0.6-0.6,1.4-0.6,2.5c0,2.3,0.9,3.6,2.5,3.6c1.5,0,2.5-1.3,2.5-3.5c0-1.2-0.2-2-0.6-2.6
					C244.3,69.4,243.6,69,242.9,69z M252.6,68.1v1.1h-2.2V77h-1.3v-7.8h-1.6v-1.1h1.6c0-1.1,0.1-1.5,0.3-2c0.3-0.9,1.2-1.4,2.4-1.4
					c0.4,0,0.7,0,1.3,0.1V66c-0.4-0.1-0.6-0.1-0.8-0.1c-0.9,0-1.5,0.3-1.7,0.8c-0.2,0.4-0.2,0.4-0.2,1.4H252.6z M259.8,74.4l1.3,0.3
					c-0.6,1.6-2,2.6-3.8,2.6c-2.4,0-4.1-1.9-4.1-4.6c0-2.8,1.7-4.7,4.1-4.7c1.5,0,2.7,0.8,3.3,2.1c0.4,0.8,0.5,1.5,0.5,2.7h-6.5
					c0,1,0.1,1.5,0.4,2.1c0.4,0.8,1.3,1.3,2.3,1.3c0.7,0,1.4-0.3,1.9-0.8C259.5,75.1,259.6,74.8,259.8,74.4z M254.9,71.7h4.9
					c0-0.8-0.1-1.2-0.5-1.8c-0.5-0.6-1-0.9-1.8-0.9c-0.8,0-1.4,0.3-1.9,0.9C255.1,70.4,255,70.8,254.9,71.7z M262.3,74.7l1.3-0.3
					c0.1,0.5,0.3,0.8,0.6,1c0.5,0.4,1.4,0.7,2.2,0.7c1.2,0,2.1-0.6,2.1-1.4c0-0.7-0.5-1.2-1.5-1.4l-1.9-0.3
					c-1.5-0.3-2.4-1.2-2.4-2.4c0-1.6,1.3-2.6,3.3-2.6c1.9,0,3.1,0.8,3.5,2.2l-1.3,0.3c-0.4-1-1.1-1.4-2.3-1.4
					c-1.2,0-1.9,0.5-1.9,1.3c0,0.7,0.5,1.1,1.4,1.2l1.7,0.3c1.8,0.3,2.7,1.2,2.7,2.6c0,1.6-1.5,2.7-3.7,2.7c-1.3,0-2.3-0.3-3-1
					C262.7,75.8,262.5,75.5,262.3,74.7z M270.9,74.7l1.3-0.3c0.1,0.5,0.3,0.8,0.6,1c0.5,0.4,1.3,0.7,2.2,0.7c1.2,0,2.1-0.6,2.1-1.4
					c0-0.7-0.5-1.2-1.5-1.4l-1.9-0.3c-1.5-0.3-2.4-1.2-2.4-2.4c0-1.6,1.3-2.6,3.3-2.6c1.9,0,3.1,0.8,3.5,2.2l-1.3,0.3
					c-0.4-1-1.1-1.4-2.3-1.4c-1.2,0-1.9,0.5-1.9,1.3c0,0.7,0.4,1.1,1.4,1.2l1.7,0.3c1.8,0.3,2.7,1.2,2.7,2.6c0,1.6-1.5,2.7-3.7,2.7
					c-1.3,0-2.3-0.3-3-1C271.3,75.8,271.1,75.5,270.9,74.7z M281.8,68.1V77h-1.4v-8.9H281.8z M281.9,65v1.5h-1.5V65H281.9z
					 M287.9,67.9c2.4,0,4,1.9,4,4.8c0,2.7-1.7,4.6-4.1,4.6c-2.3,0-3.9-1.9-3.9-4.7C283.9,69.8,285.5,67.9,287.9,67.9z M287.8,69
					c-0.7,0-1.4,0.4-1.8,1c-0.4,0.6-0.6,1.4-0.6,2.5c0,2.3,0.9,3.6,2.5,3.6c1.5,0,2.5-1.3,2.5-3.5c0-1.2-0.2-2-0.6-2.6
					C289.3,69.4,288.6,69,287.8,69z M300.9,77h-1.3v-5.7c0-1.4-0.6-2.2-1.8-2.2c-1.4,0-2.5,1.3-2.5,3V77h-1.4v-8.9h1.3v1.6
					c0.9-1.4,1.6-1.9,2.8-1.9c1.1,0,2.1,0.6,2.6,1.5c0.2,0.4,0.3,1.1,0.3,2.4V77z M310.6,77h-1.4c-0.1-0.4-0.1-0.6-0.2-1.6
					c-0.7,1.3-1.6,1.8-3.1,1.8c-1.8,0-3.1-1.1-3.1-2.7c0-1,0.6-2,1.5-2.4c0.8-0.4,2-0.6,3.6-0.6c0.3,0,0.6,0,1.2,0v-0.3
					c0-1.7-0.6-2.3-2.3-2.3c-1.3,0-2.1,0.6-2.4,1.6l-1.3-0.2c0.1-0.7,0.3-1,0.7-1.4c0.7-0.7,1.8-1.1,3.3-1.1c1.3,0,2.2,0.3,2.8,1
					c0.4,0.6,0.6,1.3,0.6,2.6v3.8C310.4,75.9,310.5,76.5,310.6,77z M309.1,72.6c-0.5,0-1,0-1.2,0c-2.3,0-3.6,0.7-3.6,2.1
					c0,1,0.7,1.6,1.9,1.6c1.6,0,2.9-1.3,2.9-3C309.1,73,309.1,72.8,309.1,72.6z M314.6,77h-1.4V65h1.4V77z M316.1,74.7l1.3-0.3
					c0.1,0.5,0.3,0.8,0.6,1c0.5,0.4,1.4,0.7,2.2,0.7c1.2,0,2.1-0.6,2.1-1.4c0-0.7-0.5-1.2-1.5-1.4l-1.9-0.3
					c-1.5-0.3-2.4-1.2-2.4-2.4c0-1.6,1.3-2.6,3.3-2.6c1.9,0,3.1,0.8,3.5,2.2l-1.3,0.3c-0.4-1-1.1-1.4-2.3-1.4
					c-1.2,0-1.9,0.5-1.9,1.3c0,0.7,0.4,1.1,1.4,1.2l1.7,0.3c1.8,0.3,2.7,1.2,2.7,2.6c0,1.6-1.5,2.7-3.7,2.7c-1.3,0-2.3-0.3-3-1
					C316.6,75.8,316.3,75.5,316.1,74.7z M336,74.4l1.3,0.3c-0.6,1.6-2,2.6-3.8,2.6c-2.4,0-4.1-1.9-4.1-4.6c0-2.8,1.7-4.7,4.1-4.7
					c1.5,0,2.7,0.8,3.3,2.1c0.4,0.8,0.5,1.5,0.5,2.7H331c0,1,0.1,1.5,0.4,2.1c0.4,0.8,1.3,1.3,2.3,1.3c0.7,0,1.4-0.3,1.9-0.8
					C335.7,75.1,335.8,74.8,336,74.4z M331.1,71.7h4.9c0-0.8-0.1-1.2-0.5-1.8c-0.5-0.6-1-0.9-1.8-0.9c-0.8,0-1.4,0.3-1.9,0.9
					C331.3,70.4,331.2,70.8,331.1,71.7z M345.4,77h-1.6l-2.2-3.6l-2.3,3.6h-1.4l3-4.6l-2.7-4.3h1.6l1.9,3l1.9-3h1.3l-2.6,4L345.4,77
					z M348.3,80h-1.4V68.1h1.2v1.7c0.7-1.4,1.5-2,2.8-2c2.1,0,3.5,1.9,3.5,4.7c0,2.8-1.4,4.7-3.5,4.7c-1.2,0-1.9-0.4-2.6-1.6V80z
					 M348.3,71.3v2.5c0.2,1.3,1.2,2.3,2.4,2.3c0.6,0,1.3-0.3,1.6-0.8c0.4-0.6,0.7-1.4,0.7-2.6c0-2.2-0.9-3.5-2.3-3.5
					C349.5,69.1,348.6,69.9,348.3,71.3z M362.3,74.4l1.3,0.3c-0.6,1.6-2,2.6-3.8,2.6c-2.4,0-4.1-1.9-4.1-4.6c0-2.8,1.7-4.7,4.1-4.7
					c1.5,0,2.7,0.8,3.3,2.1c0.4,0.8,0.5,1.5,0.5,2.7h-6.5c0,1,0.1,1.5,0.4,2.1c0.4,0.8,1.3,1.3,2.3,1.3c0.7,0,1.4-0.3,1.9-0.8
					C362,75.1,362.1,74.8,362.3,74.4z M357.4,71.7h4.9c0-0.8-0.1-1.2-0.5-1.8c-0.5-0.6-1-0.9-1.8-0.9c-0.8,0-1.4,0.3-1.9,0.9
					C357.6,70.4,357.5,70.8,357.4,71.7z M371.1,73.9l1.2,0.2c-0.2,1.1-0.5,1.6-1,2.2c-0.6,0.6-1.4,1-2.4,1c-2.3,0-3.7-1.8-3.7-4.7
					c0-2.8,1.5-4.7,3.8-4.7c1.8,0,3,1.1,3.4,3.1l-1.2,0.2c-0.1-0.7-0.2-1-0.5-1.3c-0.4-0.5-1-0.8-1.7-0.8c-1.5,0-2.4,1.3-2.4,3.5
					c0,2.2,0.9,3.6,2.3,3.6C370,76.1,370.8,75.3,371.1,73.9z M378.4,76v1.1c-0.6,0.1-0.9,0.1-1.3,0.1c-1.7,0-2.5-0.9-2.5-2.7v-5.3
					h-1.6v-1.1h1.6l0.1-2.2l1.3-0.1v2.3h2v1.1h-2v5.6c0,0.9,0.5,1.4,1.4,1.4C377.6,76.2,377.9,76.1,378.4,76z M381.7,75v2h-2v-2
					H381.7z"/>
				<path class="st2" d="M546.4,39l-2.9,12H542l-2.6-9.3l-2.4,9.3h-1.5l-3-12h1.5l2.4,9.7l2.6-9.7h1.2l2.8,9.7L545,39H546.4z
					 M554.9,51h-1.4v-5.4c0-0.9,0-1.2-0.2-1.6c-0.2-0.6-0.9-1-1.5-1c-0.6,0-1.3,0.3-1.7,0.8c-0.5,0.6-0.7,1.3-0.7,2.3V51h-1.4V39
					h1.4v4.8c0.7-1.3,1.5-1.9,2.7-1.9c1,0,1.8,0.4,2.3,1.2c0.5,0.6,0.5,1.1,0.5,2.6V51z M564.6,51h-1.4c-0.1-0.4-0.1-0.6-0.2-1.6
					c-0.7,1.3-1.6,1.8-3.1,1.8c-1.8,0-3.1-1.1-3.1-2.7c0-1,0.6-2,1.5-2.4c0.8-0.4,2-0.6,3.6-0.6c0.3,0,0.6,0,1.2,0v-0.3
					c0-1.7-0.6-2.3-2.3-2.3c-1.3,0-2.1,0.6-2.4,1.6l-1.3-0.2c0.1-0.7,0.3-1,0.7-1.4c0.7-0.7,1.8-1.1,3.3-1.1c1.3,0,2.2,0.3,2.8,1
					c0.4,0.6,0.6,1.3,0.6,2.6v3.8C564.4,49.9,564.5,50.5,564.6,51z M563.1,46.6c-0.5,0-1,0-1.2,0c-2.3,0-3.6,0.7-3.6,2.1
					c0,1,0.7,1.6,1.9,1.6c1.6,0,2.9-1.3,2.9-3C563.1,47,563.1,46.8,563.1,46.6z M571,50v1.1c-0.6,0.1-0.9,0.1-1.3,0.1
					c-1.7,0-2.5-0.9-2.5-2.7v-5.3h-1.6v-1.1h1.6l0.1-2.2l1.3-0.1v2.3h2v1.1h-2v5.6c0,0.9,0.5,1.4,1.4,1.4
					C570.2,50.2,570.5,50.1,571,50z M581,50v1.1c-0.6,0.1-0.9,0.1-1.3,0.1c-1.7,0-2.5-0.9-2.5-2.7v-5.3h-1.6v-1.1h1.6l0.1-2.2
					l1.3-0.1v2.3h2v1.1h-2v5.6c0,0.9,0.5,1.4,1.4,1.4C580.3,50.2,580.5,50.1,581,50z M585.6,41.9c2.4,0,4,1.9,4,4.8
					c0,2.7-1.7,4.6-4.1,4.6c-2.3,0-3.9-1.9-3.9-4.7C581.6,43.8,583.2,41.9,585.6,41.9z M585.5,43c-0.7,0-1.4,0.4-1.8,1
					c-0.4,0.6-0.6,1.4-0.6,2.5c0,2.3,0.9,3.6,2.5,3.6c1.5,0,2.5-1.3,2.5-3.5c0-1.2-0.2-2-0.6-2.6C587,43.4,586.3,43,585.5,43z
					 M598.5,39v12h-1.3v-1.5c-0.7,1.3-1.5,1.8-2.8,1.8c-2.1,0-3.6-1.9-3.6-4.6c0-2.8,1.5-4.8,3.6-4.8c1.1,0,1.8,0.4,2.6,1.4V39
					H598.5z M597.1,47.4v-1.9c-0.1-0.8-0.2-1.2-0.5-1.6c-0.4-0.6-1.2-0.9-1.9-0.9c-1.4,0-2.3,1.4-2.3,3.5c0,2.3,0.8,3.7,2.3,3.7
					c0.7,0,1.3-0.3,1.8-0.9C596.9,48.7,597.1,48.3,597.1,47.4z M608.1,51h-1.4c-0.1-0.4-0.1-0.6-0.2-1.6c-0.7,1.3-1.6,1.8-3.1,1.8
					c-1.8,0-3.1-1.1-3.1-2.7c0-1,0.6-2,1.5-2.4c0.8-0.4,2-0.6,3.6-0.6c0.3,0,0.6,0,1.2,0v-0.3c0-1.7-0.6-2.3-2.3-2.3
					c-1.3,0-2.1,0.6-2.4,1.6l-1.3-0.2c0.1-0.7,0.3-1,0.7-1.4c0.7-0.7,1.8-1.1,3.3-1.1c1.3,0,2.2,0.3,2.8,1c0.4,0.6,0.6,1.3,0.6,2.6
					v3.8C607.9,49.9,608,50.5,608.1,51z M606.6,46.6c-0.5,0-1,0-1.2,0c-2.3,0-3.6,0.7-3.6,2.1c0,1,0.7,1.6,1.9,1.6
					c1.6,0,2.9-1.3,2.9-3C606.6,47,606.6,46.8,606.6,46.6z M616.4,42.1l-3.6,9.9c-0.3,0.8-0.7,1.4-1.2,1.8c-0.3,0.2-0.8,0.3-1.4,0.3
					c-0.4,0-0.6,0-1-0.1v-1.1c0.4,0.1,0.6,0.1,0.9,0.1c0.6,0,1.1-0.2,1.4-0.8c0.2-0.3,0.3-0.7,0.6-1.5l-3.1-8.7h1.4l2.4,6.7l2.4-6.7
					H616.4z M618.7,43.6h-0.9l-0.3-4.6h1.4L618.7,43.6z M620.1,48.7l1.3-0.3c0.1,0.5,0.3,0.8,0.6,1c0.5,0.4,1.3,0.7,2.2,0.7
					c1.2,0,2.1-0.6,2.1-1.4c0-0.7-0.5-1.2-1.5-1.4l-1.9-0.3c-1.5-0.3-2.4-1.2-2.4-2.4c0-1.6,1.3-2.6,3.3-2.6c1.9,0,3.1,0.8,3.5,2.2
					l-1.3,0.3c-0.4-1-1.1-1.4-2.3-1.4c-1.2,0-1.9,0.5-1.9,1.3c0,0.7,0.4,1.1,1.4,1.2l1.7,0.3c1.8,0.3,2.7,1.2,2.7,2.6
					c0,1.6-1.5,2.7-3.7,2.7c-1.3,0-2.3-0.3-3-1C620.6,49.8,620.3,49.5,620.1,48.7z M633,48.7l1.3-0.3c0.1,0.5,0.3,0.8,0.6,1
					c0.5,0.4,1.4,0.7,2.2,0.7c1.2,0,2.1-0.6,2.1-1.4c0-0.7-0.5-1.2-1.5-1.4l-1.9-0.3c-1.5-0.3-2.4-1.2-2.4-2.4
					c0-1.6,1.3-2.6,3.3-2.6c1.9,0,3.1,0.8,3.5,2.2l-1.3,0.3c-0.4-1-1.1-1.4-2.3-1.4c-1.2,0-1.9,0.5-1.9,1.3c0,0.7,0.5,1.1,1.4,1.2
					l1.7,0.3c1.8,0.3,2.7,1.2,2.7,2.6c0,1.6-1.5,2.7-3.7,2.7c-1.3,0-2.3-0.3-3-1C633.4,49.8,633.2,49.5,633,48.7z M648.4,48.4
					l1.3,0.3c-0.6,1.6-2,2.6-3.8,2.6c-2.4,0-4.1-1.9-4.1-4.6c0-2.8,1.7-4.7,4.1-4.7c1.5,0,2.7,0.8,3.3,2.1c0.4,0.8,0.5,1.5,0.5,2.7
					h-6.5c0,1,0.1,1.5,0.4,2.1c0.4,0.8,1.3,1.3,2.3,1.3c0.7,0,1.4-0.3,1.9-0.8C648,49.1,648.2,48.8,648.4,48.4z M643.4,45.7h4.9
					c0-0.8-0.1-1.2-0.5-1.8c-0.5-0.6-1-0.9-1.8-0.9c-0.8,0-1.4,0.3-1.9,0.9C643.7,44.4,643.5,44.8,643.4,45.7z M653.1,51h-1.4V39
					h1.4V51z M659.5,42.1v1.1h-2.2V51h-1.3v-7.8h-1.6v-1.1h1.6c0-1.1,0.1-1.5,0.3-2c0.3-0.9,1.2-1.4,2.4-1.4c0.4,0,0.7,0,1.3,0.1V40
					c-0.4-0.1-0.6-0.1-0.8-0.1c-0.9,0-1.5,0.3-1.7,0.8c-0.2,0.4-0.2,0.5-0.2,1.4H659.5z M663.9,46V47h-4V46H663.9z M671.4,48.4
					l1.3,0.3c-0.6,1.6-2,2.6-3.8,2.6c-2.4,0-4.1-1.9-4.1-4.6c0-2.8,1.7-4.7,4.1-4.7c1.5,0,2.7,0.8,3.3,2.1c0.4,0.8,0.5,1.5,0.5,2.7
					h-6.5c0,1,0.1,1.5,0.4,2.1c0.4,0.8,1.3,1.3,2.3,1.3c0.7,0,1.4-0.3,1.9-0.8C671,49.1,671.2,48.8,671.4,48.4z M666.4,45.7h4.9
					c0-0.8-0.1-1.2-0.5-1.8c-0.5-0.6-1-0.9-1.8-0.9c-0.8,0-1.4,0.3-1.9,0.9C666.6,44.4,666.5,44.8,666.4,45.7z M686.8,51h-1.3v-5.5
					c0-1-0.1-1.2-0.3-1.6c-0.3-0.5-0.9-0.8-1.4-0.8c-0.6,0-1.1,0.3-1.6,0.8c-0.5,0.6-0.7,1.2-0.7,2.1v5h-1.3v-5.8
					c0-0.7-0.1-1.1-0.4-1.5c-0.3-0.4-0.8-0.6-1.3-0.6c-1.2,0-2.2,1.2-2.2,2.7V51h-1.3v-8.9h1.2v1.7c0.6-1.3,1.6-1.9,2.7-1.9
					c1.2,0,2.1,0.8,2.5,2.1c0.6-1.4,1.6-2.1,2.8-2.1c0.9,0,1.8,0.5,2.3,1.3c0.3,0.5,0.4,1.1,0.4,2.3V51z M690.7,54h-1.4V42.1h1.2
					v1.7c0.7-1.4,1.5-2,2.8-2c2.1,0,3.5,1.9,3.5,4.7c0,2.8-1.4,4.7-3.5,4.7c-1.2,0-1.9-0.4-2.6-1.6V54z M690.7,45.3v2.5
					c0.2,1.3,1.2,2.3,2.4,2.3c0.6,0,1.3-0.3,1.6-0.8c0.5-0.6,0.7-1.4,0.7-2.6c0-2.2-0.9-3.5-2.3-3.5C691.9,43.1,691,43.9,690.7,45.3
					z M700.3,51h-1.4V39h1.4V51z M706.3,41.9c2.4,0,4,1.9,4,4.8c0,2.7-1.7,4.6-4.1,4.6c-2.3,0-3.9-1.9-3.9-4.7
					C702.3,43.8,704,41.9,706.3,41.9z M706.3,43c-0.7,0-1.4,0.4-1.8,1c-0.4,0.6-0.6,1.4-0.6,2.5c0,2.3,0.9,3.6,2.5,3.6
					c1.5,0,2.5-1.3,2.5-3.5c0-1.2-0.2-2-0.6-2.6C707.7,43.4,707,43,706.3,43z M718.1,42.1l-3.6,9.9c-0.3,0.8-0.7,1.4-1.2,1.8
					c-0.3,0.2-0.8,0.3-1.4,0.3c-0.4,0-0.6,0-1-0.1v-1.1c0.4,0.1,0.6,0.1,0.9,0.1c0.6,0,1.1-0.2,1.4-0.8c0.2-0.3,0.3-0.7,0.6-1.5
					l-3.1-8.7h1.4l2.4,6.7l2.4-6.7H718.1z M725.1,48.4l1.3,0.3c-0.6,1.6-2,2.6-3.8,2.6c-2.4,0-4.1-1.9-4.1-4.6
					c0-2.8,1.7-4.7,4.1-4.7c1.5,0,2.7,0.8,3.3,2.1c0.4,0.8,0.5,1.5,0.5,2.7h-6.5c0,1,0.1,1.5,0.4,2.1c0.4,0.8,1.3,1.3,2.3,1.3
					c0.7,0,1.4-0.3,1.9-0.8C724.7,49.1,724.9,48.8,725.1,48.4z M720.1,45.7h4.9c0-0.8-0.1-1.2-0.5-1.8c-0.5-0.6-1-0.9-1.8-0.9
					c-0.8,0-1.4,0.3-1.9,0.9C720.4,44.4,720.2,44.8,720.1,45.7z M735.5,39v12h-1.3v-1.5c-0.7,1.3-1.5,1.8-2.8,1.8
					c-2.1,0-3.6-1.9-3.6-4.6c0-2.8,1.5-4.8,3.6-4.8c1.1,0,1.8,0.4,2.6,1.4V39H735.5z M734.1,47.4v-1.9c-0.1-0.8-0.2-1.2-0.5-1.6
					c-0.4-0.6-1.2-0.9-1.9-0.9c-1.4,0-2.3,1.4-2.3,3.5c0,2.3,0.8,3.7,2.3,3.7c0.7,0,1.3-0.3,1.8-0.9C733.9,48.7,734,48.3,734.1,47.4
					z M534.8,80h-1.4V68.1h1.2v1.7c0.7-1.4,1.5-2,2.8-2c2.1,0,3.5,1.9,3.5,4.7c0,2.8-1.4,4.7-3.5,4.7c-1.2,0-1.9-0.4-2.6-1.6V80z
					 M534.8,71.3v2.5c0.2,1.3,1.2,2.3,2.4,2.3c0.6,0,1.3-0.3,1.6-0.8c0.5-0.6,0.7-1.4,0.7-2.6c0-2.2-0.9-3.5-2.3-3.5
					C536,69.1,535.1,69.9,534.8,71.3z M544.4,77H543v-8.9h1.2v2.1c0.4-0.9,0.6-1.2,0.9-1.5c0.4-0.5,1.1-0.8,1.7-0.8
					c0.1,0,0.3,0,0.5,0v1.3c-1.7-0.1-3,1.2-3,3.1V77z M552,67.9c2.4,0,4,1.9,4,4.8c0,2.7-1.7,4.6-4.1,4.6c-2.3,0-3.9-1.9-3.9-4.7
					C548,69.8,549.6,67.9,552,67.9z M551.9,69c-0.7,0-1.4,0.4-1.8,1c-0.4,0.6-0.6,1.4-0.6,2.5c0,2.3,0.9,3.6,2.5,3.6
					c1.5,0,2.5-1.3,2.5-3.5c0-1.2-0.2-2-0.6-2.6C553.3,69.4,552.6,69,551.9,69z M561.7,68.1v1.1h-2.2V77h-1.3v-7.8h-1.6v-1.1h1.6
					c0-1.1,0.1-1.5,0.3-2c0.3-0.9,1.2-1.4,2.4-1.4c0.4,0,0.7,0,1.3,0.1V66c-0.4-0.1-0.6-0.1-0.8-0.1c-0.9,0-1.5,0.3-1.7,0.8
					c-0.2,0.4-0.2,0.4-0.2,1.4H561.7z M568.9,74.4l1.3,0.3c-0.6,1.6-2,2.6-3.8,2.6c-2.4,0-4.1-1.9-4.1-4.6c0-2.8,1.7-4.7,4.1-4.7
					c1.5,0,2.7,0.8,3.3,2.1c0.4,0.8,0.5,1.5,0.5,2.7h-6.5c0,1,0.1,1.5,0.4,2.1c0.4,0.8,1.3,1.3,2.3,1.3c0.7,0,1.4-0.3,1.9-0.8
					C568.6,75.1,568.7,74.8,568.9,74.4z M564,71.7h4.9c0-0.8-0.1-1.2-0.5-1.8c-0.4-0.6-1-0.9-1.8-0.9c-0.8,0-1.4,0.3-1.9,0.9
					C564.2,70.4,564,70.8,564,71.7z M571.3,74.7l1.3-0.3c0.1,0.5,0.3,0.8,0.6,1c0.5,0.4,1.4,0.7,2.2,0.7c1.2,0,2.1-0.6,2.1-1.4
					c0-0.7-0.5-1.2-1.5-1.4l-1.9-0.3c-1.5-0.3-2.4-1.2-2.4-2.4c0-1.6,1.3-2.6,3.3-2.6c1.9,0,3.1,0.8,3.5,2.2l-1.3,0.3
					c-0.4-1-1.1-1.4-2.3-1.4c-1.2,0-1.9,0.5-1.9,1.3c0,0.7,0.5,1.1,1.4,1.2l1.7,0.3c1.8,0.3,2.7,1.2,2.7,2.6c0,1.6-1.5,2.7-3.7,2.7
					c-1.3,0-2.3-0.3-3-1C571.8,75.8,571.5,75.5,571.3,74.7z M580,74.7l1.3-0.3c0.1,0.5,0.3,0.8,0.6,1c0.5,0.4,1.4,0.7,2.2,0.7
					c1.2,0,2.1-0.6,2.1-1.4c0-0.7-0.5-1.2-1.5-1.4l-1.9-0.3c-1.5-0.3-2.4-1.2-2.4-2.4c0-1.6,1.3-2.6,3.3-2.6c1.9,0,3.1,0.8,3.5,2.2
					l-1.3,0.3c-0.4-1-1.1-1.4-2.3-1.4c-1.2,0-1.9,0.5-1.9,1.3c0,0.7,0.5,1.1,1.4,1.2l1.7,0.3c1.8,0.3,2.7,1.2,2.7,2.6
					c0,1.6-1.5,2.7-3.7,2.7c-1.3,0-2.3-0.3-3-1C580.4,75.8,580.2,75.5,580,74.7z M590.9,68.1V77h-1.4v-8.9H590.9z M591,65v1.5h-1.5
					V65H591z M597,67.9c2.4,0,4,1.9,4,4.8c0,2.7-1.7,4.6-4.1,4.6c-2.3,0-3.9-1.9-3.9-4.7C592.9,69.8,594.6,67.9,597,67.9z M596.9,69
					c-0.7,0-1.4,0.4-1.8,1c-0.4,0.6-0.6,1.4-0.6,2.5c0,2.3,0.9,3.6,2.5,3.6c1.5,0,2.5-1.3,2.5-3.5c0-1.2-0.2-2-0.6-2.6
					C598.3,69.4,597.6,69,596.9,69z M610,77h-1.3v-5.7c0-1.4-0.6-2.2-1.8-2.2c-1.4,0-2.5,1.3-2.5,3V77H603v-8.9h1.3v1.6
					c0.9-1.4,1.6-1.9,2.8-1.9c1.1,0,2.1,0.6,2.6,1.5c0.2,0.4,0.3,1.1,0.3,2.4V77z M619.7,77h-1.4c-0.1-0.4-0.1-0.6-0.2-1.6
					c-0.7,1.3-1.6,1.8-3.1,1.8c-1.8,0-3.1-1.1-3.1-2.7c0-1,0.6-2,1.5-2.4c0.8-0.4,2-0.6,3.6-0.6c0.3,0,0.6,0,1.2,0v-0.3
					c0-1.7-0.6-2.3-2.3-2.3c-1.3,0-2.1,0.6-2.4,1.6l-1.3-0.2c0.1-0.7,0.3-1,0.7-1.4c0.7-0.7,1.8-1.1,3.3-1.1c1.3,0,2.2,0.3,2.8,1
					c0.4,0.6,0.6,1.3,0.6,2.6v3.8C619.5,75.9,619.6,76.5,619.7,77z M618.2,72.6c-0.5,0-1,0-1.2,0c-2.3,0-3.6,0.7-3.6,2.1
					c0,1,0.7,1.6,1.9,1.6c1.6,0,2.9-1.3,2.9-3C618.2,73,618.2,72.8,618.2,72.6z M623.7,77h-1.4V65h1.4V77z M625.2,74.7l1.3-0.3
					c0.1,0.5,0.3,0.8,0.6,1c0.5,0.4,1.3,0.7,2.2,0.7c1.2,0,2.1-0.6,2.1-1.4c0-0.7-0.5-1.2-1.5-1.4l-1.9-0.3
					c-1.5-0.3-2.4-1.2-2.4-2.4c0-1.6,1.3-2.6,3.3-2.6c1.9,0,3.1,0.8,3.5,2.2l-1.3,0.3c-0.4-1-1.1-1.4-2.3-1.4
					c-1.2,0-1.9,0.5-1.9,1.3c0,0.7,0.5,1.1,1.4,1.2l1.7,0.3c1.8,0.3,2.7,1.2,2.7,2.6c0,1.6-1.5,2.7-3.7,2.7c-1.3,0-2.3-0.3-3-1
					C625.7,75.8,625.4,75.5,625.2,74.7z M646.2,77h-1.4v-5.4c0-0.9,0-1.2-0.2-1.6c-0.2-0.6-0.9-1-1.5-1c-0.6,0-1.3,0.3-1.7,0.8
					c-0.5,0.6-0.7,1.3-0.7,2.3V77h-1.4V65h1.4v4.8c0.7-1.3,1.5-1.9,2.7-1.9c1,0,1.8,0.4,2.3,1.2c0.5,0.6,0.5,1.1,0.5,2.6V77z
					 M655.9,77h-1.4c-0.1-0.4-0.1-0.6-0.2-1.6c-0.7,1.3-1.6,1.8-3.1,1.8c-1.8,0-3.1-1.1-3.1-2.7c0-1,0.6-2,1.5-2.4
					c0.8-0.4,2-0.6,3.6-0.6c0.3,0,0.6,0,1.2,0v-0.3c0-1.7-0.6-2.3-2.3-2.3c-1.3,0-2.1,0.6-2.4,1.6l-1.3-0.2c0.1-0.7,0.3-1,0.7-1.4
					c0.7-0.7,1.8-1.1,3.3-1.1c1.3,0,2.2,0.3,2.8,1c0.4,0.6,0.6,1.3,0.6,2.6v3.8C655.7,75.9,655.8,76.5,655.9,77z M654.4,72.6
					c-0.5,0-1,0-1.2,0c-2.3,0-3.6,0.7-3.6,2.1c0,1,0.7,1.6,1.9,1.6c1.6,0,2.9-1.3,2.9-3C654.4,73,654.4,72.8,654.4,72.6z
					 M664.6,68.1l-3.1,8.9h-1.4l-3.2-8.9h1.5l2.5,7.2l2.4-7.2H664.6z M671.8,74.4l1.3,0.3c-0.6,1.6-2,2.6-3.8,2.6
					c-2.4,0-4.1-1.9-4.1-4.6c0-2.8,1.7-4.7,4.1-4.7c1.5,0,2.7,0.8,3.3,2.1c0.4,0.8,0.5,1.5,0.5,2.7h-6.5c0,1,0.1,1.5,0.4,2.1
					c0.4,0.8,1.3,1.3,2.3,1.3c0.7,0,1.4-0.3,1.9-0.8C671.4,75.1,671.6,74.8,671.8,74.4z M666.8,71.7h4.9c0-0.8-0.1-1.2-0.5-1.8
					c-0.4-0.6-1-0.9-1.8-0.9c-0.8,0-1.4,0.3-1.9,0.9C667.1,70.4,666.9,70.8,666.8,71.7z M685.6,74.4l1.3,0.3c-0.6,1.6-2,2.6-3.8,2.6
					c-2.4,0-4.1-1.9-4.1-4.6c0-2.8,1.7-4.7,4.1-4.7c1.5,0,2.7,0.8,3.3,2.1c0.4,0.8,0.5,1.5,0.5,2.7h-6.5c0,1,0.1,1.5,0.4,2.1
					c0.4,0.8,1.3,1.3,2.3,1.3c0.7,0,1.4-0.3,1.9-0.8C685.3,75.1,685.4,74.8,685.6,74.4z M680.7,71.7h4.9c0-0.8-0.1-1.2-0.5-1.8
					c-0.5-0.6-1-0.9-1.8-0.9c-0.8,0-1.4,0.3-1.9,0.9C680.9,70.4,680.8,70.8,680.7,71.7z M695,77h-1.6l-2.2-3.6l-2.3,3.6h-1.3l3-4.6
					l-2.7-4.3h1.6l1.9,3l1.9-3h1.3l-2.6,4L695,77z M697.9,80h-1.4V68.1h1.2v1.7c0.7-1.4,1.5-2,2.8-2c2.1,0,3.5,1.9,3.5,4.7
					c0,2.8-1.4,4.7-3.5,4.7c-1.2,0-1.9-0.4-2.6-1.6V80z M697.9,71.3v2.5c0.2,1.3,1.2,2.3,2.4,2.3c0.6,0,1.3-0.3,1.6-0.8
					c0.4-0.6,0.7-1.4,0.7-2.6c0-2.2-0.9-3.5-2.3-3.5C699.1,69.1,698.2,69.9,697.9,71.3z M711.9,74.4l1.3,0.3c-0.6,1.6-2,2.6-3.8,2.6
					c-2.4,0-4.1-1.9-4.1-4.6c0-2.8,1.7-4.7,4.1-4.7c1.5,0,2.7,0.8,3.3,2.1c0.4,0.8,0.5,1.5,0.5,2.7h-6.5c0,1,0.1,1.5,0.4,2.1
					c0.4,0.8,1.3,1.3,2.3,1.3c0.7,0,1.4-0.3,1.9-0.8C711.6,75.1,711.7,74.8,711.9,74.4z M707,71.7h4.9c0-0.8-0.1-1.2-0.5-1.8
					c-0.5-0.6-1-0.9-1.8-0.9c-0.8,0-1.4,0.3-1.9,0.9C707.2,70.4,707.1,70.8,707,71.7z M716.8,77h-1.4v-8.9h1.2v2.1
					c0.4-0.9,0.6-1.2,0.9-1.5c0.4-0.5,1.1-0.8,1.7-0.8c0.1,0,0.3,0,0.5,0v1.3c-1.7-0.1-3,1.2-3,3.1V77z M722.6,68.1V77h-1.4v-8.9
					H722.6z M722.7,65v1.5h-1.5V65H722.7z M731.2,74.4l1.3,0.3c-0.6,1.6-2,2.6-3.8,2.6c-2.4,0-4.1-1.9-4.1-4.6
					c0-2.8,1.7-4.7,4.1-4.7c1.5,0,2.7,0.8,3.3,2.1c0.4,0.8,0.5,1.5,0.5,2.7h-6.5c0,1,0.1,1.5,0.4,2.1c0.4,0.8,1.3,1.3,2.3,1.3
					c0.7,0,1.4-0.3,1.9-0.8C730.9,75.1,731,74.8,731.2,74.4z M726.3,71.7h4.9c0-0.8-0.1-1.2-0.5-1.8c-0.5-0.6-1-0.9-1.8-0.9
					c-0.8,0-1.4,0.3-1.9,0.9C726.5,70.4,726.4,70.8,726.3,71.7z M741.8,77h-1.3v-5.7c0-1.4-0.6-2.2-1.8-2.2c-1.4,0-2.5,1.3-2.5,3V77
					h-1.4v-8.9h1.3v1.6c0.9-1.4,1.6-1.9,2.8-1.9c1.1,0,2.1,0.6,2.6,1.5c0.2,0.4,0.3,1.1,0.3,2.4V77z M749.7,73.9l1.2,0.2
					c-0.2,1.1-0.5,1.6-1,2.2c-0.6,0.6-1.4,1-2.4,1c-2.3,0-3.7-1.8-3.7-4.7c0-2.8,1.5-4.7,3.8-4.7c1.8,0,3,1.1,3.4,3.1l-1.2,0.2
					c-0.1-0.7-0.2-1-0.5-1.3c-0.4-0.5-1-0.8-1.7-0.8c-1.5,0-2.4,1.3-2.4,3.5c0,2.2,0.9,3.6,2.3,3.6
					C748.7,76.1,749.5,75.3,749.7,73.9z M758.7,74.4l1.3,0.3c-0.6,1.6-2,2.6-3.8,2.6c-2.4,0-4.1-1.9-4.1-4.6c0-2.8,1.7-4.7,4.1-4.7
					c1.5,0,2.7,0.8,3.3,2.1c0.4,0.8,0.5,1.5,0.5,2.7h-6.5c0,1,0.1,1.5,0.4,2.1c0.4,0.8,1.3,1.3,2.3,1.3c0.7,0,1.4-0.3,1.9-0.8
					C758.4,75.1,758.5,74.8,758.7,74.4z M753.8,71.7h4.9c0-0.8-0.1-1.2-0.5-1.8c-0.4-0.6-1-0.9-1.8-0.9c-0.8,0-1.4,0.3-1.9,0.9
					C754,70.4,753.9,70.8,753.8,71.7z M769.2,65v12h-1.3v-1.5c-0.7,1.3-1.5,1.8-2.8,1.8c-2.1,0-3.6-1.9-3.6-4.6
					c0-2.8,1.5-4.8,3.6-4.8c1.1,0,1.8,0.4,2.6,1.4V65H769.2z M767.8,73.4v-1.9c-0.1-0.8-0.2-1.2-0.5-1.6c-0.4-0.6-1.2-0.9-1.9-0.9
					c-1.4,0-2.3,1.4-2.3,3.5c0,2.3,0.8,3.7,2.3,3.7c0.7,0,1.3-0.3,1.8-0.9C767.5,74.7,767.7,74.3,767.8,73.4z M773.6,75v2h-2v-2
					H773.6z"/>
			</g>
		</g>
	</g>
</g>
</svg>
