<?xml version="1.0" encoding="utf-8"?>
<!-- Generator: Adobe Illustrator 23.0.1, SVG Export Plug-In . SVG Version: 6.00 Build 0)  -->
<svg version="1.1" id="Layer_1" xmlns="http://www.w3.org/2000/svg" xmlns:xlink="http://www.w3.org/1999/xlink" x="0px" y="0px"
	 viewBox="0 0 620 598" style="enable-background:new 0 0 620 598;" xml:space="preserve">
<style type="text/css">
	.st0{fill-rule:evenodd;clip-rule:evenodd;fill:#0060AF;}
	.st1{fill-rule:evenodd;clip-rule:evenodd;fill:#062942;}
	.st2{fill:#062942;}
	.st3{fill:#FFFFFF;}
	.st4{fill:#0060AF;}
</style>
<title>Group 15</title>
<desc>Created with Sketch.</desc>
<g id="Hi-Fi-Design">
	<g id="Tablet" transform="translate(-78.000000, -10403.000000)">
		<g id="Group-15" transform="translate(78.000000, 10403.000000)">
			<g id="Chart-Copy" transform="translate(26.000000, 49.000000)">
				<polygon id="Fill-1" class="st0" points="328,165 517,165 517,123 328,123 				"/>
				<polygon id="Fill-2" class="st1" points="0,165 234,165 234,123 0,123 				"/>
				<polygon id="Fill-3" class="st0" points="329,217 504,217 504,175 329,175 				"/>
				<polygon id="Fill-4" class="st1" points="36,217 234,217 234,175 36,175 				"/>
				<polygon id="Fill-5" class="st0" points="329,270 553,270 553,228 329,228 				"/>
				<polygon id="Fill-6" class="st1" points="12,270 234,270 234,228 12,228 				"/>
				<polygon id="Fill-7" class="st0" points="328,322 504,322 504,280 328,280 				"/>
				<polygon id="Fill-8" class="st1" points="14,322 234,322 234,280 14,280 				"/>
				<polygon id="Fill-9" class="st0" points="328,373 491,373 491,331 328,331 				"/>
				<polygon id="Fill-10" class="st1" points="30,373 234,373 234,331 30,331 				"/>
				<polygon id="Fill-11" class="st0" points="328,426 508,426 508,384 328,384 				"/>
				<polygon id="Fill-12" class="st1" points="24,426 234,426 234,384 24,384 				"/>
				<polygon id="Fill-13" class="st0" points="329,479 411,479 411,437 329,437 				"/>
				<polygon id="Fill-14" class="st1" points="127,479 234,479 234,437 127,437 				"/>
				<path id="Workharder" class="st2" d="M277.3,132l-2.7,10h-1.9l-2-7.4l-1.8,7.4h-1.8l-2.7-10h1.9l1.9,7.3l1.8-7.3h1.8l2,7.3
					l1.9-7.3H277.3z M281,134.5c1.2,0,2.1,0.5,2.8,1.5c0.4,0.7,0.6,1.4,0.6,2.3c0,2.3-1.4,3.8-3.5,3.8c-1.1,0-2-0.5-2.6-1.4
					c-0.5-0.7-0.7-1.6-0.7-2.5C277.6,136,279,134.5,281,134.5z M281,135.8c-1.1,0-1.7,0.9-1.7,2.5s0.6,2.5,1.7,2.5
					c1.1,0,1.7-0.9,1.7-2.5C282.7,136.7,282.1,135.8,281,135.8z M287.6,142H286v-7.4h1.5v1.8c0.3-1.3,1.2-2.1,2.2-2v1.8h-0.1l-0.3,0
					c-1,0-1.7,1-1.7,2.4V142z M297.7,142H296l-1.9-3.8l-1.6,1.8v1.9h-1.6v-10h1.6v6.2c0.1-0.2,0.2-0.3,0.3-0.4l2.9-3.2h1.8l-2.2,2.4
					L297.7,142z M267.2,157h-1.7v-4.8c0-0.9-0.4-1.4-1.1-1.4c-0.6,0-1.1,0.3-1.4,0.8c-0.2,0.4-0.3,0.9-0.3,1.6v3.8H261v-10h1.7v3.9
					c0.5-1.1,1.1-1.6,2.2-1.6c0.9,0,1.5,0.3,1.9,0.9c0.3,0.5,0.4,0.9,0.4,1.7V157z M275.5,157h-1.6c-0.2-0.5-0.2-0.9-0.3-1.5
					c-0.5,1.2-1.3,1.6-2.5,1.6c-1.4,0-2.4-0.9-2.4-2.3c0-1.2,0.7-1.9,2.1-2.3c0.8-0.2,1.5-0.3,2.8-0.3v-0.6c0-0.8-0.5-1.1-1.6-1.1
					c-1,0-1.5,0.3-1.7,1.1l-1.4-0.2c0.1-0.7,0.4-1.1,1-1.5c0.6-0.4,1.3-0.6,2.4-0.6c1.3,0,2.1,0.3,2.5,0.8c0.4,0.4,0.5,0.8,0.5,1.9
					v3.3C275.2,156,275.3,156.4,275.5,157z M273.6,153.9v-0.7c-2.1,0-3.2,0.5-3.2,1.5c0,0.7,0.5,1.1,1.3,1.1
					C272.8,155.9,273.6,155.1,273.6,153.9z M278.9,157h-1.7v-7.4h1.5v1.8c0.3-1.3,1.2-2.1,2.2-2v1.8h-0.1l-0.3,0c-1,0-1.7,1-1.7,2.4
					V157z M288.2,157h-1.6v-1.5c-0.5,1.1-1.1,1.6-2.2,1.6c-0.8,0-1.5-0.3-2-0.9c-0.5-0.7-0.8-1.9-0.8-3c0-1.2,0.4-2.3,1-3.1
					c0.5-0.5,1.1-0.8,1.9-0.8c0.9,0,1.6,0.4,2,1.3V147h1.7V157z M286.6,153.9v-1.3c0-0.6-0.1-1-0.4-1.3c-0.3-0.4-0.7-0.6-1.1-0.6
					c-1,0-1.6,0.9-1.6,2.6c0,1.6,0.5,2.5,1.5,2.5C285.9,155.8,286.6,155,286.6,153.9z M294.9,154.6l1.5,0.2
					c-0.5,1.5-1.6,2.3-3.3,2.3c-2.1,0-3.4-1.5-3.4-3.8c0-2.3,1.4-3.9,3.5-3.9c2.1,0,3.3,1.4,3.3,4.1h-5.1v0.2c0,1.4,0.7,2.1,1.8,2.1
					C294.1,155.8,294.5,155.5,294.9,154.6z M291.5,152.4h3.3c0-0.6-0.1-0.8-0.4-1.2c-0.3-0.4-0.8-0.6-1.3-0.6
					C292.2,150.6,291.6,151.3,291.5,152.4z M299.7,157H298v-7.4h1.5v1.8c0.3-1.3,1.2-2.1,2.2-2v1.8h-0.1l-0.3,0c-1,0-1.7,1-1.7,2.4
					V157z"/>
				<path id="Havelessstress" class="st2" d="M273.3,194h-1.8v-4.4h-3.8v4.4h-1.8v-10h1.8v4.1h3.8V184h1.8V194z M281.8,194h-1.6
					c-0.1-0.5-0.2-0.9-0.3-1.5c-0.5,1.2-1.3,1.6-2.5,1.6c-1.4,0-2.4-0.9-2.4-2.3c0-1.2,0.7-1.9,2.1-2.3c0.8-0.2,1.5-0.3,2.8-0.3
					v-0.6c0-0.8-0.5-1.1-1.6-1.1c-1,0-1.5,0.3-1.7,1.1l-1.4-0.2c0.1-0.7,0.4-1.1,1-1.5c0.6-0.4,1.3-0.6,2.4-0.6
					c1.3,0,2.1,0.3,2.5,0.8c0.4,0.4,0.5,0.8,0.5,1.9v3.3C281.6,193,281.7,193.4,281.8,194z M280,190.9v-0.7c-2.1,0-3.2,0.5-3.2,1.5
					c0,0.7,0.5,1.1,1.3,1.1C279.2,192.9,280,192.1,280,190.9z M289.1,186.6l-2.5,7.4h-1.4l-2.6-7.4h1.7l1.7,5l1.7-5H289.1z
					 M294.9,191.6l1.5,0.2c-0.5,1.5-1.6,2.3-3.3,2.3c-2.1,0-3.4-1.5-3.4-3.8c0-2.3,1.4-3.9,3.5-3.9c2.1,0,3.3,1.4,3.3,4.1h-5.1v0.2
					c0,1.4,0.7,2.1,1.8,2.1C294.1,192.8,294.6,192.5,294.9,191.6z M291.5,189.4h3.3c0-0.6-0.1-0.8-0.4-1.2c-0.3-0.4-0.8-0.6-1.3-0.6
					C292.2,187.6,291.6,188.3,291.5,189.4z M249.1,209h-1.7v-10h1.7V209z M256,206.6l1.5,0.2c-0.5,1.5-1.6,2.3-3.3,2.3
					c-2.1,0-3.4-1.5-3.4-3.8c0-2.3,1.4-3.9,3.5-3.9c2.1,0,3.3,1.4,3.3,4.1h-5.1v0.2c0,1.4,0.7,2.1,1.8,2.1
					C255.2,207.8,255.6,207.5,256,206.6z M252.5,204.4h3.3c0-0.6-0.1-0.8-0.4-1.2c-0.3-0.4-0.8-0.6-1.3-0.6
					C253.3,202.6,252.7,203.3,252.5,204.4z M258.4,207.3l1.6-0.3c0.3,0.7,0.7,0.9,1.6,0.9c0.9,0,1.5-0.3,1.5-0.9
					c0-0.4-0.3-0.6-0.8-0.7L261,206c-1.5-0.3-2.2-1-2.2-2.2c0-0.6,0.2-1.1,0.6-1.5c0.5-0.6,1.2-0.8,2.3-0.8c1.5,0,2.5,0.6,2.9,1.7
					l-1.5,0.3c-0.2-0.6-0.6-0.8-1.4-0.8c-0.8,0-1.3,0.3-1.3,0.8c0,0.4,0.3,0.7,1.1,0.8l1.6,0.3c1.2,0.2,1.9,1,1.9,2.1
					c0,1.5-1.3,2.4-3.2,2.4c-0.9,0-1.8-0.2-2.4-0.7C258.8,208.2,258.6,207.9,258.4,207.3z M265.7,207.3l1.6-0.3
					c0.3,0.7,0.7,0.9,1.6,0.9c0.9,0,1.5-0.3,1.5-0.9c0-0.4-0.3-0.6-0.8-0.7l-1.4-0.3c-1.5-0.3-2.2-1-2.2-2.2c0-0.6,0.2-1.1,0.6-1.5
					c0.5-0.6,1.2-0.8,2.3-0.8c1.5,0,2.5,0.6,2.9,1.7l-1.5,0.3c-0.2-0.6-0.6-0.8-1.4-0.8c-0.8,0-1.3,0.3-1.3,0.8
					c0,0.4,0.3,0.7,1.1,0.8l1.6,0.3c1.2,0.2,1.9,1,1.9,2.1c0,1.5-1.3,2.4-3.2,2.4c-0.9,0-1.8-0.2-2.4-0.7
					C266,208.2,265.9,207.9,265.7,207.3z M276.5,207.3l1.6-0.3c0.3,0.7,0.7,0.9,1.6,0.9c0.9,0,1.5-0.3,1.5-0.9
					c0-0.4-0.3-0.6-0.8-0.7l-1.3-0.3c-1.5-0.3-2.2-1-2.2-2.2c0-0.6,0.2-1.1,0.6-1.5c0.5-0.6,1.2-0.8,2.3-0.8c1.5,0,2.5,0.6,2.9,1.7
					l-1.5,0.3c-0.2-0.6-0.6-0.8-1.4-0.8c-0.8,0-1.3,0.3-1.3,0.8c0,0.4,0.3,0.7,1.1,0.8l1.6,0.3c1.2,0.2,1.9,1,1.9,2.1
					c0,1.5-1.3,2.4-3.2,2.4c-0.9,0-1.8-0.2-2.4-0.7C276.9,208.2,276.7,207.9,276.5,207.3z M287.8,207.7v1.3
					c-0.5,0.1-0.9,0.2-1.2,0.2c-0.6,0-1.2-0.2-1.6-0.6c-0.4-0.4-0.5-0.8-0.5-1.8v-3.8h-0.9v-1.3h1l0.1-1.9l1.4-0.1v2h1.5v1.3h-1.5
					v3.6c0,0.9,0.3,1.2,1.2,1.2C287.5,207.7,287.7,207.7,287.8,207.7z M290.9,209h-1.7v-7.4h1.5v1.8c0.3-1.3,1.2-2.1,2.2-2v1.8h-0.1
					l-0.3,0c-1,0-1.7,1-1.7,2.4V209z M299,206.6l1.5,0.2c-0.5,1.5-1.6,2.3-3.3,2.3c-2.1,0-3.4-1.5-3.4-3.8c0-2.3,1.4-3.9,3.5-3.9
					c2.1,0,3.3,1.4,3.3,4.1h-5.1v0.2c0,1.4,0.7,2.1,1.8,2.1C298.2,207.8,298.7,207.5,299,206.6z M295.6,204.4h3.3
					c0-0.6-0.1-0.8-0.4-1.2c-0.3-0.4-0.8-0.6-1.3-0.6C296.3,202.6,295.7,203.3,295.6,204.4z M301.5,207.3l1.6-0.3
					c0.3,0.7,0.7,0.9,1.6,0.9c0.9,0,1.5-0.3,1.5-0.9c0-0.4-0.3-0.6-0.8-0.7L304,206c-1.5-0.3-2.2-1-2.2-2.2c0-0.6,0.2-1.1,0.6-1.5
					c0.5-0.6,1.2-0.8,2.3-0.8c1.5,0,2.5,0.6,2.9,1.7l-1.5,0.3c-0.2-0.6-0.6-0.8-1.4-0.8c-0.8,0-1.3,0.3-1.3,0.8
					c0,0.4,0.3,0.7,1.1,0.8l1.6,0.3c1.2,0.2,1.9,1,1.9,2.1c0,1.5-1.3,2.4-3.2,2.4c-0.9,0-1.8-0.2-2.4-0.7
					C301.8,208.2,301.6,207.9,301.5,207.3z M308.7,207.3l1.6-0.3c0.3,0.7,0.7,0.9,1.6,0.9c0.9,0,1.5-0.3,1.5-0.9
					c0-0.4-0.3-0.6-0.8-0.7l-1.3-0.3c-1.5-0.3-2.2-1-2.2-2.2c0-0.6,0.2-1.1,0.6-1.5c0.5-0.6,1.2-0.8,2.3-0.8c1.5,0,2.5,0.6,2.9,1.7
					l-1.5,0.3c-0.2-0.6-0.6-0.8-1.4-0.8c-0.8,0-1.3,0.3-1.3,0.8c0,0.4,0.3,0.7,1.1,0.8l1.6,0.3c1.2,0.2,1.9,1,1.9,2.1
					c0,1.5-1.3,2.4-3.2,2.4c-0.9,0-1.8-0.2-2.4-0.7C309.1,208.2,308.9,207.9,308.7,207.3z"/>
				<path id="Moreworklifebalance" class="st2" d="M258.1,247h-1.8v-8.8l-2.8,8.8h-0.9l-2.8-8.8v8.8h-1.5v-10h2.8l2.1,6.5l2.1-6.5
					h2.8V247z M263.2,239.5c1.2,0,2.1,0.5,2.8,1.5c0.4,0.7,0.6,1.4,0.6,2.3c0,2.3-1.4,3.8-3.5,3.8c-1.1,0-2-0.5-2.6-1.4
					c-0.5-0.7-0.7-1.6-0.7-2.5C259.8,241,261.2,239.5,263.2,239.5z M263.2,240.8c-1.1,0-1.7,0.9-1.7,2.5s0.6,2.5,1.7,2.5
					c1.1,0,1.7-0.9,1.7-2.5C264.9,241.7,264.3,240.8,263.2,240.8z M269.8,247h-1.7v-7.4h1.5v1.8c0.3-1.3,1.2-2.1,2.2-2v1.8h-0.1
					l-0.3,0c-1,0-1.7,1-1.7,2.4V247z M277.8,244.6l1.5,0.2c-0.5,1.5-1.6,2.3-3.3,2.3c-2.1,0-3.4-1.5-3.4-3.8c0-2.3,1.4-3.9,3.5-3.9
					c2.1,0,3.3,1.4,3.3,4.1h-5.1v0.2c0,1.4,0.7,2.1,1.8,2.1C276.9,245.8,277.4,245.5,277.8,244.6z M274.3,242.4h3.3
					c0-0.6-0.1-0.8-0.4-1.2c-0.3-0.4-0.8-0.6-1.3-0.6C275.1,240.6,274.5,241.3,274.3,242.4z M294,239.6l-2.2,7.4h-1.5l-1.3-5.2
					l-1.3,5.2h-1.5l-2.3-7.4h1.8l1.5,5l1.3-5h1.5l1.3,5l1.4-5H294z M298,239.5c1.2,0,2.1,0.5,2.8,1.5c0.4,0.7,0.6,1.4,0.6,2.3
					c0,2.3-1.4,3.8-3.5,3.8c-1.1,0-2-0.5-2.6-1.4c-0.5-0.7-0.7-1.6-0.7-2.5C294.5,241,295.9,239.5,298,239.5z M298,240.8
					c-1.1,0-1.7,0.9-1.7,2.5s0.6,2.5,1.7,2.5c1.1,0,1.7-0.9,1.7-2.5C299.6,241.7,299,240.8,298,240.8z M304.6,247h-1.7v-7.4h1.5v1.8
					c0.3-1.3,1.2-2.1,2.2-2v1.8h-0.1l-0.3,0c-1,0-1.7,1-1.7,2.4V247z M314.7,247h-1.8l-1.9-3.8l-1.6,1.8v1.9h-1.6v-10h1.6v6.2
					c0.1-0.2,0.2-0.3,0.3-0.4l2.9-3.2h1.8l-2.2,2.4L314.7,247z M246.4,262h-1.7v-10h1.7V262z M250.1,262h-1.7v-7.4h1.7V262z
					 M250.1,253.7h-1.7V252h1.7V253.7z M254,262h-1.6v-6.1h-1.1v-1.3h1.1c0-1.2,0.1-1.6,0.6-2.1c0.4-0.5,1-0.6,2.1-0.6
					c0.2,0,0.3,0,0.6,0v1.3c-0.2,0-0.3,0-0.4,0c-0.5,0-0.9,0.1-1,0.3c-0.1,0.2-0.2,0.3-0.2,1.2h1.6v1.3H254V262z M261.4,259.6
					l1.5,0.2c-0.5,1.5-1.6,2.3-3.3,2.3c-2.1,0-3.4-1.5-3.4-3.8c0-2.3,1.4-3.9,3.5-3.9c2.1,0,3.3,1.4,3.3,4.1h-5.1v0.2
					c0,1.4,0.7,2.1,1.8,2.1C260.6,260.8,261,260.5,261.4,259.6z M257.9,257.4h3.3c0-0.6-0.1-0.8-0.4-1.2c-0.3-0.4-0.8-0.6-1.3-0.6
					C258.7,255.6,258.1,256.3,257.9,257.4z M269,262h-0.8v-10h1.7v3.6c0.6-1,1.1-1.4,2.1-1.4c1.7,0,2.8,1.5,2.8,3.9
					c0,1.2-0.3,2.1-0.9,2.9c-0.6,0.8-1.2,1.1-2.2,1.1c-1,0-1.6-0.4-2.3-1.4L269,262z M270,257.7v1.1c0,1.2,0.6,2,1.5,2
					c0.5,0,0.9-0.2,1.2-0.7c0.3-0.5,0.4-0.9,0.4-2c0-1-0.1-1.4-0.4-1.8c-0.2-0.4-0.7-0.6-1.1-0.6C270.6,255.7,270,256.5,270,257.7z
					 M282.7,262h-1.6c-0.1-0.5-0.2-0.9-0.3-1.5c-0.5,1.2-1.3,1.6-2.5,1.6c-1.4,0-2.4-0.9-2.4-2.3c0-1.2,0.7-2,2.1-2.3
					c0.8-0.2,1.5-0.3,2.8-0.3v-0.6c0-0.8-0.5-1.1-1.6-1.1c-1,0-1.5,0.3-1.7,1.1l-1.4-0.2c0.1-0.7,0.4-1.1,1-1.5
					c0.6-0.4,1.3-0.6,2.4-0.6c1.3,0,2.1,0.3,2.5,0.8c0.4,0.4,0.5,0.8,0.5,1.9v3.3C282.5,261,282.5,261.4,282.7,262z M280.8,258.9
					v-0.7c-2.1,0-3.2,0.5-3.2,1.5c0,0.7,0.5,1.1,1.3,1.1C280.1,260.9,280.8,260.1,280.8,258.9z M286.1,262h-1.7v-10h1.7V262z
					 M294.5,262h-1.6c-0.1-0.5-0.2-0.9-0.3-1.5c-0.5,1.2-1.3,1.6-2.5,1.6c-1.4,0-2.4-0.9-2.4-2.3c0-1.2,0.7-2,2.1-2.3
					c0.8-0.2,1.5-0.3,2.8-0.3v-0.6c0-0.8-0.5-1.1-1.6-1.1c-1,0-1.5,0.3-1.7,1.1l-1.4-0.2c0.1-0.7,0.4-1.1,1-1.5
					c0.6-0.4,1.3-0.6,2.4-0.6c1.3,0,2.1,0.3,2.5,0.8c0.4,0.4,0.5,0.8,0.5,1.9v3.3C294.2,261,294.3,261.4,294.5,262z M292.6,258.9
					v-0.7c-2.1,0-3.2,0.5-3.2,1.5c0,0.7,0.5,1.1,1.3,1.1C291.8,260.9,292.6,260.1,292.6,258.9z M302.4,262h-1.7v-4.6
					c0-0.9-0.5-1.5-1.2-1.5c-0.6,0-1.1,0.4-1.4,0.9c-0.2,0.4-0.3,0.8-0.3,1.4v3.8h-1.7v-7.4h1.5v1.7c0.6-1.3,1.3-1.9,2.3-1.9
					c0.9,0,1.7,0.4,2,1.1c0.2,0.4,0.3,0.9,0.3,1.7V262z M308.6,259.3l1.4,0.1c-0.2,0.8-0.3,1.2-0.7,1.6c-0.5,0.7-1.3,1.1-2.3,1.1
					c-1.9,0-3.1-1.5-3.1-3.8c0-2.3,1.3-3.9,3.3-3.9c0.9,0,1.7,0.3,2.2,0.9c0.4,0.4,0.5,0.8,0.7,1.6l-1.4,0.2
					c-0.1-0.9-0.6-1.4-1.3-1.4c-1,0-1.6,0.9-1.6,2.5c0,1.5,0.6,2.3,1.5,2.3C307.9,260.7,308.4,260.2,308.6,259.3z M316.1,259.6
					l1.5,0.2c-0.5,1.5-1.6,2.3-3.3,2.3c-2.1,0-3.4-1.5-3.4-3.8c0-2.3,1.4-3.9,3.5-3.9c2.1,0,3.3,1.4,3.3,4.1h-5.1v0.2
					c0,1.4,0.7,2.1,1.8,2.1C315.3,260.8,315.8,260.5,316.1,259.6z M312.7,257.4h3.3c0-0.6-0.1-0.8-0.4-1.2c-0.3-0.4-0.8-0.6-1.3-0.6
					C313.4,255.6,312.8,256.3,312.7,257.4z"/>
				<path id="Earnmoremoney" class="st2" d="M255.2,298h-6.5v-10h6.4v1.5h-4.6v2.7h3.7v1.5h-3.7v2.8h4.7V298z M263,298h-1.6
					c-0.1-0.5-0.2-0.9-0.3-1.5c-0.5,1.2-1.3,1.6-2.5,1.6c-1.4,0-2.4-0.9-2.4-2.3c0-1.2,0.7-2,2.1-2.3c0.8-0.2,1.5-0.3,2.8-0.3v-0.6
					c0-0.8-0.5-1.1-1.6-1.1c-1,0-1.5,0.3-1.7,1.1l-1.4-0.2c0.1-0.7,0.4-1.1,1-1.5c0.6-0.4,1.3-0.6,2.4-0.6c1.3,0,2.1,0.3,2.5,0.8
					c0.4,0.4,0.5,0.8,0.5,1.9v3.3C262.8,297,262.9,297.4,263,298z M261.2,294.9v-0.7c-2.1,0-3.2,0.5-3.2,1.5c0,0.7,0.5,1.1,1.3,1.1
					C260.4,296.9,261.2,296.1,261.2,294.9z M266.5,298h-1.7v-7.4h1.5v1.8c0.3-1.3,1.2-2.1,2.2-2v1.8h-0.1l-0.3,0
					c-1,0-1.7,1.1-1.7,2.4V298z M275.8,298h-1.7v-4.6c0-0.9-0.4-1.5-1.2-1.5c-0.6,0-1.1,0.4-1.4,0.9c-0.2,0.4-0.3,0.8-0.3,1.4v3.8
					h-1.7v-7.4h1.5v1.7c0.6-1.3,1.3-1.9,2.3-1.9c0.9,0,1.7,0.5,2,1.1c0.2,0.4,0.3,0.9,0.3,1.7V298z M292.7,298h-1.8v-4.6
					c0-0.9-0.4-1.4-1.3-1.4c-1,0-1.6,0.8-1.6,2.1v3.9h-1.8v-4.6c0-0.5,0-0.6-0.2-0.9c-0.2-0.4-0.6-0.6-1-0.6c-1,0-1.7,0.9-1.7,2.2
					v3.9h-1.7v-7.4h1.6v1.6c0.3-0.6,0.5-0.9,0.8-1.2c0.4-0.4,1-0.6,1.6-0.6c1.1,0,1.8,0.5,2.1,1.7c0.6-1.2,1.4-1.7,2.5-1.7
					c1.4,0,2.4,1,2.4,2.3V298z M297.7,290.5c1.2,0,2.1,0.5,2.8,1.5c0.4,0.7,0.6,1.4,0.6,2.3c0,2.3-1.4,3.8-3.5,3.8
					c-1.1,0-2-0.5-2.6-1.4c-0.5-0.7-0.7-1.6-0.7-2.5C294.2,292,295.6,290.5,297.7,290.5z M297.7,291.8c-1.1,0-1.7,0.9-1.7,2.5
					c0,1.6,0.6,2.5,1.7,2.5c1.1,0,1.7-0.9,1.7-2.5C299.3,292.7,298.7,291.8,297.7,291.8z M304.3,298h-1.7v-7.4h1.5v1.8
					c0.3-1.3,1.2-2.1,2.2-2v1.8h-0.1l-0.3,0c-1,0-1.7,1.1-1.7,2.4V298z M312.2,295.6l1.5,0.2c-0.5,1.5-1.6,2.3-3.3,2.3
					c-2.1,0-3.4-1.5-3.4-3.8c0-2.3,1.4-3.9,3.5-3.9c2.1,0,3.3,1.4,3.3,4.1h-5.1v0.2c0,1.4,0.7,2.1,1.8,2.1
					C311.4,296.8,311.9,296.5,312.2,295.6z M308.8,293.4h3.3c0-0.6-0.1-0.8-0.4-1.2c-0.3-0.4-0.8-0.6-1.3-0.6
					C309.5,291.6,308.9,292.3,308.8,293.4z M271.4,313h-1.8v-4.6c0-0.9-0.4-1.4-1.3-1.4c-1,0-1.6,0.8-1.6,2.1v3.9h-1.8v-4.6
					c0-0.5,0-0.6-0.2-0.9c-0.2-0.4-0.6-0.6-1-0.6c-1,0-1.7,0.9-1.7,2.2v3.9h-1.7v-7.4h1.6v1.6c0.3-0.6,0.5-0.9,0.8-1.2
					c0.4-0.4,1-0.6,1.7-0.6c1.1,0,1.8,0.5,2.1,1.7c0.6-1.2,1.4-1.7,2.5-1.7c1.4,0,2.4,1,2.4,2.3V313z M276.4,305.5
					c1.2,0,2.1,0.5,2.8,1.5c0.4,0.7,0.6,1.4,0.6,2.3c0,2.3-1.4,3.8-3.5,3.8c-1.1,0-2-0.5-2.6-1.4c-0.5-0.7-0.7-1.6-0.7-2.5
					C272.9,307,274.3,305.5,276.4,305.5z M276.4,306.8c-1.1,0-1.7,0.9-1.7,2.5c0,1.6,0.6,2.5,1.7,2.5c1.1,0,1.7-0.9,1.7-2.5
					C278,307.7,277.4,306.8,276.4,306.8z M287.4,313h-1.7v-4.6c0-0.9-0.4-1.5-1.2-1.5c-0.6,0-1.1,0.4-1.4,0.9
					c-0.2,0.4-0.3,0.8-0.3,1.4v3.8h-1.7v-7.4h1.5v1.7c0.6-1.3,1.3-1.9,2.3-1.9c0.9,0,1.7,0.5,2,1.1c0.2,0.4,0.3,0.9,0.3,1.7V313z
					 M294.1,310.6l1.5,0.2c-0.5,1.5-1.6,2.3-3.3,2.3c-2.1,0-3.4-1.5-3.4-3.8c0-2.3,1.4-3.9,3.5-3.9c2.1,0,3.3,1.4,3.3,4.1h-5.1v0.2
					c0,1.4,0.7,2.1,1.8,2.1C293.3,311.8,293.8,311.5,294.1,310.6z M290.7,308.4h3.3c0-0.6-0.1-0.8-0.4-1.2c-0.3-0.4-0.8-0.6-1.3-0.6
					C291.4,306.6,290.8,307.3,290.7,308.4z M302.6,305.6l-2.9,8.4c-0.4,1.1-1,1.6-2,1.6c-0.2,0-0.6,0-1-0.1v-1.3c0.3,0,0.6,0,0.8,0
					c0.5,0,0.8-0.1,1-0.4c0.1-0.2,0.3-0.8,0.3-0.9c0,0-0.1-0.2-0.1-0.5l-2.5-6.9h1.7l1.8,4.9l1.5-4.9H302.6z"/>
				<path id="Morecareercertainty" class="st2" d="M253.3,350h-1.8v-8.8l-2.8,8.8h-0.9l-2.8-8.8v8.8h-1.5v-10h2.8l2.1,6.5l2.1-6.5
					h2.8V350z M258.4,342.5c1.2,0,2.1,0.5,2.8,1.5c0.4,0.7,0.6,1.4,0.6,2.3c0,2.3-1.4,3.8-3.5,3.8c-1.1,0-2-0.5-2.6-1.4
					c-0.5-0.7-0.7-1.6-0.7-2.5C254.9,344,256.4,342.5,258.4,342.5z M258.4,343.8c-1.1,0-1.7,0.9-1.7,2.5c0,1.6,0.6,2.5,1.7,2.5
					c1.1,0,1.7-0.9,1.7-2.5C260.1,344.7,259.5,343.8,258.4,343.8z M265,350h-1.7v-7.4h1.5v1.8c0.3-1.3,1.2-2.1,2.2-2v1.8H267l-0.3,0
					c-1,0-1.7,1.1-1.7,2.4V350z M272.9,347.6l1.5,0.2c-0.5,1.5-1.6,2.3-3.3,2.3c-2.1,0-3.4-1.5-3.4-3.8c0-2.3,1.4-3.9,3.5-3.9
					c2.1,0,3.3,1.4,3.3,4.1h-5.1v0.2c0,1.4,0.7,2.1,1.8,2.1C272.1,348.8,272.6,348.5,272.9,347.6z M269.5,345.4h3.3
					c0-0.6-0.1-0.8-0.4-1.2c-0.3-0.4-0.8-0.6-1.3-0.6C270.2,343.6,269.6,344.3,269.5,345.4z M284.1,347.3l1.4,0.1
					c-0.2,0.8-0.3,1.2-0.7,1.6c-0.5,0.7-1.4,1.1-2.3,1.1c-1.9,0-3.2-1.5-3.2-3.8c0-2.3,1.3-3.9,3.3-3.9c0.9,0,1.7,0.3,2.2,0.9
					c0.4,0.4,0.5,0.8,0.7,1.6l-1.4,0.2c-0.1-0.9-0.6-1.4-1.4-1.4c-1,0-1.6,0.9-1.6,2.5c0,1.5,0.6,2.3,1.5,2.3
					C283.4,348.7,283.9,348.2,284.1,347.3z M293.3,350h-1.6c-0.1-0.5-0.2-0.9-0.3-1.5c-0.5,1.2-1.3,1.6-2.5,1.6
					c-1.4,0-2.4-0.9-2.4-2.3c0-1.2,0.7-2,2.1-2.3c0.8-0.2,1.5-0.3,2.8-0.3v-0.6c0-0.8-0.5-1.1-1.6-1.1c-1,0-1.5,0.3-1.7,1.1
					l-1.4-0.2c0.1-0.7,0.4-1.1,1-1.5c0.6-0.4,1.3-0.6,2.4-0.6c1.3,0,2.1,0.3,2.5,0.8c0.4,0.4,0.5,0.8,0.5,1.9v3.3
					C293,349,293.1,349.4,293.3,350z M291.4,346.9v-0.7c-2.1,0-3.2,0.5-3.2,1.5c0,0.7,0.5,1.1,1.3,1.1
					C290.6,348.9,291.4,348.1,291.4,346.9z M296.7,350H295v-7.4h1.5v1.8c0.3-1.3,1.2-2.1,2.2-2v1.8h-0.1l-0.3,0
					c-1,0-1.7,1.1-1.7,2.4V350z M304.6,347.6l1.5,0.2c-0.5,1.5-1.6,2.3-3.3,2.3c-2.1,0-3.4-1.5-3.4-3.8c0-2.3,1.4-3.9,3.5-3.9
					c2.1,0,3.3,1.4,3.3,4.1h-5.1v0.2c0,1.4,0.7,2.1,1.8,2.1C303.8,348.8,304.3,348.5,304.6,347.6z M301.2,345.4h3.3
					c0-0.6-0.1-0.8-0.4-1.2c-0.3-0.4-0.8-0.6-1.3-0.6C301.9,343.6,301.3,344.3,301.2,345.4z M312.5,347.6l1.5,0.2
					c-0.5,1.5-1.6,2.3-3.3,2.3c-2.1,0-3.4-1.5-3.4-3.8c0-2.3,1.4-3.9,3.5-3.9c2.1,0,3.3,1.4,3.3,4.1H309v0.2c0,1.4,0.7,2.1,1.8,2.1
					C311.7,348.8,312.1,348.5,312.5,347.6z M309,345.4h3.3c0-0.6-0.1-0.8-0.4-1.2c-0.3-0.4-0.8-0.6-1.3-0.6
					C309.8,343.6,309.2,344.3,309,345.4z M317.3,350h-1.7v-7.4h1.5v1.8c0.3-1.3,1.2-2.1,2.2-2v1.8h-0.1l-0.3,0c-1,0-1.7,1.1-1.7,2.4
					V350z M258,362.3l1.4,0.1c-0.2,0.8-0.3,1.2-0.7,1.6c-0.5,0.7-1.4,1.1-2.3,1.1c-1.9,0-3.1-1.5-3.1-3.8c0-2.3,1.3-3.9,3.3-3.9
					c0.9,0,1.7,0.3,2.2,0.9c0.4,0.4,0.5,0.8,0.7,1.6l-1.4,0.2c-0.1-0.9-0.6-1.4-1.4-1.4c-1,0-1.6,0.9-1.6,2.5c0,1.5,0.6,2.3,1.5,2.3
					C257.3,363.7,257.8,363.2,258,362.3z M265.5,362.6l1.5,0.2c-0.5,1.5-1.6,2.3-3.3,2.3c-2.1,0-3.4-1.5-3.4-3.8
					c0-2.3,1.4-3.9,3.5-3.9c2.1,0,3.3,1.4,3.3,4.1h-5.1v0.2c0,1.4,0.7,2.1,1.8,2.1C264.7,363.8,265.2,363.5,265.5,362.6z
					 M262.1,360.4h3.3c0-0.6-0.1-0.8-0.4-1.2c-0.3-0.4-0.8-0.6-1.3-0.6C262.8,358.6,262.2,359.3,262.1,360.4z M270.3,365h-1.7v-7.4
					h1.5v1.8c0.3-1.3,1.2-2.1,2.2-2v1.8h-0.1l-0.3,0c-1,0-1.7,1.1-1.7,2.4V365z M277.3,363.7v1.3c-0.5,0.1-0.9,0.2-1.2,0.2
					c-0.6,0-1.2-0.2-1.6-0.6c-0.4-0.4-0.5-0.8-0.5-1.8v-3.8h-0.9v-1.3h1l0.1-1.9l1.4-0.1v2h1.5v1.3h-1.5v3.6c0,0.9,0.3,1.2,1.2,1.2
					C277,363.7,277.2,363.7,277.3,363.7z M285.1,365h-1.6c-0.1-0.5-0.2-0.9-0.3-1.5c-0.5,1.2-1.3,1.6-2.5,1.6
					c-1.4,0-2.4-0.9-2.4-2.3c0-1.2,0.7-2,2.1-2.3c0.8-0.2,1.5-0.3,2.8-0.3v-0.6c0-0.8-0.5-1.1-1.6-1.1c-1,0-1.5,0.3-1.7,1.1
					l-1.4-0.2c0.1-0.7,0.4-1.1,1-1.5c0.6-0.4,1.3-0.6,2.4-0.6c1.3,0,2.1,0.3,2.5,0.8c0.4,0.4,0.5,0.8,0.5,1.9v3.3
					C284.8,364,284.9,364.4,285.1,365z M283.2,361.9v-0.7c-2.1,0-3.2,0.5-3.2,1.5c0,0.7,0.5,1.1,1.3,1.1
					C282.4,363.9,283.2,363.1,283.2,361.9z M288.5,365h-1.7v-7.4h1.7V365z M288.5,356.7h-1.7V355h1.7V356.7z M296.6,365H295v-4.6
					c0-0.9-0.5-1.5-1.2-1.5c-0.6,0-1.1,0.4-1.4,0.9c-0.2,0.4-0.3,0.8-0.3,1.4v3.8h-1.7v-7.4h1.5v1.7c0.6-1.3,1.3-1.9,2.3-1.9
					c0.9,0,1.7,0.5,2,1.1c0.2,0.4,0.3,0.9,0.3,1.7V365z M302.1,363.7v1.3c-0.5,0.1-0.9,0.2-1.2,0.2c-0.6,0-1.2-0.2-1.6-0.6
					c-0.4-0.4-0.5-0.8-0.5-1.8v-3.8h-0.9v-1.3h1l0.1-1.9l1.4-0.1v2h1.5v1.3h-1.5v3.6c0,0.9,0.3,1.2,1.2,1.2
					C301.7,363.7,301.9,363.7,302.1,363.7z M309.1,357.6l-2.9,8.4c-0.4,1.1-1,1.6-2,1.6c-0.2,0-0.6,0-1-0.1v-1.3c0.3,0,0.6,0,0.8,0
					c0.5,0,0.8-0.1,1-0.4c0.1-0.2,0.3-0.8,0.3-0.9c0,0-0.1-0.2-0.1-0.5l-2.5-6.9h1.7l1.8,4.9l1.5-4.9H309.1z"/>
				<path id="Behealthier" class="st2" d="M274.1,403v-10h3.9c1.1,0,1.6,0.1,2.2,0.5c0.6,0.4,1,1.2,1,2.1c0,1.2-0.6,1.9-1.8,2.2
					c0.6,0.1,0.9,0.2,1.2,0.5c0.6,0.4,0.9,1.2,0.9,2c0,0.8-0.3,1.5-0.8,2c-0.5,0.5-1.2,0.7-2.3,0.7H274.1z M275.8,401.5h2.3
					c1,0,1.6-0.6,1.6-1.4c0-0.9-0.6-1.4-1.6-1.4h-2.3V401.5z M275.8,397.2h2.2c0.9,0,1.5-0.6,1.5-1.4c0-0.8-0.6-1.3-1.5-1.3h-2.2
					V397.2z M287.8,400.6l1.5,0.2c-0.5,1.5-1.6,2.3-3.3,2.3c-2.1,0-3.4-1.5-3.4-3.8c0-2.3,1.4-3.9,3.5-3.9c2.1,0,3.3,1.4,3.3,4.1
					h-5.1v0.2c0,1.4,0.7,2.1,1.8,2.1C287,401.8,287.5,401.5,287.8,400.6z M284.4,398.4h3.3c0-0.6-0.1-0.8-0.4-1.2
					c-0.3-0.4-0.8-0.6-1.3-0.6C285.1,396.6,284.5,397.3,284.4,398.4z M260.3,418h-1.7v-4.8c0-0.9-0.4-1.4-1.1-1.4
					c-0.6,0-1.1,0.3-1.4,0.8c-0.2,0.4-0.3,0.9-0.3,1.6v3.8h-1.7v-10h1.7v3.9c0.5-1.1,1.1-1.6,2.2-1.6c0.9,0,1.5,0.3,1.9,0.9
					c0.3,0.5,0.4,0.9,0.4,1.7V418z M267,415.6l1.5,0.2c-0.5,1.5-1.6,2.3-3.3,2.3c-2.1,0-3.4-1.5-3.4-3.8c0-2.3,1.4-3.9,3.5-3.9
					c2.1,0,3.3,1.4,3.3,4.1h-5.1v0.2c0,1.4,0.7,2.1,1.8,2.1C266.1,416.8,266.6,416.5,267,415.6z M263.5,413.4h3.3
					c0-0.6-0.1-0.8-0.4-1.2c-0.3-0.4-0.8-0.6-1.3-0.6C264.3,411.6,263.7,412.3,263.5,413.4z M276.3,418h-1.6
					c-0.1-0.5-0.2-0.9-0.3-1.5c-0.5,1.2-1.3,1.6-2.5,1.6c-1.4,0-2.4-0.9-2.4-2.3c0-1.2,0.7-2,2.1-2.3c0.8-0.2,1.5-0.3,2.8-0.3v-0.6
					c0-0.8-0.5-1.1-1.6-1.1c-1,0-1.5,0.3-1.7,1.1l-1.4-0.2c0.1-0.7,0.4-1.1,1-1.5c0.6-0.4,1.3-0.6,2.4-0.6c1.3,0,2.1,0.3,2.5,0.8
					c0.4,0.4,0.5,0.8,0.5,1.9v3.3C276.1,417,276.2,417.4,276.3,418z M274.4,414.9v-0.7c-2.1,0-3.2,0.5-3.2,1.5
					c0,0.7,0.5,1.1,1.3,1.1C273.7,416.9,274.4,416.1,274.4,414.9z M279.7,418h-1.7v-10h1.7V418z M285.2,416.7v1.3
					c-0.5,0.1-0.9,0.2-1.2,0.2c-0.6,0-1.2-0.2-1.6-0.6c-0.4-0.4-0.5-0.8-0.5-1.8v-3.8H281v-1.3h1l0.2-1.9l1.4-0.1v2h1.5v1.3h-1.5
					v3.6c0,0.9,0.3,1.2,1.2,1.2C284.8,416.7,285,416.7,285.2,416.7z M292.4,418h-1.7v-4.8c0-0.9-0.4-1.4-1.1-1.4
					c-0.6,0-1.1,0.3-1.4,0.8c-0.2,0.4-0.3,0.9-0.3,1.6v3.8h-1.7v-10h1.7v3.9c0.5-1.1,1.1-1.6,2.2-1.6c0.9,0,1.5,0.3,1.9,0.9
					c0.3,0.5,0.4,0.9,0.4,1.7V418z M296,418h-1.7v-7.4h1.7V418z M296,409.7h-1.7V408h1.7V409.7z M302.8,415.6l1.5,0.2
					c-0.5,1.5-1.6,2.3-3.3,2.3c-2.1,0-3.4-1.5-3.4-3.8c0-2.3,1.4-3.9,3.5-3.9c2.1,0,3.3,1.4,3.3,4.1h-5.1v0.2c0,1.4,0.7,2.1,1.8,2.1
					C301.9,416.8,302.4,416.5,302.8,415.6z M299.3,413.4h3.3c0-0.6-0.1-0.8-0.4-1.2c-0.3-0.4-0.8-0.6-1.3-0.6
					C300.1,411.6,299.5,412.3,299.3,413.4z M307.6,418h-1.7v-7.4h1.5v1.8c0.3-1.3,1.2-2.1,2.2-2v1.8h-0.1l-0.3,0
					c-1,0-1.7,1.1-1.7,2.4V418z"/>
				<path id="Lonelieratwork" class="st2" d="M262.7,456h-6.1v-10h1.9v8.4h4.2V456z M266.8,448.5c1.2,0,2.1,0.5,2.8,1.5
					c0.4,0.7,0.6,1.4,0.6,2.3c0,2.3-1.4,3.8-3.5,3.8c-1.1,0-2-0.5-2.6-1.4c-0.5-0.7-0.7-1.6-0.7-2.5
					C263.4,450,264.8,448.5,266.8,448.5z M266.8,449.8c-1.1,0-1.7,0.9-1.7,2.5c0,1.6,0.6,2.5,1.7,2.5c1.1,0,1.7-0.9,1.7-2.5
					C268.5,450.7,267.9,449.8,266.8,449.8z M277.8,456h-1.7v-4.6c0-0.9-0.4-1.5-1.2-1.5c-0.6,0-1.1,0.4-1.4,0.9
					c-0.2,0.4-0.3,0.8-0.3,1.4v3.8h-1.7v-7.4h1.5v1.7c0.6-1.3,1.3-1.9,2.3-1.9c0.9,0,1.7,0.5,2,1.1c0.2,0.4,0.3,0.9,0.3,1.7V456z
					 M284.5,453.6l1.5,0.2c-0.5,1.5-1.6,2.3-3.3,2.3c-2.1,0-3.4-1.5-3.4-3.8c0-2.3,1.4-3.9,3.5-3.9c2.1,0,3.3,1.4,3.3,4.1h-5.1v0.2
					c0,1.4,0.7,2.1,1.8,2.1C283.7,454.8,284.1,454.5,284.5,453.6z M281.1,451.4h3.3c0-0.6-0.1-0.8-0.4-1.2c-0.3-0.4-0.8-0.6-1.3-0.6
					C281.8,449.6,281.2,450.3,281.1,451.4z M289.2,456h-1.7v-10h1.7V456z M292.9,456h-1.7v-7.4h1.7V456z M292.9,447.7h-1.7V446h1.7
					V447.7z M299.5,453.6l1.5,0.2c-0.5,1.5-1.6,2.3-3.3,2.3c-2.1,0-3.4-1.5-3.4-3.8c0-2.3,1.4-3.9,3.5-3.9c2.1,0,3.3,1.4,3.3,4.1
					h-5.1v0.2c0,1.4,0.7,2.1,1.8,2.1C298.7,454.8,299.2,454.5,299.5,453.6z M296.1,451.4h3.3c0-0.6-0.1-0.8-0.4-1.2
					c-0.3-0.4-0.8-0.6-1.3-0.6C296.8,449.6,296.2,450.3,296.1,451.4z M304.3,456h-1.7v-7.4h1.5v1.8c0.3-1.3,1.2-2.1,2.2-2v1.8h-0.1
					l-0.3,0c-1,0-1.7,1.1-1.7,2.4V456z M264.6,471H263c-0.2-0.5-0.2-0.9-0.3-1.5c-0.5,1.2-1.3,1.6-2.5,1.6c-1.4,0-2.4-0.9-2.4-2.3
					c0-1.2,0.7-2,2.1-2.3c0.8-0.2,1.5-0.3,2.8-0.3v-0.6c0-0.8-0.5-1.1-1.6-1.1c-1,0-1.5,0.3-1.7,1.1l-1.4-0.2c0.1-0.7,0.4-1.1,1-1.5
					c0.6-0.4,1.3-0.6,2.4-0.6c1.3,0,2.1,0.3,2.5,0.8c0.4,0.4,0.5,0.8,0.5,1.9v3.3C264.4,470,264.5,470.4,264.6,471z M262.8,467.9
					v-0.7c-2.1,0-3.2,0.5-3.2,1.5c0,0.7,0.5,1.1,1.3,1.1C262,469.9,262.8,469.1,262.8,467.9z M269.7,469.7v1.3
					c-0.5,0.1-0.9,0.2-1.2,0.2c-0.6,0-1.2-0.2-1.6-0.6c-0.4-0.4-0.5-0.8-0.5-1.8v-3.8h-0.9v-1.3h1l0.1-1.9l1.4-0.1v2h1.5v1.3h-1.5
					v3.6c0,0.9,0.3,1.2,1.2,1.2C269.3,469.7,269.5,469.7,269.7,469.7z M284.1,463.6l-2.2,7.4h-1.5l-1.3-5.2l-1.3,5.2h-1.5l-2.3-7.4
					h1.8l1.5,5l1.3-5h1.5l1.3,5l1.4-5H284.1z M288,463.5c1.2,0,2.1,0.5,2.8,1.5c0.4,0.7,0.6,1.4,0.6,2.3c0,2.3-1.4,3.8-3.5,3.8
					c-1.1,0-2-0.5-2.6-1.4c-0.5-0.7-0.7-1.6-0.7-2.5C284.5,465,286,463.5,288,463.5z M288,464.8c-1.1,0-1.7,0.9-1.7,2.5
					c0,1.6,0.6,2.5,1.7,2.5c1.1,0,1.7-0.9,1.7-2.5C289.7,465.7,289.1,464.8,288,464.8z M294.6,471h-1.7v-7.4h1.5v1.8
					c0.3-1.3,1.2-2.1,2.2-2v1.8h-0.1l-0.3,0c-1,0-1.7,1.1-1.7,2.4V471z M304.6,471h-1.8l-1.9-3.8l-1.6,1.8v2h-1.6v-10h1.6v6.2
					c0.2-0.2,0.2-0.3,0.3-0.4l2.9-3.2h1.8l-2.2,2.4L304.6,471z"/>
				<path class="st3" d="M360.3,461l-0.3,4h-15v-3.9c0.6-0.5,1-0.8,1.2-0.9l2.4-1.7c1.5-1.1,4-3.1,5.2-4.3c1-1,1.5-2.1,1.5-3.1
					c0-1.6-1.1-2.7-2.8-2.7c-2,0-3.1,1.3-3.4,3.8l-4.1-0.9c0.9-4.4,3.5-6.6,7.8-6.6c2.2,0,3.7,0.5,5,1.5c1.5,1.2,2.3,2.8,2.3,4.8
					c0,2.5-1.1,4.4-4.2,6.7c-1.2,0.9-2.3,1.6-5.1,3.3H360.3z M370.4,444.7c4.8,0,7.9,4,7.9,10.4c0,2.8-0.8,5.5-2.2,7.4
					c-1.3,1.8-3.3,2.8-5.7,2.8c-2.3,0-4.3-1-5.6-2.7c-1.4-2-2.2-4.6-2.2-7.6c0-2.9,0.8-5.6,2.1-7.5C366,445.7,368,444.7,370.4,444.7
					z M370.4,448c-2.1,0-2.9,1.9-2.9,6.8c0,5.2,0.8,7,3,7c2.1,0,2.9-2,2.9-6.7C373.4,449.9,372.6,448,370.4,448z M384.2,444.8
					c2.5,0,4.2,2,4.2,5.2c0,3-1.6,5.1-4.2,5.1c-2.5,0-4.1-2-4.1-5.1C380.1,446.9,381.7,444.8,384.2,444.8z M384.2,446.6
					c-1.1,0-1.5,0.8-1.5,3.3c0,2.5,0.4,3.4,1.5,3.4c1,0,1.5-0.9,1.5-3.2C385.7,447.5,385.3,446.6,384.2,446.6z M382.9,465l11.1-20
					h2.2l-11.1,20H382.9z M394.9,454.9c2.5,0,4.2,2,4.2,5.2c0,3-1.6,5.1-4.2,5.1c-2.5,0-4.1-2-4.1-5.1
					C390.8,456.9,392.4,454.9,394.9,454.9z M394.9,456.7c-1.1,0-1.5,0.8-1.5,3.3c0,2.5,0.4,3.4,1.5,3.4c1,0,1.5-0.9,1.5-3.2
					C396.4,457.6,396,456.7,394.9,456.7z"/>
				<path class="st3" d="M359.1,398.1h-8.7l-0.3,4.4c1.2-1.2,2.4-1.7,4.3-1.7c3.8,0,6.5,2.7,6.5,6.4c0,4.4-3,7.1-7.8,7.1
					c-2.3,0-4.2-0.6-5.6-1.9c-1.2-1-1.7-2-2.2-3.8l4.4-0.7c0.5,1.8,1.5,2.6,3.4,2.6c1.9,0,3.2-1.3,3.2-3.1c0-1.7-1.4-3.1-3.1-3.1
					c-1.2,0-2.2,0.5-2.9,1.6l-3.8-0.6L347,394h12.6L359.1,398.1z M375.7,393.7v12.2h2.8v3.5h-2.8v4.6H371v-4.6h-8.7v-3.5l8.1-12.2
					H375.7z M365.8,405.9h5.4v-6.8c0-0.1,0-0.5,0-1l0-0.8L365.8,405.9z M384.2,393.8c2.5,0,4.2,2,4.2,5.2c0,3-1.6,5.1-4.2,5.1
					c-2.5,0-4.1-2-4.1-5.1C380.1,395.9,381.7,393.8,384.2,393.8z M384.2,395.6c-1.1,0-1.5,0.8-1.5,3.3c0,2.5,0.4,3.4,1.5,3.4
					c1,0,1.5-0.9,1.5-3.2C385.7,396.5,385.3,395.6,384.2,395.6z M382.9,414l11.1-20h2.2l-11.1,20H382.9z M394.9,403.9
					c2.5,0,4.2,2,4.2,5.2c0,3-1.6,5.1-4.2,5.1c-2.5,0-4.1-2-4.1-5.1C390.8,405.9,392.4,403.9,394.9,403.9z M394.9,405.7
					c-1.1,0-1.5,0.8-1.5,3.3c0,2.5,0.4,3.4,1.5,3.4c1,0,1.5-0.9,1.5-3.2C396.4,406.6,396,405.7,394.9,405.7z"/>
				<path class="st3" d="M359.1,346.1h-8.7l-0.3,4.4c1.2-1.2,2.4-1.7,4.3-1.7c3.8,0,6.5,2.7,6.5,6.4c0,4.4-3,7.1-7.8,7.1
					c-2.3,0-4.2-0.6-5.6-1.9c-1.2-1-1.7-2-2.2-3.8l4.4-0.7c0.5,1.8,1.5,2.6,3.4,2.6c1.9,0,3.2-1.3,3.2-3.1c0-1.7-1.4-3.1-3.1-3.1
					c-1.2,0-2.2,0.5-2.9,1.6l-3.8-0.6L347,342h12.6L359.1,346.1z M370.4,341.7c4.8,0,7.9,4,7.9,10.4c0,2.8-0.8,5.5-2.2,7.4
					c-1.3,1.8-3.3,2.8-5.7,2.8c-2.3,0-4.3-1-5.6-2.7c-1.4-2-2.2-4.6-2.2-7.6c0-2.9,0.8-5.6,2.1-7.5C366,342.7,368,341.7,370.4,341.7
					z M370.4,345c-2.1,0-2.9,1.9-2.9,6.8c0,5.2,0.8,7,3,7c2.1,0,2.9-2,2.9-6.7C373.4,346.9,372.6,345,370.4,345z M384.2,341.8
					c2.5,0,4.2,2,4.2,5.2c0,3-1.6,5.1-4.2,5.1c-2.5,0-4.1-2-4.1-5.1C380.1,343.9,381.7,341.8,384.2,341.8z M384.2,343.6
					c-1.1,0-1.5,0.8-1.5,3.3c0,2.5,0.4,3.4,1.5,3.4c1,0,1.5-0.9,1.5-3.2C385.7,344.5,385.3,343.6,384.2,343.6z M382.9,362l11.1-20
					h2.2l-11.1,20H382.9z M394.9,351.9c2.5,0,4.2,2,4.2,5.2c0,3-1.6,5.1-4.2,5.1c-2.5,0-4.1-2-4.1-5.1
					C390.8,353.9,392.4,351.9,394.9,351.9z M394.9,353.7c-1.1,0-1.5,0.8-1.5,3.3c0,2.5,0.4,3.4,1.5,3.4c1,0,1.5-0.9,1.5-3.2
					C396.4,354.6,396,353.7,394.9,353.7z"/>
				<path class="st3" d="M359.1,294.1h-8.7l-0.3,4.4c1.2-1.2,2.4-1.7,4.3-1.7c3.8,0,6.5,2.7,6.5,6.4c0,4.4-3,7.1-7.8,7.1
					c-2.3,0-4.2-0.6-5.6-1.9c-1.2-1-1.7-2-2.2-3.8l4.4-0.7c0.5,1.8,1.5,2.6,3.4,2.6c1.9,0,3.2-1.3,3.2-3.1c0-1.7-1.4-3.1-3.1-3.1
					c-1.2,0-2.2,0.5-2.9,1.6l-3.8-0.6L347,290h12.6L359.1,294.1z M376.7,294.1h-8.7l-0.3,4.4c1.2-1.2,2.4-1.7,4.3-1.7
					c3.8,0,6.5,2.7,6.5,6.4c0,4.4-3,7.1-7.8,7.1c-2.3,0-4.2-0.6-5.6-1.9c-1.2-1-1.7-2-2.2-3.8l4.4-0.7c0.5,1.8,1.5,2.6,3.4,2.6
					c1.9,0,3.2-1.3,3.2-3.1c0-1.7-1.4-3.1-3.2-3.1c-1.2,0-2.2,0.5-2.9,1.6l-3.8-0.6l0.8-11.3h12.6L376.7,294.1z M384.2,289.8
					c2.5,0,4.2,2,4.2,5.2c0,3-1.6,5.1-4.2,5.1c-2.5,0-4.1-2-4.1-5.1C380.1,291.9,381.7,289.8,384.2,289.8z M384.2,291.6
					c-1.1,0-1.5,0.8-1.5,3.3c0,2.5,0.4,3.4,1.5,3.4c1,0,1.5-0.9,1.5-3.2C385.7,292.5,385.3,291.6,384.2,291.6z M382.9,310l11.1-20
					h2.2l-11.1,20H382.9z M394.9,299.9c2.5,0,4.2,2,4.2,5.2c0,3-1.6,5.1-4.2,5.1c-2.5,0-4.1-2-4.1-5.1
					C390.8,301.9,392.4,299.9,394.9,299.9z M394.9,301.7c-1.1,0-1.5,0.8-1.5,3.3c0,2.5,0.4,3.4,1.5,3.4c1,0,1.5-0.9,1.5-3.2
					C396.4,302.6,396,301.7,394.9,301.7z"/>
				<path class="st3" d="M360,238v3.6c-1.5,1.7-2.5,3.4-3.8,6.2c-1,2.3-1.8,6-1.8,8.8c0,0.3,0,0.8,0.1,1.5h-5.4
					c-0.2-5.1,2.8-12.1,6.8-15.9h-10.1l0.4-4.1H360z M370.4,237.7c4.8,0,7.9,4.1,7.9,10.4c0,2.8-0.8,5.5-2.2,7.4
					c-1.3,1.8-3.3,2.8-5.7,2.8c-2.3,0-4.3-1-5.6-2.7c-1.4-2-2.2-4.7-2.2-7.6c0-2.8,0.8-5.6,2.1-7.5C366,238.7,368,237.7,370.4,237.7
					z M370.4,241.1c-2.1,0-2.9,1.9-2.9,6.8c0,5.2,0.8,7,3,7c2.1,0,2.9-2,2.9-6.7C373.4,242.9,372.6,241.1,370.4,241.1z M384.2,237.8
					c2.5,0,4.2,2,4.2,5.2c0,3-1.6,5.1-4.2,5.1c-2.5,0-4.1-2-4.1-5.1C380.1,239.9,381.7,237.8,384.2,237.8z M384.2,239.6
					c-1.1,0-1.5,0.8-1.5,3.3c0,2.5,0.4,3.4,1.5,3.4c1,0,1.5-0.9,1.5-3.2C385.7,240.5,385.3,239.6,384.2,239.6z M382.9,258l11.1-20
					h2.2l-11.1,20H382.9z M394.9,247.9c2.5,0,4.2,2,4.2,5.2c0,3-1.6,5.1-4.2,5.1c-2.5,0-4.1-2-4.1-5.1
					C390.8,249.9,392.4,247.9,394.9,247.9z M394.9,249.7c-1.1,0-1.5,0.8-1.5,3.3c0,2.5,0.4,3.4,1.5,3.4c1,0,1.5-0.9,1.5-3.2
					C396.4,250.6,396,249.7,394.9,249.7z"/>
				<path class="st3" d="M359.1,190.1h-8.7l-0.3,4.4c1.2-1.2,2.4-1.7,4.3-1.7c3.8,0,6.5,2.7,6.5,6.4c0,4.4-3,7.1-7.8,7.1
					c-2.3,0-4.2-0.6-5.6-1.9c-1.2-1-1.7-1.9-2.2-3.8l4.4-0.7c0.5,1.8,1.5,2.6,3.4,2.6c1.9,0,3.2-1.3,3.2-3.1c0-1.7-1.4-3.2-3.1-3.2
					c-1.2,0-2.2,0.5-2.9,1.6l-3.8-0.6L347,186h12.6L359.1,190.1z M376.7,190.1h-8.7l-0.3,4.4c1.2-1.2,2.4-1.7,4.3-1.7
					c3.8,0,6.5,2.7,6.5,6.4c0,4.4-3,7.1-7.8,7.1c-2.3,0-4.2-0.6-5.6-1.9c-1.2-1-1.7-1.9-2.2-3.8l4.4-0.7c0.5,1.8,1.5,2.6,3.4,2.6
					c1.9,0,3.2-1.3,3.2-3.1c0-1.7-1.4-3.2-3.2-3.2c-1.2,0-2.2,0.5-2.9,1.6l-3.8-0.6l0.8-11.3h12.6L376.7,190.1z M384.2,185.8
					c2.5,0,4.2,2,4.2,5.2c0,3-1.6,5.1-4.2,5.1c-2.5,0-4.1-2-4.1-5.1C380.1,187.9,381.7,185.8,384.2,185.8z M384.2,187.6
					c-1.1,0-1.5,0.8-1.5,3.3c0,2.5,0.4,3.4,1.5,3.4c1,0,1.5-0.9,1.5-3.2C385.7,188.5,385.3,187.6,384.2,187.6z M382.9,206l11.1-20
					h2.2l-11.1,20H382.9z M394.9,195.9c2.5,0,4.2,2,4.2,5.2c0,3-1.6,5.1-4.2,5.1c-2.5,0-4.1-2-4.1-5.1
					C390.8,197.9,392.4,195.9,394.9,195.9z M394.9,197.7c-1.1,0-1.5,0.8-1.5,3.3c0,2.5,0.4,3.4,1.5,3.4c1,0,1.5-0.9,1.5-3.2
					C396.4,198.6,396,197.7,394.9,197.7z"/>
				<path class="st3" d="M362.4,140l-4,1.1c-0.5-2.1-1.4-3.1-3-3.1c-2.3,0-3.5,2.1-3.5,6.1v0.5c1-1.6,2.4-2.3,4.5-2.3
					c3.6,0,6.3,2.7,6.3,6.2c0,1.7-0.8,3.5-2,4.8c-1.3,1.3-3.1,1.9-5.3,1.9c-5.1,0-8.1-3.8-8.1-10.2c0-2.9,0.8-5.7,2.1-7.4
					c1.5-2.1,3.4-3,6.2-3c2.2,0,3.9,0.6,5.2,2C361.6,137.7,362,138.5,362.4,140z M355.1,145.6c-1.7,0-3,1.4-3,3.2
					c0,1.8,1.3,3.1,3,3.1s3-1.3,3-3.2C358,147,356.8,145.6,355.1,145.6z M372.4,134.7c4.8,0,7.9,4.1,7.9,10.4c0,2.8-0.8,5.5-2.2,7.4
					c-1.3,1.8-3.3,2.8-5.7,2.8c-2.3,0-4.3-1-5.6-2.7c-1.4-2-2.2-4.7-2.2-7.6c0-2.8,0.8-5.6,2.1-7.5C368,135.7,370,134.7,372.4,134.7
					z M372.4,138.1c-2.1,0-2.9,1.9-2.9,6.8c0,5.2,0.8,7,3,7c2.1,0,2.9-2,2.9-6.7C375.4,139.9,374.6,138.1,372.4,138.1z M386.2,134.8
					c2.5,0,4.2,2,4.2,5.2c0,3-1.6,5.1-4.2,5.1c-2.5,0-4.1-2-4.1-5.1C382.1,136.9,383.7,134.8,386.2,134.8z M386.2,136.6
					c-1.1,0-1.5,0.8-1.5,3.3c0,2.5,0.4,3.4,1.5,3.4c1,0,1.5-0.9,1.5-3.2C387.7,137.5,387.3,136.6,386.2,136.6z M384.9,155l11.1-20
					h2.2l-11.1,20H384.9z M396.9,144.9c2.5,0,4.2,2,4.2,5.2c0,3-1.6,5.1-4.2,5.1c-2.5,0-4.1-2-4.1-5.1
					C392.8,146.9,394.4,144.9,396.9,144.9z M396.9,146.7c-1.1,0-1.5,0.8-1.5,3.3c0,2.5,0.4,3.4,1.5,3.4c1,0,1.5-0.9,1.5-3.2
					C398.4,147.6,398,146.7,396.9,146.7z"/>
				<path id="Reality" class="st4" d="M333.6,10.4V17h-3.9V0.3h7.3c2.1,0,3.3,0.3,4.3,1.1c1.1,0.9,1.8,2.4,1.8,3.9
					c0,1.2-0.5,2.4-1.2,3.2c-0.4,0.4-0.8,0.7-1.6,1.1l3.1,7.4H339l-2.6-6.6H333.6z M333.6,3.3v4.2h2.4c1.3,0,1.6-0.1,2.1-0.4
					c0.6-0.3,1-1.1,1-1.8c0-0.7-0.3-1.3-0.8-1.7c-0.5-0.4-0.8-0.4-2.4-0.4H333.6z M356.2,11.4h-7.9c0,0.2,0,0.5,0,0.6
					c0,1.6,1,2.7,2.4,2.7c1.2,0,2-0.7,2.2-1.9l3.3,0.2c-0.4,1.3-0.8,1.9-1.4,2.6c-1.1,1.2-2.4,1.7-4.2,1.7c-3.6,0-6.1-2.5-6.1-6.3
					c0-3.8,2.4-6.5,5.9-6.5c2.1,0,3.9,1,4.8,2.6C356,8.2,356.2,9.3,356.2,11.4z M348.3,9.3h4.3c-0.1-1.8-0.8-2.5-2.1-2.5
					C349.2,6.8,348.5,7.6,348.3,9.3z M368.9,17h-3.5c-0.1-0.8-0.2-1-0.2-1.6c0,0,0-0.2,0-0.3c-1.2,1.6-2.2,2.2-4,2.2
					c-2.4,0-3.9-1.4-3.9-3.4c0-1.8,1-3.1,2.8-3.7c1-0.3,2.1-0.6,4.9-0.8V8.6c0-1.2-0.6-1.8-1.8-1.8c-1.2,0-2,0.6-2.1,1.8l-3.4-0.3
					c0.2-1.3,0.6-2,1.4-2.6c1.1-0.8,2.6-1.2,4.4-1.2c2,0,3.6,0.6,4.4,1.5c0.5,0.7,0.7,1.3,0.7,3.2v5.6
					C368.6,16.2,368.6,16.2,368.9,17z M365,12.2v-1.1c-1.1,0.1-1.6,0.2-2.2,0.4c-1.1,0.4-1.6,1-1.6,1.9c0,0.9,0.6,1.6,1.5,1.6
					C364,15,365,13.8,365,12.2z M371.3,17V0.3h3.6V17H371.3z M381.1,4.7V17h-3.6V4.7H381.1z M381.1,0v3.6h-3.6V0H381.1z M387.9,7.5
					v5.2c0,1.4,0.3,1.7,1.7,1.7c0.4,0,0.6,0,1.2-0.1V17c-1.6,0.2-1.7,0.3-2.3,0.3c-3,0-4.1-1.1-4.1-4V7.5h-2V4.7h2.1l0.3-3.7
					l3.1-0.2v3.9h2.6v2.8H387.9z M402.2,4.7l-3.9,11.8c-0.8,2.2-0.9,2.6-1.5,3.4c-0.7,1-1.7,1.4-3.4,1.4c-0.6,0-0.9,0-1.8-0.1v-2.8
					c0.8,0.1,1.2,0.1,1.8,0.1c1.2,0,1.7-0.3,2-1.5L391,4.7h3.9l2.4,7.3l2.3-7.3H402.2z"/>
				<path class="st3" d="M166.8,452.9h2.1c1.2,0,1.9-0.2,2.4-0.8c0.4-0.5,0.6-1,0.6-1.6c0-1.4-1.1-2.4-2.7-2.4
					c-1.6,0-2.5,0.8-3.1,2.5l-4.1-0.7c0.4-1.5,0.8-2.3,1.8-3.3c1.5-1.4,3.2-2.1,5.6-2.1c4.2,0,7.1,2.2,7.1,5.4
					c0,2.2-1.1,3.7-3.4,4.5c1.3,0.3,1.9,0.6,2.5,1.2c1,0.9,1.5,2.1,1.5,3.5c0,3.7-3,6-7.7,6c-2.5,0-4.3-0.6-5.8-2
					c-1.3-1.1-1.8-2.2-2.2-4.1l4.3-0.6c0.5,2.1,1.6,3.1,3.6,3.1c1.8,0,3.1-1.1,3.1-2.7c0-0.9-0.4-1.7-1-2.1
					c-0.5-0.3-1.2-0.4-2.8-0.4h-1.8V452.9z M191.6,454.2c2.7,1.2,3.7,2.6,3.7,4.9c0,3.8-3.2,6.2-8.3,6.2c-4.7,0-7.6-2.2-7.6-5.7
					c0-2.2,1-3.5,3.6-4.4c-2-1.2-2.9-2.6-2.9-4.6c0-1.6,0.8-3.2,2-4.3c1.3-1.1,3.1-1.6,5.3-1.6c4.2,0,7.1,2.1,7.1,5.3
					C194.7,451.9,193.8,453.2,191.6,454.2z M188.6,452.9c1.4-0.5,2-1.2,2-2.5c0-1.6-1.2-2.6-3.2-2.6c-1.6,0-2.7,0.8-2.7,2.1
					C184.6,451.2,185.4,451.8,188.6,452.9z M186.2,456.7c-1.8,0.6-2.5,1.4-2.5,2.7c0,1.7,1.3,2.7,3.7,2.7c2.1,0,3.4-0.8,3.4-2.1
					c0-1-0.6-1.8-1.8-2.3C188.3,457.4,188,457.3,186.2,456.7z M201.2,444.8c2.6,0,4.2,2,4.2,5.2c0,3-1.6,5.1-4.2,5.1
					c-2.5,0-4.1-2-4.1-5.1C197.1,446.9,198.7,444.8,201.2,444.8z M201.2,446.6c-1.1,0-1.5,0.8-1.5,3.3c0,2.5,0.4,3.4,1.5,3.4
					c1.1,0,1.5-0.9,1.5-3.2C202.7,447.5,202.3,446.6,201.2,446.6z M199.9,465l11.1-20h2.2l-11.1,20H199.9z M211.9,454.9
					c2.5,0,4.2,2,4.2,5.2c0,3-1.7,5.1-4.2,5.1c-2.5,0-4.1-2-4.1-5.1C207.8,456.9,209.4,454.9,211.9,454.9z M211.9,456.7
					c-1.1,0-1.5,0.8-1.5,3.3c0,2.5,0.4,3.4,1.5,3.4c1.1,0,1.5-0.9,1.5-3.2C213.4,457.6,213,456.7,211.9,456.7z"/>
				<path class="st3" d="M177.1,394v3.6c-1.5,1.7-2.5,3.4-3.8,6.2c-1.1,2.3-1.8,6-1.8,8.8c0,0.3,0,0.8,0.1,1.5h-5.4
					c-0.2-5.1,2.8-12.1,6.8-15.9h-10.1l0.4-4.1H177.1z M187.4,393.7c4.8,0,7.9,4,7.9,10.4c0,2.8-0.8,5.5-2.2,7.4
					c-1.3,1.8-3.3,2.8-5.7,2.8c-2.3,0-4.3-1-5.6-2.7c-1.4-2-2.2-4.6-2.2-7.6c0-2.9,0.8-5.6,2.1-7.5C183,394.7,185,393.7,187.4,393.7
					z M187.4,397c-2.1,0-2.9,1.9-2.9,6.8c0,5.2,0.8,7,3,7c2.1,0,2.9-2,2.9-6.7C190.4,398.9,189.6,397,187.4,397z M201.2,393.8
					c2.6,0,4.2,2,4.2,5.2c0,3-1.6,5.1-4.2,5.1c-2.5,0-4.1-2-4.1-5.1C197.1,395.9,198.7,393.8,201.2,393.8z M201.2,395.6
					c-1.1,0-1.5,0.8-1.5,3.3c0,2.5,0.4,3.4,1.5,3.4c1.1,0,1.5-0.9,1.5-3.2C202.7,396.5,202.3,395.6,201.2,395.6z M199.9,414l11.1-20
					h2.2l-11.1,20H199.9z M211.9,403.9c2.5,0,4.2,2,4.2,5.2c0,3-1.7,5.1-4.2,5.1c-2.5,0-4.1-2-4.1-5.1
					C207.8,405.9,209.4,403.9,211.9,403.9z M211.9,405.7c-1.1,0-1.5,0.8-1.5,3.3c0,2.5,0.4,3.4,1.5,3.4c1.1,0,1.5-0.9,1.5-3.2
					C213.4,406.6,213,405.7,211.9,405.7z"/>
				<path class="st3" d="M177.4,347l-4,1.1c-0.5-2.1-1.4-3.1-3-3.1c-2.3,0-3.5,2.1-3.5,6.2v0.5c1-1.6,2.4-2.3,4.5-2.3
					c3.6,0,6.3,2.7,6.3,6.1c0,1.7-0.8,3.5-2,4.8c-1.4,1.3-3.1,1.9-5.3,1.9c-5.1,0-8.1-3.8-8.1-10.2c0-2.9,0.8-5.7,2.1-7.4
					c1.5-2.1,3.4-3,6.1-3c2.2,0,3.9,0.6,5.2,2C176.6,344.7,177,345.5,177.4,347z M170.1,352.6c-1.7,0-3,1.4-3,3.2
					c0,1.8,1.3,3.1,3,3.1c1.7,0,3-1.3,3-3.2C173,354,171.8,352.6,170.1,352.6z M195,347l-4,1.1c-0.5-2.1-1.4-3.1-3-3.1
					c-2.3,0-3.5,2.1-3.5,6.2v0.5c1-1.6,2.4-2.3,4.5-2.3c3.6,0,6.3,2.7,6.3,6.1c0,1.7-0.8,3.5-2,4.8c-1.4,1.3-3.1,1.9-5.3,1.9
					c-5.1,0-8.1-3.8-8.1-10.2c0-2.9,0.8-5.7,2.1-7.4c1.5-2.1,3.4-3,6.1-3c2.2,0,3.9,0.6,5.2,2C194.2,344.7,194.6,345.5,195,347z
					 M187.7,352.6c-1.7,0-3,1.4-3,3.2c0,1.8,1.3,3.1,3,3.1s3-1.3,3-3.2C190.6,354,189.4,352.6,187.7,352.6z M201.2,341.8
					c2.6,0,4.2,2,4.2,5.2c0,3-1.6,5.1-4.2,5.1c-2.5,0-4.1-2-4.1-5.1C197.1,343.9,198.7,341.8,201.2,341.8z M201.2,343.6
					c-1.1,0-1.5,0.8-1.5,3.3c0,2.5,0.4,3.4,1.5,3.4c1.1,0,1.5-0.9,1.5-3.2C202.7,344.5,202.3,343.6,201.2,343.6z M199.9,362l11.1-20
					h2.2l-11.1,20H199.9z M211.9,351.9c2.5,0,4.2,2,4.2,5.2c0,3-1.7,5.1-4.2,5.1c-2.5,0-4.1-2-4.1-5.1
					C207.8,353.9,209.4,351.9,211.9,351.9z M211.9,353.7c-1.1,0-1.5,0.8-1.5,3.3c0,2.5,0.4,3.4,1.5,3.4c1.1,0,1.5-0.9,1.5-3.2
					C213.4,354.6,213,353.7,211.9,353.7z"/>
				<path class="st3" d="M177.1,290v3.6c-1.5,1.7-2.5,3.4-3.8,6.2c-1.1,2.3-1.8,6-1.8,8.8c0,0.3,0,0.8,0.1,1.5h-5.4
					c-0.2-5.1,2.8-12.1,6.8-15.9h-10.1l0.4-4.1H177.1z M194.9,306l-0.3,4h-15v-3.9c0.6-0.5,1-0.8,1.2-0.9l2.4-1.7
					c1.5-1.1,4-3.1,5.2-4.3c1-1,1.5-2.1,1.5-3.1c0-1.6-1.1-2.7-2.8-2.7c-2,0-3.1,1.3-3.4,3.8l-4.1-0.9c0.9-4.4,3.5-6.6,7.8-6.6
					c2.2,0,3.7,0.5,5,1.5c1.5,1.2,2.3,2.8,2.3,4.8c0,2.5-1.1,4.4-4.2,6.7c-1.2,0.9-2.3,1.6-5.1,3.3H194.9z M201.2,289.8
					c2.6,0,4.2,2,4.2,5.2c0,3-1.6,5.1-4.2,5.1c-2.5,0-4.1-2-4.1-5.1C197.1,291.9,198.7,289.8,201.2,289.8z M201.2,291.6
					c-1.1,0-1.5,0.8-1.5,3.3c0,2.5,0.4,3.4,1.5,3.4c1.1,0,1.5-0.9,1.5-3.2C202.7,292.5,202.3,291.6,201.2,291.6z M199.9,310l11.1-20
					h2.2l-11.1,20H199.9z M211.9,299.9c2.5,0,4.2,2,4.2,5.2c0,3-1.7,5.1-4.2,5.1c-2.5,0-4.1-2-4.1-5.1
					C207.8,301.9,209.4,299.9,211.9,299.9z M211.9,301.7c-1.1,0-1.5,0.8-1.5,3.3c0,2.5,0.4,3.4,1.5,3.4c1.1,0,1.5-0.9,1.5-3.2
					C213.4,302.6,213,301.7,211.9,301.7z"/>
				<path class="st3" d="M177.1,238v3.6c-1.5,1.7-2.5,3.4-3.8,6.2c-1.1,2.3-1.8,6-1.8,8.8c0,0.3,0,0.8,0.1,1.5h-5.4
					c-0.2-5.1,2.8-12.1,6.8-15.9h-10.1l0.4-4.1H177.1z M184.4,245.9h2.1c1.2,0,1.9-0.2,2.4-0.8c0.4-0.5,0.6-1,0.6-1.6
					c0-1.4-1.1-2.4-2.7-2.4c-1.6,0-2.5,0.8-3.1,2.6l-4.1-0.7c0.4-1.5,0.8-2.3,1.8-3.3c1.5-1.4,3.2-2.1,5.6-2.1
					c4.2,0,7.1,2.2,7.1,5.4c0,2.2-1.1,3.7-3.4,4.5c1.3,0.3,1.9,0.6,2.5,1.2c1,0.9,1.5,2.1,1.5,3.5c0,3.7-3,6-7.7,6
					c-2.5,0-4.3-0.6-5.8-2c-1.3-1.1-1.8-2.2-2.2-4.1l4.3-0.6c0.5,2.1,1.6,3.1,3.6,3.1c1.8,0,3.1-1.1,3.1-2.7c0-0.9-0.4-1.7-1-2.1
					c-0.5-0.3-1.2-0.4-2.8-0.4h-1.8V245.9z M201.2,237.8c2.6,0,4.2,2,4.2,5.2c0,3-1.6,5.1-4.2,5.1c-2.5,0-4.1-2-4.1-5.1
					C197.1,239.9,198.7,237.8,201.2,237.8z M201.2,239.6c-1.1,0-1.5,0.8-1.5,3.3c0,2.5,0.4,3.4,1.5,3.4c1.1,0,1.5-0.9,1.5-3.2
					C202.7,240.5,202.3,239.6,201.2,239.6z M199.9,258l11.1-20h2.2l-11.1,20H199.9z M211.9,247.9c2.5,0,4.2,2,4.2,5.2
					c0,3-1.7,5.1-4.2,5.1c-2.5,0-4.1-2-4.1-5.1C207.8,249.9,209.4,247.9,211.9,247.9z M211.9,249.7c-1.1,0-1.5,0.8-1.5,3.3
					c0,2.5,0.4,3.4,1.5,3.4c1.1,0,1.5-0.9,1.5-3.2C213.4,250.6,213,249.7,211.9,249.7z"/>
				<path class="st3" d="M177.4,191l-4,1.1c-0.5-2.1-1.4-3.1-3-3.1c-2.3,0-3.5,2.1-3.5,6.1v0.5c1-1.6,2.4-2.3,4.5-2.3
					c3.6,0,6.3,2.7,6.3,6.2c0,1.7-0.8,3.5-2,4.8c-1.4,1.3-3.1,1.9-5.3,1.9c-5.1,0-8.1-3.8-8.1-10.2c0-2.9,0.8-5.7,2.1-7.4
					c1.5-2.1,3.4-3,6.1-3c2.2,0,3.9,0.6,5.2,2C176.6,188.7,177,189.5,177.4,191z M170.1,196.6c-1.7,0-3,1.4-3,3.2
					c0,1.8,1.3,3.1,3,3.1c1.7,0,3-1.3,3-3.2C173,198,171.8,196.6,170.1,196.6z M192.7,185.7v12.2h2.8v3.5h-2.8v4.6H188v-4.6h-8.7
					v-3.5l8.1-12.2H192.7z M182.8,197.9h5.4v-6.8c0-0.1,0-0.5,0-1l0-0.8L182.8,197.9z M201.2,185.8c2.6,0,4.2,2,4.2,5.2
					c0,3-1.6,5.1-4.2,5.1c-2.5,0-4.1-2-4.1-5.1C197.1,187.9,198.7,185.8,201.2,185.8z M201.2,187.6c-1.1,0-1.5,0.8-1.5,3.3
					c0,2.5,0.4,3.4,1.5,3.4c1.1,0,1.5-0.9,1.5-3.2C202.7,188.5,202.3,187.6,201.2,187.6z M199.9,206l11.1-20h2.2l-11.1,20H199.9z
					 M211.9,195.9c2.5,0,4.2,2,4.2,5.2c0,3-1.7,5.1-4.2,5.1c-2.5,0-4.1-2-4.1-5.1C207.8,197.9,209.4,195.9,211.9,195.9z
					 M211.9,197.7c-1.1,0-1.5,0.8-1.5,3.3c0,2.5,0.4,3.4,1.5,3.4c1.1,0,1.5-0.9,1.5-3.2C213.4,198.6,213,197.7,211.9,197.7z"/>
				<path class="st3" d="M177.1,135v3.6c-1.5,1.7-2.5,3.4-3.8,6.2c-1.1,2.3-1.8,6-1.8,8.8c0,0.3,0,0.8,0.1,1.5h-5.4
					c-0.2-5.1,2.8-12.1,6.8-15.9h-10.1l0.4-4.1H177.1z M193.7,139.1h-8.7l-0.3,4.4c1.2-1.2,2.4-1.7,4.3-1.7c3.8,0,6.5,2.7,6.5,6.4
					c0,4.4-3,7.1-7.8,7.1c-2.3,0-4.2-0.6-5.6-1.9c-1.2-1-1.7-1.9-2.2-3.8l4.4-0.7c0.5,1.8,1.5,2.6,3.4,2.6c1.9,0,3.2-1.3,3.2-3.1
					c0-1.7-1.4-3.2-3.1-3.2c-1.2,0-2.2,0.5-2.9,1.6l-3.8-0.6l0.8-11.3h12.6L193.7,139.1z M201.2,134.8c2.6,0,4.2,2,4.2,5.2
					c0,3-1.6,5.1-4.2,5.1c-2.5,0-4.1-2-4.1-5.1C197.1,136.9,198.7,134.8,201.2,134.8z M201.2,136.6c-1.1,0-1.5,0.8-1.5,3.3
					c0,2.5,0.4,3.4,1.5,3.4c1.1,0,1.5-0.9,1.5-3.2C202.7,137.5,202.3,136.6,201.2,136.6z M199.9,155l11.1-20h2.2l-11.1,20H199.9z
					 M211.9,144.9c2.5,0,4.2,2,4.2,5.2c0,3-1.7,5.1-4.2,5.1c-2.5,0-4.1-2-4.1-5.1C207.8,146.9,209.4,144.9,211.9,144.9z
					 M211.9,146.7c-1.1,0-1.5,0.8-1.5,3.3c0,2.5,0.4,3.4,1.5,3.4c1.1,0,1.5-0.9,1.5-3.2C213.4,147.6,213,146.7,211.9,146.7z"/>
				<path id="Expectation" class="st2" d="M117.3,3.5h-7.9v3.4h6.2v3.1h-6.2v3.6h7.9V17h-11.9V0.3h11.9V3.5z M129.7,4.7l-3.5,5.7
					l4.2,6.6h-4.2l-2.6-4.2l-2.5,4.2H118l4.1-6.6l-3.5-5.7h4.2l2,3.3l2-3.3H129.7z M131.8,21.2V4.7h3.4v1.8c0.6-1.4,1.7-2,3.2-2
					c2.8,0,4.5,2.4,4.5,6.3c0,4.1-1.7,6.5-4.6,6.5c-1.4,0-2.3-0.5-3-1.6v5.5H131.8z M135.3,9.8v1.8c0,1.3,0.1,1.8,0.4,2.2
					c0.3,0.5,1,0.9,1.6,0.9s1.1-0.3,1.4-0.9c0.4-0.5,0.5-1.6,0.5-3c0-2.6-0.6-3.8-1.9-3.8C136.1,6.9,135.3,8,135.3,9.8z M156.4,11.4
					h-7.9c0,0.2,0,0.5,0,0.6c0,1.6,0.9,2.7,2.4,2.7c1.2,0,1.9-0.7,2.2-1.9l3.3,0.2c-0.4,1.3-0.8,1.9-1.4,2.6
					c-1.1,1.2-2.4,1.7-4.2,1.7c-3.7,0-6.1-2.5-6.1-6.3c0-3.8,2.4-6.5,6-6.5c2,0,3.9,1,4.8,2.6C156.1,8.2,156.3,9.3,156.4,11.4z
					 M148.4,9.3h4.4c-0.2-1.8-0.8-2.5-2.1-2.5C149.3,6.8,148.6,7.6,148.4,9.3z M166.1,12.2l3.4,0.2c-0.2,1.3-0.4,2-1.1,2.8
					c-1,1.4-2.6,2.1-4.6,2.1c-3.6,0-5.9-2.5-5.9-6.3c0-3.9,2.5-6.5,6.1-6.5c1.8,0,3.1,0.6,4.2,1.7c0.8,0.9,1.1,1.6,1.3,3l-3.4,0.2
					c-0.2-1.6-0.8-2.2-1.9-2.2c-1.5,0-2.1,1.2-2.1,3.7c0,2.5,0.6,3.5,2,3.5C165.2,14.3,165.9,13.6,166.1,12.2z M176.2,7.5v5.2
					c0,1.4,0.3,1.7,1.7,1.7c0.3,0,0.6,0,1.1-0.1V17c-1.6,0.2-1.7,0.3-2.3,0.3c-3,0-4.1-1.1-4.1-4V7.5h-2V4.7h2.2l0.3-3.7l3.1-0.2
					v3.9h2.6v2.8H176.2z M192.1,17h-3.5c-0.1-0.8-0.2-1-0.2-1.6c0,0,0-0.2,0-0.3c-1.2,1.6-2.2,2.2-3.9,2.2c-2.4,0-3.9-1.4-3.9-3.4
					c0-1.8,1-3.1,2.8-3.7c1-0.3,2.1-0.6,4.9-0.8V8.6c0-1.2-0.6-1.8-1.8-1.8c-1.2,0-1.9,0.6-2.1,1.8L181,8.3c0.2-1.3,0.6-2,1.4-2.6
					c1.1-0.8,2.6-1.2,4.4-1.2c2,0,3.6,0.6,4.4,1.5c0.5,0.7,0.7,1.3,0.7,3.2v5.6C191.9,16.2,191.9,16.2,192.1,17z M188.3,12.2v-1.1
					c-1.1,0.1-1.6,0.2-2.2,0.4c-1.1,0.4-1.6,1-1.6,1.9c0,0.9,0.6,1.6,1.6,1.6C187.3,15,188.3,13.8,188.3,12.2z M199,7.5v5.2
					c0,1.4,0.3,1.7,1.7,1.7c0.4,0,0.6,0,1.2-0.1V17c-1.6,0.2-1.7,0.3-2.3,0.3c-3,0-4.2-1.1-4.2-4V7.5h-1.9V4.7h2.1l0.3-3.7l3.1-0.2
					v3.9h2.7v2.8H199z M207.4,4.7V17h-3.6V4.7H207.4z M207.4,0v3.6h-3.6V0H207.4z M215.5,4.4c3.6,0,6,2.5,6,6.4c0,3.8-2.4,6.4-6,6.4
					c-1.8,0-3.2-0.6-4.3-1.9c-1.1-1.2-1.5-2.7-1.5-4.6C209.7,7,212.1,4.4,215.5,4.4z M215.6,6.8c-1.5,0-2.1,1.1-2.1,3.7
					c0,3.1,0.6,4.4,2.1,4.4c1.4,0,2.1-1.2,2.1-3.9C217.7,7.9,217.1,6.8,215.6,6.8z M234.5,17h-3.6v-6.9c0-1.3,0-1.6-0.2-2
					c-0.2-0.5-0.7-0.8-1.3-0.8c-1.2,0-1.9,1-1.9,2.8V17h-3.6V4.7h3.4v2.1c1.1-1.8,1.9-2.3,3.6-2.3c1.2,0,2.3,0.4,2.9,1.2
					c0.6,0.7,0.8,1.7,0.8,3.5V17z"/>
				<path id="Whatthenextwaveofself-employedprofessionalsexpect." class="st2" d="M83.9,29L81,41h-1.5l-2.6-9.3L74.5,41h-1.5l-3-12
					h1.5l2.4,9.7l2.6-9.7h1.2l2.8,9.7l2.2-9.7H83.9z M92.4,41h-1.4v-5.4c0-0.9,0-1.2-0.2-1.6c-0.2-0.6-0.9-1-1.5-1
					c-0.6,0-1.3,0.3-1.7,0.8c-0.5,0.6-0.7,1.3-0.7,2.3V41h-1.4V29h1.4v4.8c0.7-1.3,1.5-1.9,2.7-1.9c1,0,1.8,0.4,2.3,1.2
					c0.4,0.6,0.5,1.1,0.5,2.6V41z M102.2,41h-1.4c-0.1-0.4-0.1-0.6-0.2-1.6c-0.7,1.3-1.6,1.8-3.1,1.8c-1.8,0-3.1-1.1-3.1-2.7
					c0-1,0.6-2,1.5-2.4c0.8-0.4,2-0.6,3.6-0.6c0.3,0,0.6,0,1.2,0v-0.3c0-1.7-0.6-2.3-2.3-2.3c-1.3,0-2.1,0.6-2.4,1.6l-1.3-0.2
					c0.1-0.7,0.3-1,0.7-1.4c0.7-0.7,1.8-1.1,3.3-1.1c1.3,0,2.2,0.3,2.8,1c0.4,0.6,0.6,1.3,0.6,2.6v3.8C102,39.9,102,40.5,102.2,41z
					 M100.6,36.6c-0.5,0-1,0-1.2,0c-2.3,0-3.6,0.7-3.6,2.1c0,1,0.7,1.6,1.9,1.6c1.6,0,2.9-1.3,2.9-3C100.6,37,100.6,36.8,100.6,36.6
					z M108.5,40v1.1c-0.6,0.1-0.9,0.1-1.3,0.1c-1.7,0-2.5-0.9-2.5-2.7v-5.3h-1.6v-1.1h1.6l0.1-2.2l1.3-0.1v2.3h2v1.1h-2v5.6
					c0,0.9,0.5,1.4,1.4,1.4C107.8,40.2,108.1,40.1,108.5,40z M118.6,40v1.1c-0.6,0.1-0.9,0.1-1.3,0.1c-1.7,0-2.5-0.9-2.5-2.7v-5.3
					h-1.6v-1.1h1.6l0.1-2.2l1.3-0.1v2.3h2v1.1h-2v5.6c0,0.9,0.5,1.4,1.4,1.4C117.8,40.2,118.1,40.1,118.6,40z M127,41h-1.4v-5.4
					c0-0.9,0-1.2-0.2-1.6c-0.2-0.6-0.9-1-1.5-1c-0.6,0-1.3,0.3-1.7,0.8c-0.5,0.6-0.7,1.3-0.7,2.3V41H120V29h1.4v4.8
					c0.7-1.3,1.5-1.9,2.7-1.9c1,0,1.8,0.4,2.3,1.2c0.4,0.6,0.5,1.1,0.5,2.6V41z M135.6,38.4l1.3,0.3c-0.6,1.6-2,2.6-3.8,2.6
					c-2.4,0-4.1-1.9-4.1-4.6c0-2.8,1.7-4.7,4.1-4.7c1.5,0,2.7,0.8,3.3,2.1c0.4,0.8,0.5,1.5,0.5,2.7h-6.5c0,1,0.1,1.5,0.4,2.1
					c0.4,0.8,1.3,1.3,2.3,1.3c0.7,0,1.4-0.3,1.9-0.8C135.3,39.1,135.4,38.8,135.6,38.4z M130.6,35.7h4.9c0-0.8-0.1-1.2-0.5-1.8
					c-0.4-0.6-1-0.9-1.8-0.9c-0.8,0-1.4,0.3-1.9,0.9C130.9,34.4,130.7,34.8,130.6,35.7z M150.6,41h-1.3v-5.7c0-1.4-0.6-2.2-1.8-2.2
					c-1.4,0-2.5,1.3-2.5,3V41h-1.4v-8.9h1.3v1.6c0.9-1.4,1.6-1.9,2.8-1.9c1.1,0,2.1,0.6,2.6,1.5c0.2,0.5,0.3,1.1,0.3,2.4V41z
					 M159.2,38.4l1.3,0.3c-0.6,1.6-2,2.6-3.8,2.6c-2.4,0-4.1-1.9-4.1-4.6c0-2.8,1.7-4.7,4.1-4.7c1.5,0,2.7,0.8,3.3,2.1
					c0.4,0.8,0.5,1.5,0.5,2.7h-6.5c0,1,0.1,1.5,0.4,2.1c0.4,0.8,1.3,1.3,2.3,1.3c0.7,0,1.4-0.3,1.9-0.8
					C158.9,39.1,159,38.8,159.2,38.4z M154.3,35.7h4.9c0-0.8-0.1-1.2-0.5-1.8c-0.4-0.6-1-0.9-1.8-0.9c-0.8,0-1.4,0.3-1.9,0.9
					C154.5,34.4,154.4,34.8,154.3,35.7z M168.6,41H167l-2.2-3.6l-2.3,3.6h-1.4l3-4.6l-2.7-4.3h1.6l1.9,3l1.9-3h1.3l-2.6,4L168.6,41z
					 M174.1,40v1.1c-0.6,0.1-0.9,0.1-1.3,0.1c-1.7,0-2.5-0.9-2.5-2.7v-5.3h-1.6v-1.1h1.6l0.1-2.2l1.3-0.1v2.3h2v1.1h-2v5.6
					c0,0.9,0.5,1.4,1.4,1.4C173.3,40.2,173.6,40.1,174.1,40z M190.3,32.1l-2.6,8.9h-1.1l-2-6.6l-1.8,6.6h-1.1l-2.7-8.9h1.4l1.9,6.6
					l1.9-6.6h1l2,6.6l2-6.6H190.3z M198.8,41h-1.4c-0.1-0.4-0.1-0.6-0.2-1.6c-0.7,1.3-1.6,1.8-3.1,1.8c-1.8,0-3.1-1.1-3.1-2.7
					c0-1,0.6-2,1.5-2.4c0.8-0.4,2-0.6,3.6-0.6c0.3,0,0.6,0,1.2,0v-0.3c0-1.7-0.6-2.3-2.3-2.3c-1.3,0-2.1,0.6-2.4,1.6l-1.3-0.2
					c0.1-0.7,0.3-1,0.7-1.4c0.7-0.7,1.8-1.1,3.3-1.1c1.3,0,2.2,0.3,2.8,1c0.4,0.6,0.6,1.3,0.6,2.6v3.8
					C198.6,39.9,198.6,40.5,198.8,41z M197.3,36.6c-0.5,0-1,0-1.2,0c-2.3,0-3.6,0.7-3.6,2.1c0,1,0.7,1.6,1.9,1.6
					c1.6,0,2.9-1.3,2.9-3C197.3,37,197.3,36.8,197.3,36.6z M207.5,32.1l-3.1,8.9H203l-3.2-8.9h1.5l2.5,7.2l2.4-7.2H207.5z
					 M214.6,38.4l1.3,0.3c-0.6,1.6-2,2.6-3.8,2.6c-2.4,0-4.1-1.9-4.1-4.6c0-2.8,1.7-4.7,4.1-4.7c1.5,0,2.7,0.8,3.3,2.1
					c0.4,0.8,0.5,1.5,0.5,2.7h-6.5c0,1,0.1,1.5,0.4,2.1c0.4,0.8,1.3,1.3,2.3,1.3c0.7,0,1.4-0.3,1.9-0.8
					C214.3,39.1,214.4,38.8,214.6,38.4z M209.7,35.7h4.9c0-0.8-0.1-1.2-0.5-1.8c-0.4-0.6-1-0.9-1.8-0.9c-0.8,0-1.4,0.3-1.9,0.9
					C209.9,34.4,209.8,34.8,209.7,35.7z M226,31.9c2.4,0,4,1.9,4,4.8c0,2.7-1.7,4.6-4.1,4.6c-2.3,0-3.9-1.9-3.9-4.7
					C221.9,33.8,223.6,31.9,226,31.9z M225.9,33c-0.7,0-1.4,0.4-1.8,1c-0.4,0.6-0.6,1.4-0.6,2.5c0,2.3,0.9,3.6,2.5,3.6
					c1.5,0,2.5-1.3,2.5-3.5c0-1.2-0.2-2-0.6-2.6C227.3,33.4,226.6,33,225.9,33z M235.7,32.1v1.1h-2.2V41h-1.3v-7.8h-1.6v-1.1h1.6
					c0-1.1,0.1-1.5,0.3-2c0.3-0.9,1.2-1.4,2.4-1.4c0.4,0,0.7,0,1.3,0.1V30c-0.4-0.1-0.6-0.1-0.8-0.1c-0.9,0-1.5,0.3-1.7,0.8
					c-0.2,0.4-0.2,0.4-0.2,1.4H235.7z M132.1,59.7l1.3-0.3c0.1,0.5,0.3,0.8,0.6,1c0.5,0.4,1.4,0.7,2.2,0.7c1.2,0,2.1-0.6,2.1-1.4
					c0-0.7-0.5-1.2-1.5-1.4l-1.9-0.3c-1.5-0.3-2.4-1.2-2.4-2.4c0-1.6,1.3-2.6,3.3-2.6c1.9,0,3.1,0.8,3.5,2.2l-1.3,0.3
					c-0.4-1-1.1-1.4-2.3-1.4c-1.2,0-1.9,0.5-1.9,1.3c0,0.7,0.4,1.1,1.4,1.2l1.7,0.3c1.8,0.3,2.7,1.2,2.7,2.6c0,1.6-1.5,2.7-3.7,2.7
					c-1.3,0-2.3-0.3-3-1C132.5,60.8,132.3,60.5,132.1,59.7z M147.5,59.4l1.3,0.3c-0.6,1.6-2,2.6-3.8,2.6c-2.4,0-4.1-1.9-4.1-4.6
					c0-2.8,1.7-4.7,4.1-4.7c1.5,0,2.7,0.8,3.3,2.1c0.4,0.8,0.5,1.5,0.5,2.7h-6.5c0,1,0.1,1.5,0.4,2.1c0.4,0.8,1.3,1.3,2.3,1.3
					c0.7,0,1.4-0.3,1.9-0.8C147.1,60.1,147.3,59.8,147.5,59.4z M142.5,56.7h4.9c0-0.8-0.1-1.2-0.5-1.8c-0.4-0.6-1-0.9-1.8-0.9
					c-0.8,0-1.4,0.3-1.9,0.9C142.8,55.4,142.6,55.8,142.5,56.7z M152.2,62h-1.4V50h1.4V62z M158.6,53.1v1.1h-2.2V62h-1.3v-7.8h-1.6
					v-1.1h1.6c0-1.1,0.1-1.5,0.3-2c0.3-0.9,1.2-1.4,2.4-1.4c0.4,0,0.7,0,1.3,0.1V51c-0.4-0.1-0.6-0.1-0.8-0.1
					c-0.9,0-1.5,0.3-1.7,0.8c-0.2,0.4-0.2,0.5-0.2,1.4H158.6z M163,57V58h-4V57H163z M170.5,59.4l1.3,0.3c-0.6,1.6-2,2.6-3.8,2.6
					c-2.4,0-4.1-1.9-4.1-4.6c0-2.8,1.7-4.7,4.1-4.7c1.5,0,2.7,0.8,3.3,2.1c0.4,0.8,0.5,1.5,0.5,2.7h-6.5c0,1,0.1,1.5,0.4,2.1
					c0.4,0.8,1.3,1.3,2.3,1.3c0.7,0,1.4-0.3,1.9-0.8C170.1,60.1,170.3,59.8,170.5,59.4z M165.5,56.7h4.9c0-0.8-0.1-1.2-0.5-1.8
					c-0.4-0.6-1-0.9-1.8-0.9c-0.8,0-1.4,0.3-1.9,0.9C165.7,55.4,165.6,55.8,165.5,56.7z M185.9,62h-1.3v-5.5c0-1-0.1-1.2-0.3-1.6
					c-0.3-0.5-0.9-0.8-1.4-0.8s-1.1,0.3-1.6,0.8c-0.5,0.6-0.7,1.2-0.7,2.1v5h-1.3v-5.8c0-0.7-0.1-1.1-0.4-1.5
					c-0.3-0.4-0.8-0.6-1.3-0.6c-1.2,0-2.2,1.2-2.2,2.7V62H174v-8.9h1.2v1.7c0.6-1.3,1.6-1.9,2.7-1.9c1.2,0,2.1,0.8,2.5,2.1
					c0.6-1.4,1.6-2.1,2.8-2.1c0.9,0,1.8,0.5,2.3,1.3c0.3,0.5,0.4,1.1,0.4,2.3V62z M189.8,65h-1.4V53.1h1.2v1.7c0.7-1.4,1.5-2,2.8-2
					c2.1,0,3.5,1.9,3.5,4.7c0,2.8-1.4,4.7-3.5,4.7c-1.2,0-1.9-0.4-2.6-1.6V65z M189.8,56.3v2.5c0.2,1.3,1.2,2.3,2.4,2.3
					c0.6,0,1.3-0.3,1.6-0.8c0.4-0.6,0.7-1.4,0.7-2.6c0-2.2-0.9-3.5-2.3-3.5C191,54.1,190.1,54.9,189.8,56.3z M199.4,62H198V50h1.4
					V62z M205.5,52.9c2.4,0,4,1.9,4,4.8c0,2.7-1.7,4.6-4.1,4.6c-2.3,0-3.9-1.9-3.9-4.7C201.4,54.8,203.1,52.9,205.5,52.9z M205.4,54
					c-0.7,0-1.4,0.4-1.8,1c-0.4,0.6-0.6,1.4-0.6,2.5c0,2.3,0.9,3.6,2.5,3.6c1.5,0,2.5-1.3,2.5-3.5c0-1.2-0.2-2-0.6-2.6
					C206.8,54.4,206.1,54,205.4,54z M217.2,53.1l-3.6,9.9c-0.3,0.8-0.7,1.4-1.2,1.8c-0.3,0.2-0.8,0.3-1.4,0.3c-0.4,0-0.6,0-1-0.1
					v-1.1c0.4,0.1,0.6,0.1,0.9,0.1c0.6,0,1.1-0.2,1.4-0.8c0.2-0.3,0.3-0.7,0.6-1.5l-3.1-8.7h1.4l2.4,6.7l2.4-6.7H217.2z M224.2,59.4
					l1.3,0.3c-0.6,1.6-2,2.6-3.8,2.6c-2.4,0-4.1-1.9-4.1-4.6c0-2.8,1.7-4.7,4.1-4.7c1.5,0,2.7,0.8,3.3,2.1c0.4,0.8,0.5,1.5,0.5,2.7
					h-6.5c0,1,0.1,1.5,0.4,2.1c0.4,0.8,1.3,1.3,2.3,1.3c0.7,0,1.4-0.3,1.9-0.8C223.9,60.1,224,59.8,224.2,59.4z M219.2,56.7h4.9
					c0-0.8-0.1-1.2-0.5-1.8c-0.4-0.6-1-0.9-1.8-0.9c-0.8,0-1.4,0.3-1.9,0.9C219.5,55.4,219.3,55.8,219.2,56.7z M234.6,50v12h-1.3
					v-1.5c-0.7,1.3-1.5,1.8-2.8,1.8c-2.1,0-3.6-1.9-3.6-4.6c0-2.8,1.5-4.8,3.6-4.8c1.1,0,1.8,0.4,2.6,1.4V50H234.6z M233.2,58.4
					v-1.9c-0.1-0.8-0.2-1.2-0.5-1.6c-0.4-0.6-1.2-0.9-1.9-0.9c-1.4,0-2.3,1.4-2.3,3.5c0,2.3,0.8,3.7,2.3,3.7c0.7,0,1.3-0.3,1.8-0.9
					C233,59.7,233.2,59.3,233.2,58.4z M78.7,86h-1.4V74.1h1.2v1.7c0.7-1.4,1.5-2,2.8-2c2.1,0,3.5,1.9,3.5,4.7c0,2.8-1.4,4.7-3.5,4.7
					c-1.2,0-1.9-0.4-2.6-1.6V86z M78.7,77.3v2.5c0.2,1.3,1.2,2.3,2.4,2.3c0.6,0,1.3-0.3,1.6-0.8c0.4-0.6,0.7-1.4,0.7-2.6
					c0-2.2-0.9-3.5-2.3-3.5C80,75.1,79.1,75.9,78.7,77.3z M88.3,83h-1.4v-8.9h1.2v2.1c0.4-0.9,0.6-1.2,0.9-1.5
					c0.4-0.5,1.1-0.8,1.7-0.8c0.1,0,0.3,0,0.5,0v1.3c-1.7-0.1-3,1.2-3,3.1V83z M95.9,73.9c2.4,0,4,1.9,4,4.8c0,2.7-1.7,4.6-4.1,4.6
					c-2.3,0-3.9-1.9-3.9-4.7C91.9,75.8,93.5,73.9,95.9,73.9z M95.9,75c-0.7,0-1.4,0.4-1.8,1c-0.4,0.6-0.6,1.4-0.6,2.5
					c0,2.3,0.9,3.6,2.5,3.6c1.5,0,2.5-1.3,2.5-3.5c0-1.2-0.2-2-0.6-2.6C97.3,75.4,96.6,75,95.9,75z M105.6,74.1v1.1h-2.2V83h-1.3
					v-7.8h-1.6v-1.1h1.6c0-1.1,0.1-1.5,0.3-2c0.3-0.9,1.2-1.4,2.4-1.4c0.4,0,0.7,0,1.3,0.1V72c-0.4-0.1-0.6-0.1-0.8-0.1
					c-0.9,0-1.5,0.3-1.7,0.8c-0.2,0.4-0.2,0.4-0.2,1.4H105.6z M112.8,80.4l1.3,0.3c-0.6,1.6-2,2.6-3.8,2.6c-2.4,0-4.1-1.9-4.1-4.6
					c0-2.8,1.7-4.7,4.1-4.7c1.5,0,2.7,0.8,3.3,2.1c0.4,0.8,0.5,1.5,0.5,2.7h-6.5c0,1,0.1,1.5,0.4,2.1c0.4,0.8,1.3,1.3,2.3,1.3
					c0.7,0,1.4-0.3,1.9-0.8C112.5,81.1,112.6,80.8,112.8,80.4z M107.9,77.7h4.9c0-0.8-0.1-1.2-0.5-1.8c-0.4-0.6-1-0.9-1.8-0.9
					c-0.8,0-1.4,0.3-1.9,0.9C108.1,76.4,108,76.8,107.9,77.7z M115.3,80.7l1.3-0.3c0.1,0.5,0.3,0.8,0.6,1c0.5,0.4,1.3,0.7,2.2,0.7
					c1.2,0,2.1-0.6,2.1-1.4c0-0.7-0.5-1.2-1.5-1.4l-1.9-0.3c-1.5-0.3-2.4-1.2-2.4-2.4c0-1.6,1.3-2.6,3.3-2.6c1.9,0,3.1,0.8,3.5,2.2
					l-1.3,0.3c-0.4-1-1.1-1.4-2.3-1.4c-1.2,0-1.9,0.5-1.9,1.3c0,0.7,0.5,1.1,1.4,1.2l1.7,0.3c1.8,0.3,2.7,1.2,2.7,2.6
					c0,1.6-1.5,2.7-3.7,2.7c-1.3,0-2.3-0.3-3-1C115.7,81.8,115.5,81.5,115.3,80.7z M123.9,80.7l1.3-0.3c0.1,0.5,0.3,0.8,0.6,1
					c0.5,0.4,1.3,0.7,2.2,0.7c1.2,0,2.1-0.6,2.1-1.4c0-0.7-0.5-1.2-1.5-1.4l-1.9-0.3c-1.5-0.3-2.4-1.2-2.4-2.4
					c0-1.6,1.3-2.6,3.3-2.6c1.9,0,3.1,0.8,3.5,2.2l-1.3,0.3c-0.4-1-1.1-1.4-2.3-1.4c-1.2,0-1.9,0.5-1.9,1.3c0,0.7,0.4,1.1,1.4,1.2
					l1.7,0.3c1.8,0.3,2.7,1.2,2.7,2.6c0,1.6-1.5,2.7-3.7,2.7c-1.3,0-2.3-0.3-3-1C124.3,81.8,124.1,81.5,123.9,80.7z M134.8,74.1V83
					h-1.4v-8.9H134.8z M134.9,71v1.5h-1.5V71H134.9z M140.9,73.9c2.4,0,4,1.9,4,4.8c0,2.7-1.7,4.6-4.1,4.6c-2.3,0-3.9-1.9-3.9-4.7
					C136.9,75.8,138.5,73.9,140.9,73.9z M140.8,75c-0.7,0-1.4,0.4-1.8,1c-0.4,0.6-0.6,1.4-0.6,2.5c0,2.3,0.9,3.6,2.5,3.6
					c1.5,0,2.5-1.3,2.5-3.5c0-1.2-0.2-2-0.6-2.6C142.3,75.4,141.6,75,140.8,75z M153.9,83h-1.3v-5.7c0-1.4-0.6-2.2-1.8-2.2
					c-1.4,0-2.5,1.3-2.5,3V83h-1.4v-8.9h1.3v1.6c0.9-1.4,1.6-1.9,2.8-1.9c1.1,0,2.1,0.6,2.6,1.5c0.2,0.4,0.3,1.1,0.3,2.4V83z
					 M163.6,83h-1.4c-0.1-0.4-0.1-0.6-0.2-1.6c-0.7,1.3-1.6,1.8-3.1,1.8c-1.8,0-3.1-1.1-3.1-2.7c0-1,0.6-2,1.5-2.4
					c0.8-0.4,2-0.6,3.6-0.6c0.3,0,0.6,0,1.2,0v-0.3c0-1.7-0.6-2.3-2.3-2.3c-1.3,0-2.1,0.6-2.4,1.6l-1.3-0.2c0.1-0.7,0.3-1,0.7-1.4
					c0.7-0.7,1.8-1.1,3.3-1.1c1.3,0,2.2,0.3,2.8,1c0.4,0.6,0.6,1.3,0.6,2.6v3.8C163.4,81.9,163.5,82.5,163.6,83z M162.1,78.6
					c-0.5,0-1,0-1.2,0c-2.3,0-3.6,0.7-3.6,2.1c0,1,0.7,1.6,1.9,1.6c1.6,0,2.9-1.3,2.9-3C162.1,79,162.1,78.8,162.1,78.6z M167.6,83
					h-1.4V71h1.4V83z M169.1,80.7l1.3-0.3c0.1,0.5,0.3,0.8,0.6,1c0.5,0.4,1.3,0.7,2.2,0.7c1.2,0,2.1-0.6,2.1-1.4
					c0-0.7-0.5-1.2-1.5-1.4l-1.9-0.3c-1.5-0.3-2.4-1.2-2.4-2.4c0-1.6,1.3-2.6,3.3-2.6c1.9,0,3.1,0.8,3.5,2.2l-1.3,0.3
					c-0.4-1-1.1-1.4-2.3-1.4c-1.2,0-1.9,0.5-1.9,1.3c0,0.7,0.4,1.1,1.4,1.2l1.7,0.3c1.8,0.3,2.7,1.2,2.7,2.6c0,1.6-1.5,2.7-3.7,2.7
					c-1.3,0-2.3-0.3-3-1C169.6,81.8,169.3,81.5,169.1,80.7z M189,80.4l1.3,0.3c-0.6,1.6-2,2.6-3.8,2.6c-2.4,0-4.1-1.9-4.1-4.6
					c0-2.8,1.7-4.7,4.1-4.7c1.5,0,2.7,0.8,3.3,2.1c0.4,0.8,0.5,1.5,0.5,2.7H184c0,1,0.1,1.5,0.4,2.1c0.4,0.8,1.3,1.3,2.3,1.3
					c0.7,0,1.4-0.3,1.9-0.8C188.7,81.1,188.8,80.8,189,80.4z M184.1,77.7h4.9c0-0.8-0.1-1.2-0.5-1.8c-0.5-0.6-1-0.9-1.8-0.9
					c-0.8,0-1.4,0.3-1.9,0.9C184.3,76.4,184.2,76.8,184.1,77.7z M198.4,83h-1.6l-2.2-3.6l-2.3,3.6h-1.3l3-4.6l-2.7-4.3h1.6l1.9,3
					l1.9-3h1.3l-2.6,4L198.4,83z M201.3,86h-1.4V74.1h1.2v1.7c0.7-1.4,1.5-2,2.8-2c2.1,0,3.5,1.9,3.5,4.7c0,2.8-1.4,4.7-3.5,4.7
					c-1.2,0-1.9-0.4-2.6-1.6V86z M201.3,77.3v2.5c0.2,1.3,1.2,2.3,2.4,2.3c0.6,0,1.3-0.3,1.6-0.8c0.4-0.6,0.7-1.4,0.7-2.6
					c0-2.2-0.9-3.5-2.3-3.5C202.5,75.1,201.6,75.9,201.3,77.3z M215.3,80.4l1.3,0.3c-0.6,1.6-2,2.6-3.8,2.6c-2.4,0-4.1-1.9-4.1-4.6
					c0-2.8,1.7-4.7,4.1-4.7c1.5,0,2.7,0.8,3.3,2.1c0.4,0.8,0.5,1.5,0.5,2.7h-6.5c0,1,0.1,1.5,0.4,2.1c0.4,0.8,1.3,1.3,2.3,1.3
					c0.7,0,1.4-0.3,1.9-0.8C215,81.1,215.1,80.8,215.3,80.4z M210.4,77.7h4.9c0-0.8-0.1-1.2-0.5-1.8c-0.4-0.6-1-0.9-1.8-0.9
					c-0.8,0-1.4,0.3-1.9,0.9C210.6,76.4,210.5,76.8,210.4,77.7z M224.1,79.9l1.2,0.2c-0.2,1.1-0.5,1.6-1,2.2c-0.6,0.6-1.4,1-2.4,1
					c-2.3,0-3.7-1.8-3.7-4.7c0-2.8,1.5-4.7,3.8-4.7c1.8,0,3,1.1,3.4,3.1l-1.2,0.2c-0.1-0.7-0.2-1-0.5-1.3c-0.4-0.5-1-0.8-1.7-0.8
					c-1.5,0-2.4,1.3-2.4,3.5c0,2.2,0.9,3.6,2.3,3.6C223,82.1,223.8,81.3,224.1,79.9z M231.4,82v1.1c-0.6,0.1-0.9,0.1-1.3,0.1
					c-1.7,0-2.5-0.9-2.5-2.7v-5.3h-1.6v-1.1h1.6l0.1-2.2l1.3-0.1v2.3h2v1.1h-2v5.6c0,0.9,0.5,1.4,1.4,1.4
					C230.6,82.2,230.9,82.1,231.4,82z M234.7,81v2h-2v-2H234.7z"/>
				<path class="st2" d="M342.4,29l-2.9,12H338l-2.6-9.3l-2.4,9.3h-1.5l-3-12h1.5l2.4,9.7l2.6-9.7h1.2l2.8,9.7L341,29H342.4z
					 M350.9,41h-1.4v-5.4c0-0.9,0-1.2-0.2-1.6c-0.2-0.6-0.9-1-1.5-1c-0.6,0-1.3,0.3-1.7,0.8c-0.5,0.6-0.7,1.3-0.7,2.3V41h-1.4V29
					h1.4v4.8c0.7-1.3,1.5-1.9,2.7-1.9c1,0,1.8,0.4,2.3,1.2c0.5,0.6,0.5,1.1,0.5,2.6V41z M360.6,41h-1.4c-0.1-0.4-0.1-0.6-0.2-1.6
					c-0.7,1.3-1.6,1.8-3.1,1.8c-1.8,0-3.1-1.1-3.1-2.7c0-1,0.6-2,1.5-2.4c0.8-0.4,2-0.6,3.6-0.6c0.3,0,0.6,0,1.2,0v-0.3
					c0-1.7-0.6-2.3-2.3-2.3c-1.3,0-2.1,0.6-2.4,1.6l-1.3-0.2c0.1-0.7,0.3-1,0.7-1.4c0.7-0.7,1.8-1.1,3.3-1.1c1.3,0,2.2,0.3,2.8,1
					c0.4,0.6,0.6,1.3,0.6,2.6v3.8C360.4,39.9,360.5,40.5,360.6,41z M359.1,36.6c-0.5,0-1,0-1.2,0c-2.3,0-3.6,0.7-3.6,2.1
					c0,1,0.7,1.6,1.9,1.6c1.6,0,2.9-1.3,2.9-3C359.1,37,359.1,36.8,359.1,36.6z M367,40v1.1c-0.6,0.1-0.9,0.1-1.3,0.1
					c-1.7,0-2.5-0.9-2.5-2.7v-5.3h-1.6v-1.1h1.6l0.1-2.2l1.3-0.1v2.3h2v1.1h-2v5.6c0,0.9,0.5,1.4,1.4,1.4
					C366.2,40.2,366.5,40.1,367,40z M377,40v1.1c-0.6,0.1-0.9,0.1-1.3,0.1c-1.7,0-2.5-0.9-2.5-2.7v-5.3h-1.6v-1.1h1.6l0.1-2.2
					l1.3-0.1v2.3h2v1.1h-2v5.6c0,0.9,0.5,1.4,1.4,1.4C376.3,40.2,376.5,40.1,377,40z M381.6,31.9c2.4,0,4,1.9,4,4.8
					c0,2.7-1.7,4.6-4.1,4.6c-2.3,0-3.9-1.9-3.9-4.7C377.6,33.8,379.2,31.9,381.6,31.9z M381.5,33c-0.7,0-1.4,0.4-1.8,1
					c-0.4,0.6-0.6,1.4-0.6,2.5c0,2.3,0.9,3.6,2.5,3.6c1.5,0,2.5-1.3,2.5-3.5c0-1.2-0.2-2-0.6-2.6C383,33.4,382.3,33,381.5,33z
					 M394.5,29v12h-1.3v-1.5c-0.7,1.3-1.5,1.8-2.8,1.8c-2.1,0-3.6-1.9-3.6-4.6c0-2.8,1.5-4.8,3.6-4.8c1.1,0,1.8,0.4,2.6,1.4V29
					H394.5z M393.1,37.4v-1.9c-0.1-0.8-0.2-1.2-0.5-1.6c-0.4-0.6-1.2-0.9-1.9-0.9c-1.4,0-2.3,1.4-2.3,3.5c0,2.3,0.8,3.7,2.3,3.7
					c0.7,0,1.3-0.3,1.8-0.9C392.9,38.7,393.1,38.3,393.1,37.4z M404.1,41h-1.4c-0.1-0.4-0.1-0.6-0.2-1.6c-0.7,1.3-1.6,1.8-3.1,1.8
					c-1.8,0-3.1-1.1-3.1-2.7c0-1,0.6-2,1.5-2.4c0.8-0.4,2-0.6,3.6-0.6c0.3,0,0.6,0,1.2,0v-0.3c0-1.7-0.6-2.3-2.3-2.3
					c-1.3,0-2.1,0.6-2.4,1.6l-1.3-0.2c0.1-0.7,0.3-1,0.7-1.4c0.7-0.7,1.8-1.1,3.3-1.1c1.3,0,2.2,0.3,2.8,1c0.4,0.6,0.6,1.3,0.6,2.6
					v3.8C403.9,39.9,404,40.5,404.1,41z M402.6,36.6c-0.5,0-1,0-1.2,0c-2.3,0-3.6,0.7-3.6,2.1c0,1,0.7,1.6,1.9,1.6
					c1.6,0,2.9-1.3,2.9-3C402.6,37,402.6,36.8,402.6,36.6z M412.4,32.1l-3.6,9.9c-0.3,0.8-0.7,1.4-1.2,1.8c-0.3,0.2-0.8,0.3-1.4,0.3
					c-0.4,0-0.6,0-1-0.1v-1.1c0.4,0.1,0.6,0.1,0.9,0.1c0.6,0,1.1-0.2,1.4-0.8c0.2-0.3,0.3-0.7,0.6-1.5l-3.1-8.7h1.4l2.4,6.7l2.4-6.7
					H412.4z M414.7,33.6h-0.9l-0.3-4.6h1.4L414.7,33.6z M416.1,38.7l1.3-0.3c0.1,0.5,0.3,0.8,0.6,1c0.5,0.4,1.4,0.7,2.2,0.7
					c1.2,0,2.1-0.6,2.1-1.4c0-0.7-0.5-1.2-1.5-1.4l-1.9-0.3c-1.5-0.3-2.4-1.2-2.4-2.4c0-1.6,1.3-2.6,3.3-2.6c1.9,0,3.1,0.8,3.5,2.2
					l-1.3,0.3c-0.4-1-1.1-1.4-2.3-1.4c-1.2,0-1.9,0.5-1.9,1.3c0,0.7,0.5,1.1,1.4,1.2l1.7,0.3c1.8,0.3,2.7,1.2,2.7,2.6
					c0,1.6-1.5,2.7-3.7,2.7c-1.3,0-2.3-0.3-3-1C416.6,39.8,416.3,39.5,416.1,38.7z M429,38.7l1.3-0.3c0.1,0.5,0.3,0.8,0.6,1
					c0.5,0.4,1.4,0.7,2.2,0.7c1.2,0,2.1-0.6,2.1-1.4c0-0.7-0.5-1.2-1.5-1.4l-1.9-0.3c-1.5-0.3-2.4-1.2-2.4-2.4
					c0-1.6,1.3-2.6,3.3-2.6c1.9,0,3.1,0.8,3.5,2.2l-1.3,0.3c-0.4-1-1.1-1.4-2.3-1.4c-1.2,0-1.9,0.5-1.9,1.3c0,0.7,0.4,1.1,1.4,1.2
					l1.7,0.3c1.8,0.3,2.7,1.2,2.7,2.6c0,1.6-1.5,2.7-3.7,2.7c-1.3,0-2.3-0.3-3-1C429.4,39.8,429.2,39.5,429,38.7z M444.4,38.4
					l1.3,0.3c-0.6,1.6-2,2.6-3.8,2.6c-2.4,0-4.1-1.9-4.1-4.6c0-2.8,1.7-4.7,4.1-4.7c1.5,0,2.7,0.8,3.3,2.1c0.4,0.8,0.5,1.5,0.5,2.7
					h-6.5c0,1,0.1,1.5,0.4,2.1c0.4,0.8,1.3,1.3,2.3,1.3c0.7,0,1.4-0.3,1.9-0.8C444,39.1,444.2,38.8,444.4,38.4z M439.4,35.7h4.9
					c0-0.8-0.1-1.2-0.5-1.8c-0.5-0.6-1-0.9-1.8-0.9c-0.8,0-1.4,0.3-1.9,0.9C439.7,34.4,439.5,34.8,439.4,35.7z M449.1,41h-1.4V29
					h1.4V41z M455.5,32.1v1.1h-2.2V41h-1.3v-7.8h-1.6v-1.1h1.6c0-1.1,0.1-1.5,0.3-2c0.3-0.9,1.2-1.4,2.4-1.4c0.4,0,0.7,0,1.3,0.1V30
					c-0.4-0.1-0.6-0.1-0.8-0.1c-0.9,0-1.5,0.3-1.7,0.8c-0.2,0.4-0.2,0.4-0.2,1.4H455.5z M459.9,36V37h-4V36H459.9z M467.4,38.4
					l1.3,0.3c-0.6,1.6-2,2.6-3.8,2.6c-2.4,0-4.1-1.9-4.1-4.6c0-2.8,1.7-4.7,4.1-4.7c1.5,0,2.7,0.8,3.3,2.1c0.4,0.8,0.5,1.5,0.5,2.7
					h-6.5c0,1,0.1,1.5,0.4,2.1c0.4,0.8,1.3,1.3,2.3,1.3c0.7,0,1.4-0.3,1.9-0.8C467,39.1,467.2,38.8,467.4,38.4z M462.4,35.7h4.9
					c0-0.8-0.1-1.2-0.5-1.8c-0.5-0.6-1-0.9-1.8-0.9c-0.8,0-1.4,0.3-1.9,0.9C462.6,34.4,462.5,34.8,462.4,35.7z M482.8,41h-1.4v-5.5
					c0-1-0.1-1.2-0.3-1.6c-0.3-0.5-0.9-0.8-1.4-0.8c-0.6,0-1.1,0.3-1.6,0.8c-0.5,0.6-0.7,1.2-0.7,2.1v5h-1.3v-5.8
					c0-0.7-0.1-1.1-0.4-1.5c-0.3-0.4-0.8-0.6-1.3-0.6c-1.2,0-2.2,1.2-2.2,2.7V41h-1.3v-8.9h1.2v1.7c0.6-1.3,1.6-1.9,2.7-1.9
					c1.2,0,2.1,0.8,2.5,2.1c0.6-1.4,1.6-2.1,2.8-2.1c0.9,0,1.8,0.5,2.3,1.3c0.3,0.5,0.4,1.1,0.4,2.3V41z M486.7,44h-1.4V32.1h1.2
					v1.7c0.7-1.4,1.5-2,2.8-2c2.1,0,3.5,1.9,3.5,4.7c0,2.8-1.4,4.7-3.5,4.7c-1.2,0-1.9-0.4-2.6-1.6V44z M486.7,35.3v2.5
					c0.2,1.3,1.2,2.3,2.4,2.3c0.6,0,1.3-0.3,1.6-0.8c0.5-0.6,0.7-1.4,0.7-2.6c0-2.2-0.9-3.5-2.3-3.5C487.9,33.1,487,33.9,486.7,35.3
					z M496.3,41h-1.4V29h1.4V41z M502.3,31.9c2.4,0,4,1.9,4,4.8c0,2.7-1.7,4.6-4.1,4.6c-2.3,0-3.9-1.9-3.9-4.7
					C498.3,33.8,500,31.9,502.3,31.9z M502.3,33c-0.7,0-1.4,0.4-1.8,1c-0.4,0.6-0.6,1.4-0.6,2.5c0,2.3,0.9,3.6,2.5,3.6
					c1.5,0,2.5-1.3,2.5-3.5c0-1.2-0.2-2-0.6-2.6C503.7,33.4,503,33,502.3,33z M514.1,32.1l-3.6,9.9c-0.3,0.8-0.7,1.4-1.2,1.8
					c-0.3,0.2-0.8,0.3-1.4,0.3c-0.4,0-0.6,0-1-0.1v-1.1c0.4,0.1,0.6,0.1,0.9,0.1c0.6,0,1.1-0.2,1.4-0.8c0.2-0.3,0.3-0.7,0.6-1.5
					l-3.1-8.7h1.4l2.4,6.7l2.4-6.7H514.1z M521.1,38.4l1.3,0.3c-0.6,1.6-2,2.6-3.8,2.6c-2.4,0-4.1-1.9-4.1-4.6
					c0-2.8,1.7-4.7,4.1-4.7c1.5,0,2.7,0.8,3.3,2.1c0.4,0.8,0.5,1.5,0.5,2.7h-6.5c0,1,0.1,1.5,0.4,2.1c0.4,0.8,1.3,1.3,2.3,1.3
					c0.7,0,1.4-0.3,1.9-0.8C520.7,39.1,520.9,38.8,521.1,38.4z M516.1,35.7h4.9c0-0.8-0.1-1.2-0.5-1.8c-0.5-0.6-1-0.9-1.8-0.9
					c-0.8,0-1.4,0.3-1.9,0.9C516.4,34.4,516.2,34.8,516.1,35.7z M531.5,29v12h-1.3v-1.5c-0.7,1.3-1.5,1.8-2.8,1.8
					c-2.1,0-3.6-1.9-3.6-4.6c0-2.8,1.5-4.8,3.6-4.8c1.1,0,1.8,0.4,2.6,1.4V29H531.5z M530.1,37.4v-1.9c-0.1-0.8-0.2-1.2-0.5-1.6
					c-0.4-0.6-1.2-0.9-1.9-0.9c-1.4,0-2.3,1.4-2.3,3.5c0,2.3,0.8,3.7,2.3,3.7c0.7,0,1.3-0.3,1.8-0.9C529.9,38.7,530,38.3,530.1,37.4
					z M330.8,65h-1.4V53.1h1.2v1.7c0.7-1.4,1.5-2,2.8-2c2.1,0,3.5,1.9,3.5,4.7c0,2.8-1.4,4.7-3.5,4.7c-1.2,0-1.9-0.4-2.6-1.6V65z
					 M330.8,56.3v2.5c0.2,1.3,1.2,2.3,2.4,2.3c0.6,0,1.3-0.3,1.6-0.8c0.4-0.6,0.7-1.4,0.7-2.6c0-2.2-0.9-3.5-2.3-3.5
					C332,54.1,331.1,54.9,330.8,56.3z M340.4,62H339v-8.9h1.2v2.1c0.4-0.9,0.6-1.2,0.9-1.5c0.4-0.5,1.1-0.8,1.7-0.8
					c0.1,0,0.3,0,0.5,0v1.3c-1.7-0.1-3,1.2-3,3.1V62z M348,52.9c2.4,0,4,1.9,4,4.8c0,2.7-1.7,4.6-4.1,4.6c-2.3,0-3.9-1.9-3.9-4.7
					C344,54.8,345.6,52.9,348,52.9z M347.9,54c-0.7,0-1.4,0.4-1.8,1c-0.4,0.6-0.6,1.4-0.6,2.5c0,2.3,0.9,3.6,2.5,3.6
					c1.5,0,2.5-1.3,2.5-3.5c0-1.2-0.2-2-0.6-2.6C349.3,54.4,348.6,54,347.9,54z M357.7,53.1v1.1h-2.2V62h-1.3v-7.8h-1.6v-1.1h1.6
					c0-1.1,0.1-1.5,0.3-2c0.3-0.9,1.2-1.4,2.4-1.4c0.4,0,0.7,0,1.3,0.1V51c-0.4-0.1-0.6-0.1-0.8-0.1c-0.9,0-1.5,0.3-1.7,0.8
					c-0.2,0.4-0.2,0.5-0.2,1.4H357.7z M364.9,59.4l1.3,0.3c-0.6,1.6-2,2.6-3.8,2.6c-2.4,0-4.1-1.9-4.1-4.6c0-2.8,1.7-4.7,4.1-4.7
					c1.5,0,2.7,0.8,3.3,2.1c0.4,0.8,0.5,1.5,0.5,2.7h-6.5c0,1,0.1,1.5,0.4,2.1c0.4,0.8,1.3,1.3,2.3,1.3c0.7,0,1.4-0.3,1.9-0.8
					C364.6,60.1,364.7,59.8,364.9,59.4z M360,56.7h4.9c0-0.8-0.1-1.2-0.5-1.8c-0.5-0.6-1-0.9-1.8-0.9c-0.8,0-1.4,0.3-1.9,0.9
					C360.2,55.4,360,55.8,360,56.7z M367.3,59.7l1.3-0.3c0.1,0.5,0.3,0.8,0.6,1c0.5,0.4,1.4,0.7,2.2,0.7c1.2,0,2.1-0.6,2.1-1.4
					c0-0.7-0.5-1.2-1.5-1.4l-1.9-0.3c-1.5-0.3-2.4-1.2-2.4-2.4c0-1.6,1.3-2.6,3.3-2.6c1.9,0,3.1,0.8,3.5,2.2l-1.3,0.3
					c-0.4-1-1.1-1.4-2.3-1.4c-1.2,0-1.9,0.5-1.9,1.3c0,0.7,0.5,1.1,1.4,1.2l1.7,0.3c1.8,0.3,2.7,1.2,2.7,2.6c0,1.6-1.5,2.7-3.7,2.7
					c-1.3,0-2.3-0.3-3-1C367.8,60.8,367.5,60.5,367.3,59.7z M376,59.7l1.3-0.3c0.1,0.5,0.3,0.8,0.6,1c0.5,0.4,1.4,0.7,2.2,0.7
					c1.2,0,2.1-0.6,2.1-1.4c0-0.7-0.5-1.2-1.5-1.4l-1.9-0.3c-1.5-0.3-2.4-1.2-2.4-2.4c0-1.6,1.3-2.6,3.3-2.6c1.9,0,3.1,0.8,3.5,2.2
					l-1.3,0.3c-0.4-1-1.1-1.4-2.3-1.4c-1.2,0-1.9,0.5-1.9,1.3c0,0.7,0.4,1.1,1.4,1.2l1.7,0.3c1.8,0.3,2.7,1.2,2.7,2.6
					c0,1.6-1.5,2.7-3.7,2.7c-1.3,0-2.3-0.3-3-1C376.4,60.8,376.2,60.5,376,59.7z M386.9,53.1V62h-1.4v-8.9H386.9z M387,50v1.5h-1.5
					V50H387z M393,52.9c2.4,0,4,1.9,4,4.8c0,2.7-1.7,4.6-4.1,4.6c-2.3,0-3.9-1.9-3.9-4.7C388.9,54.8,390.6,52.9,393,52.9z M392.9,54
					c-0.7,0-1.4,0.4-1.8,1c-0.4,0.6-0.6,1.4-0.6,2.5c0,2.3,0.9,3.6,2.5,3.6c1.5,0,2.5-1.3,2.5-3.5c0-1.2-0.2-2-0.6-2.6
					C394.3,54.4,393.6,54,392.9,54z M406,62h-1.3v-5.7c0-1.4-0.6-2.2-1.8-2.2c-1.4,0-2.5,1.3-2.5,3V62H399v-8.9h1.3v1.6
					c0.9-1.4,1.6-1.9,2.8-1.9c1.1,0,2.1,0.6,2.6,1.5c0.2,0.5,0.3,1.1,0.3,2.4V62z M415.7,62h-1.4c-0.1-0.4-0.1-0.6-0.2-1.6
					c-0.7,1.3-1.6,1.8-3.1,1.8c-1.8,0-3.1-1.1-3.1-2.7c0-1,0.6-2,1.5-2.4c0.8-0.4,2-0.6,3.6-0.6c0.3,0,0.6,0,1.2,0v-0.3
					c0-1.7-0.6-2.3-2.3-2.3c-1.3,0-2.1,0.6-2.4,1.6l-1.3-0.2c0.1-0.7,0.3-1,0.7-1.4c0.7-0.7,1.8-1.1,3.3-1.1c1.3,0,2.2,0.3,2.8,1
					c0.4,0.6,0.6,1.3,0.6,2.6v3.8C415.5,60.9,415.6,61.5,415.7,62z M414.2,57.6c-0.5,0-1,0-1.2,0c-2.3,0-3.6,0.7-3.6,2.1
					c0,1,0.7,1.6,1.9,1.6c1.6,0,2.9-1.3,2.9-3C414.2,58,414.2,57.8,414.2,57.6z M419.7,62h-1.4V50h1.4V62z M421.2,59.7l1.3-0.3
					c0.1,0.5,0.3,0.8,0.6,1c0.5,0.4,1.4,0.7,2.2,0.7c1.2,0,2.1-0.6,2.1-1.4c0-0.7-0.5-1.2-1.5-1.4L424,58c-1.5-0.3-2.4-1.2-2.4-2.4
					c0-1.6,1.3-2.6,3.3-2.6c1.9,0,3.1,0.8,3.5,2.2l-1.3,0.3c-0.4-1-1.1-1.4-2.3-1.4c-1.2,0-1.9,0.5-1.9,1.3c0,0.7,0.5,1.1,1.4,1.2
					l1.7,0.3c1.8,0.3,2.7,1.2,2.7,2.6c0,1.6-1.5,2.7-3.7,2.7c-1.3,0-2.3-0.3-3-1C421.7,60.8,421.4,60.5,421.2,59.7z M442.2,62h-1.4
					v-5.4c0-0.9,0-1.2-0.2-1.6c-0.2-0.6-0.9-1-1.5-1c-0.6,0-1.3,0.3-1.7,0.8c-0.5,0.6-0.7,1.3-0.7,2.3V62h-1.4V50h1.4v4.8
					c0.7-1.3,1.5-1.9,2.7-1.9c1,0,1.8,0.4,2.3,1.2c0.5,0.6,0.5,1.1,0.5,2.6V62z M451.9,62h-1.4c-0.1-0.4-0.1-0.6-0.2-1.6
					c-0.7,1.3-1.6,1.8-3.1,1.8c-1.8,0-3.1-1.1-3.1-2.7c0-1,0.6-2,1.5-2.4c0.8-0.4,2-0.6,3.6-0.6c0.3,0,0.6,0,1.2,0v-0.3
					c0-1.7-0.6-2.3-2.3-2.3c-1.3,0-2.1,0.6-2.4,1.6l-1.3-0.2c0.1-0.7,0.3-1,0.7-1.4c0.7-0.7,1.8-1.1,3.3-1.1c1.3,0,2.2,0.3,2.8,1
					c0.4,0.6,0.6,1.3,0.6,2.6v3.8C451.7,60.9,451.8,61.5,451.9,62z M450.4,57.6c-0.5,0-1,0-1.2,0c-2.3,0-3.6,0.7-3.6,2.1
					c0,1,0.7,1.6,1.9,1.6c1.6,0,2.9-1.3,2.9-3C450.4,58,450.4,57.8,450.4,57.6z M460.6,53.1l-3.1,8.9h-1.4l-3.2-8.9h1.5l2.5,7.2
					l2.4-7.2H460.6z M467.8,59.4l1.3,0.3c-0.6,1.6-2,2.6-3.8,2.6c-2.4,0-4.1-1.9-4.1-4.6c0-2.8,1.7-4.7,4.1-4.7
					c1.5,0,2.7,0.8,3.3,2.1c0.4,0.8,0.5,1.5,0.5,2.7h-6.5c0,1,0.1,1.5,0.4,2.1c0.4,0.8,1.3,1.3,2.3,1.3c0.7,0,1.4-0.3,1.9-0.8
					C467.4,60.1,467.6,59.8,467.8,59.4z M462.8,56.7h4.9c0-0.8-0.1-1.2-0.5-1.8c-0.5-0.6-1-0.9-1.8-0.9c-0.8,0-1.4,0.3-1.9,0.9
					C463.1,55.4,462.9,55.8,462.8,56.7z M335.2,80.4l1.3,0.3c-0.6,1.6-2,2.6-3.8,2.6c-2.4,0-4.1-1.9-4.1-4.6c0-2.8,1.7-4.7,4.1-4.7
					c1.5,0,2.7,0.8,3.3,2.1c0.4,0.8,0.5,1.5,0.5,2.7h-6.5c0,1,0.1,1.5,0.4,2.1c0.4,0.8,1.3,1.3,2.3,1.3c0.7,0,1.4-0.3,1.9-0.8
					C334.9,81.1,335,80.8,335.2,80.4z M330.3,77.7h4.9c0-0.8-0.1-1.2-0.5-1.8c-0.5-0.6-1-0.9-1.8-0.9c-0.8,0-1.4,0.3-1.9,0.9
					C330.5,76.4,330.4,76.8,330.3,77.7z M344.6,83H343l-2.2-3.6l-2.3,3.6h-1.4l3-4.6l-2.7-4.3h1.6l1.9,3l1.9-3h1.3l-2.6,4L344.6,83z
					 M347.5,86h-1.4V74.1h1.2v1.7c0.7-1.4,1.5-2,2.8-2c2.1,0,3.5,1.9,3.5,4.7c0,2.8-1.4,4.7-3.5,4.7c-1.2,0-1.9-0.4-2.6-1.6V86z
					 M347.5,77.3v2.5c0.2,1.3,1.2,2.3,2.4,2.3c0.6,0,1.3-0.3,1.6-0.8c0.4-0.6,0.7-1.4,0.7-2.6c0-2.2-0.9-3.5-2.3-3.5
					C348.7,75.1,347.8,75.9,347.5,77.3z M361.5,80.4l1.3,0.3c-0.6,1.6-2,2.6-3.8,2.6c-2.4,0-4.1-1.9-4.1-4.6c0-2.8,1.7-4.7,4.1-4.7
					c1.5,0,2.7,0.8,3.3,2.1c0.4,0.8,0.5,1.5,0.5,2.7h-6.5c0,1,0.1,1.5,0.4,2.1c0.4,0.8,1.3,1.3,2.3,1.3c0.7,0,1.4-0.3,1.9-0.8
					C361.2,81.1,361.3,80.8,361.5,80.4z M356.6,77.7h4.9c0-0.8-0.1-1.2-0.5-1.8c-0.5-0.6-1-0.9-1.8-0.9c-0.8,0-1.4,0.3-1.9,0.9
					C356.8,76.4,356.7,76.8,356.6,77.7z M366.4,83H365v-8.9h1.2v2.1c0.4-0.9,0.6-1.2,0.9-1.5c0.4-0.5,1.1-0.8,1.7-0.8
					c0.1,0,0.3,0,0.5,0v1.3c-1.7-0.1-3,1.2-3,3.1V83z M372.2,74.1V83h-1.4v-8.9H372.2z M372.3,71v1.5h-1.5V71H372.3z M380.8,80.4
					l1.3,0.3c-0.6,1.6-2,2.6-3.8,2.6c-2.4,0-4.1-1.9-4.1-4.6c0-2.8,1.7-4.7,4.1-4.7c1.5,0,2.7,0.8,3.3,2.1c0.4,0.8,0.5,1.5,0.5,2.7
					h-6.5c0,1,0.1,1.5,0.4,2.1c0.4,0.8,1.3,1.3,2.3,1.3c0.7,0,1.4-0.3,1.9-0.8C380.5,81.1,380.6,80.8,380.8,80.4z M375.9,77.7h4.9
					c0-0.8-0.1-1.2-0.5-1.8c-0.5-0.6-1-0.9-1.8-0.9c-0.8,0-1.4,0.3-1.9,0.9C376.1,76.4,376,76.8,375.9,77.7z M391.4,83h-1.3v-5.7
					c0-1.4-0.6-2.2-1.8-2.2c-1.4,0-2.5,1.3-2.5,3V83h-1.4v-8.9h1.3v1.6c0.9-1.4,1.6-1.9,2.8-1.9c1.1,0,2.1,0.6,2.6,1.5
					c0.2,0.4,0.3,1.1,0.3,2.4V83z M399.4,79.9l1.2,0.2c-0.2,1.1-0.5,1.6-1,2.2c-0.6,0.6-1.4,1-2.4,1c-2.3,0-3.7-1.8-3.7-4.7
					c0-2.8,1.5-4.7,3.8-4.7c1.8,0,3,1.1,3.4,3.1l-1.2,0.2c-0.1-0.7-0.2-1-0.5-1.3c-0.4-0.5-1-0.8-1.7-0.8c-1.5,0-2.4,1.3-2.4,3.5
					c0,2.2,0.9,3.6,2.3,3.6C398.3,82.1,399.1,81.3,399.4,79.9z M408.3,80.4l1.3,0.3c-0.6,1.6-2,2.6-3.8,2.6c-2.4,0-4.1-1.9-4.1-4.6
					c0-2.8,1.7-4.7,4.1-4.7c1.5,0,2.7,0.8,3.3,2.1c0.4,0.8,0.5,1.5,0.5,2.7h-6.5c0,1,0.1,1.5,0.4,2.1c0.4,0.8,1.3,1.3,2.3,1.3
					c0.7,0,1.4-0.3,1.9-0.8C408,81.1,408.1,80.8,408.3,80.4z M403.4,77.7h4.9c0-0.8-0.1-1.2-0.5-1.8c-0.4-0.6-1-0.9-1.8-0.9
					c-0.8,0-1.4,0.3-1.9,0.9C403.6,76.4,403.5,76.8,403.4,77.7z M418.8,71v12h-1.3v-1.5c-0.7,1.3-1.5,1.8-2.8,1.8
					c-2.1,0-3.6-1.9-3.6-4.6c0-2.8,1.5-4.8,3.6-4.8c1.1,0,1.8,0.4,2.6,1.4V71H418.8z M417.4,79.4v-1.9c-0.1-0.8-0.2-1.2-0.5-1.6
					c-0.4-0.6-1.2-0.9-1.9-0.9c-1.4,0-2.3,1.4-2.3,3.5c0,2.3,0.8,3.7,2.3,3.7c0.7,0,1.3-0.3,1.8-0.9
					C417.2,80.7,417.3,80.3,417.4,79.4z M423.2,81v2h-2v-2H423.2z"/>
			</g>
		</g>
	</g>
</g>
</svg>
