<?xml version="1.0" encoding="utf-8"?>
<!-- Generator: Adobe Illustrator 23.0.1, SVG Export Plug-In . SVG Version: 6.00 Build 0)  -->
<svg version="1.1" id="Layer_1" xmlns="http://www.w3.org/2000/svg" xmlns:xlink="http://www.w3.org/1999/xlink" x="0px" y="0px"
	 viewBox="0 0 351 443" style="enable-background:new 0 0 351 443;" xml:space="preserve">
<style type="text/css">
	.st0{fill-rule:evenodd;clip-rule:evenodd;fill:#0060AF;}
	.st1{fill-rule:evenodd;clip-rule:evenodd;fill:#062942;}
	.st2{fill:#062942;}
	.st3{fill:#FFFFFF;}
	.st4{fill:#0060AF;}
</style>
<title>Group 20</title>
<desc>Created with Sketch.</desc>
<g id="Hi-Fi-Design">
	<g id="Mobile" transform="translate(-15.000000, -10721.000000)">
		<g id="Group-20" transform="translate(15.000000, 10721.000000)">
			<g id="Chart-Copy-2" transform="translate(18.000000, 35.000000)">
				<polygon id="Fill-1" class="st0" points="192.7,109.6 290.7,109.6 290.7,76.6 192.7,76.6 				"/>
				<polygon id="Fill-2" class="st1" points="0,109.6 124,109.6 124,76.6 0,76.6 				"/>
				<polygon id="Fill-3" class="st0" points="193.7,150.6 284.7,150.6 284.7,117.6 193.7,117.6 				"/>
				<polygon id="Fill-4" class="st1" points="19,150.6 124,150.6 124,117.6 19,117.6 				"/>
				<polygon id="Fill-5" class="st0" points="193.7,192.6 309.7,192.6 309.7,159.6 193.7,159.6 				"/>
				<polygon id="Fill-6" class="st1" points="6,192.6 124,192.6 124,159.6 6,159.6 				"/>
				<polygon id="Fill-7" class="st0" points="192.7,233.6 284.7,233.6 284.7,200.6 192.7,200.6 				"/>
				<polygon id="Fill-8" class="st1" points="7,233.6 124,233.6 124,200.6 7,200.6 				"/>
				<polygon id="Fill-9" class="st0" points="192.7,273.6 277.7,273.6 277.7,240.6 192.7,240.6 				"/>
				<polygon id="Fill-10" class="st1" points="16,273.6 124,273.6 124,240.6 16,240.6 				"/>
				<polygon id="Fill-11" class="st0" points="192.7,315.6 286.7,315.6 286.7,282.6 192.7,282.6 				"/>
				<polygon id="Fill-12" class="st1" points="13,315.6 124,315.6 124,282.6 13,282.6 				"/>
				<polygon id="Fill-13" class="st0" points="193.7,357.6 235.7,357.6 235.7,324.6 193.7,324.6 				"/>
				<polygon id="Fill-14" class="st1" points="67,357.6 124,357.6 124,324.6 67,324.6 				"/>
				<path id="Workharder" class="st2" d="M155.8,84l-2,7.3h-1.4l-1.5-5.4l-1.3,5.4h-1.4l-2-7.3h1.4l1.4,5.3l1.3-5.3h1.3l1.5,5.3
					l1.4-5.3H155.8z M158.6,85.8c0.9,0,1.6,0.4,2.1,1.1c0.3,0.5,0.5,1,0.5,1.7c0,1.7-1.1,2.8-2.6,2.8c-0.8,0-1.5-0.3-1.9-1
					c-0.4-0.5-0.5-1.1-0.5-1.8C156,86.9,157.1,85.8,158.6,85.8z M158.6,86.8c-0.8,0-1.2,0.6-1.2,1.8s0.4,1.8,1.2,1.8
					c0.8,0,1.2-0.7,1.2-1.8C159.8,87.4,159.3,86.8,158.6,86.8z M163.4,91.3h-1.2v-5.4h1.1v1.3c0.3-0.9,0.9-1.5,1.6-1.5v1.3h-0.1
					l-0.2,0c-0.7,0-1.3,0.8-1.3,1.7V91.3z M170.8,91.3h-1.3l-1.4-2.8l-1.2,1.4v1.4h-1.2V84h1.2v4.6c0.1-0.2,0.2-0.2,0.2-0.3l2.1-2.3
					h1.3l-1.6,1.8L170.8,91.3z M148.4,102.3h-1.2v-3.6c0-0.7-0.3-1-0.8-1c-0.4,0-0.8,0.2-1,0.6c-0.2,0.3-0.2,0.7-0.2,1.2v2.8h-1.2
					V95h1.2v2.9c0.3-0.8,0.8-1.2,1.6-1.2c0.6,0,1.1,0.2,1.4,0.7c0.2,0.4,0.3,0.6,0.3,1.2V102.3z M154.5,102.3h-1.2
					c-0.1-0.4-0.2-0.6-0.2-1.1c-0.4,0.8-0.9,1.2-1.8,1.2c-1.1,0-1.8-0.7-1.8-1.7c0-0.8,0.5-1.4,1.6-1.7c0.6-0.1,1.1-0.2,2.1-0.2
					v-0.4c0-0.6-0.4-0.8-1.2-0.8c-0.7,0-1.1,0.3-1.3,0.8l-1-0.2c0.1-0.5,0.3-0.8,0.7-1.1c0.5-0.3,1-0.4,1.7-0.4
					c0.9,0,1.5,0.2,1.9,0.6c0.3,0.3,0.3,0.6,0.3,1.4v2.4C154.3,101.6,154.4,101.9,154.5,102.3z M153.1,100.1v-0.5
					c-1.6,0-2.4,0.4-2.4,1.1c0,0.5,0.4,0.8,1,0.8C152.5,101.5,153.1,100.9,153.1,100.1z M157,102.3h-1.2v-5.4h1.1v1.3
					c0.3-0.9,0.9-1.5,1.6-1.5v1.3h-0.1l-0.2,0c-0.7,0-1.3,0.8-1.3,1.7V102.3z M163.8,102.3h-1.1v-1.1c-0.3,0.8-0.8,1.2-1.6,1.2
					c-0.6,0-1.1-0.2-1.5-0.7c-0.4-0.5-0.6-1.4-0.6-2.2c0-0.9,0.3-1.7,0.8-2.3c0.3-0.4,0.8-0.6,1.4-0.6c0.7,0,1.2,0.3,1.5,1V95h1.2
					V102.3z M162.6,100v-0.9c0-0.5-0.1-0.7-0.3-1c-0.2-0.3-0.5-0.4-0.8-0.4c-0.7,0-1.2,0.7-1.2,1.9c0,1.2,0.4,1.8,1.1,1.8
					C162.1,101.4,162.6,100.8,162.6,100z M168.7,100.6l1.1,0.2c-0.4,1.1-1.2,1.7-2.4,1.7c-1.5,0-2.5-1.1-2.5-2.8
					c0-1.7,1-2.8,2.6-2.8c1.6,0,2.4,1.1,2.4,3h-3.7v0.2c0,1,0.5,1.6,1.3,1.6C168.1,101.5,168.5,101.2,168.7,100.6z M166.2,99h2.5
					c0-0.4-0.1-0.6-0.3-0.8c-0.2-0.3-0.6-0.5-0.9-0.5C166.7,97.6,166.3,98.1,166.2,99z M172.3,102.3H171v-5.4h1.1v1.3
					c0.3-0.9,0.9-1.5,1.7-1.5v1.3h-0.1l-0.2,0c-0.7,0-1.3,0.8-1.3,1.7V102.3z"/>
				<path id="Havelessstress" class="st2" d="M152.9,127.3h-1.3v-3.2h-2.8v3.2h-1.3V120h1.3v3h2.8v-3h1.3V127.3z M159.2,127.3H158
					c-0.1-0.4-0.2-0.6-0.2-1.1c-0.4,0.8-0.9,1.2-1.8,1.2c-1.1,0-1.8-0.7-1.8-1.7c0-0.8,0.5-1.4,1.6-1.7c0.6-0.1,1.1-0.2,2.1-0.2
					v-0.4c0-0.6-0.4-0.8-1.2-0.8c-0.7,0-1.1,0.3-1.3,0.8l-1-0.2c0.1-0.5,0.3-0.8,0.7-1.1c0.5-0.3,1-0.4,1.7-0.4
					c0.9,0,1.5,0.2,1.9,0.6c0.3,0.3,0.3,0.6,0.3,1.4v2.4C159,126.6,159,126.9,159.2,127.3z M157.8,125.1v-0.5
					c-1.6,0-2.4,0.4-2.4,1.1c0,0.5,0.4,0.8,1,0.8C157.2,126.5,157.8,125.9,157.8,125.1z M164.5,121.9l-1.8,5.4h-1l-1.9-5.4h1.3
					l1.3,3.7l1.2-3.7H164.5z M168.7,125.6l1.1,0.2c-0.4,1.1-1.2,1.7-2.4,1.7c-1.5,0-2.5-1.1-2.5-2.8c0-1.7,1-2.8,2.6-2.8
					c1.6,0,2.4,1.1,2.4,3h-3.7v0.2c0,1,0.5,1.6,1.3,1.6C168.2,126.5,168.5,126.2,168.7,125.6z M166.2,124h2.5c0-0.4-0.1-0.6-0.3-0.8
					c-0.2-0.3-0.6-0.5-0.9-0.5C166.8,122.6,166.3,123.1,166.2,124z M135.2,138.3h-1.2V131h1.2V138.3z M140.2,136.6l1.1,0.2
					c-0.4,1.1-1.2,1.7-2.4,1.7c-1.5,0-2.5-1.1-2.5-2.8c0-1.7,1-2.8,2.6-2.8c1.6,0,2.4,1.1,2.4,3h-3.7v0.2c0,1,0.5,1.6,1.3,1.6
					C139.6,137.5,139.9,137.2,140.2,136.6z M137.7,135h2.5c0-0.4-0.1-0.6-0.3-0.8c-0.2-0.3-0.6-0.5-0.9-0.5
					C138.2,133.6,137.8,134.1,137.7,135z M142,137.1l1.1-0.2c0.2,0.5,0.5,0.7,1.2,0.7c0.7,0,1.1-0.2,1.1-0.7c0-0.3-0.2-0.5-0.6-0.5
					l-1-0.2c-1.1-0.2-1.6-0.7-1.6-1.6c0-0.4,0.2-0.8,0.4-1.1c0.4-0.4,0.9-0.6,1.7-0.6c1.1,0,1.8,0.4,2.1,1.3l-1.1,0.2
					c-0.1-0.4-0.4-0.6-1-0.6c-0.6,0-1,0.2-1,0.6c0,0.3,0.2,0.5,0.8,0.6l1.2,0.2c0.9,0.2,1.4,0.7,1.4,1.6c0,1.1-0.9,1.8-2.4,1.8
					c-0.7,0-1.3-0.2-1.7-0.5C142.3,137.7,142.1,137.5,142,137.1z M147.3,137.1l1.1-0.2c0.2,0.5,0.5,0.7,1.2,0.7
					c0.7,0,1.1-0.2,1.1-0.7c0-0.3-0.2-0.5-0.6-0.5l-1-0.2c-1.1-0.2-1.6-0.7-1.6-1.6c0-0.4,0.2-0.8,0.4-1.1c0.4-0.4,0.9-0.6,1.7-0.6
					c1.1,0,1.8,0.4,2.1,1.3l-1.1,0.2c-0.1-0.4-0.4-0.6-1-0.6c-0.6,0-1,0.2-1,0.6c0,0.3,0.2,0.5,0.8,0.6l1.2,0.2
					c0.9,0.2,1.4,0.7,1.4,1.6c0,1.1-0.9,1.8-2.4,1.8c-0.7,0-1.3-0.2-1.7-0.5C147.6,137.7,147.4,137.5,147.3,137.1z M155.3,137.1
					l1.1-0.2c0.2,0.5,0.5,0.7,1.2,0.7c0.7,0,1.1-0.2,1.1-0.7c0-0.3-0.2-0.5-0.6-0.5l-1-0.2c-1.1-0.2-1.6-0.7-1.6-1.6
					c0-0.4,0.2-0.8,0.4-1.1c0.4-0.4,0.9-0.6,1.7-0.6c1.1,0,1.8,0.4,2.1,1.3l-1.1,0.2c-0.1-0.4-0.4-0.6-1-0.6c-0.6,0-1,0.2-1,0.6
					c0,0.3,0.2,0.5,0.8,0.6l1.2,0.2c0.9,0.2,1.4,0.7,1.4,1.6c0,1.1-0.9,1.8-2.4,1.8c-0.7,0-1.3-0.2-1.7-0.5
					C155.5,137.7,155.4,137.5,155.3,137.1z M163.6,137.4v1c-0.3,0.1-0.7,0.1-0.9,0.1c-0.5,0-0.9-0.2-1.2-0.4
					c-0.3-0.3-0.4-0.6-0.4-1.4v-2.8h-0.7v-1h0.7l0.1-1.4l1-0.1v1.5h1.1v1h-1.1v2.6c0,0.7,0.2,0.9,0.9,0.9
					C163.3,137.4,163.4,137.4,163.6,137.4z M165.8,138.3h-1.2v-5.4h1.1v1.3c0.3-0.9,0.9-1.5,1.7-1.5v1.3h-0.1l-0.2,0
					c-0.7,0-1.3,0.8-1.3,1.7V138.3z M171.7,136.6l1.1,0.2c-0.4,1.1-1.2,1.7-2.4,1.7c-1.5,0-2.5-1.1-2.5-2.8c0-1.7,1-2.8,2.6-2.8
					c1.6,0,2.4,1.1,2.4,3h-3.7v0.2c0,1,0.5,1.6,1.3,1.6C171.1,137.5,171.5,137.2,171.7,136.6z M169.2,135h2.5c0-0.4-0.1-0.6-0.3-0.8
					c-0.2-0.3-0.6-0.5-0.9-0.5C169.8,133.6,169.3,134.1,169.2,135z M173.5,137.1l1.1-0.2c0.2,0.5,0.5,0.7,1.2,0.7
					c0.7,0,1.1-0.2,1.1-0.7c0-0.3-0.2-0.5-0.6-0.5l-1-0.2c-1.1-0.2-1.6-0.7-1.6-1.6c0-0.4,0.2-0.8,0.4-1.1c0.4-0.4,0.9-0.6,1.7-0.6
					c1.1,0,1.8,0.4,2.1,1.3l-1.1,0.2c-0.1-0.4-0.4-0.6-1-0.6c-0.6,0-1,0.2-1,0.6c0,0.3,0.2,0.5,0.8,0.6l1.2,0.2
					c0.9,0.2,1.4,0.7,1.4,1.6c0,1.1-0.9,1.8-2.4,1.8c-0.7,0-1.3-0.2-1.7-0.5C173.8,137.7,173.7,137.5,173.5,137.1z M178.8,137.1
					l1.1-0.2c0.2,0.5,0.5,0.7,1.2,0.7c0.7,0,1.1-0.2,1.1-0.7c0-0.3-0.2-0.5-0.6-0.5l-1-0.2c-1.1-0.2-1.6-0.7-1.6-1.6
					c0-0.4,0.2-0.8,0.4-1.1c0.4-0.4,0.9-0.6,1.7-0.6c1.1,0,1.8,0.4,2.1,1.3l-1.1,0.2c-0.1-0.4-0.4-0.6-1-0.6c-0.6,0-1,0.2-1,0.6
					c0,0.3,0.2,0.5,0.8,0.6l1.2,0.2c0.9,0.2,1.4,0.7,1.4,1.6c0,1.1-0.9,1.8-2.4,1.8c-0.7,0-1.3-0.2-1.7-0.5
					C179.1,137.7,179,137.5,178.8,137.1z"/>
				<path id="Moreworklifebalance" class="st2" d="M141.8,174.3h-1.4v-6.4l-2,6.4h-0.7l-2-6.4v6.4h-1.1V167h2.1l1.5,4.7l1.5-4.7h2.1
					V174.3z M145.5,168.8c0.9,0,1.6,0.4,2.1,1.1c0.3,0.5,0.5,1,0.5,1.7c0,1.7-1.1,2.8-2.6,2.8c-0.8,0-1.5-0.3-1.9-1
					c-0.4-0.5-0.5-1.1-0.5-1.8C143,169.9,144,168.8,145.5,168.8z M145.5,169.8c-0.8,0-1.2,0.6-1.2,1.8s0.4,1.8,1.2,1.8
					c0.8,0,1.2-0.7,1.2-1.8C146.7,170.4,146.3,169.8,145.5,169.8z M150.4,174.3h-1.2v-5.4h1.1v1.3c0.3-0.9,0.9-1.5,1.7-1.5v1.3h-0.1
					l-0.2,0c-0.7,0-1.3,0.8-1.3,1.7V174.3z M156.2,172.6l1.1,0.2c-0.4,1.1-1.2,1.7-2.4,1.7c-1.5,0-2.5-1.1-2.5-2.8
					c0-1.7,1-2.8,2.6-2.8c1.6,0,2.4,1.1,2.4,3h-3.7v0.2c0,1,0.5,1.6,1.3,1.6C155.6,173.5,155.9,173.2,156.2,172.6z M153.6,171h2.5
					c0-0.4-0.1-0.6-0.3-0.8c-0.2-0.3-0.6-0.5-0.9-0.5C154.2,169.6,153.7,170.1,153.6,171z M168,168.9l-1.6,5.4h-1.1l-1-3.8l-1,3.8
					h-1.1l-1.7-5.4h1.3l1.1,3.7l0.9-3.7h1.1l1,3.7l1-3.7H168z M171,168.8c0.9,0,1.6,0.4,2.1,1.1c0.3,0.5,0.5,1,0.5,1.7
					c0,1.7-1.1,2.8-2.6,2.8c-0.8,0-1.5-0.3-1.9-1c-0.4-0.5-0.5-1.1-0.5-1.8C168.4,169.9,169.5,168.8,171,168.8z M171,169.8
					c-0.8,0-1.2,0.6-1.2,1.8s0.4,1.8,1.2,1.8c0.8,0,1.2-0.7,1.2-1.8C172.2,170.4,171.8,169.8,171,169.8z M175.8,174.3h-1.2v-5.4h1.1
					v1.3c0.3-0.9,0.9-1.5,1.6-1.5v1.3h-0.1l-0.2,0c-0.7,0-1.3,0.8-1.3,1.7V174.3z M183.2,174.3H182l-1.4-2.8l-1.2,1.4v1.4h-1.2V167
					h1.2v4.6c0.1-0.2,0.2-0.2,0.2-0.3l2.1-2.3h1.3l-1.6,1.8L183.2,174.3z M133.2,185.3H132V178h1.2V185.3z M135.9,185.3h-1.2v-5.4
					h1.2V185.3z M135.9,179.3h-1.2V178h1.2V179.3z M138.7,185.3h-1.2v-4.5h-0.8v-1h0.8c0-0.9,0.1-1.2,0.4-1.6
					c0.3-0.4,0.7-0.5,1.5-0.5c0.2,0,0.2,0,0.4,0v1c-0.2,0-0.2,0-0.3,0c-0.4,0-0.6,0.1-0.8,0.2c-0.1,0.1-0.1,0.2-0.1,0.8h1.2v1h-1.2
					V185.3z M144.2,183.6l1.1,0.2c-0.4,1.1-1.2,1.7-2.4,1.7c-1.5,0-2.5-1.1-2.5-2.8c0-1.7,1-2.8,2.6-2.8c1.6,0,2.4,1.1,2.4,3h-3.7
					v0.2c0,1,0.5,1.6,1.3,1.6C143.6,184.5,143.9,184.2,144.2,183.6z M141.6,182h2.5c0-0.4-0.1-0.6-0.3-0.8c-0.2-0.3-0.6-0.5-0.9-0.5
					C142.2,180.6,141.7,181.1,141.6,182z M149.8,185.3h-0.5V178h1.2v2.7c0.5-0.8,0.8-1,1.5-1c1.2,0,2.1,1.1,2.1,2.9
					c0,0.9-0.2,1.6-0.6,2.1c-0.4,0.6-0.9,0.8-1.6,0.8c-0.7,0-1.2-0.3-1.7-1L149.8,185.3z M150.4,182.2v0.8c0,0.9,0.4,1.4,1.1,1.4
					c0.4,0,0.7-0.2,0.9-0.5c0.2-0.4,0.3-0.7,0.3-1.5c0-0.7-0.1-1-0.3-1.3c-0.2-0.3-0.5-0.4-0.8-0.4
					C150.9,180.7,150.4,181.3,150.4,182.2z M159.8,185.3h-1.2c-0.1-0.4-0.2-0.6-0.2-1.1c-0.4,0.8-0.9,1.2-1.8,1.2
					c-1.1,0-1.8-0.7-1.8-1.7c0-0.8,0.5-1.4,1.6-1.7c0.6-0.1,1.1-0.2,2.1-0.2v-0.4c0-0.6-0.4-0.8-1.2-0.8c-0.7,0-1.1,0.3-1.3,0.8
					l-1-0.2c0.1-0.5,0.3-0.8,0.7-1.1c0.5-0.3,1-0.4,1.7-0.4c0.9,0,1.5,0.2,1.9,0.6c0.3,0.3,0.3,0.6,0.3,1.4v2.4
					C159.6,184.6,159.7,184.9,159.8,185.3z M158.4,183.1v-0.5c-1.6,0-2.4,0.4-2.4,1.1c0,0.5,0.4,0.8,1,0.8
					C157.8,184.5,158.4,183.9,158.4,183.1z M162.3,185.3h-1.2V178h1.2V185.3z M168.4,185.3h-1.2c-0.1-0.4-0.2-0.6-0.2-1.1
					c-0.4,0.8-0.9,1.2-1.8,1.2c-1.1,0-1.8-0.7-1.8-1.7c0-0.8,0.5-1.4,1.6-1.7c0.6-0.1,1.1-0.2,2.1-0.2v-0.4c0-0.6-0.4-0.8-1.2-0.8
					c-0.7,0-1.1,0.3-1.3,0.8l-1-0.2c0.1-0.5,0.3-0.8,0.7-1.1c0.5-0.3,1-0.4,1.7-0.4c0.9,0,1.5,0.2,1.9,0.6c0.3,0.3,0.3,0.6,0.3,1.4
					v2.4C168.3,184.6,168.3,184.9,168.4,185.3z M167.1,183.1v-0.5c-1.6,0-2.4,0.4-2.4,1.1c0,0.5,0.4,0.8,1,0.8
					C166.5,184.5,167.1,183.9,167.1,183.1z M174.2,185.3H173v-3.4c0-0.7-0.3-1.1-0.8-1.1c-0.4,0-0.8,0.3-1,0.7
					c-0.1,0.3-0.2,0.6-0.2,1v2.8h-1.2v-5.4h1.1v1.3c0.5-1,0.9-1.4,1.7-1.4c0.6,0,1.2,0.3,1.5,0.8c0.2,0.3,0.2,0.7,0.2,1.2V185.3z
					 M178.8,183.3l1.1,0.1c-0.1,0.6-0.3,0.9-0.5,1.2c-0.4,0.5-1,0.8-1.7,0.8c-1.4,0-2.3-1.1-2.3-2.8s1-2.8,2.4-2.8
					c0.7,0,1.3,0.2,1.6,0.7c0.3,0.3,0.4,0.6,0.5,1.2l-1.1,0.1c-0.1-0.7-0.4-1-1-1c-0.7,0-1.2,0.7-1.2,1.9c0,1.1,0.4,1.7,1.1,1.7
					C178.3,184.4,178.6,184,178.8,183.3z M184.3,183.6l1.1,0.2c-0.4,1.1-1.2,1.7-2.4,1.7c-1.5,0-2.5-1.1-2.5-2.8
					c0-1.7,1-2.8,2.6-2.8c1.6,0,2.4,1.1,2.4,3h-3.7v0.2c0,1,0.5,1.6,1.3,1.6C183.7,184.5,184,184.2,184.3,183.6z M181.8,182h2.5
					c0-0.4-0.1-0.6-0.3-0.8c-0.2-0.3-0.5-0.5-0.9-0.5C182.3,180.6,181.9,181.1,181.8,182z"/>
				<path id="Earnmoremoney" class="st2" d="M139.6,215.3h-4.8V208h4.7v1.1h-3.4v2h2.7v1.1h-2.7v2.1h3.4V215.3z M145.4,215.3h-1.2
					c-0.1-0.4-0.2-0.6-0.2-1.1c-0.4,0.8-0.9,1.2-1.8,1.2c-1.1,0-1.8-0.7-1.8-1.7c0-0.8,0.5-1.4,1.6-1.7c0.6-0.1,1.1-0.2,2.1-0.2
					v-0.4c0-0.6-0.4-0.8-1.2-0.8c-0.7,0-1.1,0.3-1.3,0.8l-1-0.2c0.1-0.5,0.3-0.8,0.7-1.1c0.5-0.3,1-0.4,1.7-0.4
					c0.9,0,1.5,0.2,1.9,0.6c0.3,0.3,0.3,0.6,0.3,1.4v2.4C145.2,214.6,145.3,214.9,145.4,215.3z M144,213.1v-0.5
					c-1.6,0-2.4,0.4-2.4,1.1c0,0.5,0.4,0.8,1,0.8C143.4,214.5,144,213.9,144,213.1z M147.9,215.3h-1.2v-5.4h1.1v1.3
					c0.3-0.9,0.9-1.5,1.7-1.5v1.3h-0.1l-0.2,0c-0.7,0-1.3,0.8-1.3,1.7V215.3z M154.8,215.3h-1.2v-3.4c0-0.7-0.3-1.1-0.8-1.1
					c-0.4,0-0.8,0.3-1,0.7c-0.1,0.3-0.2,0.6-0.2,1v2.8h-1.2v-5.4h1.1v1.3c0.5-1,0.9-1.4,1.7-1.4c0.6,0,1.2,0.3,1.5,0.8
					c0.2,0.3,0.2,0.7,0.2,1.2V215.3z M167.1,215.3h-1.3v-3.4c0-0.7-0.3-1-0.9-1c-0.8,0-1.2,0.6-1.2,1.6v2.8h-1.3v-3.4
					c0-0.4,0-0.5-0.1-0.6c-0.1-0.3-0.4-0.4-0.8-0.4c-0.7,0-1.3,0.7-1.3,1.6v2.8H159v-5.4h1.2v1.2c0.2-0.5,0.4-0.7,0.6-0.8
					c0.3-0.3,0.7-0.4,1.2-0.4c0.8,0,1.3,0.4,1.6,1.3c0.5-0.9,1-1.3,1.8-1.3c1,0,1.7,0.7,1.7,1.7V215.3z M170.8,209.8
					c0.9,0,1.6,0.4,2.1,1.1c0.3,0.5,0.5,1,0.5,1.7c0,1.7-1.1,2.8-2.6,2.8c-0.8,0-1.5-0.3-1.9-1c-0.4-0.5-0.5-1.1-0.5-1.8
					C168.2,210.9,169.3,209.8,170.8,209.8z M170.8,210.8c-0.8,0-1.2,0.6-1.2,1.8s0.4,1.8,1.2,1.8c0.8,0,1.2-0.7,1.2-1.8
					C172,211.4,171.5,210.8,170.8,210.8z M175.6,215.3h-1.2v-5.4h1.1v1.3c0.3-0.9,0.9-1.5,1.6-1.5v1.3h-0.1l-0.2,0
					c-0.7,0-1.3,0.8-1.3,1.7V215.3z M181.4,213.6l1.1,0.2c-0.4,1.1-1.2,1.7-2.4,1.7c-1.5,0-2.5-1.1-2.5-2.8c0-1.7,1-2.8,2.6-2.8
					c1.6,0,2.4,1.1,2.4,3h-3.7v0.2c0,1,0.5,1.6,1.3,1.6C180.8,214.5,181.2,214.2,181.4,213.6z M178.9,212h2.5c0-0.4-0.1-0.6-0.3-0.8
					c-0.2-0.3-0.6-0.5-0.9-0.5C179.5,210.6,179,211.1,178.9,212z M151.5,226.3h-1.3v-3.4c0-0.7-0.3-1-0.9-1c-0.8,0-1.2,0.6-1.2,1.6
					v2.8h-1.3v-3.4c0-0.4,0-0.5-0.1-0.6c-0.1-0.3-0.4-0.4-0.8-0.4c-0.7,0-1.3,0.7-1.3,1.6v2.8h-1.3v-5.4h1.2v1.2
					c0.2-0.5,0.4-0.7,0.6-0.8c0.3-0.3,0.7-0.4,1.2-0.4c0.8,0,1.3,0.4,1.6,1.3c0.5-0.9,1-1.3,1.8-1.3c1,0,1.7,0.7,1.7,1.7V226.3z
					 M155.1,220.8c0.9,0,1.6,0.4,2.1,1.1c0.3,0.5,0.5,1,0.5,1.7c0,1.7-1.1,2.8-2.6,2.8c-0.8,0-1.5-0.3-1.9-1
					c-0.4-0.5-0.5-1.1-0.5-1.8C152.6,221.9,153.6,220.8,155.1,220.8z M155.1,221.8c-0.8,0-1.2,0.6-1.2,1.8s0.4,1.8,1.2,1.8
					c0.8,0,1.2-0.7,1.2-1.8C156.3,222.4,155.9,221.8,155.1,221.8z M163.3,226.3H162v-3.4c0-0.7-0.3-1.1-0.8-1.1
					c-0.4,0-0.8,0.3-1,0.7c-0.1,0.3-0.2,0.6-0.2,1v2.8h-1.2v-5.4h1.1v1.3c0.5-1,0.9-1.4,1.7-1.4c0.6,0,1.2,0.3,1.5,0.8
					c0.2,0.3,0.2,0.7,0.2,1.2V226.3z M168.2,224.6l1.1,0.2c-0.4,1.1-1.2,1.7-2.4,1.7c-1.5,0-2.5-1.1-2.5-2.8c0-1.7,1-2.8,2.6-2.8
					c1.6,0,2.4,1.1,2.4,3h-3.7v0.2c0,1,0.5,1.6,1.3,1.6C167.6,225.5,167.9,225.2,168.2,224.6z M165.7,223h2.5c0-0.4-0.1-0.6-0.3-0.8
					c-0.2-0.3-0.6-0.5-0.9-0.5C166.2,221.6,165.8,222.1,165.7,223z M174.4,220.9l-2.1,6.2c-0.3,0.8-0.7,1.2-1.5,1.2
					c-0.2,0-0.4,0-0.7,0v-1c0.2,0,0.4,0,0.6,0c0.4,0,0.6-0.1,0.7-0.3c0.1-0.1,0.2-0.5,0.2-0.6c0,0,0-0.2-0.1-0.3l-1.9-5.1h1.3
					l1.3,3.6l1.1-3.6H174.4z"/>
				<path id="Morecareercertainty" class="st2" d="M138.2,258.3h-1.4v-6.4l-2,6.4h-0.7l-2-6.4v6.4H131V251h2.1l1.5,4.7l1.5-4.7h2.1
					V258.3z M142,252.8c0.9,0,1.6,0.4,2.1,1.1c0.3,0.5,0.5,1,0.5,1.7c0,1.7-1.1,2.8-2.6,2.8c-0.8,0-1.5-0.3-1.9-1
					c-0.4-0.5-0.5-1.1-0.5-1.8C139.4,253.9,140.5,252.8,142,252.8z M142,253.8c-0.8,0-1.2,0.6-1.2,1.8c0,1.2,0.4,1.8,1.2,1.8
					c0.8,0,1.2-0.7,1.2-1.8C143.2,254.4,142.8,253.8,142,253.8z M146.8,258.3h-1.2v-5.4h1.1v1.3c0.3-0.9,0.9-1.5,1.7-1.5v1.3h-0.1
					l-0.2,0c-0.7,0-1.3,0.8-1.3,1.7V258.3z M152.6,256.6l1.1,0.2c-0.4,1.1-1.2,1.7-2.4,1.7c-1.5,0-2.5-1.1-2.5-2.8
					c0-1.7,1-2.8,2.6-2.8c1.6,0,2.4,1.1,2.4,3h-3.7v0.2c0,1,0.5,1.6,1.3,1.6C152,257.5,152.4,257.2,152.6,256.6z M150.1,255h2.5
					c0-0.4-0.1-0.6-0.3-0.8c-0.2-0.3-0.6-0.5-0.9-0.5C150.6,253.6,150.2,254.1,150.1,255z M160.8,256.3l1.1,0.1
					c-0.1,0.6-0.3,0.9-0.5,1.2c-0.4,0.5-1,0.8-1.7,0.8c-1.4,0-2.3-1.1-2.3-2.8s1-2.8,2.4-2.8c0.7,0,1.3,0.2,1.6,0.7
					c0.3,0.3,0.4,0.6,0.5,1.2l-1.1,0.1c-0.1-0.7-0.4-1-1-1c-0.7,0-1.2,0.7-1.2,1.9c0,1.1,0.4,1.7,1.1,1.7
					C160.3,257.4,160.7,257,160.8,256.3z M167.5,258.3h-1.2c-0.1-0.4-0.2-0.6-0.2-1.1c-0.4,0.8-0.9,1.2-1.8,1.2
					c-1.1,0-1.8-0.7-1.8-1.7c0-0.8,0.5-1.4,1.6-1.7c0.6-0.1,1.1-0.2,2.1-0.2v-0.4c0-0.6-0.4-0.8-1.2-0.8c-0.7,0-1.1,0.3-1.3,0.8
					l-1-0.2c0.1-0.5,0.3-0.8,0.7-1.1c0.5-0.3,1-0.4,1.7-0.4c0.9,0,1.5,0.2,1.9,0.6c0.3,0.3,0.3,0.6,0.3,1.4v2.4
					C167.4,257.6,167.4,257.9,167.5,258.3z M166.2,256.1v-0.5c-1.6,0-2.4,0.4-2.4,1.1c0,0.5,0.4,0.8,1,0.8
					C165.6,257.5,166.2,256.9,166.2,256.1z M170.1,258.3h-1.2v-5.4h1.1v1.3c0.3-0.9,0.9-1.5,1.6-1.5v1.3h-0.1l-0.2,0
					c-0.7,0-1.3,0.8-1.3,1.7V258.3z M175.9,256.6l1.1,0.2c-0.4,1.1-1.2,1.7-2.4,1.7c-1.5,0-2.5-1.1-2.5-2.8c0-1.7,1-2.8,2.6-2.8
					c1.6,0,2.4,1.1,2.4,3h-3.7v0.2c0,1,0.5,1.6,1.3,1.6C175.3,257.5,175.6,257.2,175.9,256.6z M173.3,255h2.5c0-0.4-0.1-0.6-0.3-0.8
					c-0.2-0.3-0.6-0.5-0.9-0.5C173.9,253.6,173.4,254.1,173.3,255z M181.6,256.6l1.1,0.2c-0.4,1.1-1.2,1.7-2.4,1.7
					c-1.5,0-2.5-1.1-2.5-2.8c0-1.7,1-2.8,2.6-2.8c1.6,0,2.4,1.1,2.4,3h-3.7v0.2c0,1,0.5,1.6,1.3,1.6
					C181,257.5,181.4,257.2,181.6,256.6z M179.1,255h2.5c0-0.4-0.1-0.6-0.3-0.8c-0.2-0.3-0.5-0.5-0.9-0.5
					C179.6,253.6,179.2,254.1,179.1,255z M185.2,258.3h-1.2v-5.4h1.1v1.3c0.3-0.9,0.9-1.5,1.6-1.5v1.3h-0.1l-0.2,0
					c-0.7,0-1.3,0.8-1.3,1.7V258.3z M141.7,267.3l1.1,0.1c-0.1,0.6-0.3,0.9-0.5,1.2c-0.4,0.5-1,0.8-1.7,0.8c-1.4,0-2.3-1.1-2.3-2.8
					c0-1.7,1-2.8,2.4-2.8c0.7,0,1.3,0.2,1.6,0.7c0.3,0.3,0.4,0.6,0.5,1.2l-1.1,0.1c-0.1-0.7-0.4-1-1-1c-0.7,0-1.2,0.7-1.2,1.9
					c0,1.1,0.4,1.7,1.1,1.7C141.2,268.4,141.5,268,141.7,267.3z M147.2,267.6l1.1,0.2c-0.4,1.1-1.2,1.7-2.4,1.7
					c-1.5,0-2.5-1.1-2.5-2.8c0-1.7,1-2.8,2.6-2.8c1.6,0,2.4,1.1,2.4,3h-3.7v0.2c0,1,0.5,1.6,1.3,1.6
					C146.6,268.5,146.9,268.2,147.2,267.6z M144.7,266h2.5c0-0.4-0.1-0.6-0.3-0.8c-0.2-0.3-0.6-0.5-0.9-0.5
					C145.2,264.6,144.8,265.1,144.7,266z M150.7,269.3h-1.2v-5.4h1.1v1.3c0.3-0.9,0.9-1.5,1.6-1.5v1.3h-0.1l-0.2,0
					c-0.7,0-1.3,0.8-1.3,1.7V269.3z M155.9,268.4v1c-0.3,0.1-0.7,0.1-0.9,0.1c-0.5,0-0.9-0.2-1.2-0.4c-0.3-0.3-0.4-0.6-0.4-1.4v-2.8
					h-0.7v-1h0.7l0.1-1.4l1-0.1v1.5h1.1v1h-1.1v2.6c0,0.7,0.2,0.9,0.9,0.9C155.6,268.4,155.7,268.4,155.9,268.4z M161.5,269.3h-1.2
					c-0.1-0.4-0.2-0.6-0.2-1.1c-0.4,0.8-0.9,1.2-1.8,1.2c-1.1,0-1.8-0.7-1.8-1.7c0-0.8,0.5-1.4,1.6-1.7c0.6-0.1,1.1-0.2,2.1-0.2
					v-0.4c0-0.6-0.4-0.8-1.2-0.8c-0.7,0-1.1,0.3-1.3,0.8l-1-0.2c0.1-0.5,0.3-0.8,0.7-1.1c0.5-0.3,1-0.4,1.7-0.4
					c0.9,0,1.5,0.2,1.9,0.6c0.3,0.3,0.3,0.6,0.3,1.4v2.4C161.4,268.6,161.4,268.9,161.5,269.3z M160.2,267.1v-0.5
					c-1.6,0-2.4,0.4-2.4,1.1c0,0.5,0.4,0.8,1,0.8C159.6,268.5,160.2,267.9,160.2,267.1z M164,269.3h-1.2v-5.4h1.2V269.3z M164,263.3
					h-1.2V262h1.2V263.3z M170,269.3h-1.2v-3.4c0-0.7-0.3-1.1-0.8-1.1c-0.4,0-0.8,0.3-1,0.7c-0.1,0.3-0.2,0.6-0.2,1v2.8h-1.2v-5.4
					h1.1v1.3c0.5-1,0.9-1.4,1.7-1.4c0.6,0,1.2,0.3,1.5,0.8c0.2,0.3,0.2,0.7,0.2,1.2V269.3z M174,268.4v1c-0.3,0.1-0.7,0.1-0.9,0.1
					c-0.5,0-0.9-0.2-1.2-0.4c-0.3-0.3-0.4-0.6-0.4-1.4v-2.8h-0.7v-1h0.7l0.1-1.4l1-0.1v1.5h1.1v1h-1.1v2.6c0,0.7,0.2,0.9,0.9,0.9
					C173.7,268.4,173.8,268.4,174,268.4z M179.2,263.9l-2.1,6.2c-0.3,0.8-0.7,1.2-1.5,1.2c-0.2,0-0.4,0-0.7,0v-1c0.2,0,0.4,0,0.6,0
					c0.4,0,0.6-0.1,0.7-0.3c0.1-0.1,0.2-0.5,0.2-0.6c0,0,0-0.2-0.1-0.3l-1.9-5.1h1.3l1.3,3.6l1.1-3.6H179.2z"/>
				<path id="Behealthier" class="st2" d="M153.6,297.3V290h2.9c0.8,0,1.2,0.1,1.6,0.4c0.5,0.3,0.8,0.9,0.8,1.5
					c0,0.8-0.5,1.4-1.3,1.6c0.4,0.1,0.6,0.2,0.9,0.4c0.5,0.3,0.7,0.8,0.7,1.5c0,0.6-0.2,1.1-0.6,1.5c-0.4,0.4-0.9,0.5-1.7,0.5H153.6
					z M154.9,296.2h1.7c0.7,0,1.2-0.4,1.2-1.1c0-0.6-0.5-1.1-1.2-1.1h-1.7V296.2z M154.9,293.1h1.6c0.6,0,1.1-0.4,1.1-1.1
					c0-0.6-0.4-1-1.1-1h-1.6V293.1z M163.7,295.6l1.1,0.2c-0.4,1.1-1.2,1.7-2.4,1.7c-1.5,0-2.5-1.1-2.5-2.8c0-1.7,1-2.8,2.6-2.8
					c1.6,0,2.4,1.1,2.4,3h-3.7v0.2c0,1,0.5,1.6,1.3,1.6C163.1,296.5,163.4,296.2,163.7,295.6z M161.2,294h2.5c0-0.4-0.1-0.6-0.3-0.8
					c-0.2-0.3-0.5-0.5-0.9-0.5C161.7,292.6,161.3,293.1,161.2,294z M143.4,308.3h-1.2v-3.6c0-0.7-0.3-1-0.8-1c-0.4,0-0.8,0.2-1,0.6
					c-0.2,0.3-0.2,0.7-0.2,1.2v2.8h-1.2V301h1.2v2.9c0.3-0.8,0.8-1.2,1.6-1.2c0.6,0,1.1,0.2,1.4,0.7c0.2,0.4,0.3,0.6,0.3,1.2V308.3z
					 M148.3,306.6l1.1,0.2c-0.4,1.1-1.2,1.7-2.4,1.7c-1.5,0-2.5-1.1-2.5-2.8c0-1.7,1-2.8,2.6-2.8c1.6,0,2.4,1.1,2.4,3h-3.7v0.2
					c0,1,0.5,1.6,1.3,1.6C147.8,307.5,148.1,307.2,148.3,306.6z M145.8,305h2.5c0-0.4-0.1-0.6-0.3-0.8c-0.2-0.3-0.6-0.5-0.9-0.5
					C146.4,303.6,145.9,304.1,145.8,305z M155.2,308.3H154c-0.1-0.4-0.2-0.6-0.2-1.1c-0.4,0.8-0.9,1.2-1.8,1.2
					c-1.1,0-1.8-0.7-1.8-1.7c0-0.8,0.5-1.4,1.6-1.7c0.6-0.1,1.1-0.2,2.1-0.2v-0.4c0-0.6-0.4-0.8-1.2-0.8c-0.7,0-1.1,0.3-1.3,0.8
					l-1-0.2c0.1-0.5,0.3-0.8,0.7-1.1c0.5-0.3,1-0.4,1.7-0.4c0.9,0,1.5,0.2,1.9,0.6c0.3,0.3,0.3,0.6,0.3,1.4v2.4
					C155.1,307.6,155.1,307.9,155.2,308.3z M153.9,306.1v-0.5c-1.6,0-2.4,0.4-2.4,1.1c0,0.5,0.4,0.8,1,0.8
					C153.3,307.5,153.9,306.9,153.9,306.1z M157.7,308.3h-1.2V301h1.2V308.3z M161.7,307.4v1c-0.3,0.1-0.7,0.1-0.9,0.1
					c-0.5,0-0.9-0.2-1.2-0.4c-0.3-0.3-0.4-0.6-0.4-1.4v-2.8h-0.7v-1h0.7l0.1-1.4l1-0.1v1.5h1.1v1h-1.1v2.6c0,0.7,0.2,0.9,0.9,0.9
					C161.5,307.4,161.6,307.4,161.7,307.4z M167,308.3h-1.2v-3.6c0-0.7-0.3-1-0.8-1c-0.4,0-0.8,0.2-1,0.6c-0.2,0.3-0.2,0.7-0.2,1.2
					v2.8h-1.2V301h1.2v2.9c0.3-0.8,0.8-1.2,1.6-1.2c0.6,0,1.1,0.2,1.4,0.7c0.2,0.4,0.3,0.6,0.3,1.2V308.3z M169.7,308.3h-1.2v-5.4
					h1.2V308.3z M169.7,302.3h-1.2V301h1.2V302.3z M174.6,306.6l1.1,0.2c-0.4,1.1-1.2,1.7-2.4,1.7c-1.5,0-2.5-1.1-2.5-2.8
					c0-1.7,1-2.8,2.6-2.8c1.6,0,2.4,1.1,2.4,3h-3.7v0.2c0,1,0.5,1.6,1.3,1.6C174.1,307.5,174.4,307.2,174.6,306.6z M172.1,305h2.5
					c0-0.4-0.1-0.6-0.3-0.8c-0.2-0.3-0.6-0.5-0.9-0.5C172.7,303.6,172.2,304.1,172.1,305z M178.2,308.3H177v-5.4h1.1v1.3
					c0.3-0.9,0.9-1.5,1.6-1.5v1.3h-0.1l-0.2,0c-0.7,0-1.3,0.8-1.3,1.7V308.3z"/>
				<path id="Lonelieratwork" class="st2" d="M145.1,340.3h-4.5V333h1.4v6.1h3.1V340.3z M148.1,334.8c0.9,0,1.6,0.4,2.1,1.1
					c0.3,0.5,0.5,1,0.5,1.7c0,1.7-1.1,2.8-2.6,2.8c-0.8,0-1.5-0.3-1.9-1c-0.4-0.5-0.5-1.1-0.5-1.8
					C145.6,335.9,146.6,334.8,148.1,334.8z M148.1,335.8c-0.8,0-1.2,0.6-1.2,1.8c0,1.2,0.4,1.8,1.2,1.8c0.8,0,1.2-0.7,1.2-1.8
					C149.3,336.4,148.9,335.8,148.1,335.8z M156.2,340.3H155v-3.4c0-0.7-0.3-1.1-0.8-1.1c-0.4,0-0.8,0.3-1,0.7
					c-0.1,0.3-0.2,0.6-0.2,1v2.8h-1.2v-5.4h1.1v1.3c0.5-1,0.9-1.4,1.7-1.4c0.6,0,1.2,0.3,1.5,0.8c0.2,0.3,0.2,0.7,0.2,1.2V340.3z
					 M161.1,338.6l1.1,0.2c-0.4,1.1-1.2,1.7-2.4,1.7c-1.5,0-2.5-1.1-2.5-2.8c0-1.7,1-2.8,2.6-2.8c1.6,0,2.4,1.1,2.4,3h-3.7v0.2
					c0,1,0.5,1.6,1.3,1.6C160.5,339.5,160.8,339.2,161.1,338.6z M158.6,337h2.5c0-0.4-0.1-0.6-0.3-0.8c-0.2-0.3-0.6-0.5-0.9-0.5
					C159.1,335.6,158.7,336.1,158.6,337z M164.6,340.3h-1.2V333h1.2V340.3z M167.2,340.3H166v-5.4h1.2V340.3z M167.2,334.3H166V333
					h1.2V334.3z M172.1,338.6l1.1,0.2c-0.4,1.1-1.2,1.7-2.4,1.7c-1.5,0-2.5-1.1-2.5-2.8c0-1.7,1-2.8,2.6-2.8c1.6,0,2.4,1.1,2.4,3
					h-3.7v0.2c0,1,0.5,1.6,1.3,1.6C171.5,339.5,171.9,339.2,172.1,338.6z M169.6,337h2.5c0-0.4-0.1-0.6-0.3-0.8
					c-0.2-0.3-0.6-0.5-0.9-0.5C170.1,335.6,169.7,336.1,169.6,337z M175.6,340.3h-1.2v-5.4h1.1v1.3c0.3-0.9,0.9-1.5,1.7-1.5v1.3
					h-0.1l-0.2,0c-0.7,0-1.3,0.8-1.3,1.7V340.3z M146.6,351.3h-1.2c-0.1-0.4-0.2-0.6-0.2-1.1c-0.4,0.8-0.9,1.2-1.8,1.2
					c-1.1,0-1.8-0.7-1.8-1.7c0-0.8,0.5-1.4,1.6-1.7c0.6-0.1,1.1-0.2,2.1-0.2v-0.4c0-0.6-0.4-0.8-1.2-0.8c-0.7,0-1.1,0.3-1.3,0.8
					l-1-0.2c0.1-0.5,0.3-0.8,0.7-1.1c0.5-0.3,1-0.4,1.7-0.4c0.9,0,1.5,0.2,1.9,0.6c0.3,0.3,0.3,0.6,0.3,1.4v2.4
					C146.4,350.6,146.4,350.9,146.6,351.3z M145.2,349.1v-0.5c-1.6,0-2.4,0.4-2.4,1.1c0,0.5,0.4,0.8,1,0.8
					C144.6,350.5,145.2,349.9,145.2,349.1z M150.2,350.4v1c-0.3,0.1-0.7,0.1-0.9,0.1c-0.5,0-0.9-0.2-1.2-0.4
					c-0.3-0.3-0.4-0.6-0.4-1.4v-2.8h-0.7v-1h0.7l0.1-1.4l1-0.1v1.5h1.1v1H149v2.6c0,0.7,0.2,0.9,0.9,0.9
					C150,350.4,150.1,350.4,150.2,350.4z M160.8,345.9l-1.6,5.4h-1.1l-1-3.8l-1,3.8H155l-1.7-5.4h1.3l1.1,3.7l0.9-3.7h1.1l1,3.7
					l1-3.7H160.8z M163.7,345.8c0.9,0,1.6,0.4,2.1,1.1c0.3,0.5,0.5,1,0.5,1.7c0,1.7-1.1,2.8-2.6,2.8c-0.8,0-1.5-0.3-1.9-1
					c-0.4-0.5-0.5-1.1-0.5-1.8C161.1,346.9,162.2,345.8,163.7,345.8z M163.7,346.8c-0.8,0-1.2,0.6-1.2,1.8c0,1.2,0.4,1.8,1.2,1.8
					c0.8,0,1.2-0.7,1.2-1.8C164.9,347.4,164.5,346.8,163.7,346.8z M168.5,351.3h-1.2v-5.4h1.1v1.3c0.3-0.9,0.9-1.5,1.7-1.5v1.3H170
					l-0.2,0c-0.7,0-1.3,0.8-1.3,1.7V351.3z M175.9,351.3h-1.3l-1.4-2.8l-1.2,1.4v1.4h-1.2V344h1.2v4.6c0.1-0.2,0.2-0.2,0.2-0.3
					l2.1-2.3h1.3l-1.6,1.8L175.9,351.3z"/>
				<path class="st3" d="M208.1,343.8l-0.2,2.2h-8.4v-2.2c0.4-0.3,0.6-0.4,0.7-0.5l1.4-1c0.9-0.6,2.2-1.7,2.9-2.4
					c0.6-0.6,0.8-1.2,0.8-1.7c0-0.9-0.6-1.5-1.5-1.5c-1.1,0-1.7,0.7-1.9,2.2l-2.3-0.5c0.5-2.5,2-3.7,4.4-3.7c1.2,0,2,0.3,2.8,0.9
					c0.9,0.7,1.3,1.6,1.3,2.7c0,1.4-0.6,2.4-2.4,3.7c-0.7,0.5-1.3,0.9-2.9,1.9H208.1z M213.8,334.6c2.7,0,4.4,2.3,4.4,5.8
					c0,1.6-0.4,3.1-1.2,4.1c-0.7,1-1.8,1.5-3.2,1.5c-1.3,0-2.4-0.5-3.1-1.5c-0.8-1.1-1.2-2.6-1.2-4.3c0-1.6,0.4-3.1,1.2-4.2
					C211.3,335.2,212.4,334.6,213.8,334.6z M213.8,336.5c-1.2,0-1.6,1-1.6,3.8c0,2.9,0.4,3.9,1.7,3.9c1.2,0,1.6-1.1,1.6-3.7
					C215.5,337.5,215,336.5,213.8,336.5z M221.5,334.7c1.4,0,2.3,1.1,2.3,2.9c0,1.7-0.9,2.8-2.3,2.8c-1.4,0-2.3-1.1-2.3-2.9
					C219.2,335.9,220.1,334.7,221.5,334.7z M221.5,335.7c-0.6,0-0.8,0.5-0.8,1.8c0,1.4,0.2,1.9,0.8,1.9c0.6,0,0.8-0.5,0.8-1.8
					C222.3,336.2,222.1,335.7,221.5,335.7z M220.8,346l6.2-11.2h1.2L222,346H220.8z M227.5,340.3c1.4,0,2.3,1.1,2.3,2.9
					c0,1.7-0.9,2.8-2.3,2.8c-1.4,0-2.3-1.1-2.3-2.9C225.2,341.5,226.1,340.3,227.5,340.3z M227.5,341.3c-0.6,0-0.8,0.5-0.8,1.8
					c0,1.4,0.2,1.9,0.8,1.9c0.6,0,0.8-0.5,0.8-1.8C228.3,341.8,228.1,341.3,227.5,341.3z"/>
				<path class="st3" d="M207.4,295.1h-4.9l-0.2,2.5c0.7-0.7,1.4-1,2.4-1c2.1,0,3.6,1.5,3.6,3.6c0,2.4-1.7,4-4.4,4
					c-1.3,0-2.3-0.3-3.2-1c-0.7-0.6-1-1.1-1.2-2.1l2.5-0.4c0.3,1,0.9,1.5,1.9,1.5c1,0,1.8-0.7,1.8-1.7c0-1-0.8-1.8-1.8-1.8
					c-0.7,0-1.3,0.3-1.6,0.9l-2.2-0.4l0.4-6.4h7.1L207.4,295.1z M216.8,292.6v6.8h1.6v2h-1.6v2.6h-2.6v-2.6h-4.9v-2l4.5-6.8H216.8z
					 M211.2,299.4h3v-3.8c0-0.1,0-0.3,0-0.5l0-0.5L211.2,299.4z M221.5,292.7c1.4,0,2.3,1.1,2.3,2.9c0,1.7-0.9,2.8-2.3,2.8
					c-1.4,0-2.3-1.1-2.3-2.9C219.2,293.9,220.1,292.7,221.5,292.7z M221.5,293.7c-0.6,0-0.8,0.5-0.8,1.8c0,1.4,0.2,1.9,0.8,1.9
					c0.6,0,0.8-0.5,0.8-1.8C222.3,294.2,222.1,293.7,221.5,293.7z M220.8,304l6.2-11.2h1.2L222,304H220.8z M227.5,298.3
					c1.4,0,2.3,1.1,2.3,2.9c0,1.7-0.9,2.8-2.3,2.8c-1.4,0-2.3-1.1-2.3-2.9C225.2,299.5,226.1,298.3,227.5,298.3z M227.5,299.3
					c-0.6,0-0.8,0.5-0.8,1.8c0,1.4,0.2,1.9,0.8,1.9c0.6,0,0.8-0.5,0.8-1.8C228.3,299.8,228.1,299.3,227.5,299.3z"/>
				<path class="st3" d="M207.4,251.1h-4.9l-0.2,2.5c0.7-0.7,1.4-1,2.4-1c2.1,0,3.6,1.5,3.6,3.6c0,2.4-1.7,4-4.4,4
					c-1.3,0-2.3-0.3-3.2-1c-0.7-0.6-1-1.1-1.2-2.1l2.5-0.4c0.3,1,0.9,1.5,1.9,1.5c1,0,1.8-0.7,1.8-1.7c0-1-0.8-1.8-1.8-1.8
					c-0.7,0-1.3,0.3-1.6,0.9l-2.2-0.4l0.4-6.4h7.1L207.4,251.1z M213.8,248.6c2.7,0,4.4,2.3,4.4,5.8c0,1.6-0.4,3.1-1.2,4.1
					c-0.7,1-1.8,1.5-3.2,1.5c-1.3,0-2.4-0.5-3.1-1.5c-0.8-1.1-1.2-2.6-1.2-4.3c0-1.6,0.4-3.1,1.2-4.2
					C211.3,249.2,212.4,248.6,213.8,248.6z M213.8,250.5c-1.2,0-1.6,1-1.6,3.8c0,2.9,0.4,3.9,1.7,3.9c1.2,0,1.6-1.1,1.6-3.7
					C215.5,251.5,215,250.5,213.8,250.5z M221.5,248.7c1.4,0,2.3,1.1,2.3,2.9c0,1.7-0.9,2.8-2.3,2.8c-1.4,0-2.3-1.1-2.3-2.9
					C219.2,249.9,220.1,248.7,221.5,248.7z M221.5,249.7c-0.6,0-0.8,0.5-0.8,1.8c0,1.4,0.2,1.9,0.8,1.9c0.6,0,0.8-0.5,0.8-1.8
					C222.3,250.2,222.1,249.7,221.5,249.7z M220.8,260l6.2-11.2h1.2L222,260H220.8z M227.5,254.3c1.4,0,2.3,1.1,2.3,2.9
					c0,1.7-0.9,2.8-2.3,2.8c-1.4,0-2.3-1.1-2.3-2.9C225.2,255.5,226.1,254.3,227.5,254.3z M227.5,255.3c-0.6,0-0.8,0.5-0.8,1.8
					c0,1.4,0.2,1.9,0.8,1.9c0.6,0,0.8-0.5,0.8-1.8C228.3,255.8,228.1,255.3,227.5,255.3z"/>
				<path class="st3" d="M207.4,212.1h-4.9l-0.2,2.5c0.7-0.7,1.4-1,2.4-1c2.1,0,3.6,1.5,3.6,3.6c0,2.4-1.7,4-4.4,4
					c-1.3,0-2.3-0.3-3.2-1c-0.7-0.6-1-1.1-1.2-2.1l2.5-0.4c0.3,1,0.9,1.5,1.9,1.5c1,0,1.8-0.7,1.8-1.7c0-1-0.8-1.8-1.8-1.8
					c-0.7,0-1.3,0.3-1.6,0.9l-2.2-0.4l0.4-6.4h7.1L207.4,212.1z M217.3,212.1h-4.9l-0.2,2.5c0.7-0.7,1.4-1,2.4-1
					c2.1,0,3.6,1.5,3.6,3.6c0,2.4-1.7,4-4.4,4c-1.3,0-2.3-0.3-3.2-1c-0.7-0.6-1-1.1-1.2-2.1l2.5-0.4c0.3,1,0.9,1.5,1.9,1.5
					c1,0,1.8-0.7,1.8-1.7c0-1-0.8-1.8-1.8-1.8c-0.7,0-1.3,0.3-1.6,0.9l-2.2-0.4l0.4-6.4h7.1L217.3,212.1z M221.5,209.7
					c1.4,0,2.3,1.1,2.3,2.9c0,1.7-0.9,2.8-2.3,2.8c-1.4,0-2.3-1.1-2.3-2.9C219.2,210.9,220.1,209.7,221.5,209.7z M221.5,210.7
					c-0.6,0-0.8,0.5-0.8,1.8c0,1.4,0.2,1.9,0.8,1.9c0.6,0,0.8-0.5,0.8-1.8C222.3,211.2,222.1,210.7,221.5,210.7z M220.8,221
					l6.2-11.2h1.2L222,221H220.8z M227.5,215.3c1.4,0,2.3,1.1,2.3,2.9c0,1.7-0.9,2.8-2.3,2.8c-1.4,0-2.3-1.1-2.3-2.9
					C225.2,216.5,226.1,215.3,227.5,215.3z M227.5,216.3c-0.6,0-0.8,0.5-0.8,1.8c0,1.4,0.2,1.9,0.8,1.9c0.6,0,0.8-0.5,0.8-1.8
					C228.3,216.8,228.1,216.3,227.5,216.3z"/>
				<path class="st3" d="M208,170.8v2c-0.8,0.9-1.4,1.9-2.2,3.5c-0.6,1.3-1,3.4-1,4.9c0,0.2,0,0.5,0,0.8h-3
					c-0.1-2.9,1.6-6.8,3.8-8.9H200l0.2-2.3H208z M213.8,170.6c2.7,0,4.4,2.3,4.4,5.8c0,1.6-0.4,3.1-1.2,4.1c-0.7,1-1.8,1.5-3.2,1.5
					c-1.3,0-2.4-0.5-3.1-1.5c-0.8-1.1-1.2-2.6-1.2-4.3c0-1.6,0.4-3.1,1.2-4.2C211.3,171.2,212.4,170.6,213.8,170.6z M213.8,172.5
					c-1.2,0-1.6,1-1.6,3.8c0,2.9,0.4,3.9,1.7,3.9c1.2,0,1.6-1.1,1.6-3.7C215.5,173.5,215,172.5,213.8,172.5z M221.5,170.7
					c1.4,0,2.3,1.1,2.3,2.9c0,1.7-0.9,2.8-2.3,2.8c-1.4,0-2.3-1.1-2.3-2.9C219.2,171.9,220.1,170.7,221.5,170.7z M221.5,171.7
					c-0.6,0-0.8,0.5-0.8,1.8c0,1.4,0.2,1.9,0.8,1.9c0.6,0,0.8-0.5,0.8-1.8C222.3,172.2,222.1,171.7,221.5,171.7z M220.8,182
					l6.2-11.2h1.2L222,182H220.8z M227.5,176.3c1.4,0,2.3,1.1,2.3,2.9c0,1.7-0.9,2.8-2.3,2.8c-1.4,0-2.3-1.1-2.3-2.9
					C225.2,177.5,226.1,176.3,227.5,176.3z M227.5,177.3c-0.6,0-0.8,0.5-0.8,1.8c0,1.4,0.2,1.9,0.8,1.9c0.6,0,0.8-0.5,0.8-1.8
					C228.3,177.8,228.1,177.3,227.5,177.3z"/>
				<path class="st3" d="M207.4,130.1h-4.9l-0.2,2.5c0.7-0.7,1.4-1,2.4-1c2.1,0,3.6,1.5,3.6,3.6c0,2.4-1.7,4-4.4,4
					c-1.3,0-2.3-0.3-3.2-1c-0.7-0.6-1-1.1-1.2-2.1l2.5-0.4c0.3,1,0.9,1.5,1.9,1.5c1,0,1.8-0.7,1.8-1.7c0-1-0.8-1.8-1.8-1.8
					c-0.7,0-1.3,0.3-1.6,0.9l-2.2-0.4l0.4-6.4h7.1L207.4,130.1z M217.3,130.1h-4.9l-0.2,2.5c0.7-0.7,1.4-1,2.4-1
					c2.1,0,3.6,1.5,3.6,3.6c0,2.4-1.7,4-4.4,4c-1.3,0-2.3-0.3-3.2-1c-0.7-0.6-1-1.1-1.2-2.1l2.5-0.4c0.3,1,0.9,1.5,1.9,1.5
					c1,0,1.8-0.7,1.8-1.7c0-1-0.8-1.8-1.8-1.8c-0.7,0-1.3,0.3-1.6,0.9l-2.2-0.4l0.4-6.4h7.1L217.3,130.1z M221.5,127.7
					c1.4,0,2.3,1.1,2.3,2.9c0,1.7-0.9,2.8-2.3,2.8c-1.4,0-2.3-1.1-2.3-2.9C219.2,128.9,220.1,127.7,221.5,127.7z M221.5,128.7
					c-0.6,0-0.8,0.5-0.8,1.8c0,1.4,0.2,1.9,0.8,1.9c0.6,0,0.8-0.5,0.8-1.8C222.3,129.2,222.1,128.7,221.5,128.7z M220.8,139
					l6.2-11.2h1.2L222,139H220.8z M227.5,133.3c1.4,0,2.3,1.1,2.3,2.9c0,1.7-0.9,2.8-2.3,2.8c-1.4,0-2.3-1.1-2.3-2.9
					C225.2,134.5,226.1,133.3,227.5,133.3z M227.5,134.3c-0.6,0-0.8,0.5-0.8,1.8c0,1.4,0.2,1.9,0.8,1.9c0.6,0,0.8-0.5,0.8-1.8
					C228.3,134.8,228.1,134.3,227.5,134.3z"/>
				<path class="st3" d="M209.2,90.6l-2.3,0.6c-0.3-1.2-0.8-1.7-1.7-1.7c-1.3,0-2,1.2-2,3.4v0.3c0.5-0.9,1.3-1.3,2.5-1.3
					c2,0,3.5,1.5,3.5,3.4c0,1-0.4,2-1.1,2.7c-0.8,0.7-1.7,1.1-3,1.1c-2.8,0-4.6-2.2-4.6-5.7c0-1.6,0.4-3.2,1.2-4.2
					c0.9-1.2,1.9-1.7,3.4-1.7c1.3,0,2.2,0.4,2.9,1.1C208.7,89.3,209,89.8,209.2,90.6z M205.1,93.8c-1,0-1.7,0.8-1.7,1.8
					c0,1,0.7,1.8,1.7,1.8c1,0,1.7-0.7,1.7-1.8C206.7,94.5,206,93.8,205.1,93.8z M214.8,87.6c2.7,0,4.4,2.3,4.4,5.8
					c0,1.6-0.4,3.1-1.2,4.1c-0.7,1-1.8,1.5-3.2,1.5c-1.3,0-2.4-0.5-3.1-1.5c-0.8-1.1-1.2-2.6-1.2-4.3c0-1.6,0.4-3.1,1.2-4.2
					C212.3,88.2,213.4,87.6,214.8,87.6z M214.8,89.5c-1.2,0-1.6,1-1.6,3.8c0,2.9,0.4,3.9,1.7,3.9c1.2,0,1.6-1.1,1.6-3.7
					C216.5,90.5,216,89.5,214.8,89.5z M222.5,87.7c1.4,0,2.3,1.1,2.3,2.9c0,1.7-0.9,2.8-2.3,2.8c-1.4,0-2.3-1.1-2.3-2.9
					C220.2,88.9,221.1,87.7,222.5,87.7z M222.5,88.7c-0.6,0-0.8,0.5-0.8,1.8c0,1.4,0.2,1.9,0.8,1.9c0.6,0,0.8-0.5,0.8-1.8
					C223.3,89.2,223.1,88.7,222.5,88.7z M221.8,99l6.2-11.2h1.2L223,99H221.8z M228.5,93.3c1.4,0,2.3,1.1,2.3,2.9
					c0,1.7-0.9,2.8-2.3,2.8c-1.4,0-2.3-1.1-2.3-2.9C226.2,94.5,227.1,93.3,228.5,93.3z M228.5,94.3c-0.6,0-0.8,0.5-0.8,1.8
					c0,1.4,0.2,1.9,0.8,1.9c0.6,0,0.8-0.5,0.8-1.8C229.3,94.8,229.1,94.3,228.5,94.3z"/>
				<path id="Reality" class="st4" d="M195.1,5.3V9h-2.2v-9.3h4.1c1.2,0,1.9,0.2,2.4,0.6c0.6,0.5,1,1.3,1,2.2c0,0.7-0.3,1.3-0.7,1.8
					c-0.2,0.2-0.4,0.4-0.9,0.6l1.7,4.1h-2.4l-1.4-3.7H195.1z M195.1,1.3v2.4h1.3c0.7,0,0.9,0,1.2-0.2c0.3-0.2,0.5-0.6,0.5-1
					c0-0.4-0.2-0.7-0.4-0.9c-0.3-0.2-0.4-0.2-1.3-0.2H195.1z M207.8,5.9h-4.4c0,0.1,0,0.3,0,0.3c0,0.9,0.5,1.5,1.3,1.5
					c0.7,0,1.1-0.4,1.2-1.1l1.8,0.1c-0.2,0.7-0.4,1.1-0.8,1.5c-0.6,0.6-1.3,0.9-2.4,0.9c-2,0-3.4-1.4-3.4-3.5c0-2.2,1.4-3.7,3.3-3.7
					c1.1,0,2.2,0.6,2.7,1.5C207.7,4.1,207.8,4.7,207.8,5.9z M203.4,4.7h2.4c-0.1-1-0.4-1.4-1.2-1.4C203.9,3.3,203.5,3.7,203.4,4.7z
					 M214.9,9h-2c-0.1-0.4-0.1-0.5-0.1-0.9c0,0,0-0.1,0-0.2c-0.7,0.9-1.2,1.2-2.2,1.2c-1.3,0-2.2-0.8-2.2-1.9c0-1,0.5-1.7,1.5-2.1
					c0.5-0.2,1.2-0.3,2.7-0.4V4.3c0-0.7-0.3-1-1-1c-0.7,0-1.1,0.3-1.2,1l-1.9-0.2c0.1-0.7,0.3-1.1,0.8-1.5c0.6-0.5,1.5-0.7,2.5-0.7
					c1.1,0,2,0.3,2.5,0.9c0.3,0.4,0.4,0.7,0.4,1.8v3.1C214.8,8.5,214.8,8.5,214.9,9z M212.7,6.3V5.7c-0.6,0.1-0.9,0.1-1.2,0.2
					c-0.6,0.2-0.9,0.5-0.9,1.1c0,0.5,0.4,0.9,0.9,0.9C212.2,7.9,212.7,7.2,212.7,6.3z M216.2,9v-9.3h2V9H216.2z M221.8,2.1V9h-2V2.1
					H221.8z M221.8-0.5v2h-2v-2H221.8z M225.5,3.7v2.9c0,0.8,0.2,0.9,1,0.9c0.2,0,0.3,0,0.6,0V9c-0.9,0.1-1,0.2-1.3,0.2
					c-1.7,0-2.3-0.6-2.3-2.3V3.7h-1.1V2.1h1.2l0.2-2l1.8-0.1v2.2h1.5v1.6H225.5z M233.6,2.1l-2.2,6.6c-0.4,1.3-0.5,1.4-0.8,1.9
					c-0.4,0.6-1,0.8-1.9,0.8c-0.3,0-0.5,0-1-0.1V9.8c0.4,0.1,0.7,0.1,1,0.1c0.7,0,0.9-0.2,1.1-0.9l-2.5-6.9h2.2l1.3,4.1l1.3-4.1
					H233.6z"/>
				<path class="st3" d="M88.3,339.2h1.2c0.7,0,1.1-0.1,1.4-0.4c0.2-0.3,0.4-0.6,0.4-0.9c0-0.8-0.6-1.4-1.5-1.4
					c-0.9,0-1.4,0.4-1.7,1.4l-2.3-0.4c0.2-0.9,0.5-1.3,1-1.8c0.8-0.8,1.8-1.2,3.1-1.2c2.4,0,4,1.2,4,3c0,1.2-0.6,2-1.9,2.5
					c0.7,0.2,1,0.4,1.4,0.7c0.6,0.5,0.8,1.2,0.8,2c0,2-1.7,3.4-4.3,3.4c-1.4,0-2.4-0.3-3.2-1.1c-0.7-0.6-1-1.2-1.2-2.3l2.4-0.3
					c0.3,1.2,0.9,1.7,2,1.7c1,0,1.7-0.6,1.7-1.5c0-0.5-0.2-0.9-0.6-1.2c-0.3-0.2-0.7-0.3-1.5-0.3h-1V339.2z M102.2,340
					c1.5,0.7,2.1,1.4,2.1,2.8c0,2.1-1.8,3.5-4.6,3.5c-2.6,0-4.3-1.2-4.3-3.2c0-1.2,0.6-1.9,2-2.5c-1.1-0.7-1.6-1.4-1.6-2.6
					c0-0.9,0.4-1.8,1.1-2.4c0.7-0.6,1.7-0.9,3-0.9c2.4,0,4,1.2,4,3C103.8,338.7,103.3,339.4,102.2,340z M100.4,339.2
					c0.8-0.3,1.1-0.7,1.1-1.4c0-0.9-0.7-1.5-1.8-1.5c-0.9,0-1.5,0.5-1.5,1.2C98.2,338.3,98.6,338.6,100.4,339.2z M99.1,341.3
					c-1,0.3-1.4,0.8-1.4,1.5c0,1,0.8,1.5,2.1,1.5c1.2,0,1.9-0.5,1.9-1.2c0-0.5-0.4-1-1-1.3C100.3,341.7,100.1,341.7,99.1,341.3z
					 M107.5,334.7c1.4,0,2.3,1.1,2.3,2.9c0,1.7-0.9,2.8-2.3,2.8c-1.4,0-2.3-1.1-2.3-2.9C105.2,335.9,106.1,334.7,107.5,334.7z
					 M107.5,335.7c-0.6,0-0.8,0.5-0.8,1.8c0,1.4,0.2,1.9,0.8,1.9c0.6,0,0.8-0.5,0.8-1.8C108.3,336.2,108.1,335.7,107.5,335.7z
					 M106.8,346l6.2-11.2h1.2L108,346H106.8z M113.5,340.3c1.4,0,2.3,1.1,2.3,2.9c0,1.7-0.9,2.8-2.3,2.8c-1.4,0-2.3-1.1-2.3-2.9
					C111.2,341.5,112.1,340.3,113.5,340.3z M113.5,341.3c-0.6,0-0.8,0.5-0.8,1.8c0,1.4,0.2,1.9,0.8,1.9c0.6,0,0.8-0.5,0.8-1.8
					C114.3,341.8,114.1,341.3,113.5,341.3z"/>
				<path class="st3" d="M94,292.8v2c-0.8,0.9-1.4,1.9-2.2,3.5c-0.6,1.3-1,3.4-1,4.9c0,0.2,0,0.5,0,0.8h-3c-0.1-2.9,1.6-6.8,3.8-8.9
					H86l0.2-2.3H94z M99.8,292.6c2.7,0,4.4,2.3,4.4,5.8c0,1.6-0.4,3.1-1.2,4.1c-0.7,1-1.8,1.5-3.2,1.5c-1.3,0-2.4-0.5-3.1-1.5
					c-0.8-1.1-1.2-2.6-1.2-4.3c0-1.6,0.4-3.1,1.2-4.2C97.3,293.2,98.4,292.6,99.8,292.6z M99.8,294.5c-1.2,0-1.6,1-1.6,3.8
					c0,2.9,0.4,3.9,1.7,3.9c1.2,0,1.6-1.1,1.6-3.7C101.5,295.5,101,294.5,99.8,294.5z M107.5,292.7c1.4,0,2.3,1.1,2.3,2.9
					c0,1.7-0.9,2.8-2.3,2.8c-1.4,0-2.3-1.1-2.3-2.9C105.2,293.9,106.1,292.7,107.5,292.7z M107.5,293.7c-0.6,0-0.8,0.5-0.8,1.8
					c0,1.4,0.2,1.9,0.8,1.9c0.6,0,0.8-0.5,0.8-1.8C108.3,294.2,108.1,293.7,107.5,293.7z M106.8,304l6.2-11.2h1.2L108,304H106.8z
					 M113.5,298.3c1.4,0,2.3,1.1,2.3,2.9c0,1.7-0.9,2.8-2.3,2.8c-1.4,0-2.3-1.1-2.3-2.9C111.2,299.5,112.1,298.3,113.5,298.3z
					 M113.5,299.3c-0.6,0-0.8,0.5-0.8,1.8c0,1.4,0.2,1.9,0.8,1.9c0.6,0,0.8-0.5,0.8-1.8C114.3,299.8,114.1,299.3,113.5,299.3z"/>
				<path class="st3" d="M94.2,251.6l-2.3,0.6c-0.3-1.2-0.8-1.7-1.7-1.7c-1.3,0-2,1.2-2,3.4v0.3c0.5-0.9,1.3-1.3,2.5-1.3
					c2,0,3.5,1.5,3.5,3.4c0,1-0.4,2-1.1,2.7c-0.8,0.7-1.7,1.1-3,1.1c-2.8,0-4.6-2.2-4.6-5.7c0-1.6,0.4-3.2,1.2-4.2
					c0.9-1.2,1.9-1.7,3.4-1.7c1.3,0,2.2,0.4,2.9,1.1C93.7,250.3,94,250.8,94.2,251.6z M90.1,254.8c-1,0-1.7,0.8-1.7,1.8
					c0,1,0.7,1.8,1.7,1.8c1,0,1.7-0.7,1.7-1.8C91.7,255.5,91,254.8,90.1,254.8z M104,251.6l-2.3,0.6c-0.3-1.2-0.8-1.7-1.7-1.7
					c-1.3,0-2,1.2-2,3.4v0.3c0.5-0.9,1.3-1.3,2.5-1.3c2,0,3.5,1.5,3.5,3.4c0,1-0.4,2-1.1,2.7c-0.8,0.7-1.7,1.1-3,1.1
					c-2.8,0-4.6-2.2-4.6-5.7c0-1.6,0.4-3.2,1.2-4.2c0.9-1.2,1.9-1.7,3.4-1.7c1.3,0,2.2,0.4,2.9,1.1
					C103.6,250.3,103.8,250.8,104,251.6z M100,254.8c-1,0-1.7,0.8-1.7,1.8c0,1,0.7,1.8,1.7,1.8c1,0,1.7-0.7,1.7-1.8
					C101.6,255.5,100.9,254.8,100,254.8z M107.5,248.7c1.4,0,2.3,1.1,2.3,2.9c0,1.7-0.9,2.8-2.3,2.8c-1.4,0-2.3-1.1-2.3-2.9
					C105.2,249.9,106.1,248.7,107.5,248.7z M107.5,249.7c-0.6,0-0.8,0.5-0.8,1.8c0,1.4,0.2,1.9,0.8,1.9c0.6,0,0.8-0.5,0.8-1.8
					C108.3,250.2,108.1,249.7,107.5,249.7z M106.8,260l6.2-11.2h1.2L108,260H106.8z M113.5,254.3c1.4,0,2.3,1.1,2.3,2.9
					c0,1.7-0.9,2.8-2.3,2.8c-1.4,0-2.3-1.1-2.3-2.9C111.2,255.5,112.1,254.3,113.5,254.3z M113.5,255.3c-0.6,0-0.8,0.5-0.8,1.8
					c0,1.4,0.2,1.9,0.8,1.9c0.6,0,0.8-0.5,0.8-1.8C114.3,255.8,114.1,255.3,113.5,255.3z"/>
				<path class="st3" d="M94,209.8v2c-0.8,0.9-1.4,1.9-2.2,3.5c-0.6,1.3-1,3.4-1,4.9c0,0.2,0,0.5,0,0.8h-3c-0.1-2.9,1.6-6.8,3.8-8.9
					H86l0.2-2.3H94z M104,218.8l-0.2,2.2h-8.4v-2.2c0.4-0.3,0.6-0.4,0.7-0.5l1.4-1c0.9-0.6,2.2-1.7,2.9-2.4c0.6-0.6,0.8-1.2,0.8-1.7
					c0-0.9-0.6-1.5-1.5-1.5c-1.1,0-1.7,0.7-1.9,2.2l-2.3-0.5c0.5-2.5,2-3.7,4.4-3.7c1.2,0,2,0.3,2.8,0.9c0.9,0.7,1.3,1.6,1.3,2.7
					c0,1.4-0.6,2.4-2.4,3.7c-0.7,0.5-1.3,0.9-2.9,1.9H104z M107.5,209.7c1.4,0,2.3,1.1,2.3,2.9c0,1.7-0.9,2.8-2.3,2.8
					c-1.4,0-2.3-1.1-2.3-2.9C105.2,210.9,106.1,209.7,107.5,209.7z M107.5,210.7c-0.6,0-0.8,0.5-0.8,1.8c0,1.4,0.2,1.9,0.8,1.9
					c0.6,0,0.8-0.5,0.8-1.8C108.3,211.2,108.1,210.7,107.5,210.7z M106.8,221l6.2-11.2h1.2L108,221H106.8z M113.5,215.3
					c1.4,0,2.3,1.1,2.3,2.9c0,1.7-0.9,2.8-2.3,2.8c-1.4,0-2.3-1.1-2.3-2.9C111.2,216.5,112.1,215.3,113.5,215.3z M113.5,216.3
					c-0.6,0-0.8,0.5-0.8,1.8c0,1.4,0.2,1.9,0.8,1.9c0.6,0,0.8-0.5,0.8-1.8C114.3,216.8,114.1,216.3,113.5,216.3z"/>
				<path class="st3" d="M94,170.8v2c-0.8,0.9-1.4,1.9-2.2,3.5c-0.6,1.3-1,3.4-1,4.9c0,0.2,0,0.5,0,0.8h-3c-0.1-2.9,1.6-6.8,3.8-8.9
					H86l0.2-2.3H94z M98.1,175.2h1.2c0.7,0,1.1-0.1,1.4-0.4c0.2-0.3,0.4-0.6,0.4-0.9c0-0.8-0.6-1.4-1.5-1.4c-0.9,0-1.4,0.4-1.7,1.4
					l-2.3-0.4c0.2-0.9,0.5-1.3,1-1.8c0.8-0.8,1.8-1.2,3.1-1.2c2.4,0,4,1.2,4,3c0,1.2-0.6,2-1.9,2.5c0.7,0.2,1,0.4,1.4,0.7
					c0.6,0.5,0.8,1.2,0.8,2c0,2-1.7,3.4-4.3,3.4c-1.4,0-2.4-0.3-3.2-1.1c-0.7-0.6-1-1.2-1.2-2.3l2.4-0.3c0.3,1.2,0.9,1.7,2,1.7
					c1,0,1.7-0.6,1.7-1.5c0-0.5-0.2-0.9-0.6-1.2c-0.3-0.2-0.7-0.3-1.5-0.3h-1V175.2z M107.5,170.7c1.4,0,2.3,1.1,2.3,2.9
					c0,1.7-0.9,2.8-2.3,2.8c-1.4,0-2.3-1.1-2.3-2.9C105.2,171.9,106.1,170.7,107.5,170.7z M107.5,171.7c-0.6,0-0.8,0.5-0.8,1.8
					c0,1.4,0.2,1.9,0.8,1.9c0.6,0,0.8-0.5,0.8-1.8C108.3,172.2,108.1,171.7,107.5,171.7z M106.8,182l6.2-11.2h1.2L108,182H106.8z
					 M113.5,176.3c1.4,0,2.3,1.1,2.3,2.9c0,1.7-0.9,2.8-2.3,2.8c-1.4,0-2.3-1.1-2.3-2.9C111.2,177.5,112.1,176.3,113.5,176.3z
					 M113.5,177.3c-0.6,0-0.8,0.5-0.8,1.8c0,1.4,0.2,1.9,0.8,1.9c0.6,0,0.8-0.5,0.8-1.8C114.3,177.8,114.1,177.3,113.5,177.3z"/>
				<path class="st3" d="M94.2,130.6l-2.3,0.6c-0.3-1.2-0.8-1.7-1.7-1.7c-1.3,0-2,1.2-2,3.4v0.3c0.5-0.9,1.3-1.3,2.5-1.3
					c2,0,3.5,1.5,3.5,3.4c0,1-0.4,2-1.1,2.7c-0.8,0.7-1.7,1.1-3,1.1c-2.8,0-4.6-2.2-4.6-5.7c0-1.6,0.4-3.2,1.2-4.2
					c0.9-1.2,1.9-1.7,3.4-1.7c1.3,0,2.2,0.4,2.9,1.1C93.7,129.3,94,129.8,94.2,130.6z M90.1,133.8c-1,0-1.7,0.8-1.7,1.8
					c0,1,0.7,1.8,1.7,1.8c1,0,1.7-0.7,1.7-1.8C91.7,134.5,91,133.8,90.1,133.8z M102.8,127.6v6.8h1.6v2h-1.6v2.6h-2.6v-2.6h-4.9v-2
					l4.5-6.8H102.8z M97.2,134.4h3v-3.8c0-0.1,0-0.3,0-0.5l0-0.5L97.2,134.4z M107.5,127.7c1.4,0,2.3,1.1,2.3,2.9
					c0,1.7-0.9,2.8-2.3,2.8c-1.4,0-2.3-1.1-2.3-2.9C105.2,128.9,106.1,127.7,107.5,127.7z M107.5,128.7c-0.6,0-0.8,0.5-0.8,1.8
					c0,1.4,0.2,1.9,0.8,1.9c0.6,0,0.8-0.5,0.8-1.8C108.3,129.2,108.1,128.7,107.5,128.7z M106.8,139l6.2-11.2h1.2L108,139H106.8z
					 M113.5,133.3c1.4,0,2.3,1.1,2.3,2.9c0,1.7-0.9,2.8-2.3,2.8c-1.4,0-2.3-1.1-2.3-2.9C111.2,134.5,112.1,133.3,113.5,133.3z
					 M113.5,134.3c-0.6,0-0.8,0.5-0.8,1.8c0,1.4,0.2,1.9,0.8,1.9c0.6,0,0.8-0.5,0.8-1.8C114.3,134.8,114.1,134.3,113.5,134.3z"/>
				<path class="st3" d="M94,87.8v2c-0.8,0.9-1.4,1.9-2.2,3.5c-0.6,1.3-1,3.4-1,4.9c0,0.2,0,0.5,0,0.8h-3c-0.1-2.9,1.6-6.8,3.8-8.9
					H86l0.2-2.3H94z M103.3,90.1h-4.9l-0.2,2.5c0.7-0.7,1.4-1,2.4-1c2.1,0,3.6,1.5,3.6,3.6c0,2.4-1.7,4-4.4,4c-1.3,0-2.3-0.3-3.2-1
					c-0.7-0.6-1-1.1-1.2-2.1l2.5-0.4c0.3,1,0.9,1.5,1.9,1.5c1,0,1.8-0.7,1.8-1.7c0-1-0.8-1.8-1.8-1.8c-0.7,0-1.3,0.3-1.6,0.9
					l-2.2-0.4l0.4-6.4h7.1L103.3,90.1z M107.5,87.7c1.4,0,2.3,1.1,2.3,2.9c0,1.7-0.9,2.8-2.3,2.8c-1.4,0-2.3-1.1-2.3-2.9
					C105.2,88.9,106.1,87.7,107.5,87.7z M107.5,88.7c-0.6,0-0.8,0.5-0.8,1.8c0,1.4,0.2,1.9,0.8,1.9c0.6,0,0.8-0.5,0.8-1.8
					C108.3,89.2,108.1,88.7,107.5,88.7z M106.8,99l6.2-11.2h1.2L108,99H106.8z M113.5,93.3c1.4,0,2.3,1.1,2.3,2.9
					c0,1.7-0.9,2.8-2.3,2.8c-1.4,0-2.3-1.1-2.3-2.9C111.2,94.5,112.1,93.3,113.5,93.3z M113.5,94.3c-0.6,0-0.8,0.5-0.8,1.8
					c0,1.4,0.2,1.9,0.8,1.9c0.6,0,0.8-0.5,0.8-1.8C114.3,94.8,114.1,94.3,113.5,94.3z"/>
				<path id="Expectation" class="st2" d="M57.1,1.4h-4.5v1.9h3.5v1.7h-3.5v2h4.5V9h-6.7v-9.3h6.7V1.4z M64.1,2.1l-2,3.2L64.4,9
					h-2.3l-1.4-2.4L59.2,9h-1.8l2.3-3.7l-2-3.2h2.3L61.2,4l1.1-1.9H64.1z M65.3,11.3V2.1h1.9v1C67.5,2.3,68.1,2,68.9,2
					c1.6,0,2.5,1.3,2.5,3.6c0,2.3-1,3.6-2.6,3.6c-0.8,0-1.3-0.3-1.7-0.9v3.1H65.3z M67.2,5v1c0,0.8,0,1,0.2,1.2
					c0.2,0.3,0.6,0.5,0.9,0.5s0.6-0.2,0.8-0.5c0.2-0.3,0.3-0.9,0.3-1.7c0-1.4-0.3-2.1-1.1-2.1C67.6,3.4,67.2,4,67.2,5z M79,5.9h-4.4
					c0,0.1,0,0.3,0,0.3c0,0.9,0.5,1.5,1.3,1.5c0.7,0,1.1-0.4,1.2-1.1L79,6.7c-0.2,0.7-0.4,1.1-0.8,1.5c-0.6,0.6-1.3,0.9-2.4,0.9
					c-2,0-3.4-1.4-3.4-3.5c0-2.2,1.4-3.7,3.3-3.7c1.1,0,2.2,0.6,2.7,1.5C78.8,4.1,79,4.7,79,5.9z M74.6,4.7H77
					c-0.1-1-0.4-1.4-1.2-1.4C75.1,3.3,74.7,3.7,74.6,4.7z M84.5,6.3l1.9,0.1c-0.1,0.7-0.2,1.1-0.6,1.6c-0.6,0.8-1.5,1.2-2.6,1.2
					c-2,0-3.3-1.4-3.3-3.5c0-2.2,1.4-3.6,3.4-3.6c1,0,1.8,0.3,2.3,1c0.4,0.5,0.6,0.9,0.7,1.7l-1.9,0.1c-0.1-0.9-0.4-1.2-1.1-1.2
					c-0.8,0-1.2,0.6-1.2,2c0,1.4,0.3,2,1.1,2C84,7.5,84.3,7.1,84.5,6.3z M90.1,3.7v2.9c0,0.8,0.2,0.9,1,0.9c0.2,0,0.3,0,0.6,0V9
					c-0.9,0.1-1,0.2-1.3,0.2c-1.7,0-2.3-0.6-2.3-2.3V3.7H87V2.1h1.2l0.2-2l1.8-0.1v2.2h1.5v1.6H90.1z M99,9h-2
					c-0.1-0.4-0.1-0.5-0.1-0.9c0,0,0-0.1,0-0.2c-0.7,0.9-1.2,1.2-2.2,1.2c-1.3,0-2.2-0.8-2.2-1.9c0-1,0.5-1.7,1.5-2.1
					c0.5-0.2,1.2-0.3,2.7-0.4V4.3c0-0.7-0.3-1-1-1c-0.7,0-1.1,0.3-1.2,1l-1.9-0.2c0.1-0.7,0.3-1.1,0.8-1.5C94.2,2.2,95,2,96,2
					c1.1,0,2,0.3,2.5,0.9c0.3,0.4,0.4,0.7,0.4,1.8v3.1C98.9,8.5,98.9,8.5,99,9z M96.9,6.3V5.7c-0.6,0.1-0.9,0.1-1.2,0.2
					C95,6.1,94.7,6.5,94.7,7c0,0.5,0.3,0.9,0.9,0.9C96.3,7.9,96.9,7.2,96.9,6.3z M102.9,3.7v2.9c0,0.8,0.2,0.9,1,0.9
					c0.2,0,0.3,0,0.6,0V9c-0.9,0.1-1,0.2-1.3,0.2c-1.7,0-2.3-0.6-2.3-2.3V3.7h-1.1V2.1h1.2l0.2-2l1.8-0.1v2.2h1.5v1.6H102.9z
					 M107.6,2.1V9h-2V2.1H107.6z M107.6-0.5v2h-2v-2H107.6z M112.1,2c2,0,3.3,1.4,3.3,3.6c0,2.1-1.4,3.6-3.3,3.6
					c-1,0-1.8-0.3-2.4-1.1c-0.6-0.7-0.9-1.5-0.9-2.6C108.9,3.4,110.2,2,112.1,2z M112.2,3.3c-0.8,0-1.2,0.6-1.2,2.1
					c0,1.7,0.3,2.4,1.2,2.4c0.8,0,1.2-0.7,1.2-2.2C113.3,3.9,113,3.3,112.2,3.3z M122.8,9h-2V5.1c0-0.7,0-0.9-0.1-1.1
					c-0.1-0.3-0.4-0.4-0.7-0.4c-0.7,0-1.1,0.6-1.1,1.6V9h-2V2.1h1.9v1.2c0.6-1,1.1-1.3,2-1.3c0.7,0,1.3,0.2,1.6,0.7
					c0.3,0.4,0.5,1,0.5,1.9V9z"/>
				<path id="Whatthenextwaveofself-employedprofessionalsexpect." class="st2" d="M32.1,22.7L30.3,30h-0.9l-1.6-5.7L26.3,30h-0.9
					l-1.9-7.3h0.9l1.5,5.9l1.6-5.9h0.7l1.7,5.9l1.4-5.9H32.1z M37.3,30h-0.8v-3.3c0-0.6,0-0.8-0.1-1c-0.1-0.4-0.5-0.6-0.9-0.6
					c-0.4,0-0.8,0.2-1.1,0.5c-0.3,0.4-0.5,0.8-0.5,1.4V30H33v-7.3h0.8v2.9c0.4-0.8,0.9-1.2,1.7-1.2c0.6,0,1.1,0.3,1.4,0.7
					c0.3,0.4,0.3,0.7,0.3,1.6V30z M43.2,30h-0.8c-0.1-0.3-0.1-0.4-0.1-1c-0.4,0.8-1,1.1-1.9,1.1c-1.1,0-1.9-0.7-1.9-1.6
					c0-0.6,0.4-1.2,0.9-1.5c0.5-0.3,1.2-0.4,2.2-0.4c0.2,0,0.4,0,0.7,0v-0.2c0-1-0.4-1.4-1.4-1.4c-0.8,0-1.3,0.3-1.5,1l-0.8-0.1
					c0.1-0.4,0.2-0.6,0.4-0.8c0.4-0.4,1.1-0.7,2-0.7c0.8,0,1.4,0.2,1.7,0.6c0.3,0.4,0.4,0.8,0.4,1.6v2.3
					C43.1,29.3,43.1,29.7,43.2,30z M42.3,27.3c-0.3,0-0.6,0-0.7,0c-1.4,0-2.2,0.4-2.2,1.3c0,0.6,0.5,1,1.2,1c1,0,1.7-0.8,1.7-1.9
					C42.3,27.5,42.3,27.4,42.3,27.3z M47.1,29.4v0.7c-0.4,0.1-0.6,0.1-0.8,0.1c-1,0-1.6-0.6-1.6-1.6v-3.3h-1v-0.7h1l0-1.4l0.8-0.1
					v1.4h1.2v0.7h-1.2v3.4c0,0.6,0.3,0.8,0.9,0.8C46.7,29.5,46.8,29.5,47.1,29.4z M53.2,29.4v0.7c-0.4,0.1-0.6,0.1-0.8,0.1
					c-1,0-1.6-0.6-1.6-1.6v-3.3h-1v-0.7h1l0-1.4l0.8-0.1v1.4h1.2v0.7h-1.2v3.4c0,0.6,0.3,0.8,0.9,0.8C52.8,29.5,53,29.5,53.2,29.4z
					 M58.4,30h-0.8v-3.3c0-0.6,0-0.8-0.1-1c-0.1-0.4-0.5-0.6-0.9-0.6c-0.4,0-0.8,0.2-1.1,0.5C55.1,26,55,26.4,55,27.1V30h-0.8v-7.3
					H55v2.9c0.4-0.8,0.9-1.2,1.7-1.2c0.6,0,1.1,0.3,1.4,0.7c0.3,0.4,0.3,0.7,0.3,1.6V30z M63.6,28.4l0.8,0.2c-0.4,1-1.2,1.6-2.3,1.6
					c-1.5,0-2.5-1.1-2.5-2.8c0-1.7,1-2.9,2.5-2.9c0.9,0,1.7,0.5,2,1.3c0.2,0.5,0.3,0.9,0.3,1.7h-3.9c0,0.6,0.1,0.9,0.2,1.3
					c0.2,0.5,0.8,0.8,1.4,0.8c0.4,0,0.9-0.2,1.1-0.5C63.4,28.8,63.5,28.7,63.6,28.4z M60.6,26.7h3c0-0.5-0.1-0.8-0.3-1.1
					c-0.3-0.4-0.6-0.6-1.1-0.6c-0.5,0-0.9,0.2-1.2,0.6C60.8,26,60.7,26.2,60.6,26.7z M72.8,30H72v-3.5c0-0.9-0.4-1.4-1.1-1.4
					c-0.9,0-1.5,0.8-1.5,1.9v3h-0.8v-5.4h0.8v1c0.6-0.9,1-1.1,1.7-1.1c0.7,0,1.3,0.4,1.6,0.9c0.1,0.3,0.2,0.7,0.2,1.5V30z
					 M78.1,28.4l0.8,0.2c-0.4,1-1.2,1.6-2.3,1.6c-1.5,0-2.5-1.1-2.5-2.8c0-1.7,1-2.9,2.5-2.9c0.9,0,1.7,0.5,2,1.3
					c0.2,0.5,0.3,0.9,0.3,1.7H75c0,0.6,0.1,0.9,0.2,1.3c0.2,0.5,0.8,0.8,1.4,0.8c0.4,0,0.9-0.2,1.1-0.5C77.9,28.8,78,28.7,78.1,28.4
					z M75,26.7h3c0-0.5-0.1-0.8-0.3-1.1c-0.3-0.4-0.6-0.6-1.1-0.6c-0.5,0-0.9,0.2-1.2,0.6C75.2,26,75.1,26.2,75,26.7z M83.8,30h-1
					l-1.4-2.2L80,30h-0.8l1.8-2.8l-1.7-2.6h1l1.2,1.8l1.2-1.8h0.8L81.9,27L83.8,30z M87.1,29.4v0.7c-0.4,0.1-0.6,0.1-0.8,0.1
					c-1,0-1.6-0.6-1.6-1.6v-3.3h-1v-0.7h1l0-1.4l0.8-0.1v1.4h1.2v0.7h-1.2v3.4c0,0.6,0.3,0.8,0.9,0.8C86.7,29.5,86.9,29.5,87.1,29.4
					z M97.1,24.6L95.5,30h-0.7l-1.2-4l-1.1,4h-0.7l-1.6-5.4H91l1.2,4l1.1-4H94l1.2,4.1l1.2-4.1H97.1z M102.3,30h-0.8
					c-0.1-0.3-0.1-0.4-0.1-1c-0.4,0.8-1,1.1-1.9,1.1c-1.1,0-1.9-0.7-1.9-1.6c0-0.6,0.4-1.2,0.9-1.5c0.5-0.3,1.2-0.4,2.2-0.4
					c0.2,0,0.4,0,0.7,0v-0.2c0-1-0.4-1.4-1.4-1.4c-0.8,0-1.3,0.3-1.5,1l-0.8-0.1c0.1-0.4,0.2-0.6,0.4-0.8c0.4-0.4,1.1-0.7,2-0.7
					c0.8,0,1.4,0.2,1.7,0.6c0.3,0.4,0.4,0.8,0.4,1.6v2.3C102.1,29.3,102.2,29.7,102.3,30z M101.3,27.3c-0.3,0-0.6,0-0.7,0
					c-1.4,0-2.2,0.4-2.2,1.3c0,0.6,0.5,1,1.2,1c1,0,1.7-0.8,1.7-1.9C101.3,27.5,101.3,27.4,101.3,27.3z M107.6,24.6l-1.9,5.4h-0.9
					l-1.9-5.4h0.9l1.5,4.4l1.5-4.4H107.6z M111.9,28.4l0.8,0.2c-0.4,1-1.2,1.6-2.3,1.6c-1.5,0-2.5-1.1-2.5-2.8c0-1.7,1-2.9,2.5-2.9
					c0.9,0,1.7,0.5,2,1.3c0.2,0.5,0.3,0.9,0.3,1.7h-3.9c0,0.6,0.1,0.9,0.2,1.3c0.2,0.5,0.8,0.8,1.4,0.8c0.4,0,0.9-0.2,1.1-0.5
					C111.7,28.8,111.8,28.7,111.9,28.4z M108.9,26.7h3c0-0.5-0.1-0.8-0.3-1.1c-0.3-0.4-0.6-0.6-1.1-0.6c-0.5,0-0.9,0.2-1.2,0.6
					C109.1,26,109,26.2,108.9,26.7z M118.9,24.4c1.5,0,2.4,1.1,2.4,2.9c0,1.6-1,2.8-2.5,2.8c-1.4,0-2.4-1.1-2.4-2.9
					C116.4,25.6,117.4,24.4,118.9,24.4z M118.8,25.1c-0.4,0-0.9,0.2-1.1,0.6c-0.2,0.4-0.4,0.9-0.4,1.5c0,1.4,0.6,2.2,1.5,2.2
					c0.9,0,1.5-0.8,1.5-2.1c0-0.7-0.1-1.2-0.4-1.6C119.7,25.3,119.3,25.1,118.8,25.1z M124.8,24.6v0.7h-1.3V30h-0.8v-4.8h-1v-0.7h1
					c0-0.7,0.1-0.9,0.2-1.2c0.2-0.5,0.7-0.9,1.4-0.9c0.2,0,0.4,0,0.8,0.1v0.7c-0.2-0.1-0.3-0.1-0.5-0.1c-0.6,0-0.9,0.2-1,0.5
					c-0.1,0.2-0.1,0.3-0.1,0.9H124.8z M61.5,41.6l0.8-0.2c0.1,0.3,0.2,0.5,0.4,0.6c0.3,0.3,0.8,0.4,1.3,0.4c0.8,0,1.3-0.4,1.3-0.9
					c0-0.4-0.3-0.7-0.9-0.8l-1.1-0.2c-0.9-0.2-1.5-0.7-1.5-1.5c0-1,0.8-1.6,2-1.6c1.1,0,1.9,0.5,2.1,1.4L65.1,39
					c-0.3-0.6-0.7-0.8-1.4-0.8c-0.7,0-1.2,0.3-1.2,0.8c0,0.4,0.3,0.6,0.8,0.8l1.1,0.2c1.1,0.2,1.7,0.7,1.7,1.6c0,1-0.9,1.7-2.2,1.7
					c-0.8,0-1.4-0.2-1.8-0.6C61.8,42.3,61.6,42.1,61.5,41.6z M70.9,41.4l0.8,0.2c-0.4,1-1.2,1.6-2.3,1.6c-1.5,0-2.5-1.1-2.5-2.8
					c0-1.7,1-2.9,2.5-2.9c0.9,0,1.7,0.5,2,1.3c0.2,0.5,0.3,0.9,0.3,1.7h-3.9c0,0.6,0.1,0.9,0.2,1.3c0.2,0.5,0.8,0.8,1.4,0.8
					c0.4,0,0.9-0.2,1.1-0.5C70.7,41.8,70.8,41.7,70.9,41.4z M67.9,39.7h3c0-0.5-0.1-0.8-0.3-1.1c-0.3-0.4-0.6-0.6-1.1-0.6
					c-0.5,0-0.9,0.2-1.2,0.6C68,39,67.9,39.2,67.9,39.7z M73.8,43h-0.8v-7.3h0.8V43z M77.7,37.6v0.7h-1.3V43h-0.8v-4.8h-1v-0.7h1
					c0-0.7,0.1-0.9,0.2-1.2c0.2-0.5,0.7-0.9,1.4-0.9c0.2,0,0.4,0,0.8,0.1v0.7c-0.2-0.1-0.3-0.1-0.5-0.1c-0.6,0-0.9,0.2-1,0.5
					c-0.1,0.2-0.1,0.3-0.1,0.9H77.7z M80.4,39.9v0.7h-2.4v-0.7H80.4z M84.9,41.4l0.8,0.2c-0.4,1-1.2,1.6-2.3,1.6
					c-1.5,0-2.5-1.1-2.5-2.8c0-1.7,1-2.9,2.5-2.9c0.9,0,1.7,0.5,2,1.3c0.2,0.5,0.3,0.9,0.3,1.7h-3.9c0,0.6,0.1,0.9,0.2,1.3
					c0.2,0.5,0.8,0.8,1.4,0.8c0.4,0,0.9-0.2,1.1-0.5C84.7,41.8,84.8,41.7,84.9,41.4z M81.9,39.7h3c0-0.5-0.1-0.8-0.3-1.1
					c-0.3-0.4-0.6-0.6-1.1-0.6c-0.5,0-0.9,0.2-1.2,0.6C82.1,39,82,39.2,81.9,39.7z M94.4,43h-0.8v-3.4c0-0.6,0-0.7-0.2-1
					c-0.2-0.3-0.5-0.5-0.9-0.5c-0.3,0-0.7,0.2-1,0.5c-0.3,0.4-0.4,0.7-0.4,1.3V43h-0.8v-3.6c0-0.4-0.1-0.7-0.3-0.9
					c-0.2-0.3-0.5-0.4-0.8-0.4c-0.7,0-1.3,0.7-1.3,1.6V43h-0.8v-5.4h0.7v1c0.4-0.8,1-1.2,1.7-1.2c0.8,0,1.3,0.5,1.5,1.3
					c0.4-0.8,1-1.3,1.7-1.3c0.6,0,1.1,0.3,1.4,0.8c0.2,0.3,0.3,0.6,0.3,1.4V43z M96.8,44.8h-0.8v-7.3h0.8v1.1
					c0.4-0.8,0.9-1.2,1.7-1.2c1.3,0,2.2,1.2,2.2,2.8c0,1.7-0.9,2.9-2.2,2.9c-0.7,0-1.1-0.3-1.6-1V44.8z M96.8,39.5V41
					c0.1,0.8,0.7,1.4,1.4,1.4c0.4,0,0.8-0.2,1-0.5c0.3-0.4,0.4-0.9,0.4-1.6c0-1.4-0.5-2.2-1.4-2.2C97.5,38.2,97,38.7,96.8,39.5z
					 M102.6,43h-0.8v-7.3h0.8V43z M106.3,37.4c1.5,0,2.4,1.1,2.4,2.9c0,1.6-1,2.8-2.5,2.8c-1.4,0-2.4-1.1-2.4-2.9
					C103.9,38.6,104.9,37.4,106.3,37.4z M106.3,38.1c-0.4,0-0.9,0.2-1.1,0.6c-0.2,0.4-0.4,0.9-0.4,1.5c0,1.4,0.5,2.2,1.5,2.2
					c0.9,0,1.5-0.8,1.5-2.1c0-0.7-0.1-1.2-0.4-1.6C107.2,38.3,106.7,38.1,106.3,38.1z M113.5,37.6l-2.2,6.1
					c-0.2,0.5-0.4,0.9-0.7,1.1c-0.2,0.1-0.5,0.2-0.8,0.2c-0.2,0-0.4,0-0.6-0.1v-0.7c0.3,0.1,0.4,0.1,0.6,0.1c0.4,0,0.7-0.1,0.9-0.5
					c0.1-0.2,0.2-0.4,0.4-0.9l-1.9-5.3h0.9l1.5,4.1l1.5-4.1H113.5z M117.8,41.4l0.8,0.2c-0.4,1-1.2,1.6-2.3,1.6
					c-1.5,0-2.5-1.1-2.5-2.8c0-1.7,1-2.9,2.5-2.9c0.9,0,1.7,0.5,2,1.3c0.2,0.5,0.3,0.9,0.3,1.7h-3.9c0,0.6,0.1,0.9,0.2,1.3
					c0.2,0.5,0.8,0.8,1.4,0.8c0.4,0,0.9-0.2,1.1-0.5C117.6,41.8,117.7,41.7,117.8,41.4z M114.8,39.7h3c0-0.5-0.1-0.8-0.3-1.1
					c-0.3-0.4-0.6-0.6-1.1-0.6c-0.5,0-0.9,0.2-1.2,0.6C114.9,39,114.8,39.2,114.8,39.7z M124.2,35.7V43h-0.8v-0.9
					c-0.5,0.8-0.9,1.1-1.7,1.1c-1.3,0-2.2-1.2-2.2-2.8c0-1.7,0.9-2.9,2.2-2.9c0.7,0,1.1,0.2,1.6,0.9v-2.7H124.2z M123.3,40.8v-1.1
					c0-0.5-0.1-0.7-0.3-1c-0.3-0.3-0.7-0.6-1.1-0.6c-0.9,0-1.4,0.8-1.4,2.1c0,1.4,0.5,2.2,1.4,2.2c0.4,0,0.8-0.2,1.1-0.5
					C123.2,41.6,123.3,41.3,123.3,40.8z M28.9,57.8H28v-7.3h0.8v1.1c0.4-0.8,0.9-1.2,1.7-1.2c1.3,0,2.2,1.2,2.2,2.8
					c0,1.7-0.9,2.9-2.2,2.9c-0.7,0-1.1-0.3-1.6-1V57.8z M28.9,52.5V54c0.1,0.8,0.7,1.4,1.4,1.4c0.4,0,0.8-0.2,1-0.5
					c0.3-0.4,0.4-0.9,0.4-1.6c0-1.4-0.5-2.2-1.4-2.2C29.6,51.2,29.1,51.7,28.9,52.5z M34.7,56h-0.8v-5.4h0.7v1.3
					c0.3-0.5,0.4-0.7,0.6-0.9c0.2-0.3,0.6-0.5,1.1-0.5c0.1,0,0.2,0,0.3,0v0.8c-1-0.1-1.8,0.7-1.8,1.9V56z M39.4,50.4
					c1.5,0,2.4,1.1,2.4,2.9c0,1.6-1,2.8-2.5,2.8c-1.4,0-2.4-1.1-2.4-2.9C36.9,51.6,37.9,50.4,39.4,50.4z M39.4,51.1
					c-0.4,0-0.9,0.2-1.1,0.6c-0.2,0.4-0.4,0.9-0.4,1.5c0,1.4,0.5,2.2,1.5,2.2c0.9,0,1.5-0.8,1.5-2.1c0-0.7-0.1-1.2-0.4-1.6
					C40.2,51.3,39.8,51.1,39.4,51.1z M45.3,50.6v0.7H44V56h-0.8v-4.8h-1v-0.7h1c0-0.7,0.1-0.9,0.2-1.2c0.2-0.5,0.7-0.9,1.4-0.9
					c0.2,0,0.4,0,0.8,0.1v0.7c-0.2-0.1-0.3-0.1-0.5-0.1c-0.6,0-0.9,0.2-1,0.5C44,49.9,44,50,44,50.6H45.3z M49.7,54.4l0.8,0.2
					c-0.4,1-1.2,1.6-2.3,1.6c-1.5,0-2.5-1.1-2.5-2.8c0-1.7,1-2.9,2.5-2.9c0.9,0,1.7,0.5,2,1.3c0.2,0.5,0.3,0.9,0.3,1.7h-3.9
					c0,0.6,0.1,0.9,0.2,1.3c0.2,0.5,0.8,0.8,1.4,0.8c0.4,0,0.9-0.2,1.1-0.5C49.5,54.8,49.6,54.7,49.7,54.4z M46.7,52.7h3
					c0-0.5-0.1-0.8-0.3-1.1c-0.3-0.4-0.6-0.6-1.1-0.6c-0.5,0-0.9,0.2-1.2,0.6C46.8,52,46.8,52.2,46.7,52.7z M51.2,54.6l0.8-0.2
					c0.1,0.3,0.2,0.5,0.4,0.6c0.3,0.3,0.8,0.4,1.3,0.4c0.8,0,1.3-0.4,1.3-0.9c0-0.4-0.3-0.7-0.9-0.8l-1.1-0.2
					c-0.9-0.2-1.5-0.7-1.5-1.5c0-1,0.8-1.6,2-1.6c1.1,0,1.9,0.5,2.1,1.4L54.8,52c-0.3-0.6-0.7-0.8-1.4-0.8c-0.7,0-1.2,0.3-1.2,0.8
					c0,0.4,0.3,0.6,0.8,0.8l1.1,0.2c1.1,0.2,1.7,0.7,1.7,1.6c0,1-0.9,1.7-2.2,1.7c-0.8,0-1.4-0.2-1.8-0.6
					C51.5,55.3,51.3,55.1,51.2,54.6z M56.5,54.6l0.8-0.2c0.1,0.3,0.2,0.5,0.4,0.6c0.3,0.3,0.8,0.4,1.3,0.4c0.8,0,1.3-0.4,1.3-0.9
					c0-0.4-0.3-0.7-0.9-0.8l-1.1-0.2c-0.9-0.2-1.5-0.7-1.5-1.5c0-1,0.8-1.6,2-1.6c1.1,0,1.9,0.5,2.1,1.4L60.1,52
					c-0.3-0.6-0.7-0.8-1.4-0.8c-0.7,0-1.2,0.3-1.2,0.8c0,0.4,0.3,0.6,0.8,0.8l1.1,0.2c1.1,0.2,1.6,0.7,1.6,1.6c0,1-0.9,1.7-2.2,1.7
					c-0.8,0-1.4-0.2-1.8-0.6C56.8,55.3,56.6,55.1,56.5,54.6z M63.2,50.6V56h-0.8v-5.4H63.2z M63.2,48.7v0.9h-0.9v-0.9H63.2z
					 M66.9,50.4c1.5,0,2.4,1.1,2.4,2.9c0,1.6-1,2.8-2.5,2.8c-1.4,0-2.4-1.1-2.4-2.9C64.4,51.6,65.4,50.4,66.9,50.4z M66.8,51.1
					c-0.4,0-0.9,0.2-1.1,0.6c-0.2,0.4-0.4,0.9-0.4,1.5c0,1.4,0.6,2.2,1.5,2.2c0.9,0,1.5-0.8,1.5-2.1c0-0.7-0.1-1.2-0.4-1.6
					C67.7,51.3,67.3,51.1,66.8,51.1z M74.8,56H74v-3.5c0-0.9-0.4-1.4-1.1-1.4c-0.9,0-1.5,0.8-1.5,1.9v3h-0.8v-5.4h0.8v1
					c0.6-0.9,1-1.1,1.7-1.1c0.7,0,1.3,0.4,1.6,0.9c0.1,0.3,0.2,0.7,0.2,1.5V56z M80.8,56h-0.8c-0.1-0.3-0.1-0.4-0.1-1
					c-0.4,0.8-1,1.1-1.9,1.1c-1.1,0-1.9-0.7-1.9-1.6c0-0.6,0.4-1.2,0.9-1.5c0.5-0.3,1.2-0.4,2.2-0.4c0.2,0,0.4,0,0.7,0v-0.2
					c0-1-0.4-1.4-1.4-1.4c-0.8,0-1.3,0.3-1.5,1l-0.8-0.1c0.1-0.4,0.2-0.6,0.4-0.8c0.4-0.4,1.1-0.7,2-0.7c0.8,0,1.4,0.2,1.7,0.6
					c0.3,0.4,0.4,0.8,0.4,1.6v2.3C80.6,55.3,80.7,55.7,80.8,56z M79.8,53.3c-0.3,0-0.6,0-0.7,0c-1.4,0-2.2,0.4-2.2,1.3
					c0,0.6,0.5,1,1.2,1c1,0,1.7-0.8,1.7-1.9C79.8,53.5,79.8,53.4,79.8,53.3z M83.2,56h-0.8v-7.3h0.8V56z M84.1,54.6l0.8-0.2
					c0.1,0.3,0.2,0.5,0.4,0.6c0.3,0.3,0.8,0.4,1.3,0.4c0.8,0,1.3-0.4,1.3-0.9c0-0.4-0.3-0.7-0.9-0.8l-1.1-0.2
					c-0.9-0.2-1.5-0.7-1.5-1.5c0-1,0.8-1.6,2-1.6c1.1,0,1.9,0.5,2.1,1.4L87.8,52c-0.3-0.6-0.7-0.8-1.4-0.8c-0.7,0-1.2,0.3-1.2,0.8
					c0,0.4,0.3,0.6,0.8,0.8l1.1,0.2c1.1,0.2,1.7,0.7,1.7,1.6c0,1-0.9,1.7-2.2,1.7c-0.8,0-1.4-0.2-1.8-0.6
					C84.4,55.3,84.3,55.1,84.1,54.6z M96.3,54.4l0.8,0.2c-0.4,1-1.2,1.6-2.3,1.6c-1.5,0-2.5-1.1-2.5-2.8c0-1.7,1-2.9,2.5-2.9
					c0.9,0,1.7,0.5,2,1.3c0.2,0.5,0.3,0.9,0.3,1.7h-3.9c0,0.6,0.1,0.9,0.2,1.3c0.2,0.5,0.8,0.8,1.4,0.8c0.4,0,0.9-0.2,1.1-0.5
					C96.1,54.8,96.2,54.7,96.3,54.4z M93.3,52.7h3c0-0.5-0.1-0.8-0.3-1.1c-0.3-0.4-0.6-0.6-1.1-0.6c-0.5,0-0.9,0.2-1.2,0.6
					C93.4,52,93.3,52.2,93.3,52.7z M102,56h-1l-1.4-2.2L98.3,56h-0.8l1.8-2.8l-1.7-2.6h1l1.2,1.8l1.2-1.8h0.8l-1.6,2.4L102,56z
					 M103.8,57.8h-0.8v-7.3h0.8v1.1c0.4-0.8,0.9-1.2,1.7-1.2c1.3,0,2.2,1.2,2.2,2.8c0,1.7-0.9,2.9-2.2,2.9c-0.7,0-1.1-0.3-1.6-1
					V57.8z M103.8,52.5V54c0.1,0.8,0.7,1.4,1.4,1.4c0.4,0,0.8-0.2,1-0.5c0.3-0.4,0.4-0.9,0.4-1.6c0-1.4-0.5-2.2-1.4-2.2
					C104.5,51.2,104,51.7,103.8,52.5z M112.4,54.4l0.8,0.2c-0.4,1-1.2,1.6-2.3,1.6c-1.5,0-2.5-1.1-2.5-2.8c0-1.7,1-2.9,2.5-2.9
					c0.9,0,1.7,0.5,2,1.3c0.2,0.5,0.3,0.9,0.3,1.7h-3.9c0,0.6,0.1,0.9,0.2,1.3c0.2,0.5,0.8,0.8,1.4,0.8c0.4,0,0.9-0.2,1.1-0.5
					C112.2,54.8,112.3,54.7,112.4,54.4z M109.3,52.7h3c0-0.5-0.1-0.8-0.3-1.1c-0.3-0.4-0.6-0.6-1.1-0.6c-0.5,0-0.9,0.2-1.2,0.6
					C109.5,52,109.4,52.2,109.3,52.7z M117.7,54.1l0.8,0.1c-0.1,0.7-0.3,1-0.6,1.3c-0.4,0.4-0.9,0.6-1.5,0.6c-1.4,0-2.3-1.1-2.3-2.8
					c0-1.7,0.9-2.9,2.3-2.9c1.1,0,1.8,0.7,2.1,1.9l-0.8,0.1c-0.1-0.4-0.1-0.6-0.3-0.8c-0.2-0.3-0.6-0.5-1-0.5
					c-0.9,0-1.4,0.8-1.4,2.1c0,1.4,0.5,2.2,1.4,2.2C117.1,55.5,117.5,55,117.7,54.1z M122.2,55.4v0.7c-0.4,0.1-0.6,0.1-0.8,0.1
					c-1,0-1.6-0.6-1.6-1.6v-3.3h-1v-0.7h1l0-1.4l0.8-0.1v1.4h1.2v0.7h-1.2v3.4c0,0.6,0.3,0.8,0.9,0.8
					C121.7,55.5,121.9,55.5,122.2,55.4z M124.2,54.8V56H123v-1.2H124.2z"/>
				<path class="st2" d="M200.8,22.7L199,30h-0.9l-1.6-5.7L195,30h-0.9l-1.9-7.3h0.9l1.5,5.9l1.6-5.9h0.7l1.7,5.9l1.4-5.9H200.8z
					 M206,30h-0.8v-3.3c0-0.6,0-0.8-0.1-1c-0.1-0.4-0.5-0.6-0.9-0.6c-0.4,0-0.8,0.2-1.1,0.5c-0.3,0.4-0.5,0.8-0.5,1.4V30h-0.8v-7.3
					h0.8v2.9c0.4-0.8,0.9-1.2,1.7-1.2c0.6,0,1.1,0.3,1.4,0.7c0.3,0.4,0.3,0.7,0.3,1.6V30z M211.9,30h-0.8c-0.1-0.3-0.1-0.4-0.1-1
					c-0.4,0.8-1,1.1-1.9,1.1c-1.1,0-1.9-0.7-1.9-1.6c0-0.6,0.4-1.2,0.9-1.5c0.5-0.3,1.2-0.4,2.2-0.4c0.2,0,0.4,0,0.7,0v-0.2
					c0-1-0.4-1.4-1.4-1.4c-0.8,0-1.3,0.3-1.5,1l-0.8-0.1c0.1-0.4,0.2-0.6,0.4-0.8c0.4-0.4,1.1-0.7,2-0.7c0.8,0,1.4,0.2,1.7,0.6
					c0.3,0.4,0.4,0.8,0.4,1.6v2.3C211.8,29.3,211.8,29.7,211.9,30z M211,27.3c-0.3,0-0.6,0-0.7,0c-1.4,0-2.2,0.4-2.2,1.3
					c0,0.6,0.5,1,1.2,1c1,0,1.7-0.8,1.7-1.9C211,27.5,211,27.4,211,27.3z M215.8,29.4v0.7c-0.4,0.1-0.6,0.1-0.8,0.1
					c-1,0-1.6-0.6-1.6-1.6v-3.3h-1v-0.7h1l0-1.4l0.8-0.1v1.4h1.2v0.7h-1.2v3.4c0,0.6,0.3,0.8,0.9,0.8
					C215.4,29.5,215.5,29.5,215.8,29.4z M222,29.4v0.7c-0.4,0.1-0.6,0.1-0.8,0.1c-1,0-1.6-0.6-1.6-1.6v-3.3h-1v-0.7h1l0-1.4l0.8-0.1
					v1.4h1.2v0.7h-1.2v3.4c0,0.6,0.3,0.8,0.9,0.8C221.5,29.5,221.7,29.5,222,29.4z M224.7,24.4c1.5,0,2.4,1.1,2.4,2.9
					c0,1.6-1,2.8-2.5,2.8c-1.4,0-2.4-1.1-2.4-2.9C222.3,25.6,223.3,24.4,224.7,24.4z M224.7,25.1c-0.4,0-0.9,0.2-1.1,0.6
					c-0.2,0.4-0.4,0.9-0.4,1.5c0,1.4,0.6,2.2,1.5,2.2c0.9,0,1.5-0.8,1.5-2.1c0-0.7-0.1-1.2-0.4-1.6
					C225.6,25.3,225.2,25.1,224.7,25.1z M232.7,22.7V30h-0.8v-0.9c-0.5,0.8-0.9,1.1-1.7,1.1c-1.3,0-2.2-1.2-2.2-2.8
					c0-1.7,0.9-2.9,2.2-2.9c0.7,0,1.1,0.2,1.6,0.9v-2.7H232.7z M231.8,27.8v-1.1c0-0.5-0.1-0.7-0.3-1c-0.3-0.3-0.7-0.6-1.1-0.6
					c-0.9,0-1.4,0.8-1.4,2.1c0,1.4,0.5,2.2,1.4,2.2c0.4,0,0.8-0.2,1.1-0.6C231.7,28.6,231.8,28.3,231.8,27.8z M238.5,30h-0.8
					c-0.1-0.3-0.1-0.4-0.1-1c-0.4,0.8-1,1.1-1.9,1.1c-1.1,0-1.9-0.7-1.9-1.6c0-0.6,0.4-1.2,0.9-1.5c0.5-0.3,1.2-0.4,2.2-0.4
					c0.2,0,0.4,0,0.7,0v-0.2c0-1-0.4-1.4-1.4-1.4c-0.8,0-1.3,0.3-1.5,1l-0.8-0.1c0.1-0.4,0.2-0.6,0.4-0.8c0.4-0.4,1.1-0.7,2-0.7
					c0.8,0,1.4,0.2,1.7,0.6c0.3,0.4,0.4,0.8,0.4,1.6v2.3C238.4,29.3,238.4,29.7,238.5,30z M237.6,27.3c-0.3,0-0.6,0-0.7,0
					c-1.4,0-2.2,0.4-2.2,1.3c0,0.6,0.5,1,1.2,1c1,0,1.7-0.8,1.7-1.9C237.6,27.5,237.6,27.4,237.6,27.3z M243.6,24.6l-2.2,6.1
					c-0.2,0.5-0.4,0.9-0.7,1.1c-0.2,0.1-0.5,0.2-0.8,0.2c-0.2,0-0.4,0-0.6-0.1v-0.7c0.3,0.1,0.4,0.1,0.6,0.1c0.4,0,0.7-0.1,0.9-0.5
					c0.1-0.2,0.2-0.4,0.4-0.9l-1.9-5.3h0.9l1.5,4.1l1.5-4.1H243.6z M245,25.5h-0.5l-0.2-2.8h0.9L245,25.5z M245.8,28.6l0.8-0.2
					c0.1,0.3,0.2,0.5,0.4,0.6c0.3,0.3,0.8,0.4,1.3,0.4c0.8,0,1.3-0.4,1.3-0.9c0-0.4-0.3-0.7-0.9-0.8l-1.1-0.2
					c-0.9-0.2-1.5-0.7-1.5-1.5c0-1,0.8-1.6,2-1.6c1.1,0,1.9,0.5,2.1,1.4l-0.8,0.2c-0.3-0.6-0.7-0.8-1.4-0.8c-0.7,0-1.2,0.3-1.2,0.8
					c0,0.4,0.3,0.6,0.8,0.8l1.1,0.2c1.1,0.2,1.6,0.7,1.6,1.6c0,1-0.9,1.7-2.2,1.7c-0.8,0-1.4-0.2-1.8-0.6
					C246.1,29.3,246,29.1,245.8,28.6z M253.7,28.6l0.8-0.2c0.1,0.3,0.2,0.5,0.4,0.6c0.3,0.3,0.8,0.4,1.3,0.4c0.8,0,1.3-0.4,1.3-0.9
					c0-0.4-0.3-0.7-0.9-0.8l-1.1-0.2c-0.9-0.2-1.5-0.7-1.5-1.5c0-1,0.8-1.6,2-1.6c1.1,0,1.9,0.5,2.1,1.4l-0.8,0.2
					c-0.3-0.6-0.7-0.8-1.4-0.8c-0.7,0-1.2,0.3-1.2,0.8c0,0.4,0.3,0.6,0.8,0.8l1.1,0.2c1.1,0.2,1.6,0.7,1.6,1.6c0,1-0.9,1.7-2.2,1.7
					c-0.8,0-1.4-0.2-1.8-0.6C254,29.3,253.8,29.1,253.7,28.6z M263.1,28.4l0.8,0.2c-0.4,1-1.2,1.6-2.3,1.6c-1.5,0-2.5-1.1-2.5-2.8
					c0-1.7,1-2.9,2.5-2.9c0.9,0,1.7,0.5,2,1.3c0.2,0.5,0.3,0.9,0.3,1.7H260c0,0.6,0.1,0.9,0.2,1.3c0.2,0.5,0.8,0.8,1.4,0.8
					c0.4,0,0.9-0.2,1.1-0.5C262.9,28.8,263,28.7,263.1,28.4z M260.1,26.7h3c0-0.5-0.1-0.8-0.3-1.1c-0.3-0.4-0.6-0.6-1.1-0.6
					c-0.5,0-0.9,0.2-1.2,0.6C260.2,26,260.1,26.2,260.1,26.7z M266,30h-0.8v-7.3h0.8V30z M269.9,24.6v0.7h-1.3V30h-0.8v-4.8h-1v-0.7
					h1c0-0.7,0.1-0.9,0.2-1.2c0.2-0.5,0.7-0.9,1.4-0.9c0.2,0,0.4,0,0.8,0.1v0.7c-0.2-0.1-0.3-0.1-0.5-0.1c-0.6,0-0.9,0.2-1,0.5
					c-0.1,0.2-0.1,0.3-0.1,0.9H269.9z M272.6,26.9v0.7h-2.4v-0.7H272.6z M277.2,28.4l0.8,0.2c-0.4,1-1.2,1.6-2.3,1.6
					c-1.5,0-2.5-1.1-2.5-2.8c0-1.7,1-2.9,2.5-2.9c0.9,0,1.7,0.5,2,1.3c0.2,0.5,0.3,0.9,0.3,1.7h-3.9c0,0.6,0.1,0.9,0.2,1.3
					c0.2,0.5,0.8,0.8,1.4,0.8c0.4,0,0.9-0.2,1.1-0.5C277,28.8,277,28.7,277.2,28.4z M274.1,26.7h3c0-0.5-0.1-0.8-0.3-1.1
					c-0.3-0.4-0.6-0.6-1.1-0.6c-0.5,0-0.9,0.2-1.2,0.6C274.3,26,274.2,26.2,274.1,26.7z M286.6,30h-0.8v-3.4c0-0.6,0-0.7-0.2-1
					c-0.2-0.3-0.5-0.5-0.9-0.5s-0.7,0.2-1,0.5c-0.3,0.4-0.4,0.7-0.4,1.3V30h-0.8v-3.6c0-0.4-0.1-0.7-0.3-0.9
					c-0.2-0.3-0.5-0.4-0.8-0.4c-0.7,0-1.3,0.7-1.3,1.6V30h-0.8v-5.4h0.7v1c0.4-0.8,1-1.2,1.7-1.2c0.8,0,1.3,0.5,1.5,1.3
					c0.4-0.8,1-1.3,1.7-1.3c0.6,0,1.1,0.3,1.4,0.8c0.2,0.3,0.3,0.6,0.3,1.4V30z M289,31.8h-0.8v-7.3h0.8v1.1
					c0.4-0.8,0.9-1.2,1.7-1.2c1.3,0,2.2,1.2,2.2,2.8c0,1.7-0.9,2.9-2.2,2.9c-0.7,0-1.1-0.3-1.6-1V31.8z M289,26.5V28
					c0.1,0.8,0.7,1.4,1.4,1.4c0.4,0,0.8-0.2,1-0.5c0.3-0.4,0.4-0.9,0.4-1.6c0-1.4-0.5-2.2-1.4-2.2C289.7,25.2,289.2,25.7,289,26.5z
					 M294.8,30H294v-7.3h0.8V30z M298.5,24.4c1.5,0,2.4,1.1,2.4,2.9c0,1.6-1,2.8-2.5,2.8c-1.4,0-2.4-1.1-2.4-2.9
					C296.1,25.6,297.1,24.4,298.5,24.4z M298.5,25.1c-0.4,0-0.9,0.2-1.1,0.6c-0.2,0.4-0.4,0.9-0.4,1.5c0,1.4,0.5,2.2,1.5,2.2
					c0.9,0,1.5-0.8,1.5-2.1c0-0.7-0.1-1.2-0.4-1.6C299.4,25.3,299,25.1,298.5,25.1z M305.8,24.6l-2.2,6.1c-0.2,0.5-0.4,0.9-0.7,1.1
					c-0.2,0.1-0.5,0.2-0.8,0.2c-0.2,0-0.4,0-0.6-0.1v-0.7c0.3,0.1,0.4,0.1,0.6,0.1c0.4,0,0.7-0.1,0.9-0.5c0.1-0.2,0.2-0.4,0.4-0.9
					l-1.9-5.3h0.9l1.5,4.1l1.5-4.1H305.8z M310,28.4l0.8,0.2c-0.4,1-1.2,1.6-2.3,1.6c-1.5,0-2.5-1.1-2.5-2.8c0-1.7,1-2.9,2.5-2.9
					c0.9,0,1.7,0.5,2,1.3c0.2,0.5,0.3,0.9,0.3,1.7h-3.9c0,0.6,0.1,0.9,0.2,1.3c0.2,0.5,0.8,0.8,1.4,0.8c0.4,0,0.9-0.2,1.1-0.5
					C309.8,28.8,309.9,28.7,310,28.4z M307,26.7h3c0-0.5-0.1-0.8-0.3-1.1c-0.3-0.4-0.6-0.6-1.1-0.6c-0.5,0-0.9,0.2-1.2,0.6
					C307.1,26,307,26.2,307,26.7z M316.4,22.7V30h-0.8v-0.9c-0.5,0.8-0.9,1.1-1.7,1.1c-1.3,0-2.2-1.2-2.2-2.8c0-1.7,0.9-2.9,2.2-2.9
					c0.7,0,1.1,0.2,1.6,0.9v-2.7H316.4z M315.5,27.8v-1.1c0-0.5-0.1-0.7-0.3-1c-0.3-0.3-0.7-0.6-1.1-0.6c-0.9,0-1.4,0.8-1.4,2.1
					c0,1.4,0.5,2.2,1.4,2.2c0.4,0,0.8-0.2,1.1-0.6C315.4,28.6,315.5,28.3,315.5,27.8z M193.7,44.8h-0.8v-7.3h0.8v1.1
					c0.4-0.8,0.9-1.2,1.7-1.2c1.3,0,2.2,1.2,2.2,2.8c0,1.7-0.9,2.9-2.2,2.9c-0.7,0-1.1-0.3-1.6-1V44.8z M193.7,39.5V41
					c0.1,0.8,0.7,1.4,1.4,1.4c0.4,0,0.8-0.2,1-0.5c0.3-0.4,0.4-0.9,0.4-1.6c0-1.4-0.5-2.2-1.4-2.2C194.5,38.2,193.9,38.7,193.7,39.5
					z M199.6,43h-0.8v-5.4h0.7v1.3c0.3-0.5,0.4-0.7,0.6-0.9c0.2-0.3,0.6-0.5,1.1-0.5c0.1,0,0.2,0,0.3,0v0.8c-1-0.1-1.8,0.7-1.8,1.9
					V43z M204.2,37.4c1.5,0,2.4,1.1,2.4,2.9c0,1.6-1,2.8-2.5,2.8c-1.4,0-2.4-1.1-2.4-2.9C201.8,38.6,202.8,37.4,204.2,37.4z
					 M204.2,38.1c-0.4,0-0.9,0.2-1.1,0.6c-0.2,0.4-0.4,0.9-0.4,1.5c0,1.4,0.6,2.2,1.5,2.2c0.9,0,1.5-0.8,1.5-2.1
					c0-0.7-0.1-1.2-0.4-1.6C205,38.3,204.6,38.1,204.2,38.1z M210.1,37.6v0.7h-1.3V43H208v-4.8h-1v-0.7h1c0-0.7,0.1-0.9,0.2-1.2
					c0.2-0.5,0.7-0.9,1.4-0.9c0.2,0,0.4,0,0.8,0.1v0.7c-0.2-0.1-0.3-0.1-0.5-0.1c-0.6,0-0.9,0.2-1,0.5c-0.1,0.2-0.1,0.3-0.1,0.9
					H210.1z M214.6,41.4l0.8,0.2c-0.4,1-1.2,1.6-2.3,1.6c-1.5,0-2.5-1.1-2.5-2.8c0-1.7,1-2.9,2.5-2.9c0.9,0,1.7,0.5,2,1.3
					c0.2,0.5,0.3,0.9,0.3,1.7h-3.9c0,0.6,0.1,0.9,0.2,1.3c0.2,0.5,0.8,0.8,1.4,0.8c0.4,0,0.9-0.2,1.1-0.5
					C214.3,41.8,214.4,41.7,214.6,41.4z M211.5,39.7h3c0-0.5-0.1-0.8-0.3-1.1c-0.3-0.4-0.6-0.6-1.1-0.6c-0.5,0-0.9,0.2-1.2,0.6
					C211.7,39,211.6,39.2,211.5,39.7z M216,41.6l0.8-0.2c0.1,0.3,0.2,0.5,0.4,0.6c0.3,0.3,0.8,0.4,1.3,0.4c0.8,0,1.3-0.4,1.3-0.9
					c0-0.4-0.3-0.7-0.9-0.8l-1.1-0.2c-0.9-0.2-1.5-0.7-1.5-1.5c0-1,0.8-1.6,2-1.6c1.1,0,1.9,0.5,2.1,1.4l-0.8,0.2
					c-0.3-0.6-0.7-0.8-1.4-0.8c-0.7,0-1.2,0.3-1.2,0.8c0,0.4,0.3,0.6,0.8,0.8l1.1,0.2c1.1,0.2,1.7,0.7,1.7,1.6c0,1-0.9,1.7-2.2,1.7
					c-0.8,0-1.4-0.2-1.8-0.6C216.3,42.3,216.2,42.1,216,41.6z M221.3,41.6l0.8-0.2c0.1,0.3,0.2,0.5,0.4,0.6c0.3,0.3,0.8,0.4,1.3,0.4
					c0.8,0,1.3-0.4,1.3-0.9c0-0.4-0.3-0.7-0.9-0.8l-1.1-0.2c-0.9-0.2-1.5-0.7-1.5-1.5c0-1,0.8-1.6,2-1.6c1.1,0,1.9,0.5,2.1,1.4
					l-0.8,0.2c-0.3-0.6-0.7-0.8-1.4-0.8c-0.7,0-1.2,0.3-1.2,0.8c0,0.4,0.3,0.6,0.8,0.8l1.1,0.2c1.1,0.2,1.6,0.7,1.6,1.6
					c0,1-0.9,1.7-2.2,1.7c-0.8,0-1.4-0.2-1.8-0.6C221.6,42.3,221.4,42.1,221.3,41.6z M228,37.6V43h-0.8v-5.4H228z M228,35.7v0.9
					h-0.9v-0.9H228z M231.7,37.4c1.5,0,2.4,1.1,2.4,2.9c0,1.6-1,2.8-2.5,2.8c-1.4,0-2.4-1.1-2.4-2.9
					C229.2,38.6,230.2,37.4,231.7,37.4z M231.7,38.1c-0.4,0-0.9,0.2-1.1,0.6c-0.2,0.4-0.4,0.9-0.4,1.5c0,1.4,0.6,2.2,1.5,2.2
					c0.9,0,1.5-0.8,1.5-2.1c0-0.7-0.1-1.2-0.4-1.6C232.5,38.3,232.1,38.1,231.7,38.1z M239.7,43h-0.8v-3.5c0-0.9-0.4-1.4-1.1-1.4
					c-0.9,0-1.5,0.8-1.5,1.9v3h-0.8v-5.4h0.8v1c0.6-0.9,1-1.1,1.7-1.1c0.7,0,1.3,0.4,1.6,0.9c0.1,0.3,0.2,0.7,0.2,1.5V43z M245.6,43
					h-0.8c-0.1-0.3-0.1-0.4-0.1-1c-0.4,0.8-1,1.1-1.9,1.1c-1.1,0-1.9-0.7-1.9-1.6c0-0.6,0.4-1.2,0.9-1.5c0.5-0.3,1.2-0.4,2.2-0.4
					c0.2,0,0.4,0,0.7,0v-0.2c0-1-0.4-1.4-1.4-1.4c-0.8,0-1.3,0.3-1.5,1l-0.8-0.1c0.1-0.4,0.2-0.6,0.4-0.8c0.4-0.4,1.1-0.7,2-0.7
					c0.8,0,1.4,0.2,1.7,0.6c0.3,0.4,0.4,0.8,0.4,1.6v2.3C245.5,42.3,245.5,42.7,245.6,43z M244.7,40.3c-0.3,0-0.6,0-0.7,0
					c-1.4,0-2.2,0.4-2.2,1.3c0,0.6,0.5,1,1.2,1c1,0,1.7-0.8,1.7-1.9C244.7,40.5,244.7,40.4,244.7,40.3z M248,43h-0.8v-7.3h0.8V43z
					 M249,41.6l0.8-0.2c0.1,0.3,0.2,0.5,0.4,0.6c0.3,0.3,0.8,0.4,1.3,0.4c0.8,0,1.3-0.4,1.3-0.9c0-0.4-0.3-0.7-0.9-0.8l-1.1-0.2
					c-0.9-0.2-1.5-0.7-1.5-1.5c0-1,0.8-1.6,2-1.6c1.1,0,1.9,0.5,2.1,1.4l-0.8,0.2c-0.3-0.6-0.7-0.8-1.4-0.8c-0.7,0-1.2,0.3-1.2,0.8
					c0,0.4,0.3,0.6,0.8,0.8l1.1,0.2c1.1,0.2,1.7,0.7,1.7,1.6c0,1-0.9,1.7-2.2,1.7c-0.8,0-1.4-0.2-1.8-0.6
					C249.2,42.3,249.1,42.1,249,41.6z M261.8,43H261v-3.3c0-0.6,0-0.8-0.1-1c-0.1-0.4-0.5-0.6-0.9-0.6c-0.4,0-0.8,0.2-1.1,0.5
					c-0.3,0.4-0.5,0.8-0.5,1.4V43h-0.8v-7.3h0.8v2.9c0.4-0.8,0.9-1.2,1.7-1.2c0.6,0,1.1,0.3,1.4,0.7c0.3,0.4,0.3,0.7,0.3,1.6V43z
					 M267.7,43h-0.8c-0.1-0.3-0.1-0.4-0.1-1c-0.4,0.8-1,1.1-1.9,1.1c-1.1,0-1.9-0.7-1.9-1.6c0-0.6,0.4-1.2,0.9-1.5
					c0.5-0.3,1.2-0.4,2.2-0.4c0.2,0,0.4,0,0.7,0v-0.2c0-1-0.4-1.4-1.4-1.4c-0.8,0-1.3,0.3-1.5,1l-0.8-0.1c0.1-0.4,0.2-0.6,0.4-0.8
					c0.4-0.4,1.1-0.7,2-0.7c0.8,0,1.4,0.2,1.7,0.6c0.3,0.4,0.4,0.8,0.4,1.6v2.3C267.6,42.3,267.6,42.7,267.7,43z M266.8,40.3
					c-0.3,0-0.6,0-0.7,0c-1.4,0-2.2,0.4-2.2,1.3c0,0.6,0.5,1,1.2,1c1,0,1.7-0.8,1.7-1.9C266.8,40.5,266.8,40.4,266.8,40.3z
					 M273,37.6l-1.9,5.4h-0.9l-1.9-5.4h0.9l1.5,4.4l1.5-4.4H273z M277.4,41.4l0.8,0.2c-0.4,1-1.2,1.6-2.3,1.6
					c-1.5,0-2.5-1.1-2.5-2.8c0-1.7,1-2.9,2.5-2.9c0.9,0,1.7,0.5,2,1.3c0.2,0.5,0.3,0.9,0.3,1.7h-3.9c0,0.6,0.1,0.9,0.2,1.3
					c0.2,0.5,0.8,0.8,1.4,0.8c0.4,0,0.9-0.2,1.1-0.5C277.2,41.8,277.3,41.7,277.4,41.4z M274.4,39.7h3c0-0.5-0.1-0.8-0.3-1.1
					c-0.3-0.4-0.6-0.6-1.1-0.6c-0.5,0-0.9,0.2-1.2,0.6C274.5,39,274.4,39.2,274.4,39.7z M196.4,54.4l0.8,0.2c-0.4,1-1.2,1.6-2.3,1.6
					c-1.5,0-2.5-1.1-2.5-2.8c0-1.7,1-2.9,2.5-2.9c0.9,0,1.7,0.5,2,1.3c0.2,0.5,0.3,0.9,0.3,1.7h-3.9c0,0.6,0.1,0.9,0.2,1.3
					c0.2,0.5,0.8,0.8,1.4,0.8c0.4,0,0.9-0.2,1.1-0.5C196.2,54.8,196.3,54.7,196.4,54.4z M193.4,52.7h3c0-0.5-0.1-0.8-0.3-1.1
					c-0.3-0.4-0.6-0.6-1.1-0.6c-0.5,0-0.9,0.2-1.2,0.6C193.5,52,193.5,52.2,193.4,52.7z M202.2,56h-1l-1.4-2.2l-1.4,2.2h-0.8
					l1.8-2.8l-1.6-2.6h1l1.2,1.8l1.2-1.8h0.8l-1.6,2.4L202.2,56z M203.9,57.8H203v-7.3h0.8v1.1c0.4-0.8,0.9-1.2,1.7-1.2
					c1.3,0,2.2,1.2,2.2,2.8c0,1.7-0.9,2.9-2.2,2.9c-0.7,0-1.1-0.3-1.6-1V57.8z M203.9,52.5V54c0.1,0.8,0.7,1.4,1.4,1.4
					c0.4,0,0.8-0.2,1-0.5c0.3-0.4,0.4-0.9,0.4-1.6c0-1.4-0.5-2.2-1.4-2.2C204.7,51.2,204.1,51.7,203.9,52.5z M212.5,54.4l0.8,0.2
					c-0.4,1-1.2,1.6-2.3,1.6c-1.5,0-2.5-1.1-2.5-2.8c0-1.7,1-2.9,2.5-2.9c0.9,0,1.7,0.5,2,1.3c0.2,0.5,0.3,0.9,0.3,1.7h-3.9
					c0,0.6,0.1,0.9,0.2,1.3c0.2,0.5,0.8,0.8,1.4,0.8c0.4,0,0.9-0.2,1.1-0.5C212.3,54.8,212.4,54.7,212.5,54.4z M209.5,52.7h3
					c0-0.5-0.1-0.8-0.3-1.1c-0.3-0.4-0.6-0.6-1.1-0.6c-0.5,0-0.9,0.2-1.2,0.6C209.6,52,209.5,52.2,209.5,52.7z M215.5,56h-0.8v-5.4
					h0.7v1.3c0.3-0.5,0.4-0.7,0.6-0.9c0.2-0.3,0.6-0.5,1.1-0.5c0.1,0,0.2,0,0.3,0v0.8c-1-0.1-1.8,0.7-1.8,1.9V56z M219,50.6V56h-0.8
					v-5.4H219z M219.1,48.7v0.9h-0.9v-0.9H219.1z M224.3,54.4l0.8,0.2c-0.4,1-1.2,1.6-2.3,1.6c-1.5,0-2.5-1.1-2.5-2.8
					c0-1.7,1-2.9,2.5-2.9c0.9,0,1.7,0.5,2,1.3c0.2,0.5,0.3,0.9,0.3,1.7h-3.9c0,0.6,0.1,0.9,0.2,1.3c0.2,0.5,0.8,0.8,1.4,0.8
					c0.4,0,0.9-0.2,1.1-0.5C224.1,54.8,224.2,54.7,224.3,54.4z M221.3,52.7h3c0-0.5-0.1-0.8-0.3-1.1c-0.3-0.4-0.6-0.6-1.1-0.6
					c-0.5,0-0.9,0.2-1.2,0.6C221.4,52,221.3,52.2,221.3,52.7z M230.7,56h-0.8v-3.5c0-0.9-0.4-1.4-1.1-1.4c-0.9,0-1.5,0.8-1.5,1.9v3
					h-0.8v-5.4h0.8v1c0.6-0.9,1-1.1,1.7-1.1c0.7,0,1.3,0.4,1.6,0.9c0.1,0.3,0.2,0.7,0.2,1.5V56z M235.6,54.1l0.8,0.1
					c-0.1,0.7-0.3,1-0.6,1.3c-0.4,0.4-0.9,0.6-1.5,0.6c-1.4,0-2.3-1.1-2.3-2.8c0-1.7,0.9-2.9,2.3-2.9c1.1,0,1.8,0.7,2.1,1.9
					l-0.8,0.1c-0.1-0.4-0.1-0.6-0.3-0.8c-0.2-0.3-0.6-0.5-1-0.5c-0.9,0-1.4,0.8-1.4,2.1c0,1.4,0.5,2.2,1.4,2.2
					C235,55.5,235.4,55,235.6,54.1z M241.1,54.4l0.8,0.2c-0.4,1-1.2,1.6-2.3,1.6c-1.5,0-2.5-1.1-2.5-2.8c0-1.7,1-2.9,2.5-2.9
					c0.9,0,1.7,0.5,2,1.3c0.2,0.5,0.3,0.9,0.3,1.7H238c0,0.6,0.1,0.9,0.2,1.3c0.2,0.5,0.8,0.8,1.4,0.8c0.4,0,0.9-0.2,1.1-0.5
					C240.9,54.8,241,54.7,241.1,54.4z M238.1,52.7h3c0-0.5-0.1-0.8-0.3-1.1c-0.3-0.4-0.6-0.6-1.1-0.6c-0.5,0-0.9,0.2-1.2,0.6
					C238.2,52,238.1,52.2,238.1,52.7z M247.5,48.7V56h-0.8v-0.9c-0.5,0.8-0.9,1.1-1.7,1.1c-1.3,0-2.2-1.2-2.2-2.8
					c0-1.7,0.9-2.9,2.2-2.9c0.7,0,1.1,0.2,1.6,0.9v-2.7H247.5z M246.6,53.8v-1.1c0-0.5-0.1-0.7-0.3-1c-0.3-0.3-0.7-0.6-1.1-0.6
					c-0.9,0-1.4,0.8-1.4,2.1c0,1.4,0.5,2.2,1.4,2.2c0.4,0,0.8-0.2,1.1-0.5C246.5,54.6,246.6,54.3,246.6,53.8z M250.2,54.8V56H249
					v-1.2H250.2z"/>
			</g>
		</g>
	</g>
</g>
</svg>
