<?xml version="1.0" encoding="utf-8"?>
<!-- Generator: Adobe Illustrator 23.0.1, SVG Export Plug-In . SVG Version: 6.00 Build 0)  -->
<svg version="1.1" id="Layer_1" xmlns="http://www.w3.org/2000/svg" xmlns:xlink="http://www.w3.org/1999/xlink" x="0px" y="0px"
	 viewBox="0 0 567 676" style="enable-background:new 0 0 567 676;" xml:space="preserve">
<style type="text/css">
	.st0{fill:#001B3D;}
	.st1{filter:url(#Adobe_OpacityMaskFilter);}
	.st2{fill-rule:evenodd;clip-rule:evenodd;fill:#FFFFFF;}
	.st3{mask:url(#mask-4_1_);fill-rule:evenodd;clip-rule:evenodd;fill:#FFFFFF;}
	.st4{fill-rule:evenodd;clip-rule:evenodd;fill:#F1E8C1;}
	.st5{filter:url(#Adobe_OpacityMaskFilter_1_);}
	.st6{mask:url(#mask-6_1_);fill-rule:evenodd;clip-rule:evenodd;fill:#FFFFFF;}
	.st7{fill-rule:evenodd;clip-rule:evenodd;fill:#F1A8C2;}
	.st8{fill-rule:evenodd;clip-rule:evenodd;fill:#062942;}
	.st9{fill-rule:evenodd;clip-rule:evenodd;fill:#F2CD33;}
	.st10{fill-rule:evenodd;clip-rule:evenodd;fill:#1E3E54;}
</style>
<title>trumpet</title>
<desc>Created with Sketch.</desc>
<g id="Hi-Fi-Design">
	<g id="Desktop" transform="translate(-794.000000, -12816.000000)">
		<g id="trumpet" transform="translate(670.000000, 12816.000000)">
			<g id="Group-38" transform="translate(250.382635, 160.000000)">
				<g>
					<path class="st0" d="M216.7,80.3c0-0.1,0-0.1,0-0.2C216.7,80.3,216.7,80.3,216.7,80.3z"/>
					<path class="st0" d="M237.7,78.5c-0.1-0.7-0.4-4-2.3-8.8c-1-2.4-2.4-5.2-4.4-8.1c-0.6-0.8-1.2-1.6-1.8-2.4c0,0,0-0.1,0-0.1
						c-0.1-0.7-0.8-3.9-3.3-8.5c-1.2-2.3-2.9-4.9-5.3-7.6c-1.2-1.4-2.6-2.8-4.2-4.2c-0.1-0.1-0.2-0.2-0.3-0.4
						c-3-3.2-7.5-7.5-14-11.7c-3.2-2.1-7-4.1-11.2-5.7c-2.1-0.8-4.4-1.5-6.8-2c-1.1-0.3-2.5-0.5-3.9-0.7l-1.5-0.2l-0.4,0l-0.4,0
						l-0.2,0l-1-0.1c-5.3-0.3-10,0.3-14.6,1c-4.6,0.8-9.1,1.8-13.5,3c-17.5,4.7-33.9,11-46.2,15.9c-6.1,2.5-11.2,4.6-14.7,6.1
						c-3.5,1.6-5.6,2.5-5.6,2.5c-3.2,1.4-4.8,5.1-3.6,8.4c1.1,3.1,4.3,4.8,7.4,4.2c-0.6,1.6-0.5,3.5,0.2,5.2
						c1.5,3.5,5.4,5.2,8.9,4.1c1.2,3.8,5.2,6,9.1,4.8l0.2-0.1c0,0,2-0.6,5.6-1.7c3.6-1.1,8.9-2.5,15.2-4.1c12.6-3.1,29.6-7,46.3-8.3
						c4.1-0.3,8.3-0.5,12.1-0.3c1.9,0.1,3.8,0.2,5.6,0.5c0.9,0.1,1.7,0.3,2.6,0.4c0.7,0.2,1.4,0.3,2.2,0.5c1,0.3,2.1,0.6,2.9,0.8
						c0.7,0.3,1.4,0.5,2.2,0.8c1.5,0.6,3,1.2,4.3,1.9c2.7,1.4,4.9,3,6.6,4.6c3.5,3.2,5.2,6.7,6.1,9c0.6,1.8,0.7,3,0.7,3.1
						c0.5,5.7,5.6,10,11.3,9.5C233.9,89.3,238.2,84.3,237.7,78.5z"/>
				</g>
				<g id="Clip-12">
				</g>
				<g id="Group-18" transform="translate(0.000000, 22.401875)">
					<g id="Clip-17">
					</g>
					<defs>
						<filter id="Adobe_OpacityMaskFilter" filterUnits="userSpaceOnUse" x="0" y="0.1" width="260.7" height="64.8">
							<feColorMatrix  type="matrix" values="1 0 0 0 0  0 1 0 0 0  0 0 1 0 0  0 0 0 1 0"/>
						</filter>
					</defs>
					<mask maskUnits="userSpaceOnUse" x="0" y="0.1" width="260.7" height="64.8" id="mask-4_1_">
						<g class="st1">
							<polygon id="path-3_1_" class="st2" points="0,0.1 260.7,0.1 260.7,64.9 0,64.9 							"/>
						</g>
					</mask>
					<polygon id="Fill-16" class="st3" points="0,2.7 20.9,15 257.7,64.9 260.7,50 24,0.1 23.7,0.1 					"/>
				</g>
				<polygon id="Fill-27" class="st4" points="23.7,22.5 20.9,37.4 8.7,30.2 0,25.1 10.1,24 				"/>
				<g id="Group-31" transform="translate(0.000000, 23.401875)">
					<g id="Clip-30">
					</g>
					<defs>
						<filter id="Adobe_OpacityMaskFilter_1_" filterUnits="userSpaceOnUse" x="0" y="0.6" width="10.1" height="6.2">
							<feColorMatrix  type="matrix" values="1 0 0 0 0  0 1 0 0 0  0 0 1 0 0  0 0 0 1 0"/>
						</filter>
					</defs>
					<mask maskUnits="userSpaceOnUse" x="0" y="0.6" width="10.1" height="6.2" id="mask-6_1_">
						<g class="st5">
							<polygon id="path-5_1_" class="st2" points="0,0.6 10.1,0.6 10.1,6.8 0,6.8 							"/>
						</g>
					</mask>
					<polygon id="Fill-29" class="st6" points="10.1,0.6 8.7,6.8 0,1.7 					"/>
				</g>
				<polygon id="Fill-32" class="st4" points="257.7,87.3 272.1,90.4 275.2,75.5 260.7,72.4 				"/>
				<polygon id="Fill-34" class="st7" points="288.9,78.3 285.7,93.2 272.1,90.4 275.2,75.5 				"/>
				<path class="st8" d="M439.6,323.6c-36.3-38.5-160-184.2-189.5-231.3c-1.2-2.7-2.4-5.6-3.7-8.7c-3.7-9.5-7.6-20.9-10.7-33.4
					c-0.4-1.6-0.7-3.1-1.1-4.7c-0.3-1.3-0.5-2.5-0.8-3.9c-1.7-5.4-5.1-15.9-6.5-18.6c-3.4-6.3-7.9-11.7-21-12.5
					c-10.4-0.7-21.5-8.3-34.2-9.2c-0.2,0-0.4,0-0.6,0c-4.1,0.2-8.1,0.9-11.6,1.9c-7.7,2.1-15,6.8-20.9,9.6
					c-5.8,2.7-10.7,5.4-15.5,7.4c-5.2,2.3-10,4.2-14.1,5.5c-0.1,0-0.1,0.1-0.2,0.1c-4.2,1.4-8,2.4-11.3,3.2c-9.1,2.1-14.1,2-14.1,2
					s0,0.1,0.1,0.2c0.4,1,2.8,7,8.2,8.7c5.9,1.9,10,1.4,13.6,1c7.2-0.7,16.5-3,27.1-6.9c5.3-1.8,11-4.3,16.5-6.4
					c5.5-2.1,9.8-3.7,15.3-4.8c2.3-0.4,4.5-0.6,6.7-0.6l0,0.1c16.8,2.1,38.2,29.6,23.5,46.2l0.3,0.2c-10.2,9.9-30.2,10-44.4,2.6
					l0,0.4c-6.7-3.7-13-7.1-18.6-10.1c-13.5-7.2-22.6-12.1-22.6-12.1c-4.4-2.3-9.9-1.1-12.8,3.1c-3.1,4.5-2,10.7,2.5,13.8l0.1,0.1
					c0,0,8.3,5.8,20.9,14.5c6.2,4.4,13.5,9.5,21.2,15c7.7,5.5,16,11.5,23.8,17.5c0.7,0.5,1.8,1.3,3.2,2.3
					C214.1,158,401.6,466.2,440,516L439.6,323.6z"/>
				<path id="Fill-21" class="st9" d="M114.6,64.4c-1.8,3.1-6.8,3.6-11.2,1.1c-4.3-2.5-6.3-7.2-4.5-10.3c1.8-3.2,6.9-3.6,11.2-1.1
					C114.4,56.6,116.4,61.2,114.6,64.4"/>
				<path id="Fill-23" class="st10" d="M128.1,80c1.7,1,4.6-0.6,6.4-3.6c1.8-3,1.9-6.3,0.2-7.3c-1.7-1-4.6,0.6-6.4,3.6
					C126.4,75.7,126.4,79,128.1,80"/>
				<path id="Fill-25" class="st9" d="M97.8,28.8c-0.8,1.7-2.6,3.5-6.3,4c-3.6,0.4-6.1-0.6-7.8-1.8c-0.1-0.1-0.1-0.2-0.1-0.2
					S88.7,30.9,97.8,28.8"/>
			</g>
		</g>
	</g>
</g>
</svg>
