<?xml version="1.0" encoding="utf-8"?>
<!-- Generator: Adobe Illustrator 23.0.1, SVG Export Plug-In . SVG Version: 6.00 Build 0)  -->
<svg version="1.1" id="Layer_1" xmlns="http://www.w3.org/2000/svg" xmlns:xlink="http://www.w3.org/1999/xlink" x="0px" y="0px"
	 viewBox="0 0 567 239.4" style="enable-background:new 0 0 567 239.4;" xml:space="preserve">
<style type="text/css">
	.st0{fill-rule:evenodd;clip-rule:evenodd;fill:#FCB3CD;}
	.st1{fill-rule:evenodd;clip-rule:evenodd;fill:#FFFFFF;}
	.st2{fill-rule:evenodd;clip-rule:evenodd;fill:#B9E6C1;}
	.st3{fill-rule:evenodd;clip-rule:evenodd;fill:#F5DA66;}
	.st4{fill-rule:evenodd;clip-rule:evenodd;fill:#EFC100;}
	.st5{fill-rule:evenodd;clip-rule:evenodd;fill:#FDD9E6;}
</style>
<title>trumpet</title>
<desc>Created with Sketch.</desc>
<g id="Hi-Fi-Design">
	<g id="Desktop" transform="translate(-794.000000, -12816.000000)">
		<g id="trumpet" transform="translate(670.000000, 12816.000000)">
			<g id="Group-147">
				<polygon id="Fill-98" class="st0" points="145.2,187.1 146.1,187.1 146.1,63.1 124,63.1 124,64 145.2,64 				"/>
				<polygon id="Fill-100" class="st0" points="183.4,182.7 184.3,182.7 184.3,87.8 183.4,87.8 				"/>
				<polygon id="Fill-102" class="st1" points="584,237.2 585,237.2 585,31.9 545.8,31.9 545.8,3.9 509.9,3.9 509.9,4.8 544.9,4.8 
					544.9,32.8 584,32.8 				"/>
				<polygon id="Fill-103" class="st1" points="569.1,56.7 570.1,56.7 570.1,43.6 569.1,43.6 				"/>
				<polygon id="Fill-104" class="st1" points="569.1,212.9 570.1,212.9 570.1,199.8 569.1,199.8 				"/>
				<polygon id="Fill-105" class="st1" points="609.8,87.7 610.7,87.7 610.7,74.6 609.8,74.6 				"/>
				<polygon id="Fill-106" class="st1" points="555.2,56.7 556.1,56.7 556.1,43.6 555.2,43.6 				"/>
				<path id="Fill-107" class="st2" d="M214,233.3c0,3.4,2.7,6.1,6.1,6.1c3.3,0,6.1-2.7,6.1-6.1c0-3.4-2.7-6.1-6.1-6.1
					S214,229.9,214,233.3"/>
				<path id="Fill-108" class="st3" d="M612.1,227.9c0,3.4,2.7,6.1,6.1,6.1c3.3,0,6.1-2.7,6.1-6.1c0-3.4-2.7-6.1-6.1-6.1
					C614.8,221.8,612.1,224.5,612.1,227.9"/>
				<path id="Fill-109" class="st4" d="M157.9,115.5c0,3.4,2.7,6.1,6.1,6.1c3.3,0,6.1-2.7,6.1-6.1s-2.7-6.1-6.1-6.1
					C160.7,109.4,157.9,112.2,157.9,115.5"/>
				<g id="Group-9" transform="translate(228.464258, 0.000000)">
					<polygon id="Fill-1" class="st1" points="0,0 0,45.5 0.9,45.5 0.9,0.9 73.4,0.9 73.4,121.3 96.3,121.3 96.3,167.8 97.2,167.8 
						97.2,120.4 74.3,120.4 74.3,0 					"/>
					<polygon id="Fill-2" class="st1" points="29.2,26.2 30.1,26.2 30.1,13.3 29.2,13.3 					"/>
					<polygon id="Fill-3" class="st1" points="43.9,26.2 44.8,26.2 44.8,13.3 43.9,13.3 					"/>
					<polygon id="Fill-4" class="st1" points="58.6,26.2 59.5,26.2 59.5,13.3 58.6,13.3 					"/>
					<polygon id="Fill-5" class="st1" points="29.2,53.8 30.1,53.8 30.1,40.9 29.2,40.9 					"/>
					<polygon id="Fill-6" class="st1" points="43.9,53.8 44.8,53.8 44.8,40.9 43.9,40.9 					"/>
					<polygon id="Fill-7" class="st1" points="58.6,53.8 59.5,53.8 59.5,40.9 58.6,40.9 					"/>
					<polygon id="Fill-8" class="st1" points="18.2,117.5 19.1,117.5 19.1,0.8 18.2,0.8 					"/>
				</g>
				<path id="Fill-146" class="st5" d="M493.9,62.4c0,3.4,2.7,6.1,6.1,6.1c3.3,0,6.1-2.7,6.1-6.1s-2.7-6.1-6.1-6.1
					C496.6,56.3,493.9,59,493.9,62.4"/>
			</g>
		</g>
	</g>
</g>
</svg>
