<svg xmlns="http://www.w3.org/2000/svg" xmlns:xlink="http://www.w3.org/1999/xlink" width="325" height="315" viewBox="0 0 325 315">
    <defs>
        <path id="a" d="M0 .325h278.74v235.173H0z"/>
    </defs>
    <g fill="none" fill-rule="evenodd">
        <path fill="#062942" d="M287.644 87.788l36.428 8.004.232-1.063-36.427-8.005z"/>
        <path fill="#164B9F" d="M229.947 105.8c-.295.298-.589.595-.859.893-.67.721-1.303 1.43-1.91 2.14-2.483 2.941-4.275 5.69-5.47 8.257-.77 1.605-1.295 3.156-1.61 4.612-.112.55-.197 1.1-.257 1.625-.045.462-.075.912-.08 1.337-.046 2.497.6 4.7 1.77 6.588.374.645.826 1.244 1.318 1.804 2.891 3.271 7.552 5.35 12.886 6.065 8.018 1.079 14.262 3.547 21.733-3.935 2.497-2.514 5.399 3.93 8.352 4.307 3.495.449 12.629-17.412 12.629-17.412-8.653 4.462-18.088 2.052-20.588-4.724-3.823-10.365 1.691-24.567 23.7-53.367l7.447-13.346s-21.444 7.06-43.532 40.882c-3.09 4.732-4.737 5.33-5.28 6.062-4.645 6.249-5.505 3.352-10.249 8.212"/>
        <path fill="#164B9F" d="M234.315 24.485s-.232.371-.668 1.089c-.012.012-.025.025-.042.061-.424.705-1.05 1.731-1.857 3.018-.81 1.312-1.81 2.932-2.944 4.788-1.102 1.866-2.147 4.063-3.396 6.433-.614 1.186-1.244 2.408-1.915 3.693-.563 1.307-1.146 2.674-1.754 4.068-1.185 2.797-2.543 5.72-3.55 8.858-1.092 3.113-2.289 6.327-3.15 9.644-.465 1.66-.93 3.319-1.398 5.002-.432 1.671-.768 3.378-1.147 5.06-.345 1.693-.803 3.39-1.068 5.069-.277 1.693-.542 3.373-.817 5.04a67.799 67.799 0 0 0-.681 4.953c-.168 1.63-.355 3.234-.53 4.828-.21 3.157-.485 6.232-.544 9.118-.082 2.887-.13 5.615-.045 8.107.003 2.506.174 4.79.268 6.805.172 2.027.29 3.785.472 5.248.08.733.16 1.38.218 1.94.096.61.174 1.11.23 1.524.13.768.185 1.184.185 1.184.582 3.632 3.908 5.562 7.422 4.335 3.526-1.24 5.905-5.186 5.333-8.806-.013-.073-.028-.121-.03-.183l-.051-.206s-.063-.367-.189-1.012c-.058-.305-.13-.682-.206-1.121a53.048 53.048 0 0 0-.254-1.67c-.19-1.244-.354-2.83-.559-4.612-.134-1.807-.36-3.844-.445-6.105-.151-2.258-.171-4.728-.18-7.356-.047-2.616.144-5.395.226-8.281.118-1.434.243-2.915.368-4.397.093-1.493.231-2.988.476-4.521.186-1.52.408-3.052.598-4.596s.557-3.067.828-4.624c.312-1.535.56-3.093.904-4.616.38-1.535.758-3.045 1.147-4.569.676-3.033 1.687-5.962 2.585-8.803.823-2.877 1.978-5.54 2.984-8.101l1.493-3.733c.555-1.172 1.117-2.307 1.626-3.393 1.075-2.16 2.008-4.185 2.91-5.924 5.659-10.906 6.292-13.465 3.78-15.611-1.058-.903-2.687-.61-3.99.026 0 0-.023.001-.036.013-1.018.447-1.943 1.272-2.607 2.336"/>
        <g transform="translate(0 78.893)">
            <mask id="b" fill="#fff">
                <use xlink:href="#a"/>
            </mask>
            <path fill="#164B9F" d="M278.74 59.211c-2.546 1.243-9.61 4.413-16.408 7.864-12.923 6.563-31.851 17.502-51.771 29.517a2527.208 2527.208 0 0 0-13.886 8.444c-21.086 12.926-41.993 26.2-56.96 36.005-21.1 13.825-110.08 75.768-139.715 94.457v-77.941c57.542-30.081 125.724-71.152 166.212-99.663 4.732-3.331 9.123-6.556 13.12-9.65 12.559-9.723 21.241-18.173 24.431-24.652C208.72 13.525 211.8 1.604 211.954.325l1.038 10.32.105.06 4.716 5.038 3.175 3.377-1.133 2.443 1.191 2.417.28.36 2.578 5.092.053.027 2.253 1.714.832.592.83-.154.103.058.65.555 7.743 5.956 4.721 4.158 2.032 1.864 16.06 11.608.052.027 2.155 1.526 17.352 1.848z" mask="url(#b)"/>
        </g>
        <path fill="#164B9F" d="M217.357 73.802c-2.432 11.137-7.635 33.05-30.582 60.673l34.764-27.123-1.769-31.638-2.413-1.912zM230.349 132.074c.246.167.329.216.475.31l.375.231.715.424c.467.27.928.531 1.388.779.918.498 1.834.965 2.757 1.41a68.694 68.694 0 0 0 5.627 2.408c3.817 1.435 7.79 2.551 11.92 3.22 4.125.668 8.41.887 12.718.465 4.302-.414 8.61-1.497 12.61-3.239a42.001 42.001 0 0 0 10.816-6.915 46.072 46.072 0 0 0 4.402-4.404c.697-.759 1.312-1.564 1.96-2.348l.909-1.21c.304-.403.602-.808.88-1.222 2.29-3.284 4.21-6.71 5.852-10.193 1.635-3.488 3-7.032 4.181-10.598a5.75 5.75 0 0 0-3.64-7.265 5.736 5.736 0 0 0-7.078 3.19l-.024.057c-1.312 3.097-2.766 6.099-4.39 8.937-1.63 2.83-3.44 5.49-5.426 7.893-.24.307-.496.598-.754.884l-.768.865c-.536.54-1.044 1.116-1.6 1.62a32.22 32.22 0 0 1-3.386 2.869 27.052 27.052 0 0 1-3.622 2.283 26.452 26.452 0 0 1-3.818 1.653 26.402 26.402 0 0 1-8.112 1.35c-2.785.034-5.637-.34-8.478-1.05-2.84-.706-5.672-1.753-8.413-3.053a50.629 50.629 0 0 1-4.015-2.129 45.882 45.882 0 0 1-1.9-1.18c-.308-.2-.603-.403-.89-.603l-.408-.293-.181-.136c-.039-.03-.14-.105-.076-.066-4.15-2.934-9.889-1.943-12.817 2.215-2.93 4.158-1.938 9.907 2.211 12.841"/>
        <path fill="#164B9F" d="M249.42 113.177c.571-.923 1.212-1.926 1.83-2.891l1.894-2.921a439.299 439.299 0 0 1 3.867-5.808 414.415 414.415 0 0 1 8-11.422 296.132 296.132 0 0 1 8.4-11.037c2.878-3.585 5.842-7.08 8.938-10.321 1.548-1.615 3.126-3.18 4.737-4.597a48.982 48.982 0 0 1 2.428-2.011 29.262 29.262 0 0 1 2.407-1.656 11.907 11.907 0 0 1 2.136-1.048c.155-.061.27-.078.407-.13.118-.03.21-.043.31-.077.144-.012.25-.049.235-.056l.004-.014c0-.006-.005-.02.05.003l.235.084c.156.057.325.095.48.154.277.157.604.246.86.445.567.313 1.059.782 1.542 1.342.115.148.235.293.356.44l.325.505c.118.159.215.349.312.539.096.19.209.367.299.57.171.415.37.81.513 1.264.076.224.167.435.232.67l.202.699c.523 1.887.786 3.996.913 6.143a52.24 52.24 0 0 1-.106 6.6 60.296 60.296 0 0 1-.34 3.34 67.43 67.43 0 0 1-.235 1.66l-.136.818-.138.767-.032.179a3.44 3.44 0 0 0 2.769 3.997c1.763.318 3.459-.786 3.924-2.485l.261-.962.23-.917a68.714 68.714 0 0 0 1.107-5.503c.401-2.468.66-4.981.751-7.553.061-2.577-.021-5.213-.523-7.945l-.205-1.026c-.067-.343-.17-.691-.256-1.036-.162-.69-.415-1.39-.648-2.086-.122-.347-.283-.698-.426-1.046a10.417 10.417 0 0 0-.484-1.043l-.55-1.037-.657-1.016c-.115-.167-.215-.338-.345-.5l-.387-.486c-.269-.318-.51-.652-.812-.95-.299-.3-.601-.599-.908-.892-.301-.3-.66-.544-.993-.813-.663-.553-1.42-.957-2.16-1.395-.377-.196-.765-.358-1.151-.533l-.583-.252c-.08-.04-.23-.086-.372-.13l-.424-.127c-.58-.18-1.125-.26-1.683-.33-.287-.045-.54-.049-.803-.057a21.508 21.508 0 0 0-.787-.01c-.485.028-.984.064-1.446.128-.44.078-.91.149-1.322.253-1.68.405-3.109.988-4.407 1.622a38.856 38.856 0 0 0-3.628 2.05 59.095 59.095 0 0 0-3.235 2.243c-2.074 1.538-3.997 3.154-5.865 4.802-3.726 3.3-7.183 6.753-10.532 10.274a306.594 306.594 0 0 0-9.718 10.771 428.488 428.488 0 0 0-9.24 11.09 467.57 467.57 0 0 0-4.484 5.651l-2.213 2.859c-.74.967-1.453 1.9-2.217 2.928l-.01.014c-2.697 3.63-1.946 8.763 1.677 11.465a8.168 8.168 0 0 0 11.83-2.25"/>
        <path fill="#164B9F" d="M299.872 8.59l-.504.32-.45.296c-.292.195-.586.39-.865.587-.571.392-1.125.79-1.675 1.19-1.1.802-2.171 1.622-3.228 2.457a141.267 141.267 0 0 0-6.16 5.166c-4.003 3.541-7.825 7.255-11.509 11.093a253.159 253.159 0 0 0-10.676 11.846 284.629 284.629 0 0 0-9.921 12.464c-6.38 8.472-12.342 17.203-18.072 26.048-5.714 8.853-11.213 17.817-16.57 26.847-2.192 3.694-.98 8.47 2.708 10.668 3.688 2.196 8.455.982 10.648-2.713.083-.14.17-.302.244-.445 4.692-9.221 9.513-18.361 14.531-27.364 5.03-8.995 10.27-17.845 15.884-26.406a272.312 272.312 0 0 1 8.749-12.585c3.032-4.1 6.204-8.112 9.486-12.011 3.286-3.9 6.704-7.682 10.278-11.282a132.39 132.39 0 0 1 5.48-5.24 98.05 98.05 0 0 1 2.834-2.465 65.11 65.11 0 0 1 1.436-1.168c.24-.194.477-.375.715-.557l.35-.265.304-.225.183-.136a3.72 3.72 0 0 0 .768-5.2 3.717 3.717 0 0 0-4.968-.92"/>
        <path fill="#164B9F" d="M274.604 1.357l-.825.808-.768.775c-.506.516-1.001 1.033-1.493 1.553a144.55 144.55 0 0 0-2.884 3.147 193.03 193.03 0 0 0-5.516 6.453c-3.59 4.363-6.996 8.858-10.276 13.44a297.144 297.144 0 0 0-9.434 14.023 355.18 355.18 0 0 0-8.669 14.509c-5.501 9.833-10.586 19.91-15.143 30.228a392.814 392.814 0 0 0-12.38 31.504c-1.366 3.966.736 8.291 4.695 9.659 3.959 1.368 8.276-.738 9.642-4.704.04-.12.08-.24.114-.36l.007-.028a379.347 379.347 0 0 1 10.303-30.929c3.862-10.168 8.246-20.137 13.05-29.904 2.429-4.868 4.96-9.687 7.618-14.437a285.721 285.721 0 0 1 8.38-14.002c2.924-4.584 5.978-9.087 9.195-13.451a186.22 186.22 0 0 1 4.94-6.444c.842-1.055 1.7-2.09 2.565-3.114.433-.51.869-1.017 1.306-1.512l.655-.735.621-.68.13-.14a4.075 4.075 0 0 0-.25-5.749 4.067 4.067 0 0 0-5.583.09"/>
        <path fill="#002478" d="M203.242 157.237c.207.95.498 1.913.818 2.821.366 1.066.777 2.06 1.143 2.885a37.138 37.138 0 0 0 .857 1.805 144.304 144.304 0 0 1 4.5 10.737 2527.251 2527.251 0 0 0-13.885 8.444 133.325 133.325 0 0 0-4.972-12.28c-.601-1.036-1.29-1.911-2.048-2.655-3.69-3.638-9.014-4.262-13.757-6.28-3.228-1.145-5.918-3.26-7.55-6.242a12.872 12.872 0 0 1-1.347-3.74c-1.224-4.57.393-9.31.802-11.487.142-.762.01-1.515-.23-2.175-.45-1.258-1.285-2.197-1.355-2.277v-.003l-.006-.003c4.733-3.332 9.123-6.556 13.12-9.65l.061.059c.062.06.178.173.339.314.014.011.025.023.04.034.419.369 1.114.926 1.962 1.413.748.427 1.62.806 2.53.95 2.441.386 6.765.035 11.59 2.643 2.496 1.217 4.567 3.087 5.92 5.553a12.909 12.909 0 0 1 1.479 4.574c.79 4.886-1.052 9.787-.011 14.56"/>
        <path fill="#002478" d="M179.393 127.195c.113.101.228.21.338.315a6.937 6.937 0 0 1-.338-.315M206.053 164.735a38.71 38.71 0 0 1-.851-1.791c.288.587.57 1.187.851 1.791"/>
        <path fill="#0D83DD" d="M197.637 139.444c2.767 5.38-.766 12.722-7.891 16.4-7.125 3.679-15.144 2.3-17.91-3.08-2.769-5.379.764-12.721 7.889-16.4 7.126-3.678 15.145-2.299 17.912 3.08"/>
        <path fill="#002478" d="M183.78 146.736a.361.361 0 0 1-.365-.11l-4.022-4.555a.363.363 0 0 1 .032-.512.36.36 0 0 1 .51.031l3.704 4.195 4.627-7.28a.362.362 0 1 1 .61.39l-4.885 7.685a.357.357 0 0 1-.212.156M206.3 165.21l-.02.012c-.072-.156-.144-.317-.22-.474.15.295.24.462.24.462"/>
        <path fill="#EFC100" d="M210.561 175.484a2527.301 2527.301 0 0 0-13.887 8.445 133.13 133.13 0 0 0-4.971-12.281 12.534 12.534 0 0 0-2.047-2.654l14.404-8.936c.366 1.066.776 2.06 1.142 2.885a38.874 38.874 0 0 0 .859 1.805c.075.157.147.317.219.474a145.101 145.101 0 0 1 4.281 10.262"/>
        <path fill="#F9679C" d="M181.735 128.957l-14.162 10.113c-.451-1.257-1.286-2.198-1.355-2.277v-.004l-.005-.002c4.732-3.332 9.121-6.557 13.12-9.65l.06.058c.062.063.177.174.34.315.013.01.024.023.037.035.421.368 1.116.925 1.965 1.412"/>
        <path fill="#164B9F" d="M297.9 121.983c-10.822 13.868-24.71 22.537-36.618 28.137-13.538 6.368-33.024 14.324-46.244 22.357l3.493-35.21 54.861-6.393 24.509-8.891z"/>
    </g>
</svg>
