<?xml version="1.0" encoding="utf-8"?>
<!-- Generator: Adobe Illustrator 23.0.1, SVG Export Plug-In . SVG Version: 6.00 Build 0)  -->
<svg version="1.1" id="Layer_1" xmlns="http://www.w3.org/2000/svg" xmlns:xlink="http://www.w3.org/1999/xlink" x="0px" y="0px"
	 viewBox="0 0 560 491" style="enable-background:new 0 0 560 491;" xml:space="preserve">
<style type="text/css">
	.st0{fill-rule:evenodd;clip-rule:evenodd;fill:#FFFFFF;}
	.st1{fill-rule:evenodd;clip-rule:evenodd;fill:#68B5EB;}
	.st2{opacity:9.953962e-02;fill-rule:evenodd;clip-rule:evenodd;fill:#164B9F;enable-background:new    ;}
	.st3{fill-rule:evenodd;clip-rule:evenodd;fill:#2672B9;}
	.st4{fill-rule:evenodd;clip-rule:evenodd;fill:#CEE9FD;}
	.st5{fill-rule:evenodd;clip-rule:evenodd;fill:#CDE6F8;}
	.st6{fill-rule:evenodd;clip-rule:evenodd;fill:#EAB100;}
	.st7{fill-rule:evenodd;clip-rule:evenodd;fill:#F2CD33;}
	.st8{fill-rule:evenodd;clip-rule:evenodd;fill:#FCB3CD;}
	.st9{fill-rule:evenodd;clip-rule:evenodd;fill:#FA8DB5;}
	.st10{fill-rule:evenodd;clip-rule:evenodd;fill:#062942;}
	.st11{fill-rule:evenodd;clip-rule:evenodd;fill:#0D83DD;}
	.st12{fill-rule:evenodd;clip-rule:evenodd;fill:#F5DA66;}
	.st13{fill-rule:evenodd;clip-rule:evenodd;fill:#005DAB;}
	.st14{fill-rule:evenodd;clip-rule:evenodd;fill:#003F91;}
	.st15{fill-rule:evenodd;clip-rule:evenodd;fill:#359CE4;}
	.st16{fill-rule:evenodd;clip-rule:evenodd;fill:#FDD9E6;}
	.st17{fill-rule:evenodd;clip-rule:evenodd;fill:#9ACDF1;}
	.st18{fill-rule:evenodd;clip-rule:evenodd;fill:#C6DFF1;}
	.st19{fill-rule:evenodd;clip-rule:evenodd;fill:#3380BF;}
	.st20{fill-rule:evenodd;clip-rule:evenodd;fill:#C7DEF0;}
	.st21{fill-rule:evenodd;clip-rule:evenodd;fill:#68AEE4;}
	.st22{fill-rule:evenodd;clip-rule:evenodd;fill:#93C6EA;}
	.st23{fill-rule:evenodd;clip-rule:evenodd;fill:#B9DFFC;}
	.st24{fill-rule:evenodd;clip-rule:evenodd;fill:#F9E699;}
	.st25{fill-rule:evenodd;clip-rule:evenodd;fill:#F4F4F5;}
	.st26{fill-rule:evenodd;clip-rule:evenodd;fill:#68B1E7;}
	.st27{fill-rule:evenodd;clip-rule:evenodd;fill:#005DA7;}
	.st28{fill-rule:evenodd;clip-rule:evenodd;fill:#164B9B;}
</style>
<title>People working mural</title>
<desc>Created with Sketch.</desc>
<polygon id="Fill-1" class="st0" points="386.6,0 386.6,35.8 359,35.8 359,176.4 360,176.4 360,36.8 387.6,36.8 387.6,1 466.3,1 
	466.3,46.7 485,46.7 485,189 486,189 486,45.7 467.3,45.7 467.3,0 "/>
<g id="Group-293" transform="translate(0.000000, 4.000000)">
	<polygon id="Fill-41" class="st1" points="294.2,187.8 294.5,188.4 294.5,188.4 	"/>
	<path id="Fill-43" class="st2" d="M359.1,397.7c0,2.5-26.6,4.6-59.4,4.6c-32.8,0-59.4-2-59.4-4.6c0-2.5,26.6-4.6,59.4-4.6
		C332.5,393.1,359.1,395.2,359.1,397.7"/>
	<path id="Fill-45" class="st2" d="M516.1,399c0,2.5-26.6,4.6-59.4,4.6s-59.4-2-59.4-4.6c0-2.5,26.6-4.6,59.4-4.6
		S516.1,396.5,516.1,399"/>
	<polygon id="Fill-47" class="st3" points="354.5,185.2 338.4,388.7 334.6,388.7 350.7,185.1 	"/>
	<polygon id="Fill-49" class="st3" points="419.8,388.7 415.9,388.7 380.4,185.9 384.3,186 	"/>
	<polygon id="Fill-51" class="st3" points="320.5,381.9 316.7,381.5 339.7,190.4 343.5,190.9 	"/>
	<polygon id="Fill-53" class="st0" points="425,333.7 325,333.7 316.2,183.1 416.3,183.1 	"/>
	<path id="Fill-55" class="st4" d="M460.6,235.6c-0.5,0.4-1.1,0.6-1.8,0.8c-0.3,0.1-0.6,0.1-0.9,0.1c-0.3,0-0.6,0-0.9-0.1
		c-1.8-0.4-3.2-1.7-3.6-3.6l-1.3-6.2l-0.3-1.4l-0.1,0.5c0-0.3,0-0.5-0.1-0.8c-0.5-6.4-2.5-1.3-5.3-2.3c-0.8-0.3-1.3-1.6-1.6-3.4
		c0.1-0.1,0.1-0.1,0.2-0.2c0.7-0.8,0.9-1.3,0.8-1.4c-0.1-0.1-0.7,0.4-1.3,1.1c-0.1-0.6-0.2-1.3-0.3-1.9l-1.5,0.3
		c-0.2,0-0.4-0.2-0.3-0.4l1.5-2.2l0.3-0.4l0,0v0l0,0c0.1-0.2,0.1-0.4,0-0.6l-0.4-1.2c-0.1-0.3-0.2-0.7-0.2-1.1c0-0.2,0-0.3,0-0.4
		c-0.1-0.8,0-1.5,0-2.2c0-0.4,0.1-0.8,0.2-1.1v0c1.8-2.1,3.1-1.9,3.1-1.9c-1.4,4.6,2.9,6.7,2.9,6.7l1.5-0.7c2.3,7.9,4.1,8.1,8.6,7.7
		v0l0.4,1.9l1.3,6.3l0.2,0.8l0.6,2.8C462.8,232.8,462,234.6,460.6,235.6"/>
	<polygon id="Fill-57" class="st1" points="444.2,213.9 443.9,214.4 443.9,214.4 	"/>
	<path id="Fill-59" class="st5" d="M469.8,383.3c-0.4-2,0.5-4,2.5-4.4c2-0.4,4,0.8,4.5,2.9l0.9,4.3c-1,0.3-1.6,1-2.2,1.7
		c-0.7,0.7-1.3,1.4-2.4,1.6c-0.7,0.1-1.5-0.2-2.2-0.5L469.8,383.3z"/>
	<path id="Fill-61" class="st6" d="M479.9,395.6l-6.8,0.3l-0.2-2c-3.5-0.1-6.8,2-17.8,2.3c-0.3,0-0.6,0-0.8,0c-1.2-0.6-2-1.8-2-3.2
		c0-0.8,0.2-1.5,0.6-2.1c0.9-0.4,2-0.6,3.4-0.7c7-0.3,13.2-1.5,14.6-1.7c0.6,0.4,1.4,0.6,2.1,0.6c0.1,0,0.3,0,0.4,0
		c1.2-0.2,1.9-1,2.6-1.7c0.6-0.6,1.1-1.2,1.9-1.5L479.9,395.6z"/>
	<path id="Fill-63" class="st5" d="M447.3,384.7c-0.4-2,0.8-1.8,2.8-2.3c2-0.4,3.7-1,4.1,1l1.3,6.2c-1,0.3-1.6,1-2.2,1.7
		c-0.7,0.7-1.3,1.4-2.4,1.6c-0.8,0.1-1.5-0.2-2.2-0.6L447.3,384.7z"/>
	<path id="Fill-65" class="st7" d="M457.6,399.2l-6.6,0.2l-0.2-1.7c-3.5-0.1-6.8,2-17.8,2.3c-2.4,0.1-4.5,0-6.4,0
		c0-1.7,0.7-4.6,7-4.8c6.9-0.3,13.3-2.8,14.8-3.1c0.7,0.4,1.4,0.7,2.2,0.7c0.1,0,0.3,0,0.4,0c1.2-0.2,1.9-1,2.6-1.7
		c0.6-0.6,1.1-1.3,2-1.5L457.6,399.2z"/>
	<path id="Fill-67" class="st8" d="M464.4,229.9c2.1,4.6,4.2,9.1,6.2,13.7c2.1,4.6,4.1,9.1,6.1,13.8c0.5,1.2,1,2.3,1.5,3.6
		c0.1,0.3,0.2,0.7,0.4,1.1l0.1,0.2l0.1,0.2l0.1,0.3c0,0.1,0,0.2,0,0.4c0,0.1,0,0.3,0,0.4c0,0.2,0,0.3,0,0.5l0,0.2l0,0.1l-0.1,0.2
		c0,0.1-0.1,0.2-0.1,0.2l-0.1,0.3l-0.1,0.2c-0.3,0.5-0.5,0.8-0.7,1.2c-0.2,0.3-0.4,0.6-0.6,0.9c-0.8,1.1-1.6,2.1-2.4,3.1
		c-0.8,1-1.6,2-2.4,3c-3.2,3.9-6.5,7.7-9.8,11.5c-1,1.1-2.6,1.2-3.7,0.3c-1.1-0.9-1.2-2.5-0.4-3.6l0,0c3-3.9,6-7.9,8.9-11.9
		c0.7-1,1.4-2,2.1-3c0.7-1,1.4-2,2-3c0.1-0.2,0.3-0.5,0.4-0.7c0.1-0.2,0.2-0.4,0.2-0.5c0,0,0,0,0,0c0,0,0,0.1,0,0.1l0,0.1
		c0,0,0,0.1,0,0.1l0,0.1c0,0.1,0,0.1,0,0.2c0,0.1,0,0.2,0,0.4c0,0.1,0,0.2,0,0.3c0,0.1,0,0.2,0,0.3c0,0,0,0.1,0,0.1c0,0,0,0,0,0
		c0,0,0,0,0,0c-0.1-0.1-0.2-0.4-0.3-0.6c-0.5-1-1-2.1-1.6-3.2c-2.3-4.4-4.7-8.7-7.1-13.1c-2.4-4.4-4.8-8.7-7.3-13l0,0
		c-1.3-2.3-0.5-5.3,1.8-6.6c2.3-1.3,5.3-0.5,6.6,1.8C464.3,229.7,464.4,229.8,464.4,229.9"/>
	<path id="Fill-69" class="st9" d="M448.3,269.7c-1.9-19.4-2.3-44.2,5.2-45.8c13.2-2.9,15,29.6,15.7,44.1
		C461.6,269.2,453.6,269.5,448.3,269.7"/>
	<path id="Fill-71" class="st10" d="M477.3,384l-9.4,1.7c-1.9-9.2-3.8-18.4-5.6-27.7c-0.9-4.6-1.8-9.3-2.6-13.9
		c-0.4-2.3-0.8-4.7-1.2-7.1l-0.3-1.8c0-0.3-0.1-0.6-0.1-1l-0.1-1c-0.1-0.7-0.1-1.3-0.2-1.9l-0.1-0.9l-0.1-0.9
		c-0.3-4.8-0.5-9.5-0.7-14.2l-0.6-13.5c-0.1,0.2-0.2,0.4-0.3,0.5c-1.4,2.5-2.6,5.3-3.6,8.1c-2.1,5.7-3.6,11.7-4.2,17.5
		c-0.1,1.4-0.2,2.9-0.2,4.2c0,0.7,0.1,1.3,0.1,2l0.3,2.4l1.1,9.7c1.6,12.9,3.2,25.9,4.9,38.8l-9.6,1.4c-2.2-12.9-4.3-25.8-6.4-38.7
		l-1.5-9.7l-0.4-2.5c-0.1-1-0.2-2-0.3-2.9c-0.1-1.9-0.1-3.8,0.1-5.6c0.2-3.6,0.8-7.1,1.5-10.6c0.7-3.4,1.7-6.8,2.8-10.1
		c0.8-2.3,1.6-4.6,2.7-6.9h0c2.9-7.6,1.5-9.2,2-13.6c0.4-4.1,3.1-8.9,3.3-12.5c-0.1-1.1-0.2-2.6-0.3-3.8c5.3-0.1,13.3-0.6,20.8-1.7
		c0.1,2,0.4,33,0.4,33l0.1,14.1c0.1,4.7,0.1,9.4,0.2,14l0,0.9l0,0.8c0,0.5,0,1.1,0.1,1.6l0.1,0.8c0,0.3,0,0.5,0.1,0.8l0.2,1.7
		c0.2,2.2,0.5,4.6,0.8,6.9c0.6,4.6,1.3,9.2,1.9,13.9C474.4,365.5,475.8,374.8,477.3,384"/>
	<path id="Fill-73" class="st8" d="M459.5,229.7c0.5,2.4,0.9,4.7,1.3,7.1c0.4,2.4,0.8,4.8,1.1,7.2c0.3,2.4,0.6,4.8,0.8,7.3
		c0,0.6,0.1,1.3,0.1,1.9c0,0.7,0,1.3,0,2l0,1.1c0,0.4,0,0.7-0.1,1.1c-0.1,0.4-0.1,0.8-0.2,1.3c0,0.2-0.1,0.4-0.1,0.5l-0.1,0.5
		c-0.2,0.7-0.4,1.2-0.5,1.9c-0.2,0.6-0.4,1.2-0.6,1.8c-0.4,1.2-0.8,2.3-1.2,3.4c-0.8,2.3-1.6,4.5-2.5,6.7c-1.7,4.5-3.4,8.9-5.1,13.3
		c-0.6,1.6-2.4,2.3-3.9,1.7c-1.5-0.6-2.3-2.2-1.8-3.7l0,0c1.4-4.5,2.9-9,4.2-13.5c0.7-2.3,1.3-4.5,2-6.8c0.3-1.1,0.6-2.2,0.9-3.4
		c0.1-0.5,0.3-1.1,0.4-1.7c0.1-0.5,0.3-1.1,0.3-1.6l0.1-0.4c0-0.1,0.1-0.3,0.1-0.3c0-0.2,0-0.3,0-0.5c0-0.1,0-0.4,0-0.6l0-0.7
		l-0.1-1.6c-0.1-0.5-0.1-1.1-0.2-1.6c-0.3-2.2-0.7-4.5-1.1-6.7c-0.5-2.3-0.9-4.5-1.5-6.8c-0.5-2.3-1.1-4.6-1.7-6.8l0,0
		c-0.7-2.6,0.9-5.2,3.5-5.9c2.6-0.7,5.2,0.9,5.9,3.5C459.5,229.5,459.5,229.6,459.5,229.7"/>
	<path id="Fill-75" class="st10" d="M448.2,279.2c0,0,1.9,6.5,5.9,9.7l-5.1,4.1c0,0-3.1-2.5-3.1-6
		C445.9,283.4,448.2,279.2,448.2,279.2"/>
	<path id="Fill-77" class="st11" d="M445.3,212.2c0.1,0.5-0.1,0.8-0.3,0.9c-0.2,0-0.5-0.3-0.6-0.8c-0.1-0.5,0.1-0.8,0.3-0.9
		S445.3,211.7,445.3,212.2"/>
	<path id="Fill-79" class="st10" d="M460,219.1L460,219.1c-4.5,0.5-6.3,0.4-8.6-7.6l-1.5,0.7c0,0-4.3-2.1-2.9-6.7
		c0,0-1.7-0.2-3.9,2.9c0.6-4.8,4.9-7.1,9.1-7.3c6.7-0.3,8.4,4.1,8.7,9c0,0.1,0,0.1,0,0.2c0,0.1,0,0.2,0,0.4
		C461,213.7,459.6,215.5,460,219.1"/>
	<path id="Fill-81" class="st4" d="M449,211c0,0-0.3-3.3,1.4-3.4c1.8-0.1,1.7,2.7,1.1,4.2c-0.6,1.4-1.5,3.2-2,3.3
		C449.1,215.2,449,211,449,211"/>
	<path id="Fill-83" class="st10" d="M446,211.3c-0.1,0-0.2-0.1-0.4-0.3c-0.2-0.2-0.5-0.4-0.8-0.4c-0.2,0-0.3,0-0.4,0.1
		c-0.1,0.1-0.2,0.2-0.3,0.3c-0.1,0.2-0.2,0.4-0.3,0.4c-0.1,0-0.2-0.2-0.1-0.5c0-0.2,0.1-0.4,0.3-0.6c0.2-0.2,0.5-0.3,0.8-0.3
		c0.3,0,0.6,0.2,0.7,0.3c0.2,0.1,0.3,0.3,0.4,0.4C446.1,211,446.1,211.2,446,211.3"/>
	<path id="Fill-85" class="st11" d="M443.3,216.7c0,0,0.6-0.4,1-0.2"/>
	<path id="Fill-87" class="st1" d="M444.4,216.5c0,0.1-0.2,0.1-0.5,0.2c-0.3,0.1-0.5,0.2-0.5,0.1c-0.1-0.1,0.1-0.3,0.5-0.4
		c0.2,0,0.3,0,0.4,0C444.3,216.4,444.4,216.4,444.4,216.5"/>
	<path id="Fill-89" class="st0" d="M298.1,394.8c-0.3,0-1.3,0-2.7-0.1c-0.1,0-0.1,0-0.2,0c-0.1,0-0.1,0-0.2,0
		c-6.1-0.3-19.3-1.2-22.7-1.4c0,0,0,0,0,0c0-0.3-0.1-0.7,0-1.2c0-0.9,0.3-2.1,0.8-3.6c1.3-3.2,1.9-6.7,2-7.2l0.1-0.2
		c0.5-2,2.5-3.2,4.5-2.7c2,0.5,3.1,2.5,2.6,4.5l-1.6,5.1c1.3,0.7,1.4,1.3,10,3c5,0.9,6.7,1.8,7.1,3
		C298,394.2,298.1,394.5,298.1,394.8"/>
	<path id="Fill-91" class="st12" d="M298.1,394.8c-0.3,0-1.3,0-2.7-0.1c-0.1,0-0.1,0-0.2,0c-0.1,0-0.1,0-0.2,0
		c-6.3-0.4-20-1.3-22.7-1.4c0-0.3-0.1-0.7,0-1.2l25.6,1.8C298,394.2,298.1,394.5,298.1,394.8"/>
	<path id="Fill-93" class="st0" d="M303.2,384.2c0.7-1.9-0.5-1.9-2.4-2.7c-1.9-0.7-3.5-1.6-4.2,0.4l-1.1,6.8c0.9,0.5,1.4,1,1.9,1.8
		c0.5,0.8,1,1.6,2.1,1.9c0.7,0.2,1.7,0,2.4-0.3L303.2,384.2z"/>
	<path id="Fill-95" class="st0" d="M318.3,400.9c-1.7-0.2-21.5-4-25.1-4.7c0,0,0-0.5,0.1-1.1c0.1-0.8,0.4-1.8,0.9-2.8
		c0.7-1.3,1.1-2.8,1.3-4.1l0-0.1c0.8,0.4,1.1,1.3,1.6,2c0.6,0.9,1.1,1.7,2.3,2.1c0.1,0,0.3,0.1,0.4,0.1c0.8,0.1,1.3-0.1,2-0.4
		c1.4,0.5,3,2.1,10.6,4.4c4.4,1.4,5.6,2.3,5.8,3.3C318.4,400.1,318.4,400.5,318.3,400.9"/>
	<path id="Fill-97" class="st1" d="M286.2,229.3c-2.1,4.6-4.2,9.1-6.2,13.7c-2.1,4.6-4.1,9.1-6.1,13.8c-0.5,1.2-1,2.3-1.5,3.6
		c-0.1,0.3-0.2,0.7-0.4,1.1l-0.1,0.2L272,262l-0.1,0.3c0,0.1,0,0.2,0,0.4c0,0.1,0,0.3,0,0.4c0,0.2,0,0.3,0,0.5l0,0.2l0,0.1l0.1,0.2
		c0,0.1,0.1,0.2,0.1,0.2l0.1,0.3l0.1,0.2c0.3,0.5,0.5,0.8,0.7,1.2c0.2,0.3,0.4,0.6,0.6,0.9c0.8,1.1,1.6,2.1,2.4,3.1
		c0.8,1,1.6,2,2.4,3c3.2,3.9,6.5,7.7,9.8,11.5c1,1.1,2.6,1.2,3.7,0.3c1.1-0.9,1.2-2.5,0.4-3.6l0,0c-3-3.9-6-7.9-8.9-11.9
		c-0.7-1-1.4-2-2.1-3c-0.7-1-1.4-2-2-3c-0.1-0.2-0.3-0.5-0.4-0.7c-0.1-0.2-0.2-0.4-0.2-0.5c0,0,0,0,0,0c0,0,0,0.1,0,0.1l0,0.1
		c0,0,0,0.1,0,0.1l0,0.1c0,0.1,0,0.1,0,0.2c0,0.1,0,0.2,0,0.4c0,0.1,0,0.2,0,0.3c0,0.1,0,0.2,0,0.3c0,0,0,0.1,0,0.1c0,0,0,0,0,0
		c0,0,0,0,0,0c0.1-0.1,0.2-0.4,0.3-0.6c0.5-1,1-2.1,1.6-3.2c2.3-4.4,4.7-8.7,7.1-13.1c2.4-4.4,4.8-8.7,7.3-13l0,0
		c1.3-2.3,0.5-5.3-1.8-6.6c-2.3-1.3-5.3-0.5-6.6,1.8C286.3,229.1,286.3,229.2,286.2,229.3"/>
	<path id="Fill-99" class="st13" d="M283.9,321.1c0-1.8-0.7-7.6-0.8-9.2c-0.3-14.2-4.7-19.3-4.2-28c0.5-7.8,1.7-12.2,2.5-15.9
		c0-0.1,0-0.2,0.1-0.3c0-0.1,0.1-0.2,0.1-0.2l15,17.9L283.9,321.1z"/>
	<path id="Fill-101" class="st14" d="M290,235c0.5,0.4,1.1,0.6,1.8,0.8c0.3,0.1,0.6,0.1,0.9,0.1c0.3,0,0.6,0,0.9-0.1
		c1.8-0.4,3.2-1.7,3.6-3.6l1.3-6.2l0.3-1.4l0.1,0.5c0-0.3,0-0.5,0.1-0.8c0.5-6.4,2.5-1.3,5.3-2.3c0.7-0.2,1-1,1.3-2.5
		c0.1-0.2,0.2-0.5,0.2-0.6c0.1-0.1,0.1-0.3,0-0.3c-0.1-0.1-0.1-0.2-0.2-0.2c-0.7-0.8-0.9-1.3-0.8-1.4c0.1-0.1,0.7,0.4,1.3,1.1
		c0.1-0.6,0.2-1.3,0.3-1.9l1.5,0.3c0.2,0,0.4-0.2,0.3-0.4l-1.5-2.2l-0.3-0.4l0,0v0l0,0c-0.1-0.2-0.1-0.4,0-0.6l0.4-1.2
		c0.1-0.3,0.2-0.7,0.2-1.1c0-0.2,0-0.3,0-0.4c0.1-0.8,0-1.5,0-2.2c0-0.4-0.1-0.8-0.2-1.1c-1-4-4.6-6-8.4-6c-4.6,0-8.3,3.8-8.6,8.7
		c0,0.1,0,0.1,0,0.2c0,0.1,0,0.2,0,0.4c-0.1,3.1,1.3,4.9,0.9,8.5l0,0.1l-0.4,1.9l-1.3,6.3l-0.2,0.8l-0.6,2.8
		C287.8,232.2,288.6,234,290,235"/>
	<path id="Fill-103" class="st7" d="M302.1,257c-0.4,2.2-0.8,4.5-1.2,7c-0.2,1.7-0.4,3.4-0.6,5.1c-1.2,0-2.5-0.1-3.8-0.2
		c-0.1,0-0.3,0-0.4,0c-0.1,0-0.1,0-0.2,0c-4.3-0.2-9.2-0.6-13.9-1.4c-0.1,0-0.3,0-0.4-0.1c0,0,0,0,0,0c0-0.1,0-0.2,0.1-0.3
		c0.5-2.2,0.9-4.3,1.1-6.3c0.3-2.2,0.5-4.4,0.8-6.7c0.8-6.5,1.6-13.5,3.5-22.8c0.5-1.1,1-2.1,1.6-3c0.4-0.6,0.8-1.2,1.2-1.7
		c1.9-2.3,4.3-3.6,7.3-3.3c0.6,0.1,1.1,0.7,1.6,1.7C301,229.8,301.7,244.3,302.1,257"/>
	<path id="Fill-105" class="st13" d="M314.2,332.1c-0.1,1-0.1,1.9-0.3,2.9l-0.4,2.5l-1.5,9.7c-2.1,12.9-4.2,25.8-6.4,38.7l-2.6-0.4
		l-7-1l0,0c1.7-12.9,3.3-25.9,4.9-38.8l1.1-9.7l0.3-2.4c0.1-0.6,0.1-1.3,0.1-2c0-1.4,0-2.8-0.2-4.2c-0.6-5.8-2.1-11.8-4.2-17.5
		c-1-2.8-2.2-5.6-3.6-8.1c-0.1-0.2-5.4-9.4-5.5-9.6l0.7,4.5l-8.4-11.3c0-3,0.1-6,0.1-8.8c0-4,0.1-7.3,0.1-8.7c0-0.1,0-0.2,0.1-0.3
		c0-0.1,0-0.2,0.1-0.2c0,0,0,0,0,0c0.1,0,0.2,0,0.3,0.1c4.7,0.7,9.6,1.2,13.9,1.4c0.1,0,0.1,0,0.2,0c0.1,0,0.3,0,0.4,0
		c1.4,0.1,2.6,0.1,3.8,0.2c-0.4,5.6-0.3,11,0.3,13.9c0.4,2.2,1.5,4.4,2.8,7.2c0.8,2,2.1,4.3,3.9,8.9h0c1,2.3,1.9,4.6,2.7,6.9
		c1.1,3.3,2,6.7,2.8,10.1c0.7,3.4,1.3,6.9,1.5,10.6C314.3,328.4,314.3,330.2,314.2,332.1"/>
	<path id="Fill-107" class="st15" d="M307.3,216.1c0,0-0.6-0.4-1-0.2"/>
	<path id="Fill-109" class="st15" d="M306.3,215.9c0,0,0-0.1,0.1-0.1c0.1,0,0.3,0,0.4,0c0.3,0.1,0.5,0.3,0.5,0.4
		c-0.1,0.1-0.3,0-0.5-0.1C306.5,216,306.3,216,306.3,215.9"/>
	<path id="Fill-111" class="st10" d="M309.6,205.9c0,4.4-3.6,7.9-7.9,7.9c-4.4,0-7.9-3.5-7.9-7.9c0-4.4,3.6-7.9,7.9-7.9
		C306.1,198,309.6,201.5,309.6,205.9"/>
	<path id="Fill-113" class="st10" d="M301.4,216.4c0,4.4-3.6,7.9-7.9,7.9c-4.4,0-7.9-3.5-7.9-7.9c0-4.4,3.6-7.9,7.9-7.9
		C297.8,208.5,301.4,212,301.4,216.4"/>
	<path id="Fill-115" class="st10" d="M308.3,227.5c0,4.4-3.6,7.9-7.9,7.9c-4.4,0-7.9-3.5-7.9-7.9c0-4.4,3.6-7.9,7.9-7.9
		C304.8,219.6,308.3,223.2,308.3,227.5"/>
	<path id="Fill-117" class="st10" d="M297.3,225.6c0,4.4-3.6,7.9-7.9,7.9s-7.9-3.5-7.9-7.9c0-4.4,3.6-7.9,7.9-7.9
		S297.3,221.2,297.3,225.6"/>
	<path id="Fill-119" class="st10" d="M298.3,215.9c0,4.4-3.6,7.9-7.9,7.9c-4.4,0-7.9-3.5-7.9-7.9s3.6-7.9,7.9-7.9
		C294.8,208,298.3,211.5,298.3,215.9"/>
	<path id="Fill-121" class="st10" d="M304,207c0,4.4-3.6,7.9-7.9,7.9c-4.4,0-7.9-3.5-7.9-7.9s3.6-7.9,7.9-7.9
		C300.5,199.1,304,202.6,304,207"/>
	<path id="Fill-123" class="st14" d="M300.3,233.8c1.8,5.8,3.7,11.7,5.6,17.5c1,2.9,1.9,5.8,2.9,8.7c1,2.9,2,5.8,3.1,8.5
		c0.3,0.7,0.6,1.3,0.8,1.9c0.1,0.1,0.1,0.3,0.2,0.4l0.1,0.3c0,0,0,0-0.1-0.1c0,0-0.1-0.1-0.2-0.2c-0.1-0.1-0.2-0.2-0.7-0.5
		c-0.1,0-0.1-0.1-0.2-0.1c-0.1,0-0.2-0.1-0.3-0.1c-0.1,0-0.2-0.1-0.3-0.1c-0.1,0-0.3,0-0.4-0.1c-0.2,0-0.3,0-0.4,0
		c-0.1,0-0.2,0-0.3,0c-0.1,0-0.2,0-0.3,0.1c-0.1,0-0.1,0-0.2,0.1c-0.1,0-0.1,0-0.2,0.1c-0.1,0-0.1,0.1-0.2,0.1
		c-0.1,0-0.2,0.1-0.2,0.1l-0.1,0.1l-0.1,0c0,0-0.1,0.1-0.1,0.1c-0.1,0.1-0.1,0.1-0.2,0.1c0,0-0.1,0.1-0.1,0.1l0,0.1l0,0
		c0,0.1,0,0,0.1-0.1c0.1-0.1,0.1-0.2,0.2-0.3c0.2-0.3,0.3-0.5,0.5-0.8c0.3-0.6,0.7-1.3,1-1.9c1.4-2.6,2.6-5.4,3.9-8.2
		c2.5-5.6,5-11.2,7.3-16.9l0,0c0.6-1.4,2.2-2.1,3.6-1.5c1.4,0.6,2,2.1,1.5,3.5c-2.2,5.8-4.3,11.6-6.7,17.3c-1.2,2.9-2.3,5.8-3.7,8.7
		c-0.3,0.7-0.7,1.5-1.1,2.2c-0.2,0.4-0.4,0.8-0.6,1.2c-0.1,0.2-0.2,0.4-0.4,0.6c-0.2,0.2-0.3,0.5-0.6,0.8l-0.1,0.1
		c0,0.1-0.1,0.1-0.2,0.2c-0.1,0.1-0.1,0.1-0.2,0.2c-0.1,0.1-0.2,0.1-0.3,0.2c-0.1,0-0.1,0.1-0.2,0.1l-0.1,0.1l-0.1,0.1
		c-0.1,0.1-0.2,0.1-0.3,0.2c0,0-0.1,0.1-0.2,0.1c-0.1,0-0.2,0.1-0.2,0.1c-0.1,0-0.2,0-0.2,0.1c-0.1,0-0.2,0-0.4,0.1
		c-0.1,0-0.2,0-0.4,0c-0.1,0-0.3,0-0.4,0c-0.2,0-0.3,0-0.5-0.1c-0.1,0-0.3-0.1-0.4-0.1c-0.1,0-0.2-0.1-0.3-0.1
		c-0.1,0-0.2-0.1-0.2-0.1c-0.6-0.3-0.8-0.5-1-0.7c-0.2-0.2-0.3-0.3-0.4-0.4c-0.2-0.2-0.3-0.4-0.4-0.5c-0.2-0.3-0.3-0.5-0.5-0.7
		c-0.1-0.2-0.2-0.4-0.3-0.6c-0.4-0.8-0.8-1.5-1.1-2.3c-1.3-2.9-2.5-5.8-3.6-8.7c-1.1-2.9-2.2-5.8-3.3-8.7
		c-2.2-5.8-4.3-11.6-6.4-17.4c-0.8-2.2,0.4-4.6,2.6-5.4c2.2-0.8,4.7,0.4,5.4,2.6C300.3,233.7,300.3,233.8,300.3,233.8L300.3,233.8z"
		/>
	<polygon id="Fill-125" class="st9" points="334.4,225.4 333.9,226.7 316.5,242.1 314.9,240.3 332.4,224.9 333.7,224.6 	"/>
	<polygon id="Fill-127" class="st9" points="316.2,241.6 315.4,240.7 335.1,223.3 335.9,224.1 	"/>
	<path id="Fill-129" class="st14" d="M330.4,237.1c-0.3,1.4-2.1,3.2-3.7,7.7l-4.9-2.2c2.1-5.7,2-5.7,2.4-7.9
		c0.6-2.9,1.7-3.5,3.1-3.1C328.8,232,330.7,235.7,330.4,237.1"/>
	<path id="Fill-131" class="st14" d="M322,237.2c0,0,0.4,0.8,0.5,1.8c0.2,1.2-0.8,3.6-0.8,3.6l3.5-2.2l-1-5L322,237.2z"/>
	<path id="Fill-133" class="st14" d="M324.1,238.7c-0.1,0-0.2,0-0.2,0c-0.5-0.1-0.7-0.6-0.6-1.1l2.4-9c0.1-0.5,0.6-0.7,1.1-0.6
		c0.5,0.1,0.7,0.6,0.6,1.1l-2.4,9C324.8,238.5,324.5,238.7,324.1,238.7"/>
	<path id="Fill-135" class="st12" d="M318.3,400.9c-1.7-0.2-21.5-4-25.1-4.7c0,0,0-0.5,0.1-1.1l25,4.6
		C318.4,400.1,318.4,400.5,318.3,400.9"/>
	<path id="Fill-137" class="st13" d="M292,281c-0.1,1.1-0.3,2.2-0.4,3.2c-0.1,1-0.2,1.9-0.2,2.8c-0.1,1.8,0,3.7,0.2,5.7
		c0,0.5,0.1,1,0.2,1.5l0.1,0.8l0.1,0.8l0.4,3.2l0.9,6.5c0.6,4.3,1.2,8.7,1.7,13.1c0.3,2.2,0.5,4.4,0.7,6.7c0.2,2.3,0.3,4.6,0.3,7.1
		c0,0.6,0,1.2-0.1,1.9c0,0.3-0.1,0.7-0.1,1.1c0,0.2,0,0.3-0.1,0.5l-0.1,0.5l-0.1,0.5l-0.1,0.4l-0.2,0.9l-0.3,1.7
		c-0.5,2.3-1,4.4-1.5,6.6c-1.1,4.3-2.2,8.6-3.4,12.8c-2.4,8.5-4.9,16.9-7.5,25.3l-8.6-2.5c2.3-8.4,4.4-16.8,6.5-25.3
		c1-4.2,2-8.4,2.9-12.6c0.4-2.1,0.9-4.2,1.2-6.2l0.2-1.5l0.1-0.7l0-0.4l0-0.3l0-0.3c0-0.1,0-0.2,0-0.3l0-0.6c0-0.5,0-0.9,0-1.4
		c0-1.9-0.2-3.9-0.5-6c-0.2-2.1-0.5-4.2-0.9-6.3c-0.7-4.2-1.4-8.5-2.2-12.8l-1.1-6.5l-0.5-3.3l-0.3-1.7c-0.1-0.6-0.2-1.2-0.3-1.7
		c-0.3-2.3-0.5-4.8-0.5-7.3c0-1.3,0-2.5,0.1-3.7c0.1-1.2,0.2-2.3,0.3-3.4L292,281z"/>
	<path id="Fill-139" class="st0" d="M281.7,384.9c-0.3,2.1,0.1,3.8,2.8,5.1l-3.8,1.5l-3.7-2.5l1.6-2.9L281.7,384.9z"/>
	<path id="Fill-141" class="st0" d="M302.7,388.6c-0.3,2.1,0.1,3.8,2.8,5.1l-3.8,1.5l-3.7-2.5l1.6-2.9L302.7,388.6z"/>
	<polygon id="Fill-143" class="st0" points="272.7,225 271.8,225 271.8,175 247,175 247,45.5 168.7,45.5 168.7,93.5 167.8,93.5 
		167.8,44.5 248,44.5 248,174 272.7,174 	"/>
	<polygon id="Fill-145" class="st0" points="344.1,171.6 343.1,171.6 343.1,127.6 309.4,127.6 309.4,96.9 259.4,96.9 259.4,96 
		310.4,96 310.4,126.6 344.1,126.6 	"/>
	<path id="Fill-147" class="st9" d="M354.3,310.7c-3.4,0-6.2-2.8-6.2-6.2s2.8-6.2,6.2-6.2s6.2,2.8,6.2,6.2c0,1.5-0.8,3-2,3.8
		c-1.4,0.9-3.1,1-5,0.3c-0.3-0.1-0.4-0.4-0.3-0.6c0.1-0.3,0.4-0.4,0.6-0.3c2,0.8,3.3,0.3,4.1-0.2c1-0.7,1.6-1.9,1.6-3
		c0-2.9-2.3-5.2-5.2-5.2s-5.2,2.3-5.2,5.2c0,2.9,2.3,5.2,5.2,5.2c0.3,0,0.5,0.2,0.5,0.5C354.8,310.4,354.6,310.7,354.3,310.7"/>
	<path id="Fill-149" class="st9" d="M373,287.9c-0.2,0-0.5,0-0.7,0c-1.6-0.2-3.1-1-4.1-2.3c-1-1.3-1.5-2.9-1.3-4.5
		c0.2-1.7,0.9-3.1,2.1-4.2c1.2-1.1,2.7-1.6,4.4-1.4c1.4,0.2,2.7,0.9,3.5,2.1c0.7,1,1.3,2.7,0.6,5.2c-0.1,0.3-0.3,0.4-0.6,0.3
		c-0.3-0.1-0.4-0.3-0.3-0.6c0.5-1.7,0.3-3.3-0.5-4.4c-0.6-0.9-1.7-1.6-2.8-1.7c-1.4-0.2-2.6,0.2-3.6,1.1c-1,0.9-1.6,2.1-1.7,3.5
		c-0.3,2.8,1.7,5.4,4.6,5.7c1.4,0.2,2.7-0.2,3.8-1.1c1.1-0.9,1.8-2.1,1.9-3.5c0-0.3,0.3-0.5,0.5-0.4c0.3,0,0.5,0.3,0.4,0.5
		c-0.2,1.6-1,3.1-2.3,4.1C375.7,287.5,374.4,287.9,373,287.9"/>
	<path id="Fill-151" class="st9" d="M352.8,266.6c-1.7,0-3.4-0.7-4.6-2.1c-2.4-2.7-2.3-6.3,0.2-8.5c1.1-0.9,2.5-1.4,3.9-1.2
		c1.2,0.2,2.9,0.8,4.3,3.1c0.1,0.2,0.1,0.5-0.1,0.7c-0.2,0.1-0.5,0.1-0.7-0.1c-1-1.5-2.2-2.4-3.6-2.6c-1.1-0.2-2.3,0.2-3.1,0.9
		c-2.1,1.8-2.1,4.8-0.1,7.1c1.9,2.1,5.2,2.3,7.3,0.4c2.1-1.9,2.3-5.2,0.4-7.3c-0.2-0.2-0.2-0.5,0-0.7c0.2-0.2,0.5-0.2,0.7,0
		c2.3,2.5,2,6.5-0.5,8.7C355.7,266.1,354.2,266.6,352.8,266.6"/>
	<path id="Fill-153" class="st9" d="M388.7,308c-0.9,0-1.7-0.2-2.6-0.6c-3.2-1.5-4.7-4.8-3.3-7.8c0.6-1.3,1.7-2.3,3.1-2.7
		c1.1-0.3,2.9-0.4,5.2,1c0.2,0.2,0.3,0.5,0.1,0.7c-0.2,0.2-0.5,0.3-0.7,0.1c-1.5-1-3-1.3-4.3-0.9c-1.1,0.3-2,1.1-2.5,2.1
		c-1.1,2.5,0,5.2,2.8,6.5c1.3,0.6,2.7,0.6,4,0.1c1.3-0.5,2.3-1.5,2.9-2.7c0.6-1.3,0.6-2.7,0.1-4c-0.5-1.3-1.5-2.3-2.7-2.9
		c-0.2-0.1-0.4-0.4-0.2-0.7c0.1-0.2,0.4-0.4,0.7-0.2c1.5,0.7,2.7,1.9,3.2,3.5c0.6,1.5,0.5,3.2-0.2,4.7c-0.7,1.5-1.9,2.6-3.5,3.2
		C390.2,307.9,389.4,308,388.7,308"/>
	<path id="Fill-155" class="st9" d="M391.6,293.3c-0.1,0-0.1,0-0.2,0c-0.3-0.1-0.4-0.4-0.3-0.6c10-26,10.4-45.8,8.9-57.9
		c-1.6-13.1-5.6-20.1-5.6-20.1c-0.1-0.2-0.1-0.5,0.2-0.7c0.2-0.1,0.5-0.1,0.7,0.2c0.2,0.3,4.1,7.2,5.7,20.5
		c1.5,12.2,1.1,32.2-9,58.4C392,293.2,391.8,293.3,391.6,293.3"/>
	<path id="Fill-157" class="st9" d="M388.7,207.8c-0.1,0-0.1,0-0.2,0c-0.3-0.1-0.4-0.4-0.3-0.6l4.3-9.9c0.1-0.3,0.4-0.4,0.7-0.3
		c0.3,0.1,0.4,0.4,0.3,0.6l-4.3,9.9C389,207.7,388.8,207.8,388.7,207.8"/>
	<path id="Fill-159" class="st9" d="M395.8,205.4c-0.1,0-0.2,0-0.2-0.1l-9.9-5.2c-0.2-0.1-0.3-0.4-0.2-0.7c0.1-0.2,0.4-0.3,0.7-0.2
		l9.9,5.2c0.2,0.1,0.3,0.4,0.2,0.7C396.1,205.3,395.9,205.4,395.8,205.4"/>
	<path id="Fill-161" class="st9" d="M379,218.3c-0.1,0-0.1,0-0.2,0c-0.3-0.1-0.4-0.4-0.3-0.6l3.4-10.2c0.1-0.3,0.4-0.4,0.6-0.3
		c0.3,0.1,0.4,0.4,0.3,0.6l-3.4,10.2C379.4,218.2,379.2,218.3,379,218.3"/>
	<path id="Fill-163" class="st9" d="M385.9,215.4c-0.1,0-0.1,0-0.2,0l-10.4-4.3c-0.3-0.1-0.4-0.4-0.3-0.6c0.1-0.3,0.4-0.4,0.6-0.3
		l10.4,4.3c0.3,0.1,0.4,0.4,0.3,0.6C386.3,215.3,386.1,215.4,385.9,215.4"/>
	<path id="Fill-165" class="st9" d="M369.2,237.6c-0.1,0-0.2,0-0.3-0.1c-0.2-0.2-0.2-0.5-0.1-0.7l6.9-8.2c0.2-0.2,0.5-0.2,0.7-0.1
		c0.2,0.2,0.2,0.5,0.1,0.7l-6.9,8.2C369.4,237.5,369.3,237.6,369.2,237.6"/>
	<path id="Fill-167" class="st9" d="M376.6,237.4c-0.1,0-0.2,0-0.3-0.1l-8-7.8c-0.2-0.2-0.2-0.5,0-0.7c0.2-0.2,0.5-0.2,0.7,0l8,7.8
		c0.2,0.2,0.2,0.5,0,0.7C376.9,237.3,376.8,237.4,376.6,237.4"/>
	<path id="Fill-169" class="st9" d="M354.4,203.8c-0.2,0-0.3-0.1-0.4-0.3c-0.1-0.2,0-0.5,0.2-0.7l9.4-5.2c0.2-0.1,0.5,0,0.7,0.2
		c0.1,0.2,0,0.5-0.2,0.7l-9.4,5.2C354.5,203.8,354.5,203.8,354.4,203.8"/>
	<path id="Fill-171" class="st9" d="M361.4,206.3c-0.2,0-0.4-0.1-0.5-0.3l-4.7-10.2c-0.1-0.2,0-0.5,0.2-0.7c0.2-0.1,0.5,0,0.7,0.2
		l4.7,10.2c0.1,0.2,0,0.5-0.2,0.7C361.6,206.3,361.5,206.3,361.4,206.3"/>
	<path id="Fill-173" class="st9" d="M394.2,220.5c-0.2,0-0.4-0.1-0.5-0.4c-0.3-1.2-2-7.3-1-8.7c0.2-0.3,0.5-0.4,0.7-0.4
		c0.6-0.1,1.6,0.2,3.9,3.3c1.2,1.7,2.3,3.4,2.3,3.4c0.1,0.2,0.1,0.5-0.2,0.7c-0.2,0.1-0.5,0.1-0.7-0.2c-2.1-3.4-4.5-6.3-5.2-6.3
		c-0.4,0.5,0.1,4.2,1.2,8c0.1,0.3-0.1,0.5-0.3,0.6C394.3,220.4,394.3,220.5,394.2,220.5"/>
	<path id="Fill-175" class="st9" d="M370.2,247.2C370.2,247.2,370.2,247.2,370.2,247.2c-0.3,0-0.5-0.3-0.5-0.6c0.2-1.4,0.8-6.2,2-7
		c0.3-0.2,0.5-0.2,0.7-0.1c1.4,0.3,2.3,4.6,2.7,7.1c0,0.3-0.1,0.5-0.4,0.6c-0.3,0-0.5-0.1-0.6-0.4c-0.5-3-1.3-5.9-1.9-6.3
		c-0.5,0.4-1.2,3.2-1.5,6.3C370.7,247,370.5,247.2,370.2,247.2"/>
	<path id="Fill-177" class="st9" d="M352.2,215.2c-0.1,0-0.1,0-0.2,0c-0.2-0.1-0.4-0.4-0.2-0.7c1.3-2.8,2.1-5.6,1.9-6.2
		c-0.6,0.1-2.8,2-4.7,4.4c-0.2,0.2-0.5,0.2-0.7,0.1c-0.2-0.2-0.2-0.5-0.1-0.7c0.9-1.1,4.1-4.7,5.5-4.7c0.3,0,0.5,0.1,0.7,0.3
		c1,1-0.7,5.1-1.7,7.4C352.5,215.1,352.4,215.2,352.2,215.2"/>
	<path id="Fill-179" class="st9" d="M382.9,226.8c-0.2,0-0.4-0.2-0.5-0.4c-0.3-1.4-1.1-6.1-0.3-7.3c0.2-0.3,0.5-0.3,0.6-0.4
		c1.4-0.1,3.6,3.6,4.7,5.9c0.1,0.2,0,0.5-0.2,0.7c-0.2,0.1-0.5,0-0.7-0.2c-1.4-2.7-3.1-5.2-3.7-5.4c-0.3,0.6-0.1,3.4,0.5,6.4
		C383.4,226.5,383.2,226.8,382.9,226.8C382.9,226.8,382.9,226.8,382.9,226.8"/>
	<path id="Fill-181" class="st9" d="M353,295.3c-0.2,0-0.3-0.1-0.4-0.2c-7.3-10.4-11.8-21.4-13.6-32.5c-1.4-8.9-1-17.9,1.2-26.8
		c3.7-15.2,11.4-24.9,11.5-25c0.2-0.2,0.5-0.2,0.7-0.1c0.2,0.2,0.2,0.5,0.1,0.7c-0.1,0.1-7.7,9.7-11.3,24.6
		c-2.1,8.8-2.5,17.7-1.1,26.4c1.7,11,6.3,21.7,13.4,32c0.2,0.2,0.1,0.5-0.1,0.7C353.2,295.2,353.1,295.3,353,295.3"/>
	<path id="Fill-183" class="st9" d="M372.3,274.3c-0.3,0-0.5-0.2-0.5-0.5v-31.1c0-0.3,0.2-0.5,0.5-0.5s0.5,0.2,0.5,0.5v31.1
		C372.8,274.1,372.6,274.3,372.3,274.3"/>
	<path id="Fill-185" class="st9" d="M360.8,262.3c-0.2,0-0.5-0.2-0.5-0.4c0-0.3,0.2-0.5,0.4-0.5c0.1,0,14.1-1.7,21-12.1
		c4.5-6.9,5.1-15.9,1.7-27c-0.1-0.3,0.1-0.5,0.3-0.6c0.3-0.1,0.5,0.1,0.6,0.3c3.5,11.4,2.9,20.7-1.8,27.8
		C375.4,260.6,361,262.3,360.8,262.3C360.8,262.3,360.8,262.3,360.8,262.3"/>
	<polygon id="Fill-187" class="st8" points="267.8,86.6 266.8,86.6 266.8,54.4 294.7,54.4 294.7,55.4 267.8,55.4 	"/>
	<polygon id="Fill-189" class="st0" points="274.6,48.3 273.6,48.3 273.6,0 331.2,0 331.2,18.8 377.2,18.8 377.2,19.8 330.2,19.8 
		330.2,1 274.6,1 	"/>
	<polygon id="Fill-191" class="st0" points="199.3,72.7 200.3,72.7 200.3,58.9 199.3,58.9 	"/>
	<polygon id="Fill-193" class="st0" points="296.4,26.2 297.4,26.2 297.4,12.4 296.4,12.4 	"/>
	<polygon id="Fill-194" class="st0" points="312.2,26.2 313.2,26.2 313.2,12.4 312.2,12.4 	"/>
	<polygon id="Fill-195" class="st0" points="274.6,128.1 275.6,128.1 275.6,114.2 274.6,114.2 	"/>
	<polygon id="Fill-196" class="st0" points="290.4,128.1 291.4,128.1 291.4,114.2 290.4,114.2 	"/>
	<polygon id="Fill-197" class="st0" points="215.2,72.7 216.2,72.7 216.2,58.9 215.2,58.9 	"/>
	<polygon id="Fill-198" class="st0" points="231,72.7 232,72.7 232,58.9 231,58.9 	"/>
	<polygon id="Fill-199" class="st0" points="199.3,102.4 200.3,102.4 200.3,88.5 199.3,88.5 	"/>
	<polygon id="Fill-200" class="st0" points="215.2,102.4 216.2,102.4 216.2,88.5 215.2,88.5 	"/>
	<polygon id="Fill-201" class="st0" points="231,102.4 232,102.4 232,88.5 231,88.5 	"/>
	<polygon id="Fill-202" class="st0" points="187.4,170.9 188.4,170.9 188.4,45.4 187.4,45.4 	"/>
	<path id="Fill-203" class="st9" d="M129.8,273.5c0,3.5-2.9,6.4-6.4,6.4s-6.4-2.9-6.4-6.4c0-3.5,2.9-6.4,6.4-6.4
		S129.8,269.9,129.8,273.5"/>
	<path id="Fill-204" class="st12" d="M203.6,318.5c0,3.5-2.9,6.4-6.4,6.4c-3.6,0-6.4-2.9-6.4-6.4s2.9-6.4,6.4-6.4
		C200.8,312,203.6,314.9,203.6,318.5"/>
	<path id="Fill-205" class="st16" d="M303.1,154.8c0,3.5-2.9,6.4-6.4,6.4c-3.6,0-6.4-2.9-6.4-6.4c0-3.5,2.9-6.4,6.4-6.4
		C300.2,148.4,303.1,151.3,303.1,154.8"/>
	<polygon id="Fill-210" class="st0" points="283.5,48.3 284.5,48.3 284.5,0.5 283.5,0.5 	"/>
	<polygon id="Fill-211" class="st1" points="312.7,379.8 324.3,379.8 324.3,385.7 313.7,385.7 	"/>
	<polygon id="Fill-212" class="st1" points="330.9,386.3 342.4,386.3 342.4,392.3 331.9,392.3 	"/>
	<polygon id="Fill-213" class="st1" points="412.8,386.3 424.3,386.3 424.3,392.3 413.8,392.3 	"/>
	<path id="Fill-219" class="st0" d="M159.6,330.5l-0.7,0.7c0,0-0.7-1.1-1.1-2.4c-0.3-0.8-0.4-1.5-0.5-2c0.4-0.7,0.9-1,0.9-1
		s0.4,2.3,0.8,3.4C159.1,329.8,159.4,330.2,159.6,330.5"/>
	<path id="Fill-220" class="st17" d="M233.2,314.3l-0.1,0.3c-0.1,0-0.1,0-0.2-0.1c-2.1-0.8-3.6-2.1-4.5-3.9c-1-2.3-0.8-4.9-0.5-6.8
		c0.2-1.3,0.6-2.3,0.8-2.9l0.3,0c-0.5,1.4-2,6-0.4,9.5c0.8,1.7,2.2,3,4.3,3.7C233.1,314.3,233.2,314.3,233.2,314.3"/>
	<path id="Fill-221" class="st17" d="M237,439.7l-0.3,0.1c-0.1-0.2-10.8-22.2-18.8-39.2c-8.1-17.2-3.3-30.7,4.6-53.2
		c1.3-3.8,2.6-7.5,3.8-11.2c2.6-8.1,4.9-15.6,6.7-21.6c0-0.1,0.1-0.2,0.1-0.3c2-6.9,3.3-11.8,3.6-12.9l0.3,0
		c-0.5,1.9-4.6,17.5-10.5,35.5c-1.1,3.5-2.3,7-3.6,10.6c-7.9,22.4-12.7,35.9-4.6,52.9C226.2,417.5,236.9,439.4,237,439.7"/>
	<path id="Fill-222" class="st17" d="M244.4,307.9c-0.3,1.4-2.7,12.8,1.5,16.6c-0.1,0.1-0.1,0.2-0.2,0.3c-2-1.7-2.9-5.1-2.6-10
		c0.2-3.7,1-7,1-7.1l0-0.1l6.5,0.8c0,0.1,0,0.2,0,0.3L244.4,307.9z"/>
	<path id="Fill-223" class="st2" d="M83.2,428.3c0,2.4-18.5,4.4-41.2,4.4c-22.8,0-41.2-2-41.2-4.4c0-2.4,18.5-4.4,41.2-4.4
		C64.7,423.9,83.2,425.9,83.2,428.3"/>
	<path id="Fill-224" class="st2" d="M293.2,453.5c0,5-23.3,9-52,9c-28.7,0-52-4-52-9c0-5,23.3-9,52-9
		C269.9,444.4,293.2,448.5,293.2,453.5"/>
	<path id="Fill-225" class="st2" d="M135,428.3c0,1.1-8,2-17.8,2c-9.9,0-17.8-0.9-17.8-2c0-1.1,8-2,17.8-2
		C127,426.3,135,427.2,135,428.3"/>
	<path id="Fill-226" class="st2" d="M176.4,434.8c0-0.3-5.6-0.6-12.6-0.6c-6.9,0-12.6,0.3-12.6,0.6c0,0.3,5.6,0.6,12.6,0.6
		C170.8,435.4,176.4,435.2,176.4,434.8"/>
	<path id="Fill-227" class="st15" d="M40,400.1l-7,12.2c-0.1-0.1-0.3-0.2-0.4-0.2c-1.5-0.8-5.1-3.6-8.5-6c-2.8-2-6.7-0.6-7.6,2.7
		c-1.1,4.2-2.2,9.6-2.8,14.6c-0.5,3.7-3.8,6.3-7.5,5.8c-0.4-2.4-1.4-9.7,1.5-17.2c2-5.3,6.1-8.2,6.8-14.9l-4-1.7l3.9-8.5
		c0.6-0.2,3.3-0.3,13.3,6.7C32.1,396.6,36.4,398.2,40,400.1"/>
	<path id="Fill-228" class="st18" d="M129,348.7c1.3,6.7,2.9,14.8,4.5,21.7c2.9-7.4,5.5-16.3-0.8-20.3
		C131.8,349.5,130.7,348.9,129,348.7"/>
	<path id="Fill-229" class="st18" d="M69.8,336c4.9,7.6,12.4,14.9,15.4,17.6c0.1-0.1,0.2-0.1,0.3-0.2c0.5-0.4,1-0.7,1.5-1.1
		c5.6-4.3,13.4-7.2,20.9-9.1c7.6-1.9,15-2.9,19.5-3.3h0c2.9-0.3,4.7-0.4,4.7-0.4l-0.4-1.7c0.3-0.2,0.6-0.3,0.9-0.6
		c0.3-0.2,0.5-0.4,0.7-0.6c1.1-1,1.8-2.5,2-4.1c0.2-1.6-0.2-3.1-1-4.4v0c-0.3-0.4-0.5-0.8-0.9-1.1c-0.8-0.8-1.8-1.5-3-1.8
		c0,0,0,0-0.1,0c-0.3-0.1-0.6-0.2-1-0.2c-0.2,0-0.3,0-0.5,0c-27.5-3.1-47.2,0.5-58.9,10.7C69.9,335.9,69.8,336,69.8,336"/>
	<path id="Fill-230" class="st10" d="M127.9,343.1c0.2,1.3,1,5.1,1.1,5.6c0,0,0,0,0.1,0c0.8,0.1,1.5,0.3,2.1,0.5c0,0,0.1,0,0.1,0
		c0,0,0,0,0.1,0c0.5,0.2,1,0.5,1.4,0.8c0.2,0.1,0.3,0.2,0.5,0.3c0.1,0.1,0.2,0.1,0.3,0.2c0.1,0.1,0.2,0.2,0.3,0.3
		c0.1,0.1,0.2,0.2,0.3,0.3c0,0,0.1,0.1,0.1,0.1c0,0,0,0,0,0c0.1,0.1,0.2,0.2,0.2,0.3c0.1,0.1,0.2,0.3,0.4,0.4c0.2,0.3,0.4,0.6,0.6,1
		c0.3,0.7,0.6,1.4,0.8,2.1c0.1,0.4,0.1,0.7,0.2,1.1c0.1,0.6,0.1,1.2,0.1,1.9v0c0,0.2,0,0.5,0,0.7c0,0.2,0,0.3,0,0.5
		c0,0.2,0,0.4-0.1,0.6c0,0.3-0.1,0.6-0.1,0.8c0,0.3-0.1,0.6-0.2,0.9l0,0l0,0.2c0,0.3-0.1,0.5-0.2,0.8c0,0.1,0,0.2-0.1,0.2
		c-0.1,0.3-0.2,0.7-0.2,1c-0.1,0.4-0.2,0.7-0.3,1.1c-0.2,0.5-0.3,1-0.5,1.5c0,0,0,0.1,0,0.1c-0.1,0.3-0.2,0.6-0.3,1
		c-0.1,0.4-0.3,0.8-0.4,1.2c-0.2,0.5-0.4,1-0.6,1.5v0c0.2,0.9,0.4,1.8,0.6,2.7c3.2-3.3,7.9-4.6,10.4-5c-2.1-9-4.5-21.2-6-29.1
		L127.9,343.1z"/>
	<path id="Fill-231" class="st18" d="M171.6,424.7c-1.8-0.6-3.3-1.5-4.6-2.6c-1.4-1.1-2.6-2.5-3.5-3.9c-0.9-1.3-1.9-2.5-3-3.6
		c-1.1-1.1-2-2.3-3.3-3.1l-0.3-0.2c-0.5-0.3-0.8-0.7-0.5-1.2c0.3-0.5,1-0.7,1.6-0.4c1.6,0.9,2.9,2,4.1,3.2c1.2,1.2,2.4,2.5,3.3,4
		c0.5,0.7,0.8,1.3,1.3,1.9c0.5,0.6,1,1.2,1.6,1.7c1.1,1,2.5,2,3.8,2.5l0.1,0c0.4,0.2,0.6,0.7,0.4,1.1
		C172.5,424.7,172,424.9,171.6,424.7"/>
	<path id="Fill-232" class="st19" d="M167.3,326.3c-1.6,1.2-3.5,1.5-4.2,0.6c-0.7-0.9,0.1-2.6,1.7-3.8c1.6-1.2,3.5-1.5,4.2-0.6
		C169.7,323.3,168.9,325.1,167.3,326.3"/>
	<path id="Fill-233" class="st18" d="M165.7,414.7c-1,0.6-3.1,1.5-6.9-1.6c-6.6-5.4-13.7-12-14.2-13.1c-1.1-2.1-2.2-4.3-3.2-6.4
		c-0.3-0.6-0.6-1.2-0.8-1.8c-0.9-1.9-1.7-3.7-2.4-5.4c-0.7-1.6-1.2-3.2-1.7-4.6c-0.6-1.9-1.2-4.3-1.9-7.1c-0.2-0.9-0.5-1.9-0.7-3
		c0.1,0.5,0.2,0.9,0.3,1.3c3.2-3.3,7.9-4.6,10.4-5c0.1,0.6,0.2,1.1,0.4,1.6c0.8,3.5,1.6,6.6,2.3,8.7c0.4,1.3,1,2.8,1.6,4.4
		c0.4,1,3.3,10.3,8.3,18.3c1.9,2.9,4.6,6.5,6.5,6.9c1.5,0.3,4-0.7,4-0.7C169.3,409.8,168.4,413.1,165.7,414.7"/>
	<path id="Fill-234" class="st20" d="M128.5,319l0.2,2.8l1.7,2.8l0.2,0.3l3.7,6l0.5,1.6l-0.2-1c0.7,0.1-2.7,7.1,2.9,5.1
		c5.4-1.9,7.4-3,9.6-3.8c0.7-0.2,2-0.9,2.8-0.4c1.2,0.6,2.2,1.7,3.1,2.1c1,0.4,1.7,0.3,5.2-2.1c-0.8-1-1.2-1.9-1.3-2.6
		c-0.5-2.9,1.2-3.8,1.2-3.8s0.4,2.3,0.8,3.4c0.6,1.8,1.5,2,1.6,1.9c0.5-0.7,0.9-1.4,1.3-2c0.3-0.3,0.7-0.4,1-0.2
		c0.5,0.2,1.1,0.6,1.8,1c0.6,0.3,1.1,0.1,1.2-0.8c0.2-0.9-0.6-3.1-0.2-4.5c0.3-0.8,0.8-1.1,1.3-1.6c0.4-0.3,0.8-0.5,1.1-0.8
		c0.7-0.5,1.4-1.1,2-1.8c0,0,0,0,0.1-0.1c0.3-0.3,0.6-0.6,0.9-1c0.4-0.4,0.8-0.9,1.1-1.3c0.3-0.4,0.5-0.8,0.7-1.2
		c0.4-0.9,0.7-1.7,0.8-2.6c0.5-3.5-1.6-6.9-3.9-9.8c-5.6-7-12.9-5.3-17.6-1.3c-0.5,0.4-1,0.9-1.4,1.4c-1,1.1-1.8,2.4-2.6,3.8
		c-0.3,0.5-0.6,1.2-0.9,1.9c-0.7,1.3-1.9,3.4-3.8,5.5c-0.4,0.5-0.9,1-1.4,1.5c-0.1,0.1-4.1,1-10.5,1.6c-0.1,0-0.2,0-0.3,0l-0.3,2.1
		c-0.2,0-0.2-2.1-0.4-2.1h0C130.1,319.1,129.3,319,128.5,319"/>
	<path id="Fill-235" class="st20" d="M128.5,319l0.2,2.8l1.7,2.8l0.2,0.3l3.7,6l0.5,1.6l-0.2-1c0.7,0.1-2.7,7.1,2.9,5.1
		c5.4-1.9,7.4-3,9.6-3.8c0.7-0.2,2-0.9,2.8-0.4c1.2,0.6,2.2,1.7,3.1,2.1c1,0.4,1.7,0.3,5.2-2.1c-0.8-1-1.2-1.9-1.3-2.6
		c-0.5-2.9,1.2-3.8,1.2-3.8s0.4,2.3,0.8,3.4c0.6,1.8,1.5,2,1.6,1.9c0.5-0.7,0.9-1.4,1.3-2c0.3-0.3,0.7-0.4,1-0.2
		c0.5,0.2,1.1,0.6,1.8,1c0.6,0.3,1.1,0.1,1.2-0.8c0.2-0.9-0.6-3.1-0.2-4.5c0.3-0.8,0.8-1.1,1.3-1.6c0.4-0.3,0.8-0.5,1.1-0.8
		c0.7-0.5,1.4-1.1,2-1.8c0,0,0,0,0.1-0.1c0.3-0.3,0.6-0.6,0.9-1c0.4-0.4,0.8-0.9,1.1-1.3c0.3-0.4,0.5-0.8,0.7-1.2
		c0.4-0.9,0.7-1.7,0.8-2.6c0.5-3.5-1.6-6.9-3.9-9.8c-5.6-7-12.9-5.3-17.6-1.3c-0.5,0.4-1,0.9-1.4,1.4c-1,1.1-1.8,2.4-2.6,3.8
		c-0.3,0.5-0.6,1.2-0.9,1.9c-0.7,1.3-1.9,3.4-3.8,5.5c-0.4,0.5-0.9,1-1.4,1.5c-0.1,0.1-4.1,1-10.5,1.6c-0.1,0-0.2,0-0.3,0l-0.3,2.1
		c-0.2,0-0.2-2.1-0.4-2.1h0C130.1,319.1,129.3,319,128.5,319"/>
	<path id="Fill-236" class="st20" d="M134.8,332.4l-0.1-0.3c0-0.1,0-0.1,0-0.1L134.8,332.4z"/>
	<path id="Fill-237" class="st10" d="M174.3,315.3c-0.1,0.9-0.6,1.3-1.4,1.7c-0.7-0.8-1-1.9-2.2-3.7c-1.3-2-2.2-2.7-3.1-2.4
		c-1.1,0.4-1,2.1-4.1,3.7c-1,0.5-2.4,0.9-3.7,1.2c-0.4,0.1-0.9,0.2-1.3,0.3c-1,0.2-1.7,0.4-1.7,0.4s0.3-0.9,0.4-2
		c0.1-0.7,0-1.5-0.3-2.2c-0.3-0.6-0.8-1.1-1.6-1.3c-2.5-0.6-3.7,3.1-3.5,5.1c0,0-6.7,4.2-9.6,1.2c2.6-2.7,4.1-5.5,5-7.1
		c0.3-0.7,0.6-1.3,0.9-1.9c1.1-2.1,2.5-3.9,4-5.3c7.3-6.6,12.2-5.6,17.8,1.4C172.2,307.5,174.8,311.8,174.3,315.3"/>
	<path id="Fill-238" class="st21" d="M167,378.5c0,0-37.7,36.1-38.4,36.6c-0.7,0.5-1.8-0.4-3.3-2c-1.5-1.6-2.9-2.6-1.3-4.1
		c3.6-3.4,36.1-32,38.4-34.3C164.4,372.8,167,378.5,167,378.5"/>
	<path id="Fill-239" class="st22" d="M176.1,383.6l-4.3,3.7c0,0-1.6-1-2.2-2.9c-0.6-1.9-2.6-4-4.3-3.1c-1.7,0.8-2.4,2.2-3.1,1.7
		s-4.4-4.3-4.4-4.8c0-0.5,3.3-3.3,2.7-4.6c-0.6-1.3-10-2.1-11.4-2c-1.4,0.1,0-2.1,6.7-2c6.7,0.1,10.8,1.4,14.9,7.1
		c0,0,0,2.7,1.2,3.7s1.8,0.8,2.9,1.6C175.8,382.8,176.1,383.6,176.1,383.6"/>
	<path id="Fill-240" class="st18" d="M147,402.1c-0.3,0.4-0.5,0.7-0.8,1.1c-2.2,2.5-5.5,4.2-9,3.9c-0.7-0.1-1.4-0.2-2-0.4
		c-1.4-0.5-2.7-1.8-4.7-3.3c-1.1-0.9-2.4-1.8-4-2.6c0,0,0,0,0,0c-0.7-0.3-1.4-0.7-2.1-0.9c-1.9-0.7,4.6-1.6,5.2-3.6
		c0.8-2.2-2.6-7.1,1.7-5.6c0.6,0.2,1.1,0.4,1.7,0.5l0.1,0c3.3,0.9,4.7,0.6,7.6,0.8c0.1,0,0.3,0,0.5,0l8.2,6
		C148.9,399,148.2,400.4,147,402.1"/>
	<path id="Fill-241" class="st15" d="M134.9,428.3c-3.7-0.2-8.1-1.1-12.4-3.8c-7.5-4.7-14-6.5-14-6.5l-1.5,3.6l-9.5-3.8
		c1.2-3.3,5-11.8,9.6-21.5l12.9,4.3c-2.2,4.7-4.7,10-6.2,13.4c3.6,1.4,10.2,3,16.4,4.1c3.7,0.6,6.2,4.1,5.5,7.8
		C135.6,426.9,135.3,427.6,134.9,428.3"/>
	<path id="Fill-242" class="st3" d="M25.9,407.3c14,10.2,37.3,25.6,48,18.4c8.8-6,9.5-16.6,6.2-30.2c-0.8-6.6-3.2-12.4-3.2-18.4
		c2.4-0.8,4.8-1.5,7.2-2.2c0.6-0.2,1.2-0.3,1.7-0.5c0.9-0.3,1.8-0.5,2.6-0.8c1.4-0.4,2.8-0.8,4.1-1.2c4.2-1.2,8.2-2.3,11.8-3.2
		c0,0,14.5-3.4,15.8-3.6c-1.7,5-3.3,9.4-6.5,16.4c-1.7,3.8-3.4,7.4-4.8,10.3c-0.2,0.4-0.3,0.8-0.5,1.1c-0.3,0.7-0.7,1.4-1,2.1
		c-0.1,0.1-0.3,0.7-0.3,0.8l12.9,4.4l0.2-0.5c0.1-0.1,0.1-0.3,0.2-0.4c0.1-0.2,0.2-0.4,0.3-0.6c0.1-0.3,0.3-0.5,0.4-0.8
		c1.6-3.3,3.2-6.7,4.8-10.2c2.4-5.2,4.7-10.5,6.6-15.1c0.1-0.1,0.1-0.3,0.2-0.4c0.3-0.8,0.6-1.6,0.9-2.4v0c0.2-0.5,0.4-1,0.6-1.5
		c0.1-0.4,0.3-0.8,0.4-1.2c0.1-0.3,0.2-0.6,0.3-1c0,0,0-0.1,0-0.1c0.2-0.5,0.3-1,0.5-1.5c0.1-0.4,0.2-0.7,0.3-1.1
		c0.1-0.3,0.2-0.6,0.2-1c0-0.1,0-0.2,0.1-0.2c0.1-0.3,0.1-0.5,0.2-0.8l0-0.2l0,0c0.1-0.3,0.1-0.6,0.2-0.9c0-0.3,0.1-0.6,0.1-0.8
		c0-0.2,0-0.4,0.1-0.6c0-0.2,0-0.3,0-0.5c0-0.3,0-0.5,0-0.7l0,0c0-0.7,0-1.3-0.1-1.9c0-0.4-0.1-0.7-0.2-1.1
		c-0.2-0.8-0.4-1.5-0.8-2.1c-0.2-0.3-0.4-0.7-0.6-1c-0.1-0.2-0.2-0.3-0.4-0.4c-0.1-0.1-0.2-0.2-0.2-0.3c0,0,0,0,0,0
		c0,0-0.1-0.1-0.1-0.1c-0.1-0.1-0.2-0.2-0.3-0.3c-0.1-0.1-0.2-0.2-0.3-0.3c-0.1-0.1-0.2-0.2-0.3-0.2c-0.2-0.1-0.3-0.2-0.5-0.3
		c-0.4-0.3-0.9-0.5-1.4-0.8c0,0,0,0-0.1,0c0,0-0.1,0-0.1,0c-0.6-0.2-1.3-0.4-2.1-0.5c-2.2-0.3-5.5-0.2-11,0.7
		c-3.4,0.6-20.9,4.1-30.1,5.9c-0.5,0-2.6-1.8-2.5-1.8c-3.1-2.8-10.3-9.9-15.4-17.6c-0.1,0.1-0.2,0.1-0.2,0.2c0,0-0.1,0-0.1,0.1
		c-0.3,0.2-0.5,0.5-0.8,0.7c-0.1,0.1-0.1,0.1-0.2,0.2c-0.2,0.2-0.4,0.4-0.6,0.6c0,0-0.1,0.1-0.1,0.1c-0.2,0.2-0.5,0.5-0.7,0.8
		c-0.4,0.4-0.7,0.8-1,1.2c-0.2,0.2-0.3,0.4-0.4,0.5c-0.3,0.4-0.6,0.8-0.9,1.2c-0.2,0.2-0.3,0.5-0.5,0.7c-0.2,0.3-0.4,0.6-0.6,1
		c-0.4,0.7-0.8,1.3-1.2,2c-0.2,0.3-0.4,0.7-0.6,1.1c-0.2,0.4-0.4,0.7-0.5,1.1c-0.7,1.5-1.3,3-1.8,4.6c-3.7,11.4-3.5,20.7-0.1,33.9
		c1.6,6.2,3.1,12,3.6,16.7c0.6,5.3-0.3,6.5-0.3,6.5c0,0-11.7-3.3-23.7-9.5c-1.4-0.7-3.3-1.1-4.4-1.9
		C32.8,400.6,25.9,407.3,25.9,407.3"/>
	<path id="Fill-243" class="st18" d="M133.3,402.8c-0.5,0-1-0.1-1.6-0.3c0,0-0.1,0-0.3-0.1c-0.7-0.2-2.5-0.8-5-1.8c0,0,0,0,0,0
		c-1.6-0.6-3.4-1.3-5.4-2.2c-2.3-1-4.8-2.1-7.3-3.4c-1.7-0.9-3.3-1.8-4.8-2.7c-2.1-1.3-4.1-2.6-5.8-3.9c0.9-4.4,3.1-7.9,5.1-10.3
		c0.2,0.2,0.5,0.4,0.8,0.6c1.4,1.1,3,2.2,4.7,3.3c3.7,2.3,7.9,4.4,12,6.2c2.4,1,4.8,2,7,2.7c0,0,0,0,0.1,0c0.8,0.3,1.5,0.5,2.2,0.7
		c1.9,0.6,3.3,2.2,3.8,4c0.3,1,0.2,2-0.1,3.1C138,401.3,135.8,402.8,133.3,402.8"/>
	<path id="Fill-244" class="st10" d="M69.8,336c4.9,7.6,16.5,20.9,19.5,23.7c0.1-0.1,1.3-1,1.8-1.4c6.3-4.4,8.5-11.4,16.8-15.1
		c-3.7,3.3-7.3,7-10.1,10.9c-3.5,4.9-5.9,10.2-6,15.6c0,1,0.1,2,0.2,3c0.8,5.3,4.4,10.4,10.5,15.2c0.2,0.2,0.4,0.3,0.7,0.5
		c0.9-4.4,3.1-7.9,5.1-10.3c-2.9-2.4-3.6-5.3-3.8-7.7c-0.5-7,6.9-15.7,13.5-21.1c3.2-2.6,6.6-5,9.8-7.1c0.1,0.5,0.2,1.1,0.3,1.7
		l10.7-4.2c-0.2-1.2-0.4-2.4-0.6-3.3c0.8-0.3,1.6-0.5,2.4-0.8l-0.1-0.4l-1.1-17.3c-3,0.6-10.7-0.4-27.1,1.1
		c-16.4,1.5-30.6,6.6-42.3,16.8C69.9,335.9,69.8,336,69.8,336"/>
	<path id="Fill-245" class="st21" d="M103.2,390.3C103.1,390.3,103.1,390.3,103.2,390.3c-1.1,0-1.8-0.9-1.8-1.8
		c0.1-2.1,1.1-4.6,2.9-7.3c1.3-1.9,2.6-3.3,2.6-3.4c0.7-0.7,1.8-0.8,2.5-0.1c0.7,0.7,0.8,1.8,0.1,2.5c-1.2,1.3-4.5,5.4-4.6,8.4
		C104.9,389.5,104.1,390.3,103.2,390.3"/>
	<path id="Fill-246" class="st21" d="M132.6,374.8c-0.5,0-1.1-0.2-1.4-0.7c-0.6-0.8-0.4-1.9,0.3-2.5c0.2-0.2,6.2-4.7,12.8-5.4
		c1-0.1,1.8,0.6,1.9,1.6c0.1,1-0.6,1.8-1.6,1.9c-5.6,0.6-11,4.6-11,4.7C133.4,374.6,133,374.8,132.6,374.8"/>
	<path id="Fill-247" class="st10" d="M108.1,338.7c0,0-23.1,20-15.1,37.6l3.8-5.8l15.1-28.9L108.1,338.7z"/>
	<path id="Fill-248" class="st18" d="M165.3,408.1l11.6-4.6l0,0c0.2-0.1,0.5,0,0.6,0.2c0.1,0.2,0,0.4-0.2,0.5l-11,5.8l-0.1,0
		c-0.6,0.3-1.2,0.1-1.5-0.5c-0.3-0.6-0.1-1.2,0.5-1.5C165.2,408.1,165.3,408.1,165.3,408.1"/>
	<path id="Fill-249" class="st18" d="M167.6,408.4l18-1.1c0.5,0,0.9,0.3,0.9,0.8c0,0.5-0.3,0.9-0.8,0.9l-17.9,1.9
		c-0.7,0.1-1.4-0.4-1.4-1.2C166.3,409.1,166.8,408.4,167.6,408.4C167.6,408.4,167.6,408.4,167.6,408.4"/>
	<path id="Fill-250" class="st18" d="M168.8,409.7l20.9,3.6c0.5,0.1,0.8,0.5,0.7,1c-0.1,0.5-0.5,0.8-1,0.7l-21-2.6
		c-0.8-0.1-1.3-0.8-1.2-1.5C167.3,410.1,167.9,409.6,168.8,409.7C168.7,409.7,168.8,409.7,168.8,409.7"/>
	<path id="Fill-251" class="st18" d="M167.2,411.5c2.1,0.4,4.1,0.9,6.1,1.5c2,0.7,4,1.4,5.9,2.5c0.9,0.6,1.9,1.2,2.7,2.1
		c0.8,0.9,1.5,2.4,0.9,3.9c-0.3,0.7-0.9,1.3-1.5,1.6c-0.6,0.3-1.2,0.5-1.7,0.6c-1.1,0.2-2.2,0.2-3.3,0c-0.3-0.1-0.5-0.4-0.5-0.7
		c0-0.3,0.3-0.5,0.5-0.5l0,0c1-0.1,2-0.2,2.9-0.5c0.9-0.3,1.6-0.7,1.7-1.2c0.1-0.2,0.1-0.6,0-0.9c-0.1-0.3-0.3-0.6-0.6-0.9
		c-0.6-0.6-1.4-1.2-2.2-1.6c-1.7-0.9-3.6-1.7-5.5-2.3c-1.9-0.6-3.9-1.2-5.9-1.7l0,0c-0.5-0.1-0.8-0.7-0.7-1.2
		C166.2,411.7,166.7,411.4,167.2,411.5"/>
	<path id="Fill-252" class="st18" d="M173.9,415.5c-5.3-1.8-7.1-0.8-7.5,0.2c-0.4,1-0.1,3.3,2,5.1l-7.8-7.5l2.8-2.9l7.2,1.4
		L173.9,415.5z"/>
	<path id="Fill-253" class="st19" d="M165.5,323.8c-1.6,1.2-3.5,1.5-4.2,0.6c-0.7-0.9,0.1-2.6,1.7-3.8c1.6-1.2,3.5-1.5,4.2-0.6
		C167.9,320.8,167.1,322.5,165.5,323.8"/>
	<path id="Fill-254" class="st19" d="M166,323.4l-0.9,0.7l-6.5-8l-1.3-1.6c0.1-0.7,0-1.5-0.3-2.2l2.8,3.5L166,323.4z"/>
	<polygon id="Fill-255" class="st19" points="167.2,324.7 166.3,325.4 163.5,322.1 164.4,321.3 	"/>
	<path id="Fill-256" class="st10" d="M169.4,412.2c0.1,0.7,1.6,1,3.3,0.8c1.7-0.3,3-1.1,2.9-1.8c-0.1-0.7-1.6-1-3.3-0.8
		C170.5,410.8,169.2,411.5,169.4,412.2"/>
	<path id="Fill-257" class="st10" d="M176,434.8c-0.3,0-0.5-0.2-0.6-0.5l-3.6-21.6c-0.1-0.3,0.2-0.6,0.5-0.7
		c0.3-0.1,0.6,0.2,0.7,0.5l3.6,21.6C176.6,434.5,176.4,434.8,176,434.8C176,434.8,176,434.8,176,434.8"/>
	<path id="Fill-258" class="st10" d="M235.5,450.7C235.5,450.7,235.5,450.7,235.5,450.7l40.1-3.5l-16.3-27.4c-1.2-2.1-3.9-2.7-6-1.5
		c-2.1,1.2-2.7,3.9-1.5,6l9.2,15.5l-1.4,0.1c0,0,0,0,0,0c-2.7,0.4-9.8,1.5-13.3,2.3C241,443.4,235.1,445.4,235.5,450.7"/>
	<polygon id="Fill-259" class="st1" points="185.5,260 169.7,256.9 172.8,241.1 188.6,244.2 	"/>
	<path id="Fill-260" class="st3" d="M222.3,315.4l26.8-0.8c0-0.4,0.7-0.3,0.7-0.7c0.1-3.9,0.8-7.9,0.9-11.9
		c0.4-15.2,1.1-30.3,1.3-41.1c0-10.7-0.4-12.1-7.4-12.8c-7-0.7-10.1,2.5-13.4,15.5c-0.8,3.1-3.6,20.2-6.4,37.2
		C223.9,305.8,223.1,310.8,222.3,315.4"/>
	<path id="Fill-261" class="st3" d="M253,233.7c-0.4,6.6-1.3,22.9-1.1,31.7c0.6,24.6-8.3,21-8.3,21l-4.6-32.3L253,233.7z"/>
	<path id="Fill-262" class="st23" d="M206.2,219.6l9-6.5c0,0.3,0,0.6,0.1,0.9c0-0.3,0-0.6-0.1-0.9c-0.1-0.8-0.1-1.6-0.2-2.4
		c-0.2-3.3-0.2-6.7-0.2-10.1c0-3.4,0.1-6.9,0.3-10.2v-0.1c0-1.2-0.8-2.4-2.1-2.7c-0.6-0.1-1.1-0.1-1.6,0.1c-0.8,0.3-1.4,1-1.6,1.9
		c-0.1,0.4-0.2,0.8-0.3,1.3c0,0,0,0,0,0c0.2,1.3,0,3-0.6,6.1C208.3,199.5,206.6,211.5,206.2,219.6"/>
	<path id="Fill-263" class="st23" d="M206.6,175.1c2.2,0.6,4.3,1.5,6.2,2.8c0.9,0.6,1.7,1.4,2.2,2.3c0.2,0.4,0.4,0.9,0.5,1.4
		c0,0.2,0,0.5,0,0.7c0,0.3-0.1,0.5-0.1,0.8c-0.3,2.2-1.1,4.4-1.7,6.7c-0.6,2.3-1.1,4.6-1.3,7.1c0,0.5,0.4,1,0.9,1
		c0.5,0,1-0.4,1.1-0.9c0,0,0,0,0,0v0c0.1-2.2,0.4-4.5,1-6.7c0.5-2.3,1.2-4.5,1.5-6.9c0-0.3,0.1-0.6,0.1-0.9c0-0.3,0-0.7-0.1-1
		c-0.1-0.7-0.4-1.3-0.7-1.9c-0.7-1.1-1.6-2-2.7-2.7c-2.1-1.4-4.3-2.2-6.6-2.8c-0.3-0.1-0.6,0.1-0.6,0.4
		C206.2,174.8,206.3,175,206.6,175.1L206.6,175.1z"/>
	<path id="Fill-264" class="st23" d="M208.2,181.2c1.4,0.3,2.8,0.9,3.5,2c0.3,0.5,0.4,1.1,0.3,1.7c-0.1,0.7-0.3,1.5-0.4,2.2
		c-0.3,1.5-0.7,3-1.1,4.5c-0.4,1.5-0.8,3-1,4.6c-0.1,0.5,0.3,1,0.8,1.1c0.5,0.1,1.1-0.3,1.1-0.8c0,0,0,0,0,0l0,0
		c0.2-1.4,0.5-3,0.8-4.5c0.3-1.5,0.6-3,0.9-4.6c0.1-0.8,0.3-1.5,0.4-2.3c0.1-0.9-0.1-1.9-0.6-2.7c-0.5-0.8-1.3-1.3-2.1-1.6
		c-0.8-0.3-1.5-0.6-2.4-0.7c-0.3,0-0.5,0.2-0.6,0.4C207.7,180.8,207.9,181.1,208.2,181.2L208.2,181.2z"/>
	<path id="Fill-265" class="st23" d="M206.9,179.2c1.5,0.3,3.1,0.7,4.5,1.5c0.7,0.4,1.3,0.8,1.6,1.3c0.2,0.3,0.3,0.5,0.3,0.8
		c0,0.3,0,0.5-0.1,1c-0.6,3.2-1,6.5-1.5,9.7l0,0c-0.1,0.5,0.3,1,0.8,1.1c0.5,0.1,1-0.3,1.1-0.8c0,0,0,0,0,0c0.3-3.3,0.6-6.5,1-9.7
		c0-0.2,0.1-0.4,0.1-0.6c0-0.3,0-0.5,0-0.8c-0.1-0.5-0.3-1-0.6-1.4c-0.6-0.8-1.4-1.3-2.2-1.7c-1.6-0.7-3.2-1.1-4.9-1.4
		c-0.3,0-0.5,0.2-0.6,0.4C206.4,178.9,206.6,179.2,206.9,179.2L206.9,179.2z"/>
	<path id="Fill-266" class="st23" d="M206.1,177.4c1.9,0.3,3.9,0.8,5.6,1.6c0.8,0.4,1.6,1,2,1.6c0.3,0.6,0.3,1.6,0.2,2.5
		c-0.2,1.9-0.6,3.9-1,5.8c-0.4,2-0.9,3.9-1.3,6c-0.1,0.7,0.3,1.4,1,1.6c0.7,0.1,1.4-0.3,1.6-1c0,0,0-0.1,0-0.1c0.3-2,0.6-4,0.9-6
		c0.3-2,0.6-4,0.7-6.2c0-0.5,0-1.1-0.1-1.6c0-0.3-0.1-0.6-0.2-0.9c-0.1-0.3-0.2-0.6-0.4-0.9c-0.7-1.1-1.7-1.7-2.7-2.1
		c-2-0.9-4-1.2-6.1-1.5c-0.3,0-0.6,0.2-0.6,0.5C205.5,177.1,205.7,177.4,206.1,177.4L206.1,177.4z"/>
	<path id="Fill-267" class="st24" d="M186.4,259.5c4-30.9,12.1-54.1,18.1-68.2c6.5-15.2,12.2-23.2,12.3-23.3l-3.2-2.3
		c-0.2,0.3-5.9,8.3-12.6,23.9c-6.2,14.3-14.4,37.9-18.5,69.4L186.4,259.5z"/>
	<path id="Fill-268" class="st23" d="M212.1,192.5c-0.3,0.1-0.5,0.1-0.8,0.1c-0.4-0.1-1.6,1.9-1.6-0.6c0-0.3-0.1-0.8-0.2-1.3
		c0,0,0,0,0,0c-0.1-0.7-0.4-1.5-0.7-2.3c0,0,0,0,0,0c-1-2.9-2.5-6-2.5-6c-0.3-0.7,0-1.4,0.7-1.7c0.7-0.3,1.4,0,1.7,0.7l2.6,6.2
		l1.4,3.2C213.1,191.5,212.8,192.2,212.1,192.5"/>
	<path id="Fill-269" class="st0" d="M216.9,168.6c-0.1,0-0.2,0-0.3-0.1l-3.7-2.5c-0.2-0.2-0.3-0.5-0.1-0.7c0.2-0.2,0.5-0.3,0.7-0.1
		l3.7,2.5c0.2,0.2,0.3,0.5,0.1,0.7C217.3,168.6,217.1,168.6,216.9,168.6"/>
	<path id="Fill-270" class="st23" d="M232.5,231.9c0.6,1.6,2.3,2.3,3.4,3.1l0.6,0.4c0.9,0.6,1.6,1.3,2,2.4c0.2,0.4,0.2,0.8,0.3,1.2
		c0.4,1.8-0.3,5.8-1.5,10l15-1.9c0-0.6,0.1-1.2,0.1-1.7l0-0.2c0.1-1.9,0.3-3.5,0.6-4.8c0.8-4.2,2-6.6,3.9-9.1c0,0,0.1-0.1,0.1-0.1
		c0.1-0.2,0.3-0.3,0.4-0.5c0.7-1,1.3-2,1.8-3.1c2.1-4.5,1.8-9.2-2.5-11.6c-4.5-2.6-9.1-5-14.6,0.8c-0.3,0.3-0.7,0.8-0.9,1.2
		c-0.2,0.4-0.3,0.6-0.4,0.9c-0.2,0.3-0.3,0.7-0.6,1c-0.2,0.2-0.5,0.5-0.8,0.6c-0.2,0.1-0.5,0.2-1,0.3c-1,0.3-1.9,0.6-2.5,0.6
		c-0.7,0.1-0.7,0.5-0.4,0.7c0.3,0.3,1.3,0.4,1.6,0.7l0,0c0.1,0.1,0.2,0.2,0.2,0.2l-0.1,0.1l-1.4,1.6l-0.5,0.6h0
		c0.3,0,0.7,0.1,0.9,0.1c1.2,0.2,2,0.4,2,0.5c0,0.1-0.6,0.2-1.5,0.2c-0.6,0-1.3,0-2.1-0.1c0,0-0.1,0.1-0.1,0.1
		c0,0.1-0.1,0.1-0.2,0.2c-0.1,0.1-0.2,0.3-0.3,0.4c-0.2,0.3-0.5,0.6-0.7,1C232.5,229.2,232,230.7,232.5,231.9"/>
	<path id="Fill-271" class="st25" d="M247.4,235.6c0.1,0.2,0.2,0.4,0.4,0.6c0.6,0.9,1.3,1.6,2,2.2c0.2,0.2,0.5,0.4,0.7,0.5
		c0.8,0.5,1.5,1,2.2,1.2c0.1,0.1,0.2,0.1,0.4,0.2c0.8-4.2,2-6.6,3.9-9.1c0,0,0.1-0.1,0.1-0.1c0.1-0.2,0.3-0.3,0.4-0.5
		c0.7-1,1.3-2,1.8-3.1L247,216.7c0.1,0.2,1.4,2.3-0.3,5.8c-1,2-1.4,4.5-1.1,5.1c1.2-0.7,3.7-1.6,3.7,0.4c0,1-1.8,1-2.8,1.1
		c0,0.1,0,0.2-0.1,0.3C246.1,232,246.5,234,247.4,235.6"/>
	<path id="Fill-272" class="st26" d="M259.3,228.9c-4-3.3-6.6-6.1-9.9-9.1c-2.2-2-4.4-4.1-7.2-6.2c5.9-5.7,9.8-10.1,15.5-5.8
		c0,0,0,0,0,0C263.4,212.3,264.9,223.2,259.3,228.9"/>
	<path id="Fill-273" class="st27" d="M257.7,207.9c-1.5,4.9-6.8,10.4-8.3,12c-2.2-2-4.1-4.4-6.9-6.5
		C248.4,207.7,252,203.6,257.7,207.9C257.7,207.9,257.7,207.9,257.7,207.9"/>
	<path id="Fill-274" class="st5" d="M259.1,228.7c0.2,0,0.4-0.1,0.5-0.3c0.2-0.3,0.2-0.7-0.1-0.9c-5.4-4.1-11.7-9.9-17.2-15
		c-2.7-2.5-5.2-4.8-7.4-6.8c-0.3-0.2-0.7-0.2-0.9,0.1c-0.2,0.3-0.2,0.7,0.1,0.9c2.2,1.9,4.7,4.2,7.4,6.7c5.6,5.2,11.9,11,17.3,15.1
		C258.9,228.7,259,228.7,259.1,228.7"/>
	<path id="Fill-275" class="st15" d="M244.8,220.2c0.1,0,0.3-0.3,0.3-0.8c0-0.5-0.1-1.3-0.7-2c-0.6-0.7-1.3-1-1.8-1
		c-0.5-0.1-0.9,0-0.9,0.1c0,0.3,1.2,0.5,2,1.5c0.4,0.5,0.6,1,0.7,1.5C244.6,219.9,244.7,220.2,244.8,220.2"/>
	<path id="Fill-276" class="st28" d="M244,220.8c0-0.1-0.3,0-0.6,0.1c-0.3,0.1-0.8,0.1-1.1-0.1c-0.3-0.2-0.4-0.6-0.4-0.9
		c0-0.3,0-0.6,0-0.6c-0.1,0-0.2,0.2-0.3,0.5c-0.1,0.2-0.1,0.4-0.1,0.7c0,0.1,0.1,0.3,0.2,0.4c0.1,0.1,0.2,0.3,0.4,0.3
		c0.6,0.3,1.2,0.1,1.5,0C243.9,221.1,244,220.9,244,220.8"/>
	<path id="Fill-277" class="st1" d="M209.5,190.7c-0.1-0.7-0.4-1.5-0.7-2.3C209.1,189.1,209.4,189.7,209.5,190.7"/>
	<path id="Fill-278" class="st27" d="M237.9,246.3c-0.6,2.8-2.3,8.4-4.1,14.3c-1-0.7-2-1.4-3-2.1c-3-2.2-5.9-4.4-8.7-6.9
		c-2.8-2.5-5.5-5.1-8-8c-1.2-1.5-2.4-3.1-3.5-4.8c-0.2-0.2-0.3-0.5-0.5-0.8c-0.1-0.2-0.2-0.4-0.4-0.7c-0.3-0.5-0.5-1-0.7-1.5
		c-0.5-1-0.8-2-1.1-3c-1.2-4-1.7-7.8-1.7-11.5c0-0.6,0-1.2,0.1-1.8l9-6.5c0.2,2.5,0.5,5,0.8,7.3c0.5,3.1,1.2,6.2,2.3,8.6
		c0.2,0.4,0.3,0.7,0.5,1.1c0.1,0.2,0.2,0.4,0.3,0.5c0.2,0.3,0.3,0.5,0.4,0.7l0.2,0.3l0.3,0.4c0.8,1.1,1.8,2.1,2.9,3.2
		c2.2,2.1,4.6,4.1,7.2,6c1.8,1.4,3.7,2.7,5.7,3.9C236.6,245.5,237.3,245.9,237.9,246.3"/>
	<path id="Fill-279" class="st23" d="M199.6,269.4c-0.5,0.5-1.3,0.6-1.8,0.1c-1.6-1.4-2.8-2.8-3.9-4.5c-1.1-1.6-1.9-3.6-2.3-5.6
		c-0.1-0.5-0.1-1-0.2-1.5c0-0.4-0.1-0.8-0.2-1.2c-0.2-0.8-0.5-1.5-0.9-2.3c-0.7-1.3-1.6-2.6-2.7-3.7l0.3-2c0.1,0,0.3,0.1,0.4,0.2
		c1.6,1.2,3,2.6,4,4.3c0.5,0.9,1,1.8,1.3,2.8c0.2,0.5,0.3,1,0.3,1.6c0.1,0.4,0.1,0.8,0.2,1.2c0.4,1.6,1.1,3.2,2,4.6
		c0.9,1.4,2.1,2.8,3.3,3.9l0.1,0.1C200,268,200.1,268.8,199.6,269.4"/>
	<path id="Fill-280" class="st23" d="M186.9,261.6c3.2,5.8,6.7,11.3,10.5,16.7c0.2,0.3,0.4,0.6,0.6,0.9l6-9
		c-4-4.1-8.1-8.2-12.2-12.3l0,0c-1-0.9-2.5-1.2-3.7-0.5C186.7,258.2,186.1,260.1,186.9,261.6"/>
	<path id="Fill-281" class="st23" d="M183.7,245.2c0.4,1.6,1.4,3.3,2.3,4.8c1,1.5,2,3.1,3.1,4.5c1.1,1.5,2.3,2.9,3.5,4.2
		c1.2,1.4,2.5,2.7,3.7,4.1l0,0c0.5,0.5,0.5,1.4,0,1.9c-0.5,0.5-1.4,0.5-1.9,0c0,0,0,0-0.1-0.1c-1.2-1.4-2.4-2.9-3.5-4.4
		c-1.1-1.5-2.2-3-3.3-4.6c-1.1-1.6-2-3.2-2.9-4.8c-0.9-1.7-1.7-3.3-2.1-5.4c-0.1-0.3,0.1-0.6,0.4-0.7c0.3-0.1,0.6,0.1,0.7,0.4
		L183.7,245.2z"/>
	<path id="Fill-282" class="st23" d="M182.1,246.8c0.5,1.7,1.5,3.4,2.5,5c1,1.6,2.1,3.2,3.2,4.7c1.1,1.5,2.4,3,3.6,4.4
		c1.3,1.4,2.5,2.9,3.9,4.2l0,0c0.5,0.5,0.5,1.4-0.1,1.9s-1.4,0.5-1.9-0.1c0,0,0,0-0.1-0.1c-1.3-1.5-2.5-3-3.7-4.5
		c-1.2-1.6-2.3-3.1-3.4-4.8c-1.1-1.6-2.1-3.3-3.1-5c-0.9-1.8-1.8-3.5-2.3-5.5c-0.1-0.4,0.1-0.7,0.5-0.8
		C181.6,246.2,182,246.4,182.1,246.8L182.1,246.8z"/>
	<path id="Fill-283" class="st23" d="M182,255.8c0.4,0.7,1,1.5,1.6,2.2c0.6,0.7,1.2,1.5,1.9,2.2c1.3,1.4,2.6,2.8,4,4.2
		c0.7,0.7,1.4,1.3,2.1,2.1c0.7,0.7,1.3,1.5,1.9,2.3c1.2,1.5,2.3,3.1,3.4,4.7l0,0c0.3,0.4,0.2,1.1-0.2,1.4c-0.4,0.3-1,0.2-1.4-0.2
		l-3.5-4.6c-1.1-1.6-2.4-2.9-3.7-4.4c-1.3-1.5-2.6-2.9-3.8-4.5c-0.6-0.8-1.2-1.5-1.8-2.3c-0.6-0.8-1.1-1.6-1.6-2.6
		c-0.1-0.2,0-0.5,0.3-0.6c0.2-0.1,0.5,0,0.6,0.2L182,255.8z"/>
	<path id="Fill-284" class="st23" d="M180.9,250.1c0.3,0.8,0.8,1.7,1.4,2.5c0.5,0.8,1.2,1.6,1.8,2.4c1.3,1.6,2.6,3.1,4,4.6
		c2.8,3,5.7,5.8,8.7,8.6c0.6,0.5,0.6,1.5,0.1,2.1c-0.5,0.6-1.5,0.6-2.1,0.1c0,0-0.1-0.1-0.1-0.1c-2.8-3-5.6-6.1-8.2-9.4
		c-1.3-1.6-2.5-3.3-3.7-5c-0.6-0.9-1.1-1.8-1.7-2.7c-0.5-0.9-1-1.8-1.3-3c-0.1-0.3,0.1-0.6,0.4-0.7c0.3-0.1,0.5,0.1,0.6,0.3
		L180.9,250.1z"/>
	<path id="Fill-285" class="st27" d="M245.3,263.6c-3.3,5.8-6.8,11.3-10.8,16.7c-2,2.7-4.1,5.3-6.5,8c-1.2,1.3-2.5,2.6-4.1,4
		c-0.9,0.7-1.7,1.4-3.3,2.3c-0.4,0.2-0.9,0.4-1.6,0.7c-0.3,0.1-0.8,0.2-1.1,0.3c-0.4,0.1-1,0.1-1.6,0.1c-0.5,0-1.1-0.1-1.5-0.2
		c-0.4-0.1-0.8-0.2-1.1-0.3c-0.6-0.2-1-0.4-1.5-0.6c-1.5-0.8-2.3-1.5-3.1-2.2c-0.8-0.7-1.5-1.3-2.1-2c-1.3-1.3-2.4-2.6-3.5-3.9
		c-1.9-2.4-3.7-4.7-5.4-7.1l6-9c0.5,0.5,0.9,0.9,1.4,1.4c2.3,2.2,4.5,4.5,6.8,6.6c1.1,1,2.3,2.1,3.3,2.9c0.1,0.1,0.1,0.1,0.2,0.2
		c0.6-0.6,1.2-1.4,1.8-2.1c1.9-2.2,3.7-4.8,5.5-7.3c3.7-5.1,7.3-10.3,11-15.4l0.1-0.1c1.5-2,3.8-2.9,6-2.7c0,0,1.5,0.2,2.6,1
		c1.3,0.8,2.2,2,2.2,2l0,0C246.4,258.8,246.5,261.4,245.3,263.6"/>
	<path id="Fill-286" class="st27" d="M252.8,248.2l-16.2,2.3c0.3-0.9,0.5-1.9,0.8-2.8l15.4-2.2C252.8,246.4,252.8,247.3,252.8,248.2
		"/>
	<path id="Fill-287" class="st25" d="M247.2,226.4c0,0-4.4,14.4,0.9,17.3c5.3,2.9,9.2,0.1,9.2-2.6s-3-4.6-1.4-7.3
		c1.6-2.7,2.4-5.3,2.4-5.3L247.2,226.4z"/>
	<path id="Fill-288" class="st25" d="M237.3,232.3c0.2,0,0.4-0.1,0.6-0.3c0.1-0.1,1.8-2.3,1.8-4.9c0-2.4-2-3.2-3.1-3.3
		c-0.4,0-0.8,0.3-0.8,0.7c0,0.4,0.3,0.8,0.7,0.8c0.3,0,1.7,0.2,1.7,1.8c0,2.1-1.5,3.9-1.5,4c-0.3,0.3-0.2,0.8,0.1,1
		C237,232.2,237.1,232.3,237.3,232.3"/>
	<path id="Fill-289" class="st17" d="M250.4,434.2l15.5-8.5c-0.1-0.1-6.2-11.2-12.2-23.6c-10.9-22.3-11.6-28.1-11.7-29
		c0.7-8.3,5.8-44,8.4-61l-17.3-1.3c-0.3,2-7.9,50.3-8.8,61c-0.4,4.4,0.9,12.3,13,37.2C243.8,422.1,250.2,433.7,250.4,434.2"/>
	<path id="Fill-290" class="st10" d="M213.2,459.8C213.2,459.8,213.3,459.8,213.2,459.8l40.1-3.5L237,428.9c-1.2-2.1-3.9-2.7-6-1.5
		c-2.1,1.2-2.7,3.9-1.5,6l9.2,15.5l-1.4,0.1c0,0,0,0,0,0c-2.7,0.4-9.8,1.5-13.3,2.3C218.8,452.5,212.9,454.6,213.2,459.8"/>
	<path id="Fill-291" class="st5" d="M217.4,419.1c-11.1-24.9-12.2-32.7-11.8-37c0.9-11,15.7-63.9,17.4-69.9l17.1,4.8
		c-6.1,21.9-16.1,59.3-16.8,66.5c0,0.8,0.5,6.5,10.7,29.2c5.6,12.5,11.2,23.7,11.3,23.8l-15.8,7.9
		C229.1,443.9,223.3,432.2,217.4,419.1L217.4,419.1z"/>
	<path id="Fill-292" class="st5" d="M250.7,308.4c0,0.1,0,0.2,0,0.3c0,1.2-0.1,2.5-0.2,3.9c-0.3,4.4-2.2,7.9-4.5,11.9
		c-0.1,0.1-0.1,0.2-0.2,0.3c-2.1,3.5-4.6,7.4-6.9,12.6c-3.6,8.1-6.7,12.7-13.9,36.6l3-29.1l-1.5-8.1l-0.1-0.7l-3.9-20.9
		c0.8-4.6,1.6-9.6,2.4-14.5l4.1,0.2l0.3,0l7.5,0.3l0.3,0l13.7,0.6C250.6,303.7,250.7,305.7,250.7,308.4"/>
	<polygon id="Path-2" class="st14" points="308.3,267.4 311.2,266.3 314.3,270.4 313.3,271.8 308.7,271.8 307.8,269.7 	"/>
</g>
</svg>
