<?xml version="1.0" encoding="utf-8"?>
<!-- Generator: Adobe Illustrator 23.0.1, SVG Export Plug-In . SVG Version: 6.00 Build 0)  -->
<svg version="1.1" id="Layer_1" xmlns="http://www.w3.org/2000/svg" xmlns:xlink="http://www.w3.org/1999/xlink" x="0px" y="0px"
	 viewBox="0 0 560 491" style="enable-background:new 0 0 560 491;" xml:space="preserve">
<style type="text/css">
	.st0{fill-rule:evenodd;clip-rule:evenodd;fill:#164B9F;}
	.st1{fill-rule:evenodd;clip-rule:evenodd;fill:#FA8DB5;}
	.st2{fill-rule:evenodd;clip-rule:evenodd;fill:#FFFFFF;}
	.st3{fill-rule:evenodd;clip-rule:evenodd;fill:#FCB3CD;}
</style>
<title>People working mural</title>
<desc>Created with Sketch.</desc>
<g id="hand">
	<path class="st0" d="M559,296.7c-39.5-55.9-98.3-122.6-97.9-147.5c0.1-4.2,0.5-8.5,1-12.2c0.6-1.5,1.1-2.9,1.5-4.2
		c0.3-0.8,0.5-1.6,0.8-2.4c0.2-0.8,0.5-1.5,0.7-2.3c0.3-1,0.6-2.1,0.9-3.1c0.1-0.6,0.3-1.2,0.5-1.8c0.1-0.5,0.3-1,0.4-1.5
		c0.3-1.1,0.6-2.2,0.9-3.4c0.3-1.6,0.7-3.2,1-4.8l0,0c0.6-2.8,1-5.6,1.4-8.3c0.1-0.5,0.1-1,0.2-1.4c0.4-2.5,0.6-5,0.7-7.4
		c0-0.6,0.1-1.3,0.1-1.9c0.1-1,0.1-2,0.2-3l0.1-1.3v-0.1c0-1.1,0-2.1,0-3.2l0-0.8c0-0.9,0-1.7,0-2.5c0-1.6,0-3.1-0.1-4.6
		c-0.2-2.1-0.3-3.9-0.4-5.4c-0.1-1.5-0.2-2.6-0.3-3.3c0-0.1,0-0.1,0-0.2c-0.1-0.8-0.1-1.1-0.1-1.1v0c-0.1-0.8-0.3-2.9-1.4-4.3
		c-1.2-1.5-3.1-2.3-4.9-1.9c-4.3,1-4.7,5-4.7,16.3c0,1.1,0,2.3-0.1,3.5c0,0.9,0,1.8-0.1,2.8c0,0.6,0,1.3-0.1,1.9c0,0.5,0,1.1,0,1.7
		c-0.1,1.2-0.2,2.5-0.4,3.8c-0.1,0.5-0.1,1.1-0.2,1.7c-0.2,2.1-0.4,4.3-0.8,6.4l0,0c-0.1,0.5-0.2,1.1-0.3,1.6
		c-0.4,2.2-0.7,4.5-1.3,6.7c0-4.4,0-8.9-0.2-13.4c-0.2-5.6-0.6-11.1-1-16.3c-0.5-5.3-1.1-10.7-1.9-16.2c-0.8-5.8-1.8-11-2.9-16.1
		c-0.5-2.6-1.2-5.3-1.9-8c-0.3-1.2-0.7-2.5-1.1-4c-0.2-0.7-0.4-1.3-0.6-2l-0.7-2.1l0,0c-0.9-2.6-3.7-4.1-6.3-3.4
		c-1.3,0.4-2.5,1.2-3.2,2.4c-0.7,1.2-0.9,2.6-0.5,4l0.5,1.9c0.2,0.6,0.3,1.2,0.4,1.8c0.3,1.4,0.6,2.6,0.8,3.8c0.5,2.6,1,5.2,1.4,7.6
		c0.8,4.9,1.4,9.9,1.9,15.5c0.5,5.3,0.8,10.5,1,15.6c0.2,5,0.2,10.2,0.2,15.6c0,1.6-0.1,3.3-0.1,4.9c-0.7-5.6-1.5-10.8-2.4-15.9
		c-0.9-5.2-1.9-10.3-3-15.1c-1.1-4.9-2.5-10-3.9-14.9c-1.6-5.2-3.2-10-5-14.6c-0.9-2.3-1.9-4.6-3-7.2c-0.6-1.2-1.1-2.4-1.7-3.6
		c-0.3-0.6-0.6-1.2-0.9-1.8c-0.1-0.3-0.3-0.5-0.4-0.8l-0.6-1.1l0,0c-1.3-2.2-4.1-3-6.4-1.9c-2.4,1.2-3.4,4.1-2.2,6.5l0.5,1
		c0.1,0.2,0.2,0.4,0.3,0.7c0.2,0.5,0.5,1.1,0.7,1.6c0.4,1,0.9,2.2,1.3,3.3c0.9,2.5,1.7,4.7,2.4,6.8c1.4,4.4,2.7,9.1,3.8,14.1
		c1.1,4.8,2,9.6,2.8,14.4c0.8,4.6,1.4,9.5,1.9,14.5c0.3,2.4,0.5,4.9,0.7,7.5c-0.9-3.4-1.7-6.7-2.7-9.7c-1.5-5.3-3-9.6-4.5-13.5
		c-1-2.7-2-4.8-3-6.8c-0.5-1.1-1.1-2.2-1.8-3.4c-0.8-1.3-1.5-2.4-2.3-3.5c-1.1-1.4-2.1-2.5-3.2-3.5c-0.3-0.2-0.6-0.5-0.9-0.7
		l-0.3-0.2c-0.4-0.3-0.9-0.6-1.3-0.8l-0.1,0c-0.2-0.1-0.5-0.2-0.7-0.4l-0.1,0c-0.2-0.1-0.5-0.2-0.8-0.3c-0.6-0.2-1.1-0.4-1.8-0.5
		l-0.4-0.1c-0.2,0-0.4-0.1-0.5-0.1l-0.9-0.1c-0.3,0-0.7,0-1,0l-0.1,0c-0.1,0-0.3,0-0.4,0c-0.7,0-1.5,0.1-2.2,0.2
		c-0.1,0-0.2,0-0.3,0.1c-0.3,0.1-0.7,0.1-1,0.2c-0.4,0.1-0.8,0.2-1.2,0.4c-0.3,0.1-0.6,0.2-0.9,0.4c-0.1,0-0.2,0.1-0.3,0.1l-0.6,0.3
		c-0.2,0.1-0.3,0.2-0.5,0.2c0,0-0.1,0.1-0.1,0.1l-1,0.6l-1,0.7c-0.4,0.2-0.7,0.5-1,0.8c-0.1,0.1-0.2,0.1-0.2,0.2
		c-0.2,0.2-0.4,0.3-0.6,0.6l-0.3,0.2c-0.4,0.4-0.9,0.9-1.3,1.3c-0.1,0.1-0.1,0.2-0.2,0.2c-0.2,0.2-0.3,0.4-0.5,0.6l-0.6,0.8
		c-1.5,1.9-2.7,4-4.1,6.8c-1,2.2-2,4.5-2.7,6.9c-0.4,1.2-0.7,2.3-1.1,3.5c-0.2,0.6-0.3,1.2-0.5,1.8l-0.4,1.8
		c-0.5,2.3,0.9,4.7,3.2,5.4c2.4,0.7,5-0.6,5.8-3.1l0.5-1.6c0.2-0.5,0.3-1,0.5-1.5c0.4-1,0.7-2,1.2-2.9c0.8-1.9,1.7-3.8,2.7-5.5
		c1.2-1.9,2.2-3.5,3.3-4.6l0.5-0.5c0.1-0.1,0.2-0.1,0.2-0.2c0.1-0.1,0.1-0.1,0.2-0.2c0.2-0.2,0.4-0.3,0.6-0.5
		c0.1-0.1,0.2-0.2,0.3-0.2c0.1-0.1,0.1-0.1,0.2-0.1c0.1-0.1,0.2-0.1,0.2-0.2c0.1-0.1,0.2-0.2,0.3-0.2l0.5-0.3
		c0.1-0.1,0.3-0.1,0.4-0.2c0.6-0.2,1-0.3,1.4-0.4l0.2,0c0,0,0.2,0,0.3,0c0.1,0,0.2,0,0.4,0c0,0,0.1,0,0.1,0c0,0,0.1,0,0.1,0
		c0,0,0.1,0,0.1,0.1l0,0c0,0.1,0.1,0.1,0.1,0.1c0,0,0,0,0.1,0.1l0,0c0.2,0.2,0.7,0.8,1.2,1.6c0.4,0.7,0.8,1.5,1.3,2.3
		c0.5,1,0.8,1.9,1.2,2.7c0.7,1.7,1.3,3.6,2,5.9c1.1,3.7,2.1,7.7,3.1,12.6c0.8,4,1.6,8.3,2.3,13.1c0.7,4.2,1.3,8.7,1.8,13.2
		c0.3,2.2,0.5,4.4,0.7,6.6l0.1,0.8c-0.8,7.7-3.1,12.7-6.7,16c-2.1,1.9-4.8,2.7-7.7,2.4c-0.4-0.2-0.9-0.4-1.3-0.6
		c-2.2-1.2-4.2-2.6-5.8-4.3c-0.8-0.8-1.6-1.8-2.3-2.8c-0.7-1.1-1.4-2.2-1.9-3.3c-0.6-1.3-1.1-2.5-1.5-3.7l0-0.1
		c-0.1-0.4-0.3-0.8-0.4-1.2c-0.1-0.2-0.1-0.5-0.2-0.7l-0.3-1c-0.1-0.3-0.2-0.6-0.2-0.9l0-0.1c-0.6-2.7-1-5.7-1.1-8.8
		c-0.1-2.9-0.1-6,0.2-9.3l0-0.1c0.3-3.9-2.6-7.5-6.5-8.1c-2-0.3-4.1,0.2-5.7,1.4c-1.7,1.2-2.7,3-3.1,5c-0.6,3.9-1,7.6-1.1,11.2
		c-0.1,4,0,7.9,0.5,11.6c0.1,0.6,0.2,1.1,0.2,1.5l0.2,1.4l0,0.1c0.1,0.3,0.1,0.5,0.2,0.8c0.1,0.7,0.3,1.4,0.5,2.1
		c0.5,1.9,1.1,3.9,1.9,5.9c1.6,4.1,3.8,7.8,6.6,11.2c0.8,0.9,1.6,1.8,2.4,2.7c2.4,2.8,6.2,7.2,9.6,11.8
		c18.6,25.8,52.2,90.3,70.6,127.2c16.6,33.1,97.3,200.6,97.3,200.6L559,296.7z"/>
	<polygon id="Fill-29" class="st1" points="312.3,70.4 312.4,70.5 480.9,134.8 501,142.5 505,131.9 485,124.3 316.5,59.9 	"/>
	<polygon id="Fill-31" class="st2" points="510.8,134 506.8,144.6 486.7,136.9 475.5,132.7 479.5,122.1 490.8,126.4 	"/>
	<polygon id="Fill-33" class="st1" points="512,134.5 508,145.1 505.8,144.2 509.8,133.6 	"/>
	<polygon id="Fill-35" class="st1" points="316.7,61.7 313.7,69.4 306.8,66.8 306.7,66.7 309.8,59 	"/>
	<polygon id="Fill-37" class="st1" points="310.8,60.6 308.7,66.1 303.9,64.2 303.8,64.1 305.9,58.8 	"/>
	<path id="Fill-39" class="st3" d="M305.3,60.4l-0.9,2.2c0,0,0,0,0,0l-3.6-1.8c-1.5-0.7-1-1.6,0.6-1.2L305.3,60.4z"/>
	<path id="Fill-206" class="st1" d="M381,105.7c-0.5,3.3-2.9,5.6-5.3,5.3c-2.4-0.4-3.9-3.3-3.4-6.6c0.5-3.3,2.9-5.6,5.3-5.3
		C380,99.5,381.5,102.4,381,105.7"/>
	<path id="Fill-207" class="st1" d="M420.8,26.9c1,2,1.1,4.8-0.3,5.5c-1.4,0.7-3.8-0.8-4.8-2.8c-1-2-0.3-3.6,1.1-4.3
		C418.2,24.5,419.8,24.9,420.8,26.9"/>
	<path id="Fill-208" class="st1" d="M445.2,32c0.6,2.1-0.1,4.8-1.6,5.2c-1.6,0.4-3.5-1.6-4-3.7c-0.6-2.1,0.5-3.6,2-4
		C443.1,29,444.6,29.9,445.2,32"/>
	<path id="Fill-209" class="st1" d="M468.8,68.4c0.1,2.1-1,4.2-2.5,4.3c-1.5,0.1-2.9-1.9-3-4c-0.1-2.1,1.1-3.5,2.6-3.6
		C467.4,65.1,468.7,66.3,468.8,68.4"/>
	<polygon id="Fill-217" class="st1" points="505.1,138.8 479.5,129.2 480,127.9 505.5,137.6 	"/>
	<polygon id="Fill-217_1_" class="st1" points="506.4,135.3 480.9,125.7 481.4,124.4 506.9,134.1 	"/>
	<polygon id="Fill-218" class="st1" points="503.5,142.1 478,132.5 478.5,131.2 504,140.9 	"/>
</g>
</svg>
