<svg xmlns="http://www.w3.org/2000/svg" width="692" height="686" viewBox="0 0 692 686">
    <g fill="none" fill-rule="evenodd">
        <path fill="#FFF" d="M425.223 0v39.342H394.9v154.635h1.083V40.434h30.322V1.093h86.635v50.27h20.576v156.499h1.084V50.269h-20.577V0z"/>
        <path fill="#164B9F" d="M480.926 154.501c.133.422.267.844.375 1.255.284 1.002.536 1.975.764 2.936.914 3.966 1.271 7.418 1.153 10.408-.052 1.882-.31 3.592-.72 5.112a19.95 19.95 0 0 1-.544 1.651c-.184.456-.372.892-.575 1.294-1.165 2.368-2.841 4.124-4.863 5.33-.664.425-1.38.767-2.115 1.055-4.312 1.67-9.716 1.362-15.089-.553-8.081-2.875-15.165-3.585-18.58-14.235-1.134-3.572-6.996 1.073-9.963-.004-3.51-1.275-3.46-22.479-3.46-22.479 5.993 8.387 16.055 10.699 21.698 5.546 8.63-7.879 10.319-23.892 3.538-61.614l4.729-19.121s11.513 20.003 15.934 62.483c.618 5.942 1.881 7.302 2.039 8.252 1.348 8.122 3.563 5.819 5.679 12.684"/>
        <path fill="#164B9F" d="M516.24 76.011s.037.461.101 1.346a.18.18 0 0 1 .01.08c.057.866.148 2.134.287 3.734.128 1.624.285 3.632.453 5.924.134 2.287.055 4.857.083 7.69.003 1.41.004 2.864.014 4.396-.103 1.5-.217 3.068-.32 4.67-.24 3.202-.376 6.608-.948 10.042-.48 3.454-.91 7.052-1.708 10.586-.366 1.783-.732 3.568-1.108 5.376-.401 1.78-.912 3.545-1.372 5.307-.496 1.759-.886 3.574-1.45 5.28-.56 1.725-1.124 3.431-1.675 5.13a70.674 70.674 0 0 1-1.76 4.982c-.631 1.612-1.232 3.21-1.841 4.79-1.334 3.068-2.564 6.09-3.908 8.829-1.323 2.751-2.6 5.336-3.889 7.637-1.22 2.351-2.487 4.413-3.553 6.26-1.145 1.82-2.11 3.415-2.99 4.701-.43.65-.82 1.218-1.146 1.717-.386.526-.702.957-.955 1.32-.495.658-.75 1.02-.75 1.02-2.31 3.13-6.38 3.329-9.098.473-2.723-2.875-3.051-7.734-.757-10.857.047-.063.085-.1.118-.157l.148-.169s.235-.314.667-.859c.203-.257.455-.577.738-.953.3-.425.648-.913 1.05-1.445.781-1.077 1.705-2.486 2.762-4.06 1.005-1.632 2.205-3.436 3.38-5.518 1.238-2.05 2.455-4.358 3.739-6.822 1.312-2.434 2.48-5.137 3.802-7.888.583-1.403 1.184-2.855 1.784-4.308.637-1.447 1.232-2.918 1.744-4.476.562-1.518 1.096-3.065 1.665-4.607.57-1.542.962-3.151 1.463-4.745.45-1.593.97-3.176 1.385-4.773.386-1.626.762-3.228 1.134-4.848.833-3.176 1.3-6.418 1.832-9.521.62-3.101.821-6.162 1.116-9.056.137-1.453.271-2.862.402-4.23.045-1.37.067-2.709.113-3.975.034-2.55.137-4.904.13-6.975-.047-12.988.597-15.699 4.006-16.494 1.434-.336 2.998.357 3.876 1.505.731.956 1.115 2.62 1.225 3.941"/>
        <path fill="#164B9F" d="M479.234 177.17a2.189 2.189 0 0 1-.102.13c-1.9 2.587-1.613 6.625.64 9.005 1.03 1.082 2.313 1.634 3.617 1.553 1.253-.077 2.406-.744 3.248-1.877.056-.08.31-.437.751-1.024.252-.359.561-.784.938-1.296.175-.267.367-.553.574-.86l.555-.83c.639-.933 1.308-2.007 2.082-3.25.28-.449.571-.916.874-1.398.27-.469.554-.952.847-1.45.87-1.481 1.772-3.014 2.661-4.73l.022-.042c1.323-2.358 2.63-5.024 3.847-7.555.977-1.993 1.883-4.111 2.843-6.354.339-.793.681-1.593 1.03-2.397.208-.539.415-1.081.622-1.624.399-1.042.8-2.09 1.212-3.145a70.023 70.023 0 0 0 1.724-4.882c.29-.894.578-1.773.867-2.655.27-.827.543-1.658.814-2.493.341-1.033.614-2.094.9-3.216.17-.66.345-1.34.534-2.01.136-.524.285-1.076.433-1.629.32-1.183.65-2.407.92-3.605.367-1.766.73-3.532 1.093-5.298l.01-.05c.665-2.951 1.073-5.961 1.47-8.873a307.7 307.7 0 0 1 .221-1.622l.005-.04c.44-2.631.617-5.273.789-7.828.047-.702.094-1.396.146-2.082.07-1.096.145-2.191.22-3.259l.095-1.35c-.008-1.188-.01-2.332-.014-3.444l-.002-.902c-.009-.955-.006-1.892-.003-2.798.005-1.719.01-3.343-.076-4.81-.167-2.268-.323-4.273-.452-5.895-.135-1.57-.225-2.819-.28-3.623l-.003-.012-.014-.189c-.062-.87-.1-1.325-.1-1.325-.11-1.322-.485-2.601-.933-3.187-.576-.753-1.583-1.162-2.39-.973-2.131.498-2.932 1.927-2.886 15.079.005 1.234-.029 2.557-.064 3.957-.025.976-.051 1.992-.066 3.042-.025.707-.041 1.402-.06 2.111-.015.621-.031 1.253-.052 1.892l-.005.091c-.132 1.366-.267 2.775-.403 4.226-.061.607-.117 1.208-.175 1.817-.224 2.38-.455 4.842-.958 7.367-.099.576-.196 1.157-.292 1.741-.427 2.57-.868 5.227-1.558 7.862a597.45 597.45 0 0 1-1.133 4.838 76.986 76.986 0 0 1-.844 2.948c-.19.628-.378 1.255-.556 1.883l-.011.04a72.02 72.02 0 0 0-.507 1.706c-.294 1.021-.598 2.075-.979 3.108-.282.764-.556 1.53-.828 2.292-.275.768-.547 1.533-.827 2.29-.47 1.424-1.038 2.88-1.787 4.582l-.12.291c-.556 1.346-1.112 2.69-1.653 3.99l-.032.071c-.434.904-.852 1.803-1.264 2.69-.859 1.846-1.67 3.59-2.568 5.258-1.315 2.522-2.513 4.795-3.763 6.865-.828 1.466-1.68 2.816-2.432 4.006-.336.532-.66 1.044-.964 1.54l-.032.049-.7 1.045c-.79 1.183-1.473 2.205-2.093 3.058-.398.527-.734.998-1.04 1.43l-.026.036c-.29.386-.549.716-.758.98-.412.522-.64.824-.646.832l-.153.181zm3.897 13.597c-2.018 0-3.944-.867-5.467-2.468-3.227-3.407-3.61-8.99-.875-12.713l.068-.088.034-.057.207-.237c.079-.106.305-.4.655-.843.195-.247.434-.552.704-.91.316-.447.663-.933 1.063-1.463.571-.787 1.24-1.787 2.014-2.945l.687-1.024c.306-.499.632-1.013.968-1.547.773-1.223 1.572-2.49 2.368-3.9l.022-.038c1.21-2.004 2.389-4.239 3.695-6.742.866-1.61 1.66-3.317 2.5-5.124.411-.885.83-1.784 1.263-2.687.536-1.288 1.085-2.616 1.636-3.949l.133-.32c.727-1.654 1.265-3.035 1.707-4.376l.017-.05c.28-.754.552-1.518.825-2.283.276-.773.554-1.549.839-2.323.344-.932.621-1.891.914-2.906.168-.582.337-1.167.52-1.75.18-.639.371-1.274.563-1.91.278-.925.566-1.88.807-2.812.378-1.595.755-3.193 1.125-4.81l.011-.044c.659-2.512 1.09-5.11 1.508-7.623.099-.595.197-1.187.298-1.774l.007-.039c.475-2.386.701-4.78.919-7.092.057-.616.114-1.226.176-1.827.134-1.427.267-2.822.397-4.176.02-.615.035-1.225.05-1.823.019-.721.036-1.427.061-2.113.014-1.028.04-2.055.065-3.043.035-1.38.068-2.68.063-3.873-.043-12.372.367-16.8 5.129-17.912 1.93-.453 4.085.368 5.36 2.037 1.142 1.492 1.443 3.785 1.52 4.7v.002s.035.43.096 1.262c.012.079.02.158.02.24.052.788.144 2.047.281 3.653.13 1.636.288 3.646.456 5.942.092 1.578.087 3.245.081 5.01-.002.894-.005 1.817.004 2.772l.002.912c.004 1.126.006 2.282.014 3.487v.055l-.1 1.461c-.076 1.062-.152 2.151-.223 3.258-.052.693-.097 1.38-.144 2.075-.176 2.618-.358 5.325-.818 8.092-.074.527-.146 1.059-.219 1.594-.403 2.972-.82 6.046-1.507 9.092l-.004.024c-.364 1.767-.727 3.536-1.1 5.329-.288 1.28-.627 2.533-.953 3.745-.147.544-.294 1.089-.435 1.633-.188.665-.358 1.33-.523 1.971-.287 1.12-.584 2.279-.955 3.397-.268.83-.54 1.663-.813 2.494-.288.879-.575 1.754-.858 2.628a71.654 71.654 0 0 1-1.788 5.064c-.41 1.047-.808 2.088-1.203 3.122-.213.556-.424 1.11-.636 1.66l-.024.058c-.35.807-.695 1.612-1.035 2.409-.975 2.277-1.895 4.43-2.901 6.48-1.229 2.556-2.557 5.262-3.914 7.685-.921 1.776-1.88 3.406-2.725 4.845-.293.499-.577.983-.849 1.453l-.029.047c-.306.487-.6.958-.881 1.412-.793 1.27-1.477 2.37-2.14 3.336-.185.28-.373.56-.55.826-.209.31-.403.599-.578.866l-.045.065c-.379.514-.687.937-.936 1.292l-.03.042c-.467.619-.71.966-.719.978l-.02.03c-1.361 1.844-3.284 2.932-5.416 3.065a6.91 6.91 0 0 1-.44.014z"/>
        <path fill="#164B9F" d="M693 687.4S526.36 354.756 508.144 318.391c-20.335-40.595-57.2-111.58-77.707-139.91-4.733-6.536-10.552-12.823-12.347-15.224l18.426 4.6 2.772-.388h.063l20.767-3.112 2.82-.768 6.468-1.614 10.187-1.838.882-.21.127-.004.706.549 1.068-.154 2.957-.513.066-.003 4.9-3.532.437-.2 2.292-1.697.12-2.84 4.63-1.631 6.886-2.445.13-.004 5.981-9.19c-.473 1.27-3.349 13.961-3.56 25.821-.486 27.331 142.38 222.507 185.785 284.03V687.4z"/>
        <path fill="#164B9F" d="M508.31 130.554c-3.107 11.638-8.828 34.743-.592 71.816l-19.62-42.334 17.01-28.857 3.202-.625zM467.806 178.983c-.313.037-.414.043-.598.06l-.466.036-.879.052c-.571.027-1.133.048-1.686.058a69.112 69.112 0 0 1-3.283-.013 73.488 73.488 0 0 1-6.472-.466c-4.295-.505-8.581-1.384-12.799-2.759-4.212-1.37-8.359-3.244-12.214-5.73-3.855-2.476-7.39-5.581-10.318-9.157a44.48 44.48 0 0 1-6.842-11.74 48.782 48.782 0 0 1-2.015-6.27c-.288-1.05-.478-2.106-.707-3.157l-.27-1.577a27.524 27.524 0 0 1-.238-1.574c-.566-4.194-.715-8.342-.574-12.412.15-4.068.58-8.06 1.197-11.981a6.083 6.083 0 0 1 6.955-5.056 6.076 6.076 0 0 1 5.125 6.427l-.005.064c-.265 3.547-.35 7.07-.194 10.523.163 3.45.578 6.826 1.286 10.044.079.406.179.803.283 1.197l.304 1.184c.243.769.443 1.556.723 2.3a33.966 33.966 0 0 0 1.801 4.335 28.556 28.556 0 0 0 2.308 3.9 27.865 27.865 0 0 0 2.797 3.405 28.081 28.081 0 0 0 6.992 5.201c2.609 1.383 5.478 2.415 8.501 3.126 3.022.715 6.198 1.104 9.41 1.212 1.606.053 3.222.039 4.818-.052a47.723 47.723 0 0 0 3.496-.322l.528-.077.236-.04c.05-.01.182-.031.103-.026 5.334-.743 10.263 2.972 11.008 8.297.745 5.324-2.977 10.244-8.311 10.988"/>
        <path fill="#164B9F" d="M464.427 157.447l.34 2.3.237-.032-.461-2.3c-.039.01-.077.02-.116.032zm-.472.207l.284 2.163.528-.07-.385-2.286c-.146.048-.29.114-.427.193zm-.033.02c-.717.435-1.267 1.297-1.128 2.336l1.444-.193-.316-2.143zm-52.078-18.226c.064.294.125.587.187.882.15.733.294 1.425.48 2.1l.017.066c.463 1.9 1.11 3.908 1.919 5.968a41.86 41.86 0 0 0 6.478 11.117c2.695 3.294 6.072 6.29 9.76 8.66 3.48 2.242 7.405 4.082 11.67 5.47 3.845 1.254 7.996 2.148 12.343 2.658 2.104.244 4.21.397 6.26.452 1.098.03 2.135.034 3.17.013a54.06 54.06 0 0 0 1.623-.057l1.37-.092c.1-.008.194-.017.38-.038a7.352 7.352 0 0 0 4.857-2.86 7.325 7.325 0 0 0 1.421-5.467 7.328 7.328 0 0 0-2.867-4.869 7.357 7.357 0 0 0-5.341-1.437l-.093.02-.365.06-.564.084c-.391.05-.793.101-1.205.142-.78.082-1.614.147-2.467.195a56.37 56.37 0 0 1-5.025.055c-3.479-.117-6.801-.546-9.878-1.274-3.3-.777-6.351-1.9-9.064-3.338a30.508 30.508 0 0 1-7.576-5.638 30.271 30.271 0 0 1-3.04-3.7 31.066 31.066 0 0 1-2.497-4.22 36.264 36.264 0 0 1-1.906-4.583c-.205-.551-.364-1.093-.519-1.618-.074-.251-.148-.504-.227-.754l-.036-.124-.304-1.186a20.335 20.335 0 0 1-.307-1.302c-.71-3.238-1.159-6.74-1.333-10.411-.152-3.382-.085-7.016.198-10.809l.006-.076c.135-1.889-1.242-3.616-3.138-3.913a3.703 3.703 0 0 0-2.77.668 3.693 3.693 0 0 0-1.487 2.427c-.649 4.122-1.032 7.95-1.17 11.703-.147 4.228.035 8.158.554 12.01l.006.044c.058.505.142 1.01.217 1.439l.263 1.533zm50.983 42.111a76.412 76.412 0 0 1-8.678-.509c-4.66-.548-9.119-1.51-13.259-2.859-4.65-1.514-8.944-3.53-12.762-5.99-4.156-2.67-7.812-5.916-10.865-9.647a46.54 46.54 0 0 1-7.213-12.371 51.5 51.5 0 0 1-2.101-6.54 39.155 39.155 0 0 1-.541-2.36c-.062-.294-.123-.59-.188-.884l-.02-.105-.27-1.577a29.61 29.61 0 0 1-.253-1.678c-.545-4.054-.745-8.355-.59-12.785.145-3.948.545-7.958 1.224-12.266a8.375 8.375 0 0 1 3.37-5.505 8.404 8.404 0 0 1 6.283-1.514c4.299.675 7.424 4.593 7.112 8.922l-.006.084c-.268 3.595-.333 7.041-.19 10.23.162 3.41.577 6.657 1.235 9.644l.011.058c.069.353.16.709.248 1.042l.293 1.142c.08.258.158.518.235.779.14.479.274.931.427 1.339l.03.087c.426 1.285.975 2.605 1.68 4.037a26.443 26.443 0 0 0 2.123 3.588 25.717 25.717 0 0 0 2.56 3.118 25.788 25.788 0 0 0 6.401 4.756c2.357 1.25 5.027 2.23 7.936 2.915 2.777.657 5.787 1.044 8.95 1.151 1.566.051 3.116.034 4.603-.05.78-.043 1.536-.104 2.25-.178.369-.037.715-.08 1.055-.125l.705-.109-.02.004.012-.002.39 2.314.031-.004-.253-2.346a12.4 12.4 0 0 1 1.474-.117l.905-.068.012.086c2.37.135 4.646.965 6.584 2.424a12.004 12.004 0 0 1 4.698 7.979c.447 3.199-.38 6.38-2.33 8.958a12.039 12.039 0 0 1-7.993 4.69l-.046.005c-.281.034-.415.045-.561.058l-.642.05-.88.052c-.713.035-1.27.053-1.784.063-.462.009-.924.014-1.392.014z"/>
        <path fill="#164B9F" d="M458.424 140.44c-.091-1.144-.209-2.397-.324-3.604l-.37-3.66a472.617 472.617 0 0 0-.827-7.33 440.362 440.362 0 0 0-2.004-14.609 310.138 310.138 0 0 0-2.566-14.438c-.975-4.763-2.075-9.484-3.42-14.029-.677-2.266-1.406-4.502-2.238-6.615a50.817 50.817 0 0 0-1.313-3.067 30.73 30.73 0 0 0-1.466-2.721c-.506-.829-1.044-1.53-1.505-2.02-.116-.133-.217-.204-.32-.32-.097-.085-.177-.141-.256-.222-.13-.08-.213-.168-.195-.168l.004-.014c.003-.006.014-.017-.049-.02l-.262-.036c-.175-.023-.352-.069-.526-.088-.34.012-.691-.062-1.027 0-.687.02-1.378.22-2.105.513-.181.083-.363.16-.55.24l-.55.316c-.188.093-.371.225-.556.356-.184.132-.374.245-.558.391-.362.306-.742.58-1.097.938-.18.173-.368.327-.543.516l-.529.559c-1.41 1.52-2.68 3.372-3.84 5.327a55.115 55.115 0 0 0-3.101 6.25 65.089 65.089 0 0 0-1.882 4.975l-.27.834-.241.788-.056.182a3.643 3.643 0 0 1-4.548 2.412 3.65 3.65 0 0 1-2.496-4.237l.222-1.029.226-.973c.157-.643.32-1.282.492-1.917.343-1.272.72-2.533 1.134-3.789a63.378 63.378 0 0 1 2.955-7.457c1.19-2.45 2.548-4.886 4.345-7.21l.691-.864c.23-.29.497-.565.745-.848.487-.57 1.064-1.104 1.621-1.644.284-.268.606-.52.91-.777.306-.258.615-.513.962-.745l1.021-.707 1.111-.635c.19-.101.368-.214.568-.303l.602-.268c.408-.17.797-.366 1.225-.5.428-.136.858-.27 1.289-.397.43-.135.885-.191 1.33-.282.893-.197 1.803-.21 2.712-.262.45-.001.895.034 1.344.058l.673.045c.094.003.257.03.413.059l.462.087c.633.11 1.186.302 1.747.505.29.097.532.217.784.336.25.12.5.244.747.37.442.264.895.539 1.3.825.376.285.786.58 1.124.877 1.388 1.196 2.451 2.436 3.369 3.661a41.526 41.526 0 0 1 2.424 3.684 62.438 62.438 0 0 1 1.961 3.677c1.21 2.45 2.24 4.9 3.202 7.353 1.912 4.907 3.496 9.827 4.946 14.758 1.445 4.931 2.738 9.874 3.938 14.828 1.2 4.955 2.303 9.92 3.333 14.897.514 2.49 1.009 4.982 1.486 7.482l.7 3.758c.229 1.268.45 2.49.67 3.825l.003.019c.783 4.717-2.415 9.174-7.14 9.954-4.726.781-9.19-2.41-9.972-7.127a9.643 9.643 0 0 1-.089-.723"/>
        <path fill="#164B9F" d="M459.872 140.324c.018.203.044.417.074.601.65 3.922 4.372 6.584 8.302 5.935a7.173 7.173 0 0 0 4.692-2.915 7.153 7.153 0 0 0 1.253-5.372c-.22-1.325-.434-2.515-.67-3.823l-.699-3.75c-.473-2.48-.972-4.99-1.481-7.455a453.539 453.539 0 0 0-3.322-14.85c-1.3-5.361-2.581-10.191-3.92-14.761-1.676-5.698-3.234-10.35-4.906-14.64-1.117-2.847-2.119-5.149-3.151-7.237a60.668 60.668 0 0 0-1.919-3.597 39.553 39.553 0 0 0-2.33-3.54c-1.024-1.369-2.027-2.46-3.152-3.428-.232-.205-.516-.418-.79-.624l-.24-.179c-.35-.246-.758-.494-1.149-.727a26.76 26.76 0 0 0-.67-.332l-.066-.033c-.2-.094-.372-.176-.553-.237-.55-.199-1.02-.362-1.535-.451l-.48-.09c-.064-.012-.14-.026-.201-.034l-.043-.003-.994-.064c-.308-.019-.6-.036-.881-.037l-.461.024c-.702.037-1.366.07-1.98.205-.17.034-.317.061-.465.087a6.41 6.41 0 0 0-.74.161c-.446.133-.865.262-1.28.396-.232.071-.464.174-.71.282-.128.057-.258.115-.388.169l-.584.26c-.089.039-.172.089-.256.136-.067.038-.132.075-.199.111l-1.04.594-.97.672c-.303.203-.565.42-.854.662-.093.08-.194.162-.295.245-.2.167-.39.324-.553.477l-.271.262c-.454.437-.883.85-1.242 1.27l-.278.31c-.16.174-.31.34-.434.497l-.692.867c-1.49 1.925-2.78 4.07-4.176 6.938a62.432 62.432 0 0 0-2.88 7.274 71.651 71.651 0 0 0-1.596 5.599l-.438 1.964a2.206 2.206 0 0 0 1.5 2.546 2.193 2.193 0 0 0 2.734-1.448l.574-1.826a66.954 66.954 0 0 1 1.927-5.098 56.448 56.448 0 0 1 3.181-6.408c1.38-2.325 2.697-4.147 4.031-5.586l.54-.57c.14-.152.285-.284.413-.4.058-.053.116-.105.172-.16.285-.286.59-.533.861-.75.105-.085.21-.169.311-.255.172-.138.32-.239.468-.338.058-.038.116-.077.173-.118.221-.158.45-.321.72-.46l.677-.376c.171-.072.339-.145.505-.221l.066-.028c.952-.383 1.751-.578 2.506-.613.334-.046.634-.027.86-.014.085.005.17.012.254.01l.108-.004.106.012c.13.014.261.037.394.062.054.01.108.022.162.03l.24.033c.482.05.791.286.974.493l.016.01.157.154c.047.038.096.078.148.125l.118.118c.015.016.033.03.05.046.083.078.169.159.26.262.562.6 1.155 1.395 1.671 2.242.503.817 1.006 1.75 1.534 2.847a51.91 51.91 0 0 1 1.361 3.175c.752 1.91 1.477 4.05 2.273 6.722 1.225 4.138 2.323 8.635 3.453 14.152.916 4.49 1.76 9.236 2.577 14.507.723 4.661 1.4 9.593 2.01 14.656.295 2.435.575 4.909.83 7.352l.371 3.668c.115 1.202.234 2.47.327 3.632zm7.192 9.533c-4.862 0-9.165-3.516-9.984-8.457-.043-.264-.08-.555-.103-.84v-.005c-.092-1.142-.21-2.396-.323-3.58l-.369-3.655a479.012 479.012 0 0 0-.824-7.301 439.43 439.43 0 0 0-1.997-14.56c-.811-5.224-1.647-9.925-2.554-14.37-1.112-5.434-2.19-9.853-3.39-13.907-.773-2.589-1.471-4.654-2.196-6.495a48.728 48.728 0 0 0-1.281-2.99 29.52 29.52 0 0 0-1.385-2.572c-.57-.934-1.075-1.52-1.326-1.785l-.034-.039c-.024-.027-.047-.045-.069-.065-.055-.052-.109-.102-.162-.158l-.026-.02-.096-.08-.148-.029-.1-.019c-.146 0-.28-.008-.399-.016-.098-.005-.231-.015-.279-.008l-.22.022c-.422.013-.922.139-1.57.396-.158.072-.315.14-.475.208l-.558.318c-.079.038-.22.139-.344.227-.087.063-.177.124-.267.184-.078.052-.157.103-.234.164-.092.079-.213.177-.335.274-.232.187-.451.364-.64.555-.098.095-.179.168-.26.242-.084.077-.17.151-.25.239l-.54.569c-1.181 1.275-2.378 2.937-3.644 5.07a53.825 53.825 0 0 0-3.013 6.072 63.835 63.835 0 0 0-1.842 4.873l-.556 1.77a5.101 5.101 0 0 1-6.363 3.374c-2.498-.764-4.032-3.366-3.49-5.924l.453-2.03a77.245 77.245 0 0 1 1.662-5.831 65.066 65.066 0 0 1 3.02-7.622c1.492-3.07 2.881-5.372 4.51-7.477l.703-.882c.182-.229.372-.438.556-.64.079-.087.157-.174.234-.262.438-.512.94-.994 1.423-1.459l.278-.269c.246-.23.481-.426.709-.614.09-.076.182-.15.271-.226.348-.293.69-.573 1.096-.846l1.107-.76 1.148-.655c.053-.028.105-.057.156-.087.145-.081.307-.174.504-.262l.638-.283c.116-.048.23-.098.344-.15.295-.13.631-.279 1.01-.395a54.58 54.58 0 0 1 1.305-.403 8.67 8.67 0 0 1 1.078-.243c.125-.022.249-.044.372-.07.83-.182 1.647-.224 2.438-.263l.481-.026.082-.002c.375-.004.747.02 1.099.041l.994.065c.187.008.382.04.597.078l.473.09c.728.126 1.35.34 1.974.567.315.105.598.24.848.36l.066.03c.266.128.528.258.788.392l.076.043c.46.273.948.569 1.396.883l.291.218c.32.241.651.49.957.76 1.275 1.098 2.413 2.333 3.57 3.879a42.26 42.26 0 0 1 2.512 3.815 63.19 63.19 0 0 1 2.016 3.778c1.066 2.157 2.1 4.53 3.248 7.46 1.703 4.371 3.288 9.097 4.987 14.878 1.353 4.615 2.646 9.487 3.957 14.896 1.15 4.75 2.275 9.777 3.342 14.944.513 2.48 1.015 5.004 1.491 7.504l.702 3.764c.24 1.327.455 2.528.675 3.854a10.038 10.038 0 0 1-1.753 7.552 10.06 10.06 0 0 1-6.58 4.087c-.557.093-1.11.137-1.658.137z"/>
        <path fill="#164B9F" d="M462.147 29.29l.32.545.28.496c.18.325.364.652.531.972a77.76 77.76 0 0 1 1.002 1.93 109.427 109.427 0 0 1 1.851 3.873 147.916 147.916 0 0 1 3.302 7.839c2.057 5.267 3.858 10.608 5.47 15.999a267.309 267.309 0 0 1 4.32 16.303 301.505 301.505 0 0 1 3.31 16.518c1.905 11.052 3.292 22.143 4.403 33.228 1.096 11.087 1.93 22.173 2.604 33.25.274 4.534-3.184 8.432-7.727 8.707-4.542.275-8.447-3.178-8.722-7.711a8.418 8.418 0 0 1-.014-.536c.048-10.937-.065-21.859-.429-32.749-.38-10.887-1.028-21.74-2.17-32.502a288.307 288.307 0 0 0-2.143-16.063 256.16 256.16 0 0 0-3.12-15.882c-1.205-5.255-2.593-10.465-4.216-15.58-.8-2.562-1.69-5.086-2.626-7.58a105.182 105.182 0 0 0-1.477-3.688 66.046 66.046 0 0 0-.787-1.794c-.132-.299-.268-.582-.404-.87l-.201-.417-.177-.36-.106-.217a3.922 3.922 0 0 1 1.795-5.254c1.86-.913 4.098-.212 5.131 1.543"/>
        <path fill="#164B9F" d="M458.739 28.797a2.467 2.467 0 0 0-2.336 1.673 2.453 2.453 0 0 0 .121 1.892l.555 1.142c.12.254.241.509.359.776.27.589.543 1.22.795 1.811a104.722 104.722 0 0 1 1.498 3.743 140.662 140.662 0 0 1 2.654 7.663c1.546 4.87 2.975 10.15 4.247 15.685a258.777 258.777 0 0 1 3.136 15.973c.833 5.1 1.559 10.532 2.155 16.143 1.041 9.816 1.753 20.482 2.177 32.606.34 10.202.481 20.932.428 32.805a6.729 6.729 0 0 0 2.287 5.103 6.744 6.744 0 0 0 4.91 1.69 6.746 6.746 0 0 0 4.67-2.27 6.724 6.724 0 0 0 1.694-4.9c-.73-12.027-1.58-22.886-2.598-33.196-1.236-12.326-2.672-23.162-4.39-33.125a300.398 300.398 0 0 0-3.294-16.439 266.613 266.613 0 0 0-4.295-16.214c-1.704-5.692-3.48-10.89-5.433-15.887a146.84 146.84 0 0 0-3.271-7.769c-.6-1.316-1.214-2.602-1.826-3.819a78.201 78.201 0 0 0-.981-1.891c-.153-.292-.308-.57-.463-.849l-.642-1.118a2.505 2.505 0 0 0-2.157-1.228m22.563 141.618a9.632 9.632 0 0 1-6.413-2.432 9.6 9.6 0 0 1-3.265-7.28c.052-11.843-.087-22.538-.427-32.7-.422-12.054-1.128-22.652-2.163-32.4a289.071 289.071 0 0 0-2.133-15.98 256.213 256.213 0 0 0-3.101-15.794c-1.253-5.457-2.662-10.66-4.186-15.463a138.493 138.493 0 0 0-2.6-7.51 104.053 104.053 0 0 0-1.456-3.633 66.174 66.174 0 0 0-1.105-2.479l-.536-1.104c-1.31-2.66-.206-5.888 2.459-7.195 2.516-1.233 5.6-.307 7.023 2.111l.002.003.675 1.176a78.667 78.667 0 0 1 1.5 2.846 112.42 112.42 0 0 1 1.878 3.925 148.991 148.991 0 0 1 3.335 7.92c1.978 5.064 3.78 10.333 5.507 16.103a270.73 270.73 0 0 1 4.342 16.392 303.076 303.076 0 0 1 3.326 16.597c1.729 10.032 3.174 20.935 4.418 33.332 1.023 10.35 1.875 21.243 2.607 33.307a9.598 9.598 0 0 1-2.419 6.998 9.636 9.636 0 0 1-7.268 3.26"/>
        <path fill="#164B9F" d="M489.475 34.751l.386 1.16.347 1.1c.228.73.443 1.454.655 2.181.418 1.452.82 2.902 1.193 4.354a204.849 204.849 0 0 1 2.07 8.736c1.267 5.84 2.3 11.713 3.169 17.608a312.063 312.063 0 0 1 2.093 17.745c.527 5.932.894 11.878 1.138 17.83.418 11.903.323 23.833-.384 35.734a413.98 413.98 0 0 1-3.604 35.592c-.636 4.388-4.715 7.43-9.111 6.796-4.396-.635-7.444-4.707-6.808-9.094a7.96 7.96 0 0 1 .066-.394l.007-.03a399.168 399.168 0 0 0 5.285-34.045c1.292-11.422 1.993-22.912 2.201-34.413.07-5.751.02-11.505-.182-17.254-.2-5.75-.58-11.49-1.11-17.215-.534-5.724-1.228-11.433-2.146-17.093-.447-2.834-.963-5.65-1.531-8.447a148.672 148.672 0 0 0-.909-4.168 105.85 105.85 0 0 0-.497-2.054l-.261-1.01-.256-.938-.053-.195a4.297 4.297 0 0 1 3.023-5.277 4.32 4.32 0 0 1 5.219 2.791"/>
        <path fill="#164B9F" d="M485.385 33.258c-.247 0-.498.033-.748.1-.735.2-1.348.674-1.727 1.335a2.828 2.828 0 0 0-.277 2.163l.576 2.162c.176.692.343 1.388.506 2.086.36 1.55.66 2.927.917 4.213a199.18 199.18 0 0 1 1.543 8.505c.876 5.405 1.583 11.028 2.158 17.185a303.87 303.87 0 0 1 1.115 17.3c.194 5.51.256 11.338.183 17.321-.216 11.863-.959 23.488-2.21 34.559a402.327 402.327 0 0 1-5.305 34.166l-.007.038a6.526 6.526 0 0 0 1.19 5.189 6.549 6.549 0 0 0 4.336 2.572 6.559 6.559 0 0 0 4.887-1.241 6.53 6.53 0 0 0 2.578-4.328 414.06 414.06 0 0 0 3.592-35.467c.681-11.459.81-23.436.382-35.6a376.7 376.7 0 0 0-1.132-17.753 312.568 312.568 0 0 0-2.084-17.664c-.925-6.272-1.956-12.001-3.152-17.51-.597-2.803-1.289-5.72-2.056-8.679-.34-1.323-.727-2.733-1.184-4.317-.207-.715-.42-1.431-.645-2.153l-.724-2.229a2.864 2.864 0 0 0-2.712-1.953m3.212 151.863c-.456 0-.917-.033-1.378-.1a9.432 9.432 0 0 1-6.246-3.706 9.405 9.405 0 0 1-1.713-7.494l.008-.042a399.103 399.103 0 0 0 5.266-33.915c1.242-10.983 1.978-22.515 2.192-34.28.072-5.93.011-11.711-.181-17.176a300.872 300.872 0 0 0-1.104-17.133c-.57-6.09-1.268-11.65-2.135-16.995a196.41 196.41 0 0 0-1.52-8.39c-.255-1.26-.55-2.61-.9-4.13-.159-.677-.322-1.356-.492-2.025l-.563-2.118a5.699 5.699 0 0 1 .558-4.364 5.72 5.72 0 0 1 3.486-2.692 5.769 5.769 0 0 1 6.977 3.73l.001.003.741 2.28c.231.745.45 1.48.663 2.215.465 1.613.86 3.05 1.206 4.398a206.336 206.336 0 0 1 2.083 8.793c1.21 5.568 2.252 11.36 3.186 17.698a315.693 315.693 0 0 1 2.104 17.83c.505 5.692.889 11.714 1.141 17.898.431 12.264.301 24.332-.385 35.88a417.376 417.376 0 0 1-3.616 35.712 9.418 9.418 0 0 1-3.714 6.236 9.437 9.437 0 0 1-5.665 1.887"/>
        <path fill="#FA8DB5" d="M343.479 77.416l.187.14 185.322 70.707 22.088 8.427 4.434-11.663-21.966-8.374-185.42-70.75z"/>
        <path fill="#FFF" d="M561.861 147.383l-4.433 11.66-22.09-8.427-12.29-4.69 4.43-11.654 12.418 4.738z"/>
        <path fill="#FA8DB5" d="M563.223 147.896l-4.434 11.66-2.44-.948 4.43-11.654zM348.325 67.825l-3.248 8.524-7.609-2.904-.135-.102 3.394-8.416z"/>
        <path fill="#FA8DB5" d="M341.849 66.693l-2.272 5.958-5.317-2.03-.094-.073 2.373-5.881z"/>
        <path fill="#FCB3CD" d="M335.846 66.387l-.999 2.472-.025-.01-3.928-1.99c-1.602-.808-1.137-1.733.679-1.356l4.273.884z"/>
        <path fill="#FA8DB5" d="M419.121 116.25c-.568 3.609-3.156 6.201-5.78 5.789-2.626-.411-4.294-3.67-3.726-7.28.567-3.609 3.156-6.201 5.781-5.789 2.625.411 4.293 3.67 3.725 7.28M462.907 29.554c1.133 2.153 1.17 5.288-.368 6.042-1.538.754-4.168-.915-5.302-3.067-1.134-2.153-.369-3.907 1.197-4.729 1.565-.821 3.34-.4 4.473 1.754M489.716 35.22c.61 2.354-.058 5.241-1.771 5.683-1.713.44-3.822-1.73-4.43-4.084-.61-2.355.51-4.002 2.223-4.444 1.713-.44 3.368.49 3.978 2.844M515.71 75.241c.135 2.292-1.051 4.63-2.718 4.728-1.667.099-3.183-2.08-3.32-4.373-.135-2.29 1.162-3.828 2.83-3.926 1.667-.098 3.072 1.279 3.207 3.571M557.271 149.076l-28.08-10.633.514-1.355 28.082 10.632zM555.577 152.7l-28.081-10.632.515-1.356 28.08 10.633zM553.882 156.324l-28.08-10.632.514-1.355 28.081 10.632z"/>
        <path fill="#68B5EB" d="M323.576 210.977l.424.626v-.012z"/>
        <path fill="#164B9F" d="M394.98 441.785c0 2.774-29.24 5.022-65.312 5.022s-65.314-2.248-65.314-5.022c0-2.773 29.242-5.021 65.314-5.021 36.071 0 65.313 2.248 65.313 5.021M567.658 443.236c0 2.773-29.242 5.022-65.313 5.022-36.072 0-65.314-2.249-65.314-5.022 0-2.774 29.242-5.021 65.314-5.021 36.071 0 65.313 2.247 65.313 5.021" opacity=".1"/>
        <path fill="#2672B9" d="M389.954 208.035L372.23 431.93h-4.216l17.735-224.013zM461.737 431.931h-4.265l-38.977-223.1 4.288.12zM352.577 424.434l-4.173-.498 25.221-210.127 4.175.498z"/>
        <path fill="#FFF" d="M467.467 371.41H357.52l-9.74-165.598h110.164z"/>
        <path fill="#CEE9FD" d="M506.667 263.537a5.117 5.117 0 0 1-2.989.961 5.094 5.094 0 0 1-4.982-4.07l-1.384-6.844-.312-1.537-.16.54c-.018-.297-.036-.58-.058-.844-.595-7.05-2.738-1.482-5.853-2.487-.9-.297-1.391-1.794-1.736-3.748.066-.079.131-.159.196-.243.726-.935 1.031-1.456.886-1.57-.13-.1-.733.443-1.39 1.252-.102-.678-.196-1.4-.284-2.125l-1.684.28a.292.292 0 0 1-.29-.453l1.665-2.447.334-.49.019-.029v-.007l.025-.032a.775.775 0 0 0 .044-.623l-.483-1.313a4.81 4.81 0 0 1-.273-1.156c-.014-.167-.032-.333-.04-.435a11.876 11.876 0 0 1 .052-2.425c.05-.434.13-.845.232-1.244v-.003c1.99-2.305 3.424-2.116 3.424-2.116-1.536 5.077 3.228 7.42 3.228 7.42l1.696-.73c2.549 8.732 4.499 8.87 9.495 8.428v.003l.414 2.062 1.417 6.975.18.888.616 3.037a5.078 5.078 0 0 1-2.005 5.125"/>
        <path fill="#68B5EB" d="M488.67 239.643l-.378.557v-.01z"/>
        <path fill="#CDE6F8" d="M516.73 425.921c-.485-2.22.576-4.354 2.801-4.838a4.117 4.117 0 0 1 4.9 3.145l1.032 4.74c-1.07.359-1.75 1.118-2.398 1.848-.728.813-1.411 1.583-2.594 1.752-.818.116-1.672-.185-2.408-.6l-1.333-6.047z"/>
        <path fill="#EAB100" d="M527.85 439.49l-7.487.338-.242-2.167c-3.877-.12-7.512 2.177-19.627 2.54-.311.01-.616.019-.921.024a4.106 4.106 0 0 1-1.605-5.83c.989-.4 2.215-.667 3.737-.725 7.686-.285 14.524-1.601 16.045-1.91.699.387 1.503.691 2.312.691.146 0 .29-.01.436-.034 1.358-.193 2.132-1.06 2.884-1.901.625-.701 1.221-1.369 2.142-1.698l2.327 10.672z"/>
        <path fill="#CDE6F8" d="M492 427.464c-.486-2.22.833-2.026 3.057-2.51 2.225-.484 4.028-1.103 4.512 1.117l1.459 6.801c-1.08.359-1.759 1.118-2.413 1.853-.728.813-1.411 1.582-2.593 1.751-.834.117-1.702-.193-2.448-.619L492 427.464z"/>
        <path fill="#F2CD33" d="M503.386 443.413l-7.289.247-.208-1.887c-3.877-.12-7.511 2.177-19.627 2.54-2.636.077-4.987.052-7.056-.03.048-1.915.799-5.012 7.686-5.264 7.613-.28 14.68-3.07 16.332-3.395.716.407 1.551.735 2.389.735.145 0 .29-.009.437-.033 1.356-.194 2.132-1.06 2.882-1.902.63-.706 1.227-1.378 2.157-1.702l2.297 10.69z"/>
        <path fill="#FCB3CD" d="M510.852 257.234a1784.07 1784.07 0 0 1 6.865 15.02c2.262 5.026 4.512 10.036 6.676 15.18.541 1.3 1.07 2.572 1.597 4.004.134.37.263.723.416 1.233l.063.223.068.26.077.376a4.987 4.987 0 0 1 .07.859c-.006.174-.02.35-.044.524l-.044.259-.031.137-.073.266a3.337 3.337 0 0 1-.072.223l-.127.326-.11.241c-.282.586-.502.922-.729 1.284-.223.347-.442.668-.658.974-.865 1.225-1.725 2.33-2.596 3.439a215.862 215.862 0 0 1-2.626 3.255c-3.528 4.285-7.106 8.454-10.74 12.617a2.905 2.905 0 0 1-4.094.28 2.891 2.891 0 0 1-.404-3.933l.016-.02c3.313-4.327 6.61-8.71 9.782-13.113.792-1.1 1.574-2.205 2.335-3.308.756-1.1 1.508-2.213 2.158-3.275.163-.264.313-.522.445-.76.127-.226.253-.484.254-.521-.002.002 0-.007-.005.005a.89.89 0 0 0-.037.086l-.033.1a1.72 1.72 0 0 0-.04.143l-.014.074a2.828 2.828 0 0 0-.066.592 2.94 2.94 0 0 0 .043.604c.004.042.011.083.02.125.013.047-.003.005-.002.012-.006-.008-.002.001-.012-.021-.06-.143-.184-.427-.307-.692a95.841 95.841 0 0 0-1.744-3.51c-2.485-4.79-5.126-9.597-7.763-14.383a1810.57 1810.57 0 0 0-8.003-14.332l-.004-.006a5.32 5.32 0 0 1 2.03-7.254 5.34 5.34 0 0 1 7.463 2.407"/>
        <path fill="#FA8DB5" d="M493.094 300.98c-2.044-21.314-2.49-48.574 5.744-50.349 14.559-3.14 16.467 32.56 17.223 48.495-8.273 1.292-17.088 1.722-22.967 1.853"/>
        <path fill="#062942" d="M524.997 426.739l-10.317 1.887a2796.403 2796.403 0 0 1-6.131-30.434 1147.03 1147.03 0 0 1-2.887-15.3 312.783 312.783 0 0 1-1.33-7.784l-.304-2.002c-.054-.32-.093-.692-.136-1.06l-.13-1.093c-.102-.75-.127-1.402-.18-2.094l-.077-1.026-.059-.987c-.31-5.248-.543-10.396-.78-15.572l-.64-14.846c-.111.198-.223.402-.334.605-1.488 2.762-2.811 5.81-3.955 8.93-2.268 6.24-3.964 12.867-4.584 19.228a40.636 40.636 0 0 0-.185 4.63c.015.745.059 1.46.121 2.158l.286 2.616 1.251 10.643c1.73 14.227 3.538 28.479 5.36 42.715l-10.526 1.558c-2.385-14.18-4.75-28.348-7.041-42.56l-1.687-10.696-.403-2.729a43.802 43.802 0 0 1-.286-3.207 53.783 53.783 0 0 1 .059-6.129c.257-3.99.862-7.827 1.652-11.605.8-3.774 1.818-7.469 3.029-11.131a87.764 87.764 0 0 1 2.932-7.618h-.024c3.15-8.307 1.696-10.077 2.18-14.915.451-4.47 3.378-9.757 3.63-13.777-.12-1.214-.267-2.913-.384-4.151 5.883-.131 14.661-.614 22.929-1.905.102 2.186.403 36.339.403 36.339l.136 15.455c.058 5.143.12 10.309.246 15.369l.024.948.035.91c.024.595.033 1.233.082 1.766l.063.826c.02.28.029.548.068.867l.19 1.838c.266 2.472.59 5.006.92 7.536a1240.99 1240.99 0 0 0 2.132 15.248 2967.233 2967.233 0 0 0 4.652 30.549"/>
        <path fill="#FCB3CD" d="M505.488 257.02a291.82 291.82 0 0 1 1.402 7.844c.43 2.613.826 5.237 1.181 7.881.348 2.648.647 5.319.842 8.07.038.699.087 1.383.114 2.093.011.727.032 1.437.032 2.176l-.049 1.17c-.024.403-.014.74-.093 1.234-.06.461-.129.921-.203 1.378-.033.252-.088.39-.132.584l-.141.543c-.184.752-.392 1.372-.59 2.046-.198.672-.415 1.288-.621 1.935-.42 1.276-.851 2.528-1.293 3.773a426.123 426.123 0 0 1-2.697 7.407 879.898 879.898 0 0 1-5.63 14.646 3.332 3.332 0 0 1-4.319 1.877 3.324 3.324 0 0 1-1.955-4.1l.007-.022a877.501 877.501 0 0 0 4.639-14.842 414.296 414.296 0 0 0 2.177-7.425c.35-1.234.687-2.469 1.005-3.688.15-.604.325-1.229.456-1.817.132-.583.296-1.212.382-1.733l.08-.406c.02-.125.07-.298.058-.373.003-.189.012-.375.027-.56.03-.148.002-.465 0-.712l-.018-.78-.138-1.723c-.06-.588-.146-1.199-.216-1.796-.33-2.426-.767-4.909-1.258-7.395-.498-2.49-1.04-4.984-1.616-7.477a282.91 282.91 0 0 0-1.825-7.428l-.007-.027a5.324 5.324 0 0 1 3.817-6.496 5.334 5.334 0 0 1 6.582 4.142"/>
        <path fill="#062942" d="M493.023 311.422s2.1 7.094 6.461 10.642l-5.654 4.515s-3.392-2.742-3.392-6.612 2.585-8.545 2.585-8.545"/>
        <path fill="#0D83DD" d="M489.868 237.764c.07.496-.088.928-.353.966-.264.037-.537-.335-.607-.83-.07-.497.087-.929.352-.966.265-.038.537.333.608.83"/>
        <path fill="#062942" d="M506.024 245.366l.02.082c-4.996.44-6.945.305-9.493-8.426l-1.698.725s-4.763-2.34-3.228-7.42c0 0-1.859-.241-4.28 3.226.634-5.244 5.42-7.8 10.014-7.982 7.35-.29 9.267 4.523 9.586 9.869.005.058.01.115.01.168.01.136.02.267.02.393.116 3.439-1.401 5.413-.95 9.365"/>
        <path fill="#CEE9FD" d="M493.91 236.44s-.362-3.627 1.576-3.749c1.939-.12 1.817 3.024 1.211 4.596-.605 1.573-1.696 3.508-2.18 3.628-.485.122-.606-4.474-.606-4.474"/>
        <path fill="#062942" d="M490.615 236.737c-.08.047-.247-.084-.49-.277-.235-.188-.579-.456-.907-.482a.593.593 0 0 0-.416.105 1.083 1.083 0 0 0-.285.335c-.149.25-.232.445-.325.44-.088-.002-.18-.222-.12-.595a1.19 1.19 0 0 1 .316-.633 1.09 1.09 0 0 1 .886-.314c.34.03.607.19.798.35.191.163.321.336.413.49.18.307.209.538.13.581"/>
        <path fill="#0D83DD" d="M487.636 242.744s.606-.454 1.151-.272"/>
        <path fill="#68B5EB" d="M488.787 242.472c-.04.086-.273.077-.557.166-.288.083-.538.18-.593.106-.058-.07.137-.317.502-.426a.817.817 0 0 1 .486.001c.123.042.177.113.162.153"/>
        <path fill="#FFF" d="M327.858 438.603c-.353.002-1.41-.045-2.923-.126a75.316 75.316 0 0 0-.43-.023c-6.744-.368-21.275-1.317-24.942-1.56 0 0 0-.015-.003-.022a7.572 7.572 0 0 1-.042-1.307c.049-.987.279-2.31.928-3.934 1.42-3.534 2.111-7.342 2.212-7.916l.07-.23a4.111 4.111 0 0 1 4.993-2.989c2.208.553 3.428 2.718 2.874 4.922l-1.788 5.616c1.443.73 1.582 1.449 11.045 3.25 5.455 1.036 7.323 1.966 7.831 3.29.13.315.175.658.175 1.029"/>
        <path fill="#F5DA66" d="M327.858 438.602c-.353.003-1.41-.044-2.923-.125-.08-.003-.161-.01-.242-.014a75.316 75.316 0 0 0-.187-.01c-6.926-.387-22.036-1.387-24.946-1.581a7.572 7.572 0 0 1-.042-1.307l28.165 2.008c.13.316.175.659.175 1.03"/>
        <path fill="#FFF" d="M333.54 426.985c.824-2.119-.51-2.131-2.632-2.954-2.122-.821-3.807-1.712-4.63.406l-1.168 7.49c1.012.52 1.522 1.1 2.054 1.929.592.915 1.147 1.78 2.289 2.13.805.245 1.832-.015 2.635-.32l1.452-8.68z"/>
        <path fill="#FFF" d="M350.178 445.325c-1.872-.216-23.704-4.427-27.622-5.187 0-.047.012-.542.135-1.258.142-.832.437-1.965 1.035-3.053.783-1.413 1.199-3.084 1.484-4.506l.038-.101c.87.465 1.258 1.408 1.77 2.203.611.945 1.245 1.923 2.55 2.323.143.046.282.078.427.1.828.13 1.449-.106 2.219-.397 1.58.578 3.317 2.276 11.669 4.851 4.873 1.504 6.117 2.495 6.333 3.676.079.417.027.856-.038 1.35"/>
        <path fill="#68B5EB" d="M314.854 256.589a1817.865 1817.865 0 0 0-6.866 15.02c-2.262 5.025-4.511 10.035-6.675 15.179-.541 1.3-1.07 2.572-1.598 4.004-.133.371-.262.724-.415 1.233l-.063.224-.067.26-.078.375a4.61 4.61 0 0 0-.052.41c-.012.151-.02.284-.018.45.006.174.02.35.044.524l.044.26.032.135.072.267c.027.09.056.181.073.223l.126.326.109.24c.283.587.503.923.73 1.284.223.347.441.668.658.975.865 1.224 1.725 2.33 2.596 3.438.87 1.102 1.746 2.184 2.627 3.257 3.528 4.284 7.106 8.454 10.74 12.616a2.903 2.903 0 0 0 4.093.28 2.891 2.891 0 0 0 .403-3.933l-.014-.02c-3.314-4.328-6.61-8.71-9.783-13.113-.792-1.101-1.574-2.205-2.335-3.308-.756-1.1-1.509-2.213-2.158-3.274a20.873 20.873 0 0 1-.445-.762c-.126-.226-.253-.483-.254-.52.003.001-.001-.007.005.005a.617.617 0 0 1 .036.086l.035.1c.014.047.028.094.038.143l.016.073a3.068 3.068 0 0 1 .058.915 2.956 2.956 0 0 1-.036.282.865.865 0 0 1-.021.124c-.011.047.004.006.004.006.004 0 .001.008.012-.015.059-.142.183-.427.305-.692a96.679 96.679 0 0 1 1.744-3.51c2.486-4.79 5.127-9.597 7.764-14.383 2.644-4.786 5.319-9.575 8.003-14.332l.003-.006a5.32 5.32 0 0 0-2.03-7.254 5.34 5.34 0 0 0-7.462 2.408"/>
        <path fill="#005DAB" d="M312.317 357.493c.015-1.97-.824-8.319-.863-10.113-.339-15.572-5.159-21.232-4.57-30.768.529-8.606 1.884-13.391 2.757-17.483.023-.123.049-.242.075-.362l.077-.228 16.481 19.727-13.957 39.227z"/>
        <path fill="#003F91" d="M319.041 262.89a5.068 5.068 0 0 0 1.973.862 5.093 5.093 0 0 0 2.03 0 5.095 5.095 0 0 0 3.964-3.972l1.386-6.84.31-1.538.16.542.059-.847c.596-7.049 2.737-1.48 5.854-2.486.816-.268 1.079-1.126 1.473-2.798.06-.257.19-.515.237-.614.076-.158.089-.294.02-.368a3.925 3.925 0 0 1-.19-.212c-.725-.933-1.031-1.456-.886-1.567.131-.102.732.44 1.391 1.249.102-.678.194-1.398.281-2.124l1.687.28a.293.293 0 0 0 .29-.455l-1.667-2.447-.335-.489-.018-.03v-.003l-.024-.035a.781.781 0 0 1-.045-.624l.485-1.31c.136-.373.228-.76.271-1.156.015-.17.035-.335.039-.436.069-.862.049-1.669-.048-2.424a9.76 9.76 0 0 0-.233-1.248c-1.104-4.406-5.026-6.583-9.242-6.583-5.05 0-9.183 4.232-9.503 9.577a1.99 1.99 0 0 0-.01.17c-.01.135-.019.266-.019.392-.116 3.439 1.4 5.413.95 9.365l-.02.082-.416 2.066-1.415 6.971-.18.89-.615 3.038a5.07 5.07 0 0 0 2.006 5.123"/>
        <path fill="#F2CD33" d="M332.272 286.997c-.427 2.404-.9 4.91-1.3 7.668a87.929 87.929 0 0 0-.618 5.603c-1.315-.04-2.732-.096-4.226-.174-.158-.01-.32-.017-.478-.026a69.595 69.595 0 0 0-.201-.01c-4.698-.258-10.071-.71-15.258-1.494-.138-.023-.278-.042-.417-.064 0-.013.004-.026.007-.039l.077-.372c.505-2.413.948-4.747 1.229-6.974.304-2.424.578-4.835.867-7.32.83-7.13 1.778-14.843 3.841-25.087.523-1.2 1.096-2.31 1.72-3.305a16.76 16.76 0 0 1 1.312-1.836c2.125-2.568 4.76-3.96 8.041-3.582.664.077 1.246.723 1.753 1.83 2.45 5.316 3.247 21.214 3.65 35.182"/>
        <path fill="#005DAB" d="M345.664 369.674a44.538 44.538 0 0 1-.288 3.209l-.4 2.726-1.688 10.696c-2.293 14.214-4.657 28.382-7.04 42.56l-2.844-.423-7.67-1.132-.013-.004c1.824-14.235 3.631-28.485 5.361-42.714l1.248-10.642.287-2.617c.063-.697.107-1.414.12-2.16.036-1.487-.039-3.046-.184-4.627-.617-6.362-2.316-12.987-4.585-19.23-1.141-3.12-2.464-6.167-3.955-8.93-.11-.203-5.98-10.324-6.091-10.521l.724 4.967-9.234-12.464c.032-3.28.068-6.639.1-9.644.048-4.402.097-8.049.13-9.595.023-.123.049-.242.074-.362.02-.09.04-.18.058-.268 0-.012.003-.025.007-.038l.378.058c5.205.79 10.583 1.265 15.29 1.54.069.002.136.006.2.01.159.009.321.015.48.024 1.49.081 2.909.143 4.225.191-.471 6.123-.323 12.071.294 15.279.473 2.443 1.598 4.857 3.115 7.882.92 2.236 2.337 4.689 4.254 9.746h-.026a87.037 87.037 0 0 1 2.934 7.617 104.347 104.347 0 0 1 3.028 11.132c.79 3.778 1.395 7.613 1.653 11.605.126 1.998.165 4.028.058 6.13"/>
        <path fill="#359CE4" d="M338.07 242.098s-.606-.453-1.151-.272M336.919 241.826c-.015-.04.04-.11.162-.152a.817.817 0 0 1 .486-.001c.365.109.56.355.502.425-.055.074-.306-.022-.593-.106-.284-.089-.518-.08-.557-.166"/>
        <path fill="#062942" d="M340.563 230.87c0 4.813-3.908 8.714-8.73 8.714-4.821 0-8.73-3.901-8.73-8.714 0-4.813 3.909-8.714 8.73-8.714 4.822 0 8.73 3.9 8.73 8.714"/>
        <path fill="#062942" d="M331.507 242.38c0 4.814-3.908 8.715-8.73 8.715-4.821 0-8.73-3.901-8.73-8.714 0-4.813 3.909-8.714 8.73-8.714 4.822 0 8.73 3.901 8.73 8.714"/>
        <path fill="#062942" d="M339.162 254.645c0 4.813-3.909 8.714-8.73 8.714-4.821 0-8.73-3.9-8.73-8.714 0-4.813 3.909-8.714 8.73-8.714 4.821 0 8.73 3.901 8.73 8.714"/>
        <path fill="#062942" d="M326.983 252.493c0 4.813-3.908 8.714-8.73 8.714-4.821 0-8.73-3.9-8.73-8.714 0-4.813 3.909-8.714 8.73-8.714 4.822 0 8.73 3.901 8.73 8.714"/>
        <path fill="#062942" d="M328.169 241.843c0 4.813-3.908 8.714-8.73 8.714-4.822 0-8.73-3.901-8.73-8.714 0-4.813 3.908-8.714 8.73-8.714 4.822 0 8.73 3.9 8.73 8.714"/>
        <path fill="#062942" d="M334.42 232.053c0 4.813-3.908 8.714-8.73 8.714-4.822 0-8.73-3.901-8.73-8.714 0-4.813 3.908-8.714 8.73-8.714 4.822 0 8.73 3.901 8.73 8.714"/>
        <path fill="#003F91" d="M330.355 261.563c2.012 6.431 4.081 12.881 6.2 19.283a679.576 679.576 0 0 0 3.243 9.569c1.108 3.161 2.24 6.34 3.454 9.341.302.742.616 1.48.92 2.116.074.157.148.306.215.436l.15.276c.008.017.006.012-.058-.062-.036-.041-.084-.098-.195-.203-.125-.104-.266-.27-.793-.549a3.669 3.669 0 0 0-1.34-.37 3.928 3.928 0 0 0-.798.023 3.39 3.39 0 0 0-.349.068 3.255 3.255 0 0 0-.445.139 3.284 3.284 0 0 0-.447.212l-.117.07-.073.047a2.857 2.857 0 0 0-.409.33l-.054.058-.03.035c-.04.056.029-.019.096-.114.072-.098.16-.227.25-.365.178-.278.369-.6.558-.93.38-.666.758-1.38 1.13-2.103 1.493-2.91 2.912-5.968 4.306-9.022 2.78-6.124 5.467-12.343 8.083-18.556l.006-.015a3.033 3.033 0 1 1 5.642 2.223c-2.368 6.395-4.784 12.738-7.332 19.08-1.284 3.172-2.58 6.329-4.043 9.52-.37.801-.749 1.603-1.173 2.43-.214.414-.436.834-.697 1.28-.13.225-.267.455-.433.709-.17.255-.35.523-.67.9l-.137.152c-.053.056-.092.1-.165.17-.071.069-.123.12-.211.198a5.259 5.259 0 0 1-.296.241c-.068.05-.136.1-.207.146l-.105.068-.152.09a3.88 3.88 0 0 1-.812.355 4.963 4.963 0 0 1-.262.075 4.68 4.68 0 0 1-.785.11 3.718 3.718 0 0 1-.48-.01 3.93 3.93 0 0 1-1.491-.418c-.623-.325-.846-.559-1.048-.736a5.17 5.17 0 0 1-.41-.437 7.03 7.03 0 0 1-.436-.573 11.89 11.89 0 0 1-.506-.812c-.139-.242-.26-.468-.377-.689a49.301 49.301 0 0 1-1.207-2.5c-1.454-3.233-2.713-6.4-3.97-9.59a671.138 671.138 0 0 1-3.653-9.56 1241.238 1241.238 0 0 1-6.986-19.19 4.678 4.678 0 0 1 2.852-5.975 4.692 4.692 0 0 1 6.037 2.998l.01.031z"/>
        <path fill="#FA8DB5" d="M367.877 252.303l-.565 1.405-19.172 16.953-1.72-1.931 19.172-16.954 1.466-.384z"/>
        <path fill="#FA8DB5" d="M347.845 270.124l-.86-.964 21.677-19.23.86.964z"/>
        <path fill="#003F91" d="M363.457 265.134c-.323 1.56-2.317 3.496-4.041 8.445l-5.443-2.42c2.35-6.232 2.154-6.24 2.694-8.66.702-3.147 1.832-3.875 3.45-3.39 1.616.486 3.664 4.466 3.34 6.025"/>
        <path fill="#003F91" d="M354.222 265.296s.416.852.586 1.937c.203 1.29-.836 3.926-.836 3.926l3.827-2.474-1.152-5.528-2.425 2.139z"/>
        <path fill="#003F91" d="M356.506 266.964a.968.968 0 0 1-.936-1.223l2.695-9.845a.968.968 0 0 1 1.19-.68.968.968 0 0 1 .68 1.19l-2.693 9.844a.97.97 0 0 1-.936.714"/>
        <path fill="#F5DA66" d="M350.178 445.325c-1.872-.216-23.704-4.427-27.622-5.187 0-.047.012-.542.135-1.258l27.525 5.096c.079.417.027.856-.038 1.35"/>
        <path fill="#005DAB" d="M321.252 313.415c-.14 1.224-.284 2.39-.395 3.477-.112 1.09-.19 2.11-.227 3.126-.07 2.023.025 4.102.246 6.294.05.543.115 1.096.18 1.65l.107.86.113.889.46 3.55.95 7.116c.638 4.757 1.305 9.521 1.889 14.386.295 2.426.555 4.893.764 7.401.207 2.51.355 5.078.315 7.786-.014.678-.048 1.373-.074 2.058-.026.38-.066.79-.101 1.183-.017.208-.043.373-.066.55l-.072.527-.072.526-.084.493-.166.986-.367 1.893a184.137 184.137 0 0 1-1.67 7.256c-1.185 4.75-2.457 9.424-3.763 14.083a1167.41 1167.41 0 0 1-8.218 27.778l-9.44-2.738c2.478-9.22 4.878-18.512 7.123-27.782 1.119-4.635 2.199-9.275 3.171-13.887.484-2.301.938-4.602 1.314-6.84l.258-1.654.105-.795.052-.397.035-.368.037-.367c.011-.122.028-.254.028-.345l.03-.614c-.004-.515.005-1.02-.004-1.542-.045-2.097-.246-4.327-.519-6.593-.274-2.27-.6-4.571-.971-6.901-.732-4.652-1.57-9.375-2.384-14.113l-1.219-7.129-.596-3.576-.295-1.816c-.1-.636-.2-1.272-.283-1.923-.356-2.574-.597-5.298-.604-8.078a60.559 60.559 0 0 1 .14-4.067c.085-1.306.192-2.53.282-3.695l13.991 1.352z"/>
        <path fill="#FFF" d="M309.826 427.721c-.379 2.329.088 4.221 3.062 5.56l-4.228 1.689-4.083-2.708 1.72-3.173 3.53-1.368zM332.924 431.796c-.38 2.329.087 4.221 3.062 5.561l-4.229 1.688-4.083-2.707 1.721-3.174 3.529-1.368zM300.018 251.843h-1.09V196.9h-27.237V54.462h-86.067v52.744h-1.09v-53.83h88.247v142.438h27.237zM378.46 193.118h-1.089v-48.393H340.33v-33.712H285.31v-1.088h56.108v33.713h37.042z"/>
        <path fill="#FA8DB5" d="M389.756 346.062c-3.754 0-6.808-3.048-6.808-6.795 0-3.748 3.054-6.796 6.808-6.796s6.808 3.048 6.808 6.796c0 1.62-.884 3.272-2.254 4.207-1.501 1.025-3.45 1.154-5.49.363a.544.544 0 1 1 .394-1.014c2.173.843 3.636.331 4.482-.246 1.08-.738 1.779-2.038 1.779-3.31 0-3.148-2.565-5.71-5.719-5.71-3.154 0-5.718 2.562-5.718 5.71s2.564 5.708 5.718 5.708a.544.544 0 1 1 0 1.087M410.286 321.053c-.261 0-.524-.015-.789-.044a6.765 6.765 0 0 1-4.555-2.525 6.741 6.741 0 0 1-1.434-5c.21-1.83 1.013-3.457 2.261-4.583 1.306-1.18 3.007-1.715 4.795-1.512a5.388 5.388 0 0 1 3.856 2.336c.723 1.069 1.423 2.934.647 5.754a.544.544 0 0 1-1.05-.288c.527-1.916.354-3.596-.5-4.857a4.36 4.36 0 0 0-3.077-1.864c-1.494-.17-2.855.257-3.94 1.236-1.051.95-1.73 2.335-1.91 3.902-.358 3.127 1.9 5.962 5.032 6.32a5.679 5.679 0 0 0 4.208-1.202 5.67 5.67 0 0 0 2.125-3.82.544.544 0 1 1 1.082.124 6.746 6.746 0 0 1-2.53 4.547 6.759 6.759 0 0 1-4.22 1.476M388.028 297.603a6.796 6.796 0 0 1-5.098-2.285c-2.597-2.925-2.524-6.928.17-9.312a5.402 5.402 0 0 1 4.316-1.304c1.281.177 3.14.904 4.723 3.364a.543.543 0 1 1-.916.588c-1.076-1.672-2.445-2.666-3.955-2.875a4.362 4.362 0 0 0-3.445 1.04c-2.267 2.005-2.299 5.276-.079 7.777a5.732 5.732 0 0 0 8.074.486 5.708 5.708 0 0 0 .487-8.059.543.543 0 1 1 .814-.72 6.794 6.794 0 0 1-5.09 11.3M427.549 343.149a6.805 6.805 0 0 1-2.813-.612c-3.565-1.617-5.13-5.303-3.642-8.575a5.386 5.386 0 0 1 3.412-2.944c1.24-.36 3.235-.45 5.684 1.153a.544.544 0 1 1-.597.91c-1.665-1.091-3.32-1.443-4.784-1.02a4.357 4.357 0 0 0-2.723 2.351c-1.252 2.752.052 5.753 3.1 7.135a5.69 5.69 0 0 0 4.375.147 5.675 5.675 0 0 0 3.197-2.984 5.66 5.66 0 0 0 .148-4.367 5.676 5.676 0 0 0-2.99-3.191.543.543 0 1 1 .451-.99c1.656.75 2.92 2.1 3.559 3.8a6.74 6.74 0 0 1-.176 5.198 6.754 6.754 0 0 1-3.806 3.552 6.814 6.814 0 0 1-2.395.437M430.776 326.959a.543.543 0 0 1-.508-.74c11.027-28.543 11.425-50.377 9.818-63.668-1.737-14.358-6.106-22.055-6.15-22.13a.544.544 0 1 1 .943-.543c.184.318 4.525 7.966 6.288 22.543 1.622 13.413 1.225 35.438-9.882 64.19a.546.546 0 0 1-.509.348M427.522 232.897a.545.545 0 0 1-.5-.76l4.693-10.866a.546.546 0 0 1 1 .43l-4.693 10.868a.544.544 0 0 1-.5.328"/>
        <path fill="#FA8DB5" d="M435.338 230.327a.542.542 0 0 1-.253-.062l-10.94-5.728a.543.543 0 1 1 .506-.963l10.941 5.728a.544.544 0 0 1-.254 1.025M416.916 244.493a.544.544 0 0 1-.517-.716l3.756-11.225a.543.543 0 0 1 .689-.343c.285.095.44.403.344.688l-3.755 11.224a.545.545 0 0 1-.517.372"/>
        <path fill="#FA8DB5" d="M424.486 241.273a.544.544 0 0 1-.211-.043l-11.386-4.784a.544.544 0 0 1 .422-1.002l11.386 4.784a.543.543 0 0 1-.21 1.045M406.084 265.702a.542.542 0 0 1-.416-.893l7.624-9.063a.544.544 0 1 1 .834.7l-7.625 9.061a.541.541 0 0 1-.417.195"/>
        <path fill="#FA8DB5" d="M414.311 265.484a.546.546 0 0 1-.38-.155l-8.83-8.627a.545.545 0 0 1 .763-.777l8.828 8.627a.543.543 0 0 1-.381.932M389.82 228.51a.544.544 0 0 1-.264-1.02l10.38-5.717a.544.544 0 0 1 .525.951l-10.38 5.719a.545.545 0 0 1-.262.067"/>
        <path fill="#FA8DB5" d="M397.574 231.26a.546.546 0 0 1-.496-.318l-5.13-11.218a.544.544 0 0 1 .27-.72.546.546 0 0 1 .722.268l5.13 11.219a.544.544 0 0 1-.496.77M433.655 246.855a.545.545 0 0 1-.525-.397c-.371-1.32-2.174-7.988-1.14-9.616.221-.346.512-.46.717-.493.654-.11 1.732.211 4.318 3.675a57.909 57.909 0 0 1 2.53 3.717.542.542 0 0 1-.178.748.546.546 0 0 1-.749-.178c-2.31-3.746-4.951-6.925-5.716-6.893-.484.55.1 4.605 1.267 8.746a.542.542 0 0 1-.524.69M407.254 276.3a.543.543 0 0 1-.541-.609c.189-1.572.908-6.77 2.2-7.675a.946.946 0 0 1 .774-.163c1.515.352 2.479 5.036 2.919 7.795a.545.545 0 0 1-1.076.172c-.532-3.334-1.466-6.465-2.04-6.877-.531.467-1.294 3.54-1.696 6.878a.544.544 0 0 1-.54.478M387.397 241.04a.544.544 0 0 1-.495-.77c1.401-3.07 2.355-6.196 2.104-6.855-.7.095-3.037 2.237-5.22 4.797a.545.545 0 0 1-.83-.704c1.028-1.206 4.504-5.142 6.083-5.183a.936.936 0 0 1 .735.291c1.068 1.128-.72 5.563-1.881 8.106a.546.546 0 0 1-.496.318M421.147 253.884a.545.545 0 0 1-.534-.437c-.311-1.552-1.252-6.715-.305-7.977a.943.943 0 0 1 .685-.395c1.548-.143 3.927 4.012 5.207 6.497a.545.545 0 0 1-.969.497c-1.546-3.002-3.412-5.685-4.086-5.897-.358.608-.124 3.765.537 7.062a.544.544 0 0 1-.535.65"/>
        <path fill="#FA8DB5" d="M388.292 329.134a.54.54 0 0 1-.448-.234c-7.998-11.477-13.034-23.493-14.967-35.713-1.548-9.782-1.121-19.712 1.268-29.515 4.066-16.689 12.546-27.381 12.632-27.487a.545.545 0 0 1 .85.68c-.084.104-8.432 10.642-12.435 27.109-2.347 9.658-2.763 19.44-1.234 29.074 1.91 12.046 6.883 23.9 14.78 35.23a.543.543 0 0 1-.446.856M409.534 306.117a.543.543 0 0 1-.544-.543v-34.253a.543.543 0 0 1 1.088 0v34.253c0 .3-.244.543-.544.543"/>
        <path fill="#FA8DB5" d="M396.884 292.887a.545.545 0 0 1-.54-.484.545.545 0 0 1 .48-.6c.155-.017 15.472-1.828 23.066-13.336 4.974-7.537 5.61-17.53 1.893-29.702a.544.544 0 1 1 1.042-.317c3.818 12.5 3.134 22.804-2.03 30.625-7.883 11.934-23.692 13.794-23.85 13.811a.603.603 0 0 1-.06.003"/>
        <path fill="#FCB3CD" d="M294.57 99.595h-1.089V64.25h30.69v1.088h-29.6z"/>
        <path fill="#FFF" d="M302.072 57.543h-1.089V4.44h63.314V25.1h50.661v1.087h-51.75V5.526h-61.136zM219.253 84.369h1.09V69.144h-1.09z"/>
        <path fill="#FFF" d="M326.023 33.256h1.089V18.031h-1.09zM343.453 33.256h1.09V18.031h-1.09zM302.054 145.269h1.09v-15.225h-1.09zM319.485 145.269h1.09v-15.225h-1.09zM236.685 84.369h1.089V69.144h-1.09zM254.116 84.369h1.09V69.144h-1.09zM219.253 116.994h1.09v-15.225h-1.09zM236.685 116.994h1.089v-15.225h-1.09zM254.116 116.994h1.09v-15.225h-1.09zM206.114 192.343h1.09V54.351h-1.09z"/>
        <path fill="#FA8DB5" d="M142.754 305.18c0 3.904-3.17 7.07-7.081 7.07-3.911 0-7.082-3.166-7.082-7.07 0-3.904 3.17-7.068 7.082-7.068 3.911 0 7.081 3.164 7.081 7.068"/>
        <path fill="#F5DA66" d="M224.002 354.638c0 3.904-3.17 7.069-7.082 7.069-3.911 0-7.082-3.165-7.082-7.069s3.17-7.069 7.082-7.069c3.911 0 7.082 3.165 7.082 7.07"/>
        <path fill="#FDD9E6" d="M333.413 174.681c0 3.904-3.17 7.07-7.082 7.07-3.911 0-7.082-3.166-7.082-7.07 0-3.904 3.17-7.068 7.082-7.068 3.911 0 7.082 3.164 7.082 7.068"/>
        <path fill="#FFF" d="M311.877 57.543h1.09V4.983h-1.09z"/>
        <path fill="#68B5EB" d="M344.013 422.056h12.71v6.525h-11.62zM363.985 429.305h12.71v6.525h-11.62zM454.04 429.305h12.708v6.525h-11.62z"/>
        <path fill="#FFF" d="M175.532 367.908l-.803.754s-.75-1.258-1.194-2.632a18.575 18.575 0 0 1-.556-2.221c.425-.769.988-1.062.988-1.062s.446 2.508.863 3.758c.211.634.458 1.084.702 1.403"/>
        <path fill="#9ACDF1" d="M256.559 350.115l-.117.348c-.079-.025-.159-.054-.239-.083-2.357-.827-4.012-2.27-4.928-4.289-1.122-2.486-.897-5.408-.508-7.427.269-1.395.65-2.558.89-3.219l.38.015c-.565 1.537-2.181 6.605-.431 10.483.868 1.917 2.447 3.295 4.699 4.085.083.029.166.058.254.087"/>
        <path fill="#9ACDF1" d="M260.658 487.944l-.326.16c-.117-.243-11.864-24.394-20.698-43.137-8.9-18.873-3.639-33.785 5.076-58.493a571.3 571.3 0 0 0 4.169-12.291 739.688 739.688 0 0 0 7.324-23.803c.032-.12.069-.236.102-.352 2.2-7.608 3.613-12.929 3.94-14.184l.37.02c-.541 2.058-5.102 19.278-11.598 39.061a558.214 558.214 0 0 1-3.966 11.671c-8.682 24.619-13.925 39.476-5.09 58.219 8.835 18.74 20.58 42.886 20.697 43.13M268.807 343.058c-.349 1.547-2.981 14.023 1.692 18.22-.062.106-.127.211-.189.319-2.171-1.895-3.144-5.592-2.894-11 .192-4.114 1.064-7.746 1.071-7.782l.04-.156 7.201.873c0 .12-.004.243-.007.37l-6.914-.844z"/>
        <path fill="#164B9F" d="M91.509 475.46c0 2.665-20.312 4.826-45.37 4.826-25.056 0-45.368-2.16-45.368-4.826 0-2.664 20.312-4.824 45.369-4.824s45.369 2.16 45.369 4.824M322.555 503.12c0 5.478-25.613 9.918-57.21 9.918-31.596 0-57.21-4.44-57.21-9.918 0-5.477 25.614-9.917 57.21-9.917 31.597 0 57.21 4.44 57.21 9.917M148.483 475.46c0 1.222-8.79 2.212-19.633 2.212-10.845 0-19.635-.99-19.635-2.212 0-1.221 8.79-2.21 19.635-2.21 10.843 0 19.633.989 19.633 2.21M194.07 482.627c0-.351-6.183-.635-13.808-.635-7.626 0-13.809.284-13.809.635 0 .35 6.183.634 13.809.634 7.625 0 13.808-.283 13.808-.634" opacity=".1"/>
        <path fill="#359CE4" d="M44.017 444.382l-7.674 13.458c-.15-.077-.294-.166-.455-.25-1.661-.93-5.664-3.987-9.317-6.588-3.072-2.187-7.388-.638-8.342 3.01-1.228 4.65-2.387 10.519-3.114 16.095-.52 4.042-4.219 6.901-8.262 6.399-.4-2.673-1.54-10.627 1.653-18.91 2.229-5.781 6.683-9.041 7.46-16.401l-4.35-1.849 4.24-9.382c.656-.263 3.672-.29 14.644 7.32 4.773 3.31 9.593 5.08 13.517 7.098"/>
        <path fill="#C6DFF1" d="M141.913 387.887c1.43 7.411 3.203 16.258 4.93 23.816 3.145-8.186 6.068-17.965-.827-22.316-1.049-.658-2.239-1.232-4.103-1.5M76.743 373.957c5.35 8.404 13.634 16.36 16.96 19.396l.295-.219c.536-.406 1.072-.8 1.607-1.217 6.192-4.749 14.754-7.91 23.033-10.014 8.365-2.114 16.449-3.15 21.455-3.615h.01c3.189-.312 5.136-.396 5.136-.396l-.463-1.835c.348-.173.675-.38.981-.61a7.31 7.31 0 0 0 3.031-5.143 7.242 7.242 0 0 0-1.124-4.84v-.012a6.637 6.637 0 0 0-.972-1.212 7.359 7.359 0 0 0-3.306-1.954.128.128 0 0 1-.065-.012 7.024 7.024 0 0 0-1.06-.207c-.17-.014-.331-.04-.503-.054-30.21-3.419-51.878.512-64.752 11.715-.087.072-.175.156-.263.23"/>
        <path fill="#062942" d="M140.67 381.712c.258 1.38 1.064 5.559 1.18 6.162.02.012.042.012.063.013.932.14 1.69.339 2.34.6.043.012.084.035.127.046.022.011.043.012.065.024.584.25 1.094.529 1.57.829.18.112.36.233.53.366.105.077.21.155.316.243.138.1.264.21.38.32.126.11.242.23.357.34.042.034.073.078.116.121.02.012.031.034.052.045.095.099.19.197.272.306.137.153.273.317.398.492.24.338.457.686.652 1.055a9.54 9.54 0 0 1 .848 2.347 14.87 14.87 0 0 1 .29 3.267v.011c-.007.268-.023.536-.04.814a4.082 4.082 0 0 1-.045.514c-.015.226-.03.46-.07.696-.027.3-.077.61-.127.91-.05.319-.112.64-.173.96l-.001.032-.037.192c-.048.279-.109.556-.18.833a2.27 2.27 0 0 1-.06.256c-.083.363-.166.726-.261 1.078-.117.415-.234.82-.35 1.236-.174.564-.35 1.139-.534 1.703-.012.043-.035.096-.046.138-.116.351-.243.702-.358 1.054l-.482 1.34c-.206.554-.412 1.096-.618 1.638v.01c.245 1.026.47 2.017.704 2.967 3.567-3.673 8.65-5.047 11.422-5.54-2.328-9.953-4.911-23.28-6.548-31.974l-11.752 4.556z"/>
        <path fill="#C6DFF1" d="M188.794 471.532c-1.963-.628-3.583-1.622-5.112-2.856-1.486-1.219-2.837-2.78-3.832-4.33a22.784 22.784 0 0 0-3.344-3.935c-1.254-1.171-2.222-2.522-3.6-3.41l-.354-.267c-.597-.385-.914-.742-.528-1.338a1.29 1.29 0 0 1 1.74-.408c1.729 1.027 3.18 2.184 4.564 3.527a25.397 25.397 0 0 1 3.68 4.416c.525.808.914 1.458 1.456 2.143a17.029 17.029 0 0 0 1.725 1.867c1.248 1.12 2.732 2.149 4.192 2.8l.085.038a.94.94 0 0 1-.672 1.753"/>
        <path fill="#3380BF" d="M184.045 363.239c-1.777 1.334-3.825 1.61-4.574.616-.748-.994.086-2.88 1.865-4.215 1.777-1.333 3.825-1.609 4.573-.616.748.994-.087 2.881-1.864 4.215"/>
        <path fill="#C6DFF1" d="M182.27 460.473c-1.057.641-3.386 1.675-7.598-1.731-7.289-5.894-15.055-13.252-15.67-14.437a244.252 244.252 0 0 1-3.553-7.032c-.3-.644-.611-1.293-.91-1.938-.94-2.035-1.835-4.037-2.6-5.956-.716-1.8-1.358-3.513-1.866-5.113-.646-2.063-1.364-4.746-2.122-7.793-.243-1.041-.506-2.132-.754-3.257.123.499.227.977.349 1.448 3.568-3.67 8.65-5.045 11.422-5.531.13.613.27 1.204.41 1.795.912 3.87 1.769 7.211 2.527 9.602.46 1.482 1.073 3.099 1.777 4.796.442 1.096 3.647 11.378 9.174 20.088 2.051 3.235 5.058 7.109 7.167 7.59 1.609.367 4.366-.79 4.427-.766 1.782 2.911.749 6.461-2.18 8.235"/>
        <path fill="#C7DEF0" d="M141.331 355.217l.244 3.037 1.891 3.086.217.353 4.042 6.561.547 1.71-.167-1.084c.823.117-2.958 7.857 3.202 5.664 5.982-2.131 8.166-3.293 10.522-4.148.74-.268 2.179-.953 3.131-.482 1.37.676 2.427 1.905 3.359 2.258 1.102.417 1.887.322 5.773-2.363-.871-1.076-1.306-2.043-1.465-2.915-.573-3.143 1.34-4.147 1.34-4.147s.445 2.506.864 3.76c.654 1.974 1.68 2.177 1.716 2.132.556-.765 1.013-1.497 1.467-2.184.347-.278.718-.422 1.081-.262.541.246 1.256.709 1.948 1.047.683.338 1.19.135 1.355-.854.166-.99-.71-3.362-.173-4.915.298-.87.898-1.259 1.474-1.73.437-.311.829-.597 1.203-.893a25.938 25.938 0 0 0 2.223-1.944c.019-.026.046-.044.065-.07.357-.34.706-.699 1.037-1.058.45-.482.837-.965 1.172-1.44.295-.423.548-.847.763-1.272a8.75 8.75 0 0 0 .89-2.832c.52-3.863-1.725-7.582-4.313-10.78-6.213-7.686-14.214-5.776-19.324-1.448-.54.453-1.053.97-1.55 1.53-1.068 1.202-2.006 2.629-2.813 4.185-.31.593-.63 1.274-.97 2.044a34.08 34.08 0 0 1-4.146 6.087 27.398 27.398 0 0 1-1.49 1.647c-.156.157-4.49 1.144-11.514 1.794-.108.006-.215.014-.322.002l-.278 2.309c-.198.013-.206-2.293-.421-2.298h-.01a41.715 41.715 0 0 1-2.57-.087"/>
        <path fill="#C7DEF0" d="M141.331 355.217l.244 3.037 1.891 3.086.217.353 4.042 6.561.547 1.71-.167-1.084c.823.117-2.958 7.857 3.202 5.664 5.982-2.131 8.166-3.293 10.522-4.148.74-.268 2.179-.953 3.131-.482 1.37.676 2.427 1.905 3.359 2.258 1.102.417 1.887.322 5.773-2.363-.871-1.076-1.306-2.043-1.465-2.915-.573-3.143 1.34-4.147 1.34-4.147s.445 2.506.864 3.76c.654 1.974 1.68 2.177 1.716 2.132.556-.765 1.013-1.497 1.467-2.184.347-.278.718-.422 1.081-.262.541.246 1.256.709 1.948 1.047.683.338 1.19.135 1.355-.854.166-.99-.71-3.362-.173-4.915.298-.87.898-1.259 1.474-1.73.437-.311.829-.597 1.203-.893a25.938 25.938 0 0 0 2.223-1.944c.019-.026.046-.044.065-.07.357-.34.706-.699 1.037-1.058.45-.482.837-.965 1.172-1.44.295-.423.548-.847.763-1.272a8.75 8.75 0 0 0 .89-2.832c.52-3.863-1.725-7.582-4.313-10.78-6.213-7.686-14.214-5.776-19.324-1.448-.54.453-1.053.97-1.55 1.53-1.068 1.202-2.006 2.629-2.813 4.185-.31.593-.63 1.274-.97 2.044a34.08 34.08 0 0 1-4.146 6.087 27.398 27.398 0 0 1-1.49 1.647c-.156.157-4.49 1.144-11.514 1.794-.108.006-.215.014-.322.002l-.278 2.309c-.198.013-.206-2.293-.421-2.298h-.01a41.715 41.715 0 0 1-2.57-.087"/>
        <path fill="#C7DEF0" d="M148.272 369.967l-.098-.309c.007-.057.018-.112.025-.163l.073.472z"/>
        <path fill="#062942" d="M191.73 351.202c-.123.94-.61 1.428-1.569 1.86-.795-.92-1.14-2.045-2.465-4.067-1.434-2.197-2.422-2.95-3.406-2.624-1.26.42-1.078 2.36-4.524 4.033-1.05.511-2.611.986-4.024 1.356-.486.128-.955.243-1.376.345-1.108.26-1.907.416-1.907.416s.356-.996.462-2.182c.069-.797.028-1.681-.313-2.406-.312-.657-.864-1.178-1.797-1.385-2.745-.609-4.092 3.418-3.812 5.633 0 0-7.383 4.617-10.556 1.32 2.876-2.922 4.556-6.029 5.475-7.768.338-.765.668-1.454.97-2.041 1.18-2.277 2.7-4.292 4.368-5.792 8.014-7.228 13.37-6.198 19.583 1.489 2.586 3.198 5.407 7.953 4.891 11.813"/>
        <path fill="#68AEE4" d="M183.744 420.669s-41.439 39.67-42.25 40.263c-.809.594-2.003-.422-3.641-2.194s-3.163-2.819-1.409-4.475c3.947-3.728 39.66-35.167 42.274-37.749 2.121-2.098 5.026 4.155 5.026 4.155"/>
        <path fill="#93C6EA" d="M193.705 426.312l-4.676 4.123s-1.759-1.083-2.44-3.195c-.68-2.113-2.815-4.39-4.682-3.459-1.868.933-2.688 2.428-3.435 1.869-.747-.56-4.82-4.714-4.815-5.315.008-.6 3.605-3.62 2.968-5.08-.638-1.461-11.022-2.323-12.58-2.19-1.559.135.024-2.305 7.354-2.227 7.33.079 11.835 1.53 16.387 7.794 0 0 .013 2.938 1.356 4.105 1.344 1.168 1.95.848 3.15 1.806 1.11.886 1.413 1.77 1.413 1.77"/>
        <path fill="#C6DFF1" d="M161.725 446.6a11.22 11.22 0 0 1-.9 1.156c-2.432 2.803-6.096 4.644-9.876 4.254a10.693 10.693 0 0 1-2.23-.49c-1.49-.516-3.02-2.012-5.18-3.657-1.237-.95-2.688-1.954-4.454-2.857-.02.008-.035.002-.05-.004a22.772 22.772 0 0 0-2.318-1.037c-2.043-.766 5.015-1.79 5.749-3.945.83-2.42-2.864-7.778 1.83-6.153.662.23 1.26.416 1.836.577l.071.03c3.607.993 5.213.644 8.34.857.161.018.323.037.505.046l9.068 6.61c-.355 1.27-1.127 2.8-2.391 4.613"/>
        <path fill="#359CE4" d="M148.399 475.46c-4.075-.166-8.9-1.197-13.636-4.147-8.301-5.164-15.4-7.134-15.4-7.134l-1.682 3.94-10.478-4.131c1.35-3.62 5.543-12.925 10.596-23.652l14.215 4.757c-2.427 5.133-5.175 10.983-6.78 14.746 3.99 1.514 11.19 3.345 18.017 4.513 4.043.7 6.777 4.532 6.073 8.58a7.34 7.34 0 0 1-.925 2.528"/>
        <path fill="#2672B9" d="M28.483 452.341c15.431 11.166 40.997 28.19 52.829 20.214 9.715-6.555 10.452-18.297 6.852-33.171-.875-7.217-3.534-13.68-3.5-20.244a657.258 657.258 0 0 1 7.91-2.402c.637-.19 1.276-.38 1.903-.569.974-.288 1.948-.566 2.9-.844 1.525-.448 3.028-.874 4.51-1.29 4.587-1.3 8.966-2.487 13.03-3.53 0 0 15.906-3.698 17.352-3.922-1.847 5.524-3.641 10.354-7.149 18.028a1031.38 1031.38 0 0 1-5.28 11.323c-.192.425-.384.838-.576 1.231-.373.796-.734 1.56-1.084 2.291-.057.118-.333.768-.378.884l14.146 4.863.23-.534c.069-.159.148-.318.216-.466.112-.234.215-.468.327-.7.137-.298.282-.595.419-.893 1.705-3.618 3.49-7.394 5.232-11.183 2.659-5.764 5.21-11.529 7.262-16.662.057-.15.115-.287.182-.436.331-.85.673-1.722 1.027-2.614v-.012c.206-.542.413-1.094.62-1.648l.481-1.34c.116-.352.242-.702.358-1.054.011-.042.034-.095.046-.138.185-.564.359-1.14.534-1.703.116-.416.234-.82.35-1.236.094-.352.178-.715.261-1.078.024-.086.047-.17.06-.256.071-.277.13-.554.18-.833l.037-.192.001-.032c.062-.32.122-.641.173-.96.05-.3.1-.61.128-.91.037-.235.054-.47.07-.696.026-.17.04-.341.044-.514.017-.278.034-.546.04-.814v-.01a14.87 14.87 0 0 0-.29-3.268 9.52 9.52 0 0 0-.848-2.346 9.604 9.604 0 0 0-.653-1.056 5.88 5.88 0 0 0-.396-.492 3.63 3.63 0 0 0-.273-.306c-.02-.011-.031-.033-.053-.045-.042-.043-.073-.087-.114-.12-.117-.11-.232-.23-.358-.34a3.736 3.736 0 0 0-.38-.32c-.105-.089-.211-.166-.316-.244a5.636 5.636 0 0 0-.53-.365c-.476-.301-.985-.58-1.57-.83-.022-.012-.043-.013-.065-.024-.042-.011-.085-.033-.128-.046-.649-.26-1.408-.46-2.339-.6-2.442-.356-6.054-.225-12.075.816-3.785.657-22.986 4.464-33.126 6.436-.507-.042-2.812-1.932-2.714-2.005-3.356-3.101-11.322-10.846-16.992-19.406-.087.072-.176.156-.263.229-.032.032-.066.052-.087.084-.297.262-.593.534-.89.805-.066.074-.143.136-.22.21l-.714.712c-.044.043-.088.085-.121.127-.275.272-.54.556-.793.84-.397.43-.772.861-1.137 1.303-.166.19-.32.39-.476.58-.364.442-.708.895-1.03 1.359-.2.253-.378.507-.555.77-.245.348-.48.708-.713 1.067-.467.719-.903 1.46-1.319 2.223-.213.381-.416.773-.607 1.155-.202.391-.395.784-.576 1.188a40.423 40.423 0 0 0-1.963 5.006c-4.028 12.51-3.811 22.805-.117 37.283 1.725 6.786 3.36 13.196 3.951 18.325.672 5.786-.358 7.135-.37 7.145-.01 0-12.92-3.578-26.09-10.458-1.519-.793-3.647-1.204-4.841-2.057-2.045 3.395-9.592 10.717-9.592 10.717"/>
        <path fill="#C6DFF1" d="M146.633 447.365a6.14 6.14 0 0 1-1.71-.292 2.95 2.95 0 0 1-.37-.117c-.79-.251-2.764-.909-5.471-1.948-.017.007-.037-.015-.04-.003a155.248 155.248 0 0 1-5.897-2.395 119.598 119.598 0 0 1-7.996-3.748c-1.883-.969-3.64-1.939-5.305-2.926-2.343-1.402-4.468-2.822-6.375-4.262 1.008-4.856 3.445-8.698 5.662-11.334.263.236.543.467.827.686 1.541 1.214 3.283 2.417 5.167 3.58 4.016 2.504 8.674 4.849 13.252 6.822 2.65 1.14 5.282 2.161 7.747 3.014.04.003.048.02.072.03.831.284 1.644.545 2.432.797a6.163 6.163 0 0 1 4.149 4.391 6.078 6.078 0 0 1-.094 3.371c-.84 2.69-3.356 4.388-6.05 4.334"/>
        <path fill="#062942" d="M76.743 373.957c5.35 8.404 18.179 23.039 21.504 26.076.1-.073 1.382-1.145 1.938-1.534 6.91-4.84 9.386-12.573 18.453-16.596-4.103 3.617-8.021 7.667-11.13 11.972-3.896 5.4-6.501 11.24-6.564 17.18a18.453 18.453 0 0 0 .235 3.342c.918 5.834 4.797 11.426 11.573 16.72.233.186.476.374.719.552 1.003-4.858 3.445-8.694 5.655-11.325-3.152-2.636-3.992-5.867-4.182-8.42-.573-7.707 7.58-17.275 14.894-23.22 3.538-2.88 7.253-5.55 10.733-7.852.116.603.23 1.218.355 1.864l11.764-4.567c-.26-1.368-.488-2.607-.689-3.684.92-.28 1.797-.592 2.643-.926l-.066-.42-1.203-19.015c-3.326.683-11.816-.48-29.803 1.194-17.987 1.674-33.692 7.227-46.566 18.43-.087.072-.175.156-.263.23"/>
        <path fill="#68AEE4" d="M113.472 433.599l-.096-.003a1.931 1.931 0 0 1-1.836-2.02c.112-2.324 1.19-5.018 3.197-8.008a32.982 32.982 0 0 1 2.887-3.706 1.935 1.935 0 0 1 2.732-.104c.783.724.83 1.944.104 2.726-1.353 1.463-4.898 5.978-5.059 9.278a1.933 1.933 0 0 1-1.929 1.837M145.874 416.566c-.581 0-1.156-.26-1.536-.756a1.926 1.926 0 0 1 .357-2.703c.274-.21 6.792-5.147 14.077-5.896a1.93 1.93 0 0 1 2.12 1.721 1.93 1.93 0 0 1-1.724 2.117c-6.178.635-12.062 5.075-12.121 5.12-.35.267-.763.397-1.173.397"/>
        <path fill="#062942" d="M118.926 376.855s-25.356 21.956-16.57 41.302l4.229-6.357 16.578-31.746-4.237-3.199z"/>
        <path fill="#C6DFF1" d="M181.85 453.174l12.742-5.012.03-.013a.483.483 0 0 1 .403.875l-12.056 6.37-.078.041a1.247 1.247 0 1 1-1.042-2.261"/>
        <path fill="#C6DFF1" d="M184.351 453.504l19.76-1.174a.967.967 0 0 1 1.022.905.968.968 0 0 1-.863 1.017l-19.682 2.097a1.431 1.431 0 0 1-1.574-1.268 1.43 1.43 0 0 1 1.337-1.577"/>
        <path fill="#C6DFF1" d="M185.655 454.988l22.978 3.953c.525.092.88.59.789 1.116a.97.97 0 0 1-1.071.793l-23.143-2.838a1.53 1.53 0 1 1 .373-3.034c.023.002.051.007.074.01"/>
        <path fill="#C6DFF1" d="M183.956 456.946c2.306.433 4.537.986 6.759 1.704 2.214.718 4.416 1.538 6.51 2.758 1.044.615 2.075 1.33 2.975 2.342.881 1.006 1.624 2.631.98 4.282-.323.823-.997 1.402-1.625 1.734-.64.352-1.288.503-1.912.616-1.257.205-2.443.17-3.658-.026a.65.65 0 0 1 .057-1.29l.042-.002c1.06-.075 2.174-.228 3.146-.506.98-.28 1.795-.805 1.916-1.31.087-.237.072-.637-.04-.968-.108-.335-.325-.692-.627-1.036-.629-.683-1.493-1.291-2.422-1.81-1.88-1.027-3.962-1.84-6.075-2.547a86.734 86.734 0 0 0-6.452-1.84l-.025-.007a1.07 1.07 0 0 1 .451-2.094"/>
        <path fill="#C6DFF1" d="M191.308 461.328c-5.799-1.999-7.799-.868-8.262.216-.463 1.085-.16 3.66 2.17 5.583l-8.633-8.213 3.122-3.217 7.885 1.488 3.718 4.143z"/>
        <path fill="#3380BF" d="M182.054 360.47c-1.778 1.334-3.825 1.61-4.575.616-.748-.994.087-2.88 1.865-4.214 1.777-1.334 3.825-1.61 4.573-.616.748.993-.086 2.88-1.863 4.214"/>
        <path fill="#3380BF" d="M182.55 360.064l-.994.813-7.19-8.773-1.445-1.764c.069-.798.03-1.683-.312-2.408l3.134 3.829 6.808 8.303z"/>
        <path fill="#3380BF" d="M183.913 361.514l-.995.812-3.025-3.69.97-.844z"/>
        <path fill="#062942" d="M186.29 457.778c.125.768 1.741 1.14 3.607.834 1.866-.305 3.276-1.176 3.15-1.942-.126-.768-1.741-1.142-3.608-.835-1.866.306-3.275 1.175-3.15 1.943"/>
        <path fill="#062942" d="M193.582 482.627a.644.644 0 0 1-.634-.536l-4.005-23.757a.643.643 0 0 1 .528-.741.646.646 0 0 1 .742.528l4.005 23.756a.642.642 0 0 1-.636.75M258.996 500.026l.047-.003 44.023-3.852-17.958-30.147a4.795 4.795 0 0 0-6.57-1.665 4.777 4.777 0 0 0-1.667 6.557l10.157 17.052-1.502.13c-.006 0-.012 0-.016.004-3.003.437-10.738 1.604-14.585 2.532-5.814 1.403-12.317 3.642-11.93 9.392"/>
        <path fill="#68B5EB" d="M204.089 290.298l-17.364-3.402 3.406-17.332 17.364 3.403z"/>
        <path fill="#2672B9" d="M244.56 351.231l29.462-.851c.01-.447.719-.276.725-.725.068-4.313.846-8.712.968-13.09.466-16.714 1.23-33.31 1.405-45.22-.048-11.776-.456-13.31-8.125-14.108-7.655-.804-11.153 2.75-14.747 17.081-.853 3.358-3.987 22.187-7.064 40.916-.898 5.47-1.793 10.933-2.623 15.997"/>
        <path fill="#2672B9" d="M278.283 261.467c-.487 7.307-1.394 25.135-1.158 34.817.66 27.036-9.115 23.096-9.115 23.096l-5.087-35.495 15.36-22.418z"/>
        <path fill="#B9DFFC" d="M226.829 245.876l9.93-7.153c.025.315.051.631.08.947a57.685 57.685 0 0 1-.078-.944c-.079-.893-.13-1.79-.185-2.69-.236-3.673-.242-7.391-.242-11.145-.036-3.734.13-7.558.277-11.216v-.147a2.96 2.96 0 0 0-2.265-2.968 2.945 2.945 0 0 0-1.763.134c-.86.346-1.56 1.08-1.777 2.056a35.84 35.84 0 0 0-.313 1.397c-.01.019.007.035 0 .054.167 1.378.042 3.333-.693 6.755-.62 2.835-2.578 16.05-2.971 24.92"/>
        <path fill="#B9DFFC" d="M227.3 196.999c2.386.675 4.784 1.66 6.771 3.078.988.709 1.866 1.56 2.405 2.545.27.49.45 1.01.521 1.542.03.267.042.535.023.806-.018.282-.061.593-.099.89-.384 2.415-1.23 4.854-1.9 7.359-.694 2.502-1.242 5.105-1.407 7.78a1.09 1.09 0 1 0 2.178.134c0-.01 0-.022.002-.032v-.013c.067-2.461.492-4.93 1.086-7.398.568-2.476 1.345-4.94 1.683-7.618.032-.342.065-.669.077-1.028a5.986 5.986 0 0 0-.07-1.115 6.007 6.007 0 0 0-.767-2.063c-.746-1.25-1.814-2.183-2.93-2.935-2.262-1.494-4.736-2.406-7.31-3.049a.574.574 0 0 0-.296 1.108l.033.009z"/>
        <path fill="#B9DFFC" d="M228.985 203.63c1.499.305 3.12 1.03 3.83 2.185.347.571.442 1.228.314 1.918-.14.79-.315 1.629-.494 2.443-.364 1.64-.768 3.277-1.172 4.923-.398 1.658-.826 3.274-1.12 5.054a1.09 1.09 0 0 0 .898 1.252 1.09 1.09 0 0 0 1.255-.898l.006-.044.004-.032c.188-1.575.546-3.259.868-4.909.33-1.66.665-3.328.963-5.01.145-.85.284-1.677.396-2.56.13-.98-.091-2.103-.698-2.942-.598-.845-1.43-1.395-2.266-1.778a9.47 9.47 0 0 0-2.63-.737.573.573 0 0 0-.193 1.128l.04.008z"/>
        <path fill="#B9DFFC" d="M227.562 201.494c1.69.31 3.425.81 4.902 1.599.726.399 1.405.89 1.794 1.475.196.29.313.593.346.903.037.308-.024.604-.112 1.1-.634 3.556-1.09 7.145-1.613 10.667l-.002.011c-.089.595.323 1.15.92 1.237a1.09 1.09 0 0 0 1.239-.917l.006-.054c.354-3.602.63-7.156 1.082-10.697.026-.241.06-.396.081-.71.03-.282.015-.578-.031-.865a3.554 3.554 0 0 0-.675-1.559c-.668-.883-1.541-1.405-2.397-1.833-1.744-.82-3.533-1.238-5.386-1.494a.574.574 0 0 0-.184 1.131l.03.006z"/>
        <path fill="#B9DFFC" d="M226.683 199.536c2.117.327 4.299.863 6.164 1.783.916.46 1.764 1.073 2.164 1.78.35.605.314 1.721.232 2.75-.199 2.111-.671 4.277-1.144 6.432-.478 2.162-1.004 4.325-1.451 6.55a1.455 1.455 0 1 0 2.87.472c.283-2.165.658-4.361.992-6.575.327-2.219.665-4.443.727-6.779.009-.585-.002-1.18-.074-1.803a6.034 6.034 0 0 0-.189-.964c-.082-.335-.262-.7-.44-.997-.796-1.201-1.924-1.826-2.996-2.322-2.194-.942-4.428-1.36-6.72-1.609a.644.644 0 0 0-.169 1.277l.034.005z"/>
        <path fill="#F9E699" d="M205.043 289.812c4.455-33.994 13.304-59.538 19.944-74.98 7.196-16.736 13.418-25.545 13.48-25.631l-3.553-2.528c-.26.366-6.497 9.172-13.867 26.28-6.774 15.722-15.8 41.72-20.33 76.294l4.326.565z"/>
        <path fill="#B9DFFC" d="M233.328 216.139a1.402 1.402 0 0 1-.847.08c-.457-.09-1.764 2.046-1.771-.637 0-.37-.082-.845-.21-1.39.004-.013-.008-.03-.005-.044-.161-.744-.43-1.613-.755-2.507.003-.015-.008-.032-.02-.05-1.087-3.135-2.696-6.628-2.696-6.628a1.45 1.45 0 0 1 .77-1.903c.742-.295 1.594.04 1.904.783l2.89 6.845 1.51 3.547a1.436 1.436 0 0 1-.77 1.904"/>
        <path fill="#FFF" d="M238.637 189.86a.542.542 0 0 1-.305-.093l-4.025-2.723a.545.545 0 1 1 .613-.9l4.024 2.721a.544.544 0 0 1-.307.995"/>
        <path fill="#B9DFFC" d="M255.708 259.426c.708 1.71 2.5 2.548 3.725 3.429l.63.472c.952.697 1.773 1.448 2.202 2.626.166.411.262.848.324 1.354.48 1.998-.368 6.335-1.61 11.022l16.465-2.103c.034-.654.087-1.292.13-1.903l.027-.227c.149-2.059.367-3.805.655-5.332.83-4.652 2.239-7.244 4.337-9.967.044-.052.08-.087.105-.139.158-.175.298-.367.437-.541a19.916 19.916 0 0 0 2.02-3.387c2.343-5 1.932-10.08-2.772-12.742-4.957-2.819-9.989-5.458-16.048.921-.312.375-.73.9-.953 1.344-.227.454-.278.691-.459 1.008-.184.376-.385.777-.708 1.143-.21.254-.5.547-.875.705-.254.113-.602.199-1.086.32-1.06.302-2.113.631-2.768.71-.734.096-.717.497-.428.812.288.367 1.423.438 1.747.787l.008.009c.097.096.167.174.228.235l-.123.123-1.573 1.745-.586.628h.009c.375.045.717.089 1.032.149 1.346.21 2.194.428 2.194.594-.026.139-.665.2-1.687.2-.63 0-1.4-.035-2.256-.079-.044.036-.08.08-.123.123-.052.061-.113.13-.165.21-.123.139-.237.287-.368.454-.254.322-.516.68-.76 1.064-.84 1.326-1.47 2.915-.927 4.233"/>
        <path fill="#F4F4F5" d="M272.136 263.547c.13.236.268.455.415.666.618.967 1.398 1.754 2.196 2.42.244.204.497.398.74.585.863.6 1.692 1.047 2.384 1.363.13.074.269.13.39.187.838-4.653 2.237-7.243 4.344-9.971.041-.05.073-.09.107-.139.154-.178.292-.357.43-.535a21.452 21.452 0 0 0 2.018-3.386l-13.431-11.97c.106.245 1.576 2.53-.295 6.35-1.088 2.221-1.581 4.91-1.19 5.625 1.344-.732 4.06-1.728 4.12.385.032 1.082-2.033 1.09-3.081 1.22a5.49 5.49 0 0 0-.066.366c-.471 2.85-.057 5.072.919 6.834"/>
        <path fill="#68B1E7" d="M285.19 256.193c-4.362-3.655-7.31-6.654-10.87-9.962-2.37-2.225-4.843-4.455-7.905-6.774 6.478-6.22 10.796-11.142 17.047-6.389.014.003.011.017.026.02 6.244 4.78 7.947 16.794 1.702 23.105"/>
        <path fill="#005DA7" d="M283.487 233.088c-1.648 5.37-7.48 11.468-9.167 13.143-2.37-2.225-4.483-4.823-7.546-7.142 6.479-6.22 10.437-10.774 16.687-6.02.015.002.012.016.026.019"/>
        <path fill="#CDE6F8" d="M285.057 255.972a.726.726 0 0 0 .44-1.304c-5.924-4.481-12.832-10.887-18.928-16.54-2.95-2.736-5.739-5.322-8.134-7.428a.728.728 0 0 0-.962 1.09c2.381 2.093 5.162 4.673 8.107 7.402 6.12 5.675 13.056 12.107 19.04 16.632a.727.727 0 0 0 .437.148"/>
        <path fill="#359CE4" d="M269.27 246.585c.126.01.29-.324.323-.914.047-.576-.125-1.477-.764-2.208-.624-.742-1.458-1.049-2.029-1.143-.584-.09-.955.013-.964.15-.05.28 1.309.563 2.232 1.64.463.525.694 1.151.823 1.641.14.485.23.827.38.834"/>
        <path fill="#164B9B" d="M268.366 247.25c-.045-.07-.28 0-.64.075-.354.072-.857.137-1.258-.096-.385-.17-.405-.681-.403-1.042.01-.365.036-.612-.043-.642-.074-.03-.25.17-.376.573-.06.202-.11.459-.067.77.016.154.079.322.173.483.104.152.264.308.422.381.67.366 1.343.156 1.696-.028.375-.196.541-.407.496-.473"/>
        <path fill="#68B5EB" d="M230.495 214.147c-.16-.743-.43-1.612-.755-2.506.325.746.628 1.444.755 2.506"/>
        <path fill="#005DA7" d="M261.744 275.309c-.71 3.07-2.544 9.292-4.525 15.721a83.878 83.878 0 0 1-3.322-2.284 129.559 129.559 0 0 1-9.57-7.567c-3.09-2.695-6.08-5.592-8.852-8.845a50.689 50.689 0 0 1-3.89-5.27c-.17-.256-.34-.527-.515-.83l-.415-.735a16.731 16.731 0 0 1-.82-1.675c-.529-1.128-.887-2.222-1.23-3.313-1.297-4.378-1.912-8.53-1.846-12.605.013-.65.03-1.326.069-2.03l9.931-7.154c.216 2.754.513 5.465.907 8.077.55 3.443 1.356 6.804 2.523 9.468.203.395.384.817.577 1.182.106.214.228.415.342.587.165.284.324.524.493.72l.23.329.344.424a38.61 38.61 0 0 0 3.193 3.516c2.369 2.297 5.087 4.488 7.962 6.563 2.01 1.5 4.109 2.943 6.246 4.337.72.47 1.442.941 2.168 1.384"/>
        <path fill="#B9DFFC" d="M219.534 300.656a1.46 1.46 0 0 1-2 .13c-1.746-1.49-3.133-3.074-4.317-4.925a17.35 17.35 0 0 1-2.52-6.105c-.11-.556-.158-1.128-.24-1.678a7.383 7.383 0 0 0-.19-1.267 10.395 10.395 0 0 0-.945-2.515c-.745-1.454-1.782-2.863-2.918-4.068l.363-2.163c.143.028.28.085.397.168a17.543 17.543 0 0 1 4.453 4.761c.58.946 1.053 1.99 1.375 3.106.174.538.276 1.137.367 1.718.084.46.115.897.234 1.335.396 1.783 1.182 3.48 2.197 5.062 1.004 1.566 2.28 3.11 3.593 4.323l.074.074a1.44 1.44 0 0 1 .077 2.044"/>
        <path fill="#B9DFFC" d="M205.643 292.153c3.521 6.369 7.4 12.434 11.6 18.376.23.325.462.653.707.985l6.643-9.906c-4.452-4.477-8.892-9.072-13.452-13.543l-.034-.039a3.466 3.466 0 0 0-4.103-.557 3.46 3.46 0 0 0-1.361 4.684"/>
        <path fill="#B9DFFC" d="M202.102 274.06c.485 1.747 1.504 3.598 2.525 5.28a57.127 57.127 0 0 0 3.437 4.951 93.1 93.1 0 0 0 3.845 4.673 154.143 154.143 0 0 0 4.11 4.459l.012.013c.55.577.526 1.49-.051 2.037a1.445 1.445 0 0 1-2.105-.122 157.411 157.411 0 0 1-3.885-4.82 94.58 94.58 0 0 1-3.615-5.038 58.636 58.636 0 0 1-3.2-5.333c-.953-1.874-1.863-3.683-2.323-5.916a.626.626 0 0 1 1.218-.296l.032.112z"/>
        <path fill="#B9DFFC" d="M200.361 275.836c.588 1.82 1.637 3.731 2.704 5.49a61.298 61.298 0 0 0 3.552 5.17c1.255 1.68 2.6 3.295 3.963 4.894a154.05 154.05 0 0 0 4.25 4.664l.01.01c.56.594.533 1.53-.06 2.089a1.481 1.481 0 0 1-2.147-.123 157.746 157.746 0 0 1-4.068-5.003c-1.3-1.713-2.581-3.441-3.774-5.238a62.972 62.972 0 0 1-3.357-5.537c-1.015-1.936-1.963-3.82-2.556-6.09a.755.755 0 0 1 1.45-.423l.033.097zM200.18 285.701c.42.743 1.147 1.642 1.802 2.418.68.798 1.364 1.602 2.08 2.38a134.43 134.43 0 0 0 4.403 4.581c.758.766 1.507 1.44 2.28 2.293a51.237 51.237 0 0 1 2.101 2.51c1.327 1.703 2.57 3.444 3.785 5.192l.006.009c.343.493.22 1.173-.274 1.515a1.095 1.095 0 0 1-1.494-.24l-3.834-5.084c-1.251-1.727-2.586-3.176-4.052-4.802a134.873 134.873 0 0 1-4.165-4.919c-.668-.843-1.342-1.686-1.954-2.583-.618-.929-1.207-1.73-1.714-2.91a.538.538 0 0 1 .961-.479l.068.12z"/>
        <path fill="#B9DFFC" d="M198.99 279.476c.295.84.913 1.882 1.508 2.772.604.923 1.278 1.812 1.958 2.693 1.38 1.752 2.871 3.427 4.384 5.08 3.06 3.28 6.292 6.409 9.593 9.466.656.602.699 1.62.094 2.276a1.616 1.616 0 0 1-2.37.005c-3.104-3.337-6.136-6.746-8.994-10.31-1.414-1.798-2.803-3.614-4.085-5.52-.633-.96-1.257-1.926-1.819-2.941-.562-1.044-1.099-1.98-1.444-3.312a.59.59 0 1 1 1.127-.345l.048.136z"/>
        <path fill="#005DA7" d="M269.877 294.253c-3.58 6.417-7.52 12.408-11.922 18.334a115.604 115.604 0 0 1-7.099 8.776c-1.345 1.447-2.72 2.889-4.513 4.423-.942.773-1.873 1.563-3.651 2.51-.495.24-1.006.493-1.75.728a10.09 10.09 0 0 1-1.265.308c-.45.103-1.143.156-1.708.16-.544-.021-1.244-.088-1.654-.185-.396-.095-.904-.226-1.166-.323-.696-.229-1.152-.469-1.61-.694-1.631-.891-2.528-1.664-3.415-2.42a32.453 32.453 0 0 1-2.312-2.212 59.699 59.699 0 0 1-3.872-4.334 147.428 147.428 0 0 1-5.99-7.81l6.644-9.904c.504.516.996 1.015 1.504 1.516 2.485 2.456 4.938 4.934 7.43 7.213 1.257 1.125 2.481 2.26 3.681 3.228.076.06.151.134.23.18.615-.691 1.28-1.49 1.932-2.292 2.054-2.46 4.055-5.24 6.082-8.002 4.015-5.561 8.038-11.371 12.13-16.946l.064-.09a7.287 7.287 0 0 1 6.645-2.929s1.63.263 2.904 1.048c1.483.916 2.442 2.234 2.442 2.234l.011.017a7.276 7.276 0 0 1 .228 7.466M278.045 277.417l-17.78 2.497c.308-1.005.605-2.041.9-3.063l16.987-2.389c-.042.939-.074 1.909-.107 2.955"/>
        <path fill="#F4F4F5" d="M271.878 253.364s-4.796 15.799 1.018 18.983c5.814 3.186 10.14.071 10.14-2.83 0-2.903-3.333-5.096-1.56-8.07 1.773-2.972 2.695-5.804 2.695-5.804l-12.293-2.28zM261.023 259.885c.236 0 .469-.102.63-.298.082-.1 2.015-2.49 2.015-5.386 0-2.683-2.22-3.562-3.396-3.652a.811.811 0 0 0-.874.748.814.814 0 0 0 .745.872c.319.028 1.897.263 1.897 2.032 0 2.323-1.63 4.338-1.647 4.359a.81.81 0 0 0 .63 1.325"/>
        <path fill="#9ACDF1" d="M275.484 481.923l17.082-9.367a693.175 693.175 0 0 1-13.442-25.949c-11.985-24.49-12.8-30.938-12.853-31.854.787-9.075 6.345-48.345 9.294-67.092l-19.059-1.408c-.354 2.254-8.692 55.336-9.67 67.035-.405 4.863.98 13.53 14.327 40.938 7.014 14.403 14.026 27.161 14.32 27.697"/>
        <path fill="#062942" d="M234.554 510.072l.048-.003 44.023-3.853-17.96-30.146a4.794 4.794 0 0 0-6.568-1.665 4.777 4.777 0 0 0-1.667 6.557l10.157 17.052-1.502.13c-.006 0-.012 0-.017.003-3.002.438-10.738 1.604-14.584 2.533-5.815 1.403-12.317 3.642-11.93 9.392"/>
        <path fill="#CDE6F8" d="M239.178 465.29c-12.186-27.396-13.422-35.971-13.023-40.747 1.006-12.055 17.244-70.254 19.092-76.85l18.768 5.239c-6.759 24.128-17.703 65.188-18.43 73.128.023.835.602 7.146 11.731 32.067a716.93 716.93 0 0 0 12.413 26.227l-17.415 8.733a720.166 720.166 0 0 1-13.136-27.798z"/>
        <path fill="#CDE6F8" d="M275.728 343.532a74.885 74.885 0 0 1-.225 4.7c-.377 4.826-2.375 8.65-5.004 13.046l-.189.319c-2.301 3.831-5.062 8.116-7.636 13.883-3.995 8.942-7.383 13.955-15.25 40.294l3.267-31.958-1.674-8.89-.138-.744-4.317-22.95c.831-5.065 1.724-10.527 2.62-15.996l4.475.21.38.014 8.207.385.37.017 15.1.703c-.052 1.788.065 4.035.014 6.967"/>
        <path fill="#003F91" d="M339.133 298.539l3.204-1.236 3.39 4.456-1.125 1.58h-5.067l-.989-2.277z"/>
    </g>
</svg>
