<svg xmlns="http://www.w3.org/2000/svg" width="261" height="468" viewBox="0 0 261 468">
    <g fill="none" fill-rule="evenodd">
        <path fill="#164B9F" d="M170.308 46.114s.034.42.093 1.224c.006.016.01.033.009.072.052.788.135 1.94.26 3.396.117 1.477.26 3.302.413 5.386.121 2.08.05 4.416.075 6.992.003 1.283.004 2.604.013 3.997-.094 1.365-.198 2.79-.29 4.247-.219 2.911-.343 6.008-.863 9.13-.436 3.14-.828 6.412-1.552 9.626-.333 1.621-.666 3.244-1.008 4.888-.365 1.618-.83 3.223-1.247 4.826-.45 1.598-.805 3.25-1.319 4.8-.508 1.568-1.022 3.12-1.522 4.665a64.27 64.27 0 0 1-1.6 4.53c-.574 1.465-1.12 2.918-1.674 4.356-1.212 2.788-2.33 5.536-3.553 8.027-1.202 2.501-2.363 4.852-3.534 6.944-1.11 2.138-2.262 4.012-3.23 5.692-1.041 1.655-1.918 3.105-2.72 4.275-.39.59-.744 1.106-1.04 1.56-.352.478-.64.87-.87 1.2-.45.599-.68.928-.68.928-2.1 2.846-5.802 3.027-8.271.43-2.476-2.614-2.775-7.032-.689-9.872.043-.057.078-.091.107-.142l.135-.154s.214-.285.607-.781c.184-.234.413-.525.67-.867.274-.386.59-.83.955-1.314.71-.979 1.55-2.26 2.511-3.691.913-1.484 2.004-3.124 3.072-5.018 1.126-1.863 2.232-3.962 3.399-6.202 1.193-2.214 2.254-4.671 3.456-7.173.531-1.276 1.077-2.596 1.623-3.917a44.653 44.653 0 0 0 1.585-4.07c.51-1.38.996-2.786 1.513-4.188.519-1.403.875-2.866 1.33-4.315.41-1.448.883-2.888 1.26-4.34.35-1.479.693-2.935 1.03-4.408.758-2.888 1.183-5.835 1.666-8.657.563-2.82.747-5.603 1.014-8.234l.366-3.846c.041-1.246.06-2.463.103-3.614.03-2.319.124-4.46.118-6.343-.043-11.81.543-14.274 3.642-14.997 1.304-.305 2.726.324 3.523 1.368.665.87 1.014 2.383 1.114 3.584"/>
        <path fill="#164B9F" d="M136.667 138.094a1.99 1.99 0 0 1-.093.119c-1.727 2.351-1.466 6.023.583 8.186.936.984 2.102 1.487 3.287 1.413 1.14-.07 2.188-.677 2.953-1.707.051-.073.281-.397.683-.932.23-.325.51-.712.853-1.177.158-.243.333-.504.522-.783.159-.237.327-.487.504-.754.58-.849 1.189-1.825 1.893-2.956l.794-1.27c.246-.427.504-.866.77-1.318.792-1.348 1.611-2.742 2.42-4.302l.02-.037c1.202-2.145 2.391-4.57 3.497-6.87.888-1.812 1.712-3.739 2.584-5.777.308-.722.62-1.45.936-2.18.19-.49.378-.983.566-1.477.362-.947.727-1.901 1.102-2.86a63.677 63.677 0 0 0 1.568-4.438c.263-.813.524-1.612.787-2.415.246-.752.494-1.507.74-2.266.31-.94.558-1.904.82-2.924.154-.6.312-1.218.484-1.828.124-.476.259-.979.394-1.481.29-1.076.59-2.19.836-3.278.333-1.606.663-3.212.993-4.817l.01-.047c.604-2.683.975-5.42 1.336-8.066.066-.495.133-.986.201-1.476l.005-.035c.4-2.393.56-4.796.717-7.12.042-.637.085-1.268.132-1.892.064-.996.133-1.992.2-2.963l.087-1.227c-.008-1.081-.01-2.12-.012-3.132l-.002-.82c-.009-.869-.006-1.72-.003-2.544.005-1.563.008-3.04-.07-4.374a956.763 956.763 0 0 0-.41-5.36 185.269 185.269 0 0 1-.254-3.294l-.004-.011-.012-.172c-.057-.791-.091-1.205-.091-1.205-.1-1.202-.44-2.365-.849-2.897-.523-.685-1.438-1.057-2.172-.885-1.938.452-2.666 1.752-2.623 13.71.003 1.122-.027 2.325-.059 3.598-.023.888-.046 1.812-.06 2.766-.022.643-.037 1.275-.054 1.92-.014.565-.029 1.14-.048 1.72l-.005.083c-.12 1.242-.242 2.523-.366 3.843-.055.551-.106 1.098-.159 1.651-.204 2.165-.414 4.403-.87 6.699-.09.524-.179 1.052-.266 1.584-.388 2.336-.79 4.752-1.417 7.147-.336 1.47-.679 2.923-1.03 4.4a70.01 70.01 0 0 1-.767 2.68c-.172.57-.343 1.141-.505 1.713l-.01.035a65.494 65.494 0 0 0-.461 1.552c-.268.928-.544 1.887-.89 2.826-.256.695-.505 1.39-.753 2.084-.25.699-.498 1.394-.752 2.082-.427 1.295-.943 2.619-1.624 4.167l-.109.264c-.506 1.224-1.011 2.445-1.503 3.627l-.03.066c-.394.821-.774 1.64-1.149 2.445-.78 1.679-1.518 3.265-2.334 4.781-1.195 2.294-2.285 4.36-3.42 6.242-.754 1.334-1.528 2.56-2.211 3.643-.306.483-.6.949-.877 1.4l-.03.045-.635.95c-.719 1.075-1.34 2.004-1.903 2.78a49.43 49.43 0 0 0-.945 1.301l-.024.032c-.265.352-.5.65-.69.892a45.72 45.72 0 0 0-.587.756l-.139.165zm3.543 12.362c-1.835 0-3.585-.787-4.97-2.244-2.934-3.097-3.283-8.173-.796-11.559l.063-.08.03-.052.188-.215c.072-.097.277-.364.596-.767.177-.224.395-.501.64-.826.287-.407.603-.85.966-1.33.52-.717 1.128-1.626 1.832-2.68l.624-.93c.278-.454.574-.921.88-1.406.702-1.113 1.429-2.264 2.152-3.548l.02-.034c1.1-1.821 2.172-3.854 3.36-6.13.787-1.463 1.508-3.016 2.272-4.659.374-.805.754-1.621 1.149-2.443.487-1.171.986-2.379 1.487-3.59l.12-.291c.662-1.505 1.151-2.76 1.552-3.979l.016-.045c.254-.687.501-1.381.75-2.077.25-.703.503-1.408.763-2.112.313-.848.564-1.72.83-2.642.153-.53.307-1.061.473-1.592.164-.58.338-1.158.512-1.737.252-.84.514-1.71.734-2.556.343-1.45.686-2.903 1.022-4.374l.01-.04c.6-2.284.992-4.647 1.371-6.931.09-.541.18-1.08.271-1.613l.007-.035c.432-2.17.637-4.346.835-6.449.052-.56.104-1.114.16-1.661.122-1.298.243-2.566.361-3.798.018-.559.032-1.113.045-1.657.017-.655.034-1.297.056-1.92.013-.936.036-1.87.059-2.768.032-1.254.061-2.437.058-3.521-.04-11.25.333-15.275 4.662-16.287 1.755-.412 3.714.334 4.873 1.852 1.038 1.357 1.311 3.441 1.381 4.274v.001s.033.392.087 1.148c.012.071.018.144.02.218.047.717.13 1.861.255 3.322.118 1.487.26 3.315.414 5.403.083 1.434.08 2.95.074 4.555-.002.813-.005 1.652.004 2.52l.002.83c.002 1.024.004 2.075.012 3.17v.05l-.092 1.33c-.068.964-.137 1.955-.201 2.96-.048.632-.09 1.256-.132 1.888-.16 2.38-.325 4.841-.743 7.357-.068.48-.133.963-.199 1.45-.367 2.703-.746 5.497-1.37 8.267l-.004.021c-.33 1.608-.66 3.216-1 4.846-.262 1.163-.57 2.303-.867 3.405-.133.495-.266.99-.395 1.485-.17.604-.326 1.209-.475 1.792-.261 1.02-.532 2.072-.868 3.09-.244.754-.492 1.511-.74 2.267-.261.799-.522 1.595-.78 2.39a65.161 65.161 0 0 1-1.625 4.604c-.373.952-.735 1.898-1.094 2.839-.193.505-.385 1.008-.578 1.509l-.022.053c-.318.733-.632 1.465-.94 2.19-.887 2.07-1.723 4.027-2.638 5.892-1.117 2.324-2.324 4.785-3.558 6.988-.838 1.615-1.709 3.096-2.477 4.405-.267.454-.525.894-.772 1.322l-.026.042-.802 1.283c-.72 1.156-1.342 2.155-1.944 3.034l-.502.751c-.189.282-.365.544-.525.787l-.04.06c-.345.467-.625.851-.85 1.174l-.028.038c-.425.563-.645.878-.654.89l-.019.027c-1.237 1.676-2.985 2.666-4.923 2.787a6.281 6.281 0 0 1-.4.012z"/>
        <path fill="#164B9F" d="M259.994 273.657l.223 193.47s-80.708-167.56-97.268-200.626c-18.486-36.912-52-101.455-70.643-127.214-4.302-5.943-9.592-11.66-11.224-13.843l16.751 4.183 2.52-.353h.057l18.88-2.83 2.563-.698 5.88-1.468 9.261-1.67.801-.191.116-.004.642.498.97-.14 2.689-.466.06-.003 4.454-3.211.398-.182 2.084-1.543.108-2.582 4.209-1.483 6.26-2.223.12-.004 5.436-8.357c-.43 1.156-3.045 12.695-3.236 23.479-.442 24.851 58.43 91.52 97.89 147.461"/>
        <path fill="#164B9F" d="M138.205 117.482c.121.383.243.767.342 1.14.258.912.487 1.797.694 2.67.83 3.607 1.156 6.745 1.048 9.464-.047 1.71-.282 3.266-.654 4.648a18.141 18.141 0 0 1-.495 1.501c-.167.415-.338.812-.522 1.177-1.06 2.153-2.584 3.75-4.422 4.846-.603.387-1.254.697-1.923.959-3.92 1.519-8.832 1.239-13.716-.502-7.347-2.614-13.787-3.26-16.89-12.944-1.033-3.248-6.361.976-9.059-.004-3.191-1.158-3.146-20.439-3.146-20.439 5.448 7.626 14.596 9.728 19.726 5.043 7.846-7.164 9.38-21.724 3.216-56.024l4.3-17.385s10.466 18.188 14.485 56.813c.562 5.403 1.71 6.64 1.853 7.504 1.226 7.385 3.24 5.29 5.163 11.533M163.1 95.707c-2.824 10.583-8.025 31.591-.538 65.3l-17.836-38.493 15.464-26.238 2.91-.569z"/>
        <path fill="#164B9F" d="M126.278 139.742c-.285.034-.377.039-.543.054l-.424.033-.8.047c-.518.025-1.03.044-1.531.053-1.008.02-2 .015-2.986-.011a66.795 66.795 0 0 1-5.883-.424c-3.904-.46-7.801-1.258-11.635-2.509-3.83-1.246-7.6-2.95-11.104-5.21-3.505-2.251-6.72-5.075-9.38-8.326a40.446 40.446 0 0 1-6.22-10.674 44.361 44.361 0 0 1-1.832-5.703c-.262-.954-.435-1.914-.643-2.87l-.246-1.433a25.03 25.03 0 0 1-.215-1.432c-.515-3.813-.65-7.585-.523-11.285.138-3.699.528-7.328 1.09-10.894a5.53 5.53 0 0 1 6.322-4.597 5.524 5.524 0 0 1 4.658 5.843l-.004.059c-.24 3.225-.317 6.428-.176 9.568.148 3.137.526 6.207 1.169 9.132.072.37.162.73.257 1.09l.276 1.076c.222.699.403 1.414.658 2.09a30.887 30.887 0 0 0 1.637 3.942 25.966 25.966 0 0 0 2.098 3.547 25.335 25.335 0 0 0 2.543 3.095 25.529 25.529 0 0 0 6.356 4.73c2.372 1.258 4.98 2.195 7.728 2.842 2.747.65 5.635 1.004 8.555 1.102 1.46.048 2.929.035 4.38-.047a43.376 43.376 0 0 0 3.178-.293l.48-.07.214-.036c.046-.009.166-.029.094-.024 4.85-.675 9.33 2.702 10.008 7.544.677 4.841-2.706 9.315-7.556 9.991"/>
        <path fill="#164B9F" d="M123.207 120.16l.308 2.092.216-.03-.42-2.09c-.034.008-.07.018-.104.028zm-.43.189l.259 1.966.48-.063-.35-2.079a2.034 2.034 0 0 0-.389.176zm-.03.018a2.147 2.147 0 0 0-1.025 2.124l1.313-.176-.288-1.948zm-47.343-16.573c.058.267.113.535.17.803.136.666.267 1.295.435 1.91l.016.059a42.413 42.413 0 0 0 1.745 5.426 38.063 38.063 0 0 0 5.889 10.109c2.45 2.994 5.52 5.719 8.874 7.873 3.163 2.04 6.73 3.712 10.608 4.975 3.495 1.14 7.27 1.953 11.22 2.416 1.913.222 3.829.361 5.691.411a60.17 60.17 0 0 0 2.883.012c.43-.008.897-.024 1.475-.051l1.245-.085a8.86 8.86 0 0 0 .346-.034 6.683 6.683 0 0 0 4.416-2.6 6.661 6.661 0 0 0 1.292-4.971 6.664 6.664 0 0 0-2.607-4.428 6.688 6.688 0 0 0-4.856-1.307c-.027.007-.056.013-.084.018l-.332.056-.513.076a46.475 46.475 0 0 1-3.338.307 51.236 51.236 0 0 1-4.569.05c-3.162-.107-6.182-.497-8.98-1.16-3-.706-5.773-1.726-8.239-3.034a27.735 27.735 0 0 1-6.887-5.126 27.523 27.523 0 0 1-2.764-3.364 28.248 28.248 0 0 1-2.27-3.838 32.977 32.977 0 0 1-1.732-4.167c-.187-.501-.331-.994-.472-1.471-.068-.229-.135-.458-.207-.686l-.033-.113-.276-1.078a18.493 18.493 0 0 1-.279-1.184c-.646-2.944-1.054-6.129-1.212-9.466-.138-3.075-.077-6.38.18-9.828l.006-.07c.123-1.717-1.13-3.287-2.853-3.558a3.366 3.366 0 0 0-2.52.608 3.358 3.358 0 0 0-1.35 2.207c-.59 3.748-.938 7.229-1.064 10.64-.133 3.845.032 7.419.504 10.92l.005.041c.053.46.13.919.198 1.308l.239 1.394zm46.348 38.29a69.453 69.453 0 0 1-7.889-.463c-4.236-.498-8.29-1.372-12.054-2.6-4.227-1.376-8.131-3.208-11.602-5.446-3.778-2.427-7.101-5.378-9.877-8.772a42.32 42.32 0 0 1-6.557-11.248 46.833 46.833 0 0 1-1.91-5.947c-.2-.734-.349-1.45-.493-2.144a81.208 81.208 0 0 0-.17-.805l-.018-.095-.246-1.434c-.072-.41-.164-.962-.23-1.526-.495-3.686-.677-7.596-.537-11.625.133-3.59.497-7.236 1.114-11.153a7.615 7.615 0 0 1 3.063-5.005 7.639 7.639 0 0 1 5.712-1.377c3.908.614 6.749 4.177 6.466 8.113l-.006.075c-.244 3.27-.302 6.403-.172 9.303.147 3.1.524 6.053 1.122 8.769l.01.052c.063.32.145.645.226.948l.266 1.038c.073.235.143.471.213.708.128.435.25.847.389 1.217l.027.08a28.841 28.841 0 0 0 1.527 3.67 24.044 24.044 0 0 0 1.93 3.263 23.382 23.382 0 0 0 2.328 2.835 23.444 23.444 0 0 0 5.819 4.325c2.142 1.137 4.57 2.028 7.214 2.65 2.525.597 5.26.95 8.136 1.047 1.424.046 2.833.03 4.185-.046a42.69 42.69 0 0 0 2.046-.162c.335-.033.65-.073.958-.113l.642-.1-.02.004.012-.002.355 2.104.028-.003-.23-2.134a11.27 11.27 0 0 1 1.34-.105l.823-.063.011.079a10.95 10.95 0 0 1 5.985 2.204 10.915 10.915 0 0 1 4.27 7.254 10.909 10.909 0 0 1-2.117 8.146 10.944 10.944 0 0 1-7.267 4.263l-.041.006c-.256.03-.378.04-.51.052l-.584.046-.8.048a62.4 62.4 0 0 1-2.888.07z"/>
        <path fill="#164B9F" d="M117.75 104.697c-.084-1.041-.19-2.18-.296-3.277l-.335-3.33a429.797 429.797 0 0 0-.752-6.664 400.476 400.476 0 0 0-1.822-13.282 282.044 282.044 0 0 0-2.333-13.129c-.886-4.33-1.886-8.623-3.11-12.756-.615-2.06-1.277-4.093-2.034-6.014a46.21 46.21 0 0 0-1.194-2.789 27.942 27.942 0 0 0-1.332-2.474 11.496 11.496 0 0 0-1.368-1.837c-.106-.12-.198-.185-.292-.29-.087-.078-.16-.13-.232-.203-.118-.073-.193-.152-.177-.152l.004-.013c.003-.006.012-.015-.045-.018l-.238-.033c-.16-.021-.32-.063-.479-.08-.308.01-.628-.056-.933 0-.625.017-1.253.2-1.914.466-.165.076-.33.146-.5.218l-.5.288c-.171.084-.338.204-.505.323-.167.121-.34.223-.508.356-.33.279-.674.528-.997.853-.163.158-.335.297-.494.47l-.48.507c-1.282 1.382-2.436 3.067-3.492 4.844a50.117 50.117 0 0 0-2.818 5.682 59.19 59.19 0 0 0-1.712 4.525l-.245.758-.219.716-.051.166a3.312 3.312 0 0 1-4.135 2.193 3.318 3.318 0 0 1-2.268-3.853l.201-.935.206-.885c.143-.584.291-1.165.447-1.743a65.369 65.369 0 0 1 1.031-3.445 57.633 57.633 0 0 1 2.687-6.78c1.082-2.229 2.316-4.443 3.95-6.556l.628-.786c.208-.263.451-.514.677-.77.443-.518.967-1.005 1.474-1.496.258-.243.55-.472.827-.706.278-.234.559-.467.875-.677l.928-.643 1.01-.577c.172-.093.334-.195.516-.276l.547-.244c.37-.154.725-.333 1.114-.454.389-.125.78-.246 1.171-.362.391-.123.805-.174 1.21-.256.812-.18 1.638-.19 2.465-.239.41 0 .814.032 1.222.053l.611.042c.086.002.234.027.376.053l.42.079c.576.1 1.078.275 1.588.459.264.089.484.197.713.306.228.109.454.222.68.337.401.239.813.49 1.182.749.341.26.714.528 1.02.798 1.262 1.087 2.23 2.215 3.063 3.329a37.759 37.759 0 0 1 2.204 3.35 56.776 56.776 0 0 1 1.783 3.343c1.1 2.227 2.036 4.455 2.911 6.686 1.738 4.461 3.178 8.934 4.496 13.418a293.438 293.438 0 0 1 3.58 13.483 413.775 413.775 0 0 1 3.03 13.545c.467 2.264.918 4.53 1.35 6.803l.637 3.417c.208 1.153.409 2.265.61 3.478l.002.017c.712 4.29-2.195 8.342-6.49 9.051-4.297.71-8.355-2.192-9.066-6.48a8.77 8.77 0 0 1-.08-.657"/>
        <path fill="#164B9F" d="M119.066 104.59c.016.186.04.38.067.547.59 3.566 3.974 5.987 7.547 5.397a6.521 6.521 0 0 0 4.265-2.65 6.505 6.505 0 0 0 1.14-4.886c-.2-1.204-.395-2.286-.61-3.476l-.635-3.41c-.43-2.254-.883-4.536-1.347-6.778a412.452 412.452 0 0 0-3.02-13.501c-1.18-4.876-2.346-9.267-3.563-13.423-1.523-5.18-2.94-9.41-4.46-13.31-1.015-2.59-1.926-4.683-2.865-6.582a55.167 55.167 0 0 0-1.744-3.27 35.964 35.964 0 0 0-2.118-3.219c-.931-1.244-1.843-2.236-2.866-3.117-.21-.186-.469-.38-.718-.567l-.217-.163c-.32-.224-.69-.45-1.046-.661a24.325 24.325 0 0 0-.609-.302l-.06-.03c-.181-.085-.338-.16-.503-.216-.5-.18-.927-.328-1.395-.41l-.437-.082c-.058-.01-.127-.023-.182-.03l-.04-.003-.903-.058c-.28-.017-.545-.032-.8-.033l-.42.021c-.638.033-1.242.064-1.8.186-.154.032-.288.056-.423.08a5.827 5.827 0 0 0-.672.146c-.406.121-.786.238-1.164.36-.21.065-.422.159-.645.257-.117.052-.234.104-.353.153l-.531.237c-.08.035-.156.08-.233.123l-.18.102-.946.539-.881.61a8.698 8.698 0 0 0-.777.603l-.268.223c-.183.152-.355.295-.503.434l-.247.238c-.412.397-.803.772-1.129 1.155-.09.102-.171.191-.253.281a9.24 9.24 0 0 0-.394.452l-.629.789c-1.354 1.75-2.528 3.7-3.796 6.308a56.773 56.773 0 0 0-2.618 6.614 65.159 65.159 0 0 0-1.451 5.09l-.399 1.787A2.006 2.006 0 0 0 82.6 59.46a1.994 1.994 0 0 0 2.485-1.317l.523-1.66a60.885 60.885 0 0 1 1.752-4.635 51.33 51.33 0 0 1 2.891-5.827c1.255-2.114 2.452-3.771 3.665-5.079l.49-.518c.128-.138.26-.258.376-.364.053-.048.105-.095.156-.145.26-.261.537-.485.783-.683.096-.077.19-.153.283-.232.156-.125.29-.217.425-.306.053-.035.106-.07.158-.108.2-.144.408-.292.654-.418l.615-.342c.156-.066.309-.132.46-.202l.06-.025c.865-.348 1.591-.525 2.277-.557.304-.042.577-.025.783-.012.077.004.154.01.23.009l.099-.004.096.01c.118.014.238.035.358.057.049.01.098.02.147.027l.219.03c.438.046.719.26.885.448l.014.01.143.14c.043.035.087.07.135.113l.107.108.045.041c.076.071.154.145.237.24.511.544 1.05 1.267 1.52 2.037.456.743.913 1.591 1.394 2.589.504 1.088.895 1.999 1.237 2.887.684 1.737 1.342 3.683 2.066 6.112 1.114 3.763 2.112 7.851 3.14 12.867.832 4.084 1.599 8.399 2.342 13.191a399.616 399.616 0 0 1 1.828 13.326c.268 2.214.522 4.464.755 6.686l.336 3.334c.105 1.094.213 2.246.298 3.303zm6.538 8.669c-4.42 0-8.332-3.197-9.076-7.69a9.348 9.348 0 0 1-.094-.763l-.001-.005c-.083-1.039-.19-2.178-.293-3.256l-.335-3.322a435.609 435.609 0 0 0-.75-6.64 399.627 399.627 0 0 0-1.815-13.237 278.56 278.56 0 0 0-2.322-13.068c-1.01-4.94-1.99-8.958-3.082-12.644-.702-2.354-1.337-4.231-1.996-5.906a44.311 44.311 0 0 0-1.165-2.719 26.842 26.842 0 0 0-1.259-2.338c-.517-.849-.977-1.382-1.205-1.623l-.031-.035c-.022-.025-.043-.042-.062-.06-.05-.047-.1-.092-.148-.143l-.024-.02-.087-.072a17.651 17.651 0 0 0-.134-.025l-.092-.017c-.132 0-.253-.008-.362-.015-.089-.005-.21-.014-.254-.008l-.2.02c-.383.012-.838.126-1.428.36-.142.066-.285.128-.43.19l-.508.288c-.072.035-.2.127-.313.207-.078.058-.16.113-.242.167-.071.048-.143.094-.213.15-.084.071-.194.16-.305.249-.21.17-.41.33-.582.504-.09.087-.162.153-.236.22-.076.07-.154.138-.227.217l-.49.518c-1.075 1.16-2.163 2.67-3.314 4.61a48.944 48.944 0 0 0-2.739 5.521 58.049 58.049 0 0 0-1.675 4.431l-.505 1.608a4.637 4.637 0 0 1-5.784 3.069c-2.271-.694-3.666-3.06-3.174-5.386l.413-1.846a70.246 70.246 0 0 1 1.51-5.302 59.168 59.168 0 0 1 2.746-6.93c1.357-2.792 2.62-4.885 4.1-6.8l.64-.801c.165-.208.337-.399.504-.582.072-.08.143-.158.213-.238.398-.465.854-.904 1.294-1.327l.253-.244c.223-.21.437-.387.644-.558.082-.07.165-.137.247-.206.316-.266.626-.521.996-.769l1.006-.692 1.044-.595c.048-.026.095-.052.142-.08.131-.073.279-.157.457-.237l.581-.257.312-.136c.269-.12.575-.254.918-.36a49.61 49.61 0 0 1 1.187-.366 7.88 7.88 0 0 1 .98-.221c.113-.02.226-.04.339-.064.753-.166 1.497-.204 2.216-.24l.437-.023.075-.002c.34-.003.679.019.999.038l.903.058c.17.008.347.037.543.072l.43.081c.661.115 1.227.31 1.795.516.286.095.544.218.77.327l.06.028c.242.116.48.234.717.356l.07.039c.417.248.86.517 1.268.803l.265.199c.29.219.592.444.87.69 1.159.998 2.193 2.122 3.244 3.527a38.426 38.426 0 0 1 2.285 3.469 57.459 57.459 0 0 1 1.832 3.436c.97 1.961 1.909 4.118 2.953 6.782 1.549 3.975 2.99 8.272 4.534 13.528 1.23 4.197 2.405 8.627 3.597 13.544a414.774 414.774 0 0 1 3.038 13.589c.467 2.254.923 4.55 1.356 6.823l.637 3.422c.219 1.207.415 2.299.614 3.505a9.128 9.128 0 0 1-1.593 6.866 9.145 9.145 0 0 1-5.982 3.716 9.21 9.21 0 0 1-1.507.125z"/>
        <path fill="#164B9F" d="M121.134 3.632l.29.496.255.45c.164.296.33.593.483.884.317.587.616 1.171.911 1.756a99.506 99.506 0 0 1 1.683 3.52 134.507 134.507 0 0 1 3.001 7.129c1.87 4.789 3.508 9.645 4.974 14.547a243.09 243.09 0 0 1 3.926 14.823 274.192 274.192 0 0 1 3.01 15.02c1.731 10.049 2.992 20.134 4.002 30.213.996 10.08 1.755 20.16 2.367 30.233.25 4.122-2.894 7.666-7.024 7.917-4.13.249-7.68-2.89-7.929-7.012a7.655 7.655 0 0 1-.013-.488c.043-9.944-.059-19.875-.39-29.776-.345-9.9-.935-19.767-1.972-29.554a262.191 262.191 0 0 0-1.949-14.605 232.955 232.955 0 0 0-2.836-14.44c-1.096-4.78-2.358-9.516-3.833-14.166a128.737 128.737 0 0 0-2.387-6.893 95.648 95.648 0 0 0-1.343-3.354c-.234-.55-.47-1.098-.715-1.63-.12-.272-.244-.53-.367-.79l-.184-.38-.16-.328-.097-.198a3.566 3.566 0 0 1 1.633-4.777 3.59 3.59 0 0 1 4.664 1.403"/>
        <path fill="#164B9F" d="M118.035 3.184a2.243 2.243 0 0 0-2.124 1.521 2.23 2.23 0 0 0 .111 1.72l.504 1.039a65.952 65.952 0 0 1 1.049 2.352 95.23 95.23 0 0 1 1.363 3.404c.95 2.529 1.738 4.807 2.412 6.967 1.405 4.428 2.705 9.23 3.86 14.262a235.334 235.334 0 0 1 2.852 14.524 265.5 265.5 0 0 1 1.959 14.678c.947 8.925 1.594 18.623 1.979 29.647.31 9.276.438 19.032.39 29.828a6.119 6.119 0 0 0 2.08 4.64 6.13 6.13 0 0 0 4.462 1.538 6.132 6.132 0 0 0 4.246-2.065 6.115 6.115 0 0 0 1.54-4.456c-.664-10.935-1.436-20.809-2.362-30.183-1.124-11.208-2.43-21.06-3.991-30.12a273.185 273.185 0 0 0-2.995-14.947 242.456 242.456 0 0 0-3.905-14.743c-1.548-5.175-3.164-9.9-4.938-14.445a133.529 133.529 0 0 0-2.974-7.064 100.892 100.892 0 0 0-1.66-3.472c-.279-.55-.58-1.141-.892-1.72-.14-.266-.28-.519-.421-.772l-.584-1.017a2.277 2.277 0 0 0-1.96-1.116m20.511 128.768a8.756 8.756 0 0 1-5.83-2.212 8.73 8.73 0 0 1-2.968-6.62c.048-10.768-.08-20.492-.388-29.733-.384-10.96-1.026-20.595-1.966-29.458a262.888 262.888 0 0 0-1.94-14.531 233.002 233.002 0 0 0-2.819-14.36c-1.139-4.963-2.42-9.694-3.805-14.061-.66-2.118-1.433-4.35-2.364-6.828a94.621 94.621 0 0 0-1.324-3.303 60.178 60.178 0 0 0-1.004-2.255l-.487-1.003a4.89 4.89 0 0 1 2.235-6.543c2.287-1.121 5.092-.279 6.385 1.92l.002.003.614 1.069a71.536 71.536 0 0 1 1.364 2.588 102.227 102.227 0 0 1 1.706 3.568 135.486 135.486 0 0 1 3.032 7.2c1.798 4.607 3.436 9.397 5.007 14.643a246.2 246.2 0 0 1 3.947 14.905 275.62 275.62 0 0 1 3.023 15.091c1.572 9.122 2.886 19.035 4.016 30.307.93 9.41 1.705 19.316 2.37 30.285a8.728 8.728 0 0 1-2.198 6.363 8.76 8.76 0 0 1-6.608 2.965"/>
        <path fill="#164B9F" d="M145.977 8.598l.35 1.054.317 1c.207.664.403 1.323.595 1.984.38 1.32.745 2.639 1.085 3.959a186.29 186.29 0 0 1 1.881 7.943c1.152 5.31 2.092 10.65 2.881 16.01a283.796 283.796 0 0 1 1.904 16.135c.478 5.394.812 10.8 1.033 16.212.38 10.823.295 21.67-.349 32.491a376.483 376.483 0 0 1-3.276 32.363c-.578 3.99-4.286 6.756-8.283 6.179-3.996-.577-6.767-4.28-6.189-8.269.017-.12.038-.24.06-.358l.006-.027a363.01 363.01 0 0 0 4.806-30.956c1.174-10.386 1.811-20.832 2-31.29.064-5.23.02-10.461-.165-15.688a273.653 273.653 0 0 0-1.009-15.653c-.486-5.205-1.117-10.396-1.951-15.543a178.392 178.392 0 0 0-1.392-7.68 135.202 135.202 0 0 0-.826-3.79 96.25 96.25 0 0 0-.452-1.867l-.238-.918-.233-.854-.048-.177a3.907 3.907 0 0 1 2.75-4.799 3.927 3.927 0 0 1 4.743 2.539"/>
        <path fill="#164B9F" d="M142.26 7.24a2.579 2.579 0 0 0-2.25 1.304c-.345.601-.434 1.3-.252 1.968l.523 1.965c.16.63.312 1.263.46 1.897.327 1.41.6 2.662.834 3.83.537 2.644 1.009 5.247 1.402 7.734.797 4.915 1.44 10.027 1.962 15.626.495 5.348.836 10.639 1.013 15.73.177 5.01.233 10.309.167 15.75-.196 10.786-.871 21.356-2.01 31.422a365.882 365.882 0 0 1-4.822 31.066l-.006.034a5.935 5.935 0 0 0 1.082 4.718 5.953 5.953 0 0 0 3.942 2.34 5.962 5.962 0 0 0 4.443-1.13 5.938 5.938 0 0 0 2.343-3.934 376.556 376.556 0 0 0 3.266-32.249c.618-10.419.736-21.31.347-32.37a342.581 342.581 0 0 0-1.03-16.142 284.255 284.255 0 0 0-1.894-16.06c-.84-5.704-1.778-10.913-2.865-15.922a186.38 186.38 0 0 0-1.87-7.891c-.308-1.203-.66-2.486-1.076-3.926-.188-.65-.382-1.301-.586-1.957l-.658-2.027a2.604 2.604 0 0 0-2.466-1.775m2.92 138.082c-.415 0-.834-.03-1.253-.09a8.574 8.574 0 0 1-5.678-3.37 8.553 8.553 0 0 1-1.557-6.814l.007-.039a362.95 362.95 0 0 0 4.788-30.837c1.128-9.987 1.798-20.473 1.992-31.17.066-5.39.01-10.648-.165-15.617a273.621 273.621 0 0 0-1.003-15.579c-.518-5.538-1.153-10.593-1.94-15.452-.388-2.455-.854-5.02-1.383-7.63-.231-1.145-.499-2.372-.819-3.755a102.45 102.45 0 0 0-.446-1.84l-.512-1.926a5.183 5.183 0 0 1 .507-3.968 5.2 5.2 0 0 1 3.169-2.448 5.244 5.244 0 0 1 6.343 3.392l.001.002.674 2.073a142.685 142.685 0 0 1 1.699 6.013 187.642 187.642 0 0 1 1.893 7.996c1.1 5.062 2.047 10.328 2.897 16.092a287.097 287.097 0 0 1 1.912 16.212c.46 5.175.808 10.65 1.038 16.273.392 11.151.273 22.125-.35 32.624a379.572 379.572 0 0 1-3.288 32.473 8.564 8.564 0 0 1-3.376 5.67 8.578 8.578 0 0 1-5.15 1.715"/>
        <path fill="#FA8DB5" d="M13.253 47.39l.17.13 168.475 64.29 20.08 7.662 4.031-10.605-19.969-7.614-168.563-64.33z"/>
        <path fill="#FFF" d="M211.783 111.01l-4.03 10.602-20.081-7.663-11.175-4.265 4.028-10.596 11.29 4.308z"/>
        <path fill="#FA8DB5" d="M213.02 111.476l-4.03 10.603-2.218-.864 4.027-10.595zM17.66 38.67l-2.954 7.751-6.917-2.64-.123-.094 3.086-7.652z"/>
        <path fill="#FA8DB5" d="M11.772 37.641l-2.065 5.417-4.834-1.845-.086-.066 2.158-5.348z"/>
        <path fill="#FCB3CD" d="M6.315 37.363l-.908 2.248-.023-.01-3.572-1.81C.357 37.058.78 36.218 2.43 36.56l3.885.803z"/>
        <path fill="#FA8DB5" d="M82.02 82.701c-.517 3.282-2.87 5.639-5.256 5.264-2.387-.374-3.903-3.337-3.387-6.62.516-3.28 2.87-5.638 5.256-5.263 2.386.374 3.903 3.337 3.386 6.619M121.825 3.872c1.03 1.958 1.063 4.809-.335 5.494-1.398.686-3.79-.832-4.82-2.789-1.03-1.957-.335-3.552 1.088-4.3 1.423-.746 3.036-.363 4.067 1.595M146.196 9.023c.555 2.141-.053 4.767-1.61 5.168-1.557.401-3.474-1.572-4.027-3.713-.555-2.141.464-3.639 2.021-4.04 1.557-.402 3.062.445 3.616 2.585M169.827 45.414c.123 2.084-.956 4.21-2.47 4.298-1.516.09-2.894-1.891-3.018-3.975-.123-2.084 1.055-3.481 2.572-3.57 1.515-.09 2.793 1.162 2.916 3.247M206.07 115.844l-25.529-9.668.469-1.232 25.528 9.667zM204.53 119.14L179 109.471l.468-1.232 25.529 9.667zM207.61 112.548l-25.528-9.667.468-1.233 25.529 9.668z"/>
    </g>
</svg>
