<svg xmlns="http://www.w3.org/2000/svg" viewBox="0 0 17.98 10.26" width="17.98px" height="10.26px"><defs><style>.a{fill:#cdd4d9;}</style></defs><title>faq-arrow</title><path class="a" d="M1.28,0h0a1.31,1.31,0,0,1,.5.09A1.27,1.27,0,0,1,2.2.38L9,7.17,15.78.38a1,1,0,0,1,.41-.28A1.39,1.39,0,0,1,16.7,0a1.23,1.23,0,0,1,.9.38,1.23,1.23,0,0,1,.38.9,1.2,1.2,0,0,1-.1.5,1.66,1.66,0,0,1-.27.42L9.89,9.89a1.06,1.06,0,0,1-.4.28,1.38,1.38,0,0,1-1,0,1.27,1.27,0,0,1-.42-.28L.38,2.2a1.27,1.27,0,0,1-.28-.42A1.31,1.31,0,0,1,0,1.28,1.23,1.23,0,0,1,.38.38,1.23,1.23,0,0,1,1.28,0Z"/></svg>
