<svg xmlns="http://www.w3.org/2000/svg" xmlns:xlink="http://www.w3.org/1999/xlink" width="581" height="337" viewBox="0 0 581 337">
    <defs>
        <path id="a" d="M0 .553h158.57v163.093H0z"/>
    </defs>
    <g fill="none" fill-rule="evenodd">
        <g transform="translate(.508 133.613)">
            <mask id="b" fill="#fff">
                <use xlink:href="#a"/>
            </mask>
            <path fill="#164B9F" d="M141.54 85.341v-18.81h-24.56V21.103H91.973V.554L0 1.216v162.429h158.57V85.341z" mask="url(#b)"/>
        </g>
        <path fill="#164B9F" d="M187.301 115.38V91.085h33.375v56.684h16.688v149.489h-51.045z"/>
        <path fill="#164B9F" d="M214.098 119.337v177.922h-81.476V109.173l62.025 7.735z"/>
        <path fill="#0D83DD" d="M132.622 109.173v188.086h-29.81V119.336l13.093-4.46z"/>
        <path fill="#359CE4" d="M157.46 131.217v26.24l-6.951-.291v-26.555z"/>
        <path fill="#164B9F" d="M119.534 156.757l-5.618 1.163v-23.234l5.618-1.55zM119.534 203.49l-5.618.53v-23.233l5.618-.918z"/>
        <path fill="#359CE4" d="M178.173 133.004v25.305l-6.957-.29v-25.621zM198.2 134.792v24.37l-2.215-.096-4.743-.197v-24.684z"/>
        <path fill="#FFF" d="M195.985 136.933v22.23l-4.744-.199v-22.446zM175.96 136.08v22.23l-4.744-.199v-22.446zM155.252 135.228v22.23l-4.743-.2v-22.445z"/>
        <path fill="#359CE4" d="M157.46 176.22v28.97l-6.951-.291v-29.285zM178.173 178.008v28.034l-6.957-.29v-28.35zM198.198 179.795v27.1l-6.956-.29v-27.416z"/>
        <path fill="#FFF" d="M155.252 182.78v22.41l-4.743-.198v-22.447zM175.96 183.633v22.41l-4.744-.198v-22.447zM195.985 184.485v22.41l-4.743-.198V184.25z"/>
        <path fill="#164B9F" d="M227.66 337h107.98V77.562H227.66z"/>
        <path fill="#CEE9FD" d="M277.243 129.315h8.815V100.9h-8.815zM277.243 188.991h8.815v-28.417h-8.815z"/>
        <path fill="#F5FBFF" d="M254.07 129.315h8.816V100.9h-8.815z"/>
        <path fill="#FFF" d="M300.414 129.315h8.816V100.9h-8.816zM254.07 188.991h8.816v-28.417h-8.815z"/>
        <path fill="#F5FBFF" d="M300.414 188.991h8.816v-28.417h-8.816z"/>
        <path fill="#0D83DD" d="M209.547 169.143c-.022 0-.046 0-.07-.002l-62.827-2.526a1.72 1.72 0 0 1-1.648-1.787c.038-.948.853-1.66 1.787-1.649l62.826 2.526a1.72 1.72 0 0 1-.068 3.438M326.691 147.721h-88.349a1.718 1.718 0 1 1 0-3.438h88.35a1.719 1.719 0 1 1 0 3.438M326.691 207.04h-88.349a1.718 1.718 0 1 1 0-3.438h88.35a1.719 1.719 0 1 1 0 3.439M224.675 80.528h113.95V77h-113.95zM426.575 111.014V297.26H347.79V122.23z"/>
        <path fill="#164B9F" d="M446.27 122.23v174.662h-19.695V111.014l8.757 4.99zM362.684 119.617l3.929-.474v-18.709l-3.929-2.027zM373.316 140.547v21.39l-3.646.177-1.875.09v-21.268z"/>
        <path fill="#FFF" d="M373.316 143.152v18.874l-3.646.177v-18.792z"/>
        <path fill="#164B9F" d="M389.46 139.395v21.772l-5.513.266v-21.65zM405.613 138.242v22.154l-5.514.26v-22.018z"/>
        <path fill="#FFF" d="M389.46 142.381v18.874l-3.645.178V142.64zM405.613 141.604v18.874l-3.647.177v-18.791z"/>
        <path fill="#0D83DD" d="M362.686 129.958l-4.99-.71V98.935l4.99-.553z"/>
        <path fill="#164B9F" d="M356.141 173.989a1.718 1.718 0 0 1-.113-3.435l56.937-3.789a1.705 1.705 0 0 1 1.828 1.601 1.718 1.718 0 0 1-1.6 1.83l-56.937 3.79a1.52 1.52 0 0 1-.115.003M373.316 183.732v21.39l-5.52.266V184.12zM389.46 182.58v21.772l-5.513.266v-21.65z"/>
        <path fill="#FFF" d="M373.316 186.337v18.874l-3.646.177v-18.792zM389.46 185.566v18.874l-3.645.177v-18.791z"/>
        <path fill="#164B9F" d="M405.613 181.427v22.154l-5.514.26v-22.018zM356.14 134.204c-.872 0-1.62-.662-1.707-1.55a1.718 1.718 0 0 1 1.538-1.88l56.937-5.685a1.71 1.71 0 0 1 1.88 1.54 1.719 1.719 0 0 1-1.538 1.882l-56.937 5.685a1.72 1.72 0 0 1-.173.008"/>
        <path fill="#359CE4" d="M252.265 130.72h12.429v-3.637h-12.43zM275.436 130.72h12.429v-3.637h-12.43zM298.608 130.72h12.429v-3.637h-12.429zM252.265 190.496h12.429v-3.637h-12.43zM275.436 190.496h12.429v-3.637h-12.43zM298.608 190.496h12.429v-3.637h-12.429z"/>
        <path fill="#0D83DD" d="M216.287 116.873v4.8l-83.41-10.064-32.332 11.046v-5.039l31.82-10.876z"/>
        <path fill="#164B9F" d="M143.992 178.365l61.847 2.386.341-7.5-60.996-4.433zM119.534 244.703l-5.618.447v-19.596l5.618-.774z"/>
        <path fill="#359CE4" d="M157.46 232.6v24.434l-6.951-.246v-24.7zM178.173 234.106v23.646l-6.957-.245v-23.912zM198.198 235.614v22.858l-6.956-.245v-23.124z"/>
        <path fill="#FFF" d="M155.252 238.132v18.901l-4.743-.166v-18.934zM175.96 238.851v18.901l-4.744-.167v-18.932zM195.985 239.57v18.901l-4.743-.166V239.37z"/>
        <path fill="#0D83DD" d="M209.547 227.77l-.07-.002-62.827-2.525a1.72 1.72 0 0 1-1.648-1.787c.038-.95.853-1.679 1.787-1.65l62.826 2.526a1.72 1.72 0 0 1-.068 3.438"/>
        <path fill="#164B9F" d="M143.992 234.408l61.847 2.012.341-6.326-60.996-3.738z"/>
        <path fill="#0D83DD" d="M439.032 159.74l-3.635-1.74v-19.708l3.635 1.741zM439.032 202.573l-3.635-.797v-19.707l3.635.797z"/>
        <path fill="#FFF" d="M405.613 184.789v18.874l-3.647.177v-18.792z"/>
        <path fill="#164B9F" d="M356.141 216.947a1.719 1.719 0 0 1-.113-3.436l56.937-3.789a1.709 1.709 0 0 1 1.828 1.602 1.719 1.719 0 0 1-1.6 1.83l-56.937 3.789a2.037 2.037 0 0 1-.115.004M389.46 225.537v21.772l-5.513.266v-21.65z"/>
        <path fill="#FFF" d="M389.46 228.524v18.874l-3.645.177v-18.792z"/>
        <path fill="#164B9F" d="M373.312 225.875v21.772l-5.513.266v-21.65z"/>
        <path fill="#FFF" d="M373.312 228.861v18.875l-3.646.177V229.12z"/>
        <path fill="#164B9F" d="M405.613 224.385v22.154l-5.514.259v-22.017z"/>
        <path fill="#0D83DD" d="M439.032 245.53l-3.635-.797v-19.706l3.635.797z"/>
        <path fill="#FFF" d="M405.613 227.747v18.873l-3.647.178v-18.792z"/>
        <path fill="#164B9F" d="M356.141 260.533a1.719 1.719 0 0 1-.113-3.436l56.937-3.789c.972-.052 1.765.654 1.828 1.602a1.719 1.719 0 0 1-1.6 1.83l-56.937 3.789a2.037 2.037 0 0 1-.115.004"/>
        <path fill="#CEE9FD" d="M262.886 171.961l-8.815-6.823v-4.563h8.815z"/>
        <path fill="#359CE4" d="M286.058 112.286l-8.816-6.824v-4.563h8.816z"/>
        <path fill="#CEE9FD" d="M309.23 112.286l-8.816-6.824v-4.563h8.816z"/>
        <path fill="#359CE4" d="M286.058 171.961l-8.816-6.823v-4.563h8.816z"/>
        <path fill="#CEE9FD" d="M309.23 171.961l-8.816-6.823v-4.563h8.816z"/>
        <path fill="#77BBEF" d="M254.07 165.65h8.816v-5.075h-8.815zM277.243 165.65h8.815v-5.075h-8.815z"/>
        <path fill="#CEE9FD" d="M262.886 112.286l-8.815-6.825v-4.563h8.815z"/>
        <path fill="#92C7F0" d="M254.071 105.461v.513h.662z"/>
        <path fill="#77BBEF" d="M262.886 100.899h-8.815v4.562l.663.513h8.152zM277.243 105.975h8.815v-5.076h-8.815zM300.414 105.975h8.816v-5.076h-8.816zM300.414 165.65h8.816v-5.075h-8.816z"/>
        <path fill="#CEE9FD" d="M277.243 254.37h8.815v-28.417h-8.815z"/>
        <path fill="#FFF" d="M254.07 254.37h8.816v-28.417h-8.815z"/>
        <path fill="#F5FBFF" d="M300.414 254.37h8.816v-28.417h-8.816z"/>
        <path fill="#359CE4" d="M252.265 255.875h12.429v-3.637h-12.43zM275.436 255.875h12.429v-3.637h-12.43zM298.608 255.875h12.429v-3.637h-12.429z"/>
        <path fill="#CEE9FD" d="M262.886 237.34l-8.815-6.824v-4.563h8.815z"/>
        <path fill="#359CE4" d="M286.058 237.34l-8.816-6.824v-4.563h8.816z"/>
        <path fill="#CEE9FD" d="M309.23 237.34l-8.816-6.824v-4.563h8.816z"/>
        <path fill="#77BBEF" d="M254.07 231.029h8.816v-5.075h-8.815zM277.243 231.029h8.815v-5.075h-8.815zM300.414 231.029h8.816v-5.075h-8.816z"/>
        <path fill="#F5DA66" d="M86.806 17.466a10.437 10.437 0 0 0 11.901 2.611 10.385 10.385 0 0 1-5.236-3.15c-3.856-4.295-3.5-10.904.789-14.76.87-.783 1.835-1.39 2.854-1.826a10.433 10.433 0 0 0-9.52 2.366c-4.289 3.856-4.644 10.465-.788 14.76"/>
        <path fill="#164B9F" d="M568.944 101.8v195.092H441.927V132.924h41.317v-72.21h68.463V101.8z"/>
        <path fill="#062942" d="M580.036 126.194v170.12h-70.889v-91.77h31.116v-78.35z"/>
    </g>
</svg>
