<?xml version="1.0" encoding="utf-8"?>
<!-- Generator: Adobe Illustrator 23.0.1, SVG Export Plug-In . SVG Version: 6.00 Build 0)  -->
<svg version="1.1" id="Layer_1" xmlns="http://www.w3.org/2000/svg" xmlns:xlink="http://www.w3.org/1999/xlink" x="0px" y="0px"
	 viewBox="0 0 787 459" style="enable-background:new 0 0 787 459;" xml:space="preserve">
<style type="text/css">
	.st0{fill-rule:evenodd;clip-rule:evenodd;fill:#164B9F;}
	.st1{fill-rule:evenodd;clip-rule:evenodd;fill:#0D83DD;}
	.st2{fill-rule:evenodd;clip-rule:evenodd;fill:#359CE4;}
	.st3{fill-rule:evenodd;clip-rule:evenodd;fill:#FFFFFF;}
	.st4{fill-rule:evenodd;clip-rule:evenodd;fill:#CEE9FD;}
	.st5{fill-rule:evenodd;clip-rule:evenodd;fill:#F5FBFF;}
	.st6{fill-rule:evenodd;clip-rule:evenodd;fill:#77BBEF;}
	.st7{fill-rule:evenodd;clip-rule:evenodd;fill:#92C7F0;}
	.st8{fill-rule:evenodd;clip-rule:evenodd;fill:#F5DA66;}
	.st9{fill-rule:evenodd;clip-rule:evenodd;fill:#062942;}
</style>
<polygon class="st0" points="123.4,210.5 123.4,183.7 0,183.7 0,459 61.7,459 123.4,459 185.1,459 185.1,210.5 "/>
<title>buildings</title>
<desc>Created with Sketch.</desc>
<g id="Hi-Fi-Design">
	<g id="Desktop" transform="translate(-340.000000, -6634.000000)">
		<g id="buildings" transform="translate(340.000000, 6634.000000)">
			<g id="Group-134" transform="translate(0.000000, 0.018000)">
				<polygon id="Fill-14" class="st0" points="253.6,157.3 253.6,124.3 298.9,124.3 298.9,201.2 321.6,201.2 321.6,459 252.3,459 
									"/>
				<polygon id="Fill-16" class="st0" points="290,162.6 290,459 179.4,459 179.4,148.8 263.6,159.3 				"/>
				<polygon id="Fill-18" class="st1" points="179.4,148.8 179.4,459 138.9,459 138.9,162.6 156.7,156.6 				"/>
				<polygon id="Fill-20" class="st2" points="213.1,178.7 213.1,214.4 203.7,214 203.7,177.9 				"/>
				<polygon id="Fill-22" class="st0" points="161.6,213.4 154,215 154,183.5 161.6,181.4 				"/>
				<polygon id="Fill-24" class="st0" points="161.6,276.8 154,277.5 154,246 161.6,244.8 				"/>
				<polygon id="Fill-26" class="st2" points="241.2,181.2 241.2,215.5 231.8,215.1 231.8,180.4 				"/>
				<polygon id="Fill-28" class="st2" points="268.4,183.6 268.4,216.7 265.4,216.5 259,216.3 259,182.8 				"/>
				<polygon id="Fill-30" class="st3" points="265.4,186.5 265.4,216.7 259,216.4 259,185.9 				"/>
				<polygon id="Fill-32" class="st3" points="238.2,185.3 238.2,215.5 231.8,215.2 231.8,184.8 				"/>
				<polygon id="Fill-34" class="st3" points="210.1,184.2 210.1,214.4 203.7,214.1 203.7,183.6 				"/>
				<polygon id="Fill-36" class="st2" points="213.1,239.8 213.1,279.1 203.7,278.7 203.7,239 				"/>
				<polygon id="Fill-38" class="st2" points="241.2,242.2 241.2,280.3 231.8,279.9 231.8,241.4 				"/>
				<polygon id="Fill-40" class="st2" points="268.4,244.7 268.4,281.4 259,281.1 259,243.8 				"/>
				<polygon id="Fill-42" class="st3" points="210.1,248.7 210.1,279.1 203.7,278.9 203.7,248.4 				"/>
				<polygon id="Fill-44" class="st3" points="238.2,249.9 238.2,280.3 231.8,280 231.8,249.6 				"/>
				<polygon id="Fill-46" class="st3" points="265.4,251 265.4,281.4 259,281.2 259,250.7 				"/>
				<polygon id="Fill-48" class="st0" points="308.4,459 455,459 455,105.9 308.4,105.9 				"/>
				<polygon id="Fill-50" class="st4" points="375.7,176.2 387.7,176.2 387.7,137.6 375.7,137.6 				"/>
				<polygon id="Fill-51" class="st4" points="375.7,257.1 387.7,257.1 387.7,218.6 375.7,218.6 				"/>
				<polygon id="Fill-52" class="st5" points="344.3,176.2 356.2,176.2 356.2,137.6 344.3,137.6 				"/>
				<polygon id="Fill-53" class="st3" points="407.2,176.2 419.2,176.2 419.2,137.6 407.2,137.6 				"/>
				<polygon id="Fill-54" class="st3" points="344.3,257.1 356.2,257.1 356.2,218.6 344.3,218.6 				"/>
				<polygon id="Fill-55" class="st5" points="407.2,257.1 419.2,257.1 419.2,218.6 407.2,218.6 				"/>
				<path id="Fill-56" class="st1" d="M283.8,230.2L283.8,230.2l-85.4-3.4c-1.3-0.1-2.3-1.1-2.2-2.4c0.1-1.3,1.2-2.3,2.4-2.2
					l85.3,3.4c1.3,0.1,2.3,1.1,2.2,2.4C286.1,229.2,285.1,230.2,283.8,230.2"/>
				<path id="Fill-57" class="st1" d="M442.9,201.1h-120c-1.3,0-2.3-1-2.3-2.3s1-2.3,2.3-2.3h120c1.3,0,2.3,1,2.3,2.3
					C445.2,200.1,444.2,201.1,442.9,201.1"/>
				<path id="Fill-58" class="st1" d="M442.9,281.6h-120c-1.3,0-2.3-1-2.3-2.3s1-2.3,2.3-2.3h120c1.3,0,2.3,1,2.3,2.3
					S444.2,281.6,442.9,281.6"/>
				<polygon id="Fill-59" class="st1" points="304.4,110 459.1,110 459.1,105.2 304.4,105.2 				"/>
				<polygon id="Fill-60" class="st1" points="578.5,151.3 578.5,459 471.5,459 471.5,166.6 				"/>
				<polygon id="Fill-61" class="st0" points="605.2,166.6 605.2,459 578.5,459 578.5,151.3 590.4,158.1 				"/>
				<polygon id="Fill-62" class="st0" points="491.7,163 497.1,162.4 497.1,137 491.7,134.2 				"/>
				<polygon id="Fill-63" class="st0" points="506.2,191.4 506.2,220.4 501.2,220.7 498.7,220.8 498.7,191.9 				"/>
				<polygon id="Fill-64" class="st3" points="506.2,194.9 506.2,220.6 501.2,220.8 501.2,195.3 				"/>
				<polygon id="Fill-65" class="st0" points="528.1,189.8 528.1,219.4 520.6,219.8 520.6,190.4 				"/>
				<polygon id="Fill-66" class="st0" points="550,188.3 550,218.3 542.5,218.7 542.5,188.8 				"/>
				<polygon id="Fill-67" class="st3" points="528.1,193.9 528.1,219.5 523.1,219.8 523.1,194.3 				"/>
				<polygon id="Fill-68" class="st3" points="550,192.8 550,218.5 545.1,218.7 545.1,193.2 				"/>
				<polygon id="Fill-69" class="st1" points="491.7,177 485,176.1 485,134.9 491.7,134.2 				"/>
				<path id="Fill-70" class="st0" d="M482.8,236.8c-1.2,0-2.2-0.9-2.3-2.2c-0.1-1.3,0.9-2.4,2.2-2.5L560,227
					c1.3-0.1,2.4,0.9,2.5,2.2s-0.9,2.4-2.2,2.5l-77.3,5.1C482.9,236.8,482.9,236.8,482.8,236.8"/>
				<polygon id="Fill-71" class="st0" points="506.2,250 506.2,279 498.7,279.4 498.7,250.5 				"/>
				<polygon id="Fill-72" class="st0" points="528.1,248.4 528.1,278 520.6,278.4 520.6,249 				"/>
				<polygon id="Fill-73" class="st3" points="506.2,253.5 506.2,279.2 501.2,279.4 501.2,253.9 				"/>
				<polygon id="Fill-74" class="st3" points="528.1,252.5 528.1,278.1 523.1,278.4 523.1,252.9 				"/>
				<polygon id="Fill-75" class="st0" points="550,246.9 550,276.9 542.5,277.3 542.5,247.4 				"/>
				<path id="Fill-76" class="st0" d="M482.8,182.8c-1.2,0-2.2-0.9-2.3-2.1c-0.1-1.3,0.8-2.4,2.1-2.6l77.3-7.7
					c1.3-0.1,2.4,0.8,2.6,2.1c0.1,1.3-0.8,2.4-2.1,2.6l-77.3,7.7C483,182.8,482.9,182.8,482.8,182.8"/>
				<polygon id="Fill-77" class="st2" points="341.8,178.1 358.7,178.1 358.7,173.1 341.8,173.1 				"/>
				<polygon id="Fill-78" class="st2" points="373.3,178.1 390.1,178.1 390.1,173.1 373.3,173.1 				"/>
				<polygon id="Fill-79" class="st2" points="404.7,178.1 421.6,178.1 421.6,173.1 404.7,173.1 				"/>
				<polygon id="Fill-80" class="st2" points="341.8,259.2 358.7,259.2 358.7,254.3 341.8,254.3 				"/>
				<polygon id="Fill-81" class="st2" points="373.3,259.2 390.1,259.2 390.1,254.3 373.3,254.3 				"/>
				<polygon id="Fill-82" class="st2" points="404.7,259.2 421.6,259.2 421.6,254.3 404.7,254.3 				"/>
				<polygon id="Fill-83" class="st1" points="293,159.3 293,165.8 179.7,152.1 135.8,167.1 135.8,160.3 179,145.5 				"/>
				<polygon id="Fill-84" class="st0" points="194.8,242.7 278.8,246 279.2,235.8 196.4,229.8 				"/>
				<polygon id="Fill-85" class="st0" points="161.6,332.8 154,333.4 154,306.8 161.6,305.7 				"/>
				<polygon id="Fill-86" class="st2" points="213.1,316.3 213.1,349.5 203.7,349.2 203.7,315.6 				"/>
				<polygon id="Fill-87" class="st2" points="241.2,318.4 241.2,350.5 231.8,350.1 231.8,317.7 				"/>
				<polygon id="Fill-88" class="st2" points="268.4,320.4 268.4,351.4 259,351.1 259,319.7 				"/>
				<polygon id="Fill-89" class="st0" points="210.1,323.8 210.1,349.5 203.7,349.3 203.7,323.6 				"/>
				<polygon id="Fill-90" class="st3" points="238.2,324.8 238.2,350.5 231.8,350.2 231.8,324.5 				"/>
				<polygon id="Fill-91" class="st3" points="265.4,325.8 265.4,351.4 259,351.2 259,325.5 				"/>
				<path id="Fill-92" class="st1" d="M283.8,309.8L283.8,309.8l-85.4-3.4c-1.3-0.1-2.3-1.1-2.2-2.4s1.2-2.3,2.4-2.2l85.3,3.4
					c1.3,0.1,2.3,1.1,2.2,2.4C286.1,308.8,285.1,309.8,283.8,309.8"/>
				<polygon id="Fill-93" class="st0" points="194.8,318.8 278.8,321.5 279.2,312.9 196.4,307.9 				"/>
				<polygon id="Fill-94" class="st1" points="595.4,217.5 590.5,215.1 590.5,188.4 595.4,190.7 				"/>
				<polygon id="Fill-95" class="st1" points="595.4,275.6 590.5,274.5 590.5,247.8 595.4,248.8 				"/>
				<polygon id="Fill-96" class="st3" points="550,251.4 550,277.1 545.1,277.3 545.1,251.8 				"/>
				<path id="Fill-97" class="st0" d="M482.8,295.1c-1.2,0-2.2-0.9-2.3-2.2c-0.1-1.3,0.9-2.4,2.2-2.5l77.3-5.1
					c1.3-0.1,2.4,0.9,2.5,2.2c0.1,1.3-0.9,2.4-2.2,2.5l-77.3,5.1C482.9,295.1,482.9,295.1,482.8,295.1"/>
				<polygon id="Fill-98" class="st0" points="528.1,306.7 528.1,336.3 520.6,336.6 520.6,307.3 				"/>
				<polygon id="Fill-99" class="st3" points="528.1,310.8 528.1,336.4 523.1,336.6 523.1,311.1 				"/>
				<polygon id="Fill-100" class="st0" points="506.2,307.2 506.2,336.7 498.7,337.1 498.7,307.7 				"/>
				<polygon id="Fill-101" class="st3" points="506.2,311.3 506.2,336.9 501.2,337.1 501.2,311.6 				"/>
				<polygon id="Fill-102" class="st0" points="550,305.2 550,335.2 542.5,335.6 542.5,305.7 				"/>
				<polygon id="Fill-103" class="st1" points="595.4,333.9 590.5,332.8 590.5,306 595.4,307.1 				"/>
				<polygon id="Fill-104" class="st3" points="550,309.7 550,335.4 545.1,335.6 545.1,310.1 				"/>
				<path id="Fill-105" class="st0" d="M482.8,354.2c-1.2,0-2.2-0.9-2.3-2.2c-0.1-1.3,0.9-2.4,2.2-2.5l77.3-5.1
					c1.3-0.1,2.4,0.9,2.5,2.2c0.1,1.3-0.9,2.4-2.2,2.5l-77.3,5.1C482.9,354.2,482.9,354.2,482.8,354.2"/>
				<polygon id="Fill-106" class="st4" points="356.2,234 344.3,224.8 344.3,218.6 356.2,218.6 				"/>
				<polygon id="Fill-107" class="st2" points="387.7,153.1 375.7,143.8 375.7,137.6 387.7,137.6 				"/>
				<polygon id="Fill-108" class="st4" points="419.2,153.1 407.2,143.8 407.2,137.6 419.2,137.6 				"/>
				<polygon id="Fill-109" class="st2" points="387.7,234 375.7,224.8 375.7,218.6 387.7,218.6 				"/>
				<polygon id="Fill-110" class="st4" points="419.2,234 407.2,224.8 407.2,218.6 419.2,218.6 				"/>
				<polygon id="Fill-111" class="st6" points="344.3,225.5 356.2,225.5 356.2,218.6 344.3,218.6 				"/>
				<polygon id="Fill-112" class="st6" points="375.7,225.5 387.7,225.5 387.7,218.6 375.7,218.6 				"/>
				<polygon id="Fill-113" class="st4" points="356.2,153.1 344.3,143.8 344.3,137.6 356.2,137.6 				"/>
				<polygon id="Fill-114" class="st7" points="344.3,143.8 344.3,144.5 345.2,144.5 				"/>
				<polygon id="Fill-115" class="st6" points="356.2,137.6 344.3,137.6 344.3,143.8 345.2,144.5 356.2,144.5 				"/>
				<polygon id="Fill-116" class="st6" points="375.7,144.5 387.7,144.5 387.7,137.6 375.7,137.6 				"/>
				<polygon id="Fill-117" class="st6" points="407.2,144.5 419.2,144.5 419.2,137.6 407.2,137.6 				"/>
				<polygon id="Fill-118" class="st6" points="407.2,225.5 419.2,225.5 419.2,218.6 407.2,218.6 				"/>
				<polygon id="Fill-119" class="st4" points="375.7,345.9 387.7,345.9 387.7,307.3 375.7,307.3 				"/>
				<polygon id="Fill-120" class="st3" points="344.3,345.9 356.2,345.9 356.2,307.3 344.3,307.3 				"/>
				<polygon id="Fill-121" class="st5" points="407.2,345.9 419.2,345.9 419.2,307.3 407.2,307.3 				"/>
				<polygon id="Fill-122" class="st2" points="341.8,347.9 358.7,347.9 358.7,343 341.8,343 				"/>
				<polygon id="Fill-123" class="st2" points="373.3,347.9 390.1,347.9 390.1,343 373.3,343 				"/>
				<polygon id="Fill-124" class="st2" points="404.7,347.9 421.6,347.9 421.6,343 404.7,343 				"/>
				<polygon id="Fill-125" class="st4" points="356.2,322.8 344.3,313.5 344.3,307.3 356.2,307.3 				"/>
				<polygon id="Fill-126" class="st2" points="387.7,322.8 375.7,313.5 375.7,307.3 387.7,307.3 				"/>
				<polygon id="Fill-127" class="st4" points="419.2,322.8 407.2,313.5 407.2,307.3 419.2,307.3 				"/>
				<polygon id="Fill-128" class="st6" points="344.3,314.2 356.2,314.2 356.2,307.3 344.3,307.3 				"/>
				<polygon id="Fill-129" class="st6" points="375.7,314.2 387.7,314.2 387.7,307.3 375.7,307.3 				"/>
				<polygon id="Fill-130" class="st6" points="407.2,314.2 419.2,314.2 419.2,307.3 407.2,307.3 				"/>
				<path id="Fill-131" class="st8" d="M117.2,24.4c4.2,4.6,10.7,5.9,16.2,3.5c-2.7-0.7-5.1-2.1-7.1-4.3c-5.2-5.8-4.8-14.8,1.1-20
					c1.2-1.1,2.5-1.9,3.9-2.5C126.9,0,122,1,118.4,4.3C112.4,9.6,111.9,18.6,117.2,24.4"/>
				<polygon id="Fill-132" class="st0" points="771.8,138.8 771.8,459 599.3,459 599.3,181.1 655.4,181.1 655.4,83.1 748.4,83.1 
					748.4,138.8 				"/>
				<polygon id="Fill-133" class="st9" points="786.8,171.9 786.8,459 690.6,459 690.6,278.3 732.8,278.3 732.8,171.9 				"/>
			</g>
		</g>
	</g>
</g>
</svg>
