<svg xmlns="http://www.w3.org/2000/svg" width="100%" height="100%" viewBox="0 0 475 502">
    <g fill="none" fill-rule="evenodd">
        <path fill="#F9E699" d="M200.043 69.725L.038 501.485l436.417-331.453z"/>
        <path fill="#F5DA66" d="M474.079 101.142c0 55.859-62.891 101.142-140.472 101.142-77.58 0-140.471-45.283-140.471-101.142C193.136 45.282 256.026 0 333.606 0 411.189 0 474.08 45.283 474.08 101.142"/>
        <path fill="#062942" d="M289.374 123.108s-8.604 5.06-24.434 28.2c-2.47 3.62-4.151 3.285-4.151 3.285s.733 5.531 8.872 3.872c0 0 11.512-27.295 23.53-32.729l-3.817-2.628z"/>
        <path fill="#062942" d="M278.095 137.172s5.364-74.635 65.848-72.708c50.125 1.6 66.24-17.886 66.24-17.886s.534 106.054-132.088 90.594"/>
        <path fill="#F5DA66" d="M285.39 129.954s25.006-37.811 54.575-40.757c30.074-3.007 48.443-17.832 48.443-17.832s-18.297 22.356-50.275 25.57c-27.577 2.755-52.743 33.019-52.743 33.019"/>
    </g>
</svg>
