<?xml version="1.0" encoding="utf-8"?>
<!-- Generator: Adobe Illustrator 23.0.1, SVG Export Plug-In . SVG Version: 6.00 Build 0)  -->
<svg version="1.1" id="Layer_1" xmlns="http://www.w3.org/2000/svg" xmlns:xlink="http://www.w3.org/1999/xlink" x="0px" y="0px"
	 viewBox="0 0 768 535.4" style="enable-background:new 0 0 768 535.4;" xml:space="preserve">
<style type="text/css">
	.st0{fill-rule:evenodd;clip-rule:evenodd;fill:#0D83DD;}
	.st1{fill-rule:evenodd;clip-rule:evenodd;fill:#CFE6F8;}
	.st2{opacity:0.2048;fill-rule:evenodd;clip-rule:evenodd;fill:#0060AF;enable-background:new    ;}
	.st3{opacity:0.3967;fill-rule:evenodd;clip-rule:evenodd;fill:#0060AF;enable-background:new    ;}
	.st4{opacity:0.4026;fill-rule:evenodd;clip-rule:evenodd;fill:#004B9C;enable-background:new    ;}
	.st5{fill-rule:evenodd;clip-rule:evenodd;fill:#359CE4;}
	.st6{opacity:0.2014;fill-rule:evenodd;clip-rule:evenodd;fill:#0D83DD;enable-background:new    ;}
	.st7{fill-rule:evenodd;clip-rule:evenodd;fill:#FA8DB5;}
	.st8{fill-rule:evenodd;clip-rule:evenodd;fill:#164B9F;}
	.st9{fill-rule:evenodd;clip-rule:evenodd;fill:#062942;}
	.st10{fill-rule:evenodd;clip-rule:evenodd;fill:#CEE9FD;}
	.st11{fill-rule:evenodd;clip-rule:evenodd;fill:#FFFFFF;}
	.st12{fill-rule:evenodd;clip-rule:evenodd;fill:#6FC57C;}
	.st13{fill-rule:evenodd;clip-rule:evenodd;fill:#68B5EB;}
	.st14{fill-rule:evenodd;clip-rule:evenodd;fill:#49AD57;}
	.st15{fill:none;stroke:#49AD57;stroke-width:0.8428;}
	.st16{fill-rule:evenodd;clip-rule:evenodd;fill:#F5DA66;}
	.st17{opacity:0.1067;fill-rule:evenodd;clip-rule:evenodd;fill:#062942;enable-background:new    ;}
	.st18{fill-rule:evenodd;clip-rule:evenodd;fill:#EFC100;}
	.st19{fill:none;stroke:#CEE9FD;stroke-width:3;stroke-linecap:round;}
	.st20{opacity:0.1982;fill-rule:evenodd;clip-rule:evenodd;fill:#0D83DD;enable-background:new    ;}
</style>
<title>mountain</title>
<desc>Created with Sketch.</desc>
<g id="Hi-Fi-Design">
	<g id="Tablet" transform="translate(0.000000, -13648.000000)">
		<g id="mountain" transform="translate(0.000000, 13648.000000)">
			<g id="Group-19">
				<polygon id="Fill-1" class="st0" points="0,0 0,534.2 768,534.2 768,0 				"/>
				<path id="Fill-20" class="st1" d="M0,535.4h768v-14.5L0,0C0,353.1,0,531.6,0,535.4z"/>
				<polygon id="Fill-2" class="st2" points="461.1,313.1 688.6,467.1 575,243.3 544.3,183.7 516.5,130 481.2,61.6 418.1,183.7 
					379.9,257.7 409.3,277.6 				"/>
				<polyline id="Fill-9" class="st3" points="604.7,164.2 551.7,61.6 516.3,130.1 488.6,183.7 432.2,293.1 768,520.9 768,459.8 
									"/>
				<polygon id="Fill-14" class="st4" points="517.6,351.1 768,520.9 768,356.1 704,238 668.9,170.1 666.6,165.6 666.4,165.2 
					664.1,160.7 640.9,115.8 617.8,160.7 615.5,165.1 615.2,165.6 612.9,170.1 610.4,175 577.8,238 574.9,243.6 				"/>
				<g id="Mountain-Top" transform="translate(455.602371, 61.222844)">
					<path id="Fill-25" class="st5" d="M160,103.8c5.8-0.4,6-5.8,12.2-5.8c6.4,0,6.4,10.7,12.9,10.7c6.4,0,6.4-10.7,12.9-10.7
						c6.4,0,6.5,6.4,13,6.4l-1.3-2.5l-5-9.6l-19.5-37.7l-22.9,44.7L160,103.8z"/>
					<path id="Fill-27" class="st5" d="M70.9,49.2c5.7-0.4,5.9-5.7,12.1-5.7c6.4,0,6.4,10.5,12.7,10.5c6.4,0,6.4-10.5,12.7-10.5
						c6.4,0,6.4,5.7,12.7,5.7h0.2l-2.3-4.4L96.1,0.6L73.2,44.8L70.9,49.2z"/>
					<path id="Fill-29" class="st5" d="M99.4,219.6c4.4-0.3,5-4.4,9.7-4.4c4.9,0,4.9,8,9.7,8c4.9,0,4.9-8,9.7-8
						c4.9,0,4.9,4.4,9.7,4.4h0.1l-1.8-3.4l-17.3-34l-18,33.9L99.4,219.6z"/>
					<path id="Fill-31" class="st5" d="M0.2,49.7c5.8-0.4,6-5.8,12.2-5.8c6.4,0,6.4,10.7,12.9,10.7c6.4,0,6.4-10.7,12.9-10.7
						c6.4,0,6.4,5.8,12.9,5.8l-0.6-1l-5.9-11.4l-19-36.9L2.5,45.3L0.2,49.7z"/>
				</g>
			</g>
			<g id="Group-194" transform="translate(89.000000, 26.000000)">
				<path id="Fill-21" class="st6" d="M291.3,302.2c2.4,2.7,6.5,6.3,11.4,9.8c4.4,3.1,8.7,5.6,12,7c3.1,1.4,5.3,1.8,5.9,1
					c1.2-1.7-4.9-8-13.6-14.1s-16.6-9.7-17.8-8C288.7,298.6,289.5,300.1,291.3,302.2"/>
				<path id="Fill-23" class="st0" d="M291.3,302.2c2.4,2.7,6.5,6.3,11.4,9.8c4.4,3.1,8.7,5.6,12,7c-2.4-2.7-6.5-6.3-11.4-9.7
					C298.9,306.1,294.6,303.6,291.3,302.2"/>
				<path id="Fill-33" class="st7" d="M272.8,146.9c2.3,18.4,6.8,50.1,27.4,48.8c20.9-1.4,22.7-24.1,17.3-54.4
					c-4.6-25.3-11.8-29.4-26.5-30.4C278.6,109.9,270.5,128.5,272.8,146.9"/>
				<path id="Fill-35" class="st8" d="M200.8,90.8c2.2,3.9,4.5,7.7,6.8,11.5c1.8,2.8,3.6,5.6,5.5,8.4c2.2,3.2,4.5,6.4,7.1,9.6
					c1.3,1.6,2.7,3.1,4.2,4.7c1.6,1.5,3.3,3.1,6.1,4.5c2.7,1.3,4.9,1.7,7.1,2.2c2.2,0.4,4.3,0.6,6.3,0.8c4.1,0.3,8.1,0.4,12.1,0.4
					c7.9-0.1,15.6-0.6,23.5-1.5l-2.5-16.1c-7.1,1.4-14.6,2.5-21.8,3.3c-3.6,0.4-7.2,0.6-10.7,0.6c-1.7,0-3.4,0-5-0.2
					c-1.6-0.1-3.1-0.4-3.9-0.7c-0.7-0.2-2-1-3.2-2.1c-1.2-1-2.5-2.2-3.7-3.5c-2.5-2.5-4.9-5.3-7.2-8.2c-2.1-2.6-4.1-5.2-6.2-7.9
					c-2.5-3.3-4.9-6.7-7.2-10.1L200.8,90.8z"/>
				<path id="Fill-37" class="st7" d="M290,166.8l0.6-4c-19-2.9-26.2-16.5-26.6-27.3c-0.3-6.7,2.4-12.5,7.8-17.5
					c4.2-3.8,8.5-5.6,8.5-5.7l-1.5-3.8c-0.8,0.3-19.5,8.2-18.8,27.1C260.6,154.1,275.6,164.6,290,166.8"/>
				<path id="Fill-39" class="st9" d="M274.7,146.8l-1.3,1.8c1,0.8,1.9,1.5,2.9,2.3C275.6,149.5,275.1,148.2,274.7,146.8"/>
				<path id="Fill-41" class="st8" d="M271.2,132.3C271.2,132.3,271.1,132.3,271.2,132.3L271.2,132.3h0.3l0.6-0.1
					c0.4-0.1,0.9-0.2,1.4-0.2c0.2,0,0.4,0,0.6-0.1c0.8-0.1,1.5-0.1,2.2-0.1s1.3,0.1,1.9,0.2c1.1-4,3.5-7.6,7-10.9
					c1.3-1.2,2.7-2.2,3.9-3c-0.3-0.2-0.6-0.3-1-0.5c-1.1-0.5-2.3-1-3.5-1.3c-2.6-0.8-5.3-1.2-8-1.2c-1.9,0-3.9,0.1-5.8,0.5
					c-0.9,0.2-1.9,0.4-2.8,0.7c-0.5,0.1-1,0.3-1.4,0.5l-0.8,0.3l-1,0.4L271.2,132.3z"/>
				<path id="Fill-43" class="st10" d="M259.7,86.2c0.3,0.1,0.8,0.2,1.2,0.2c0.7,0,1.3-0.1,1.6-0.2c0.5-0.1,0.5,0,0.4,0.5
					c-0.1,0.4-0.2,0.7-0.3,1c-0.3,0.8-0.7,1.6-1,2.4l3.2-1.1c0,0-0.5,2.2-3.2,2.7l0,0c-0.7,2.7-1.4,5.6-0.5,7.2c0.9,1.7,3,2,5.1,2.5
					c0.9,0.2,1.6,0.3,2.1,0.4c1.1,0.2,1.5,0.4,2.1,1.2c0.7,0.9,0.7,8,0.8,16.7l16.6-1.9c-0.8-5.5-2-12-1.5-17.1
					c0-0.4,0.2-0.8,0.3-1.2c0-0.2,0.1-0.4,0.1-0.5c0.2-1.2,0.5-2.4,0.8-3.4c0.1-0.5,0.2-1,0.4-1.5c0.3-1,0.6-1.9,0.8-2.7
					c0.1-0.3,0.2-0.6,0.3-0.9c0.1-0.1,0.1-0.3,0.2-0.5s0.1-0.3,0.2-0.4c0.1-0.2-0.9-0.4-0.9-0.6c0.3-0.7,0.3-0.7,0.5-1.3
					c0,0,0.4-0.9,0.4-1s0.8,0,0.9-0.2v-0.1c0.1-0.2,0.1-0.4,0.2-0.7c0.1-0.3,0.1-0.6,0.2-0.8c0-0.2,0.1-0.4,0.1-0.7
					c0-0.1,0-0.1,0-0.2c0-0.2,0-0.4,0.1-0.6c0-0.4,0-0.7,0-1c0-0.2,0-0.5,0-0.8c0-0.2,0-0.4,0-0.7c0-0.6-0.1-1.1-0.2-1.6
					c0-0.2-0.1-0.4-0.1-0.6c-0.1-0.2-0.1-0.4-0.2-0.6c-0.2-0.5-0.3-0.9-0.5-1.3c-0.1-0.1-0.1-0.3-0.2-0.4c-0.1-0.2-0.2-0.4-0.4-0.6
					c0-0.1-0.1-0.1-0.1-0.2c-0.1-0.2-0.3-0.4-0.4-0.6c-0.1-0.1-0.2-0.3-0.3-0.4c-0.1-0.2-0.3-0.3-0.4-0.5c-0.1-0.1-0.2-0.2-0.3-0.3
					l-0.1-0.1c-0.2-0.2-0.3-0.3-0.5-0.5c0,0,0,0-0.1-0.1c-0.3-0.2-0.5-0.5-0.8-0.7c-0.2-0.2-0.4-0.4-0.7-0.5
					c-0.1-0.1-0.2-0.1-0.3-0.2c-0.3-0.2-0.5-0.4-0.8-0.5c-0.4-0.2-0.7-0.4-1.1-0.6c-0.7-0.4-1.4-0.7-2.1-1c-1.4-0.5-2.8-0.9-4.1-1.2
					c-0.2,0-0.4-0.1-0.6-0.1s-0.4,0-0.6-0.1c-0.4,0-0.7-0.1-1.1-0.1c-0.1,0-0.2,0-0.3,0c-0.1,0-0.2,0-0.3,0c-0.3,0-0.5,0-0.7,0
					c-0.3,0-0.6,0.1-0.9,0.1c-0.4,0.1-0.8,0.2-1.2,0.3c-0.1,0.1-0.2,0.1-0.4,0.1c-0.2,0.1-0.4,0.1-0.5,0.2c-0.2,0.1-0.4,0.2-0.5,0.3
					c-0.2,0.1-0.4,0.2-0.5,0.3c-0.2,0.1-0.4,0.2-0.5,0.3c-0.5,0.4-1,0.9-1.4,1.5l0,0c-0.1,0.1-0.1,0.2-0.2,0.3
					c-0.1,0.2-0.2,0.5-0.4,0.9c-0.1,0.4-0.8,2.9-1.1,4.3c-0.4,1.9-0.7,3.4-1.2,4.2c-0.3,0.5-1,1.3-1.9,2.1c-1.1,1-2.3,1.9-3,2.4
					C259.4,86,259.4,86.2,259.7,86.2"/>
				<path id="Fill-45" class="st5" d="M270.3,81.1c0,0-0.1,0.4-0.5,0.9c-0.2,0.3-0.5,0.5-0.9,0.8c-0.2,0.1-0.4,0.2-0.7,0.2
					c-0.3,0-0.5,0-0.8-0.1c-0.5-0.2-0.9-0.6-1.1-1.1c-0.2-0.4-0.2-0.8-0.2-1.2c0-0.7,0.2-1.1,0.2-1.1s0,0.1,0.1,0.3
					c0.1,0.2,0.1,0.4,0.2,0.7c0.1,0.3,0.2,0.6,0.4,0.9c0.2,0.3,0.4,0.5,0.6,0.5c0.1,0,0.1,0,0.2,0.1h0.1l0,0h0.1
					c0.1,0,0.3,0,0.4-0.1c0.3-0.1,0.6-0.3,0.9-0.4C269.9,81.3,270.3,81.1,270.3,81.1"/>
				<path id="Fill-47" class="st11" d="M266.9,72L266.9,72c0,0.1,0.3,3.5,5,5.3c0.1,0.3-0.9-0.7-1.7-2.5c-0.6-1.3-0.5-2.4-0.5-2.5
					c0,0,2.5,3.1,4.8,4.2c-2.3,5.4-1.3,10.6-1.3,10.7v0.1l3.5,3.4c0.2,0.5,1.3,2,4.5,4.5c1.7,1.4,3.3,4,4.2,4.3
					c0.6,0.2,0.9,0.3,0.9,0.3h0.2v-0.2c0.4-2.1,1.9-6.7,3-10.1c0.6-1.8,1-3.2,1.1-3.6c0.2-0.8,0.3-1.6,0.4-2.4
					c0.5-6.5-2.9-11.5-9.7-14.1c-5.4-2-9.3-1.9-12.5,0.4c-0.6,0.4-1.2,1.1-1.6,1.7c-0.1,0.1-0.2,0.2-0.2,0.3L266.9,72z"/>
				<path id="Fill-49" class="st10" d="M273,87.5c0,0,2.6-5.1,5.4-2.9s-2.5,9.8-5.5,7.1C269.8,89.2,273,87.5,273,87.5"/>
				<path id="Fill-51" class="st5" d="M271.5,81.7c-0.1-0.7-0.4-1.4-0.9-2s-1.1-1.1-1.9-1.3c-0.9-0.2-1.2-0.1-1.7-0.4
					c-0.4-0.2-0.8-0.8-1-1.5c-0.4,0.6-0.4,1.6,0.2,2.3c0.5,0.7,1.7,0.8,2.1,0.9c0.5,0.1,1,0.4,1.6,0.7
					C270.4,80.8,270.9,81.2,271.5,81.7"/>
				<path id="Fill-53" class="st11" d="M262.9,86.3c0,0,5.6,2.9,5.5,9.5C268.3,95.7,256.8,92.4,262.9,86.3"/>
				<polygon id="Fill-55" class="st12" points="62.4,0.3 25.5,150 62.4,120 99.4,150 				"/>
				<polygon id="Fill-57" class="st12" points="62.4,52.9 10.7,262.4 62.4,220.5 114.2,262.4 				"/>
				<polygon id="Fill-59" class="st12" points="0.1,366.3 124.8,366.3 95.3,247.1 64.3,121.5 62.4,114.1 60.6,121.5 29.6,247.1 				
					"/>
				<path id="Fill-67" class="st8" d="M344.9,290.9L344.9,290.9c0,0.1,0,0.1,0.1,0.2v0.1C345,291.1,344.9,291,344.9,290.9
					C344.9,291,344.9,290.9,344.9,290.9L344.9,290.9z M265.9,126.4l3.7,46.6l30.7,5.6c-2.6-26.6-4.1-51.6-4.1-51.6l-7.8-6.5
					L265.9,126.4z"/>
				<path id="Fill-69" class="st8" d="M276.4,133.4C276.2,133.5,276.3,133.4,276.4,133.4L276.4,133.4h0.3l0.6-0.1
					c0.4-0.1,0.9-0.2,1.4-0.2c0.9-0.1,1.9-0.2,2.8-0.1c1.8,0,3.6,0.4,5.2,1.1c0.8,0.4,1.6,0.8,2.4,1.3c0.4,0.3,0.8,0.5,1.2,0.8
					c0.2,0.2,0.4,0.3,0.6,0.5l0.8,0.6c2,1.7,4,3.6,6,5.5c4,3.8,7.9,7.9,11.6,12.1c2.6,2.9,5.1,5.9,7.5,8.9c1,1.3-1.8-1-4.2-2.4
					c-6.7-4-13.3-8.2-19.8-12.6c-3-2-5.9-4-8.8-6l-5.4,7.3c2.9,2.3,5.8,4.6,8.7,6.8c6.3,4.8,12.6,9.5,19.3,14.1
					c2.4,1.6,4.9,3.3,7.5,4.8c2.6,1.6,5.2,3.1,8.4,4.4c0.8,0.3,1.7,0.7,2.8,1c0.5,0.1,1.1,0.3,1.9,0.4c0.7,0.1,1.6,0.2,3-0.1
					c0.7-0.1,1.5-0.4,2.4-0.9s1.9-1.4,2.5-2.4c1.2-2.1,1.2-3.8,1.1-4.8c0-0.6-0.1-0.9-0.1-1.2c-0.1-0.3-0.1-0.7-0.2-1
					c-0.1-0.5-0.3-1.1-0.5-1.6c-0.6-2-1.4-3.5-2.1-5c-0.8-1.5-1.6-2.9-2.4-4.2c-3.3-5.3-6.8-10.1-10.5-14.8s-7.5-9.2-11.5-13.6
					c-2-2.2-4.1-4.4-6.3-6.6l-0.9-0.8c-0.3-0.3-0.7-0.6-1-0.9c-0.7-0.6-1.5-1.2-2.3-1.8c-1.6-1.1-3.3-2.1-5.1-2.9
					c-3.6-1.6-7.6-2.5-11.5-2.5c-2,0-3.9,0.1-5.8,0.5c-1,0.2-1.9,0.4-2.9,0.7c-0.5,0.1-1,0.3-1.4,0.5l-0.8,0.3l-1,0.4L276.4,133.4z"
					/>
				<path id="Fill-71" class="st9" d="M278.6,149.6l-0.1,0.1c0.1,0.1,0.2,0.1,0.3,0.2C278.7,149.8,278.7,149.7,278.6,149.6"/>
				<path id="Fill-73" class="st8" d="M269.9,118.5l3.5,8.1l2.4,5.6c1-4.5,3.4-8.5,7.3-12.1c1.5-1.4,3-2.5,4.3-3.3
					c-1.9-0.4-3.8-0.6-5.8-0.6h-0.2c-1.9,0-3.7,0.1-5.6,0.5c-1,0.2-1.9,0.4-2.9,0.7c-0.5,0.1-1,0.3-1.4,0.5l-0.8,0.3L269.9,118.5z"
					/>
				<path id="Fill-75" class="st7" d="M271.3,137.8c0.7,18.5,15.6,29,30.1,31.2l0.2-1.7c-1.6-1.1-3.2-2.3-4.7-3.4
					c-9.1-2.6-14.9-7.9-18.1-13.9c-0.1-0.1-0.1-0.2-0.2-0.3c-2.1-3.9-3.1-8.1-3.2-12c-0.1-1.9,0.1-3.7,0.5-5.5
					c1-4.5,3.4-8.5,7.3-12.1c1.5-1.4,3-2.5,4.3-3.3c2.4-1.5,4.2-2.3,4.2-2.3l-1.5-3.8c-0.4,0.1-4.4,1.9-8.7,5.4
					c-3,2.5-6.1,6-8.1,10.5C272,129.8,271.2,133.5,271.3,137.8"/>
				<path id="Fill-77" class="st13" d="M353.7,145.5c16.8,0,28.1-8.3,33.1-15.3l-20.8-15c0,0,0.1-0.1,0.2-0.3
					c-1.1,1.4-11.9,13.1-40-5.4c-38.9-25.7-70-5.2-71.3-4.3l7.2,10.7l7,10.8c0.8-0.5,18.8-11.6,43,4.4
					C328.4,141.7,342.3,145.5,353.7,145.5"/>
				<path id="Fill-79" class="st11" d="M261.6,91.4c0,0-4.9-0.1-5.4,8.7c-0.2,3.8,1.9,7-2.8,12.9c-2,2.4-2.2,6.7-0.1,9.2
					c3.1,3.6,9.6,5.1,17.8-1.5c13.1-10.5-8-19,3.1-35.3c0,0-0.6-6-0.8-5.3C272.7,83,269.5,93.8,261.6,91.4"/>
				<path id="Fill-81" class="st10" d="M269.7,140.3c0,3.5,0.6,6.2,4.1,6.2s6.4-2.9,6.4-6.4s-2.9-6.4-6.4-6.4
					S269.7,136.8,269.7,140.3"/>
				<path id="Fill-83" class="st10" d="M197.9,84.4c-0.7,2.9-0.2,5.2,1.1,6.5c1.3,1.4,3.1,2.2,5.1,2.2c3.9,0,7.1-3.2,7.1-7.1
					s-3.2-7.1-7.1-7.1S198.9,80.2,197.9,84.4"/>
				<path id="Fill-85" class="st9" d="M230.4,189.4c0.3,2.3,0.7,4.5,1.1,6.6c1.8,8.4,4,16.3,6.3,24.3c2.7,9.1,7,23.1,9.9,32
					l12.3,3.2c-2.7-11.2-6.9-27.4-9.2-38.6c-1.6-7.9-3.2-15.8-4.2-23.5c-0.1-0.7-0.2-1.3-0.2-1.9c0,0,0.1,0,0.1,0.1
					c3.2,1.5,6.6,3.4,10,5.4c3.4,2,6.7,4,10,6.2c5.7,3.7,11.4,7.6,16.9,11.5c0.3,1.2,0.6,2.4,0.9,3.6c1.8,6.8,3.6,13.6,5.8,20.5
					c1.1,3.4,2.3,6.9,3.7,10.4c0.7,1.8,1.5,3.5,2.4,5.4c0.5,1,1,1.9,1.7,3c0.4,0.5,0.7,1.1,1.2,1.7c0.4,0.6,0.8,1,1.2,1.4
					c3,3.3,5.9,5.5,8.9,7.7c2.9,2.2,5.9,4.2,8.9,6.1c1.5,1,2.9,1.9,4.4,2.8c1,0.6,2,1.3,3.1,1.9l7.5-10.4c-1.1-0.9-2.2-1.7-3.3-2.6
					c-1.2-0.9-2.4-1.9-3.5-2.9c-2.6-2.1-5.1-4.3-7.5-6.5c-2.3-2.2-4.6-4.5-6.1-6.5c-0.2-0.2-0.4-0.5-0.4-0.7l-0.2-0.5
					c-0.2-0.4-0.4-1-0.7-1.6c-0.5-1.2-1-2.7-1.4-4.2v-0.1l0,0c-1.8-7.3-3.4-16.9-4.8-26.2h0.1c-0.2-1.5-0.5-3.1-0.7-4.7
					c0-0.1,0-0.2,0-0.3c-0.2-1.4-0.4-2.9-0.6-4.4c0-0.2-0.1-0.4-0.1-0.6c-0.1-0.8-0.2-1.6-0.3-2.4c-0.1-0.4-0.1-0.7-0.1-1.1
					c-1-8-2-16.6-2.8-25l-30.7-5.6l0.9,10.9c-1.9-1-3.8-2-5.7-2.9c-3.8-1.8-7.7-3.6-11.9-5.3c-2.1-0.8-4.3-1.6-7-2.2
					c-1.4-0.3-2.9-0.6-5-0.5c-1.1,0.1-2.5,0.1-4.4,0.9c-0.2,0.1-0.5,0.2-0.7,0.3l-0.4,0.2l-0.3,0.1l-0.3,0.2
					c-0.9,0.6-1.6,1.3-2.1,1.9c-1,1.3-1.4,2.2-1.7,3.1c-0.5,1.6-0.6,2.6-0.7,3.5c-0.1,0.9-0.1,1.6-0.1,2.4
					C230.1,187,230.2,188.2,230.4,189.4z"/>
				<path id="Fill-87" class="st11" d="M277,91.1c0,0-1.7,7.7,0.5,13c2.6,6.3,10,5.7,10.9,3.2c0.8-2.3-2.6-4.3-2.6-4.3l-0.9-8.3
					l-3.9-6.1L277,91.1z"/>
				<path id="Fill-89" class="st7" d="M269.5,69.4c0,0,5.3-6.3,13.3-5.1c11.8,1.8,24.7,26.4,36.5,23.1c0,0-3,8.2-21.6,5.4
					c-10.5-1.6-11.6,10.1-11.6,10.1L269.5,69.4z"/>
				<path id="Fill-91" class="st11" d="M316.8,87c0,3.1,2.5,5.7,5.6,5.7s5.6-2.5,5.6-5.7c0-3.1-2.5-5.7-5.6-5.7S316.8,83.8,316.8,87
					"/>
				<path id="Fill-93" class="st13" d="M368.3,122.6c0.3,0,0.5-0.1,0.7-0.3c0.2-0.2,4.8-4,7.1-9.6c0.2-0.6,0-1.3-0.6-1.5
					s-1.3,0-1.5,0.6c-2.1,5.1-6.4,8.7-6.4,8.7c-0.5,0.4-0.6,1.1-0.2,1.6C367.6,122.5,367.9,122.6,368.3,122.6"/>
				<path id="Fill-95" class="st13" d="M371.1,123.8c0.3,0,0.5-0.1,0.7-0.3c0.2-0.2,4.8-4,7.1-9.6c0.2-0.6,0-1.3-0.6-1.5
					s-1.3,0-1.5,0.6c-2.1,5.1-6.4,8.7-6.4,8.7c-0.5,0.4-0.6,1.1-0.2,1.6C370.5,123.7,370.8,123.8,371.1,123.8"/>
				<path id="Fill-97" class="st13" d="M374.2,124.5c0.3,0,0.5-0.1,0.7-0.3c0.2-0.2,4.8-4,7.1-9.6c0.2-0.6,0-1.3-0.6-1.5
					s-1.3,0-1.5,0.6c-2.1,5.1-6.4,8.7-6.4,8.7c-0.5,0.4-0.6,1.1-0.2,1.6C373.5,124.3,373.8,124.5,374.2,124.5"/>
				<path id="Fill-99" class="st13" d="M376.9,125.5c0.3,0,0.5-0.1,0.7-0.3c0.2-0.2,4.8-4,7.1-9.6c0.2-0.6,0-1.3-0.6-1.5
					s-1.3,0-1.5,0.6c-2.1,5.1-6.4,8.7-6.4,8.7c-0.5,0.4-0.6,1.1-0.2,1.6C376.2,125.4,376.5,125.5,376.9,125.5"/>
				<path id="Fill-101" class="st13" d="M379.2,126.5c0.3,0,0.5-0.1,0.7-0.3c0.2-0.2,4.8-4,7.1-9.6c0.2-0.6,0-1.3-0.6-1.5
					s-1.3,0-1.5,0.6c-2.1,5.1-6.4,8.7-6.4,8.7c-0.5,0.4-0.6,1.1-0.2,1.6C378.6,126.4,378.9,126.5,379.2,126.5"/>
				<path id="Fill-103" class="st13" d="M381.1,128.9c0.3,0,0.5-0.1,0.7-0.3s4.8-4,7.1-9.6c0.2-0.6,0-1.3-0.6-1.5s-1.3,0-1.5,0.6
					c-2.1,5.1-6.4,8.7-6.4,8.7c-0.5,0.4-0.6,1.1-0.2,1.6C380.4,128.8,380.7,128.9,381.1,128.9"/>
				<polygon id="Fill-105" class="st14" points="78.4,115.7 80.6,114.8 64.2,77.4 62.1,78.3 				"/>
				<polygon id="Fill-107" class="st14" points="72,119.2 74.3,118.6 64.3,77.6 62,78.1 				"/>
				<polygon id="Fill-109" class="st14" points="65,119.9 67.4,119.7 64.3,77.8 62,77.9 				"/>
				<polygon id="Fill-111" class="st14" points="61.3,119 64.3,77.9 62,77.8 59,118.8 				"/>
				<polygon id="Fill-113" class="st14" points="57.6,198.6 59.9,198.4 57.4,157.7 55.1,157.8 				"/>
				<polygon id="Fill-115" class="st14" points="52.7,199.8 57.4,157.9 55.1,157.6 50.4,199.6 				"/>
				<polygon id="Fill-117" class="st14" points="45.8,198.5 57.4,158 55.2,157.4 43.6,197.8 				"/>
				<polygon id="Fill-119" class="st14" points="40.4,195.7 57.3,158.2 55.2,157.2 38.3,194.7 				"/>
				<polygon id="Fill-121" class="st14" points="91.8,231.2 93.9,230.3 77.4,193 75.3,193.9 				"/>
				<polygon id="Fill-123" class="st14" points="85.4,234.7 87.7,234.2 77.5,193.1 75.3,193.7 				"/>
				<polygon id="Fill-125" class="st14" points="78.4,235.5 80.7,235.3 77.5,193.3 75.2,193.5 				"/>
				<polygon id="Fill-127" class="st14" points="74.7,234.6 77.5,193.5 75.2,193.3 72.4,234.4 				"/>
				<polygon id="Fill-129" class="st14" points="54,289.8 56.3,289.6 53.7,248.9 51.4,249 				"/>
				<polygon id="Fill-131" class="st14" points="49.1,291.1 53.7,249.1 51.4,248.8 46.8,290.8 				"/>
				<polygon id="Fill-133" class="st14" points="42.3,289.7 53.7,249.3 51.4,248.6 40,289.1 				"/>
				<polygon id="Fill-135" class="st14" points="36.8,287 53.6,249.4 51.5,248.5 34.7,286 				"/>
				<path id="Stroke-137" class="st15" d="M81.6,296.3l16.9,37.1"/>
				<path id="Stroke-139" class="st15" d="M81.6,296.3l10.6,40.9"/>
				<path id="Stroke-141" class="st15" d="M81.6,296.3l3.7,41.9"/>
				<path id="Stroke-143" class="st15" d="M81.6,296.3l-2.4,41.1"/>
				<path id="Fill-145" class="st10" d="M200.8,90.8c2.2,3.9,4.5,7.7,6.8,11.5l7.6-5.8c-2.5-3.3-4.9-6.7-7.2-10.1L200.8,90.8z"/>
				<path id="Fill-147" class="st16" d="M203.5,237c2,0,3.8-1.3,4.4-3.3c9.3-29.3,4.4-44.3-0.2-58.7l-0.5-1.5c-0.7-2-1.3-4.1-2-6.1
					c-5-14.6-9.7-28.4-1.4-48.9c10.5-26.1,3.2-56.6,2.9-57.9c-0.6-2.5-3.1-4-5.6-3.4s-4,3.2-3.4,5.7c0.1,0.3,6.9,28.9-2.5,52.1
					c-9.6,23.7-3.8,40.6,1.3,55.4c0.7,2,1.4,4,2,5.9l0.5,1.5c4.4,13.6,8.6,26.5,0.2,53c-0.8,2.5,0.6,5.1,3,5.9
					C202.6,237,203.1,237,203.5,237"/>
				<path id="Fill-149" class="st10" d="M273.7,145.3c2.6,2.1,8.1,6.3,10.7,8.3l4.9-7.2c-2.7-1.8-8.2-5.8-10.8-7.6L273.7,145.3z"/>
				<g id="Group-159" transform="translate(171.134284, 235.343021)">
					<path id="Fill-151" class="st9" d="M159.7,142.4c-0.1,0.1-0.1,0.2-0.2,0.3c0,0,0.1,0,0.1-0.1L159.7,142.4z"/>
					<path id="Fill-153" class="st17" d="M125.3,122.5c0.4-0.5,0.8-1.1,1.1-1.4c0.3-0.4,0.6-0.6,0.9-0.8l0.3-0.2
						c0.1-0.1,0.3-0.1,0.5-0.2c1.6-0.4,3.9-0.1,6.3,0.3c2.4,0.5-7.9,1.4-5.3,2.2c0.3,0.1-2-1.5-1.7-1.4c0.9,0.3,3.8,0.8,4.7,1.1
						c-4.5-2.2-2.6-1.5-1.5-1.1c0.1,0,3.8-4,3.9-4l34.3,8.2l0.7-2.9l4.5-30.4l0.7-5.8c-1.7-2.1-5.2,2.4-7,8.5
						c-1.3,4.4-2.1,9.4-3.4,16.1c-0.3,1.5-0.7,3.1-1,4.2c-0.1,0-1-0.4-1-0.4c-2-0.8-4.3-2-6.6-3.2c-0.4-0.2-0.9-0.5-1.3-0.7
						c-3.2-1.7-6.4-3.5-9.7-5.2c-1-0.5-1.9-1-2.9-1.5c-1.4-0.7-2.8-1.5-4.2-2.1c-2.8-1.4-5.6-2.7-8.5-3.9c-2.9-1.1-8.2-2.7-11.1-2.4
						c-3.6,0.4-6.4,2.2-10.5,10.5c-1.4,2.9-3.7,9.7-6.1,16.3h23.9V122.5z"/>
					<path id="Fill-155" class="st17" d="M45.3,129.8c0.1,1.2,0.2,2.5,0.8,5c0.1,0.2,0.1,0.5,0.2,0.7h14.1l-0.1-0.1
						c0.2-0.5,0.4-1.1,0.6-1.7c2.4-6.5,5.3-12.7,8.3-18.7c4.2-8.5,8.7-16.7,13.1-24.8c1.9-3.4,3.7-6.8,5.6-10.2l4.8-8.8
						c0.8-1.5,1.5-3,2.3-4.6c0.4-0.8,0.7-1.6,1.1-2.6c0.1-0.3,0.2-0.5,0.3-0.9c0.1-0.2,0.1-0.4,0.2-0.6c0-0.1,0.1-0.4,0.1-0.6
						c0-0.1,0.1-0.3,0.1-0.5v-0.3c0-0.1,0-0.4,0-0.7s-0.1-0.5-0.1-0.8c-0.1-0.6-0.3-1.4-0.5-2.2c-0.3-0.8-0.4-1-0.4-1.2L66,40.7
						c0,0.3,0,0.7,0.1,1.1c0.7,3.7,13.9,13.4,18.6,16.7c0.9,0.6,1.1,1.8,0.4,2.7L80.9,67c-3.1,4.2-6.2,8.4-9.3,12.6
						c-4.2,5.7-8.3,11.5-12.3,17.6c-3.5,5.3-7,10.7-10.1,17.1c-0.8,1.6-1.6,3.3-2.3,5.3c-0.4,1-0.7,2.1-1,3.4
						c-0.1,0.7-0.3,1.4-0.4,2.4C45.4,126.5,45.2,127.6,45.3,129.8"/>
					<path id="Fill-157" class="st17" d="M1.4,113.6c0.5,6.2,0.6,12,0.3,17.4h7.6c0.1-4.2,0-8.7-0.4-13.5
						c-2.6-30.7,1.5-40.1,8.4-48.9c1-1.2,2-2.5,2.9-3.8l0.7-0.9c6.6-9,13.5-18.3,12-57.1c-0.1-1.6-0.8-3.5-1.7-4.8
						c-0.2-0.3-0.5-0.6-0.7-0.8c-1.3-1.2-2.2-0.5-2.1,1.4c1.4,36.6-4.7,45-11.3,53.8l-0.7,0.9c-0.9,1.3-1.9,2.5-2.9,3.7
						C6.2,70.4-1.4,80.1,1.4,113.6"/>
				</g>
				<path id="Fill-160" class="st18" d="M236.8,276l29.1,19.9c0.1-0.1,0.2-0.1,0.7-0.5c0.4-0.3,0.7-0.8,0.9-1.2
					c0.1-0.2,0.2-0.4,0.2-0.5c0.1-0.2,0.1-0.4,0.1-0.5v-0.3c0-0.2,0.1-0.4,0.1-0.5c0-0.2,0-0.4,0-0.5c0-0.3,0-0.5,0-0.7
					c0-0.4-0.1-0.7-0.1-1c-0.2-1.2-0.4-2.2-0.6-3.3c-0.4-2.1-0.9-4.1-1.3-6.1l-2.8-12c-1.1-4.7-2.2-9.3-3.4-14l-12.3-3.2
					c2.1,6.6,4.2,13.2,6.4,19.8l3.7,11.6c0,0-2.2-1-4.8-2.4c-4-2.1-8-4.2-11.9-6.2l0,0c-1.2-0.8-2.8-0.5-3.7,0.7
					C237,275.5,236.8,275.8,236.8,276"/>
				<path id="Fill-162" class="st18" d="M345.2,292.6c0.1,1,0.1,2.2,0.1,3.4c-0.1,6.6-0.6,13.6-1.3,20.4v0.1
					c-0.2,2.1,1.3,3.9,3.4,4.1h0.1l5.9-39.6c-0.2-0.3-1.5-1-3.8-2.1c-1.9-0.9-3.5-1.6-8.7-4.7c-4.9-2.8-7-4.7-11.1-8l-7.3,11.1
					c4.5,2.8,8.9,5.5,13.3,8.2c2.9,1.8,5.8,3.6,8.3,5.4C344,290.8,345.1,291.6,345.2,292.6"/>
				<path id="Fill-164" class="st10" d="M201.5,79.4c0,0,6.4,1.1,6.7,5.4c0.3,5.5-2.4,11.9-9.2,6L201.5,79.4z"/>
				<path id="Fill-166" class="st10" d="M211.2,86c-0.1,2.9-0.1,5.6,4.1,10.5l-5.9-1.9l-1-13.2L211.2,86z"/>
				<path id="Fill-170" class="st11" d="M526.8,124.7H645c0,0-23.1-26.9-40.6-25s-19.2,12.1-35.1,12.5
					c-19.6,0.5-22.7-20.4-37.4-20.4c-14.8,0-24.4,21.7-37.3,23.5c-12.9,1.9-21.2-10.3-37.8-7.5c-16.6,2.8-27.7,16.9-27.7,16.9H526.8
					z"/>
				<polygon id="Fill-172" class="st12" points="559.9,192.9 541.9,266 559.9,251.4 578,266 				"/>
				<polygon id="Fill-174" class="st12" points="559.9,218.6 534.7,320.9 559.9,300.5 585.2,320.9 				"/>
				<polygon id="Fill-176" class="st12" points="530.8,366.3 589.1,366.3 576,313.5 560.8,252.2 559.9,248.5 559,252.2 543.9,313.5 
									"/>
				<path id="Fill-178" class="st10" d="M285.9,143.9c-3.8-2.2-5.1-8.2-10.4-10.1l-0.8,5.5l5.9,6.1L285.9,143.9z"/>
				<path id="Fill-180" class="st10" d="M279.7,150c-2.4-1.9-8.8-2.2-9.6-6.3l2.3-1.7l7.2,3.4L279.7,150z"/>
				<path id="Stroke-182" class="st19" d="M208.4,82.2l-4.8-4"/>
				<path id="Fill-184" class="st11" d="M359.1,296.9c0,0.8,0.6,1.4,1.4,1.4s1.4-0.6,1.4-1.4s-0.6-1.4-1.4-1.4
					C359.7,295.4,359.1,296.1,359.1,296.9"/>
				<path id="Fill-186" class="st11" d="M356.7,304.1c0,1,0.8,1.8,1.8,1.8s1.8-0.8,1.8-1.8s-0.8-1.8-1.8-1.8
					C357.6,302.3,356.7,303.1,356.7,304.1"/>
				<path id="Fill-188" class="st11" d="M363.7,306.6c0,0.5,0.4,0.8,0.8,0.8c0.5,0,0.8-0.4,0.8-0.8c0-0.5-0.4-0.8-0.8-0.8
					C364.1,305.8,363.7,306.2,363.7,306.6"/>
				<path id="Fill-190" class="st20" d="M361,335.4c3.2,3.6,8.7,8.4,15.3,13.1c6,4.2,11.7,7.5,16,9.4c4.1,1.8,7.1,2.4,7.8,1.3
					c1.6-2.3-6.6-10.7-18.2-18.9c-11.6-8.2-22.3-12.9-23.9-10.7C357.5,330.5,358.6,332.6,361,335.4"/>
				<path id="Fill-192" class="st0" d="M361,335.4c3.2,3.6,8.7,8.4,15.3,13.1c6,4.2,11.7,7.5,16,9.4c-3.2-3.6-8.7-8.4-15.3-13.1
					C371.1,340.6,365.4,337.3,361,335.4"/>
			</g>
		</g>
	</g>
</g>
</svg>
