<?xml version="1.0" encoding="utf-8"?>
<!-- Generator: Adobe Illustrator 23.0.1, SVG Export Plug-In . SVG Version: 6.00 Build 0)  -->
<svg version="1.1" id="Layer_1" xmlns="http://www.w3.org/2000/svg" xmlns:xlink="http://www.w3.org/1999/xlink" x="0px" y="0px"
	 viewBox="0 0 1280 892" style="enable-background:new 0 0 1280 892;" xml:space="preserve">
<style type="text/css">
	.st0{fill-rule:evenodd;clip-rule:evenodd;fill:#0D83DD;}
	.st1{fill-rule:evenodd;clip-rule:evenodd;fill:#CFE6F8;}
	.st2{opacity:0.2048;fill-rule:evenodd;clip-rule:evenodd;fill:#0060AF;enable-background:new    ;}
	.st3{opacity:0.3967;fill-rule:evenodd;clip-rule:evenodd;fill:#0060AF;enable-background:new    ;}
	.st4{opacity:0.4026;fill-rule:evenodd;clip-rule:evenodd;fill:#004B9C;enable-background:new    ;}
	.st5{fill-rule:evenodd;clip-rule:evenodd;fill:#359CE4;}
	.st6{opacity:0.2014;fill-rule:evenodd;clip-rule:evenodd;fill:#0D83DD;enable-background:new    ;}
	.st7{fill-rule:evenodd;clip-rule:evenodd;fill:#FA8DB5;}
	.st8{fill-rule:evenodd;clip-rule:evenodd;fill:#164B9F;}
	.st9{fill-rule:evenodd;clip-rule:evenodd;fill:#062942;}
	.st10{fill-rule:evenodd;clip-rule:evenodd;fill:#CEE9FD;}
	.st11{fill-rule:evenodd;clip-rule:evenodd;fill:#FFFFFF;}
	.st12{fill-rule:evenodd;clip-rule:evenodd;fill:#6FC57C;}
	.st13{fill-rule:evenodd;clip-rule:evenodd;fill:#68B5EB;}
	.st14{fill-rule:evenodd;clip-rule:evenodd;fill:#49AD57;}
	.st15{fill:none;stroke:#49AD57;}
	.st16{fill-rule:evenodd;clip-rule:evenodd;fill:#F5DA66;}
	.st17{opacity:0.1067;fill-rule:evenodd;clip-rule:evenodd;fill:#062942;enable-background:new    ;}
	.st18{fill-rule:evenodd;clip-rule:evenodd;fill:#EFC100;}
	.st19{fill:none;stroke:#CEE9FD;stroke-width:2;stroke-linecap:round;}
	.st20{opacity:0.1982;fill-rule:evenodd;clip-rule:evenodd;fill:#0D83DD;enable-background:new    ;}
</style>
<title>mountain</title>
<desc>Created with Sketch.</desc>
<g id="Hi-Fi-Design">
	<g id="Desktop" transform="translate(-81.000000, -13934.000000)">
		<g id="mountain" transform="translate(81.000000, 13934.000000)">
			<g id="Group-19">
				<polygon id="Fill-1" class="st0" points="0,0 0,890 1280,890 1280,0 				"/>
				<path id="Fill-20" class="st1" d="M0,892h1280v-24.1L0,0C0,588.3,0,885.6,0,892z"/>
				<polygon id="Fill-2" class="st2" points="768.8,521 1153.5,782.1 958.7,404.8 907.4,305.4 861.2,216 802.3,102 697.1,305.5 
					633.2,429.3 682.2,462.4 				"/>
				<polyline id="Fill-9" class="st3" points="1007.9,273.6 919.6,102.6 860.6,216.8 814.4,306.1 720.3,488.4 1280,867.9 1280,766 
									"/>
				<polygon id="Fill-14" class="st4" points="862.6,584.9 1280,867.9 1280,593.3 1173.3,396.5 1114.9,283.4 1111,275.9 
					1110.6,275.2 1106.8,267.7 1068.2,193 1029.6,267.7 1025.8,275.1 1025.4,275.9 1021.5,283.4 1017.3,291.6 963,396.5 
					958.2,405.8 				"/>
				<g id="Mountain-Top" transform="translate(759.337284, 102.000000)">
					<path id="Fill-25" class="st5" d="M266.7,172.9c9.7-0.6,10-9.7,20.4-9.7c10.7,0,10.7,17.8,21.5,17.8
						c10.7,0,10.7-17.8,21.5-17.8c10.7,0,10.7,9.7,21.5,9.7h0.3l-3.9-7.5l-38.7-74.8l-38.6,74.8L266.7,172.9z"/>
					<path id="Fill-27" class="st5" d="M118.1,82c9.6-0.6,9.9-9.5,20.1-9.5c10.6,0,10.6,17.5,21.2,17.5c10.6,0,10.6-17.5,21.2-17.5
						c10.6,0,10.6,9.5,21.2,9.5h0.3l-3.8-7.4L160.1,1l-38.2,73.7L118.1,82z"/>
					<path id="Fill-29" class="st5" d="M165.7,365.8c7.3-0.5,8.4-7.3,16.2-7.3c8.1,0,8.1,13.4,16.2,13.4c8.1,0,8.1-13.4,16.2-13.4
						c8.1,0,8.1,7.3,16.2,7.3h0.2l-2.9-5.7L199,303.5L168.8,360L165.7,365.8z"/>
					<path id="Fill-31" class="st5" d="M0.4,82.9c9.7-0.6,10-9.7,20.4-9.7C31.5,73.2,31.5,91,42.2,91C53,91,53,73.2,63.7,73.2
						s10.7,9.7,21.5,9.7h0.3l-3.9-7.5L42.9,0.6L4.2,75.4L0.4,82.9z"/>
				</g>
			</g>
			<g id="Group-194" transform="translate(137.000000, 93.000000)">
				<path id="Fill-21" class="st6" d="M347.1,359c2.8,3.2,7.7,7.4,13.6,11.6c5.3,3.7,10.4,6.6,14.3,8.3c3.7,1.6,6.3,2.1,7,1.1
					c1.4-2-5.8-9.5-16.1-16.7c-10.3-7.2-19.8-11.5-21.2-9.5C344,354.7,344.9,356.6,347.1,359"/>
				<path id="Fill-23" class="st0" d="M347.1,359c2.8,3.2,7.7,7.4,13.6,11.6c5.3,3.7,10.4,6.6,14.3,8.3c-2.8-3.2-7.7-7.4-13.6-11.6
					C356.1,363.7,351,360.7,347.1,359"/>
				<path id="Fill-33" class="st7" d="M325.1,174.5c2.7,21.8,8.1,59.6,32.6,57.9c24.9-1.6,27.1-28.7,20.6-64.7
					c-5.4-30-14-34.9-31.6-36.1C331.9,130.6,322.3,152.7,325.1,174.5"/>
				<path id="Fill-35" class="st8" d="M239.3,107.8c2.6,4.6,5.3,9.2,8.1,13.6c2.1,3.3,4.2,6.7,6.5,9.9c2.6,3.8,5.4,7.7,8.5,11.4
					c1.5,1.9,3.2,3.7,5,5.6c1.9,1.8,3.9,3.7,7.2,5.4c3.2,1.5,5.8,2.1,8.5,2.6c2.6,0.5,5.1,0.7,7.5,1c4.9,0.4,9.6,0.5,14.4,0.4
					c9.5-0.1,18.6-0.7,28-1.7l-3-19.1c-8.4,1.6-17.4,3-26,3.9c-4.3,0.4-8.6,0.7-12.8,0.8c-2.1,0-4.1,0-6-0.2s-3.7-0.5-4.6-0.9
					c-0.8-0.2-2.4-1.2-3.8-2.4c-1.5-1.2-3-2.7-4.5-4.2c-3-3-5.8-6.3-8.6-9.7c-2.5-3.1-4.9-6.2-7.3-9.4c-3-4-5.8-8-8.6-12
					L239.3,107.8z"/>
				<path id="Fill-37" class="st7" d="M345.5,198.1l0.7-4.8c-22.6-3.4-31.3-19.6-31.7-32.4c-0.3-7.9,2.8-14.9,9.3-20.8
					c5-4.5,10.1-6.7,10.2-6.7l-1.8-4.5c-1,0.4-23.3,9.8-22.4,32.2C310.5,183.1,328.3,195.5,345.5,198.1"/>
				<path id="Fill-39" class="st9" d="M327.2,174.4l-1.6,2.1c1.1,0.9,2.3,1.8,3.4,2.7C328.4,177.7,327.7,176.1,327.2,174.4"/>
				<path id="Fill-41" class="st8" d="M323.1,157.1C323,157.1,323,157.2,323.1,157.1L323.1,157.1h0.3l0.7-0.2
					c0.5-0.1,1.1-0.2,1.6-0.3c0.2,0,0.4,0,0.7-0.1c0.9-0.1,1.8-0.1,2.7-0.1c0.8,0,1.6,0.1,2.3,0.2c1.3-4.7,4.1-9,8.3-12.9
					c1.6-1.4,3.2-2.6,4.6-3.6c-0.4-0.2-0.8-0.4-1.2-0.6c-1.4-0.6-2.8-1.1-4.2-1.5c-3.1-0.9-6.3-1.4-9.5-1.4c-2.3,0-4.6,0.1-6.9,0.6
					c-1.1,0.2-2.3,0.5-3.4,0.8c-0.6,0.2-1.1,0.3-1.7,0.5l-0.9,0.3l-1.2,0.5L323.1,157.1z"/>
				<path id="Fill-43" class="st10" d="M309.4,102.4c0.4,0.1,0.9,0.2,1.5,0.2c0.9,0,1.6-0.1,1.9-0.2c0.6-0.1,0.6,0,0.5,0.6
					c-0.1,0.4-0.2,0.8-0.4,1.2c-0.4,1-0.8,1.9-1.2,2.8l3.8-1.4c0,0-0.5,2.6-3.9,3.3l0,0c-0.9,3.2-1.6,6.6-0.7,8.6c1,2,3.6,2.4,6.1,3
					c1.1,0.2,1.9,0.3,2.5,0.4c1.3,0.2,1.8,0.4,2.5,1.5c0.8,1.1,0.8,9.5,0.9,19.8l19.7-2.3c-1-6.6-2.4-14.3-1.7-20.4
					c0.1-0.5,0.2-1,0.3-1.5c0.1-0.2,0.1-0.4,0.1-0.6c0.3-1.4,0.6-2.8,0.9-4.1c0.1-0.6,0.3-1.2,0.4-1.8c0.3-1.2,0.7-2.3,1-3.2
					c0.1-0.3,0.2-0.7,0.4-1.1c0.1-0.2,0.1-0.4,0.2-0.5c0.1-0.2,0.2-0.4,0.2-0.5c0.1-0.2-1.1-0.5-1-0.7c0.3-0.8,0.4-0.8,0.6-1.5
					c0-0.1,0.5-1.1,0.5-1.1c0.1-0.2,1-0.1,1-0.2c0,0,0-0.1,0-0.2c0.1-0.3,0.1-0.5,0.2-0.8s0.1-0.7,0.2-1c0-0.3,0.1-0.5,0.1-0.8
					c0-0.1,0-0.1,0-0.2c0-0.2,0.1-0.5,0.1-0.7c0-0.4,0.1-0.8,0.1-1.2c0-0.3,0-0.6,0-0.9s0-0.5-0.1-0.8c0-0.7-0.2-1.3-0.3-1.9
					c-0.1-0.2-0.1-0.4-0.2-0.7c-0.1-0.3-0.2-0.5-0.2-0.8c-0.2-0.6-0.4-1.1-0.6-1.6c-0.1-0.2-0.2-0.3-0.2-0.5
					c-0.1-0.2-0.3-0.5-0.4-0.7c0-0.1-0.1-0.1-0.1-0.2c-0.2-0.3-0.3-0.5-0.5-0.8c-0.1-0.2-0.2-0.3-0.4-0.5c-0.2-0.2-0.3-0.4-0.5-0.6
					c-0.1-0.1-0.2-0.2-0.3-0.3l-0.1-0.1c-0.2-0.2-0.4-0.4-0.6-0.6c0,0,0,0-0.1-0.1c-0.3-0.3-0.6-0.6-1-0.9c-0.3-0.2-0.5-0.4-0.8-0.6
					c-0.1-0.1-0.2-0.1-0.3-0.2c-0.3-0.2-0.6-0.4-0.9-0.6c-0.4-0.2-0.9-0.5-1.3-0.7c-0.8-0.4-1.6-0.8-2.5-1.1
					c-1.7-0.6-3.3-1.1-4.9-1.4c-0.2-0.1-0.5-0.1-0.7-0.1s-0.5-0.1-0.7-0.1c-0.4,0-0.9-0.1-1.3-0.1c-0.1,0-0.2,0-0.3,0
					c-0.1,0-0.2,0-0.3,0c-0.3,0-0.6,0-0.9,0s-0.7,0.1-1,0.1c-0.5,0.1-1,0.2-1.5,0.4c-0.1,0.1-0.3,0.1-0.4,0.2
					c-0.2,0.1-0.4,0.2-0.7,0.3c-0.2,0.1-0.4,0.2-0.6,0.3c-0.2,0.1-0.4,0.2-0.6,0.4c-0.2,0.1-0.4,0.3-0.6,0.4
					c-0.6,0.5-1.2,1.1-1.7,1.8l0,0c-0.1,0.1-0.2,0.2-0.2,0.3c-0.2,0.2-0.3,0.6-0.4,1.1c-0.2,0.4-1,3.5-1.3,5.1c-0.5,2.2-0.8,4-1.5,5
					c-0.4,0.6-1.1,1.5-2.3,2.5c-1.3,1.2-2.8,2.3-3.6,2.8C309,102.1,309,102.4,309.4,102.4"/>
				<path id="Fill-45" class="st5" d="M322,96.4c0,0-0.1,0.5-0.6,1.1c-0.2,0.3-0.6,0.6-1,0.9c-0.2,0.1-0.5,0.2-0.8,0.3
					c-0.4,0-0.6,0-0.9-0.1c-0.6-0.2-1.1-0.8-1.3-1.3c-0.2-0.5-0.2-1-0.2-1.4c0-0.8,0.2-1.3,0.2-1.3s0,0.1,0.1,0.3
					c0.1,0.2,0.2,0.5,0.3,0.8c0.1,0.3,0.3,0.7,0.5,1s0.4,0.5,0.8,0.6c0.1,0,0.1,0,0.3,0.1h0.1l0,0h0.1c0.2,0,0.3,0,0.5-0.1
					c0.4-0.1,0.7-0.3,1-0.5C321.5,96.6,322,96.4,322,96.4"/>
				<path id="Fill-47" class="st11" d="M318,85.5L318,85.5c0,0.1,0.3,4.2,6,6.3c0.1,0.4-1.1-0.8-2-3c-0.7-1.5-0.6-2.9-0.6-2.9
					s3,3.7,5.7,5c-2.7,6.4-1.5,12.6-1.5,12.7v0.1l4.2,4c0.2,0.6,1.6,2.4,5.3,5.4c2,1.6,3.9,4.7,5,5.1c0.7,0.2,1.1,0.3,1.1,0.3h0.3
					v-0.3c0.5-2.5,2.2-8,3.5-12c0.7-2.1,1.2-3.8,1.3-4.3c0.2-1,0.4-1.9,0.4-2.8c0.6-7.8-3.5-13.7-11.6-16.8
					c-6.4-2.4-11.1-2.3-14.9,0.4c-0.7,0.5-1.4,1.3-1.9,2.1c-0.1,0.1-0.2,0.3-0.3,0.4V85.5z"/>
				<path id="Fill-49" class="st10" d="M325.3,104c0,0,3.1-6,6.4-3.4s-3,11.6-6.6,8.5C321.5,105.9,325.3,104,325.3,104"/>
				<path id="Fill-51" class="st5" d="M323.4,97c-0.1-0.9-0.5-1.7-1-2.4c-0.5-0.7-1.3-1.3-2.3-1.5c-1.1-0.2-1.5-0.1-2-0.4
					s-0.9-0.9-1.1-1.7c-0.4,0.8-0.4,1.8,0.3,2.7c0.6,0.9,2,1,2.4,1.1c0.6,0.2,1.2,0.5,1.9,0.9C322.1,96,322.7,96.5,323.4,97"/>
				<path id="Fill-53" class="st11" d="M313.2,102.5c0,0,6.6,3.4,6.5,11.2C319.7,113.7,306,109.8,313.2,102.5"/>
				<polygon id="Fill-55" class="st12" points="74.4,0.4 30.3,178.2 74.4,142.6 118.5,178.2 				"/>
				<polygon id="Fill-57" class="st12" points="74.4,62.8 12.7,311.7 74.4,261.9 136.1,311.7 				"/>
				<polygon id="Fill-59" class="st12" points="0.1,435.2 148.6,435.2 113.6,293.5 76.6,144.4 74.4,135.5 72.2,144.4 35.2,293.6 
									"/>
				<polygon id="Fill-61" class="st12" points="917.9,333.8 904.6,387.4 917.9,376.7 931.2,387.4 				"/>
				<polygon id="Fill-63" class="st12" points="917.9,352.6 899.3,427.7 917.9,412.7 936.5,427.7 				"/>
				<polygon id="Fill-65" class="st12" points="899.4,449.2 936.4,449.2 929.7,422.2 918.6,377.2 917.9,374.5 917.2,377.2 
					906.1,422.2 				"/>
				<path id="Fill-67" class="st8" d="M410.9,345.6C411,345.6,411,345.7,410.9,345.6c0,0.1,0,0.1,0.1,0.2v0.1
					C411,345.8,411,345.7,410.9,345.6C410.9,345.7,410.9,345.7,410.9,345.6L410.9,345.6z M316.8,150.1l4.5,55.4l36.6,6.7
					c-3.1-31.6-4.8-61.3-4.8-61.3l-9.3-7.7L316.8,150.1z"/>
				<path id="Fill-69" class="st8" d="M329.3,158.5C329,158.6,329.2,158.5,329.3,158.5L329.3,158.5h0.3l0.7-0.2
					c0.5-0.1,1.1-0.2,1.6-0.3c1.1-0.1,2.2-0.2,3.3-0.2c2.2,0,4.2,0.5,6.2,1.3c1,0.4,1.9,0.9,2.9,1.5c0.5,0.3,1,0.6,1.4,1
					c0.3,0.2,0.4,0.3,0.7,0.6l0.9,0.7c2.4,2,4.8,4.2,7.2,6.5c4.7,4.6,9.4,9.4,13.8,14.3c3.1,3.5,6.1,7,8.9,10.6
					c1.2,1.5-2.2-1.2-5.1-2.9c-7.9-4.7-15.8-9.8-23.6-15c-3.5-2.4-7-4.8-10.5-7.2l-6.4,8.6c3.5,2.7,6.9,5.5,10.4,8.1
					c7.5,5.7,15.1,11.3,23,16.7c2.9,2,5.9,3.9,8.9,5.7c3.1,1.9,6.2,3.7,10,5.3c1,0.4,2,0.8,3.3,1.1c0.6,0.2,1.4,0.3,2.2,0.5
					c0.9,0.1,1.9,0.2,3.6-0.1c0.8-0.2,1.8-0.5,2.9-1.1s2.2-1.7,3-2.9c1.5-2.5,1.4-4.5,1.4-5.7c0-0.7-0.1-1-0.2-1.4s-0.1-0.8-0.2-1.2
					c-0.2-0.6-0.4-1.3-0.5-1.9c-0.8-2.3-1.6-4.1-2.5-5.9c-0.9-1.8-1.9-3.4-2.8-5c-3.9-6.3-8.1-12-12.5-17.5
					c-4.4-5.6-8.9-10.9-13.7-16.2c-2.4-2.6-4.9-5.2-7.6-7.8l-1-1c-0.3-0.3-0.8-0.7-1.2-1.1c-0.9-0.7-1.8-1.4-2.7-2.1
					c-1.9-1.3-3.9-2.5-6.1-3.5c-4.3-2-9.1-2.9-13.7-3c-2.3,0-4.6,0.2-6.9,0.6c-1.1,0.2-2.3,0.5-3.4,0.8c-0.6,0.2-1.1,0.3-1.7,0.5
					l-0.9,0.3l-1.2,0.5L329.3,158.5z"/>
				<path id="Fill-71" class="st9" d="M331.9,177.7l-0.1,0.1c0.1,0.1,0.2,0.2,0.3,0.3C332.1,178,332,177.9,331.9,177.7"/>
				<path id="Fill-73" class="st8" d="M321.5,140.7l4.2,9.7l2.9,6.6c1.2-5.3,4.1-10.1,8.7-14.3c1.8-1.6,3.6-2.9,5.2-4
					c-2.3-0.5-4.6-0.7-6.9-0.8h-0.3c-2.2,0-4.4,0.2-6.6,0.6c-1.1,0.2-2.3,0.5-3.4,0.8c-0.6,0.2-1.1,0.3-1.7,0.5l-0.9,0.3
					L321.5,140.7z"/>
				<path id="Fill-75" class="st7" d="M323.2,163.7c0.8,22,18.6,34.4,35.9,37l0.3-2c-1.9-1.3-3.8-2.7-5.6-4.1
					c-10.8-3.1-17.7-9.4-21.6-16.5c-0.1-0.1-0.2-0.3-0.2-0.4c-2.5-4.7-3.7-9.7-3.9-14.2c-0.1-2.2,0.1-4.4,0.6-6.5
					c1.2-5.3,4.1-10.1,8.7-14.3c1.8-1.6,3.6-2.9,5.2-4c2.8-1.8,5-2.7,5-2.7l-1.8-4.5c-0.4,0.2-5.3,2.2-10.3,6.5
					c-3.6,3-7.2,7.1-9.6,12.4C324,154.2,323,158.6,323.2,163.7"/>
				<path id="Fill-77" class="st13" d="M421.4,172.9c20,0,33.5-9.8,39.5-18.1L436.1,137c0,0,0.1-0.1,0.3-0.4
					c-1.4,1.7-14.2,15.6-47.6-6.5c-46.3-30.6-83.4-6.2-84.9-5.1l8.5,12.7l8.4,12.8c0.9-0.6,22.4-13.8,51.3,5.2
					C391.2,168.3,407.8,172.9,421.4,172.9"/>
				<path id="Fill-79" class="st11" d="M311.7,108.6c0,0-5.8-0.2-6.4,10.4c-0.3,4.6,2.3,8.3-3.4,15.3c-2.3,2.9-2.6,7.9-0.1,11
					c3.6,4.3,11.4,6.1,21.3-1.8c15.6-12.5-9.5-22.5,3.7-42c0,0-0.8-7.2-1-6.3C324.9,98.7,321.1,111.4,311.7,108.6"/>
				<path id="Fill-81" class="st10" d="M321.3,166.7c0,4.2,0.7,7.4,4.9,7.4s7.6-3.4,7.6-7.6c0-4.2-3.4-7.6-7.6-7.6
					S321.3,162.5,321.3,166.7"/>
				<path id="Fill-83" class="st10" d="M235.8,100.2c-0.8,3.5-0.2,6.2,1.3,7.7c1.5,1.6,3.7,2.6,6.1,2.6c4.7,0,8.5-3.8,8.5-8.5
					s-3.8-8.5-8.5-8.5C238.5,93.6,236.9,95.3,235.8,100.2"/>
				<path id="Fill-85" class="st9" d="M274.1,220.5c0,1.7,0.2,3.1,0.4,4.5c0.4,2.8,0.8,5.3,1.3,7.9c2.1,10,4.8,19.4,7.5,28.8
					c3.2,10.8,8.4,27.5,11.8,38.1l14.6,3.8c-3.2-13.3-8.2-32.6-11-45.8c-2-9.4-3.9-18.8-5-27.9c-0.1-0.8-0.2-1.6-0.3-2.3
					c0,0,0.1,0,0.2,0.1c3.9,1.8,7.9,4,11.9,6.4c4,2.3,8,4.8,12,7.4c6.8,4.4,13.6,9,20.2,13.6c0.4,1.4,0.7,2.9,1.1,4.3
					c2.1,8.1,4.3,16.2,7,24.3c1.3,4.1,2.7,8.2,4.4,12.3c0.9,2.1,1.8,4.2,2.9,6.5c0.6,1.1,1.2,2.3,2,3.5c0.4,0.6,0.9,1.3,1.4,2
					s0.9,1.1,1.4,1.6c3.6,3.9,7.1,6.5,10.6,9.2c3.5,2.6,7,5,10.6,7.3c1.7,1.1,3.5,2.2,5.2,3.3c1.2,0.8,2.4,1.5,3.6,2.3l8.9-12.4
					c-1.3-1-2.6-2.1-3.9-3.1c-1.4-1.1-2.8-2.2-4.2-3.4c-3.1-2.5-6.1-5.1-8.9-7.7s-5.5-5.3-7.2-7.7c-0.2-0.3-0.4-0.6-0.5-0.8
					l-0.3-0.5c-0.2-0.5-0.5-1.2-0.8-1.9c-0.6-1.5-1.2-3.2-1.7-5v-0.1l0,0c-2.1-8.6-4.1-20.1-5.7-31.1h0.1c-0.3-1.8-0.6-3.7-0.9-5.6
					c0-0.1,0-0.2,0-0.3c-0.3-1.7-0.5-3.4-0.7-5.2c0-0.2-0.1-0.5-0.1-0.7c-0.1-0.9-0.3-1.9-0.4-2.9c-0.1-0.5-0.1-0.9-0.2-1.3
					c-1.2-9.5-2.3-19.7-3.3-29.7l-36.6-6.7l1,12.9c-2.3-1.2-4.5-2.3-6.8-3.5c-4.5-2.2-9.1-4.3-14.2-6.2c-2.5-0.9-5.2-1.9-8.4-2.6
					c-1.7-0.3-3.4-0.7-6-0.6c-1.4,0.1-3,0.2-5.2,1c-0.3,0.1-0.6,0.3-0.9,0.4l-0.4,0.2l-0.3,0.2l-0.4,0.3c-1.1,0.7-1.9,1.5-2.5,2.3
					c-1.2,1.6-1.6,2.6-2,3.6c-0.6,1.9-0.7,3.1-0.9,4.1C274.1,218.7,274.1,219.6,274.1,220.5"/>
				<path id="Fill-87" class="st11" d="M330,108.3c0,0-2,9.2,0.6,15.5c3.2,7.4,12,6.8,13,3.8c0.9-2.7-3.1-5.1-3.1-5.1l-1.1-9.8
					l-4.6-7.3L330,108.3z"/>
				<path id="Fill-89" class="st7" d="M321.1,82.5c0,0,6.3-7.5,15.8-6.1c14.1,2.1,29.4,31.3,43.5,27.4c0,0-3.6,9.8-25.8,6.5
					c-12.5-1.9-13.8,12-13.8,12L321.1,82.5z"/>
				<path id="Fill-91" class="st11" d="M377.4,103.3c0,3.7,3,6.7,6.7,6.7s6.7-3,6.7-6.7s-3-6.7-6.7-6.7S377.4,99.6,377.4,103.3"/>
				<path id="Fill-93" class="st13" d="M438.7,145.7c0.3,0,0.6-0.1,0.9-0.3c0.2-0.2,5.7-4.7,8.5-11.5c0.3-0.7-0.1-1.5-0.8-1.8
					c-0.7-0.3-1.5,0.1-1.8,0.8c-2.5,6.1-7.6,10.3-7.6,10.3c-0.6,0.5-0.7,1.4-0.2,2C437.9,145.5,438.3,145.7,438.7,145.7"/>
				<path id="Fill-95" class="st13" d="M442.1,147.1c0.3,0,0.6-0.1,0.9-0.3c0.2-0.2,5.7-4.7,8.5-11.5c0.3-0.7-0.1-1.5-0.8-1.8
					c-0.7-0.3-1.5,0.1-1.8,0.8c-2.4,6-7.6,10.3-7.6,10.3c-0.6,0.5-0.7,1.4-0.2,2C441.3,146.9,441.7,147.1,442.1,147.1"/>
				<path id="Fill-97" class="st13" d="M445.8,147.9c0.3,0,0.6-0.1,0.9-0.3c0.2-0.2,5.7-4.7,8.5-11.5c0.3-0.7-0.1-1.5-0.8-1.8
					c-0.7-0.3-1.5,0.1-1.8,0.8c-2.5,6.1-7.6,10.3-7.6,10.3c-0.6,0.5-0.7,1.4-0.2,2C445,147.7,445.4,147.9,445.8,147.9"/>
				<path id="Fill-99" class="st13" d="M449,149.1c0.3,0,0.6-0.1,0.9-0.3c0.2-0.2,5.7-4.7,8.5-11.5c0.3-0.7-0.1-1.5-0.8-1.8
					c-0.7-0.3-1.5,0.1-1.8,0.8c-2.5,6.1-7.6,10.3-7.6,10.3c-0.6,0.5-0.7,1.4-0.2,2C448.2,148.9,448.6,149.1,449,149.1"/>
				<path id="Fill-101" class="st13" d="M451.8,150.3c0.3,0,0.6-0.1,0.9-0.3c0.2-0.2,5.7-4.7,8.5-11.5c0.3-0.7-0.1-1.5-0.8-1.8
					c-0.7-0.3-1.5,0.1-1.8,0.8c-2.4,6-7.6,10.3-7.6,10.3c-0.6,0.5-0.7,1.4-0.2,2C451,150.1,451.4,150.3,451.8,150.3"/>
				<path id="Fill-103" class="st13" d="M454,153.1c0.3,0,0.6-0.1,0.9-0.3c0.2-0.2,5.7-4.7,8.5-11.5c0.3-0.7-0.1-1.5-0.8-1.8
					c-0.7-0.3-1.5,0.1-1.8,0.8c-2.4,6-7.6,10.3-7.6,10.3c-0.6,0.5-0.7,1.4-0.2,2C453.2,153,453.6,153.1,454,153.1"/>
				<polygon id="Fill-105" class="st14" points="93.4,137.5 96,136.4 76.5,91.9 74,93.1 				"/>
				<polygon id="Fill-107" class="st14" points="85.8,141.6 88.5,140.9 76.6,92.2 73.9,92.8 				"/>
				<polygon id="Fill-109" class="st14" points="77.5,142.5 80.2,142.3 76.6,92.4 73.9,92.6 				"/>
				<polygon id="Fill-111" class="st14" points="73,141.4 76.6,92.6 73.9,92.4 70.3,141.2 				"/>
				<polygon id="Fill-113" class="st14" points="68.6,235.9 71.4,235.7 68.4,187.3 65.7,187.5 				"/>
				<polygon id="Fill-115" class="st14" points="62.8,237.4 68.4,187.5 65.7,187.2 60,237.1 				"/>
				<polygon id="Fill-117" class="st14" points="54.6,235.8 68.4,187.8 65.7,187 51.9,235 				"/>
				<polygon id="Fill-119" class="st14" points="48.1,232.5 68.3,188 65.8,186.8 45.6,231.3 				"/>
				<polygon id="Fill-121" class="st14" points="109.4,274.7 111.9,273.6 92.3,229.3 89.7,230.4 				"/>
				<polygon id="Fill-123" class="st14" points="101.7,278.9 104.4,278.2 92.3,229.5 89.7,230.2 				"/>
				<polygon id="Fill-125" class="st14" points="93.4,279.8 96.2,279.6 92.4,229.7 89.6,229.9 				"/>
				<polygon id="Fill-127" class="st14" points="89,278.7 92.4,229.9 89.6,229.7 86.2,278.5 				"/>
				<polygon id="Fill-129" class="st14" points="64.4,344.3 67.1,344.1 64,295.7 61.2,295.9 				"/>
				<polygon id="Fill-131" class="st14" points="58.5,345.8 64,295.9 61.2,295.6 55.8,345.5 				"/>
				<polygon id="Fill-133" class="st14" points="50.3,344.2 64,296.2 61.3,295.4 47.7,343.5 				"/>
				<polygon id="Fill-135" class="st14" points="43.9,340.9 63.9,296.3 61.4,295.2 41.3,339.8 				"/>
				<path id="Stroke-137" class="st15" d="M97.2,352l20.1,44.1"/>
				<path id="Stroke-139" class="st15" d="M97.2,352l12.6,48.6"/>
				<path id="Stroke-141" class="st15" d="M97.2,352l4.4,49.8"/>
				<path id="Stroke-143" class="st15" d="M97.2,352l-2.8,48.8"/>
				<path id="Fill-145" class="st10" d="M239.3,107.8c2.6,4.6,5.3,9.2,8.1,13.6l9-6.9c-3-4-5.8-8-8.6-12L239.3,107.8z"/>
				<path id="Fill-147" class="st16" d="M242.5,281.6c2.4,0,4.5-1.5,5.3-3.9c11-34.8,5.3-52.6-0.3-69.7l-0.6-1.7
					c-0.8-2.4-1.6-4.8-2.4-7.3c-5.9-17.3-11.6-33.7-1.7-58.1c12.5-31,3.8-67.3,3.5-68.8c-0.7-3-3.7-4.8-6.7-4.1
					c-3,0.7-4.8,3.7-4.1,6.7c0.1,0.3,8.2,34.4-3,62C221.1,165,228,185,234,202.6c0.8,2.4,1.6,4.7,2.4,7.1l0.6,1.8
					c5.2,16.2,10.2,31.5,0.2,62.9c-0.9,2.9,0.7,6.1,3.6,7C241.4,281.5,241.9,281.6,242.5,281.6"/>
				<path id="Fill-149" class="st10" d="M326,172.6c3.1,2.5,9.6,7.5,12.8,9.9l5.9-8.6c-3.2-2.1-9.7-6.9-12.8-9L326,172.6z"/>
				<g id="Group-159" transform="translate(203.882463, 279.612006)">
					<path id="Fill-151" class="st9" d="M190.2,169.2c-0.1,0.1-0.1,0.1-0.1,0.2C190.1,169.4,190.2,169.4,190.2,169.2L190.2,169.2z"
						/>
					<path id="Fill-153" class="st17" d="M149.2,145.6c0.5-0.6,0.9-1.3,1.3-1.6c0.4-0.4,0.8-0.7,1.1-1l0.4-0.2
						c0.1-0.1,0.4-0.2,0.6-0.2c1.9-0.5,4.7-0.1,7.5,0.4c2.8,0.6-9.4,1.7-6.4,2.6c0.3,0.1-2.4-1.7-2.1-1.6c1,0.3,4.5,0.9,5.6,1.3
						c-5.4-2.6-3-1.8-1.8-1.3c0.1,0,4.5-4.7,4.6-4.7l40.9,9.8l0.8-3.5l5.4-36.2l0.8-6.9c-2-2.5-6.2,2.8-8.3,10.1
						c-1.5,5.2-2.6,11.2-4.1,19.2c-0.4,1.8-0.8,3.7-1.2,5c-0.1,0-1.2-0.5-1.2-0.5c-2.4-1-5.1-2.3-7.8-3.8c-0.5-0.3-1-0.5-1.5-0.8
						c-3.8-2-7.7-4.2-11.5-6.2c-1.2-0.6-2.3-1.2-3.4-1.8c-1.7-0.9-3.3-1.7-5-2.5c-3.3-1.7-6.7-3.3-10.1-4.6
						c-3.4-1.3-9.7-3.3-13.3-2.9c-4.3,0.5-7.7,2.6-12.6,12.5c-1.7,3.4-4.5,11.5-7.2,19.4L149.2,145.6L149.2,145.6z"/>
					<path id="Fill-155" class="st17" d="M54,154.2c0.1,1.4,0.2,3,0.9,5.9c0.1,0.3,0.1,0.5,0.2,0.8H72l-0.1-0.1
						c0.2-0.6,0.5-1.3,0.7-2c2.8-7.8,6.3-15,9.8-22.2c5-10.1,10.3-19.8,15.6-29.5c2.2-4,4.4-8.1,6.7-12.1l5.7-10.4
						c0.9-1.8,1.8-3.6,2.8-5.5c0.4-1,0.9-2,1.3-3.1c0.1-0.3,0.2-0.6,0.3-1c0.1-0.2,0.2-0.4,0.2-0.8c0-0.1,0.1-0.4,0.1-0.7
						c0-0.1,0.1-0.4,0.1-0.6v-0.4c0-0.2,0-0.5,0-0.8s-0.1-0.6-0.1-1c-0.1-0.7-0.3-1.7-0.6-2.6c-0.3-1-0.4-1.2-0.5-1.5L78.7,48.3
						c0,0.4,0,0.9,0.1,1.3c0.9,4.4,16.6,15.9,22.1,19.8c1,0.7,1.3,2.2,0.5,3.2l-5.1,7c-3.7,5-7.4,10-11,15
						c-5,6.8-9.9,13.7-14.7,20.9c-4.2,6.3-8.3,12.7-12,20.3c-0.9,1.9-1.9,4-2.7,6.3c-0.4,1.2-0.8,2.5-1.2,4.1
						c-0.2,0.8-0.4,1.7-0.5,2.9C54.1,150.3,53.9,151.6,54,154.2"/>
					<path id="Fill-157" class="st17" d="M1.7,134.9c0.6,7.4,0.7,14.3,0.4,20.6h9.1c0.1-5,0-10.4-0.5-16c-3.1-36.5,1.8-47.6,10-58.1
						c1.2-1.5,2.3-3,3.5-4.5l0.8-1.1C32.9,65.2,41.1,54.2,39.2,8c-0.1-1.9-0.9-4.1-2-5.7c-0.3-0.4-0.5-0.7-0.8-0.9
						c-1.5-1.4-2.6-0.6-2.5,1.7c1.7,43.5-5.6,53.4-13.4,64l-0.8,1.1c-1.1,1.5-2.3,3-3.4,4.4C7.4,83.7-1.7,95.2,1.7,134.9"/>
				</g>
				<path id="Fill-160" class="st18" d="M282.1,327.9l34.6,23.7c0.1-0.1,0.3-0.1,0.8-0.6c0.5-0.4,0.9-1,1.1-1.4
					c0.1-0.2,0.2-0.4,0.3-0.6c0.1-0.2,0.1-0.5,0.2-0.6v-0.3c0-0.2,0.1-0.5,0.1-0.5c0-0.2,0-0.5,0-0.6c0-0.3,0-0.6,0-0.8
					c0-0.5-0.1-0.8-0.1-1.2c-0.2-1.4-0.4-2.6-0.7-3.9c-0.5-2.5-1-4.8-1.6-7.2l-3.3-14.2c-1.3-5.6-2.7-11.1-4-16.6l-14.6-3.8
					c2.5,7.9,5.1,15.7,7.6,23.6l4.4,13.8c0,0-2.7-1.2-5.7-2.9c-4.8-2.5-9.6-4.9-14.2-7.3l0,0c-1.4-1-3.4-0.6-4.4,0.8
					C282.3,327.4,282.2,327.6,282.1,327.9"/>
				<path id="Fill-162" class="st18" d="M411.2,347.7c0.1,1.2,0.1,2.7,0.1,4c-0.1,7.9-0.8,16.1-1.5,24.2v0.1c-0.2,2.5,1.6,4.6,4,4.9
					h0.1l7-47.1c-0.2-0.3-1.8-1.2-4.5-2.5c-2.3-1.1-4.1-1.9-10.4-5.5c-5.8-3.4-8.3-5.6-13.2-9.6l-8.6,13.2
					c5.3,3.4,10.6,6.6,15.9,9.8c3.4,2.1,7,4.3,9.8,6.4C409.9,345.6,411.1,346.5,411.2,347.7"/>
				<path id="Fill-164" class="st10" d="M240,94.4c0,0,7.6,1.3,7.9,6.4c0.4,6.5-2.8,14.1-11,7.1L240,94.4z"/>
				<path id="Fill-166" class="st10" d="M251.6,102.1c-0.1,3.5-0.1,6.6,4.8,12.5l-7-2.2l-2-7.8L251.6,102.1z"/>
				<path id="Fill-178" class="st10" d="M340.6,171c-4.6-2.7-6-9.7-12.4-12l-1,6.5l7,7.2L340.6,171z"/>
				<path id="Fill-180" class="st10" d="M333.3,178.3c-2.9-2.3-10.5-2.7-11.4-7.5l2.8-2.1l8.5,4L333.3,178.3z"/>
				<path id="Stroke-182" class="st19" d="M248.3,97.7l-5.8-4.7"/>
				<path id="Fill-184" class="st11" d="M427.8,352.7c0,0.9,0.8,1.7,1.7,1.7c0.9,0,1.7-0.8,1.7-1.7c0-0.9-0.8-1.7-1.7-1.7
					C428.5,351,427.8,351.8,427.8,352.7"/>
				<path id="Fill-186" class="st11" d="M425,361.4c0,1.2,1,2.2,2.2,2.2s2.2-1,2.2-2.2s-1-2.2-2.2-2.2
					C426,359.2,425,360.2,425,361.4"/>
				<path id="Fill-188" class="st11" d="M433.3,364.3c0,0.5,0.4,1,1,1c0.5,0,1-0.4,1-1c0-0.5-0.4-1-1-1
					C433.7,363.3,433.3,363.7,433.3,364.3"/>
				<path id="Fill-190" class="st20" d="M430.1,398.4c3.8,4.3,10.4,10,18.3,15.5c7.1,5,13.9,8.9,19.1,11.2c4.9,2.2,8.4,2.8,9.3,1.5
					c1.9-2.7-7.8-12.7-21.6-22.4c-13.8-9.7-26.6-15.4-28.5-12.7C425.9,392.7,427.3,395.2,430.1,398.4"/>
				<path id="Fill-192" class="st0" d="M430.1,398.4c3.8,4.3,10.4,10,18.3,15.5c7.1,5,13.9,8.9,19.1,11.2
					c-3.8-4.3-10.3-10-18.2-15.5C442.2,404.7,435.3,400.7,430.1,398.4"/>
			</g>
		</g>
	</g>
</g>
</svg>
