<?xml version="1.0" encoding="utf-8"?>
<!-- Generator: Adobe Illustrator 23.0.1, SVG Export Plug-In . SVG Version: 6.00 Build 0)  -->
<svg version="1.1" id="Layer_1" xmlns="http://www.w3.org/2000/svg" xmlns:xlink="http://www.w3.org/1999/xlink" x="0px" y="0px"
	 viewBox="0 0 375 261.7" style="enable-background:new 0 0 375 261.7;" xml:space="preserve">
<style type="text/css">
	.st0{fill-rule:evenodd;clip-rule:evenodd;fill:#0D83DD;}
	.st1{fill-rule:evenodd;clip-rule:evenodd;fill:#CFE6F8;}
	.st2{opacity:0.2048;fill-rule:evenodd;clip-rule:evenodd;fill:#0060AF;enable-background:new    ;}
	.st3{opacity:0.3967;fill-rule:evenodd;clip-rule:evenodd;fill:#0060AF;enable-background:new    ;}
	.st4{opacity:0.4026;fill-rule:evenodd;clip-rule:evenodd;fill:#004B9C;enable-background:new    ;}
	.st5{fill-rule:evenodd;clip-rule:evenodd;fill:#359CE4;}
	.st6{opacity:0.2014;fill-rule:evenodd;clip-rule:evenodd;fill:#0D83DD;enable-background:new    ;}
	.st7{fill-rule:evenodd;clip-rule:evenodd;fill:#FA8DB5;}
	.st8{fill-rule:evenodd;clip-rule:evenodd;fill:#164B9F;}
	.st9{fill-rule:evenodd;clip-rule:evenodd;fill:#062942;}
	.st10{fill-rule:evenodd;clip-rule:evenodd;fill:#CEE9FD;}
	.st11{fill-rule:evenodd;clip-rule:evenodd;fill:#FFFFFF;}
	.st12{fill-rule:evenodd;clip-rule:evenodd;fill:#6FC57C;}
	.st13{fill-rule:evenodd;clip-rule:evenodd;fill:#68B5EB;}
	.st14{fill-rule:evenodd;clip-rule:evenodd;fill:#49AD57;}
	.st15{fill:none;stroke:#49AD57;stroke-width:0.7182;}
	.st16{fill-rule:evenodd;clip-rule:evenodd;fill:#F5DA66;}
	.st17{opacity:0.1067;fill-rule:evenodd;clip-rule:evenodd;fill:#062942;enable-background:new    ;}
	.st18{fill-rule:evenodd;clip-rule:evenodd;fill:#EFC100;}
	.st19{fill:none;stroke:#CEE9FD;stroke-width:2;stroke-linecap:round;}
	.st20{opacity:0.1982;fill-rule:evenodd;clip-rule:evenodd;fill:#0D83DD;enable-background:new    ;}
</style>
<title>mountain</title>
<desc>Created with Sketch.</desc>
<g id="Hi-Fi-Design">
	<g id="Mobile" transform="translate(0.000000, -13868.000000)">
		<g id="mountain" transform="translate(0.000000, 13868.000000)">
			<g id="Group-19">
				<polygon id="Fill-1" class="st0" points="0,0 0,261.1 375,261.1 375,0 				"/>
				<path id="Fill-20" class="st1" d="M0,261.7h375v-7.1L0,0C0,172.6,0,259.8,0,261.7z"/>
				<polygon id="Fill-2" class="st2" points="225.2,152.9 337.7,229.3 280.8,118.9 265.7,89.8 252.2,63.5 234.9,30.1 204.2,89.8 
					185.5,125.9 200,135.8 				"/>
				<polyline id="Fill-9" class="st3" points="295.3,80.3 269.4,30.1 252.1,63.6 238.6,89.8 211,143.3 375,254.6 375,224.7 				"/>
				<polygon id="Fill-14" class="st4" points="252.7,171.6 375,254.6 375,174.1 343.7,116.3 326.6,83.1 325.5,80.9 325.4,80.7 
					324.2,78.5 312.9,56.6 301.6,78.5 300.5,80.7 300.4,80.9 299.3,83.1 298,85.5 282.1,116.3 280.7,119.1 				"/>
				<g id="Mountain-Top" transform="translate(222.462095, 29.926092)">
					<path id="Fill-25" class="st5" d="M78.1,50.7c2.8-0.2,2.9-2.8,6-2.8s3.1,5.2,6.3,5.2c3.1,0,3.1-5.2,6.3-5.2
						c3.1,0,3.1,2.8,6.3,2.8h0.1l-1.1-2.2L90.6,26.6L79.3,48.5L78.1,50.7z"/>
					<path id="Fill-27" class="st5" d="M34.6,24.1c2.8-0.2,2.9-2.8,5.9-2.8c3.1,0,3.1,5.1,6.2,5.1c3.1,0,3.1-5.1,6.2-5.1
						c3.1,0,3.1,2.8,6.2,2.8h0.1l-1.1-2.2L46.9,0.3L35.7,21.9L34.6,24.1z"/>
					<path id="Fill-29" class="st5" d="M48.5,107.3c2.1-0.1,2.5-2.1,4.7-2.1c2.4,0,2.4,3.9,4.7,3.9c2.4,0,2.4-3.9,4.7-3.9
						c2.4,0,2.4,2.1,4.7,2.1h0.1l-0.9-1.7L58.1,89l-8.8,16.6L48.5,107.3z"/>
					<path id="Fill-31" class="st5" d="M0.1,24.3c2.8-0.2,2.9-2.8,6-2.8s3.1,5.2,6.3,5.2c3.1,0,3.1-5.2,6.3-5.2
						c3.1,0,3.1,2.8,6.3,2.8l0,0l-1.1-2.2L12.6,0.2L1.2,22.1L0.1,24.3z"/>
				</g>
			</g>
			<g id="Group-194" transform="translate(26.000000, 9.000000)">
				<path id="Fill-21" class="st6" d="M185.2,192.2c1.5,1.7,4.1,4,7.3,6.2c2.8,2,5.5,3.6,7.6,4.5c2,0.9,3.4,1.1,3.7,0.6
					c0.7-1.1-3.1-5.1-8.6-9s-10.6-6.1-11.3-5.1C183.5,189.9,184,190.9,185.2,192.2"/>
				<path id="Fill-23" class="st0" d="M185.2,192.2c1.5,1.7,4.1,4,7.3,6.2c2.8,2,5.5,3.6,7.6,4.5c-1.5-1.7-4.1-4-7.3-6.2
					C189.9,194.7,187.2,193.1,185.2,192.2"/>
				<path id="Fill-33" class="st7" d="M173.4,93.4c1.5,11.7,4.3,31.9,17.4,31c13.3-0.9,14.5-15.3,11-34.6
					c-2.9-16.1-7.5-18.7-16.8-19.3C177.1,69.9,171.9,81.7,173.4,93.4"/>
				<path id="Fill-35" class="st8" d="M127.6,57.7c1.4,2.5,2.8,4.9,4.3,7.3c1.1,1.8,2.3,3.6,3.5,5.3c1.4,2.1,2.9,4.1,4.5,6.1
					c0.8,1,1.7,2,2.7,3s2.1,2,3.9,2.9c1.7,0.8,3.1,1.1,4.5,1.4s2.7,0.4,4,0.5c2.6,0.2,5.1,0.3,7.7,0.2c5-0.1,9.9-0.4,15-0.9
					l-1.6-10.2c-4.5,0.9-9.3,1.6-13.8,2.1c-2.3,0.2-4.6,0.4-6.8,0.4c-1.1,0-2.2,0-3.2-0.1s-2-0.3-2.5-0.5c-0.4-0.1-1.3-0.7-2-1.3
					c-0.8-0.7-1.6-1.4-2.4-2.2c-1.6-1.6-3.1-3.4-4.6-5.2c-1.3-1.6-2.6-3.3-3.9-5c-1.6-2.1-3.1-4.3-4.6-6.4L127.6,57.7z"/>
				<path id="Fill-37" class="st7" d="M184.3,106.1l0.4-2.6c-12.1-1.8-16.7-10.5-16.9-17.3c-0.2-4.2,1.5-8,4.9-11.1
					c2.6-2.4,5.4-3.6,5.4-3.6l-1-2.4c-0.5,0.2-12.4,5.2-12,17.2C165.7,98,175.1,104.7,184.3,106.1"/>
				<path id="Fill-39" class="st9" d="M174.6,93.4l-0.8,1.1c0.6,0.5,1.2,1,1.8,1.4C175.2,95.1,174.8,94.2,174.6,93.4"/>
				<path id="Fill-41" class="st8" d="M172.4,84.1C172.3,84.1,172.3,84.1,172.4,84.1L172.4,84.1h0.2L173,84c0.3-0.1,0.6-0.1,0.9-0.1
					c0.1,0,0.2,0,0.4,0c0.5-0.1,1-0.1,1.4-0.1s0.8,0,1.2,0.1c0.7-2.5,2.2-4.8,4.4-6.9c0.8-0.8,1.7-1.4,2.5-1.9
					c-0.2-0.1-0.4-0.2-0.6-0.3c-0.7-0.3-1.5-0.6-2.2-0.8c-1.7-0.5-3.4-0.7-5.1-0.8c-1.2,0-2.5,0.1-3.7,0.3c-0.6,0.1-1.2,0.3-1.8,0.4
					c-0.3,0.1-0.6,0.2-0.9,0.3l-0.5,0.2l-0.6,0.3L172.4,84.1z"/>
				<path id="Fill-43" class="st10" d="M165,54.8c0.2,0.1,0.5,0.1,0.8,0.1c0.5,0,0.8-0.1,1-0.1c0.3-0.1,0.3,0,0.3,0.3
					c-0.1,0.2-0.1,0.4-0.2,0.7c-0.2,0.5-0.4,1-0.6,1.5l2-0.7c0,0-0.3,1.4-2.1,1.7l0,0c-0.5,1.7-0.9,3.5-0.3,4.6
					c0.6,1.1,1.9,1.3,3.2,1.6c0.6,0.1,1,0.2,1.3,0.2c0.7,0.1,0.9,0.2,1.4,0.8c0.4,0.6,0.4,5.1,0.5,10.6l10.5-1.2
					c-0.5-3.5-1.3-7.6-0.9-10.9c0-0.3,0.1-0.5,0.2-0.8c0-0.1,0-0.2,0.1-0.3c0.2-0.8,0.3-1.5,0.5-2.2c0.1-0.3,0.2-0.7,0.2-1
					c0.2-0.6,0.4-1.2,0.5-1.7c0.1-0.2,0.1-0.4,0.2-0.6c0-0.1,0.1-0.2,0.1-0.3s0.1-0.2,0.1-0.3s-0.6-0.2-0.5-0.4
					c0.2-0.4,0.2-0.4,0.3-0.8l0.3-0.6c0-0.1,0.5,0,0.6-0.1v-0.1c0-0.1,0.1-0.3,0.1-0.4c0-0.2,0.1-0.4,0.1-0.5s0-0.3,0-0.4v-0.1
					c0-0.1,0-0.2,0-0.4s0-0.4,0-0.7c0-0.2,0-0.3,0-0.5c0-0.1,0-0.3,0-0.4c0-0.4-0.1-0.7-0.1-1c0-0.1-0.1-0.2-0.1-0.4
					c0-0.1-0.1-0.3-0.1-0.4c-0.1-0.3-0.2-0.6-0.3-0.9c0-0.1-0.1-0.2-0.1-0.3c-0.1-0.1-0.1-0.3-0.2-0.4c0,0,0-0.1-0.1-0.1
					c-0.1-0.1-0.2-0.3-0.3-0.4c-0.1-0.1-0.1-0.2-0.2-0.3c-0.1-0.1-0.2-0.2-0.3-0.3s-0.1-0.1-0.2-0.2c0,0,0,0-0.1-0.1
					s-0.2-0.2-0.3-0.3l0,0c-0.2-0.2-0.3-0.3-0.5-0.5c-0.1-0.1-0.3-0.2-0.4-0.3c-0.1,0-0.1-0.1-0.2-0.1c-0.2-0.1-0.3-0.2-0.5-0.3
					s-0.5-0.3-0.7-0.4c-0.4-0.2-0.9-0.4-1.3-0.6c-0.9-0.3-1.8-0.6-2.6-0.7c-0.1,0-0.2,0-0.4-0.1c-0.1,0-0.2,0-0.4,0s-0.5,0-0.7,0
					c-0.1,0-0.1,0-0.2,0c-0.1,0-0.1,0-0.2,0c-0.2,0-0.3,0-0.5,0s-0.4,0.1-0.5,0.1c-0.3,0.1-0.5,0.1-0.8,0.2c-0.1,0-0.2,0.1-0.2,0.1
					c-0.1,0-0.2,0.1-0.3,0.1c-0.1,0.1-0.2,0.1-0.3,0.2c-0.1,0.1-0.2,0.1-0.3,0.2c-0.1,0.1-0.2,0.1-0.3,0.2c-0.3,0.3-0.7,0.6-0.9,1
					l0,0c0,0.1-0.1,0.1-0.1,0.2c-0.1,0.1-0.1,0.3-0.2,0.6c-0.1,0.2-0.5,1.8-0.7,2.7c-0.3,1.2-0.4,2.2-0.8,2.7
					c-0.2,0.3-0.6,0.8-1.2,1.3c-0.7,0.6-1.5,1.2-1.9,1.5C164.8,54.7,164.9,54.8,165,54.8"/>
				<path id="Fill-45" class="st5" d="M171.8,51.6c0,0-0.1,0.3-0.3,0.6c-0.1,0.2-0.3,0.3-0.6,0.5c-0.1,0.1-0.3,0.1-0.5,0.1
					s-0.3,0-0.5-0.1c-0.3-0.1-0.6-0.4-0.7-0.7c-0.1-0.3-0.1-0.5-0.1-0.7c0-0.4,0.1-0.7,0.1-0.7s0,0.1,0.1,0.2c0,0.1,0.1,0.3,0.1,0.4
					c0.1,0.2,0.1,0.4,0.3,0.5c0.1,0.2,0.2,0.3,0.4,0.3h0.1l0,0l0,0h0.1c0.1,0,0.2,0,0.3,0c0.2-0.1,0.4-0.2,0.5-0.3
					C171.5,51.7,171.8,51.6,171.8,51.6"/>
				<path id="Fill-47" class="st11" d="M169.7,45.8L169.7,45.8c0,0.1,0.2,2.2,3.2,3.4c0.1,0.2-0.6-0.4-1.1-1.6
					c-0.3-0.8-0.3-1.6-0.3-1.6s1.6,2,3,2.7c-1.4,3.4-0.8,6.8-0.8,6.8l0,0l2.2,2.1c0.1,0.3,0.8,1.3,2.8,2.9c1.1,0.9,2.1,2.5,2.7,2.8
					c0.4,0.1,0.6,0.2,0.6,0.2h0.1v-0.1c0.3-1.4,1.2-4.3,1.9-6.4c0.4-1.1,0.6-2,0.7-2.3c0.1-0.5,0.2-1,0.2-1.5c0.3-4.2-1.8-7.3-6.2-9
					c-3.4-1.3-5.9-1.2-8,0.2c-0.4,0.3-0.7,0.7-1,1.1c0,0.1-0.1,0.1-0.1,0.2L169.7,45.8z"/>
				<path id="Fill-49" class="st10" d="M173.5,55.7c0,0,1.7-3.2,3.4-1.8c1.8,1.4-1.6,6.2-3.5,4.5S173.5,55.7,173.5,55.7"/>
				<path id="Fill-51" class="st5" d="M172.5,51.9c0-0.5-0.3-0.9-0.6-1.3c-0.3-0.4-0.7-0.7-1.2-0.8c-0.6-0.1-0.8-0.1-1.1-0.2
					c-0.3-0.1-0.5-0.5-0.6-0.9c-0.2,0.4-0.2,1,0.1,1.4c0.3,0.5,1.1,0.5,1.3,0.6c0.3,0.1,0.6,0.3,1,0.5
					C171.8,51.4,172.2,51.7,172.5,51.9"/>
				<path id="Fill-53" class="st11" d="M167.1,54.9c0,0,3.5,1.8,3.5,6C170.5,60.9,163.2,58.8,167.1,54.9"/>
				<polygon id="Fill-55" class="st12" points="39.7,0.2 16.2,95.4 39.7,76.3 63.2,95.4 				"/>
				<polygon id="Fill-57" class="st12" points="39.7,33.6 6.8,166.9 39.7,140.2 72.6,166.9 				"/>
				<polygon id="Fill-59" class="st12" points="0.1,232.9 79.3,232.9 60.6,157.1 40.9,77.3 39.7,72.5 38.5,77.3 18.8,157.1 				"/>
				<path id="Fill-67" class="st8" d="M219.2,185L219.2,185c0,0.1,0,0.1,0,0.1v0.1C219.2,185.1,219.2,185.1,219.2,185L219.2,185
					L219.2,185z M169,80.4l2.4,29.7l19.5,3.6c-1.6-16.9-2.6-32.8-2.6-32.8l-4.9-4.1L169,80.4z"/>
				<path id="Fill-69" class="st8" d="M175.6,84.8C175.5,84.9,175.6,84.9,175.6,84.8L175.6,84.8h0.2l0.4-0.1
					c0.3-0.1,0.6-0.1,0.9-0.2c0.6-0.1,1.2-0.1,1.8-0.1c1.2,0,2.3,0.3,3.3,0.7c0.5,0.2,1,0.5,1.5,0.8c0.3,0.2,0.5,0.3,0.8,0.5
					c0.1,0.1,0.2,0.2,0.4,0.3l0.5,0.4c1.3,1.1,2.6,2.3,3.8,3.5c2.5,2.4,5,5,7.4,7.7c1.6,1.8,3.3,3.7,4.8,5.7
					c0.6,0.8-1.2-0.6-2.7-1.5c-4.2-2.5-8.4-5.2-12.6-8c-1.9-1.3-3.7-2.5-5.6-3.8l-3.4,4.6c1.8,1.5,3.7,2.9,5.6,4.4
					c4,3.1,8,6.1,12.2,9c1.6,1,3.1,2.1,4.8,3.1s3.3,2,5.3,2.8c0.5,0.2,1.1,0.4,1.8,0.6c0.3,0.1,0.7,0.2,1.2,0.2s1,0.1,1.9-0.1
					c0.4-0.1,1-0.3,1.6-0.6c0.6-0.3,1.2-0.9,1.6-1.6c0.8-1.3,0.7-2.4,0.7-3c0-0.4-0.1-0.5-0.1-0.8c0-0.2-0.1-0.4-0.1-0.6
					c-0.1-0.3-0.2-0.7-0.3-1c-0.4-1.2-0.9-2.2-1.4-3.2c-0.5-0.9-1-1.8-1.5-2.7c-2.1-3.4-4.3-6.4-6.7-9.4c-2.3-3-4.8-5.8-7.3-8.7
					c-1.3-1.4-2.6-2.8-4-4.2l-0.6-0.5c-0.2-0.2-0.4-0.4-0.7-0.6c-0.5-0.4-0.9-0.8-1.4-1.1c-1-0.7-2.1-1.4-3.2-1.9
					c-2.3-1-4.8-1.6-7.3-1.6c-1.2,0-2.5,0.1-3.7,0.3c-0.6,0.1-1.2,0.3-1.8,0.4c-0.3,0.1-0.6,0.2-0.9,0.3l-0.5,0.2l-0.6,0.3
					L175.6,84.8z"/>
				<path id="Fill-71" class="st9" d="M177.1,95.1L177.1,95.1c0,0.1,0.1,0.2,0.1,0.2C177.1,95.3,177.1,95.2,177.1,95.1"/>
				<path id="Fill-73" class="st8" d="M171.5,75.3l2.2,5.2l1.5,3.6c0.6-2.8,2.2-5.4,4.6-7.7c0.9-0.9,1.9-1.6,2.7-2.1
					c-1.2-0.3-2.4-0.4-3.7-0.4h-0.2c-1.2,0-2.4,0.1-3.5,0.3c-0.6,0.1-1.2,0.3-1.8,0.4c-0.3,0.1-0.6,0.2-0.9,0.3l-0.5,0.2L171.5,75.3
					z"/>
				<path id="Fill-75" class="st7" d="M172.4,87.6c0.4,11.8,9.9,18.4,19.1,19.8l0.2-1.1c-1-0.7-2-1.4-3-2.2c-5.8-1.6-9.4-5-11.5-8.8
					c0-0.1-0.1-0.1-0.1-0.2c-1.3-2.5-2-5.2-2.1-7.6c0-1.2,0.1-2.4,0.3-3.5c0.6-2.8,2.2-5.4,4.6-7.7c0.9-0.9,1.9-1.6,2.7-2.1
					c1.5-1,2.7-1.5,2.7-1.5l-1-2.4c-0.2,0.1-2.8,1.2-5.5,3.5c-1.9,1.6-3.9,3.8-5.1,6.7C172.9,82.5,172.3,84.9,172.4,87.6"/>
				<path id="Fill-77" class="st13" d="M224.8,92.5c10.7,0,17.9-5.3,21.1-9.7l-13.2-9.5c0,0,0-0.1,0.1-0.2
					c-0.7,0.9-7.6,8.3-25.4-3.5c-24.7-16.4-44.5-3.3-45.3-2.8l4.6,6.8l4.5,6.8c0.5-0.3,11.9-7.4,27.3,2.8
					C208.7,90.1,217.6,92.5,224.8,92.5"/>
				<path id="Fill-79" class="st11" d="M166.3,58.1c0,0-3.1-0.1-3.4,5.5c-0.1,2.4,1.2,4.5-1.8,8.2c-1.2,1.6-1.4,4.3,0,5.9
					c1.9,2.3,6.1,3.3,11.3-1c8.3-6.7-5.1-12.1,2-22.5c0,0-0.4-3.8-0.5-3.4C173.3,52.8,171.3,59.6,166.3,58.1"/>
				<path id="Fill-81" class="st10" d="M171.4,89.2c0,2.2,0.4,3.9,2.6,3.9s4-1.8,4-4.1c0-2.2-1.8-4.1-4-4.1S171.4,87,171.4,89.2"/>
				<path id="Fill-83" class="st10" d="M125.8,53.7c-0.4,1.9-0.1,3.3,0.7,4.1c0.8,0.9,2,1.4,3.3,1.4c2.5,0,4.5-2,4.5-4.5
					s-2-4.5-4.5-4.5C127.2,50.1,126.4,51,125.8,53.7"/>
				<path id="Fill-85" class="st9" d="M146.4,120.4c0.2,1.5,0.4,2.9,0.7,4.2c1.1,5.3,2.5,10.4,4,15.4c1.7,5.8,4.5,14.7,6.3,20.4
					l7.8,2.1c-1.7-7.1-4.4-17.4-5.9-24.5c-1-5-2.1-10.1-2.7-14.9c-0.1-0.4-0.1-0.8-0.1-1.2h0.1c2.1,1,4.2,2.2,6.3,3.4
					c2.1,1.3,4.3,2.6,6.4,3.9c3.6,2.3,7.2,4.8,10.8,7.3c0.2,0.8,0.4,1.5,0.6,2.3c1.1,4.3,2.3,8.7,3.7,13c0.7,2.2,1.5,4.4,2.4,6.6
					c0.5,1.1,0.9,2.3,1.5,3.5c0.3,0.6,0.7,1.2,1.1,1.9c0.2,0.3,0.5,0.7,0.8,1.1c0.3,0.4,0.5,0.6,0.7,0.9c1.9,2.1,3.8,3.5,5.7,4.9
					s3.8,2.7,5.6,3.9c0.9,0.6,1.9,1.2,2.8,1.8c0.6,0.4,1.3,0.8,1.9,1.2l4.8-6.6c-0.7-0.6-1.4-1.1-2.1-1.7c-0.8-0.6-1.5-1.2-2.2-1.8
					c-1.6-1.4-3.3-2.7-4.8-4.1c-1.5-1.4-2.9-2.9-3.9-4.1c-0.1-0.1-0.2-0.3-0.3-0.4l-0.2-0.3c-0.1-0.3-0.3-0.6-0.4-1
					c-0.3-0.8-0.6-1.7-0.9-2.7c0,0,0,0,0-0.1l0,0c-1.1-4.6-2.2-10.8-3-16.7l0,0c-0.2-1-0.3-2-0.5-3c0-0.1,0-0.1,0-0.2
					c-0.1-0.9-0.3-1.8-0.4-2.8c0-0.1,0-0.2-0.1-0.4c-0.1-0.5-0.1-1-0.2-1.5c0-0.2-0.1-0.5-0.1-0.7c-0.7-5.1-1.2-10.6-1.8-15.9
					l-19.5-3.6l0.6,6.9c-1.2-0.6-2.4-1.2-3.6-1.8c-2.4-1.2-4.9-2.3-7.6-3.3c-1.4-0.5-2.7-1-4.5-1.4c-0.9-0.2-1.8-0.4-3.2-0.3
					c-0.7,0-1.6,0.1-2.8,0.6c-0.2,0.1-0.3,0.1-0.5,0.2l-0.2,0.1l-0.2,0.1l-0.2,0.1c-0.6,0.4-1,0.8-1.4,1.2c-0.7,0.8-0.9,1.4-1.1,1.9
					c-0.3,1-0.4,1.6-0.5,2.2c0,0.6,0,1,0,1.5C146.3,118.9,146.3,119.7,146.4,120.4z"/>
				<path id="Fill-87" class="st11" d="M176,58c0,0-1.1,4.9,0.3,8.3c1.7,4,6.4,3.6,6.9,2c0.5-1.4-1.6-2.7-1.6-2.7l-0.6-5.3l-2.5-3.9
					L176,58z"/>
				<path id="Fill-89" class="st7" d="M171.3,44.2c0,0,3.3-4,8.4-3.2c7.5,1.1,15.7,16.8,23.2,14.7c0,0-1.9,5.2-13.7,3.5
					c-6.7-1-7.4,6.4-7.4,6.4L171.3,44.2z"/>
				<path id="Fill-91" class="st11" d="M201.3,55.3c0,2,1.6,3.6,3.6,3.6s3.6-1.6,3.6-3.6s-1.6-3.6-3.6-3.6
					C202.9,51.7,201.3,53.3,201.3,55.3"/>
				<path id="Fill-93" class="st13" d="M234,78c0.2,0,0.3-0.1,0.5-0.2c0.1-0.1,3.1-2.5,4.5-6.1c0.2-0.4,0-0.8-0.4-1s-0.8,0-1,0.4
					c-1.3,3.2-4,5.5-4.1,5.5c-0.3,0.3-0.4,0.7-0.1,1C233.6,77.9,233.8,78,234,78"/>
				<path id="Fill-95" class="st13" d="M235.9,78.7c0.2,0,0.3-0.1,0.5-0.2c0.1-0.1,3.1-2.5,4.5-6.1c0.2-0.4,0-0.8-0.4-1
					s-0.8,0-1,0.4c-1.3,3.2-4,5.5-4.1,5.5c-0.3,0.3-0.4,0.7-0.1,1C235.4,78.6,235.6,78.7,235.9,78.7"/>
				<path id="Fill-97" class="st13" d="M237.8,79.2c0.2,0,0.3-0.1,0.5-0.2c0.1-0.1,3.1-2.5,4.5-6.1c0.2-0.4,0-0.8-0.4-1
					s-0.8,0-1,0.4c-1.3,3.2-4,5.5-4.1,5.5c-0.3,0.3-0.4,0.7-0.1,1C237.4,79.1,237.6,79.2,237.8,79.2"/>
				<path id="Fill-99" class="st13" d="M239.5,79.8c0.2,0,0.3-0.1,0.5-0.2c0.1-0.1,3.1-2.5,4.5-6.1c0.2-0.4,0-0.8-0.4-1
					s-0.8,0-1,0.4c-1.3,3.2-4,5.5-4.1,5.5c-0.3,0.3-0.4,0.7-0.1,1C239.1,79.7,239.3,79.8,239.5,79.8"/>
				<path id="Fill-101" class="st13" d="M241,80.5c0.2,0,0.3-0.1,0.5-0.2c0.1-0.1,3.1-2.5,4.5-6.1c0.2-0.4,0-0.8-0.4-1s-0.8,0-1,0.4
					c-1.3,3.2-4,5.5-4.1,5.5c-0.3,0.3-0.4,0.7-0.1,1C240.6,80.4,240.8,80.5,241,80.5"/>
				<path id="Fill-103" class="st13" d="M242.2,82c0.2,0,0.3-0.1,0.5-0.2c0.1-0.1,3.1-2.5,4.5-6.1c0.2-0.4,0-0.8-0.4-1s-0.8,0-1,0.4
					c-1.3,3.2-4,5.5-4.1,5.5c-0.3,0.3-0.4,0.7-0.1,1C241.8,81.9,242,82,242.2,82"/>
				<polygon id="Fill-105" class="st14" points="49.8,73.6 51.2,73 40.8,49.2 39.5,49.8 				"/>
				<polygon id="Fill-107" class="st14" points="45.8,75.8 47.2,75.4 40.9,49.3 39.4,49.7 				"/>
				<polygon id="Fill-109" class="st14" points="41.3,76.3 42.8,76.1 40.9,49.5 39.4,49.6 				"/>
				<polygon id="Fill-111" class="st14" points="39,75.7 40.9,49.6 39.4,49.5 37.5,75.6 				"/>
				<polygon id="Fill-113" class="st14" points="36.6,126.3 38.1,126.2 36.5,100.3 35,100.4 				"/>
				<polygon id="Fill-115" class="st14" points="33.5,127.1 36.5,100.4 35,100.2 32,126.9 				"/>
				<polygon id="Fill-117" class="st14" points="29.1,126.2 36.5,100.5 35.1,100.1 27.7,125.8 				"/>
				<polygon id="Fill-119" class="st14" points="25.7,124.4 36.4,100.6 35.1,100 24.3,123.8 				"/>
				<polygon id="Fill-121" class="st14" points="58.3,147.1 59.7,146.5 49.2,122.7 47.9,123.3 				"/>
				<polygon id="Fill-123" class="st14" points="54.3,149.3 55.7,148.9 49.3,122.8 47.8,123.2 				"/>
				<polygon id="Fill-125" class="st14" points="49.8,149.8 51.3,149.6 49.3,123 47.8,123.1 				"/>
				<polygon id="Fill-127" class="st14" points="47.5,149.2 49.3,123.1 47.8,123 46,149.1 				"/>
				<polygon id="Fill-129" class="st14" points="34.3,184.3 35.8,184.2 34.1,158.3 32.7,158.4 				"/>
				<polygon id="Fill-131" class="st14" points="31.2,185.1 34.1,158.4 32.7,158.2 29.8,185 				"/>
				<polygon id="Fill-133" class="st14" points="26.9,184.3 34.1,158.5 32.7,158.1 25.4,183.9 				"/>
				<polygon id="Fill-135" class="st14" points="23.4,182.5 34.1,158.6 32.7,158 22,181.9 				"/>
				<path id="Stroke-137" class="st15" d="M51.9,188.4L62.6,212"/>
				<path id="Stroke-139" class="st15" d="M51.9,188.4l6.7,26"/>
				<path id="Stroke-141" class="st15" d="M51.9,188.4l2.3,26.7"/>
				<path id="Stroke-143" class="st15" d="M51.9,188.4l-1.5,26.1"/>
				<path id="Fill-145" class="st10" d="M127.6,57.7c1.4,2.5,2.8,4.9,4.3,7.3l4.8-3.7c-1.6-2.1-3.1-4.3-4.6-6.4L127.6,57.7z"/>
				<path id="Fill-147" class="st16" d="M129.4,150.7c1.3,0,2.4-0.8,2.8-2.1c5.9-18.6,2.8-28.1-0.1-37.3l-0.3-0.9
					c-0.4-1.3-0.9-2.6-1.3-3.9c-3.2-9.3-6.2-18.1-0.9-31.1c6.7-16.6,2-36,1.8-36.8c-0.4-1.6-2-2.6-3.6-2.2c-1.6,0.4-2.6,2-2.2,3.6
					c0,0.2,4.4,18.4-1.6,33.2c-6.1,15.1-2.4,25.8,0.8,35.3c0.4,1.3,0.9,2.5,1.3,3.8l0.3,0.9c2.8,8.7,5.4,16.9,0.1,33.7
					c-0.5,1.6,0.4,3.2,1.9,3.7C128.8,150.7,129.1,150.7,129.4,150.7"/>
				<path id="Fill-149" class="st10" d="M173.9,92.4c1.7,1.3,5.1,4,6.8,5.3l3.1-4.6c-1.7-1.1-5.2-3.7-6.8-4.8L173.9,92.4z"/>
				<g id="Group-159" transform="translate(108.762799, 149.671892)">
					<path id="Fill-151" class="st9" d="M101.6,90.6c-0.1,0.2-0.2,0.3-0.2,0.4c0,0,0.1,0,0.1-0.1L101.6,90.6z"/>
					<path id="Fill-153" class="st17" d="M79.6,77.9c0.2-0.3,0.5-0.7,0.7-0.9c0.2-0.2,0.4-0.4,0.6-0.5l0.2-0.1
						c0.1-0.1,0.2-0.1,0.3-0.1c1-0.3,2.5-0.1,4,0.2c1.5,0.3-5,0.9-3.4,1.4c0.2,0.1-1.3-0.9-1.1-0.9c0.6,0.2,2.4,0.5,3,0.7
						C81,76.3,82.3,76.8,83,77c0.1,0,2.4-2.5,2.5-2.5l21.8,5.2l0.4-1.9l2.9-19.4l0.4-3.7c-1.1-1.3-3.3,1.5-4.4,5.4
						c-0.8,2.8-1.4,6-2.2,10.3c-0.2,1-0.4,2-0.6,2.7l-0.6-0.2c-1.3-0.5-2.7-1.3-4.2-2c-0.3-0.1-0.5-0.3-0.8-0.4
						c-2-1.1-4.1-2.2-6.1-3.3c-0.6-0.3-1.2-0.7-1.8-1c-0.9-0.5-1.8-0.9-2.6-1.4c-1.8-0.9-3.6-1.7-5.4-2.5c-1.8-0.7-5.2-1.7-7.1-1.5
						c-2.3,0.3-4.1,1.4-6.7,6.7c-0.9,1.8-2.4,6.1-3.8,10.4L79.6,77.9L79.6,77.9z"/>
					<path id="Fill-155" class="st17" d="M28.8,82.5c0.1,0.8,0.1,1.6,0.5,3.2c0,0.1,0.1,0.3,0.1,0.4h9c0,0-0.1,0-0.1-0.1
						c0.1-0.3,0.2-0.7,0.4-1.1c1.5-4.2,3.4-8.1,5.2-11.9c2.7-5.4,5.5-10.6,8.3-15.8c1.2-2.2,2.4-4.3,3.6-6.5l3-5.6
						c0.5-1,1-1.9,1.5-2.9c0.2-0.5,0.5-1,0.7-1.7c0.1-0.2,0.1-0.3,0.2-0.6c0-0.1,0.1-0.2,0.1-0.4c0-0.1,0-0.2,0.1-0.4
						c0,0,0-0.2,0-0.3v-0.2c0-0.1,0-0.3,0-0.4c0-0.2,0-0.3-0.1-0.5c-0.1-0.4-0.2-0.9-0.3-1.4c-0.2-0.5-0.2-0.7-0.3-0.8L42,25.9
						c0,0.2,0,0.5,0.1,0.7c0.5,2.4,8.9,8.5,11.8,10.6c0.6,0.4,0.7,1.2,0.3,1.7l-2.7,3.7c-2,2.7-3.9,5.3-5.9,8
						c-2.6,3.6-5.3,7.3-7.8,11.2c-2.2,3.4-4.4,6.8-6.4,10.9c-0.5,1-1,2.1-1.4,3.4c-0.2,0.6-0.4,1.3-0.7,2.2
						c-0.1,0.4-0.2,0.9-0.3,1.5C28.8,80.5,28.7,81.2,28.8,82.5"/>
					<path id="Fill-157" class="st17" d="M0.9,72.2c0.3,4,0.4,7.7,0.2,11H6c0.1-2.7,0-5.5-0.2-8.6C4,55.2,6.6,49.2,11,43.6
						c0.6-0.8,1.2-1.6,1.9-2.4l0.4-0.6c4.2-5.7,8.6-11.6,7.6-36.3c0-1-0.5-2.2-1.1-3c-0.1-0.2-0.3-0.4-0.4-0.5C18.6,0,18,0.4,18,1.7
						c0.9,23.3-3,28.6-7.2,34.2l-0.4,0.6c-0.6,0.8-1.2,1.6-1.8,2.4C3.9,44.8-0.9,50.9,0.9,72.2"/>
				</g>
				<path id="Fill-160" class="st18" d="M150.5,175.5l18.5,12.7c0.1,0,0.2-0.1,0.4-0.3s0.5-0.5,0.6-0.8c0.1-0.1,0.1-0.2,0.1-0.3
					s0.1-0.3,0.1-0.3v-0.2c0-0.1,0-0.3,0-0.3c0-0.1,0-0.3,0-0.3c0-0.2,0-0.3,0-0.4c0-0.2,0-0.4-0.1-0.6c-0.1-0.8-0.2-1.4-0.4-2.1
					c-0.3-1.3-0.5-2.6-0.8-3.9l-1.8-7.6c-0.7-3-1.4-5.9-2.1-8.9l-7.8-2.1c1.3,4.2,2.7,8.4,4,12.6l2.3,7.4c0,0-1.4-0.7-3-1.5
					c-2.5-1.4-5.1-2.6-7.6-3.9l0,0c-0.8-0.5-1.8-0.3-2.3,0.4C150.6,175.2,150.5,175.4,150.5,175.5"/>
				<path id="Fill-162" class="st18" d="M219.4,186.1c0,0.7,0,1.4,0,2.2c-0.1,4.2-0.4,8.6-0.8,12.9l0,0c-0.1,1.3,0.8,2.5,2.1,2.6
					h0.1l3.7-25.2c-0.1-0.2-1-0.7-2.4-1.3c-1.2-0.6-2.2-1-5.5-3c-3.1-1.8-4.4-3-7-5.1l-4.6,7.1c2.8,1.8,5.7,3.5,8.5,5.2
					c1.8,1.1,3.7,2.3,5.2,3.4C218.6,185,219.3,185.5,219.4,186.1"/>
				<path id="Fill-164" class="st10" d="M128,50.5c0,0,4.1,0.7,4.2,3.4c0.2,3.5-1.5,7.6-5.9,3.8L128,50.5z"/>
				<path id="Fill-166" class="st10" d="M134.2,54.7c-0.1,1.9-0.1,3.5,2.6,6.7l-3.7-1.2L132,56L134.2,54.7z"/>
				<path id="Fill-170" class="st11" d="M276.2,41H338c0,0-12.1-13.9-21.2-12.9c-9.2,1-10,6.2-18.4,6.5
					C288.2,34.8,286.5,24,278.8,24S266,35.2,259.3,36.2c-6.8,1-11.1-5.3-19.8-3.9C230.8,33.7,225,41,225,41H276.2z"/>
				<path id="Fill-178" class="st10" d="M181.7,91.5c-2.4-1.4-3.2-5.2-6.6-6.4l-0.5,3.5l3.7,3.9L181.7,91.5z"/>
				<path id="Fill-180" class="st10" d="M177.8,95.4c-1.5-1.2-5.6-1.4-6.1-4l1.5-1.1l4.6,2.1V95.4z"/>
				<path id="Stroke-182" class="st19" d="M132.4,52.3l-3.1-2.5"/>
				<path id="Fill-184" class="st11" d="M228.2,188.8c0,0.5,0.4,0.9,0.9,0.9s0.9-0.4,0.9-0.9s-0.4-0.9-0.9-0.9
					C228.6,187.9,228.2,188.3,228.2,188.8"/>
				<path id="Fill-186" class="st11" d="M226.7,193.4c0,0.6,0.5,1.2,1.2,1.2c0.6,0,1.2-0.5,1.2-1.2c0-0.6-0.5-1.2-1.2-1.2
					C227.2,192.3,226.7,192.8,226.7,193.4"/>
				<path id="Fill-188" class="st11" d="M231.1,195c0,0.3,0.2,0.5,0.5,0.5s0.5-0.2,0.5-0.5s-0.2-0.5-0.5-0.5
					C231.4,194.5,231.1,194.7,231.1,195"/>
				<path id="Fill-190" class="st20" d="M229.5,213.3c2,2.3,5.5,5.3,9.7,8.3c3.8,2.7,7.4,4.8,10.2,6c2.6,1.2,4.5,1.5,5,0.8
					c1-1.4-4.2-6.8-11.5-12c-7.4-5.2-14.2-8.2-15.2-6.8C227.2,210.2,227.9,211.5,229.5,213.3"/>
				<path id="Fill-192" class="st0" d="M229.5,213.3c2,2.3,5.5,5.3,9.7,8.3c3.8,2.7,7.4,4.8,10.2,6c-2-2.3-5.5-5.3-9.7-8.3
					C235.9,216.6,232.2,214.5,229.5,213.3"/>
			</g>
		</g>
	</g>
</g>
</svg>
