<?xml version="1.0" standalone="no"?>
<!DOCTYPE svg PUBLIC "-//W3C//DTD SVG 1.1//EN" "http://www.w3.org/Graphics/SVG/1.1/DTD/svg11.dtd" >
<svg xmlns="http://www.w3.org/2000/svg">
<metadata></metadata>
<defs>
<font id="freshfontregular" horiz-adv-x="1228" >
<font-face units-per-em="2048" ascent="1638" descent="-410" />
<missing-glyph horiz-adv-x="839" />
<glyph horiz-adv-x="2048" />
<glyph horiz-adv-x="2048" />
<glyph unicode="&#xd;" horiz-adv-x="2048" />
<glyph unicode=" "  horiz-adv-x="839" />
<glyph unicode="&#x09;" horiz-adv-x="839" />
<glyph unicode="&#xa0;" horiz-adv-x="839" />
<glyph unicode="$" horiz-adv-x="1249" d="M6 256.5q18 43.5 76 67.5q44 14 74 7.5t72 -26.5t79 -41t94 -36.5t117 -12.5q114 10 220 81q78 52 82 94q4 45 -92 42h-9q-78 -3 -163 3.5t-175 26.5t-158 50.5t-104 83t-19 117.5q18 86 75 173t138 162.5t162.5 136t171.5 113.5q86 47 162 74l96 295q9 44 53.5 68.5 t88.5 9.5q43 -13 64.5 -52.5t12.5 -84.5l-61 -189q190 -7 190 -170q0 -189 -58 -309.5t-148 -138.5q-39 -5 -67.5 0.5t-45.5 23.5t-27 35.5t-14 50.5t-5 53t-1 58q0 34 -2.5 52.5t-11.5 32t-26.5 9.5t-49 -24.5t-78.5 -61.5q-236 -221 -217 -306q13 -60 145 -60 q155 0 286.5 -26t211.5 -82.5t61 -131.5q-23 -121 -182 -235t-393 -175l-72 -237q-31 -80 -110 -80q-19 0 -39 10q-44 13 -64.5 54t-5.5 85l43 142q-183 7 -313 108q-45 30 -63.5 73.5t-0.5 87z" />
<glyph unicode="&#x26;" horiz-adv-x="1085" d="M18 299q-9 61 9 119.5t53.5 104t80 85.5t91.5 68.5t85.5 49t63.5 30.5l25 10q-5 1 -13 3t-31.5 11t-45 19.5t-48 30t-46 42t-33.5 55.5t-16 70q-3 91 34 178.5t123 162.5t209 110q125 35 232 7.5t180.5 -95t85.5 -143.5q10 -51 -18.5 -91t-75.5 -58t-101 -23.5t-96 12.5 q-48 21 -65 61.5t5 84.5t78 71q24 9 57.5 15t41.5 9q13 4 18 11t0 15t-18 15q-48 39 -150 27q-63 -8 -112.5 -35t-79.5 -66.5t-45.5 -87.5t-14 -100t18.5 -102q5 -17 14 -32.5t17.5 -27t24.5 -23t25 -18t29 -16.5t27 -13t29.5 -12t25.5 -10q18 0 15.5 -16t-15.5 -16 q-26 -9 -51.5 -19t-58.5 -26.5t-60 -35t-56 -44t-47 -53.5t-32.5 -63t-13 -74t11.5 -85q21 -73 75 -114t117.5 -45.5t126 9.5t108.5 46.5t56 68.5q3 16 -3 31t-21.5 28t-30.5 23.5t-41 22.5t-40.5 18t-41.5 16.5t-33 12.5q-7 0 0 10q5 8 11 8q86 30 158.5 37.5t123.5 -4 t96.5 -36.5t78 -58t67.5 -70.5t64.5 -71t69 -63t81.5 -43.5q139 -37 233 8q41 17 49 1t-14 -42q-142 -142 -350 -75q-64 21 -112 62.5t-77 89t-55 94t-63 86.5t-84 59q-66 29 -92 17q-9 -4 0 -9q64 -22 96.5 -59.5t33.5 -78.5t-15.5 -85.5t-42.5 -80.5t-56 -63 q-72 -62 -163 -96t-179 -37.5t-174.5 16t-154 58.5t-113.5 95.5t-56 121.5z" />
<glyph unicode="," horiz-adv-x="362" d="M10 -172q41 59 54.5 106t7 74t-13 65t-1.5 72q11 59 43.5 100.5t81.5 51.5q52 6 90 -14t54 -56t15 -82t-22 -90q-29 -61 -71.5 -107t-82.5 -68t-76 -35t-57 -15z" />
<glyph unicode="-" horiz-adv-x="618" d="M39 614v7q0 29 6 41q20 27 81.5 36.5t192.5 14.5q8 0 23 3t23 3h149q36 -4 58.5 -25t27.5 -45q0 -39 -12 -57q-9 -23 -45 -39q-8 -1 -35.5 -7t-54 -10t-54.5 -6q-336 -44 -360 84z" />
<glyph unicode="." horiz-adv-x="348" d="M27 178q4 26 14.5 43.5t33 31.5t58 13.5t90.5 -10.5q57 -13 85.5 -64.5t17.5 -117.5q-5 -33 -25 -52.5t-47.5 -25t-60.5 -7t-64 2.5q-39 6 -65.5 40t-34.5 73.5t-2 72.5z" />
<glyph unicode="0" horiz-adv-x="1290" d="M3 426.5q5 73.5 24 157.5t44.5 158.5t59 154t62 137.5t59.5 115q32 57 73 107.5t92 95t112 66.5t122 14q48 -3 80 -18t44 -34.5t17 -38t3 -31.5l-2 -12q9 0 25 -2t62.5 -13t91 -28.5t101.5 -54t102 -83.5t85 -122.5t59 -167.5q16 -81 3.5 -166t-49 -163t-94 -152.5 t-131.5 -134.5t-160.5 -109t-182.5 -76t-197.5 -35t-204.5 13q-88 17 -150.5 57.5t-95.5 95t-46 125.5t-8 144.5zM396 471q-19 -181 45 -235q73 -61 231 73q128 108 204 224t91.5 211t-14.5 170.5t-103 113.5q-49 26 -81.5 38t-64.5 10t-54 -16t-49.5 -52t-52.5 -86.5 t-61 -128.5q-74 -150 -91 -322z" />
<glyph unicode="1" horiz-adv-x="921" d="M27 35q-5 44 61 84.5t134 58.5l69 19l241 903l-70 -18q-158 -32 -159 44q-1 4 0 9q6 29 50.5 67.5t108 74t138.5 68.5t143 51.5t121.5 23.5t73.5 -17q16 -16 -12.5 -143.5t-79 -296.5t-101 -336.5t-79 -282.5t-11.5 -115q132 0 191 -34q54 -31 10 -86q-34 -51 -438 -109 q-171 -24 -278 -18t-113 53z" />
<glyph unicode="2" horiz-adv-x="1249" d="M-3 79.5q-3 -29.5 17 -51.5t77 -31.5t149 -4.5q75 4 195.5 8t204.5 7.5t189 9.5t176.5 16.5t137.5 26t101.5 40t41.5 56.5q8 46 -63 76t-178 40.5t-215.5 14t-185.5 1.5l-77 -3q174 128 331 327.5t241.5 394.5t60.5 310q-15 80 -107.5 117.5t-213.5 32.5t-243 -32.5 t-204 -68.5q-244 -118 -253 -195q-4 -40 57 -57q73 -20 182 2q57 10 108.5 37t82.5 50.5t62.5 40.5t62.5 8t67 -50q37 -47 6.5 -135.5t-104 -198t-167.5 -220t-184.5 -201.5t-154.5 -142q-56 -43 -97 -81.5t-70.5 -76.5t-32.5 -67.5z" />
<glyph unicode="3" d="M6 86q5 45 86.5 55.5t300.5 10.5q174 0 307.5 86t145.5 176q2 39 -53.5 65t-133.5 34t-160 12t-134 -1q-103 -9 -103 80q0 22 16 47.5t50 40.5q193 91 290 168q48 37 94 88.5t75.5 100t40 89.5t-12.5 56q-12 9 -32.5 10t-47.5 -6t-56.5 -17.5t-64 -26t-64 -29t-64 -29.5 t-56.5 -25q-71 -22 -131 -22q-35 0 -51.5 32.5t5.5 87.5t89 105q104 78 258.5 118.5t292 38t244 -39.5t125.5 -101q16 -57 -20.5 -135.5t-99.5 -149t-128.5 -133t-113.5 -100.5l-48 -37q8 -2 22 -6t55 -17.5t78 -29t81.5 -41t76.5 -53.5t53.5 -66t20.5 -78 q-10 -153 -177.5 -268.5t-463.5 -175.5q-198 -41 -330 -27t-198.5 47t-63.5 66z" />
<glyph unicode="4" d="M-9 607q-1 33 54 69q97 62 233.5 177.5t225.5 199t229 217.5q306 295 432 102q26 -44 20 -124t-34 -179.5t-59.5 -186.5t-56.5 -146l-25 -60l100 -14q191 -35 184 -93q-9 -34 -97 -56t-171 -27l-84 -5q-53 -155 -106 -350q-8 -29 -17 -52t-17 -39.5t-21 -28.5t-21 -19.5 t-25 -11t-25 -5.5t-29 0t-29.5 3t-33.5 4q-45 0 -70.5 17t-29.5 64q-3 63 14 166t36 175l18 71q-221 -10 -411 31q-182 39 -184 101zM524 711l150 -15l168 338q-277 -290 -318 -323z" />
<glyph unicode="5" d="M0 232q14 47 66 61q36 12 94 -0.5t115 -37.5t122 -48t116 -30.5t97 13.5q34 20 57.5 50.5t34.5 67t4 79t-31.5 84t-77 84.5t-126.5 78q-55 25 -91.5 53.5t-53.5 55t-20 59t4 60.5t24 65.5t35 67t41.5 72t38.5 75.5q36 75 72.5 128t77.5 83.5t78.5 47t89.5 23t96 8t112 4 t123 9.5q50 4 105.5 14.5t96 20.5t81.5 19t68 10.5t48 -5.5t29.5 -29.5t5.5 -60.5q-7 -51 -44 -92t-90.5 -67.5t-122.5 -45.5t-134 -27.5t-131 -11.5q-16 0 -39.5 1.5t-38.5 2t-31 -0.5t-25.5 -6.5t-13.5 -16.5q-25 -45 -57 -98t-43 -73t-17.5 -47t-1.5 -57q4 -23 32.5 -44 t96 -55t101.5 -54q58 -39 97.5 -78.5t66.5 -105t20 -142.5q-15 -154 -122.5 -259t-280.5 -146t-387 -15q-233 26 -328 131q-59 64 -39 126z" />
<glyph unicode="6" d="M13.5 348.5q-4.5 172.5 109.5 415.5q174 345 321 516t258 182q148 14 147 -68q-1 -68 -118 -245l-55 -82q-72 -110 -121.5 -218t-63.5 -161l-14 -53q43 18 116 30.5t159 17t174.5 -5t160.5 -32t118.5 -69t47.5 -109.5q2 -77 -56.5 -151t-154.5 -130t-213 -100t-234.5 -68 t-215.5 -26q-165 -3 -263 90.5t-102.5 266zM406 352q18 -89 54.5 -126t108.5 -27q83 5 143 25.5t132 78.5q25 22 39 55.5t13.5 67t-32 59t-92.5 29.5q-64 8 -132 2.5t-124 -19.5t-88 -52t-22 -93z" />
<glyph unicode="7" horiz-adv-x="1146" d="M10 1188q14 40 44.5 63t76.5 32t92 12t112 7t114 13q64 11 151.5 39t155.5 52.5t156 41.5t165 12q36 -2 61.5 -9t38 -19t18 -25t0.5 -33t-12 -37.5t-23.5 -43.5t-29.5 -45.5t-33.5 -50t-33.5 -50.5q-99 -169 -275.5 -510t-212.5 -461q-35 -117 -46 -137q-19 -37 -60 -45 q-27 -6 -125 -6q-48 0 -78.5 8t-44.5 27.5t-17 42t7.5 63.5t24 78.5t37.5 99.5q1 1 1 2q35 93 131 304t175 375l79 165q-26 -9 -68.5 -21.5t-147 -35.5t-175.5 -27q-83 -3 -145.5 9t-94.5 40.5t-18 69.5z" />
<glyph unicode="8" horiz-adv-x="1167" d="M-25 270q2 53 39.5 119.5t87 122.5t107.5 110t93 82.5t50 38.5l-78 134q-79 148 -46 273.5t151 186.5q88 41 209.5 70.5t264 38t259.5 -26.5q81 -18 44 -60q-38 -42 -163 -79q-50 -12 -81.5 -13t-43.5 4.5t-30 13t-39 9.5q-53 6 -130 -43t-87 -96q-6 -31 7.5 -83.5 t30.5 -89.5l17 -36q351 215 455 299q34 33 66 36t49.5 -17t26.5 -49t-3 -60q-14 -41 -70 -92.5t-126.5 -96t-138.5 -83.5t-114 -61l-47 -23q9 -11 24 -30t54.5 -74.5t70.5 -108.5t58 -120t31 -120q10 -95 -64.5 -173t-209 -124.5t-306.5 -58.5q-107 -6 -184 4t-124 31.5 t-73 59.5t-33.5 81.5t-3.5 103.5zM297 270q-3 -59 31.5 -90t82 -30t96.5 24.5t75 61.5q50 75 31.5 165t-115.5 197q-8 -7 -21.5 -18.5t-48.5 -48.5t-61.5 -74t-48 -89t-21.5 -98z" />
<glyph unicode="9" horiz-adv-x="1284" d="M41 950q-4 94 56 181.5t159.5 150t219.5 106t243.5 58.5t222.5 0q15 -4 53 -12t56.5 -13t52.5 -15.5t70.5 -26t80.5 -36.5q44 -19 48.5 -68.5t-26.5 -125.5t-69 -149t-93.5 -175t-84.5 -166q-51 -109 -106 -270t-91 -267t-57 -124q-36 -27 -174 -17t-190 39 q-29 16 32.5 212.5t137.5 384.5l77 188q-8 -2 -21.5 -5.5t-54.5 -12.5t-81.5 -15.5t-95.5 -11t-102 -2.5t-96 13t-84 32t-58 58.5t-25 88.5zM473 978q32 -13 113 32q72 37 129 76.5t87.5 70t50.5 55.5t26 38l6 14q-34 5 -64.5 5t-57.5 -5t-52 -14t-48 -20.5t-45.5 -24.5 t-44.5 -26q-11 -7 -16 -10q-50 -38 -83 -105q-34 -70 -1 -86z" />
<glyph unicode="?" horiz-adv-x="1175" d="M74 88q14 -55 68 -83t114 -5q65 21 104.5 74t24.5 106q-4 62 -57.5 90t-116.5 4q-69 -12 -106 -65t-31 -121zM117 698q11 58 36 105t52.5 76.5t70 56t73 40t79 33.5t72.5 31q96 49 162 113.5t86 128.5q18 43 14.5 74.5t-16.5 52t-38.5 33t-51 17.5t-54.5 5 q-27 0 -68.5 -16t-68.5 -30.5t-86 -47.5q-65 -35 -126 -39.5t-98.5 21.5t-37.5 75q0 58 29 108.5t71.5 83.5t99 59.5t103.5 40t94 22.5q130 24 242 14.5t196.5 -45.5t135 -108.5t57.5 -174.5q3 -113 -46 -216.5t-135.5 -183.5t-187 -140.5t-215.5 -104.5q-54 -20 -88 -51 t-47 -65.5t-19 -71.5t-10 -73.5t-13.5 -68t-36 -57t-71.5 -39.5q-61 -18 -103 31t-55.5 133t-0.5 178z" />
<glyph unicode="A" horiz-adv-x="1062" d="M-111 35q-4 11 -4 26q0 148 355 738l28 51q86 141 128.5 208t105.5 154t123 152q61 78 157 78q38 0 72 -21t49 -57q61 -138 86 -614q10 -167 15 -274q6 -106 6 -194v-20q0 -75 -4 -116q-4 -47 -15 -81.5t-26 -47t-39 -17.5q-8 -6 -29 -6q-58 0 -98 98t-66 307v15h-129 q-66 0 -153 4t-103 4h-8l-6 -8q-246 -414 -373 -414h-29q-33 10 -43 35zM469 664l20 -7h201l21 7l-6 14q0 35 -2 71.5t-6.5 87t-6.5 76.5l-8 187l-29 -66q-9 -19 -29 -56t-28 -56q-8 -17 -30.5 -64.5t-37 -76t-30.5 -54.5l-23 -41z" />
<glyph unicode="B" horiz-adv-x="1064" d="M-12 102q-1 7 -1 15q1 23 9 61q12 50 27.5 102t46 154t55.5 197q35 122 62.5 243t38.5 182l10 60q-7 -4 -18 -9t-40.5 -12.5t-52 -6t-41.5 21.5q-21 22 -21 65q-1 41 63 85q66 46 188 85t278 66q91 17 170 17q24 0 46 -2q98 -6 165.5 -34t98.5 -86q20 -39 21 -88 q0 -25 -6 -53q-11 -63 -54.5 -126t-98 -108.5t-107.5 -82t-89 -54.5l-36 -18q115 0 202.5 -47.5t115.5 -144.5q15 -45 15 -100q0 -52 -18 -116t-55 -123.5t-106.5 -112t-163.5 -81.5q-189 -50 -379 -50q-21 1 -43 1q-212 6 -260 55q-18 19 -22 45zM336 267.5q0 -5.5 6 -9.5 q4 -2 9 -1q4 0 9 1q41 6 88.5 19t111 37.5t111.5 67t62 95.5q5 21 4.5 37t-11 27t-22.5 19t-32 11.5t-38.5 5t-42.5 0.5t-43.5 -3t-41.5 -5t-37 -6t-29 -6q-11 0 -17 -3t-10 -8t-7 -7q-5 -13 -36.5 -134t-31.5 -129q-2 -3 -2 -8.5zM489 934q-2 -6 -2 -11q1 -5 3 -9 q4 -4 10 -4q4 0 8 1q30 9 58.5 19.5t70.5 30.5t73.5 42.5t57.5 56t33 70.5q2 11 2 20q0 30 -19 47q-24 21 -65 21h-4q-44 -1 -82 -8t-70 -18q-1 0 -5 -3t-5.5 -4t-5 -3.5t-4.5 -4.5t-3 -5t-2.5 -6t-0.5 -7q-4 -12 -26 -114t-22 -111z" />
<glyph unicode="C" horiz-adv-x="1091" d="M0 394q-5 34 -5 75q0 51 8 113q15 108 58 231q107 321 332 514q203 141 406 141q92 0 171.5 -27t129.5 -77q36 -40 46 -99q5 -29 6 -57q0 -30 -6 -60q-11 -58 -38 -108q-34 -71 -78 -100t-104 -29h-21q-42 5 -61 14t-29 31q-8 19 -8 41t4 37.5t13 42t12 37.5q11 32 11 56 q0 46 -40 65q-21 10 -46 10q-38 0 -86 -22q-56 -25 -93 -70q-91 -108 -156 -255.5t-86 -309.5q-13 -73 -13 -128q0 -99 42 -143q36 -45 90 -45q87 0 188 84q10 4 39 29q60 44 91 65.5t74 41.5t75 20q52 0 84 -51q16 -20 16 -56v-9q-2 -42 -25 -87q-39 -97 -136.5 -189.5 t-237.5 -133.5q-48 -15 -144 -15q-124 0 -227.5 49t-171.5 140q-31 44 -51.5 99t-32.5 135z" />
<glyph unicode="D" horiz-adv-x="1351" d="M2 119v5q0 18 24 32q28 16 58 23l29 7l227 1035q-25 -1 -46 -1q-84 0 -112 18q-24 16 -24 46q0 15 6 33q14 53 127 89t264 44q50 2 102 2q103 0 211 -10q276 -27 382 -182q81 -118 81 -322q0 -63 -8 -135q-8 -57 -17.5 -104.5t-32.5 -128.5t-52 -146.5t-80 -141.5 t-113 -131t-152.5 -98.5t-197.5 -58.5q-125 -18 -226 -18h-20q-109 2 -189.5 17t-134 38.5t-80 46.5t-26.5 41zM469 292q4 -12 25 -11q17 -1 33 -1q179 0 303 112q134 122 178 366q12 62 12 115v6q0 50 -9 86q-9 39 -24 71t-36 53t-45 37.5t-50.5 24t-52.5 13.5q-22 5 -43 5 h-8q-24 -1 -45 0q-36 -4 -51 -13t-26 -34.5t-26 -91.5q-60 -275 -133 -698q-4 -17 -4 -28q0 -7 2 -12z" />
<glyph unicode="E" horiz-adv-x="1044" d="M6 104q9 156 117 562v20q44 169 80 328l14 65q34 168 52 218q23 60 57 96q68 53 196 65q51 6 168 6q30 0 78.5 1t80.5 1q11 0 22 1q23 0 51 -1q41 -1 67 -4.5t50 -11t34.5 -20.5t9.5 -31q-6 -23 -44.5 -42t-137.5 -44l-276 -74h-15q-14 -11 -14 -20l-80 -379q0 -15 6 -23 q25 -2 49 -0.5t104 7t118 7.5q9 1 18 1q64 0 81 -34q5 -10 5 -21q0 -32 -47 -69q-43 -35 -117 -65q-59 -23 -124.5 -44.5t-102.5 -32.5t-41 -11l-8 -6q-7 0 -21 -14q-51 -205 -59 -248q0 -33 12.5 -45.5t46.5 -12.5q17 2 241 56t296 67q10 1 19 1q54 0 72 -37q7 -14 7 -28 q0 -30 -29 -64q-35 -42 -104 -68q-301 -104 -467 -146q-40 -10 -80.5 -18t-62.5 -11t-58.5 -8t-44.5 -6q-12 -1 -23 -1q-50 0 -88 12q-46 14 -67.5 37t-31 45t-9.5 44z" />
<glyph unicode="F" horiz-adv-x="1003" d="M16 40q-1 5 -1 13q0 17 6 46q8 41 16 71.5t30 107.5q1 5 2 8t2.5 8t2.5 9q8 42 20 96q7 29 19.5 75t21.5 82.5t15 70.5q76 288 143 612q12 58 27.5 87.5t48.5 43.5q15 7 40.5 11t53.5 6l98 7t139 11q241 29 304 29q17 2 31 2q21 0 34 -4q22 -8 37 -33q10 -7 10 -29v-9 q-2 -29 -22 -58q-24 -43 -148.5 -76t-239 -49.5t-116.5 -20.5q-18 -72 -40.5 -156.5t-36 -132t-13.5 -49.5v-6h14q14 3 37.5 7t85 12.5t110.5 11.5q17 1 34 1q31 1 61 -3q46 -6 57 -23q6 -12 6 -24q1 -30 -37 -64q-54 -47 -153 -78l-256 -82h-6q-14 -49 -84 -331 q-16 -63 -33.5 -108.5t-32 -69.5t-34.5 -39.5t-31.5 -20t-32.5 -10.5q-27 -6 -54 -6q-22 0 -45 4q-50 9 -75 22q-11 10 -15 28z" />
<glyph unicode="G" horiz-adv-x="1030" d="M27 709q90 367 288 565q90 90 193 137t205 47q143 0 239 -84q41 -34 58 -92q15 -48 15 -96q0 -11 -1 -22q-4 -59 -23 -115q-26 -75 -72 -115.5t-104 -40.5q-73 0 -98 35q-7 12 -7.5 27t4.5 33t10 31t14.5 34t13.5 30q2 5 6 11.5t6 12t2 11.5q11 18 11 36t-11 36 q-12 31 -57 43q-7 0 -20.5 3t-20.5 3q-88 0 -156 -69.5t-114 -170.5q-96 -226 -105 -475q-2 -23 -2 -44q0 -132 66 -195q40 -43 118 -43q87 0 170 49q74 58 113 127q14 14 14 28q-119 -34 -182 -34q-152 0 -164 120q-1 9 -1 17q0 27 12 48q16 27 54 44.5t80.5 29t107.5 25.5 q7 1 10.5 2t9 2t10.5 2q13 2 53 8t73 9.5t58 3.5q31 0 64 -14q25 -15 37 -63q8 -34 8 -76q0 -18 -2 -38q-10 -100 -56.5 -202t-134 -193t-198.5 -135q-92 -37 -185 -37q-213 0 -332 150q-103 123 -103 346q0 111 26 248z" />
<glyph unicode="H" horiz-adv-x="1044" d="M16 0q-16 29 -16 83q0 59 18 145q35 168 138 511q2 7 14 52.5t20 66.5q9 31 27 91.5t27 91.5t26.5 83.5t36.5 106.5q25 81 67 126.5t85 45.5q50 0 69 -27q41 -50 41 -127q0 -29 -6 -61q-9 -64 -76 -365q13 0 46 3t51 3q89 11 104 15q32 0 55 6q0 27 13 70q41 192 96 378 q22 89 60.5 139t84.5 50q45 0 70 -35q44 -44 44 -134q0 -22 -3 -46q-7 -117 -61 -393q-35 -184 -70 -328t-66.5 -235.5t-59.5 -154t-56 -93t-50 -42.5t-45 -12q-12 0 -20 6q-26 0 -47 35q-21 29 -22 99v9q1 67 15 161q16 100 48 243q-137 -20 -236 -20h-26 q-45 -148 -86 -257t-73 -171.5t-63.5 -99.5t-55 -48.5t-48.5 -11.5h-20q-38 11 -50 41z" />
<glyph unicode="I" horiz-adv-x="1024" d="M4 113q-5 12 -5 24.5t5 24.5q25 36 104 55.5t224 30.5q20 159 121 495q7 36 19 84t15 66q14 46 35.5 125t36.5 125h-8q-25 -1 -47 -1q-207 0 -244 99q-14 25 0 49q24 39 113 61.5t293 53.5q14 0 37 3t32 3q141 23 236 23h16q53 0 87 -24q38 -28 44 -69q4 -11 4 -23 q0 -20 -12 -38q-18 -30 -55 -45q-62 -25 -219 -57h-23q0 -10 -3 -28t-3 -30q-3 -18 -12 -75.5t-19 -109.5t-26 -112q-90 -374 -156 -555q14 8 43 8h78q64 0 103.5 -29.5t51.5 -70.5q1 -7 1 -15q1 -25 -15 -45q-20 -28 -63 -38q-64 -30 -222 -51q-56 -9 -233 -29 q-20 -1 -38 -1q-257 0 -296 116z" />
<glyph unicode="J" d="M-27 371q19 51 60 51q46 0 137 -66q123 -80 166 -80q28 5 46 24.5t28 61.5q18 82 57.5 243t50.5 214q2 8 4 19.5t4 18.5t6 13q20 102 86 334q-30 -1 -57.5 -1t-52.5 1q-49 2 -92 7t-71.5 9.5t-46.5 8.5t-19 4q-51 18 -77 61q-17 27 -17 56q0 17 5 34q12 54 57 80 q32 18 67 18q15 0 30 -3q1 0 13 -1t32 -3t51 -4t69.5 -3.5t86 -3t102 -1.5t117.5 1q91 2 183.5 8t139 9.5t88.5 4.5h5q39 0 57 -8q18 -9 27 -28q11 -24 11 -50q0 -29 -12 -61q-24 -62 -71 -84q-29 -9 -47 -13t-81 -12.5t-177 -19.5q-19 -58 -75 -258.5t-77 -283.5 q-16 -52 -49 -171t-53 -178q0 -19 -14 -43q-16 -90 -52 -165q-69 -129 -202 -140h-14q-91 0 -190 48q-107 52 -179 135q-44 54 -59 110q-8 29 -8 56q0 26 7 51z" />
<glyph unicode="K" horiz-adv-x="1085" d="M-8 135q16 77 155 602q3 12 15 57t20 64q56 228 107 379q26 77 64 120.5t79 43.5q33 0 62 -29q34 -41 34 -125q0 -20 -2 -43q-5 -42 -15 -94.5t-28.5 -140.5t-29.5 -144q0 -3 -2.5 -6.5t-4.5 -5.5l-2 -2q34 27 77.5 75t69 79.5t83 107t69.5 90.5q148 188 183 223 q62 62 114 62q46 0 56 -35q12 -19 12 -46q0 -30 -14 -70q-28 -77 -95 -160q-23 -28 -75 -96.5t-60 -79.5q-29 -37 -78.5 -103t-78.5 -103.5t-61.5 -76.5t-51.5 -55q19 -26 20 -27q10 -10 38 -36.5t52.5 -51t45.5 -49.5q90 -99 130 -196q29 -71 29 -128q0 -21 -4 -41 q-18 -63 -82 -94q-31 -14 -47 -14q-51 0 -93.5 44t-115.5 152q-4 6 -23.5 32t-29.5 42q-24 36 -49.5 68t-48.5 58.5t-31 37.5q-5 -8 -12 -23.5t-8 -17.5q-7 -20 -20.5 -61t-20.5 -62q-16 -45 -22.5 -62.5t-22 -54.5t-25.5 -52.5t-28 -40.5t-35 -35.5t-40.5 -20t-50.5 -10.5 h-6q-56 0 -82 26q-22 30 -22 89q0 19 2 40z" />
<glyph unicode="L" horiz-adv-x="942" d="M18 2v13q0 19 4 47q6 38 16.5 82.5t27 106.5t33.5 124t37.5 145.5t37.5 159.5q20 93 40 203t31.5 181t28 146t32.5 121t41.5 81.5t58.5 49.5q32 10 68 12q3 0 6 1q32 0 66 -13q36 -14 56 -45q16 -21 18 -77q0 -10 1 -21q1 -49 -9 -115q-12 -80 -27.5 -160.5t-40 -179.5 t-42.5 -167.5t-39.5 -149t-26.5 -98.5q-5 -5 -8.5 -19t-5.5 -18q-29 -91 -29 -132q0 -28 13 -34q9 -4 12 -4t21.5 4t37.5 8.5t59 10t87 9.5q70 12 125 12q38 0 69 -6q75 -14 96 -71q7 -23 7 -48q0 -11 -2 -23q-4 -38 -19 -66q-7 -18 -23.5 -28.5t-38.5 -15.5t-59 -8 t-74 -4.5t-94 -5.5t-110 -10q-28 -3 -84 -10t-89 -11t-81 -9t-78 -7t-62 -3h-14q-22 0 -36 2q-18 3 -25 9q-11 9 -13 31z" />
<glyph unicode="M" horiz-adv-x="1843" d="M19 66q-2 10 -2 23q0 19 4 45q6 44 12 79t22.5 95t29 103t34.5 117l6 23q110 395 242 588q162 247 436 247q124 -4 195 -85.5t77 -223.5q269 368 481 385q8 8 23 8h8q147 0 219 -90q42 -76 42 -208t-42 -320q-79 -375 -106 -470q-25 -84 -60 -169q-15 -33 -26 -54.5 t-33 -53t-44 -50.5t-54.5 -33t-69.5 -14q-6 -3 -13.5 -3t-17 1.5t-14.5 1.5q-4 1 -13 2.5t-11.5 2.5t-9 2.5t-9 3t-7 4.5t-7 6t-5.5 7.5t-6 10.5q-19 34 -19 72v11q3 44 28 128v6q68 190 172 574q34 114 34 179t-34 83q-12 4 -24 4q-24 0 -46 -18q-32 -28 -92.5 -147 t-161.5 -366q-56 -138 -133.5 -220.5t-151.5 -88.5q-62 0 -98 45q-44 52 -44 147q0 33 5 72q43 279 43 389v7q-2 108 -65 108q-28 0 -49 -18t-48.5 -80.5t-60.5 -179.5q-46 -171 -78.5 -285t-66 -210.5t-61 -151.5t-60 -94.5t-65 -54.5t-74.5 -17q-32 0 -48 8 q-26 8 -44 23.5t-26.5 41.5t-12.5 52z" />
<glyph unicode="N" horiz-adv-x="1167" d="M6 137q51 233 115 479l8 9q2 13 33 135q6 20 17 57.5t18 59.5q16 61 25 94.5t24.5 86t26 81.5t27 69.5t30.5 62.5t33.5 47.5t39.5 38t44 20.5t51 7q110 -5 159 -137q37 -98 61 -354l6 -78q1 -4 1 -6q3 -17 6 -48t6 -48q4 -38 8 -96t7 -82q39 282 102 514l41 163 q13 55 20.5 84t20 72t23.5 65t25 45q15 22 32 30q12 5 26 6q5 0 11 -1q65 0 82 -40q29 -39 29 -127q0 -98 -36 -256l-6 -48q-31 -133 -51 -218t-47 -197t-47 -183t-44.5 -153t-44.5 -132t-42.5 -95.5t-44 -66.5t-43.5 -24h-13q-94 0 -158 163t-95 480l-7 21q-17 216 -20 240 q-21 -49 -21 -109q-26 -152 -65 -282t-80.5 -217.5t-86 -149.5t-83 -90.5t-70.5 -28.5q-10 0 -22.5 6t-18.5 14q-20 20 -20 59q0 25 8 58z" />
<glyph unicode="O" horiz-adv-x="1208" d="M16 437q4 81 21 174t40 174.5t52.5 168.5t54.5 150.5t52 124.5q28 63 64 119t82 106t102 76q45 22 91 21q10 0 21 -1q42 -7 69.5 -25t37 -38.5t13.5 -40t2 -32.5l-3 -13q8 -1 22.5 -3t56.5 -15t81.5 -32.5t91 -59.5t92 -92t76 -134.5t51.5 -181.5q10 -56 10 -113 q0 -48 -7 -98q-15 -108 -58 -205t-109 -187.5t-149.5 -157t-179.5 -113.5t-200 -57q-34 -3 -67 -4q-71 0 -143 15q-79 21 -134.5 67t-84.5 106q-28 60 -40 140q-8 57 -9 116q0 22 1 45zM365 466q-2 -33 -2 -63q0 -151 56 -189q16 -11 37 -11q61 0 156 98q113 119 180 248 t81 236q5 37 5 70q0 65 -18 121q-27 84 -92 126q-44 29 -72 43q-24 12 -48 12l-8 -1q-28 -2 -46.5 -16.5t-44 -58.5t-47 -94.5t-56.5 -142.5q-68 -183 -81 -378z" />
<glyph unicode="P" horiz-adv-x="1064" d="M-29 72q-1 4 -1 11q0 15 5 43q7 40 23 103.5t32.5 125t41.5 153t41 154.5q35 131 75 306t43 185l9 29l-29 2q-41 9 -41 41q0 23 55 55q125 73 325 136q166 52 306 52q29 0 57 -2q210 -18 234 -194q6 -40 6 -78q0 -106 -46 -196q-62 -122 -206 -207q-40 -23 -77.5 -42.5 t-62.5 -31t-44.5 -19t-28.5 -10.5l-10 -4q-139 -43 -215 -55l-14 -4l-5 -13q-39 -151 -67 -250t-57 -170t-50.5 -107.5t-53.5 -56.5q-34 -21 -60 -25q-21 -3 -56 -3h-18q-97 0 -111 72zM506 924q-1 -8 -1 -14q0 -12 4 -16t14 -4q5 0 12 1q77 12 161 53q98 48 148 128 q29 47 30 87q0 28 -14 53q-15 29 -69 35q-16 1 -31 1q-80 0 -166 -34q-24 -10 -30 -18t-11 -29q-4 -12 -12 -54.5t-19 -103.5t-16 -85z" />
<glyph unicode="Q" horiz-adv-x="1085" d="M26 365q-1 13 -1 25q0 159 53 321q40 123 99 240.5t133 221.5t165 179t184 100q72 14 91 14q18 2 35 2q110 0 176 -69q85 -90 85 -299q0 -110 -24 -254q-33 -204 -113 -385l-8 -15l8 -14q122 -137 122 -263q0 -83 -54 -161q-33 -45 -68 -45q-3 -1 -7 -1q-21 0 -48 20 q-31 22 -59 52t-69 79q-9 11 -13 16l-17 23l-22 -15q-71 -71 -157 -112.5t-167 -47.5q-24 -5 -45 -5t-39 5q-107 11 -174 115q-62 102 -66 273zM350 401q22 -36 68 -45h45q7 0 22.5 3t22.5 3l22 9l-8 22q-1 7 -1 15q0 28 11 61q15 42 43 76q42 61 99 76q7 0 16 -9h6l31 -14 l8 31q8 21 20 66t17 61q18 85 18 149q0 105 -49 154q-31 40 -92 40q-16 0 -35 -3q-71 -21 -138.5 -126t-110.5 -220q-43 -142 -43 -234q0 -74 28 -115z" />
<glyph unicode="R" d="M6 87q-1 7 -2 17q0 14 3 30q5 28 11.5 53.5t20 63.5t25 68.5t28.5 75.5t29 78q35 104 66.5 212t47 172t33.5 143.5t21 91.5q-39 2 -67.5 12.5t-41.5 27t-1.5 40.5t50.5 51q50 35 136.5 76.5t196 83t223.5 65t213 25.5h7q95 1 165 -41q72 -42 92 -129q9 -38 9 -75 q0 -23 -4 -46q-9 -58 -36.5 -110.5t-67 -99t-87 -86t-95.5 -72.5t-93 -58.5t-80 -42.5t-56 -26l-21 -9l262 -408q77 -116 109 -184q26 -56 26 -99q0 -10 -1 -19q-7 -50 -62 -83q-10 -8 -25 -8q-6 -1 -14 1q-24 6 -52 19.5t-61.5 45.5t-68.5 74.5t-74 106t-76 138.5 q-95 196 -174 313q-76 -220 -144 -345t-135 -173q-58 -42 -128 -42q-10 0 -21 1q-27 2 -46 11t-27.5 25.5t-12.5 34.5zM561 848q0 -2 1 -5q1 -4 3.5 -6t7.5 -2t13 3q43 11 159 80q53 31 90.5 56.5t70 56.5t46.5 59q12 23 12 47q0 5 -1 11q-3 30 -29 60q-20 22 -60 28 q-15 2 -30 3q-26 -1 -56 -7q-46 -10 -83.5 -21.5t-67.5 -24.5q-10 -4 -16 -13t-7 -17v-7l-49 -283q0 -1 -0.5 -2.5t-1.5 -5.5q-2 -7 -2 -10z" />
<glyph unicode="S" horiz-adv-x="1085" d="M-10 152q-6 20 -6 38q0 45 39 76q33 23 63 23q9 0 17.5 -1.5t19.5 -6t16.5 -7t20 -9.5t18.5 -9q34 -18 53.5 -27t59.5 -19.5t82 -10.5h15q88 1 170 33q88 36 134 83q33 33 33 60q0 39 -90 39q-73 0 -209 -31q-16 -2 -43 -10q-103 -21 -135 -21q-73 0 -150 39 q-54 28 -69 92q-6 26 -6 57q-1 83 45 198q62 157 194 327q145 188 347.5 300t351.5 112q41 0 88 -15q23 -9 39 -24t24 -39t12 -47q3 -14 3 -32q0 -12 -1 -28q-3 -36 -6.5 -63t-13 -71t-16.5 -71t-19 -75q-8 -40 -14 -58q-14 -59 -37 -104t-45.5 -68t-48.5 -37.5t-43.5 -18 t-34.5 -3.5q-19 0 -51 8q-45 15 -45 62v6q2 35 39 155q4 15 20.5 72.5t26.5 97.5q12 44 12 66q0 16 -6 22q0 2 -4 2q-24 0 -79.5 -40t-127.5 -115q-156 -162 -246 -330q-37 -65 -37 -96q0 -10 4 -17q11 -16 62 -16q52 0 162 18q21 3 66.5 10.5t70.5 10.5q21 2 41 2 q111 0 155 -59q31 -40 30 -107q0 -77 -40 -188q-49 -132 -206 -219.5t-343 -87.5q-31 0 -47 2q-128 8 -211 58t-104 112z" />
<glyph unicode="T" horiz-adv-x="1056" d="M70 1253q4 26 31 43.5t67 20.5h4q145 0 465 53q95 15 173.5 32t115.5 27.5t114 34.5q24 7 43 15q37 12 68 12q42 0 72 -15.5t41 -41.5q7 -16 7 -33q0 -39 -42 -78q-72 -67 -191 -117q-107 -42 -217 -63q-70 -165 -155.5 -437.5t-116.5 -406.5q-12 -45 -22.5 -79 t-29.5 -77t-39 -70.5t-49 -47.5t-63 -21q-22 0 -49 10q-34 12 -56.5 34.5t-31.5 56t-11 67.5q-1 9 -1 20q0 28 5 64q7 50 15.5 89.5t22.5 98.5q50 202 256 656q-18 -1 -37 -1q-181 0 -322 64q-68 29 -68 77q0 6 1 13z" />
<glyph unicode="U" horiz-adv-x="1187" d="M35 580q86 393 190.5 586.5t235.5 205.5q16 2 29 2q52 0 77 -33q15 -24 15 -61q0 -33 -13 -85q-14 -55 -27.5 -97.5t-41.5 -122.5q-3 -8 -20 -57.5t-21.5 -63.5t-18.5 -57t-20 -65.5t-16 -59t-16 -68t-11 -63.5q-4 -32 -5 -60q0 -88 44 -131q45 -45 121 -45 q61 12 119 61.5t96 143.5q24 69 82 344q11 58 16.5 86t17 84.5t19 87t20 79.5t23.5 78t26 67.5t30.5 61.5t33.5 47t38.5 37t43.5 19q26 7 47 7q45 0 74 -29q42 -50 42 -182q0 -182 -79 -519q-80 -329 -282.5 -552t-457.5 -257h-8q-36 -3 -70 -3q-195 0 -288 110 q-76 90 -76 258q0 107 31 246z" />
<glyph unicode="V" horiz-adv-x="1064" d="M49 641q22 373 101.5 570.5t211.5 201.5q49 0 72 -35q44 -59 44 -171q0 -91 -29 -216q-30 -158 -46.5 -252t-26.5 -177q-9 -70 -9 -111v-14q2 -42 16 -58q0 -14 23 -14q66 4 126.5 107t157.5 345l80 203q36 92 57 143.5t48.5 112.5t47.5 92.5t45 63t50.5 47t56.5 22.5 q22 5 41 5q53 0 76 -42q13 -21 13 -59q0 -184 -304 -778q-164 -327 -316.5 -486t-310.5 -170q-14 -2 -28 -2q-66 0 -111 45q-93 103 -93 429q0 90 7 198z" />
<glyph unicode="W" horiz-adv-x="1368" d="M16 57q1 5 45 181q4 17 24.5 88.5t31.5 119.5q93 367 123 748q4 36 4 49q6 54 30 74t80 26q58 5 62 5q66 0 92 -56q4 -10 4 -32q0 -63 -33 -224q-45 -218 -92 -393l-12 -51l28 43l34 47q34 47 87.5 120t93.5 126l19 24q19 25 25.5 33.5t24.5 25.5t33 24t41 14.5t58 9.5 q11 1 20 1q36 0 54 -18q21 -22 21 -100q0 -13 -1 -27v-61q2 -121 2 -326v-84l19 80q0 5 22 94t63.5 233.5t80.5 252.5q33 92 68 159t66 105t66 60.5t62 29t59 6.5h9q19 0 24 -10q5 -6 5 -21q0 -61 -83 -267q-2 -7 -4 -11q-88 -219 -129 -346q-50 -155 -123 -477 q-21 -103 -47 -201q-26 -102 -135 -108h-10q-37 0 -76 22q-45 26 -88.5 112.5t-63.5 174.5q-12 50 -20.5 121.5t-11 111t-2.5 47.5v27l-17 -21q0 -1 -18 -26t-54.5 -77t-68.5 -97q-48 -67 -156 -250q-101 -168 -119 -188q-15 -21 -59 -21q-39 0 -81 17t-62 40q-15 18 -15 35 v6z" />
<glyph unicode="X" horiz-adv-x="1187" d="M-18 150q10 34 36 59q93 93 148 139q22 23 82 82.5t103 104.5t87 96q2 1 11.5 11.5t17.5 14.5q-95 225 -136 417q-20 92 -20 164q0 77 23 130q37 63 92 78q6 6 35 6q25 0 46 -8.5t40 -29.5t33.5 -42t30 -60.5t26 -69.5t24.5 -84.5t22.5 -90t23.5 -100.5q6 -6 6 -27 q99 111 156 173t124 131t108 102t81 55t71 22q35 0 64 -41q3 -10 3 -23q0 -57 -58 -159q-53 -95 -162 -248q-183 -237 -281 -350q96 -192 154 -289q7 -11 69 -139q27 -52 27 -91q0 -25 -12 -44q-30 -41 -76 -41q-66 0 -121 55q-141 121 -260 324q-55 -53 -125.5 -123.5 t-104 -103t-74 -64.5t-75.5 -47q-39 -14 -78 -14q-13 0 -25 1q-52 6 -90.5 24.5t-45.5 37.5q-5 14 -5 30q0 15 5 32z" />
<glyph unicode="Y" horiz-adv-x="860" d="M47 1231q-13 38 -13 70q0 53 34 92q34 34 73 34q121 0 183 -202q51 -206 114 -346q14 26 40 73.5t36 67.5q12 14 27 49q86 159 125 213q96 133 216 149q18 3 38 3q56 0 81 -35q11 -19 11 -44q0 -38 -24 -91q-40 -87 -171 -297q-15 -26 -77.5 -134t-96.5 -171 q-69 -119 -164 -310q-31 -67 -48.5 -103.5t-42.5 -85t-43 -74t-40.5 -51t-44 -36t-45.5 -10.5q-6 0 -14.5 2.5t-15 6t-19 10t-19.5 9.5q-39 29 -43 88v12q0 55 28 136q31 89 78 187t122 233q-108 118 -174 245.5t-111 309.5z" />
<glyph unicode="Z" horiz-adv-x="1024" d="M-14 154q-1 7 -1 15q0 29 14 68q18 50 60.5 116t83.5 123.5t109 140t108 129.5t109 126q168 189 168 209q0 25 -8 29q-10 10 -41 10q-52 0 -101 -10q-148 -20 -223 -20q-56 0 -91.5 31t-47.5 91q-6 18 -6 37q0 33 18 68q37 58 115 76q48 13 159.5 23.5t225.5 10.5 q174 0 276 -30t119 -84q6 -20 6 -44q0 -190 -376 -638q-34 -43 -37 -47q-68 -90 -156 -195q-51 -65 -49 -65v-5l72 13q228 41 317 41q86 0 143 -31q29 -21 45 -56q13 -29 13 -62v-13q-12 -97 -115 -145q-48 -16 -195 -35t-284 -19q-68 0 -130.5 5.5t-132 19t-115 44 t-52.5 73.5z" />
<glyph unicode="a" horiz-adv-x="1032" d="M40 297q16 85 61.5 182t111 191t145.5 182q63 74 135 122t135 65.5t123 18.5h9q54 0 93 -10q42 -12 69 -30q52 -34 80 -88q15 -29 16 -62q0 -29 -12 -61q-99 -347 -129 -694q-2 -28 -0.5 -56.5t4.5 -46.5t5.5 -36.5t4 -28.5t-1 -21t-9.5 -14t-20 -8q-9 -4 -23 -4 q-5 0 -11 1q-21 2 -52 1q-52 3 -85.5 33.5t-44 72t-13.5 82.5q-1 18 -1 33q0 20 2 37l3 28q-5 -6 -14.5 -16.5t-40.5 -38t-62.5 -51t-78.5 -47t-92 -33.5q-29 -7 -61 -7q-18 0 -38 2q-54 6 -103 34q-69 39 -95 111q-16 44 -16 93q0 31 6 64zM367 352q11 -16 41 -20 q8 -1 16 -1q22 0 50 7q36 10 76 40.5t66 76.5q49 75 72 135q20 53 20 87v9q-3 36 -26 55q-17 12 -38 12q-30 1 -68 -23q-64 -40 -125 -136q-98 -137 -98 -203q0 -25 14 -39z" />
<glyph unicode="b" horiz-adv-x="1128" d="M-9 43q-7 15 -7 36q0 42 28 107q106 260 224 715q54 193 88.5 372.5t42.5 250t24 229.5q7 51 30 86.5t53.5 51t65.5 17.5h7q31 0 59 -12q31 -12 54 -37.5t30 -58.5q8 -31 8 -81q0 -70 -15 -178q-25 -185 -61.5 -337t-48.5 -155q55 6 117 7q6 0 11 1q56 0 116 -13 q66 -14 121.5 -38t99 -68.5t60.5 -103.5q16 -54 18 -124q0 -8 1 -16q1 -64 -11 -132q-12 -78 -43.5 -158.5t-76 -151t-111 -129t-146.5 -90.5q-71 -27 -143 -35q-32 -3 -60 -3q-34 0 -63 5q-52 9 -93.5 22t-63.5 25l-21 12l-73 -29q-85 -29 -138 -29q-64 0 -83 42zM391 311 q-1 -2 -1 -4q0 -10 23 -18q29 -10 65 -10q38 0 85 11q151 36 223 168q26 47 39 105q4 15 6 39q1 14 1 31v27q-2 34 -18.5 63t-47.5 43q-33 15 -75 16h-6q-39 0 -75 -11q-40 -12 -72 -41.5t-42 -72.5q-18 -57 -48.5 -160.5t-56.5 -185.5z" />
<glyph unicode="c" horiz-adv-x="860" d="M0 276q0 6 -1 12q-1 74 17 154q18 86 51 173t81 163.5t102.5 137.5t121 97t132.5 38q13 0 26 1q180 0 258 -94q63 -76 63 -198q0 -40 -7 -84q-14 -68 -40 -100.5t-65 -36.5q-13 -1 -28 -1q-30 0 -66 5q-25 0 -44 16t-26 37q-13 36 -15 85q-1 19 0 35q0 26 2 46l3 31 q-93 -34 -162 -121.5t-95 -185.5q-16 -58 -17 -109q0 -35 8 -66q10 -47 40 -72q31 -25 73 -26q7 0 14 -1q36 0 68 6q40 8 81 24q21 5 32.5 7.5t30.5 5t31 -0.5t26 -10t23.5 -21.5t16.5 -36.5q9 -23 9 -44q0 -64 -89 -105q-90 -61 -229 -69q-21 -1 -41 -1q-115 1 -215 39 q-117 46 -147 127q-21 62 -23 143z" />
<glyph unicode="d" horiz-adv-x="1165" d="M28 330q22 120 81.5 242t132.5 224.5t141 164.5q62 57 135 81q57 19 106 19q13 1 26 -1q59 -6 109.5 -21.5t78.5 -32.5l28 -17l66 381q11 54 22.5 102.5t28.5 108t35.5 107.5t44 94t52.5 75t61 43q22 9 45 10q13 0 26 -3q41 -15 51 -24q30 -27 30 -122q0 -27 -2 -59 q-11 -129 -60 -379q-112 -488 -155.5 -749.5t-49.5 -448.5q-11 -146 -20 -172q-11 -32 -42 -32h-2q-19 2 -112 28q-41 10 -67 34.5t-34 51t-14.5 54.5t-8.5 45t-16 21.5t-36 -14.5q-24 -22 -76 -48.5t-119 -52t-141 -38.5q-66 -12 -127 -12h-14q-66 2 -119.5 32.5 t-75.5 90.5q-18 56 -18 120q0 47 9 97zM362 317q26 -32 68 -32q29 0 66 15q91 37 157 130q5 10 14 26t14 24.5t11.5 21t10.5 20t7.5 15.5t5 14t1.5 10q16 32 27.5 69t15.5 78q1 6 0 12q0 32 -17 44q-18 24 -44 28q-7 1 -14 1q-19 1 -37 -7q-24 -10 -51 -30.5t-45 -38.5 t-32 -35q-82 -104 -132 -214q-34 -74 -34 -116q0 -21 8 -35z" />
<glyph unicode="e" horiz-adv-x="1019" d="M37 406q3 124 33.5 230.5t77 179.5t105.5 127.5t118 83.5t116 38q29 5 61 6q52 1 110 -15q92 -24 168.5 -75t126.5 -135q46 -78 46 -168v-14q-4 -71 -40 -120t-91 -70q-55 -22 -121 -30q-40 -5 -80 -5q-26 1 -51 3q-65 6 -118.5 13t-87.5 15l-33 9q-3 -4 -7.5 -12.5 t-14 -33.5t-14 -49.5t-1.5 -59.5t18 -66q10 -20 58 -19q1 -1 2 -1q50 0 117 12q67 10 136 20q45 6 86 6q22 0 42 -1q59 -5 82 -33q22 -35 22 -69q1 -17 -5 -33q-16 -50 -74.5 -91.5t-135.5 -54.5q-39 -8 -89 -10q-15 -1 -31 0q-38 0 -84 4q-65 6 -127 20.5t-122.5 46 t-104.5 76.5t-70 115q-23 63 -23 141v19zM422 698q96 -34 158 -36q3 0 6 -1q59 0 102 27q34 22 47 50q8 17 8 33q1 10 -3 20q-8 25 -27 45.5t-49 30.5q-20 7 -39 7q-10 0 -19 -2q-33 -5 -64.5 -25t-52 -44.5t-36.5 -48.5t-23 -40z" />
<glyph unicode="f" horiz-adv-x="860" d="M36 48v7q0 21 9 51q10 36 23.5 71t37.5 93q4 17 11 39.5t18 54.5t17 52q25 67 108 354q-124 13 -179 64q-39 35 -39 84q0 20 7 43q13 34 79 53.5t189 34.5q8 65 32 216.5t34 233.5q14 130 37 217t56 133t70 64t87 18q17 0 145 -18q82 -20 158.5 -64t126.5 -93.5t77 -98.5 q22 -39 22 -68q0 -7 -1 -14q-4 -27 -10 -43.5t-17 -23t-18.5 -8t-21.5 -1.5q-86 0 -222 96q-34 19 -67 19q-25 0 -45.5 -10t-37 -34.5t-29.5 -49t-24 -69.5t-18 -78.5t-15 -95t-12 -99t-12 -109.5q84 -7 147 -22t105 -47q38 -28 38 -67q0 -4 -1 -9q-6 -61 -96.5 -100 t-229.5 -54q-9 -35 -23 -107.5t-24 -103.5l-12 -39q-32 -114 -48.5 -168.5t-43.5 -130t-49 -108t-56 -68t-74 -47.5t-93 -12q-91 0 -103 26q-11 14 -13 36z" />
<glyph unicode="g" horiz-adv-x="1021" d="M-54 -458q-3 20 -3 36q0 24 8 39q18 25 35 25q28 0 67 -25q111 -59 205 -59q126 0 229 245q24 54 43 117t27 100t8 48t-8.5 22.5t-15.5 11.5q-155 14 -248.5 36t-151 64t-75.5 102q-14 46 -14 112q0 21 1 45q6 90 61.5 187.5t151.5 187.5t194.5 139t180.5 49q52 0 70 -8 q148 -51 223 -164q39 -79 46 -186q2 -27 2 -56q0 -83 -16 -175q-22 -124 -49.5 -228t-70.5 -232v-8q-25 -94 -40 -145.5t-39.5 -127t-44.5 -117.5t-50 -96.5t-61.5 -85t-73 -61.5t-91.5 -47t-110 -22h-53q-62 0 -116.5 19t-90 48.5t-57.5 55.5t-33 49q-31 55 -40 105z M379 444q6 -25 38.5 -38t78.5 -13q98 0 120 60q42 98 62 179q11 48 11 72q0 16 -5 21q-14 18 -33 18q-37 0 -94.5 -44t-110.5 -109q-37 -42 -55 -84q-13 -32 -13 -51q0 -6 1 -11z" />
<glyph unicode="h" horiz-adv-x="1118" d="M-2 49q0 32 47 164q137 372 223 700q74 302 113 611q11 47 25 134t22 126q7 49 33.5 76.5t62.5 27.5q80 0 151.5 -75t78.5 -175q0 -57 -8.5 -133t-22.5 -155t-26 -138.5t-25.5 -121t-14.5 -64.5q-2 -13 5.5 -14.5t26 5t42 14.5t61.5 14q29 4 59 5q10 0 19 -1 q81 0 133 -44q53 -45 75 -135q12 -50 12 -118q0 -55 -8 -122q-18 -150 -78 -349q0 -12 -2.5 -23.5t-8.5 -29t-8 -23.5q-17 -65 -29.5 -101t-33.5 -77t-46.5 -60.5t-65.5 -31.5q-32 -10 -72 -10q-10 0 -21 1q-88 0 -88 39q-15 17 -17 47q-1 7 0 14q0 26 7 60q9 44 25.5 98 t43.5 125q58 185 58 294q0 78 -29 118q-7 13 -25.5 22t-34.5 9q-41 0 -76 -29t-57 -80q-11 -32 -31 -100.5t-24 -81.5q-36 -100 -58.5 -158.5t-54.5 -126.5t-63 -107t-66 -57q-29 -18 -96 -18q-53 0 -89.5 14t-43.5 41z" />
<glyph unicode="i" horiz-adv-x="593" d="M74 174q-4 -33 -3 -61q-1 -45 9 -77q16 -50 48 -69.5t93 -27.5h7q56 0 114 129q64 145 152 532q16 67 20 86q22 74 28 130q3 26 4 48q0 25 -4 43q-8 35 -30 57t-50.5 31.5t-70.5 12.5q-14 2 -27 2q-22 0 -42 -6q-30 -10 -52.5 -38t-39.5 -65t-32 -95t-27 -117.5 t-27 -141.5q-17 -93 -27 -144q-33 -143 -43 -229zM334 1376q6 25 14 43t24 34t40 23q21 6 52 7q4 0 10 -1q38 -1 87 -12q69 -13 103 -75q24 -44 24 -97q0 -22 -4 -45q-6 -37 -29 -59q-23 -24 -57 -30q-27 -5 -55 -5q-7 1 -13 1q-34 2 -73 9q-37 3 -64.5 26t-40.5 56 q-14 33 -18 66q-2 17 -2 33q0 14 2 26z" />
<glyph unicode="j" horiz-adv-x="634" d="M-222 -158q-2 17 -2 33q0 30 8 53q11 37 30 47q17 11 32 -1t28 -35.5t27.5 -48t36 -39t46.5 -7.5q47 11 115 186.5t121.5 383t82.5 372.5q43 239 70 301q23 53 76 53q9 0 18 -1q39 -6 67 -18t45 -33t27 -42t10 -56.5t-2.5 -66.5t-13 -81.5t-20 -90.5t-24.5 -105.5 t-26 -115.5q-22 -126 -48.5 -240.5t-71.5 -247t-96.5 -226.5t-125.5 -154q-66 -54 -140 -54q-8 0 -17 1q-84 9 -142 47.5t-81.5 87t-29.5 98.5zM367 1411q4 26 24 41.5t63 18.5h9q40 0 98 -21q69 -26 88 -75q7 -19 7 -36q0 -26 -18 -48q-25 -28 -66 -28q-9 0 -19 1 q-72 17 -129 63.5t-57 83.5z" />
<glyph unicode="k" horiz-adv-x="901" d="M-22 82q4 -46 36 -66t72 -24q10 -1 20 -1q30 0 60 8q39 11 59 30q48 41 87 113t54 124l15 51q8 -20 23.5 -54t68.5 -124.5t113 -163.5q28 -34 70 -38q6 -1 13 -1q33 0 54 19q44 34 44 81q0 19 -7 40q-21 59 -64.5 149.5t-76.5 151.5l-33 61q6 4 17.5 10.5t46.5 29.5 t69.5 48t81 64t86.5 80q68 75 95 151q19 54 19 96q0 17 -3 31q-11 52 -48 76q-42 25 -75 25q-11 -1 -21 -3q-40 -10 -86 -67q-101 -109 -171.5 -176.5t-90.5 -80.5l-21 -13q123 443 164 731q21 110 25 178q1 11 0 22q0 54 -14 90q-18 44 -51 64.5t-93 34.5q-17 2 -32 2 q-11 0 -22 -1q-24 -3 -43.5 -19.5t-35.5 -53t-30 -100.5t-27 -162q-35 -300 -134 -707.5t-186 -586.5q-28 -64 -28 -107q-1 -6 0 -12z" />
<glyph unicode="l" horiz-adv-x="583" d="M61 29q-26 40 -26 103.5t26 150.5q107 443 338 1214q35 135 91 213t118 78q6 0 15 -4t12 -4q82 -28 82 -163q0 -62 -17 -147q-1 -5 -23.5 -106t-33.5 -151t-37 -162.5t-46.5 -196.5t-48 -193.5t-56 -213t-56.5 -199.5q-21 -71 -46 -123.5t-47 -81t-46.5 -45t-42 -21 t-37.5 -4.5q-25 0 -47 11q-21 6 -31 10t-21 12.5t-20 22.5z" />
<glyph unicode="m" horiz-adv-x="1454" d="M30 166q4 48 12 97t23.5 149.5t26.5 197.5q4 31 9 90q19 178 37 228q22 60 67 60q9 0 20 -3q36 -8 60.5 -39.5t31.5 -58.5l7 -27q3 8 9 22t28.5 49t49.5 61t73 46q42 19 89 19h9q55 -3 101 -34.5t72 -74t44.5 -85t24.5 -71.5l7 -30l7.5 12.5t20.5 31.5t33 45t43.5 52.5 t51.5 52.5t59 46t64 34q30 8 68 14q9 1 19 1q28 0 52 -13q65 -23 105 -77q40 -53 54 -123q11 -54 11 -126q0 -20 -1 -40q-4 -96 -19.5 -189.5t-42.5 -210.5q-19 -72 -33 -117.5t-30.5 -85.5t-32.5 -60t-38 -32q-19 -10 -40 -10h-7q-25 2 -59 13q-42 12 -56 65q-8 30 -7 65 q1 28 5 60q10 72 26 154t34 154q20 72 22 126v13q0 44 -16 57q-18 15 -37 15q-61 0 -122 -168q-21 -60 -80 -275q-5 -15 -8 -27q-25 -83 -93 -111q-35 -14 -67 -14q-31 0 -59 14q-58 28 -58 85q1 43 5.5 103.5t7.5 105t5 95.5q1 26 1.5 47.5t-1.5 39.5q-2 36 -9 67 t-22.5 47.5t-39.5 18.5q-33 0 -62.5 -44t-52.5 -118.5t-42 -150.5t-39.5 -161.5t-35.5 -129.5q-19 -53 -57 -79q-37 -26 -75 -27l-1 1q-40 0 -73.5 11.5t-51.5 29.5q-19 19 -25 44q-4 15 -4 38q0 15 2 35z" />
<glyph unicode="n" horiz-adv-x="1075" d="M18 186q104 297 170 559q35 178 60 235q37 83 100 83h8q27 0 51 -18q28 -21 46.5 -54.5t29.5 -62.5t15 -49q0 -13 18 6l9 9q11 12 18 19q107 81 215 81q12 0 24 -1q47 0 107 -26q40 -20 69 -48t43.5 -64t22.5 -72q5 -23 4 -53q0 -16 -1 -32q-4 -50 -10 -91.5t-21.5 -101 t-27.5 -102.5t-31.5 -109t-31.5 -108q-32 -131 -63 -181t-78 -50q-62 0 -107 27q-18 9 -29.5 24.5t-14.5 40.5t-4 45t6 57.5t11 58t15.5 66.5t15.5 64q6 21 16 55t14.5 50t11.5 41.5t10 38.5t6.5 31.5t4.5 29.5t1 23t-2 22q-5 42 -34 61t-62 19q-48 0 -81.5 -25t-71.5 -95.5 t-87 -207.5q-6 -16 -25.5 -66t-30 -75.5t-27.5 -62.5t-32 -62q-27 -59 -56 -83t-69 -24q-83 13 -115 64q-19 31 -18 66q0 23 8 48z" />
<glyph unicode="o" horiz-adv-x="1019" d="M36 359v19q0 98 27 210q57 249 225 379q120 92 260 93q57 0 118 -16q51 -11 99 -40t92 -80t75 -117t46 -158q10 -60 10 -126q0 -35 -3 -72q-8 -106 -51 -192.5t-107.5 -143t-145.5 -92.5q-81 -37 -167 -47q-42 -5 -82 -5q-43 0 -86 6q-104 14 -174 65t-101.5 131 t-34.5 186zM322 388v-14q0 -87 43 -114q24 -14 50 -14q43 0 91 36q80 58 141 187q49 87 51 193q0 5 1 9q0 99 -52 126q-17 9 -36 9q-45 0 -99 -45q-78 -64 -139 -192q-47 -83 -51 -181z" />
<glyph unicode="p" horiz-adv-x="1189" d="M-206 -844q0 31 10 76q9 46 32 131q3 16 16.5 59t35 125t52.5 216t79.5 386t105.5 582q11 85 28 146t36 96t46 56t51.5 29t59.5 11q30 0 49 -12t24.5 -28.5t7 -33.5t-0.5 -29l-2 -12q5 3 14 9t40 20.5t66.5 24.5t91.5 18q40 5 82 5q17 0 34 -1q80 0 153.5 -34 t127.5 -94.5t86 -136.5q30 -72 30 -158v-11q-2 -92 -41 -182q-48 -113 -117 -197.5t-143 -129.5t-143.5 -66t-135.5 -21q-180 0 -231 68q-1 -4 -14 -76t-22.5 -122t-29 -139.5t-38.5 -158t-45.5 -145.5t-53.5 -132q-42 -83 -95 -133t-100 -64q-29 -9 -56 -9q-19 0 -38 4 q-26 4 -38 15q-14 12 -14 48zM448 340q6 -22 23 -33q22 -18 49 -18q91 0 193 114q45 59 65 131q15 56 15 103q0 14 -1 27q-6 58 -30 88q-39 39 -88 39q-65 0 -105.5 -32.5t-66.5 -131.5q-24 -89 -33 -127t-17 -88q-6 -30 -6 -50q0 -13 2 -22z" />
<glyph unicode="q" horiz-adv-x="1003" d="M12 276q-4 32 -4 64q0 83 24 164q34 114 109 211q111 150 278 234.5t308 84.5h55q42 -7 89 -29.5t67 -52.5q54 -79 54 -190q0 -91 -36 -203q-26 -113 -110.5 -388.5t-100.5 -305.5v-10q-33 -69 -47 -119l-8 -8l-37 -103q64 66 119 111q68 61 140 102q63 36 104 36 q6 0 12 -1q66 -11 66 -129q0 -12 -4 -22.5t-6.5 -14.5t-14 -14.5t-12.5 -11.5q-312 -264 -467 -412l-29 -27q-48 -50 -80 -75t-57 -25q-154 0 -172 72q-2 12 -2 27q0 101 102 366q16 47 61.5 175.5t75.5 219.5l19 82l-66 -29q-90 -37 -182 -37q-233 0 -248 258zM334 293 q17 -20 40 -20q40 0 97 55q85 82 148 219q49 106 49 172q0 27 -8 48q-8 20 -25 30q-14 13 -32 13q-43 0 -110 -74q-95 -104 -151 -248q-30 -77 -30 -128q0 -43 22 -67z" />
<glyph unicode="r" horiz-adv-x="1007" d="M43 121q0 18 33 113.5t67 209.5q33 114 53 272q8 65 9 127q0 89 -17 173q-3 15 -3 25t2.5 25t13.5 23q11 7 29 13q11 3 27 4q11 0 25 -2q34 -4 80 -17q41 -12 75.5 -59.5t48.5 -89.5l14 -41q1 0 9 13.5t21.5 33.5t32.5 43t47 41q29 16 62 26q19 5 42 6q17 0 37 -3 q46 -7 97 -33q62 -34 100 -73t49 -73q8 -26 8 -50q-1 -8 -1 -15q-4 -31 -17 -52t-31 -30q-31 -12 -73 -12q-7 1 -15 1q-50 2 -94 12q-36 8 -75 9q-9 -1 -19 -1q-50 -2 -88 -27q-34 -24 -63.5 -101.5t-48.5 -161.5t-45.5 -176.5t-53.5 -136.5q-55 -96 -105 -128 q-41 -26 -104 -26q-14 0 -29 1q-100 0 -100 137z" />
<glyph unicode="s" horiz-adv-x="868" d="M24 234q2 26 13 40q23 26 55 32l12 2q27 0 62 -18q43 -22 88 -77q37 -41 89 -51q20 -4 38 -4q31 0 57 10q42 18 60 53q7 24 -19.5 35.5t-113 34t-162.5 53.5q-92 38 -120 124q-12 37 -12 79q1 54 21 114q36 107 127 211q67 77 129 118t123 49q23 3 45 3q36 0 72 -8 q56 -14 127 -49q40 -22 60.5 -63t20.5 -92t-7.5 -97t-22.5 -94q-34 -81 -51 -103q-28 -33 -81 -33q-21 0 -45 5q-15 3 -32 8q-52 18 -70 53q-10 19 -5 46.5t14.5 59.5t18.5 59.5t5.5 47t-22.5 21.5h-4q-25 -1 -59 -37q-37 -40 -62 -92q-19 -40 -19 -83q0 -15 2 -29 q8 -58 64 -89q35 -19 82 -36t81.5 -27.5t70.5 -27.5t59 -36.5t38 -53t15 -79.5q-4 -87 -73 -146.5t-174 -82.5q-78 -17 -167 -17q-31 0 -63 2q-56 4 -102.5 25t-76 50.5t-50.5 63.5q-21 36 -29 68q-7 27 -7 50v8z" />
<glyph unicode="t" horiz-adv-x="903" d="M33 991q13 82 286 82q91 349 109 475q13 82 27.5 134.5t31 82t36.5 41.5t45 14q11 1 23 0q16 0 34 -1q35 -3 62 -11t46.5 -23.5t32 -34t18 -48t6.5 -59.5v-10q0 -27 -4 -65q-6 -44 -13.5 -86.5t-21.5 -102.5t-28 -116l-33 -132q-7 -26 -10 -39q-5 -5 -9.5 -19t-8.5 -18 q55 -4 97.5 -11t81.5 -20.5t60 -35.5t21 -52q0 -89 -322 -107q-40 -135 -112.5 -334.5t-86.5 -248.5q-2 -16 -2.5 -27.5t5 -22.5t10.5 -17.5t14.5 -13.5t16 -11t15.5 -9t13 -8q25 -9 45.5 -23t30 -32t4 -35t-37 -33.5t-87.5 -27.5q-77 -13 -138 -13q-91 0 -146 29 q-84 45 -84 151q0 10 1 21q2 23 12.5 67t30.5 111.5t40.5 132.5t51 163.5t52.5 172.5q-117 19 -169 63q-47 40 -47 94q0 6 1 13z" />
<glyph unicode="u" horiz-adv-x="1017" d="M28 298q0 3 -1 6q0 35 6 83q6 52 12.5 94t17.5 103q37 209 109 333q67 114 156 114q8 0 16 -1q88 -11 100 -67q3 -14 3 -31q0 -47 -24 -112q-5 -18 -7 -27q-10 -43 -29 -114t-30 -114t-19 -91q-5 -27 -5 -48q0 -14 3 -26q6 -26 26 -35q15 -6 30 -6q71 0 131 137 q26 59 83 247q11 36 19 60q9 28 15 45t14.5 39t15 34.5t16 28.5t18 24t20.5 17.5t24.5 13.5t28.5 7t34.5 3t40.5 -3q51 -5 81 -19.5t39 -34.5q8 -20 9 -46v-9q0 -22 -4 -45q-2 -8 -2 -12q-3 -15 -23 -87t-39.5 -147t-40.5 -179q-22 -104 -26 -183q-1 -25 -1 -49 q0 -54 7 -109q2 -16 5.5 -35.5t6.5 -33.5t5.5 -30.5t2 -26t-4.5 -21t-13.5 -14.5t-24.5 -7q-6 -2 -13 -2q-11 0 -25 4q-46 4 -86 25t-63 47.5t-39.5 52t-22.5 43.5l-7 17q-3 -3 -9 -8t-25.5 -18.5t-41.5 -25t-55.5 -24t-67.5 -18.5q-32 -6 -73 -6q-3 1 -7 1q-44 0 -89 11 q-40 11 -71 29.5t-51 45t-33 55t-17.5 69t-4.5 76.5z" />
<glyph unicode="v" horiz-adv-x="886" d="M70 32q19 -11 57 -20q48 -15 94 -15t68 7l22 8q152 244 295 455q47 76 105 143.5t95.5 100.5t91.5 76.5t63 50.5q23 24 27 50q1 4 1 8q1 21 -13 44q-16 27 -36.5 47.5t-54.5 50.5q-22 17 -50 19h-10q-23 0 -45 -7q-26 -9 -61.5 -31t-63 -43.5t-65.5 -53.5 q-49 -41 -117 -123t-111 -143l-43 -62q3 32 7 80q4 49 10 141q3 53 4 83q0 22 -2 32q-11 81 -170 108q-8 1 -16 1q-46 0 -68 -26q-26 -30 -25 -75q12 -172 12.5 -314.5t-12.5 -256.5q-28 -199 -28 -250q0 -62 39 -85z" />
<glyph unicode="w" horiz-adv-x="1488" d="M34 134q-3 17 -2 38q0 25 4 55q6 56 12.5 97.5t26 120.5t28.5 112t32 117q39 148 43 176q31 103 81 153t95 50t62 -17q48 -41 59 -91q3 -15 3 -33q0 -41 -17 -97q-4 -28 -11.5 -55t-23.5 -71.5t-18 -49.5q-18 -68 -26.5 -101t-13.5 -61.5t-3.5 -40t8.5 -18.5 q0 -6 5.5 -11.5t12.5 -5.5h8q22 0 40.5 9.5t39.5 36.5t35 48.5t43 71.5q8 20 19.5 42.5t27.5 52t25 47.5q83 125 168 125q60 0 88 -54q10 -10 17 -28.5t11 -46t6 -50t4.5 -59t4.5 -53.5q0 -103 12.5 -155t48.5 -58h10q21 0 36 31q6 13 21 55l5 12q5 12 16.5 49t27.5 80.5 t36 89.5q11 39 26 62q70 167 99 216q56 93 120 93q3 0 14.5 -4t20.5 -4q11 -6 37 -27q12 -33 12 -83q0 -118 -65 -333q-28 -88 -55 -160t-68.5 -156t-85 -141t-102 -95t-121.5 -38h-19q-43 2 -83 26t-67 53t-54.5 73.5t-40 70t-27.5 60.5q-3 2 -6 5.5t-5 5.5t-6 3.5t-10 1.5 h-18l-8 -8q-80 -107 -203 -211q-80 -80 -186 -80q-53 0 -103 26t-82 71q-15 24 -21 60z" />
<glyph unicode="x" horiz-adv-x="962" d="M-31 156q-2 -6 -2 -13q0 -23 23 -51q30 -36 90 -58q34 -12 70 -12q26 0 53 7q58 22 252 172q13 -20 71 -82q104 -122 188 -137q10 -2 19 -2q38 0 48 35q3 10 3 22q0 54 -62 134q-19 24 -42 48q-66 85 -90 107q117 112 212 213.5t122 146.5q37 66 52 138q8 37 8 71 q0 33 -8 64q-14 63 -61 88q-18 9 -36 10.5t-37.5 -6.5t-37.5 -18.5t-41.5 -33.5t-43 -43.5t-48 -55.5t-51 -63t-58 -73t-62.5 -78q0 82 -8 117q-7 52 -21.5 97.5t-37.5 87t-59 62.5q-28 16 -61 16q-10 0 -20 -1q-45 -10 -64 -27q-49 -44 -49 -173q0 -44 6 -97 q23 -183 99 -326q-72 -68 -155 -135t-120 -99t-41 -52z" />
<glyph unicode="y" horiz-adv-x="942" d="M-358 -536v-7q0 -14 6 -31q8 -21 24.5 -43t47.5 -46t71.5 -46.5t99.5 -45.5t129 -42q128 -35 226 -37h9q92 0 167 36q78 37 134.5 99.5t102.5 157.5q99 230 191 720q84 455 84 603v21v12q0 44 -18 79q-22 39 -56.5 59t-67.5 30t-61 10q-11 0 -20 -6t-17 -21.5 t-14.5 -32.5t-14.5 -49.5t-14.5 -60.5t-17.5 -78t-21 -90q-40 -179 -108 -270q-50 -66 -100 -66q-18 0 -37 9q-21 9 -32.5 31t-14.5 55q-1 20 -1 41q0 12 1 25q1 34 9.5 79t15.5 78.5t17 78.5t15 68q14 63 14 111q0 42 -11 73q-23 66 -106 99q-23 13 -46 13q-7 0 -14 -2 q-31 -5 -57.5 -30t-50.5 -87t-40 -158q-25 -145 -25 -251q0 -105 31 -206q32 -104 102 -192q38 -53 86.5 -86t89.5 -41.5t77 -9.5t57 5l20 5q-15 -62 -40 -172q-18 -80 -26.5 -117t-25 -95t-29.5 -81.5t-34.5 -58.5t-45.5 -46t-58 -23q-30 -12 -67 -12h-8q-42 2 -96 11 q-52 10 -114.5 27t-105.5 29.5t-85 22.5q-31 6 -54 6h-17q-28 -4 -44 -22q-10 -14 -12 -32z" />
<glyph unicode="z" horiz-adv-x="1044" d="M-4 114q8 30 36.5 69t71.5 88t103 114q13 14 20 21q60 64 105.5 122t68 95t36.5 64.5t17 39.5l3 12q-30 -4 -83 -4t-128 4q-74 5 -101 20.5t-28 51.5v9q0 34 6 87q0 53 81 85t191 38q45 3 90 3q67 1 133 -5q112 -10 175 -33q70 -31 70 -108q0 -23 -6 -49 q-26 -116 -107.5 -246t-161 -230t-96.5 -108q118 38 222 50q52 6 96 6t78 -6q70 -12 116 -40q56 -34 83 -86q13 -23 13 -40q0 -23 -25 -33q-13 -5 -32 -5q-17 0 -39 4q-19 4 -48 4q-58 0 -157 -14q-150 -22 -295.5 -51t-285.5 -42q-44 -4 -78 -4q-73 0 -97 19q-33 21 -44 45 q-6 14 -6 30q0 11 3 23z" />
<glyph unicode="&#xad;" horiz-adv-x="618" d="M39 614v7q0 29 6 41q20 27 81.5 36.5t192.5 14.5q8 0 23 3t23 3h149q36 -4 58.5 -25t27.5 -45q0 -39 -12 -57q-9 -23 -45 -39q-8 -1 -35.5 -7t-54 -10t-54.5 -6q-336 -44 -360 84z" />
<glyph unicode="&#x2000;" horiz-adv-x="965" />
<glyph unicode="&#x2001;" horiz-adv-x="1931" />
<glyph unicode="&#x2002;" horiz-adv-x="965" />
<glyph unicode="&#x2003;" horiz-adv-x="1931" />
<glyph unicode="&#x2004;" horiz-adv-x="643" />
<glyph unicode="&#x2005;" horiz-adv-x="482" />
<glyph unicode="&#x2006;" horiz-adv-x="321" />
<glyph unicode="&#x2007;" horiz-adv-x="321" />
<glyph unicode="&#x2008;" horiz-adv-x="241" />
<glyph unicode="&#x2009;" horiz-adv-x="386" />
<glyph unicode="&#x200a;" horiz-adv-x="107" />
<glyph unicode="&#x2010;" horiz-adv-x="618" d="M39 614v7q0 29 6 41q20 27 81.5 36.5t192.5 14.5q8 0 23 3t23 3h149q36 -4 58.5 -25t27.5 -45q0 -39 -12 -57q-9 -23 -45 -39q-8 -1 -35.5 -7t-54 -10t-54.5 -6q-336 -44 -360 84z" />
<glyph unicode="&#x2011;" horiz-adv-x="618" d="M39 614v7q0 29 6 41q20 27 81.5 36.5t192.5 14.5q8 0 23 3t23 3h149q36 -4 58.5 -25t27.5 -45q0 -39 -12 -57q-9 -23 -45 -39q-8 -1 -35.5 -7t-54 -10t-54.5 -6q-336 -44 -360 84z" />
<glyph unicode="&#x2012;" horiz-adv-x="618" d="M39 614v7q0 29 6 41q20 27 81.5 36.5t192.5 14.5q8 0 23 3t23 3h149q36 -4 58.5 -25t27.5 -45q0 -39 -12 -57q-9 -23 -45 -39q-8 -1 -35.5 -7t-54 -10t-54.5 -6q-336 -44 -360 84z" />
<glyph unicode="&#x2013;" horiz-adv-x="1081" d="M39 614v7q0 29 11 41q36 27 148.5 36.5t351.5 14.5q15 0 42 3t42 3h272q66 -4 107 -25t50 -45q0 -39 -22 -57q-16 -23 -82 -39q-15 -1 -65 -7t-98.5 -10t-99.5 -6q-613 -44 -657 84z" />
<glyph unicode="&#x2014;" horiz-adv-x="2105" d="M39 614v7q0 29 22 41q73 27 297.5 36.5t702.5 14.5q29 0 84 3t84 3h544q131 -4 213.5 -25t100.5 -45q0 -39 -44 -57q-33 -23 -164 -39q-29 -1 -129.5 -7t-197.5 -10t-199 -6q-1226 -44 -1314 84z" />
<glyph unicode="&#x201c;" horiz-adv-x="753" d="M43 1245.5q1 36.5 12 73.5q25 64 63 114t75.5 75.5t71 42t54.5 20.5l21 4q-35 -63 -43.5 -111t1 -73t20 -62t8.5 -72q-10 -121 -107 -155q-39 -14 -73 -7.5t-55 28.5t-35 54t-13 68.5zM402 1245.5q1 36.5 12 73.5q24 64 62 114t75 75.5t70.5 42t54.5 20.5l20 4 q-35 -63 -43 -111t1 -73t19.5 -62t8.5 -72q-10 -121 -107 -155q-39 -14 -72.5 -7.5t-54.5 28.5t-34 54t-12 68.5z" />
<glyph unicode="&#x201d;" horiz-adv-x="761" d="M53 1098q35 62 44 109.5t0.5 72.5t-18.5 61.5t-7 71.5q13 123 108 156q41 12 73.5 6t54.5 -29.5t33.5 -54.5t11.5 -69t-13 -74q-25 -64 -64 -113t-76.5 -73.5t-71 -40.5t-54.5 -19zM410 1092q36 62 45 109.5t-0.5 73t-19.5 62.5t-7 72q13 121 109 154q49 16 89 1t59 -50 t25 -81t-12 -92q-26 -64 -65 -113t-76.5 -73.5t-71.5 -40t-55 -18.5z" />
<glyph unicode="&#x202f;" horiz-adv-x="386" />
<glyph unicode="&#x205f;" horiz-adv-x="482" />
<glyph unicode="&#xe000;" horiz-adv-x="1064" d="M0 0v1065h1065v-1065h-1065z" />
</font>
</defs>
</svg>
