<svg xmlns="http://www.w3.org/2000/svg" xmlns:xlink="http://www.w3.org/1999/xlink" width="628" height="516" viewBox="0 0 628 516">
    <defs>
        <path id="a" d="M.074.159h563.827v491.819H.074z"/>
        <path id="c" d="M0 .802h16.08v10.454H0z"/>
    </defs>
    <g fill="none" fill-rule="evenodd">
        <g opacity=".201">
            <g transform="translate(22.137)">
                <mask id="b" fill="#fff">
                    <use xlink:href="#a"/>
                </mask>
                <path fill="#0D83DD" d="M187.545 52.6c-6.15-10.872-9.51-31.477-19.312-40.81C157.703 1.761 143.855-.566 134.172.335c-9.83.914-14.26 5.735-13.108 16.566.623 5.849 3.88 10.664 2.128 12.38-5.123 5.015-9.227-27.409-29.25-18.404-13.056 5.873 13.049 17.416 6.56 25.543-9.517 11.915-19.635-21.653-42.387.396-3.876 3.758-7.23 7.046-7.85 10.629-1.118 6.455 7.046 3.7 7.763 5.56 1.43 3.709-8.086 2.975-8.923 7.638-.892 4.973 8.719 14.031 8.233 16.608-.953 5.056-6.343 9.202-52.004-10.205-10.332-4.39-10.493 14.062 47.41 27.504 12.081 2.804 16.09 1.916 19.418-2.65 2.454-3.367 4.904-7.94 7.42-11.054 5.905-7.31 9.34-1.084 6.186 6.201-.862 1.993-4.21 8.621-2.154 11.636 3.022 4.429 11.065 8.014 16.872 2.296 4.03-3.968 6.17-13.37 10.624-5.745 4.645 7.954 1.684 16.906 6.523 24.37 19.346 29.838 25.25 43.408 25.79 60.7.33 10.521-8.248 36.675 7.56 54.473 32.414 36.496-.595 20.1-5.671 19.15-5.077-.949-8.288 4.289-5.613 18.195 2.795 14.533-23.967 24.425-26.703 58.455-1.236 15.372 3.35 29.967 10.96 40.939 6.552 9.446 18.903 16.497 26.158 20.017 17.863 8.664 10.699 26.467 29.458 35.792 16.609 8.257 44.957-.452 51.13 13.987 6.17 14.439 8.65 15.868 16.324 16.337 7.673.468 29.392 5.629 40.118 19.068 10.726 13.439 10.141 10.248 13.916-3.626 3.594-13.204 26.96-22.644 44.512-15.82 17.552 6.824 37.881 6.64 24.293-3.632-6.133-4.636 14.681-3.898 34.85 2.127 8.677 2.593 11.347-12.304 22.67 8.842 4.972 9.284 9.491 27.902 18.855 27.358 5.37-.312 6.109-5.382 1.19-19.317-6.393-18.107-12.916-26.57-.621-38.604 12.293-12.034 36.898-32.905 29.134-42.327-7.765-9.423-.01-27.336 8.852-37.812 8.998-10.637 24.112-8.622 25.141-12.21 1.132-3.95-11.53-.383-3.973-13.665 4.806-8.448 29.2-33.853 33.292-29.928 1.023.982-.117 1.91-6.258 7.82-3.8 3.66-4.225 6.082-1.815 8.625 3.745 3.951 8.769 1.055 17.494-7.88 14.729-15.081 10.318-18.903 4.098-16.158-5.937 2.621-12.604 3.756-17.062 2.583-8.421-2.219-5.16-25.433-12.938-26.146-17.447-1.596-23.754 31.364-31.38 26.637-4.899-3.037 6.312-21.107 16.475-29.57 5.903-4.915 17.036-7.376 23.76-8.883 18.933-4.244 39.372-26.603 29.863-36.746-1.736-1.85-12.308-8.632-16.805-5.53-4.426 3.052-6.198 12.231-11.162 11.494-4.877-.724.985-4.357 8.178-11.219 4.531-4.323-.885-4.457-1.432-4.561-11.679-2.222-17.504-.642-29.01-8.375-6.655-4.473-12.88-12.053-17.745-17.808-8.164-9.66-9.997-1.983-10.162-.502-2.428 21.79-8.143 11.898-23.991-4.033-16.925-17.013-41.74-5.558-41.869 9.376-.07 8.092 7.46 21.709 12.622 27.83 15.155 17.97-8.503 16.753-7.479 27.668.79 8.427 10.926 16.903 11.788 22.389.686 4.369-12.498 6.547-19.655-5.826-4.742-8.199-.784-20.625-13.522-23.62-18.348-4.316-78.057-26.014-59.962-47.764 15.941-19.163 30.134-20.321 33.515-43.978 2.68-18.759 33.382 10.347 14.195-25.555-3.41-6.383-9.93-5.506-10.827 2.11-.678 5.765-2.13 11.183-9.035 7.757-19.101-9.475-20.195-45.887-27.56-31.936-8.719 16.512 7.05 14.066 6.059 19.759-.993 5.691-6.265 7.927-8.314-.507-2.048-8.436-9.738-6.954-12.906 1.129-6.852 17.48-21.023-2.561-27.417-2.95-5.751-.352-8.98 12.693-28.046 7.236-5.676-1.624-9.838-6.992-5.863-7.796 3.742-.756 10.513-2.193-9.752-16.594-13.119-9.323-24.247-15.883-37.052-21.97-14.655-6.967-24.37-10.756-30.738-22.01" mask="url(#b)"/>
            </g>
            <path fill="#FFF" d="M177.54 251.894c-.2-.012-.401-.072-.585-.182-.923-.558-1.395-.865-1.395-.865a1.272 1.272 0 0 1-.37-1.766 1.283 1.283 0 0 1 1.773-.37c.012.008.458.298 1.321.819a1.275 1.275 0 0 1-.744 2.364M184.768 255.942a1.281 1.281 0 0 1-.52-.146 174.86 174.86 0 0 1-2.829-1.522 1.272 1.272 0 0 1-.502-1.733 1.282 1.282 0 0 1 1.74-.5c.842.461 1.77.964 2.789 1.499.625.33.864 1.1.533 1.724a1.282 1.282 0 0 1-1.211.678m7.416 3.704c-.159-.009-.32-.05-.472-.121a227.67 227.67 0 0 1-2.889-1.399 1.275 1.275 0 0 1-.577-1.71 1.283 1.283 0 0 1 1.717-.577c.906.448 1.857.909 2.852 1.382.639.303.909 1.064.605 1.701-.232.483-.73.756-1.236.724m7.55 3.425a1.272 1.272 0 0 1-.43-.104 239.867 239.867 0 0 1-2.934-1.292 1.274 1.274 0 0 1-.643-1.687 1.282 1.282 0 0 1 1.694-.64c.938.42 1.905.846 2.903 1.278.65.28.946 1.032.664 1.679a1.28 1.28 0 0 1-1.253.766m7.663 3.166a1.288 1.288 0 0 1-.394-.088c-1.015-.4-2.006-.798-2.975-1.194a1.274 1.274 0 0 1-.698-1.665 1.285 1.285 0 0 1 1.672-.696c.96.393 1.94.786 2.945 1.182.657.26.98 1.001.72 1.657-.21.526-.732.837-1.27.804m7.76 2.92a1.284 1.284 0 0 1-.357-.072c-1.02-.368-2.025-.735-3.01-1.102-.663-.246-1-.981-.751-1.641.248-.66.987-.994 1.649-.749.976.363 1.969.726 2.98 1.09a1.275 1.275 0 0 1-.512 2.475m7.848 2.681a1.313 1.313 0 0 1-.32-.061c-1.03-.335-2.043-.67-3.042-1.008a1.275 1.275 0 0 1-.803-1.618 1.285 1.285 0 0 1 1.626-.798c.99.334 1.994.667 3.014.997a1.275 1.275 0 0 1-.475 2.488m7.922 2.444a1.34 1.34 0 0 1-.283-.049 252.47 252.47 0 0 1-3.071-.918 1.273 1.273 0 0 1-.85-1.593 1.284 1.284 0 0 1 1.6-.847c1.001.306 2.015.61 3.042.909a1.276 1.276 0 0 1-.438 2.498m7.992 2.211a1.3 1.3 0 0 1-.248-.04 275.194 275.194 0 0 1-3.096-.825 1.277 1.277 0 0 1-.897-1.569 1.286 1.286 0 0 1 1.574-.893c1.011.277 2.034.55 3.068.819a1.275 1.275 0 0 1-.401 2.508m295.41 18.257a1.28 1.28 0 0 1-1.023-.622c-.5-.835-1.077-1.445-1.72-1.81a1.273 1.273 0 0 1-.475-1.742 1.282 1.282 0 0 1 1.75-.472c1.028.586 1.92 1.501 2.648 2.719a1.275 1.275 0 0 1-.447 1.75 1.281 1.281 0 0 1-.733.177m-9.763-.54a1.28 1.28 0 0 1-.9-.449 1.271 1.271 0 0 1 .15-1.798c.975-.822 1.978-1.462 2.98-1.907a1.276 1.276 0 1 1 1.042 2.332c-.781.346-1.578.858-2.367 1.523a1.28 1.28 0 0 1-.905.3m-277.595-15.74a1.353 1.353 0 0 1-.212-.03 335.107 335.107 0 0 1-3.117-.736 1.276 1.276 0 1 1 .605-2.481c1.02.247 2.05.49 3.09.731a1.276 1.276 0 0 1-.366 2.517m8.107 1.746a1.542 1.542 0 0 1-.177-.023c-1.055-.211-2.1-.427-3.138-.646a1.276 1.276 0 0 1-.987-1.514 1.286 1.286 0 0 1 1.52-.984c1.027.217 2.064.432 3.11.642a1.276 1.276 0 0 1-.328 2.525m8.154 1.51a1.193 1.193 0 0 1-.141-.015 285.48 285.48 0 0 1-3.154-.557 1.275 1.275 0 1 1 .46-2.51c1.034.188 2.077.372 3.128.55.697.12 1.165.78 1.045 1.476a1.28 1.28 0 0 1-1.338 1.057m8.193 1.278a.785.785 0 0 1-.104-.01c-1.064-.15-2.12-.306-3.17-.465a1.278 1.278 0 0 1-1.072-1.455 1.284 1.284 0 0 1 1.46-1.069c1.04.159 2.088.313 3.143.463a1.277 1.277 0 0 1 1.088 1.443 1.28 1.28 0 0 1-1.345 1.093m8.225 1.046l-.066-.006c-1.068-.12-2.129-.246-3.182-.376a1.278 1.278 0 0 1-1.114-1.424 1.29 1.29 0 0 1 1.43-1.109c1.044.13 2.096.254 3.153.374.703.079 1.21.711 1.13 1.41a1.28 1.28 0 0 1-1.35 1.13m41.355 2.897l-3.178-.246c-.706-.043-1.243-.672-1.199-1.375a1.29 1.29 0 0 1 1.357-1.209l3.185.19c.706.043 1.24.695 1.196 1.4-.044.702-.655 1.283-1.36 1.24m-11.46-.7c-.703-.043-1.238-.684-1.199-1.386.041-.705.646-1.216 1.352-1.176l3.184.21h.004c.705.042 1.244.6 1.203 1.302a1.297 1.297 0 0 1-1.355 1.217l-3.184-.167h-.005m19.733 1.205l-.008-.001-3.176-.245c-.706-.047-1.244-.628-1.197-1.331.047-.702.652-1.208 1.356-1.165h.005l3.185.167a1.29 1.29 0 0 1-.165 2.575m-41.382-2.526l-.03-.001c-1.07-.065-2.131-.219-3.188-.318a1.293 1.293 0 0 1-1.153-1.408 1.28 1.28 0 0 1 1.397-1.158c1.048.1 2.104.19 3.164.28.705.059 1.226.706 1.166 1.408-.059.693-.664 1.24-1.356 1.197m13.372.817a1.292 1.292 0 0 1-1.2-1.36 1.263 1.263 0 0 1 1.348-1.186l3.185.191.007.002c.702.042 1.242.614 1.203 1.316a1.283 1.283 0 0 1-1.35 1.207l-3.184-.17h-.009m36.281 2.214l-.014-.002-3.177-.227a1.263 1.263 0 0 1-1.189-1.346 1.265 1.265 0 0 1 1.355-1.167h.012c1.079.067 2.14.137 3.183.21a1.272 1.272 0 0 1 1.186 1.358 1.273 1.273 0 0 1-1.356 1.174m-42.986-2.612c-.529-.033-1.057-.066-1.582-.101a1.28 1.28 0 0 1 .165-2.554h.007l3.17.194h.006c.704.043 1.24.646 1.202 1.348a1.28 1.28 0 0 1-1.35 1.204c-.541-.029-1.08-.059-1.618-.091m51.257 3.116c-.008 0-.016 0-.024-.002-1.038-.063-2.1-.102-3.179-.186a1.281 1.281 0 0 1 .198-2.552c1.083.066 2.14.201 3.179.284.706.057 1.235.626 1.179 1.328-.056.695-.658 1.17-1.353 1.128m8.267.505a.378.378 0 0 0-.038-.002c-1.034-.064-2.1-.027-3.18-.12-.704-.06-1.224-.717-1.163-1.418.06-.691.665-1.244 1.356-1.202l.033.003c1.084.066 2.135.301 3.171.395.705.063 1.232.581 1.168 1.285-.062.689-.657 1.1-1.347 1.059m8.226 1.107c-.018-.001-.037-.002-.054-.005-1.027-.105-2.081-.21-3.163-.315a1.278 1.278 0 0 1-1.152-1.394 1.284 1.284 0 0 1 1.4-1.146c1.088.105 2.146.212 3.177.318.704.07 1.216.697 1.143 1.398a1.278 1.278 0 0 1-1.351 1.144m8.23.914a1.277 1.277 0 0 1-4.36-1.787c.08-.702.71-1.204 1.418-1.124 1.093.123 2.15.247 3.173.371a1.276 1.276 0 0 1-.231 2.54m8.202 1.103a.933.933 0 0 1-.113-.012c-1.002-.15-2.047-.3-3.135-.449a1.277 1.277 0 0 1-1.094-1.439 1.28 1.28 0 0 1 1.444-1.09c1.1.151 2.154.303 3.166.454.7.105 1.18.755 1.077 1.452a1.28 1.28 0 0 1-1.345 1.084m141.08 8.802c-.149-.01-.3-.045-.444-.11-.646-.287-.935-1.042-.646-1.685.12-.268.238-.54.358-.815.317-.73.703-1.462 1.152-2.176a1.284 1.284 0 0 1 1.764-.409 1.27 1.27 0 0 1 .41 1.757 14.164 14.164 0 0 0-.973 1.84 70.94 70.94 0 0 1-.373.845c-.223.499-.73.784-1.248.753m17.99 1.345a1.281 1.281 0 0 1-1.068-.701c-.4-.79-.823-1.69-1.38-2.925a1.273 1.273 0 0 1 .645-1.686c.647-.29 1.404 0 1.693.641a69.49 69.49 0 0 0 1.33 2.823 1.28 1.28 0 0 1-1.221 1.847M386.9 293.502a1.576 1.576 0 0 1-.178-.023c-.975-.196-2.005-.39-3.096-.584a1.277 1.277 0 0 1-1.037-1.48 1.284 1.284 0 0 1 1.486-1.033c1.11.197 2.162.395 3.155.595.694.14 1.142.813 1.001 1.504a1.28 1.28 0 0 1-1.331 1.021m8.026 1.96a1.312 1.312 0 0 1-.295-.052 69.067 69.067 0 0 0-3.006-.83 1.276 1.276 0 1 1 .632-2.474c1.087.275 2.135.565 3.118.861.677.205 1.059.917.855 1.591-.177.577-.725.94-1.304.904m7.674 3.008a1.28 1.28 0 0 1-.492-.133 44.55 44.55 0 0 0-2.808-1.277 1.274 1.274 0 0 1-.692-1.669 1.284 1.284 0 0 1 1.674-.689 47.45 47.45 0 0 1 2.969 1.352c.633.314.89 1.08.574 1.711a1.282 1.282 0 0 1-1.225.705m140.684 9.685a1.299 1.299 0 0 1-.369-.08 8.583 8.583 0 0 1-3.11-1.996 1.272 1.272 0 0 1-.003-1.804c.499-.5 1.31-.503 1.81-.005a5.976 5.976 0 0 0 2.198 1.415c.663.246 1 .98.753 1.64-.202.54-.731.862-1.279.83m-27.4-.013a1.273 1.273 0 0 1-.983-1.985 38.828 38.828 0 0 0 1.614-2.618 1.285 1.285 0 0 1 1.745-.486c.616.346.834 1.123.488 1.738-.554.98-1.134 1.92-1.722 2.79a1.285 1.285 0 0 1-1.143.561m-106.02-5.759a1.288 1.288 0 0 1-.513-.142c-1.022-.53-1.96-1.047-2.824-1.526a1.274 1.274 0 0 1-.496-1.736 1.285 1.285 0 0 1 1.743-.494c.848.47 1.768.977 2.762 1.492a1.276 1.276 0 0 1-.672 2.406m7.08 4.245a1.275 1.275 0 0 1-.707-.266 33.136 33.136 0 0 0-2.505-1.755 1.27 1.27 0 0 1-.396-1.76 1.283 1.283 0 0 1 1.767-.395 35.212 35.212 0 0 1 2.705 1.894 1.274 1.274 0 0 1-.865 2.282m93.501 7.708a1.283 1.283 0 0 1-.884-.432 1.273 1.273 0 0 1 .116-1.8 30.031 30.031 0 0 0 2.19-2.122 1.287 1.287 0 0 1 1.811-.068c.519.48.55 1.287.07 1.803a32.098 32.098 0 0 1-2.38 2.303 1.278 1.278 0 0 1-.923.316m-87.538-1.99c-.334-.02-.66-.17-.896-.443a44.685 44.685 0 0 0-2.095-2.276 1.27 1.27 0 0 1 .013-1.804 1.285 1.285 0 0 1 1.812.014 46.3 46.3 0 0 1 2.217 2.406 1.276 1.276 0 1 1-1.05 2.103m80.751 6.7a1.28 1.28 0 0 1-1.038-.645 1.273 1.273 0 0 1 .486-1.74 46.362 46.362 0 0 0 2.65-1.602 1.287 1.287 0 0 1 1.775.366c.388.59.223 1.38-.369 1.768-.873.57-1.813 1.14-2.796 1.691a1.288 1.288 0 0 1-.708.163m-7.456 3.595a1.28 1.28 0 0 1-1.099-.769 1.273 1.273 0 0 1 .668-1.676l.158-.068a90.182 90.182 0 0 0 2.724-1.206 1.284 1.284 0 0 1 1.702.618c.299.64.02 1.398-.62 1.697-.886.41-1.831.828-2.81 1.242l-.137.06a1.301 1.301 0 0 1-.586.102m-68.363-3.653a1.28 1.28 0 0 1-.997-.578 74.491 74.491 0 0 0-1.765-2.586 1.274 1.274 0 0 1 .3-1.781 1.287 1.287 0 0 1 1.788.3c.603.845 1.201 1.72 1.826 2.675a1.277 1.277 0 1 1-1.151 1.97m61.018 7.492a1.283 1.283 0 0 1-1.027-.625 1.273 1.273 0 0 1 .453-1.748 103.533 103.533 0 0 1 2.805-1.598c.619-.34 1.4-.114 1.74.504a1.271 1.271 0 0 1-.506 1.732c-.856.47-1.752.98-2.736 1.559-.23.134-.482.19-.73.176m-56.761-.4a1.28 1.28 0 0 1-1.04-.647 183.386 183.386 0 0 0-1.576-2.74c-.357-.61-.15-1.39.46-1.747a1.287 1.287 0 0 1 1.754.458c.544.93 1.075 1.857 1.596 2.777a1.274 1.274 0 0 1-1.194 1.9m49.706 4.753a1.275 1.275 0 0 1-.61-2.349c.91-.579 1.812-1.15 2.706-1.707a1.283 1.283 0 0 1 1.765.405 1.272 1.272 0 0 1-.405 1.758c-.887.555-1.785 1.121-2.69 1.695-.237.151-.505.214-.766.198m-7.01 4.429a1.274 1.274 0 0 1-.6-2.358c.9-.557 1.798-1.122 2.692-1.687.598-.379 1.39-.201 1.769.392.38.595.204 1.384-.394 1.761-.9.57-1.806 1.138-2.713 1.701a1.287 1.287 0 0 1-.755.19m-38.633-1.972a1.278 1.278 0 0 1-1.03-.632 200.914 200.914 0 0 1-1.588-2.785 1.273 1.273 0 0 1 .494-1.736 1.285 1.285 0 0 1 1.745.492c.525.939 1.046 1.858 1.564 2.746a1.275 1.275 0 0 1-1.185 1.915m31.5 6.195a1.28 1.28 0 0 1-1.042-.653 1.271 1.271 0 0 1 .496-1.735c.911-.505 1.826-1.03 2.744-1.566a1.283 1.283 0 0 1 1.753.453 1.272 1.272 0 0 1-.455 1.747c-.934.547-1.868 1.082-2.796 1.595a1.261 1.261 0 0 1-.7.159m-26.916.682c-.344-.02-.68-.18-.915-.466a37.24 37.24 0 0 1-1.962-2.647 1.272 1.272 0 0 1 .343-1.772 1.284 1.284 0 0 1 1.779.34c.633.93 1.23 1.737 1.826 2.466.447.546.366 1.35-.183 1.795-.26.211-.578.303-.888.284m19.476 2.972a1.274 1.274 0 0 1-.414-2.452 58.08 58.08 0 0 0 2.848-1.275 1.284 1.284 0 0 1 1.71.596 1.275 1.275 0 0 1-.6 1.704c-1.028.493-2.03.94-2.974 1.332a1.29 1.29 0 0 1-.57.095m-12.985 1.947a1.289 1.289 0 0 1-.312-.06 11.95 11.95 0 0 1-3.168-1.58 1.272 1.272 0 0 1-.32-1.776 1.283 1.283 0 0 1 1.782-.32c.821.567 1.635.975 2.485 1.247a1.274 1.274 0 0 1-.467 2.489m5.033.315a1.28 1.28 0 0 1-1.193-1.12 1.278 1.278 0 0 1 1.12-1.42c.925-.11 1.919-.304 2.956-.574a1.275 1.275 0 1 1 .65 2.468c-1.149.3-2.26.515-3.3.64a1.21 1.21 0 0 1-.233.006M548.557 308.732a1.28 1.28 0 0 1-1.2-1.206 1.279 1.279 0 0 1 1.212-1.342c.484-.026.994-.067 1.533-.122a1.276 1.276 0 0 1 .264 2.538c-.583.06-1.136.105-1.663.133a1.24 1.24 0 0 1-.146-.001"/>
            <path fill="#0D83DD" d="M403.09 283.862l-39.099 25.207 41.346 53.02 81.896-6.188 8.862-29.29-8.136-13.813zM64.953 31.622c-5.758 1.311 3.092 12.334 9.8 7.63 6.707-4.705 1.266-10.15-9.8-7.63"/>
            <g transform="translate(0 58.016)">
                <mask id="d" fill="#fff">
                    <use xlink:href="#c"/>
                </mask>
                <path fill="#0D83DD" d="M.015 6.717c.353 4.708 16.233 7.383 16.064-.298C15.91-1.261-.56-.971.015 6.717" mask="url(#d)"/>
            </g>
            <path fill="#0D83DD" d="M158.942 225.283c3.8.614 17.108 24.483 14.38 27.086-3.925 3.746-22.854-28.455-14.38-27.086M292.883 51.284c-11.688 2.568-24.157 17.063-17.357 21.313 6.797 4.25 16.69-10.487 16.063-.298-.626 10.189.717 30.087 12.031 33.973 11.314 3.886 15.425-.338 20.384 2.523 4.959 2.859 18.425 12.117 17.519-10.012-2.225-54.255-8.918 5.847-29.393-26.508-6.78-10.715-10.138-22.991-19.247-20.99M313.085 35.89c-10.777-1.607-15.325 9.153-4.387 8.7 10.94-.453 17.107-6.803 4.387-8.7"/>
            <path fill="#0D83DD" d="M328.366 48.336c-20.375-6.145-24.46 8.907-9.187 13.714 18.47 5.814 30.96-7.148 9.187-13.714M374.98 52.246c-7.144-1.237-3.829 6.585.365 14.936 3.713 7.393 15.12 4.632 25.474 3.26 8.455-1.122 12.569-14.007-8.23-9.606-1.758.371-7.326 1.626-10.827-1.723-2.245-2.149-2.971-6.208-6.782-6.867M356.58 48.78c-5.077-.95-8.431 1.402-6.826 6.614 1.605 5.211 6.12 4.848 10.871.663 4.75-4.184-4.045-7.278-4.045-7.278M355.052 73.615c-6.748-2.124-10.024 6.42-8.536 13.542 1.488 7.121 11.81 16.7 14.551 3.444 2.74-13.255-.979-15.4-6.015-16.986M372.434 72.758c-3.189-4.046-7.425 5.939-4.542 11.229 2.884 5.29 14.068.858 4.542-11.229M382.686 100.869c9.016 10.025 29.387 12.66 35.417 8.554 6.03-4.108 10.492-3.622 15.773.962 12.77 11.084 16.19 15.051 15.915 19.51-.274 4.456-.51 8.277-9.136 12.865-8.625 4.587-5.664 8.603 7.804 8.786 13.468.182 33.198 23.759 44.813 12.323 11.615-11.437-5.414-16.311-11.783-27.566-6.367-11.255 1.74-3.943 8.657-1.604 6.916 2.34 10.588-12.138-1.939-17.163-13.195-5.294-25.429-3.332-26.203-12.253-.815-9.37-11.17-13.198-20.8-13.147-5.326.028-8.322-4.625-10.981-6.762-4.279-3.437-9.749-.959-11.145-.396-18.52 7.47-6.936-5.698-15.694-7.562-23.864-5.079-28.909 14.323-20.698 23.453M419.488 152.974c-8.6-6.278-19.117-12.672-19.901.063-.783 12.736 8.247 12.01 18.073 8.774 9.828-3.235 1.828-8.837 1.828-8.837M418.626 166.983c-3.48-1.744-8.94 9.682-3.863 10.631 5.077.95 8.221-8.447 3.863-10.63M585.277 238.517c-.514 3.524-1.11 7.602-1.6 15.563-.979 15.92-2.886 20.81 15.115 13.386 13.355-5.508 41.855 1.276 20.708-16.633-10.703-9.065-13.794-5.317-21.584-3.875-4.642.86-4.587-4.665-4.684-9.25-.215-10.225-6.845-6.794-7.955.809M586.012 283.945c-1.978-.273-1.729-3.74-1.858-5.935-.206-3.539-3.303-2.77-3.72.318-.154 1.148-.232 2.705-.35 4.616-.43 7.005 6.087 7.98 10.847 4.497 1.197-.874 1.953-2.64.65-3.583-1.41-1.017-2.81.47-5.569.087M567.11 286.594c-2.941.593-6.885-.61-7.65-.957-5.362-2.435-3.085 3.288 2.917 4.351 11.243 1.991 14.202-5.301 4.733-3.394M150.518 188.335c-3.346-1.27-7.13 4.256-6.487 11.536.379 4.284 2.433 5.69 3.294 2.119.862-3.57 2.287-6.03 5.237-8.63 1.81-1.594 1.301-3.755-2.044-5.025M560.047 260.841c-4.437-.91-16.807-1.236-12.317 2.017 2.251 1.63 10.301 2.973 15.295 1.786 4.992-1.187 1.459-2.893-2.978-3.803"/>
            <path fill="#0D83DD" d="M436.39 118.209c-5.099-.677-7.021 9.799-1.027 9.738 5.994-.06 6.969-8.95 1.027-9.738M150.829 148.51c-2.622 1.153-1.409 4.3.926 5.81 4.732 3.058 5.452-8.617-.926-5.81M153.451 158.045c-1.435 2.47-4.663 9.73-2.532 9.86 2.131.13 5.475-5.539 5.613-7.754.143-2.334-1.259-5.24-3.081-2.106M157.888 169.396c-1.833-.577-3.435 4.596-3.507 8.309-.1 5.107.296 12.59 3.31 5.315 3.015-7.273 1.876-13.097.197-13.624"/>
            <path fill="#FFF" d="M222.686 43.97a1.274 1.274 0 0 1-1.094-1.79c.794-1.786 1.14-2.837 1.143-2.847.218-.67.94-1.036 1.614-.82.672.218 1.042.937.823 1.608-.014.046-.383 1.17-1.235 3.092-.223.501-.731.79-1.25.758m-3.848 7.359a1.271 1.271 0 0 1-.575-.178 1.273 1.273 0 0 1-.447-1.748c.539-.9 1.062-1.82 1.556-2.73a1.285 1.285 0 0 1 1.736-.517c.622.334.855 1.108.518 1.729-.51.942-1.05 1.891-1.606 2.823a1.286 1.286 0 0 1-1.182.62m-4.607 6.91a1.273 1.273 0 0 1-.953-2.03 87.45 87.45 0 0 0 1.826-2.567 1.286 1.286 0 0 1 1.78-.336c.584.397.735 1.19.338 1.773a91.042 91.042 0 0 1-1.88 2.642 1.284 1.284 0 0 1-1.11.517m-5.24 6.446a1.273 1.273 0 0 1-.879-2.121c.692-.775 1.386-1.58 2.057-2.388a1.284 1.284 0 0 1 1.803-.17c.546.448.621 1.252.172 1.795-.691.832-1.402 1.66-2.115 2.458a1.28 1.28 0 0 1-1.037.426m-5.792 5.956a1.274 1.274 0 0 1-.803-2.2c.765-.72 1.524-1.461 2.26-2.201a1.285 1.285 0 0 1 1.811-.01c.504.495.508 1.302.01 1.804a98.998 98.998 0 0 1-2.318 2.26 1.282 1.282 0 0 1-.96.347m-6.283 5.44a1.278 1.278 0 0 1-.923-.477 1.27 1.27 0 0 1 .201-1.793c.824-.656 1.644-1.331 2.439-2.005a1.287 1.287 0 0 1 1.807.144c.46.537.394 1.342-.144 1.8-.816.69-1.657 1.381-2.502 2.054a1.277 1.277 0 0 1-.878.276m-6.67 4.964a1.279 1.279 0 0 1-.954-.516 1.27 1.27 0 0 1 .27-1.783c.849-.625 1.714-1.254 2.598-1.89a1.285 1.285 0 0 1 1.788.288c.415.571.287 1.368-.288 1.781-.876.63-1.734 1.255-2.576 1.873a1.278 1.278 0 0 1-.839.247m-6.604 5.052a1.275 1.275 0 0 1-.727-2.267 166.43 166.43 0 0 1 2.533-1.993 1.286 1.286 0 0 1 1.798.227c.433.558.33 1.359-.228 1.79-.854.66-1.686 1.313-2.494 1.963-.26.207-.574.299-.882.28m-6.276 5.448a1.272 1.272 0 0 1-.847-.392c-.49-.51-.47-1.317.04-1.804a86.959 86.959 0 0 1 2.395-2.19 1.285 1.285 0 0 1 1.81.11 1.273 1.273 0 0 1-.111 1.8 83.558 83.558 0 0 0-2.322 2.126c-.27.255-.621.37-.965.35m-5.606 6.12a1.282 1.282 0 0 1-.702-.263 1.273 1.273 0 0 1-.233-1.789c.643-.83 1.349-1.68 2.1-2.522a1.284 1.284 0 0 1 1.808-.108c.529.466.578 1.273.108 1.8-.71.8-1.378 1.603-1.987 2.387-.269.35-.683.52-1.094.496m-4.267 7.09a1.274 1.274 0 0 1-1.099-1.778 30.31 30.31 0 0 1 1.487-2.978 1.283 1.283 0 0 1 1.746-.481c.615.348.832 1.126.484 1.74-.514.902-.972 1.82-1.362 2.727a1.284 1.284 0 0 1-1.256.77m-2.015 7.79l-.031-.003c-.705-.042-1.234-.573-1.174-1.275.096-1.114.259-2.173.49-3.254.149-.69.83-1.105 1.519-.957.692.148 1.133.838.985 1.527-.21.979-.353 1.887-.44 2.895-.06.692-.657 1.109-1.349 1.067m.479 8.462a1.279 1.279 0 0 1-1.18-1.034 34.765 34.765 0 0 1-.472-3.275c-.068-.701.45-1.324 1.153-1.39a1.28 1.28 0 0 1 1.397 1.15c.095.986.243 2.008.44 3.035a1.276 1.276 0 0 1-1.019 1.493c-.107.021-.214.027-.319.021m2.351 7.944a1.282 1.282 0 0 1-1.116-.813 54.485 54.485 0 0 1-1.098-3.077c-.216-.67.154-1.39.829-1.605a1.28 1.28 0 0 1 1.611.825c.307.952.659 1.938 1.046 2.934a1.274 1.274 0 0 1-.731 1.65 1.289 1.289 0 0 1-.54.086m3.478 7.532a1.28 1.28 0 0 1-1.065-.696l-.283-.55a81.815 81.815 0 0 1-1.165-2.33 1.272 1.272 0 0 1 .602-1.702 1.283 1.283 0 0 1 1.71.6c.355.741.731 1.495 1.129 2.258l.292.569c.32.628.068 1.397-.563 1.715-.21.106-.437.15-.657.136m3.37 7.582a1.284 1.284 0 0 1-1.119-.82 76.889 76.889 0 0 0-1.181-2.91 1.275 1.275 0 0 1 .673-1.675 1.285 1.285 0 0 1 1.683.672 79.14 79.14 0 0 1 1.22 3.004c.252.66-.08 1.396-.741 1.647a1.273 1.273 0 0 1-.534.082m2.534 7.896a1.278 1.278 0 0 1-1.162-.955 70.513 70.513 0 0 0-.856-3.016 1.277 1.277 0 0 1 .85-1.593 1.28 1.28 0 0 1 1.6.846c.32 1.041.619 2.093.888 3.125a1.278 1.278 0 0 1-1.32 1.593m1.588 8.136a1.278 1.278 0 0 1-1.19-1.11 62.039 62.039 0 0 0-.48-3.089 1.282 1.282 0 0 1 2.522-.454 62.95 62.95 0 0 1 .498 3.218 1.277 1.277 0 0 1-1.35 1.435m.42 8.287a1.283 1.283 0 0 1-1.2-1.324 45.202 45.202 0 0 0-.002-3.104 1.28 1.28 0 0 1 1.238-1.32c.714-.026 1.3.527 1.324 1.231a47.467 47.467 0 0 1 0 3.284c-.024.704-.62 1.279-1.325 1.236l-.034-.003m-1.227 8.17a1.275 1.275 0 0 1-1.153-1.631c.273-.933.504-1.931.684-2.968a1.28 1.28 0 0 1 1.483-1.038c.696.12 1.163.781 1.042 1.475a29.814 29.814 0 0 1-.75 3.247 1.28 1.28 0 0 1-1.306.915m-3.903 7.24a1.277 1.277 0 0 1-.856-2.147 13.385 13.385 0 0 0 1.74-2.329 1.283 1.283 0 0 1 1.755-.448c.61.36.81 1.142.448 1.749a15.82 15.82 0 0 1-2.075 2.774 1.279 1.279 0 0 1-1.012.4m-7.28 3.631a1.275 1.275 0 0 1-.069-2.541c.978-.113 1.91-.342 2.77-.682a1.281 1.281 0 0 1 1.665.714 1.274 1.274 0 0 1-.718 1.656 13.45 13.45 0 0 1-3.422.847c-.077.01-.151.01-.226.006m-5.093-.27a1.33 1.33 0 0 1-.176-.024 25.826 25.826 0 0 1-3.25-.887 1.275 1.275 0 0 1-.795-1.622c.23-.666.96-1.018 1.628-.792a22.93 22.93 0 0 0 2.923.8 1.277 1.277 0 0 1-.33 2.525M421.633 305.875c-5.885-8.67-7.767-14.537-19.28-15.239-3.837-.234-8.89 1.558-18.574 8.028-8.254 5.515-11.132 8.255-6.66 10.886 5.709 3.36 14.886-.335 18.47-4.626 2.86-3.42 5.722.03 3.946 1.945-3.537 3.816-1.213 4.934 7.26 5.451 9.114.556 21.187 2.906 14.838-6.445"/>
            <path fill="#FFF" d="M456.104 324.598c-.124-3.204-1.11-8.058-11.262-9.956-9.312-1.74-23.26-3.765-21.792.546.218.64-.297.934-.766.934-.618 0-1.364.063-2.256.201-7.308 1.132-14.575 2.147-19.2 9.536-3.934 6.28-1.278 5.995 1.404 3.26.473-.481 2.12-1.94 1.41.62-.742 2.677-1.867 6.798-2.107 10.704-.47 7.642.456 13.452 5.61 13.127 5.155-.324 6.004-8.902 3.994-17.974-2.008-9.071.266-11.276 3.868-12.44 2.734-.885 7.97-2.209 9.309-4.398.192-.314.625-.59 1.048-.213.46.41.915.92 1.502 1.391 7.759 6.257 5.407 10.537 3.947 13.159-1.018 1.828-.057 3.592 2.08 2.499 2.385-1.22 4.04-5.28 5.221-.27 1.526 6.486 6.302 7.097 7.014.75.712-6.35-2.12-17.709 1.502-13.972 3.621 3.736 9.7 8.347 9.474 2.496M456.34 341.48c-10.58 3.165-21.746 5.2-15.804 8.375 4.91 2.623 14.373 1.129 22.648-5.017 8.278-6.148 3.546-6.466-6.844-3.358M479.204 325.39c-7.318 3.402-22.564 9.918-15.807 11.356 6.755 1.437 15.736-3.072 20.688-6.118 4.62-2.84 7.495-6.262 6.464-7.764-.904-1.317-5.88-.016-11.345 2.525M345.063 249.853c2.889 8.7 5.79 17.185 4.855 21.922-.932 4.737-7.543 7.85-4.951 2.255 2.59-5.595 2.107-8.182-1.592-10.644-3.7-2.463-13.852-11.926-7.052-15.771 2.549-1.442 3.008-1.947 2.87-4.94-.123-2.688 1.928-4.7 5.87 7.178M323.988 248.14c-5.65-.654-11.269 3.467-5.415 5.103 5.85 1.635 5.29 3.839 4.593 8.27-.698 4.432 6.217 2.618 6.87 5.853.65 3.236 1.894 10.662 7.036 10.018 5.143-.645-3.127-11.377-6.802-13.84-3.676-2.46-4.908-3.175-3.806-7.263 1.102-4.087 7.235-7.015-2.476-8.14M537.626 225.382c-1.734-1.385-12.182-.211-12.515 5.201-.333 5.413 7.353 5.67 8.11 3.798.757-1.871-9.527-4.72-1.866-6.186 4.222-.808 8.395-1.117 6.27-2.813M294.776 161.343c-5.899-2.955-9.011.409-14.845 1.331-5.834.923-8.364-10.098-12.201-10.333-2.949-.18-1.153 4.83.883 9.397 1.034 2.315-.61 3.615-1.038 3.89-1.836 1.184-3.528 1.334-6.442.054-3.171-1.392-8.26-6.576-10.316-4.464-2.055 2.112 5.565 8.649 15.815 8.954 10.252.306 12.125-4.054 18.598-4.937 6.472-.883 16.083-.616 9.546-3.892M298.31 192.56c-6.405-1.919-4.439-5.787-8.56-6.914-6.522-1.782-16.035 5.573-11.12 8.59 3.326 2.04 6.165 2.4 13.239 2.193 9.422-.276 11.799-2.264 6.442-3.869M261.168 112.95c-10.25-.626-21.82-.053-10.766 2.859 11.054 2.911 8.015 5.255 6.08 5.485-5.334.632-12.084 3.417-7.386 5.301 4.698 1.885 10.186-3.853 9.67-.688-.253 1.559-2.42 2.638-3.742 3.449-2.252 1.38 4.13 3.286 5.98-.308.908-1.761-.095-3.97 2.616-3.803 4.158.253 4.823 5.088 9.41-1.664 4.587-6.751-2.295-2.588-5.118-2.869-4.147-.413-5.74-3.226 1.654-3.414 7.393-.188-2.644-3.997-8.398-4.348"/>
            <path fill="#0D83DD" d="M134.342 480.768c1.254-.094 2.298.21 2.331.679.034.467-.955.922-2.21 1.016-1.253.092-2.298-.212-2.33-.679-.034-.469.955-.923 2.209-1.016m14.6 21.3s2.75-5.745-1.93-13.557-8.602-8.83-10.863-9.074c-2.82-.303-6.062-.172-8.607 3.148-2.645 3.45-8.862 12.867-11.023 15.508-1.998 2.442-4.875 1.28-5.934-.171-.798-1.093-2.066-3.561-1.355-7.533.482-2.696-1.88-5.467-2.705-6.115-.822-.646-1.027.452-1.36 2.388-.343 1.995-2.197 5.436-1.202 7.426 1.466 2.934-.93.728-3.748 1.475-4.597 1.222-6.481-.34-6.13.818s1.437 3.315 3.9 4.449c2.463 1.133 5.8.607 7.175.52a4.549 4.549 0 0 1 4.117 2.064c.896 1.38 5.58 7.482 7.498 8.392 1.918.911 6.951 1.065 11.409.603 4.459-.462 14.97-1.24 15.891-1.31.92-.068.558-1.357-.248-1.56-.809-.203-9.793-2.38-9.751-3.568.02-.558 2.768.518 5.826.123 3.27-.421 7.556-1.513 9.04-4.026"/>
            <path fill="#FFF" d="M131.11 504.604c-.433-1.01-1.733-1.427-2.905-.928-1.171.499-1.77 1.722-1.335 2.732.433 1.01 1.735 1.426 2.906.928 1.17-.498 1.768-1.721 1.335-2.732"/>
            <path fill="#0D83DD" d="M130.115 504.806c-.191-.442-.764-.624-1.277-.409-.514.216-.775.75-.583 1.192.193.443.766.624 1.278.41.515-.217.774-.751.582-1.193M132.522 476.255s-.697-11.427-4.675-11.206c-3.98.223-1.097 6.44 4.675 11.206M134.817 470.878s4.298-10.617.61-12.118c-3.69-1.503-3.766 5.344-.61 12.118M136.02 476.171s8.793-7.372 6.241-10.42c-2.551-3.05-5.842 2.963-6.241 10.42"/>
            <path fill="#FFF" d="M105.537 507.596s2.892-.016 3.544-1.224c.653-1.207-3.314 1.123-1.873 1.211 1.44.089 1.574.09 2.138-.623.751-.952 1.307 1.715 4.258 1.886 1.251.072 1.74-1.268 2.994-1.27.932-.002 2.035 1.944 3.95 2.158 1.913.213 2.199-1.628 3.556-1.545.968.06 1.577 1.785 3.275 2.368 1.699.583 2.863-1.335 4.274-1.21 1.391.123 1.092 2.467 5.363 2.573 2.994.075-2.787 3.857-2.787 3.857l-23.946-2.326-4.746-5.855z"/>
            <path fill="#0D83DD" d="M109.125 510.548c.462.476.946.935 1.511 1.202.56.28 1.18.372 1.8.373.307 0 .646-.013.891-.073.273-.063.524-.175.77-.332.249-.154.496-.348.786-.55.288-.2.644-.415 1.075-.508.222-.038.402-.079.723-.022.265.06.461.162.635.263.34.207.596.427.858.63.51.403 1 .755 1.51.948.25.094.514.162.758.18.276.02.475-.007.687-.084.206-.078.404-.21.626-.403.223-.19.456-.44.807-.687.354-.246.85-.447 1.406-.39.032-.002.292.044.398.09.128.048.246.107.346.171.204.128.359.265.496.395.53.528.903.99 1.354 1.335.22.174.452.317.7.422.118.054.261.094.34.11.111.023.223.029.338.022.464-.022 1-.313 1.593-.631a5.722 5.722 0 0 1 1-.444c.373-.118.834-.162 1.25-.032.438.122.78.44.996.712.227.279.403.538.605.768.769.957 2.108 1.315 3.411 1.495-.661.054-1.338.053-2.014-.085a4.004 4.004 0 0 1-1.883-.93c-.53-.478-.918-1.05-1.339-1.077-.444-.084-.932.173-1.476.528-.538.337-1.152.802-2.025.908a2.551 2.551 0 0 1-.651-.007 2.938 2.938 0 0 1-.61-.157 4.323 4.323 0 0 1-1.024-.546c-.62-.436-1.083-1.013-1.502-1.403a1.725 1.725 0 0 0-.278-.218c-.038-.024-.071-.036-.097-.046-.05-.01.047.002-.086-.014a.777.777 0 0 0-.456.168c-.392.25-.904.917-1.755 1.222-.86.296-1.712.147-2.424-.159-.714-.316-1.281-.79-1.782-1.225-.25-.218-.493-.433-.708-.584a1.307 1.307 0 0 0-.262-.15c-.003-.016-.16-.02-.262-.004-.446.04-.95.47-1.606.81a3.314 3.314 0 0 1-1.085.34c-.408.05-.734.012-1.087-.03-.694-.092-1.396-.325-1.966-.742-.576-.418-.96-.99-1.292-1.56"/>
        </g>
        <g fill="#0D83DD" opacity=".156">
            <path d="M299.538 281.144l-.002-.012s.722.374.65.386l-.02.002-.02.004c-.072.011-.61-.392-.61-.392l.002.012c-24.423 4.014-35.754 23.502-27.798 50.465 4.692 15.895 20.208 31.673 29.47 43.086 14.81 18.253 17.536 26.098 17.536 26.098s.017-.044.015-.109c.014.056.031.087.031.087s.007-.043.01-.104l.038.097s0-.035-.004-.091l.028.1s.158-8.305 8.673-30.29c5.325-13.747 14.793-33.522 14.402-50.105-.664-28.13-17.947-43.04-42.401-39.234"/>
            <path d="M315.114 309.738c.898 5.74-2.974 11.126-8.65 12.035-5.675.908-11.004-3.008-11.902-8.747-.896-5.739 2.976-11.126 8.651-12.034 5.674-.908 11.003 3.007 11.9 8.746"/>
        </g>
        <path fill="#F74183" d="M318.69 267.015V267s.745.532.662.532h-.046c-.084 0-.616-.532-.616-.532v.015c-28.096.115-44.224 19.269-40.032 49.865 2.472 18.039 17.107 37.826 25.49 51.8 13.41 22.346 15.088 31.32 15.088 31.32s.029-.044.038-.115c.006.063.02.1.02.1s.014-.045.03-.11c.012.065.025.11.025.11l.01-.1.015.115s1.633-8.974 15.042-31.32c8.384-13.974 22.474-33.761 24.945-51.8 4.192-30.596-12.576-49.75-40.671-49.865"/>
        <path fill="#CDE6F8" d="M328 301.5c0 6.352-5.15 11.5-11.5 11.5-6.352 0-11.5-5.148-11.5-11.5s5.148-11.5 11.5-11.5c6.35 0 11.5 5.148 11.5 11.5"/>
    </g>
</svg>
