<svg xmlns="http://www.w3.org/2000/svg" width="376" height="150" viewBox="0 0 376 150">
    <g fill="#1565B0" fill-rule="evenodd">
        <path d="M59.315 76.944c.09-.67.739-1.312 3.05-1.1 2.767.254 15.025 2.806 24.258 4.58 7.47 1.436 10.675 1.667 10.768.915.095-.773-3.25-1.688-9.39-3.04-12.463-2.745-32.912-6.165-34.26-4.938-.791.722-.268 1.725.634 2.668-19.656-3.607-37.597-6.54-37.597-6.54l-.197 3.099s8.496 1.929 20.207 4.453c-1.177.293-2.177.71-2.863 1.298C30.03 81.67 72.832 90.665 73.17 88.915c.338-1.751-26.581-7.132-30.554-8.444-2.138-.706-.602-1.41 1.27-1.912a1651.55 1651.55 0 0 0 20.586 4.238c.58.85 2.08 1.867 5.41 2.94 5.914 1.908 14.63 3.777 21.384 4.875 6.876 1.118 10.256 1.316 9.88.459-.34-.771-5.118-1.577-9.497-2.442-6.547-1.293-14.301-2.676-19.147-4.27 17.16 3.267 31.694 5.508 32.023 3.804.416-2.152-22.634-7.001-45.21-11.22" opacity=".15"/>
        <path d="M37.994 16.968h-.854a.699.699 0 0 0-.315.081c-.2-.724-.43-1.348-.693-1.838l1.112-1.479a.308.308 0 0 0-.492-.37l-.972 1.294c-.309-.404-.655-.636-1.036-.684l.047-1.588a.309.309 0 0 0-.298-.318h-.01a.31.31 0 0 0-.308.298l-.049 1.678a1.972 1.972 0 0 0-.77.502l-.707-1.16a.307.307 0 1 0-.525.322l.824 1.35c-.255.402-.469.905-.65 1.484l-1.697-.905a.309.309 0 0 0-.29.543l1.814.966c-1.585 6.267.001 19.748-.887 22.233-.592 1.657-2.527 2.027-4.262 2C27.338 24.898 26.336 8 20.702 8c-4.28 0-5.852 9.793-6.175 21.75-2.006-4.25-1.117-11.21-1.279-15.636h.845a.706.706 0 1 0 0-1.415h-.853c-.033 0-.06.015-.092.02-.076-.643-.197-1.193-.379-1.629l.925-1.23a.285.285 0 0 0-.056-.4.29.29 0 0 0-.399.058l-.776 1.032a1.576 1.576 0 0 0-.235-.258c-.289-.242-.567-.373-.835-.423l.037-1.255a.286.286 0 0 0-.276-.293c-.182.02-.287.118-.293.275l-.038 1.3c-.284.088-.55.29-.8.578l-.57-.936a.285.285 0 0 0-.39-.096.285.285 0 0 0-.095.391l.693 1.14a7.5 7.5 0 0 0-.647 1.415l-1.452-.774a.29.29 0 0 0-.384.117.286.286 0 0 0 .117.386l1.538.82c-1.44 4.773-1.43 13.983 1.105 19.8 1.036 2.378 2.756 3.566 4.531 4.127.043 5.19.251 10.5.522 15.386-2.08 1.139-4.358 1.918-5.053.412-.976-2.114-1.49-12.653-3.347-18.59l.85-.042a.285.285 0 0 0 .27-.299c-.009-.155-.12-.274-.299-.27l-1.006.051c-.287-.83-.604-1.55-.958-2.12l.992-1.468a.285.285 0 0 0-.077-.394.286.286 0 0 0-.394.076l-.87 1.287c-.294-.363-.613-.62-.956-.764l-.028-1.334a.284.284 0 0 0-.285-.279h-.005a.285.285 0 0 0-.279.29l.026 1.189c-.016-.002-.03-.006-.047-.006-.332 0-.626.18-.889.486l-.448-.657a.287.287 0 0 0-.394-.076.285.285 0 0 0-.075.396l.574.843c-.229.424-.424.97-.585 1.62l-1.304-.613a.278.278 0 0 0-.377.137.282.282 0 0 0 .136.377l1.42.666c-1.58 7.908 1.228 27.745 9.5 25.907 1.624-.36 3.01-.93 4.23-1.606.59 8.743 1.267 15.12 1.267 15.12l8.475-.23S26.4 59.32 26.877 44.982c1.94.764 4.215 1.27 6.423.81 4.14-.862 5.55-18.861 3.843-27.41h.851a.706.706 0 1 0 0-1.413"/>
        <path d="M294.519 123.253c.165-1.206 1.332-2.362 5.493-1.98 4.98.457 27.054 5.052 43.68 8.247 13.45 2.586 19.222 3.002 19.388 1.647.17-1.392-5.852-3.04-16.906-5.474-22.442-4.943-59.263-11.1-61.69-8.89-1.424 1.298-.496 3.104 1.126 4.801-35.39-6.495-67.685-11.774-67.685-11.774l.31 5.868s14.878 3.363 35.485 7.79c-2.016.526-3.731 1.26-4.92 2.276-7.013 6.001 70.058 22.196 70.667 19.044.609-3.15-47.864-12.84-55.017-15.203-3.767-1.245-1.202-2.489 2.069-3.389a2947.575 2947.575 0 0 0 37.342 7.658c1.087 1.515 3.798 3.316 9.686 5.214 10.65 3.434 26.344 6.8 38.504 8.776 12.38 2.013 18.468 2.37 17.79.828-.61-1.389-9.214-2.84-17.1-4.398-11.605-2.292-25.325-4.74-34.074-7.554 30.698 5.808 56.668 9.778 57.26 6.715.748-3.875-40.756-12.607-81.408-20.202" opacity=".152"/>
        <path d="M252.51 39.576c-7.421 0-8.163 35.454-10.39 40.813-1.126 2.711-4.815 1.307-8.187-.74.44-8.792.778-18.344.848-27.684 2.875-1.01 5.66-3.162 7.34-7.442 3.126-7.967 3.883-19.476 3.038-28.309-.86-8.993-2.72-13.328-5.922-12.64-2.886.617-2.41 6.874-2.487 12.64-.112 8.277.315 17.985-2.03 24.531C234.282 18.505 231.785 0 224.68 0c-9.128 0-10.751 30.42-10.166 60.081-2.81.048-5.945-.62-6.904-3.603-1.148-3.57-.394-19.739-.431-31.882-.03-9.824-1.615-13.945-4.764-13.878-3.236.07-4.335 4.535-5.015 12.65-1.38 16.478.787 43.246 6.87 44.654 3.574.827 7.265-.073 10.407-1.446.773 25.805 2.952 49.267 2.952 49.267s2.163 2.267 6.8 2.267c4.639 0 6.93-1.855 6.93-1.855s1.097-11.454 2.05-27.17c1.97 1.211 4.24 2.201 6.856 2.847 16.699 4.123 19.668-52.356 12.246-52.356"/>
    </g>
</svg>
