<svg xmlns="http://www.w3.org/2000/svg" width="253" height="100" viewBox="0 0 253 100">
    <g fill="#1565B0" fill-rule="evenodd">
        <path d="M41.088 51.057c.061-.455.496-.89 2.047-.746 1.855.172 10.078 1.903 16.272 3.106 5.011.974 7.161 1.131 7.224.621.064-.524-2.18-1.145-6.299-2.062-8.361-1.862-22.079-4.182-22.983-3.35-.53.49-.18 1.17.425 1.81C24.588 47.99 12.552 46 12.552 46l-.132 2.102s5.7 1.309 13.556 3.02c-.79.2-1.46.483-1.92.881-2.614 2.26 26.1 8.361 26.326 7.174.227-1.188-17.831-4.838-20.496-5.728-1.435-.479-.404-.956.852-1.297 4.377.938 9.136 1.937 13.81 2.875.39.577 1.396 1.266 3.629 1.995 3.967 1.294 9.814 2.561 14.345 3.306 4.613.758 6.88.893 6.628.311-.228-.523-3.434-1.07-6.371-1.656-4.392-.877-9.594-1.815-12.845-2.896 11.512 2.216 21.262 3.736 21.483 2.58.279-1.46-15.184-4.749-30.329-7.61" opacity=".15"/>
        <path d="M25.945 10.97h-.573a.473.473 0 0 0-.212.055 6.066 6.066 0 0 0-.466-1.224l.748-.984a.204.204 0 0 0-.042-.287.21.21 0 0 0-.289.04l-.653.862c-.208-.269-.44-.423-.696-.455l.032-1.058a.207.207 0 0 0-.2-.211h-.007a.207.207 0 0 0-.207.198l-.033 1.117a1.326 1.326 0 0 0-.518.334l-.474-.772a.207.207 0 0 0-.285-.068.205.205 0 0 0-.068.282l.553.9a4.162 4.162 0 0 0-.436.987l-1.14-.603a.208.208 0 0 0-.28.085.204.204 0 0 0 .085.277l1.219.643c-1.065 4.172 0 13.148-.596 14.802-.398 1.103-1.698 1.35-2.864 1.332C18.787 16.25 18.113 5 14.328 5c-2.875 0-3.93 6.52-4.148 14.48-1.348-2.83-.75-7.464-.86-10.41h.569c.262 0 .474-.21.474-.47 0-.261-.212-.472-.474-.472h-.574c-.022 0-.04.01-.061.013-.051-.427-.133-.794-.255-1.084l.621-.82a.189.189 0 0 0-.037-.265.195.195 0 0 0-.268.038l-.522.687a1.052 1.052 0 0 0-.157-.172 1.234 1.234 0 0 0-.561-.28l.025-.837a.191.191 0 0 0-.186-.195c-.122.014-.193.08-.197.184l-.025.865c-.191.059-.37.193-.538.384l-.383-.622a.193.193 0 0 0-.262-.064.188.188 0 0 0-.063.26l.465.76c-.16.257-.304.574-.435.94l-.975-.515a.196.196 0 0 0-.258.078.19.19 0 0 0 .079.257l1.033.546c-.968 3.178-.96 9.31.742 13.182.696 1.583 1.852 2.374 3.044 2.748.029 3.456.169 6.99.35 10.243-1.397.758-2.927 1.278-3.394.275-.656-1.407-1.001-8.424-2.248-12.376l.57-.029a.19.19 0 0 0 .181-.198c-.005-.104-.08-.183-.2-.18l-.676.034c-.192-.553-.405-1.033-.643-1.412l.666-.978a.188.188 0 0 0-.052-.262.193.193 0 0 0-.264.051l-.585.857a1.676 1.676 0 0 0-.642-.51l-.019-.887a.19.19 0 0 0-.191-.185H2.99a.19.19 0 0 0-.187.192l.017.792c-.01-.001-.02-.004-.031-.004-.223 0-.42.12-.597.323l-.301-.437a.194.194 0 0 0-.265-.05.188.188 0 0 0-.05.263l.385.562a4.631 4.631 0 0 0-.393 1.078l-.876-.408a.187.187 0 0 0-.253.09.187.187 0 0 0 .091.252l.954.443c-1.062 5.266.825 18.472 6.382 17.249 1.091-.24 2.023-.62 2.841-1.07.397 5.821.852 10.066.852 10.066l5.694-.152s.903-8.68 1.224-18.227c1.303.509 2.832.845 4.315.539 2.78-.574 3.728-12.557 2.582-18.249h.571c.263 0 .475-.21.475-.47s-.212-.47-.475-.47"/>
        <path d="M197.802 82.102c.111-.818.894-1.602 3.685-1.343 3.342.31 18.149 3.426 29.302 5.592 9.023 1.754 12.895 2.036 13.006 1.117.115-.944-3.925-2.061-11.34-3.712-15.056-3.351-39.756-7.527-41.385-6.028-.955.88-.332 2.105.756 3.256C168.086 76.58 146.42 73 146.42 73l.208 3.979s9.981 2.28 23.805 5.282c-1.353.357-2.503.854-3.3 1.544-4.705 4.069 46.997 15.05 47.405 12.913.409-2.137-32.109-8.707-36.907-10.309-2.527-.844-.806-1.688 1.388-2.298a1958.77 1958.77 0 0 0 25.05 5.193c.73 1.027 2.548 2.248 6.498 3.535 7.144 2.329 17.672 4.61 25.83 5.951 8.305 1.365 12.389 1.607 11.935.562-.41-.942-6.182-1.927-11.472-2.982-7.785-1.555-16.99-3.215-22.858-5.123 20.593 3.939 38.015 6.63 38.412 4.554.501-2.628-27.34-8.549-54.612-13.7" opacity=".152"/>
        <path d="M170.835 26.136c-5.002 0-5.503 23.414-7.003 26.953-.76 1.79-3.246.863-5.519-.49.297-5.805.525-12.113.572-18.281 1.938-.667 3.815-2.088 4.947-4.915 2.107-5.261 2.617-12.862 2.048-18.695-.58-5.94-1.833-8.802-3.992-8.348-1.945.408-1.624 4.54-1.676 8.347-.075 5.467.212 11.878-1.368 16.201C158.549 12.22 156.866 0 152.077 0c-6.153 0-7.246 20.089-6.852 39.678-1.893.031-4.007-.41-4.653-2.38-.774-2.357-.266-13.036-.291-21.055-.02-6.488-1.088-9.21-3.21-9.165-2.182.046-2.923 2.995-3.381 8.354-.93 10.882.53 28.56 4.63 29.49 2.41.546 4.897-.048 7.015-.955.52 17.042 1.99 32.536 1.99 32.536S148.781 78 151.907 78c3.126 0 4.67-1.225 4.67-1.225s.74-7.564 1.383-17.943c1.327.8 2.857 1.453 4.62 1.88 11.255 2.723 13.257-34.576 8.254-34.576"/>
    </g>
</svg>
