<svg xmlns="http://www.w3.org/2000/svg" xmlns:xlink="http://www.w3.org/1999/xlink" width="436" height="281" viewBox="0 0 436 281">
    <defs>
        <path id="a" d="M0 .129h443.468v224.803H0z"/>
        <path id="c" d="M0 .197h310.16v63.666H0z"/>
        <path id="e" d="M0 .334h289.838V64H0z"/>
    </defs>
    <g fill="none" fill-rule="evenodd" transform="translate(-8 -1)">
        <g transform="translate(0 .871)">
            <mask id="b" fill="#fff">
                <use xlink:href="#a"/>
            </mask>
            <text fill="#062942" font-family="Helvetica" font-size="20" mask="url(#b)">
                <tspan x="8" y="48">2017</tspan>
            </text>
            <text fill="#062942" font-family="Helvetica" font-size="20" mask="url(#b)">
                <tspan x="8" y="127">2018</tspan>
            </text>
            <text fill="#062942" font-family="Helvetica" font-size="20" mask="url(#b)">
                <tspan x="8" y="207">2019</tspan>
            </text>
            <path fill="#E6E6E6" d="M411.635 63.795H132.614c-17.582 0-31.833-14.252-31.833-31.833 0-17.581 14.25-31.833 31.833-31.833h279.02c17.582 0 31.834 14.252 31.834 31.833 0 17.58-14.252 31.833-31.833 31.833M411.635 144.363H107.739c-17.582 0-31.833-14.252-31.833-31.833 0-17.58 14.25-31.833 31.833-31.833h303.896c17.58 0 31.833 14.252 31.833 31.833 0 17.581-14.252 31.833-31.833 31.833M411.635 224.932H139.928c-17.581 0-31.833-14.252-31.833-31.833 0-17.58 14.252-31.833 31.833-31.833h271.707c17.58 0 31.833 14.252 31.833 31.833 0 17.581-14.252 31.833-31.833 31.833" mask="url(#b)"/>
            <g mask="url(#b)">
                <g transform="translate(76 -.068)">
                    <mask id="d" fill="#fff">
                        <use xlink:href="#c"/>
                    </mask>
                    <path fill="#0D83DD" d="M278.327 63.863H31.833C14.253 63.863 0 49.61 0 32.03 0 14.449 14.252.197 31.832.197h246.495c17.582 0 31.834 14.252 31.834 31.833 0 17.58-14.252 31.833-31.834 31.833" mask="url(#d)"/>
                </g>
                <path fill="#164B9F" d="M292.585 144.363H107.833C90.253 144.363 76 130.111 76 112.53c0-17.58 14.252-31.833 31.833-31.833h184.752c17.581 0 31.833 14.252 31.833 31.833 0 17.581-14.252 31.833-31.833 31.833"/>
                <g transform="translate(76 160.932)">
                    <mask id="f" fill="#fff">
                        <use xlink:href="#e"/>
                    </mask>
                    <path fill="#0D83DD" d="M258.005 64H31.833C14.253 64 0 49.748 0 32.167 0 14.586 14.253.334 31.833.334h226.172c17.58 0 31.833 14.252 31.833 31.833 0 17.581-14.252 31.833-31.833 31.833" mask="url(#f)"/>
                </g>
            </g>
        </g>
        <text fill="#FFF" font-family="Helvetica" font-size="20">
            <tspan x="123.186" y="47.991">83%</tspan>
        </text>
        <text fill="#FFF" font-family="Helvetica" font-size="20">
            <tspan x="123.186" y="126.916">71%</tspan>
        </text>
        <text fill="#FFF" font-family="Helvetica" font-size="20">
            <tspan x="123.186" y="205.841">78%</tspan>
        </text>
        <ellipse cx="176.825" cy="274.5" fill="#0D83DD" rx="6.825" ry="6.5"/>
        <text fill="#0D83DD" font-family="Helvetica" font-size="20" letter-spacing=".02">
            <tspan x="192" y="287">Net Satisfaction</tspan>
        </text>
    </g>
</svg>
