<svg xmlns="http://www.w3.org/2000/svg" xmlns:xlink="http://www.w3.org/1999/xlink" width="92" height="170" viewBox="0 0 92 170">
    <defs>
        <path id="a" d="M0 .15h99.707v7.66H0z"/>
    </defs>
    <g fill="none" fill-rule="evenodd">
        <g transform="translate(-8 162.005)">
            <mask id="b" fill="#fff">
                <use xlink:href="#a"/>
            </mask>
            <path fill="#164B9F" d="M0 3.98c0 2.115 22.32 3.83 49.853 3.83s49.854-1.715 49.854-3.83S77.386.15 49.853.15C22.32.15 0 1.865 0 3.98" mask="url(#b)" opacity=".11"/>
        </g>
        <path fill="#CEE9FD" d="M38.557 28.958c.432.314.942.544 1.505.658a3.85 3.85 0 0 0 1.55 0 3.892 3.892 0 0 0 3.026-3.03l1.056-5.215.238-1.172.122.412c.014-.23.028-.442.045-.644.454-5.376 2.09-1.13 4.468-1.896.687-.226 1.061-1.371 1.325-2.86-.05-.059-.1-.122-.15-.183-.554-.713-.787-1.111-.676-1.197.1-.077.56.337 1.061.95.077-.514.15-1.063.217-1.616l1.286.213a.223.223 0 0 0 .221-.346l-1.272-1.868-.255-.373-.014-.022v-.003l-.02-.025a.593.593 0 0 1-.033-.475l.37-1c.105-.285.174-.582.207-.882.01-.13.025-.255.03-.332a8.991 8.991 0 0 0-.038-1.849c-.039-.332-.1-.65-.178-.951-1.519-1.758-2.613-1.614-2.613-1.614 1.172 3.872-2.465 5.655-2.465 5.655l-1.294-.553c-1.946 6.658-3.434 6.763-7.245 6.426l.01-.05-.013.05-.316 1.576-1.081 5.314-.139.68-.468 2.317a3.861 3.861 0 0 0 1.533 3.905"/>
        <path fill="#68B5EB" d="M52.291 10.74l.289.424v-.007zM30.873 152.782c.37-1.693-.44-3.32-2.138-3.69a3.143 3.143 0 0 0-3.74 2.399l-.788 3.615c.818.272 1.335.852 1.831 1.408.555.62 1.077 1.207 1.98 1.336.624.088 1.275-.14 1.837-.457l1.018-4.611z"/>
        <path fill="#062942" d="M22.384 163.128l5.716.258.184-1.652c2.96-.093 5.734 1.66 14.982 1.936.237.008.47.015.703.018a3.131 3.131 0 0 0 1.224-4.444c-.754-.307-1.69-.509-2.852-.553-5.866-.219-11.085-1.222-12.248-1.458-.532.296-1.146.528-1.764.528a2 2 0 0 1-.332-.026c-1.037-.148-1.628-.808-2.202-1.45-.477-.534-.932-1.044-1.635-1.294l-1.776 8.137z"/>
        <path fill="#68B5EB" d="M49.75 153.958c.37-1.692-.636-1.545-2.335-1.914-1.697-.369-3.074-.841-3.444.852l-1.113 5.186c.825.273 1.343.853 1.842 1.413.555.62 1.077 1.206 1.98 1.336.635.088 1.298-.148 1.867-.473l1.203-6.4z"/>
        <path fill="#062942" d="M41.058 166.12l5.563.188.16-1.44c2.959-.091 5.733 1.661 14.981 1.938a78.28 78.28 0 0 0 5.386-.023c-.037-1.46-.61-3.821-5.866-4.014-5.812-.213-11.205-2.341-12.467-2.588-.547.31-1.183.56-1.823.56a2.02 2.02 0 0 1-.334-.025c-1.036-.148-1.627-.808-2.2-1.45-.481-.539-.936-1.051-1.646-1.299l-1.754 8.152z"/>
        <path fill="#FCB3CD" d="M35.36 24.154c-1.767 3.816-3.51 7.624-5.24 11.452-1.727 3.833-3.445 7.653-5.097 11.575a77.128 77.128 0 0 0-1.218 3.053c-.103.283-.2.553-.318.94l-.048.171-.051.199-.06.285a4.035 4.035 0 0 0-.053.656c.004.133.015.267.034.4l.033.197.024.104.056.203c.02.07.042.139.054.171l.097.249.084.183c.216.447.383.703.557.978.17.265.337.51.502.744.66.934 1.317 1.778 1.981 2.622.665.84 1.334 1.664 2.006 2.482A433.874 433.874 0 0 0 36.9 70.44a2.219 2.219 0 0 0 3.125.213 2.204 2.204 0 0 0 .308-2.999l-.012-.015a429.342 429.342 0 0 1-7.466-9.999c-.605-.84-1.202-1.681-1.783-2.523a58.287 58.287 0 0 1-1.647-2.496 15.463 15.463 0 0 1-.34-.58 2.656 2.656 0 0 1-.194-.397c.002.001 0-.006.004.004.01.02.02.042.028.065l.026.076a1.4 1.4 0 0 1 .03.11l.011.056a2.011 2.011 0 0 1 .05.45 2.317 2.317 0 0 1-.048.556c-.01.037.002.005.002.01.003-.006.001.001.009-.017.046-.108.14-.325.234-.527.39-.843.864-1.771 1.331-2.676 1.898-3.653 3.913-7.319 5.925-10.968 2.018-3.65 4.06-7.3 6.11-10.928l.002-.005a4.056 4.056 0 0 0-1.55-5.532 4.079 4.079 0 0 0-5.695 1.837"/>
        <path fill="#FA8DB5" d="M48.914 57.51c1.56-16.252 1.9-37.038-4.384-38.392-11.113-2.393-12.57 24.829-13.147 36.98 6.315.985 13.044 1.313 17.53 1.412"/>
        <path fill="#005DAB" d="M24.562 153.405l7.876 1.439a2131.086 2131.086 0 0 0 4.68-23.206 876.722 876.722 0 0 0 2.203-11.667c.356-1.959.7-3.918 1.014-5.935l.233-1.527c.041-.244.07-.528.104-.808l.1-.834c.078-.571.096-1.07.137-1.597l.059-.782.044-.753c.237-4.002.415-7.927.596-11.873l.488-11.321c.086.151.17.306.256.461 1.135 2.106 2.145 4.43 3.018 6.81 1.732 4.758 3.025 9.811 3.5 14.662a31.1 31.1 0 0 1 .14 3.53 23.719 23.719 0 0 1-.092 1.645l-.219 1.996-.954 8.115c-1.32 10.848-2.7 21.715-4.092 32.57l8.035 1.19a4943.483 4943.483 0 0 0 5.375-32.454l1.287-8.156.308-2.08c.103-.827.177-1.645.218-2.446.08-1.601.05-3.15-.045-4.674-.196-3.043-.658-5.968-1.261-8.849a79.275 79.275 0 0 0-2.312-8.488 66.225 66.225 0 0 0-2.238-5.81h.018c-2.405-6.333-1.294-7.683-1.664-11.372-.344-3.408-2.579-7.44-2.771-10.505.092-.926.205-2.221.293-3.166-4.49-.1-11.19-.467-17.502-1.452-.077 1.667-.306 27.71-.306 27.71l-.104 11.785c-.045 3.921-.093 7.86-.189 11.719l-.018.722-.026.694c-.019.454-.026.94-.063 1.346l-.048.631c-.015.215-.022.417-.052.66l-.144 1.402a267.016 267.016 0 0 1-.703 5.747 942.912 942.912 0 0 1-1.627 11.627 2272.84 2272.84 0 0 1-3.552 23.294"/>
        <path fill="#FCB3CD" d="M39.454 23.99a218.422 218.422 0 0 0-1.972 11.99c-.265 2.02-.494 4.057-.642 6.155-.03.533-.067 1.054-.087 1.595-.01.554-.025 1.097-.024 1.66l.036.892c.02.307.011.564.071.941.046.352.098.702.155 1.051.025.191.067.297.101.445l.108.414c.14.574.3 1.046.45 1.56.151.513.317.983.474 1.476.322.972.65 1.927.987 2.876a322.128 322.128 0 0 0 2.059 5.648c1.4 3.743 2.831 7.453 4.297 11.169a2.544 2.544 0 0 0 3.297 1.43 2.533 2.533 0 0 0 1.492-3.125l-.006-.017a675.641 675.641 0 0 1-3.54-11.318 321.919 321.919 0 0 1-1.662-5.661 136.02 136.02 0 0 1-.767-2.813c-.115-.46-.249-.937-.348-1.384-.1-.446-.226-.925-.292-1.322l-.06-.31c-.015-.095-.053-.228-.045-.285a5.876 5.876 0 0 0-.021-.426c-.022-.114-.001-.355 0-.543l.014-.596.106-1.313c.046-.449.11-.915.164-1.37.251-1.85.586-3.743.96-5.639.38-1.898.794-3.8 1.234-5.701.44-1.893.91-3.816 1.393-5.665l.005-.02a4.06 4.06 0 0 0-2.913-4.953 4.072 4.072 0 0 0-5.024 3.159"/>
        <path fill="#005DAB" d="M48.968 65.473s-1.603 5.41-4.931 8.115l4.315 3.443s2.59-2.09 2.59-5.041c0-2.952-1.974-6.517-1.974-6.517"/>
        <path fill="#0D83DD" d="M51.377 9.307c-.054.378.066.708.268.737.203.028.41-.256.464-.633.054-.379-.067-.709-.269-.738-.202-.028-.41.256-.463.634"/>
        <path fill="#062942" d="M39.044 15.104l-.014.062c3.814.336 5.3.233 7.246-6.426l1.295.554s3.636-1.785 2.465-5.657c0 0 1.418-.185 3.267 2.458C52.818 2.097 49.166.148 45.658.01c-5.609-.222-7.073 3.448-7.317 7.524-.003.045-.007.089-.007.13-.007.103-.015.202-.015.298-.089 2.623 1.07 4.128.725 7.142"/>
        <path fill="#CEE9FD" d="M48.29 8.298s.278-2.766-1.202-2.859c-1.48-.092-1.387 2.306-.925 3.505.463 1.198 1.295 2.674 1.665 2.766.37.092.462-3.412.462-3.412"/>
        <path fill="#062942" d="M50.806 8.524c.062.036.188-.064.374-.212.18-.143.442-.346.693-.367a.454.454 0 0 1 .317.08c.09.06.16.162.218.255.113.19.177.34.248.336.067-.002.137-.17.091-.454a.905.905 0 0 0-.24-.482.835.835 0 0 0-.677-.24 1.107 1.107 0 0 0-.609.267 1.48 1.48 0 0 0-.315.373c-.138.235-.16.41-.1.444"/>
        <path fill="#0D83DD" d="M53.08 13.104s-.463-.346-.879-.207"/>
        <path fill="#68B5EB" d="M52.201 12.897c.03.065.21.058.426.127.22.063.41.136.452.08.044-.053-.104-.241-.383-.324a.63.63 0 0 0-.37 0c-.095.032-.136.087-.125.117"/>
    </g>
</svg>
