<svg xmlns="http://www.w3.org/2000/svg" xmlns:xlink="http://www.w3.org/1999/xlink" width="138" height="243" viewBox="0 0 138 243">
    <defs>
        <path id="a" d="M0 .214h142.58v10.929H0z"/>
    </defs>
    <g fill="none" fill-rule="evenodd">
        <g transform="translate(-5 231.165)">
            <mask id="b" fill="#fff">
                <use xlink:href="#a"/>
            </mask>
            <path fill="#164B9F" d="M0 5.679c0 3.018 31.917 5.464 71.29 5.464 39.372 0 71.29-2.446 71.29-5.464 0-3.018-31.918-5.465-71.29-5.465C31.917.214 0 2.661 0 5.68" mask="url(#b)" opacity=".11"/>
        </g>
        <path fill="#CEE9FD" d="M61.576 41.32c.619.449 1.348.776 2.153.938.368.076.74.11 1.105.11.372 0 .75-.034 1.11-.11 2.116-.438 3.872-2.086 4.329-4.322l1.51-7.442.34-1.672.175.588c.02-.328.04-.631.064-.92.65-7.67 2.988-1.612 6.389-2.705.982-.322 1.517-1.956 1.894-4.081-.071-.083-.143-.174-.214-.26-.793-1.018-1.125-1.586-.967-1.708.142-.11.8.48 1.518 1.356.11-.734.214-1.518.31-2.307l1.839.304c.28.044.475-.264.317-.493l-1.82-2.667-.364-.532-.02-.03v-.005l-.028-.035a.845.845 0 0 1-.048-.68l.527-1.426c.151-.407.25-.83.298-1.259.015-.185.035-.362.043-.473.071-.938.052-1.818-.055-2.638a10.104 10.104 0 0 0-.254-1.357c-2.172-2.508-3.738-2.303-3.738-2.303 1.677 5.525-3.524 8.07-3.524 8.07l-1.85-.79c-2.783 9.5-4.911 9.65-10.36 9.17l.015-.072-.02.072-.451 2.248-1.547 7.583-.198.97-.67 3.305a5.504 5.504 0 0 0 2.192 5.573"/>
        <path fill="#68B5EB" d="M81.216 15.325l.413.606v-.012zM50.588 218.004c.53-2.415-.629-4.736-3.057-5.264a4.494 4.494 0 0 0-5.348 3.422l-1.127 5.159c1.17.389 1.91 1.215 2.618 2.01.794.884 1.54 1.722 2.831 1.906.893.125 1.825-.2 2.628-.653l1.455-6.58z"/>
        <path fill="#062942" d="M38.45 232.767l8.172.369.265-2.358c4.232-.132 8.199 2.368 21.424 2.763.338.01.672.021 1.005.026a4.467 4.467 0 0 0 2.428-3.774 4.442 4.442 0 0 0-.677-2.568c-1.08-.437-2.418-.726-4.08-.79-8.388-.31-15.852-1.742-17.513-2.079-.762.422-1.64.753-2.523.753-.159 0-.317-.01-.476-.037-1.482-.21-2.328-1.153-3.148-2.068-.682-.763-1.333-1.49-2.338-1.848l-2.54 11.611z"/>
        <path fill="#68B5EB" d="M77.582 219.683c.529-2.415-.91-2.205-3.338-2.731-2.428-.527-4.396-1.2-4.925 1.215l-1.592 7.4c1.18.39 1.92 1.217 2.634 2.017.794.884 1.54 1.72 2.83 1.905.91.126 1.858-.21 2.672-.674l1.72-9.132z"/>
        <path fill="#062942" d="M65.153 237.036l7.955.268.228-2.053c4.232-.13 8.2 2.37 21.424 2.764 2.877.084 5.443.057 7.702-.032-.053-2.084-.873-5.453-8.39-5.727-8.31-.305-16.022-3.341-17.827-3.694-.782.442-1.692.8-2.607.8-.158 0-.318-.01-.477-.037-1.48-.21-2.327-1.153-3.146-2.068-.688-.77-1.339-1.5-2.354-1.853l-2.508 11.632z"/>
        <path fill="#FCB3CD" d="M57.004 34.465a1974.83 1974.83 0 0 0-7.494 16.341c-2.469 5.469-4.924 10.92-7.287 16.517-.59 1.414-1.167 2.8-1.742 4.357-.147.403-.287.787-.454 1.341l-.07.243-.072.284-.086.407c-.017.095-.044.3-.057.446-.012.165-.022.31-.018.49.006.19.021.38.048.57l.047.282.035.149.079.29c.03.1.06.196.078.243l.139.355.119.261c.31.639.549 1.004.797 1.396.243.378.482.727.718 1.06.944 1.333 1.883 2.538 2.833 3.743.95 1.2 1.907 2.374 2.868 3.542 3.85 4.662 7.756 9.199 11.723 13.728a3.177 3.177 0 0 0 4.467.304 3.14 3.14 0 0 0 .441-4.28l-.017-.021c-3.616-4.708-7.215-9.477-10.677-14.267a224.39 224.39 0 0 1-2.549-3.6c-.825-1.197-1.646-2.408-2.356-3.563a22.053 22.053 0 0 1-.486-.828c-.138-.246-.275-.526-.276-.566.002.002-.001-.008.005.006.015.03.03.06.04.092l.037.11c.016.05.03.103.043.155l.016.08a3.03 3.03 0 0 1 .071.644 3.3 3.3 0 0 1-.068.793c-.014.053.003.007.002.015.005-.01.002 0 .013-.025.066-.154.2-.465.334-.752.56-1.203 1.237-2.527 1.904-3.82 2.714-5.21 5.595-10.442 8.473-15.649a1978.273 1978.273 0 0 1 8.736-15.593l.005-.008a5.78 5.78 0 0 0-2.216-7.893c-2.802-1.57-6.354-.582-7.932 2.206-.076.133-.15.278-.214.415"/>
        <path fill="#FA8DB5" d="M76.387 82.062c2.232-23.191 2.718-52.85-6.27-54.782-15.891-3.415-17.973 35.428-18.8 52.766 9.031 1.405 18.654 1.873 25.07 2.016"/>
        <path fill="#005DAB" d="M41.564 218.894l11.262 2.053a3035.033 3035.033 0 0 0 6.692-33.113 1248.562 1248.562 0 0 0 3.152-16.647c.508-2.795 1-5.59 1.45-8.47l.333-2.179c.058-.347.1-.752.148-1.152l.143-1.19c.111-.815.138-1.526.195-2.278l.085-1.116.064-1.074c.338-5.71.592-11.311.852-16.943l.697-16.154c.123.216.243.437.366.659 1.623 3.005 3.067 6.321 4.316 9.715 2.476 6.79 4.327 14.001 5.004 20.923.159 1.72.238 3.415.201 5.037-.016.81-.064 1.59-.132 2.347l-.312 2.848-1.365 11.58c-1.888 15.479-3.862 30.984-5.85 46.475l11.49 1.695c2.602-15.427 5.183-30.844 7.685-46.307l1.84-11.638.44-2.969c.148-1.178.254-2.347.312-3.49a58.333 58.333 0 0 0-.064-6.668c-.28-4.342-.941-8.516-1.804-12.627a112.924 112.924 0 0 0-3.306-12.111 94.371 94.371 0 0 0-3.2-8.29h.027c-3.44-9.037-1.852-10.963-2.38-16.227-.492-4.864-3.687-10.616-3.963-14.99.133-1.322.293-3.17.42-4.517-6.423-.142-16.004-.667-25.028-2.073-.111 2.379-.439 39.539-.439 39.539l-.148 16.816c-.064 5.596-.132 11.217-.27 16.722l-.026 1.032-.037.99c-.027.648-.037 1.342-.09 1.92l-.069.9c-.021.306-.032.595-.074.942l-.207 2.001c-.29 2.69-.645 5.447-1.004 8.2-.73 5.511-1.524 11.053-2.328 16.59a3236.561 3236.561 0 0 1-5.078 33.239"/>
        <path fill="#FCB3CD" d="M62.86 34.23a311.054 311.054 0 0 0-1.532 8.536 291.8 291.8 0 0 0-1.288 8.575c-.38 2.882-.707 5.788-.92 8.782-.04.76-.094 1.504-.123 2.275-.013.792-.036 1.566-.035 2.369l.052 1.273c.027.438.016.804.101 1.343.067.502.14 1.002.222 1.5.036.272.096.422.145.634l.154.591c.201.819.428 1.493.644 2.226.215.732.452 1.402.677 2.106.46 1.387.93 2.75 1.411 4.104a459.001 459.001 0 0 0 2.945 8.06 955.288 955.288 0 0 0 6.145 15.936 3.64 3.64 0 0 0 4.714 2.041 3.612 3.612 0 0 0 2.134-4.46l-.008-.024a962.543 962.543 0 0 1-5.063-16.15 458.587 458.587 0 0 1-2.376-8.078c-.383-1.343-.75-2.686-1.097-4.013-.164-.657-.356-1.337-.498-1.976-.144-.636-.323-1.319-.418-1.885l-.085-.443c-.021-.136-.077-.324-.065-.406a8.367 8.367 0 0 0-.03-.608c-.032-.163-.001-.507.001-.775l.02-.85.15-1.874c.067-.64.16-1.305.236-1.955.36-2.639.837-5.34 1.373-8.046a283.073 283.073 0 0 1 1.763-8.135 306.38 306.38 0 0 1 1.993-8.083l.008-.029c.81-3.096-1.055-6.26-4.166-7.067-3.112-.807-6.291 1.049-7.102 4.145-.03.115-.06.247-.083.362"/>
        <path fill="#005DAB" d="M76.465 93.423s-2.292 7.72-7.053 11.58l6.172 4.912s3.702-2.983 3.702-7.193c0-4.211-2.821-9.299-2.821-9.299"/>
        <path fill="#0D83DD" d="M79.909 13.28c-.077.54.095 1.01.384 1.051.29.04.586-.364.663-.903.077-.54-.096-1.01-.384-1.052-.29-.04-.587.364-.663.904"/>
        <path fill="#062942" d="M62.273 21.551l-.02.09c5.453.479 7.58.331 10.362-9.17l1.851.79s5.2-2.546 3.525-8.072c0 0 2.028-.263 4.673 3.509C81.97 2.992 76.747.21 71.73.014c-8.02-.316-10.114 4.92-10.463 10.736-.005.064-.01.127-.01.185-.01.148-.022.29-.022.427-.126 3.742 1.53 5.89 1.037 10.19"/>
        <path fill="#CEE9FD" d="M75.495 11.84s.397-3.947-1.72-4.079c-2.115-.131-1.982 3.29-1.321 5s1.85 3.817 2.38 3.948c.529.132.661-4.869.661-4.869"/>
        <path fill="#062942" d="M79.093 12.163c.088.05.269-.091.534-.302.258-.204.632-.495.992-.524a.65.65 0 0 1 .453.114c.127.086.23.232.312.364.161.272.252.486.354.48.096-.003.196-.242.13-.648a1.29 1.29 0 0 0-.344-.688 1.195 1.195 0 0 0-.967-.344c-.37.035-.663.208-.87.382-.21.177-.352.367-.452.533-.197.335-.228.585-.142.633"/>
        <path fill="#0D83DD" d="M82.344 18.699s-.662-.494-1.256-.297"/>
        <path fill="#68B5EB" d="M81.088 18.402c.044.094.299.084.609.181.313.091.587.196.647.116.063-.077-.15-.345-.548-.464a.902.902 0 0 0-.53.001c-.135.046-.195.124-.178.166"/>
    </g>
</svg>
