<svg xmlns="http://www.w3.org/2000/svg" xmlns:xlink="http://www.w3.org/1999/xlink" width="198" height="337" viewBox="0 0 198 337">
    <defs>
        <path id="a" d="M0 .298h197.419V15.48H0z"/>
    </defs>
    <g fill="none" fill-rule="evenodd">
        <g transform="translate(0 321.168)">
            <mask id="b" fill="#fff">
                <use xlink:href="#a"/>
            </mask>
            <path fill="#164B9F" d="M0 7.89c0 4.193 44.193 7.591 98.709 7.591 54.515 0 98.71-3.398 98.71-7.591 0-4.194-44.195-7.592-98.71-7.592C44.193.298-.001 3.696-.001 7.89" mask="url(#b)" opacity=".11"/>
        </g>
        <path fill="#CEE9FD" d="M92.183 57.407a7.605 7.605 0 0 0 2.98 1.304c.51.105 1.026.154 1.53.154a7.52 7.52 0 0 0 1.537-.154c2.93-.608 5.361-2.898 5.994-6.005l2.09-10.34.472-2.323.242.817c.027-.455.055-.876.088-1.276.9-10.658 4.138-2.242 8.847-3.76 1.36-.448 2.1-2.718 2.623-5.67-.1-.115-.198-.241-.297-.362-1.098-1.413-1.558-2.203-1.339-2.372.197-.154 1.109.668 2.102 1.884.153-1.02.296-2.11.428-3.205l2.547.422a.442.442 0 0 0 .439-.685l-2.52-3.705-.504-.74-.028-.042v-.006l-.039-.049a1.178 1.178 0 0 1-.065-.943l.73-1.983a7.357 7.357 0 0 0 .411-1.748c.022-.257.05-.504.06-.657a17.846 17.846 0 0 0-.076-3.666 14.081 14.081 0 0 0-.351-1.885c-3.008-3.485-5.176-3.2-5.176-3.2 2.322 7.676-4.88 11.211-4.88 11.211l-2.561-1.096c-3.853 13.199-6.8 13.407-14.346 12.74l.022-.1-.028.1-.625 3.123-2.14 10.535-.275 1.349-.927 4.592a7.66 7.66 0 0 0 3.035 7.741"/>
        <path fill="#68B5EB" d="M119.376 21.291l.572.842v-.015zM76.968 302.883c.733-3.356-.87-6.58-4.233-7.313a6.223 6.223 0 0 0-7.404 4.754l-1.56 7.166c1.618.541 2.643 1.69 3.624 2.793 1.099 1.229 2.132 2.392 3.92 2.649 1.237.173 2.526-.28 3.639-.908l2.014-9.141z"/>
        <path fill="#062942" d="M60.161 323.394l11.316.512.366-3.276c5.86-.183 11.353 3.29 29.664 3.838.47.016.93.03 1.392.037a6.208 6.208 0 0 0 2.424-8.811c-1.494-.607-3.347-1.009-5.648-1.097-11.615-.432-21.949-2.421-24.25-2.889-1.054.586-2.27 1.046-3.494 1.046-.219 0-.438-.015-.658-.052-2.051-.293-3.223-1.601-4.358-2.873-.945-1.06-1.847-2.07-3.237-2.567l-3.517 16.132z"/>
        <path fill="#68B5EB" d="M114.344 305.216c.733-3.356-1.26-3.064-4.622-3.795-3.36-.732-6.086-1.668-6.819 1.688l-2.204 10.282c1.633.54 2.659 1.69 3.648 2.801 1.098 1.23 2.131 2.391 3.918 2.647 1.26.175 2.571-.293 3.699-.936l2.38-12.687z"/>
        <path fill="#062942" d="M97.135 329.325l11.015.372.315-2.852c5.86-.182 11.353 3.292 29.664 3.84a154.8 154.8 0 0 0 10.665-.044c-.074-2.897-1.21-7.577-11.617-7.958-11.506-.424-22.185-4.642-24.684-5.131-1.083.613-2.343 1.11-3.61 1.11-.219 0-.44-.014-.66-.05-2.05-.293-3.222-1.602-4.356-2.874-.953-1.068-1.854-2.084-3.26-2.575l-3.472 16.162z"/>
        <path fill="#FCB3CD" d="M85.852 47.883a2748.21 2748.21 0 0 0-10.376 22.704c-3.419 7.598-6.82 15.172-10.09 22.947-.817 1.965-1.616 3.89-2.413 6.054-.202.56-.397 1.094-.628 1.863l-.096.339-.101.394-.118.565a8.009 8.009 0 0 0-.079.62 6.6 6.6 0 0 0-.026.68c.008.264.03.53.067.793l.065.392.048.206.11.402c.04.14.083.274.108.338l.192.493.165.364c.428.887.76 1.394 1.103 1.94.338.525.668 1.01.995 1.473 1.307 1.851 2.607 3.525 3.923 5.199a335.372 335.372 0 0 0 3.97 4.92c5.331 6.478 10.74 12.781 16.232 19.074a4.39 4.39 0 0 0 6.186.422 4.373 4.373 0 0 0 .61-5.946l-.023-.03c-5.008-6.54-9.99-13.166-14.784-19.821a311.753 311.753 0 0 1-3.53-5.002c-1.142-1.663-2.278-3.345-3.261-4.95-.246-.4-.473-.789-.673-1.15-.19-.342-.38-.731-.383-.787.004.004-.001-.01.007.008.022.042.04.085.055.129l.051.151c.023.072.043.144.06.217l.023.112a4.223 4.223 0 0 1 .099.894 4.382 4.382 0 0 1-.066.913 1.627 1.627 0 0 1-.03.189c-.019.072.005.01.004.02.007-.013.002.001.018-.034.09-.215.278-.646.463-1.045.774-1.672 1.711-3.512 2.636-5.306 3.757-7.24 7.747-14.509 11.732-21.743a2751.16 2751.16 0 0 1 12.096-21.665l.005-.01c2.186-3.874.812-8.783-3.067-10.966-3.88-2.182-8.798-.81-10.983 3.064a8.218 8.218 0 0 0-.296.576"/>
        <path fill="#FA8DB5" d="M112.69 114.012c3.09-32.22 3.764-73.427-8.68-76.111-22.005-4.745-24.888 49.222-26.032 73.31 12.504 1.953 25.827 2.603 34.711 2.8"/>
        <path fill="#005DAB" d="M64.473 304.12l15.594 2.851a4229.414 4229.414 0 0 0 9.265-46.004c1.493-7.685 2.966-15.378 4.364-23.13.704-3.883 1.386-7.766 2.008-11.767l.461-3.027c.081-.482.14-1.045.206-1.602l.198-1.651c.153-1.134.19-2.121.27-3.167l.117-1.55.088-1.492c.47-7.934.821-15.715 1.18-23.54l.966-22.443c.17.3.337.608.506.915 2.248 4.175 4.247 8.783 5.977 13.499 3.428 9.434 5.99 19.451 6.929 29.068.22 2.391.329 4.745.278 6.998a47.08 47.08 0 0 1-.183 3.261l-.433 3.957-1.89 16.088c-2.614 21.506-5.346 43.049-8.1 64.57l15.909 2.356c3.603-21.435 7.177-42.854 10.642-64.337l2.549-16.169.608-4.125c.205-1.637.35-3.26.432-4.848.16-3.174.101-6.245-.089-9.265-.387-6.033-1.303-11.831-2.497-17.543-1.209-5.704-2.747-11.29-4.578-16.827-1.295-3.868-2.739-7.693-4.431-11.517h.037c-4.762-12.556-2.564-15.232-3.296-22.545-.681-6.757-5.105-14.75-5.487-20.826.184-1.837.406-4.404.581-6.276-8.892-.198-22.158-.927-34.653-2.88-.154 3.305-.607 54.933-.607 54.933l-.206 23.364c-.088 7.774-.183 15.583-.373 23.232l-.037 1.433-.051 1.375c-.037.9-.052 1.865-.125 2.67l-.095 1.25c-.03.425-.044.826-.102 1.308l-.287 2.78c-.403 3.737-.893 7.568-1.39 11.393-1.01 7.656-2.11 15.356-3.223 23.05a4511.012 4511.012 0 0 1-7.032 46.18"/>
        <path fill="#FCB3CD" d="M93.959 47.558a433.5 433.5 0 0 0-2.12 11.859c-.65 3.95-1.247 7.917-1.784 11.914-.526 4.003-.978 8.04-1.273 12.2-.057 1.056-.13 2.09-.171 3.162-.018 1.099-.05 2.174-.048 3.29l.071 1.769c.039.61.023 1.118.141 1.866.092.698.195 1.392.307 2.084.05.378.133.587.2.881l.214.822c.279 1.137.592 2.073.892 3.091.298 1.017.626 1.949.937 2.926a277.429 277.429 0 0 0 1.954 5.702c1.323 3.77 2.696 7.485 4.077 11.198 2.773 7.42 5.606 14.775 8.51 22.14a5.035 5.035 0 0 0 6.526 2.837 5.023 5.023 0 0 0 2.955-6.197l-.011-.033a1340.644 1340.644 0 0 1-7.011-22.436c-1.125-3.745-2.243-7.491-3.29-11.224a269.913 269.913 0 0 1-1.518-5.576c-.228-.913-.493-1.858-.69-2.745-.199-.884-.447-1.833-.578-2.62l-.118-.616c-.03-.188-.106-.45-.09-.563a11.663 11.663 0 0 0-.042-.845c-.044-.227-.002-.704.002-1.077l.026-1.18.21-2.605c.092-.89.22-1.812.325-2.715.498-3.666 1.16-7.42 1.902-11.179a394.447 394.447 0 0 1 2.441-11.302c.871-3.754 1.803-7.565 2.76-11.23l.01-.04c1.122-4.302-1.46-8.698-5.768-9.82-4.309-1.12-8.711 1.458-9.834 5.76-.041.16-.083.343-.114.502"/>
        <path fill="#005DAB" d="M112.797 129.797s-3.173 10.725-9.765 16.087l8.545 6.826s5.127-4.144 5.127-9.994-3.907-12.92-3.907-12.92"/>
        <path fill="#0D83DD" d="M117.566 18.45c-.106.75.132 1.404.532 1.461.4.056.812-.506.918-1.255.106-.75-.132-1.404-.532-1.461-.4-.056-.812.506-.918 1.255"/>
        <path fill="#062942" d="M93.148 29.942l-.029.124c7.551.666 10.495.461 14.348-12.739l2.563 1.098s7.2-3.538 4.881-11.215c0 0 2.808-.366 6.47 4.874-.96-7.927-8.192-11.79-15.138-12.065C95.137-.42 92.24 6.856 91.756 14.936c-.007.088-.015.176-.015.256-.014.206-.03.403-.03.593-.175 5.2 2.118 8.183 1.437 14.157"/>
        <path fill="#CEE9FD" d="M111.455 16.45s.549-5.484-2.38-5.667c-2.93-.182-2.746 4.57-1.832 6.947.917 2.376 2.564 5.302 3.296 5.484.732.184.916-6.764.916-6.764"/>
        <path fill="#062942" d="M116.436 16.9c.122.07.373-.128.74-.421.357-.284.875-.687 1.373-.728a.898.898 0 0 1 .627.158c.177.12.319.322.432.507.224.377.35.674.49.665.134-.003.272-.336.182-.9a1.794 1.794 0 0 0-.478-.955c-.309-.33-.836-.534-1.34-.478-.512.048-.916.289-1.204.53-.29.247-.486.51-.625.741-.273.466-.316.813-.197.88"/>
        <path fill="#0D83DD" d="M120.938 25.979s-.916-.686-1.74-.412"/>
        <path fill="#68B5EB" d="M119.198 25.567c.061.13.414.116.844.252.434.126.813.271.895.16.087-.107-.207-.48-.758-.644-.275-.079-.553-.067-.735.001-.186.063-.268.173-.246.231"/>
    </g>
</svg>
