<svg xmlns="http://www.w3.org/2000/svg" xmlns:xlink="http://www.w3.org/1999/xlink" width="203" height="350" viewBox="0 0 203 350">
    <defs>
        <path id="a" d="M.278.368h27.113v27.117H.278z"/>
    </defs>
    <g fill="none" fill-rule="evenodd">
        <path fill="#164B9F" d="M0 341.817c0 4.316 45.407 7.814 101.42 7.814 56.013 0 101.421-3.498 101.421-7.814 0-4.315-45.408-7.813-101.42-7.813C45.406 334.004 0 337.502 0 341.817" opacity=".102"/>
        <path fill="#062942" d="M104.23 336.865c.548.006 2.19-.07 4.539-.195.121-.006.246-.01.377-.02l.291-.016c10.473-.572 33.036-2.049 38.73-2.425 0-.01 0-.025.006-.035.064-.518.104-1.196.064-2.034-.074-1.537-.432-3.596-1.44-6.121-2.204-5.5-3.278-11.426-3.434-12.32l-.111-.356a6.38 6.38 0 0 0-7.752-4.65c-3.43.858-5.322 4.229-4.464 7.658l2.777 8.738c-2.239 1.135-2.455 2.255-17.15 5.057-8.472 1.612-11.373 3.058-12.161 5.118-.201.492-.271 1.023-.271 1.601"/>
        <path fill="#062942" d="M104.23 336.865c.548.006 2.19-.07 4.539-.195.125-.006.252-.015.377-.02l.291-.016c10.755-.603 34.217-2.159 38.736-2.46.064-.518.104-1.196.064-2.034l-43.735 3.124c-.201.492-.271 1.023-.271 1.601M95.408 318.79c-1.28-3.297.79-3.317 4.086-4.596 3.296-1.28 5.912-2.665 7.19.63l1.815 11.654c-1.573.811-2.363 1.714-3.19 3.001-.92 1.425-1.78 2.772-3.555 3.317-1.25.379-4.104-5.799-5.352-6.274l-.994-7.733z"/>
        <path fill="#062942" d="M69.571 347.326c2.907-.337 36.808-6.89 42.894-8.07 0-.076-.02-.844-.212-1.96-.22-1.294-.678-3.057-1.605-4.75-1.216-2.2-1.863-4.796-2.305-7.012l-.06-.155c-1.35.724-1.953 2.191-2.747 3.427-.95 1.47-1.933 2.992-3.962 3.615-.22.07-.436.12-.663.156-1.285.2-2.249-.166-3.444-.619-2.455.9-5.15 3.542-18.12 7.548-7.566 2.34-9.5 3.882-9.836 5.721-.12.647-.04 1.33.06 2.099"/>
        <path fill="#68B5EB" d="M124.424 53.657a2832.33 2832.33 0 0 1 10.66 23.369c3.513 7.82 7.006 15.617 10.367 23.62.84 2.022 1.661 4.003 2.48 6.23.207.578.408 1.126.646 1.92l.098.347.103.405.121.583c.025.135.065.428.082.637.019.236.032.443.026.701a7.663 7.663 0 0 1-.068.816l-.067.402-.05.212-.113.416c-.04.141-.085.28-.11.347l-.197.507-.17.374c-.44.914-.78 1.436-1.134 1.998-.346.54-.685 1.039-1.021 1.515-1.343 1.906-2.68 3.628-4.032 5.352a337.72 337.72 0 0 1-4.078 5.065c-5.478 6.668-11.035 13.155-16.679 19.632a4.506 4.506 0 1 1-6.983-5.685l.025-.03c5.145-6.734 10.264-13.553 15.19-20.404a317.792 317.792 0 0 0 3.625-5.148c1.175-1.71 2.343-3.443 3.352-5.094.253-.412.486-.814.691-1.185.197-.351.392-.752.395-.81-.004.003.001-.01-.008.008a1.2 1.2 0 0 0-.058.133l-.051.157a2.689 2.689 0 0 0-.06.221l-.025.116a3.65 3.65 0 0 0-.055.303 4.092 4.092 0 0 0-.046.618c-.002.191-.003.333.01.502.008.143.045.369.057.439.006.065.016.13.031.193.02.074-.005.01-.004.02-.008-.012-.002.002-.019-.034a37.803 37.803 0 0 0-.476-1.077c-.794-1.72-1.758-3.614-2.707-5.461-3.86-7.453-7.96-14.933-12.056-22.38a2829.117 2829.117 0 0 0-12.427-22.3l-.005-.01a8.285 8.285 0 1 1 14.74-7.54"/>
        <path fill="#005DAB" d="M128.364 210.66c-.025-3.062 1.278-12.942 1.339-15.734.527-24.23 8.01-33.037 7.098-47.875-.822-13.391-2.926-20.835-4.282-27.203-.036-.19-.076-.377-.115-.562l-.121-.357-25.592 30.696 21.673 61.036z"/>
        <path fill="#68B5EB" d="M117.922 63.463a7.883 7.883 0 0 1-3.062 1.339 8 8 0 0 1-1.574.159 7.841 7.841 0 0 1-1.58-.16 7.92 7.92 0 0 1-6.156-6.178l-2.152-10.643-.482-2.395-.248.844c-.03-.467-.06-.903-.09-1.318-.926-10.966-4.252-2.303-9.092-3.868-1.266-.416-1.674-1.75-2.287-4.354-.092-.4-.294-.801-.369-.954-.118-.246-.137-.458-.03-.573a6.31 6.31 0 0 0 .294-.33c1.128-1.452 1.603-2.264 1.376-2.438-.203-.158-1.136.685-2.16 1.942a114.305 114.305 0 0 1-.436-3.304l-2.618.437a.456.456 0 0 1-.451-.708l2.588-3.809.52-.76.03-.045v-.007l.037-.053c.158-.301.18-.647.068-.971l-.753-2.04a7.754 7.754 0 0 1-.421-1.798c-.023-.265-.053-.52-.061-.679a18.409 18.409 0 0 1 .076-3.77 15.04 15.04 0 0 1 .361-1.942C90.966 8.23 97.054 4.842 103.6 4.842c7.842 0 14.261 6.586 14.758 14.903.008.091.015.182.015.265.015.21.03.413.03.61.18 5.35-2.174 8.422-1.474 14.572l.03.127.647 3.214 2.197 10.847.279 1.384.955 4.727a7.897 7.897 0 0 1-3.115 7.972"/>
        <path fill="#062942" d="M97.377 100.971c.663 3.741 1.395 7.638 2.018 11.932.412 2.852.728 5.8.959 8.718 2.044-.06 4.244-.151 6.563-.271.246-.015.497-.025.743-.04.1-.006.205-.011.31-.015 7.296-.402 15.64-1.105 23.695-2.326.216-.035.43-.066.647-.1 0-.02-.005-.04-.01-.06a59.84 59.84 0 0 0-.121-.578c-.783-3.757-1.47-7.387-1.908-10.852-.471-3.772-.899-7.522-1.346-11.39-1.29-11.093-2.76-23.095-5.964-39.034-.813-1.868-1.702-3.596-2.67-5.142a26.246 26.246 0 0 0-2.04-2.858c-3.298-3.997-7.39-6.161-12.486-5.574-1.03.121-1.934 1.124-2.721 2.848-3.806 8.27-5.04 33.007-5.669 54.742"/>
        <path fill="#005DAB" d="M76.581 229.615c.085 1.631.235 3.304.447 4.991l.622 4.244 2.62 16.641c3.56 22.117 7.231 44.163 10.931 66.224l4.419-.659 11.909-1.761.02-.006c-2.832-22.152-5.638-44.322-8.325-66.463l-1.937-16.558-.447-4.072a47.347 47.347 0 0 1-.187-3.36c-.054-2.315.062-4.74.287-7.202.96-9.897 3.595-20.206 7.12-29.919 1.771-4.855 3.825-9.597 6.14-13.895.17-.317 9.289-16.065 9.46-16.372l-1.125 7.73 14.339-19.395c-.05-5.102-.105-10.33-.156-15.005-.075-6.85-.15-12.524-.2-14.93-.035-.19-.076-.376-.116-.562l-.09-.417c0-.02-.005-.04-.01-.06l-.588.09c-8.083 1.23-16.433 1.968-23.743 2.396-.105.004-.211.01-.311.015-.247.014-.497.025-.743.039-2.315.126-4.52.221-6.562.297.732 9.527.5 18.781-.458 23.773-.732 3.801-2.48 7.558-4.834 12.263-1.431 3.481-3.63 7.297-6.607 15.166h.04c-1.738 3.933-3.225 7.87-4.555 11.852-1.882 5.699-3.46 11.45-4.705 17.32-1.224 5.88-2.164 11.846-2.565 18.058-.196 3.108-.256 6.267-.09 9.537"/>
        <path fill="#359CE4" d="M88.374 31.11s.94-.705 1.787-.423M90.161 30.687c.023-.06-.061-.173-.251-.239-.19-.069-.474-.08-.756 0-.567.169-.868.553-.78.662.086.116.474-.034.922-.164.44-.14.804-.125.865-.26"/>
        <g transform="translate(84.223 -.288)">
            <mask id="b" fill="#fff">
                <use xlink:href="#a"/>
            </mask>
            <path fill="#062942" d="M.278 13.927c0 7.489 6.07 13.558 13.556 13.558 7.487 0 13.557-6.07 13.557-13.558 0-7.489-6.07-13.56-13.557-13.56C6.348.368.278 6.439.278 13.928" mask="url(#b)"/>
        </g>
        <path fill="#062942" d="M98.564 31.55c0 7.488 6.07 13.559 13.557 13.559 7.486 0 13.555-6.07 13.555-13.56 0-7.488-6.07-13.558-13.555-13.558-7.488 0-13.557 6.07-13.557 13.558"/>
        <path fill="#062942" d="M86.677 50.633c0 7.488 6.07 13.559 13.557 13.559 7.486 0 13.556-6.07 13.556-13.56 0-7.488-6.07-13.558-13.556-13.558-7.487 0-13.557 6.07-13.557 13.559"/>
        <path fill="#062942" d="M105.59 47.285c0 7.489 6.069 13.558 13.555 13.558 7.487 0 13.557-6.07 13.557-13.558 0-7.489-6.07-13.56-13.557-13.56-7.486 0-13.556 6.071-13.556 13.56"/>
        <path fill="#062942" d="M103.748 30.713c0 7.488 6.07 13.559 13.557 13.559 7.486 0 13.556-6.07 13.556-13.56 0-7.488-6.07-13.558-13.556-13.558-7.487 0-13.557 6.07-13.557 13.559"/>
        <path fill="#062942" d="M94.041 15.48c0 7.488 6.07 13.56 13.557 13.56 7.486 0 13.556-6.072 13.556-13.56 0-7.489-6.07-13.559-13.556-13.559-7.487 0-13.557 6.07-13.557 13.559"/>
        <path fill="#68B5EB" d="M86.163 124.798l.053.056.046.055c.055.074-.014.001-.1-.11m23.581-68.115a7.28 7.28 0 0 0-9.375 4.664l-.015.049A1937.479 1937.479 0 0 1 90.726 91.4c-1.65 4.982-3.32 9.954-5.036 14.888-1.25 3.574-2.52 7.158-3.844 10.643-1.86-3.761-3.66-7.64-5.428-11.525-4.316-9.53-8.49-19.205-12.552-28.873l-.01-.022a4.71 4.71 0 0 0-6.166-2.518 4.722 4.722 0 0 0-2.594 5.977c3.677 9.95 7.428 19.819 11.386 29.687 1.994 4.936 4.006 9.847 6.276 14.814a101.187 101.187 0 0 0 1.824 3.78c.33.645.677 1.297 1.08 1.993.202.348.416.707.673 1.1.265.399.544.817 1.041 1.4l.213.238c.082.087.144.156.256.265.11.107.191.188.328.309.152.13.266.229.46.375.105.077.212.153.32.225l.164.108.235.14c.166.093.334.18.506.261a6.523 6.523 0 0 0 1.163.406 6.7 6.7 0 0 0 1.219.172c.175.01.458.01.746-.014a6.078 6.078 0 0 0 1.408-.278c.17-.055.339-.117.504-.187.176-.072.267-.117.403-.184.966-.509 1.313-.873 1.626-1.148.292-.278.476-.488.64-.679.308-.369.504-.644.674-.893.335-.492.567-.884.786-1.263.215-.376.405-.728.586-1.072a76.026 76.026 0 0 0 1.875-3.892c2.256-5.028 4.211-9.955 6.164-14.92 1.939-4.955 3.818-9.914 5.672-14.876a1932.274 1932.274 0 0 0 10.848-29.857 7.282 7.282 0 0 0-4.429-9.297"/>
        <path fill="#000" d="M42.088 46.988l.877 2.186 29.773 26.379 2.67-3.006-29.773-26.379-2.275-.597z"/>
        <path fill="#000" d="M73.195 74.716l1.335-1.5-33.662-29.921-1.336 1.5z"/>
        <path fill="#68B5EB" d="M48.951 66.953c.502 2.426 3.599 5.441 6.276 13.14l8.452-3.765c-3.65-9.698-3.346-9.71-4.184-13.475-1.09-4.896-2.845-6.028-5.356-5.274-2.51.756-5.69 6.949-5.188 9.374"/>
        <path fill="#68B5EB" d="M63.292 67.204s-.647 1.327-.91 3.013c-.313 2.01 1.297 6.11 1.297 6.11l-5.941-3.85 1.789-8.6 3.765 3.327z"/>
        <path fill="#68B5EB" d="M59.745 69.8a1.506 1.506 0 0 0 1.454-1.904l-4.184-15.317a1.507 1.507 0 0 0-2.906.795l4.183 15.316c.184.67.79 1.11 1.453 1.11"/>
        <path fill="#062942" d="M69.571 347.326c2.907-.337 36.808-6.89 42.894-8.07 0-.076-.02-.844-.212-1.96l-42.742 7.931c-.12.647-.04 1.33.06 2.099"/>
        <path fill="#005DAB" d="M114.488 142.077c.22 1.905.442 3.72.615 5.41.173 1.696.295 3.282.352 4.865.109 3.147-.04 6.381-.382 9.792-.078.846-.18 1.706-.281 2.567l-.165 1.34-.177 1.38-.712 5.526-1.474 11.072c-.993 7.401-2.028 14.816-2.934 22.384-.46 3.775-.863 7.614-1.189 11.516-.32 3.907-.55 7.902-.487 12.114.02 1.056.075 2.137.115 3.204.04.59.101 1.228.156 1.84.026.323.066.58.103.857l.111.818.113.818.128.769.259 1.532.571 2.947c.794 3.863 1.674 7.588 2.592 11.289 1.84 7.391 3.816 14.664 5.844 21.914 4.072 14.498 8.335 28.845 12.76 43.222l14.66-4.26c-3.848-14.345-7.574-28.804-11.06-43.227-1.737-7.214-3.416-14.434-4.926-21.608-.751-3.584-1.456-7.162-2.04-10.645l-.401-2.574-.16-1.237-.082-.617-.055-.572-.057-.572c-.019-.189-.043-.394-.044-.536l-.046-.955c.006-.803-.008-1.589.006-2.4.069-3.263.38-6.732.805-10.259.427-3.531.932-7.113 1.51-10.737 1.134-7.238 2.436-14.588 3.7-21.96l1.892-11.091.926-5.565.46-2.826c.154-.99.307-1.98.439-2.99.553-4.007.926-8.245.937-12.57a94.584 94.584 0 0 0-.217-6.33c-.133-2.032-.298-3.935-.438-5.748l-21.727 2.103z"/>
        <path fill="#062942" d="M132.23 319.934c.59 3.623-.134 6.568-4.754 8.652l6.567 2.626 6.34-4.212-2.672-4.938-5.48-2.128zM96.364 326.275c.589 3.624-.135 6.569-4.754 8.652l6.566 2.627 6.34-4.212-2.672-4.938-5.48-2.129z"/>
    </g>
</svg>
