<svg xmlns="http://www.w3.org/2000/svg" xmlns:xlink="http://www.w3.org/1999/xlink" width="93" height="208" viewBox="0 0 93 208">
    <defs>
        <path id="a" d="M.165.218h16.027v16.07H.165z"/>
    </defs>
    <g fill="none" fill-rule="evenodd">
        <path fill="#164B9F" d="M0 203.151c0 2.558 26.842 4.63 59.953 4.63 33.11 0 59.953-2.072 59.953-4.63 0-2.557-26.842-4.63-59.953-4.63C26.842 198.52 0 200.594 0 203.15" opacity=".102"/>
        <path fill="#062942" d="M61.614 200.217c.324.003 1.294-.042 2.683-.116.071-.004.145-.006.223-.013l.172-.009c6.19-.339 19.529-1.214 22.895-1.436a7.05 7.05 0 0 0 .041-1.226c-.044-.911-.255-2.132-.851-3.628-1.303-3.259-1.938-6.77-2.03-7.3l-.066-.212a3.77 3.77 0 0 0-4.582-2.755c-2.028.508-3.147 2.506-2.64 4.538l1.642 5.178c-1.323.672-1.45 1.336-10.138 2.997-5.008.955-6.723 1.812-7.189 3.032-.118.292-.16.607-.16.95"/>
        <path fill="#062942" d="M61.614 200.216c.324.004 1.294-.041 2.683-.115.074-.004.149-.01.223-.013l.172-.009c6.358-.357 20.226-1.279 22.898-1.457a7.05 7.05 0 0 0 .038-1.206l-25.854 1.851c-.118.292-.16.607-.16.95M56.399 189.505c-.756-1.953.467-1.966 2.415-2.723 1.948-.759 3.495-1.58 4.25.373l1.073 6.906c-.93.48-1.397 1.016-1.885 1.779-.544.844-1.053 1.642-2.102 1.965-.739.225-2.426-3.436-3.164-3.718l-.587-4.582z"/>
        <path fill="#062942" d="M41.126 206.415c1.718-.2 21.758-4.082 25.356-4.782 0-.045-.012-.5-.125-1.16-.13-.768-.401-1.813-.95-2.816-.718-1.303-1.1-2.842-1.362-4.155l-.035-.092c-.799.429-1.155 1.298-1.624 2.03-.561.872-1.143 1.774-2.342 2.143-.13.042-.258.071-.392.092-.76.119-1.33-.098-2.036-.366-1.451.533-3.045 2.098-10.71 4.473-4.474 1.386-5.617 2.3-5.816 3.39-.07.383-.023.788.036 1.243"/>
        <path fill="#68B5EB" d="M73.551 32.39c2.125 4.614 4.221 9.22 6.302 13.848 2.076 4.634 4.141 9.254 6.128 13.996a93.068 93.068 0 0 1 1.466 3.693c.122.342.241.667.382 1.137l.058.206.06.24.072.345c.015.08.039.254.049.378.01.14.018.262.015.415-.004.161-.018.324-.04.484l-.04.238-.029.126-.067.246c-.024.084-.05.167-.066.206l-.116.3-.1.222c-.26.541-.462.851-.67 1.184-.205.32-.406.616-.604.898a75.39 75.39 0 0 1-2.384 3.171 200.042 200.042 0 0 1-2.41 3.002c-3.238 3.951-6.523 7.795-9.86 11.634a2.658 2.658 0 0 1-3.756.257 2.675 2.675 0 0 1-.371-3.626l.014-.018c3.042-3.99 6.068-8.032 8.98-12.091a188.326 188.326 0 0 0 2.143-3.051 69.128 69.128 0 0 0 1.98-3.019c.15-.244.288-.482.41-.702.116-.208.231-.446.233-.48-.003.002 0-.006-.005.005a.713.713 0 0 0-.034.079l-.03.093a1.596 1.596 0 0 0-.036.13l-.014.07a2.43 2.43 0 0 0-.06.546 2.83 2.83 0 0 0 .04.557c.003.038.009.076.018.114.011.044-.003.006-.003.012-.004-.007-.001.001-.01-.02-.056-.131-.17-.394-.282-.638a89.309 89.309 0 0 0-1.6-3.237c-2.282-4.416-4.706-8.849-7.127-13.262a1677.72 1677.72 0 0 0-7.346-13.215l-.003-.005a4.918 4.918 0 0 1 1.863-6.689 4.891 4.891 0 0 1 6.85 2.22"/>
        <path fill="#005DAB" d="M75.88 125.429c-.014-1.815.756-7.67.792-9.325.311-14.359 4.735-19.577 4.196-28.37-.487-7.935-1.73-12.347-2.532-16.12a12.236 12.236 0 0 0-.068-.333l-.071-.212-15.129 18.19 12.812 36.17z"/>
        <path fill="#68B5EB" d="M69.708 38.2a4.654 4.654 0 0 1-2.74.888c-.317 0-.633-.032-.935-.094a4.688 4.688 0 0 1-3.64-3.662l-1.271-6.307-.285-1.419-.147.5c-.018-.276-.035-.535-.053-.78-.547-6.5-2.513-1.366-5.374-2.293-.749-.247-.99-1.038-1.352-2.58-.055-.237-.174-.475-.218-.566-.07-.145-.081-.271-.018-.339.067-.072.143-.156.173-.195.667-.861.948-1.342.814-1.445-.12-.094-.671.405-1.276 1.15a67.895 67.895 0 0 1-.258-1.957l-1.548.258a.27.27 0 0 1-.267-.419l1.53-2.257.307-.45.018-.027V16.2l.022-.031a.723.723 0 0 0 .04-.575l-.445-1.21a4.605 4.605 0 0 1-.249-1.065c-.013-.157-.031-.308-.036-.402a10.936 10.936 0 0 1 .045-2.235c.049-.401.12-.784.214-1.15 1.014-4.064 4.613-6.07 8.483-6.07 4.635 0 8.43 3.902 8.723 8.83.005.054.01.108.01.157.008.125.017.245.017.361.107 3.172-1.285 4.992-.872 8.636l.018.075.383 1.905 1.298 6.428.165.82.565 2.801a4.685 4.685 0 0 1-1.841 4.724"/>
        <path fill="#062942" d="M57.563 60.427c.392 2.217.824 4.526 1.193 7.071.243 1.69.43 3.437.567 5.166 1.208-.036 2.508-.09 3.88-.16.145-.01.293-.015.438-.024l.184-.01c4.312-.237 9.245-.654 14.006-1.377l.383-.06c0-.012-.003-.023-.006-.035-.024-.116-.047-.23-.072-.343-.462-2.226-.869-4.377-1.127-6.43-.279-2.235-.532-4.458-.796-6.75-.763-6.573-1.632-13.686-3.526-23.132a23.235 23.235 0 0 0-1.578-3.047c-.38-.613-.78-1.178-1.205-1.693-1.95-2.369-4.37-3.651-7.382-3.303-.609.072-1.143.666-1.608 1.688-2.25 4.9-2.98 19.56-3.351 32.44"/>
        <path fill="#005DAB" d="M45.27 136.66c.05.968.139 1.959.264 2.959l.368 2.514 1.549 9.862c2.104 13.106 4.274 26.17 6.461 39.243l2.612-.39 7.04-1.044.012-.003a6199.25 6199.25 0 0 1-4.921-39.386l-1.145-9.811-.265-2.414a28.126 28.126 0 0 1-.11-1.991 37.615 37.615 0 0 1 .17-4.267c.567-5.865 2.125-11.975 4.208-17.73 1.047-2.878 2.262-5.687 3.63-8.235.1-.187 5.49-9.52 5.592-9.701l-.665 4.58 8.476-11.493c-.03-3.023-.062-6.122-.092-8.892-.045-4.06-.089-7.422-.119-8.848-.02-.112-.044-.222-.068-.332l-.053-.247c0-.013-.003-.025-.006-.036l-.348.053c-4.778.73-9.714 1.167-14.035 1.42l-.184.009-.439.023c-1.369.075-2.671.131-3.879.176.433 5.645.296 11.13-.27 14.088-.433 2.253-1.467 4.478-2.858 7.267-.846 2.063-2.146 4.324-3.906 8.987h.024a80.29 80.29 0 0 0-2.693 7.023 96.737 96.737 0 0 0-2.78 10.264c-.725 3.485-1.28 7.02-1.517 10.701a49.616 49.616 0 0 0-.053 5.651"/>
        <path fill="#359CE4" d="M52.24 19.028s.557-.418 1.057-.25M53.297 18.777c.014-.035-.036-.102-.148-.141a.759.759 0 0 0-.447 0c-.335.1-.513.328-.461.392.05.069.28-.02.545-.097.26-.083.475-.074.511-.154"/>
        <g transform="translate(49.787 .422)">
            <mask id="b" fill="#fff">
                <use xlink:href="#a"/>
            </mask>
            <path fill="#062942" d="M.165 8.253c0 4.438 3.587 8.035 8.013 8.035s8.014-3.597 8.014-8.035c0-4.438-3.588-8.035-8.014-8.035C3.752.218.165 3.815.165 8.253" mask="url(#b)"/>
        </g>
        <path fill="#062942" d="M58.264 19.289c0 4.437 3.588 8.035 8.014 8.035 4.425 0 8.013-3.598 8.013-8.035 0-4.438-3.588-8.035-8.013-8.035-4.426 0-8.014 3.597-8.014 8.035"/>
        <path fill="#062942" d="M51.238 30.597c0 4.438 3.588 8.035 8.014 8.035 4.425 0 8.013-3.597 8.013-8.035 0-4.438-3.588-8.035-8.013-8.035-4.426 0-8.014 3.597-8.014 8.035"/>
        <path fill="#062942" d="M62.417 28.613c0 4.438 3.588 8.035 8.014 8.035 4.426 0 8.013-3.597 8.013-8.035 0-4.437-3.587-8.035-8.013-8.035s-8.014 3.598-8.014 8.035"/>
        <path fill="#062942" d="M61.329 18.793c0 4.437 3.588 8.035 8.014 8.035 4.425 0 8.013-3.598 8.013-8.035 0-4.438-3.588-8.035-8.013-8.035-4.426 0-8.014 3.597-8.014 8.035"/>
        <path fill="#062942" d="M55.59 9.766c0 4.438 3.589 8.035 8.015 8.035 4.425 0 8.013-3.597 8.013-8.035 0-4.438-3.588-8.035-8.013-8.035-4.426 0-8.014 3.597-8.014 8.035"/>
        <path fill="#68B5EB" d="M50.934 74.547l.03.033.028.033c.033.043-.008 0-.058-.066m13.939-40.364a4.3 4.3 0 0 0-5.542 2.764l-.009.029a1150.177 1150.177 0 0 1-5.691 17.78 621.486 621.486 0 0 1-2.977 8.823 250.432 250.432 0 0 1-2.272 6.307c-1.1-2.23-2.164-4.528-3.21-6.83-2.55-5.647-5.017-11.38-7.419-17.11l-.005-.013a2.782 2.782 0 0 0-3.646-1.492 2.8 2.8 0 0 0-1.533 3.542c2.173 5.896 4.39 11.744 6.73 17.592 1.18 2.925 2.369 5.835 3.71 8.779.34.738.69 1.477 1.079 2.24.195.382.4.768.638 1.18.12.207.246.42.398.653.157.236.321.484.616.83l.125.14c.049.052.085.093.152.157.064.064.113.112.194.183.09.078.157.136.271.222.063.047.126.091.19.134l.097.064.139.083c.097.055.197.107.299.155a3.85 3.85 0 0 0 1.044.308 3.45 3.45 0 0 0 .805.026 3.585 3.585 0 0 0 1.13-.275c.104-.043.158-.07.238-.11.571-.301.776-.517.961-.68.173-.165.282-.29.378-.402.183-.219.298-.382.4-.53.197-.291.334-.524.464-.748.127-.223.24-.432.346-.635.421-.808.768-1.556 1.109-2.307 1.333-2.98 2.489-5.9 3.643-8.841a608.56 608.56 0 0 0 3.353-8.816c2.19-5.886 4.318-11.767 6.413-17.692a4.318 4.318 0 0 0-2.618-5.51"/>
        <path fill="#000" d="M24.88 28.437l.518 1.296 17.6 15.632 1.578-1.781-17.6-15.632-1.344-.354z"/>
        <path fill="#000" d="M43.268 44.869l.79-.889-19.9-17.731-.79.889z"/>
        <path fill="#68B5EB" d="M28.937 40.269c.296 1.437 2.127 3.224 3.71 7.786l4.996-2.231c-2.158-5.747-1.978-5.754-2.473-7.985-.645-2.902-1.682-3.572-3.166-3.126-1.484.448-3.364 4.118-3.067 5.556"/>
        <path fill="#68B5EB" d="M37.414 40.417s-.382.786-.538 1.786c-.185 1.19.767 3.62.767 3.62l-3.512-2.281 1.057-5.096 2.226 1.971z"/>
        <path fill="#68B5EB" d="M35.317 41.955a.893.893 0 0 0 .86-1.128l-2.474-9.077a.892.892 0 0 0-1.093-.626.893.893 0 0 0-.624 1.097l2.473 9.077a.891.891 0 0 0 .858.657"/>
        <path fill="#062942" d="M41.126 206.415c1.718-.2 21.758-4.082 25.356-4.782 0-.045-.012-.5-.125-1.16l-25.267 4.699c-.07.383-.023.788.036 1.243"/>
        <path fill="#005DAB" d="M67.678 84.786c.13 1.13.26 2.204.363 3.207.103 1.004.175 1.944.208 2.882.064 1.865-.023 3.782-.225 5.803-.047.501-.107 1.011-.167 1.521l-.097.794-.105.818-.42 3.275-.872 6.56c-.587 4.387-1.199 8.78-1.734 13.266-.272 2.236-.51 4.512-.703 6.824-.19 2.315-.325 4.682-.288 7.178.012.626.044 1.267.068 1.899.024.35.06.728.092 1.09.015.192.04.344.06.508l.067.485.067.485.075.455.153.909.338 1.745c.469 2.29.99 4.497 1.532 6.69 1.088 4.38 2.255 8.69 3.455 12.987a1077.898 1077.898 0 0 0 7.542 25.612l8.666-2.524c-2.274-8.5-4.477-17.07-6.538-25.616-1.026-4.275-2.019-8.553-2.911-12.805a158.698 158.698 0 0 1-1.206-6.308l-.238-1.525-.095-.733-.048-.366-.032-.339-.034-.338c-.01-.112-.025-.234-.026-.319l-.027-.565c.003-.476-.005-.942.003-1.422.041-1.934.226-3.99.476-6.08.253-2.093.551-4.215.893-6.363.67-4.289 1.44-8.644 2.187-13.013l1.119-6.573.547-3.297.272-1.675a74.3 74.3 0 0 0 .26-1.772c.326-2.374.547-4.886.553-7.449.003-1.277-.05-2.549-.128-3.75-.078-1.205-.176-2.332-.26-3.407l-12.842 1.246z"/>
        <path fill="#062942" d="M78.166 190.183c.348 2.147-.08 3.892-2.81 5.127l3.881 1.556 3.747-2.496-1.579-2.926-3.239-1.261zM56.964 193.94c.348 2.148-.08 3.893-2.81 5.128l3.881 1.556 3.748-2.496-1.58-2.926-3.239-1.261z"/>
    </g>
</svg>
