<svg xmlns="http://www.w3.org/2000/svg" xmlns:xlink="http://www.w3.org/1999/xlink" width="150" height="260" viewBox="0 0 150 260">
    <defs>
        <path id="a" d="M.206.273H20.24V20.36H.206z"/>
    </defs>
    <g fill="none" fill-rule="evenodd">
        <path fill="#164B9F" d="M0 253.939c0 3.197 33.552 5.788 74.941 5.788s74.942-2.591 74.942-5.788-33.553-5.788-74.942-5.788C33.552 248.15 0 250.742 0 253.939" opacity=".102"/>
        <path fill="#062942" d="M77.018 250.27c.404.004 1.617-.052 3.353-.144.09-.004.182-.008.279-.016l.215-.01c7.739-.425 24.411-1.518 28.618-1.797 0-.008 0-.019.004-.026.048-.383.078-.886.048-1.507-.055-1.138-.32-2.664-1.064-4.534-1.629-4.074-2.423-8.463-2.538-9.126l-.082-.264a4.714 4.714 0 0 0-5.728-3.444c-2.534.636-3.932 3.132-3.298 5.672l2.051 6.473c-1.654.841-1.813 1.67-12.672 3.747-6.26 1.193-8.404 2.264-8.986 3.79-.148.365-.2.758-.2 1.187"/>
        <path fill="#062942" d="M77.018 250.27c.404.004 1.617-.052 3.353-.144.093-.004.186-.012.279-.016l.215-.01c7.947-.447 25.283-1.6 28.622-1.823.048-.383.078-.886.048-1.507l-32.317 2.314c-.148.365-.2.758-.2 1.186M70.499 236.881c-.946-2.442.583-2.457 3.019-3.404 2.435-.948 4.368-1.974 5.313.467l1.34 8.632c-1.161.601-1.745 1.27-2.356 2.223-.68 1.056-1.316 2.053-2.627 2.457-.924.281-3.033-4.295-3.955-4.647l-.734-5.728z"/>
        <path fill="#062942" d="M51.407 258.019c2.148-.25 27.198-5.103 31.695-5.978 0-.056-.015-.624-.156-1.45-.163-.96-.501-2.266-1.187-3.52-.898-1.629-1.376-3.553-1.702-5.194l-.045-.115c-.998.536-1.443 1.623-2.03 2.539-.701 1.09-1.428 2.216-2.927 2.677-.163.053-.323.09-.49.116-.95.148-1.662-.123-2.545-.458-1.814.666-3.806 2.623-13.389 5.591-5.591 1.734-7.02 2.875-7.268 4.238-.089.479-.03.985.044 1.554"/>
        <path fill="#68B5EB" d="M91.939 40.487a2100.546 2100.546 0 0 1 7.877 17.31c2.596 5.793 5.177 11.568 7.66 17.496.62 1.498 1.228 2.966 1.833 4.615.153.428.301.835.477 1.422l.072.257.077.3.09.432c.018.1.047.317.06.472.013.175.023.328.019.52a5.69 5.69 0 0 1-.05.604l-.05.298-.036.157-.084.308c-.03.105-.063.208-.082.257l-.146.376-.125.276c-.325.677-.577 1.064-.838 1.48-.256.4-.506.77-.754 1.123-.993 1.412-1.98 2.687-2.98 3.964a250.06 250.06 0 0 1-3.013 3.752c-4.048 4.939-8.154 9.745-12.324 14.542a3.322 3.322 0 0 1-4.696.323 3.343 3.343 0 0 1-.464-4.534l.018-.022c3.802-4.988 7.585-10.04 11.224-15.114.909-1.27 1.806-2.542 2.68-3.814.867-1.267 1.73-2.55 2.476-3.773.187-.305.359-.603.51-.878.146-.26.29-.557.292-.6-.003.003.001-.007-.006.007a.89.89 0 0 0-.042.098l-.038.116a1.995 1.995 0 0 0-.045.164l-.018.086a3.039 3.039 0 0 0-.075.682c-.001.142-.002.246.008.372.006.106.033.273.042.325.005.048.012.096.023.143.014.054-.004.007-.003.015-.006-.01-.002.001-.014-.025a28.034 28.034 0 0 0-.352-.798c-.587-1.274-1.299-2.678-2-4.046-2.852-5.52-5.882-11.061-8.908-16.577a2097.148 2097.148 0 0 0-9.183-16.519l-.004-.007a6.147 6.147 0 0 1 2.33-8.36 6.114 6.114 0 0 1 8.562 2.775"/>
        <path fill="#005DAB" d="M94.85 156.786c-.018-2.269.945-9.587.99-11.655.389-17.95 5.919-24.472 5.245-35.464-.608-9.919-2.162-15.433-3.165-20.15-.026-.14-.055-.28-.085-.416l-.09-.265-18.91 22.738 16.015 45.212z"/>
        <path fill="#68B5EB" d="M87.134 47.75c-.65.474-1.417.82-2.262.992a5.78 5.78 0 0 1-2.33 0 5.86 5.86 0 0 1-4.55-4.577l-1.59-7.884-.356-1.773-.183.625c-.022-.346-.045-.67-.066-.976-.685-8.124-3.142-1.707-6.718-2.866-.936-.308-1.238-1.297-1.69-3.225-.069-.296-.218-.593-.273-.707-.087-.182-.102-.34-.023-.424.084-.09.18-.195.218-.244.833-1.076 1.184-1.678 1.017-1.806-.15-.117-.84.507-1.596 1.438a84.869 84.869 0 0 1-.322-2.447l-1.935.323a.338.338 0 0 1-.334-.524l1.913-2.822.384-.563.022-.033v-.005l.028-.04a.903.903 0 0 0 .05-.719l-.557-1.51a5.756 5.756 0 0 1-.31-1.333c-.018-.196-.04-.385-.046-.502a13.67 13.67 0 0 1 .056-2.794c.06-.501.15-.98.268-1.437 1.267-5.08 5.766-7.59 10.603-7.59 5.794 0 10.538 4.88 10.905 11.04.005.067.011.134.011.196.011.155.022.306.022.451.134 3.964-1.607 6.24-1.09 10.795l.023.094.478 2.38 1.623 8.035.206 1.026.706 3.501c.468 2.32-.5 4.6-2.302 5.905"/>
        <path fill="#062942" d="M71.953 75.534c.49 2.771 1.031 5.658 1.492 8.839.304 2.112.537 4.296.708 6.457 1.51-.045 3.136-.112 4.85-.2.182-.012.367-.019.549-.03l.23-.011c5.39-.298 11.556-.819 17.507-1.723.16-.026.318-.049.479-.074 0-.015-.004-.03-.008-.045l-.09-.428c-.578-2.782-1.086-5.471-1.41-8.038-.347-2.794-.663-5.572-.993-8.437-.954-8.217-2.04-17.107-4.408-28.915a29.043 29.043 0 0 0-1.973-3.808 19.44 19.44 0 0 0-1.506-2.117c-2.438-2.961-5.462-4.564-9.227-4.129-.761.09-1.429.833-2.01 2.11-2.813 6.126-3.725 24.45-4.19 40.55"/>
        <path fill="#005DAB" d="M56.587 170.826c.063 1.208.174 2.448.33 3.697l.46 3.143 1.936 12.328c2.63 16.382 5.343 32.712 8.077 49.054l3.265-.488 8.8-1.305.015-.004c-2.093-16.409-4.166-32.831-6.152-49.232l-1.431-12.265-.33-3.016a35.158 35.158 0 0 1-.138-2.49c-.04-1.714.045-3.51.212-5.334.708-7.33 2.656-14.968 5.26-22.162 1.31-3.597 2.827-7.109 4.538-10.293.126-.234 6.863-11.9 6.99-12.127l-.831 5.726 10.595-14.367c-.037-3.779-.078-7.652-.115-11.115-.056-5.074-.111-9.277-.149-11.06-.025-.14-.056-.278-.085-.415l-.066-.309c0-.015-.004-.03-.008-.045l-.434.067c-5.973.912-12.143 1.458-17.545 1.775l-.23.011c-.182.01-.367.018-.549.029-1.71.093-3.339.164-4.848.22.54 7.057.37 13.912-.339 17.61-.54 2.815-1.832 5.598-3.572 9.083-1.057 2.579-2.682 5.405-4.882 11.234h.03a100.363 100.363 0 0 0-3.366 8.78 120.921 120.921 0 0 0-3.476 12.829c-.905 4.356-1.599 8.775-1.896 13.377a62.02 62.02 0 0 0-.066 7.064"/>
        <path fill="#359CE4" d="M65.3 23.785s.696-.522 1.321-.313M66.622 23.472c.016-.045-.046-.128-.186-.177a.948.948 0 0 0-.559 0c-.419.125-.641.41-.576.49.063.086.35-.025.682-.121.325-.104.593-.093.639-.192"/>
        <g transform="translate(62.234 .527)">
            <mask id="b" fill="#fff">
                <use xlink:href="#a"/>
            </mask>
            <path fill="#062942" d="M.206 10.316c0 5.548 4.485 10.044 10.016 10.044 5.533 0 10.018-4.496 10.018-10.044C20.24 4.77 15.755.272 10.222.272 4.691.272.206 4.77.206 10.316" mask="url(#b)"/>
        </g>
        <path fill="#062942" d="M72.83 24.11c0 5.548 4.485 10.045 10.018 10.045 5.531 0 10.016-4.497 10.016-10.044 0-5.547-4.485-10.043-10.016-10.043-5.533 0-10.018 4.496-10.018 10.043"/>
        <path fill="#062942" d="M64.047 38.246c0 5.548 4.485 10.044 10.017 10.044 5.532 0 10.017-4.496 10.017-10.044 0-5.547-4.485-10.043-10.017-10.043-5.532 0-10.017 4.496-10.017 10.043"/>
        <path fill="#062942" d="M78.022 35.767c0 5.547 4.485 10.043 10.016 10.043 5.533 0 10.017-4.496 10.017-10.043 0-5.548-4.484-10.044-10.017-10.044-5.531 0-10.016 4.496-10.016 10.044"/>
        <path fill="#062942" d="M76.661 23.49c0 5.548 4.485 10.045 10.018 10.045 5.531 0 10.016-4.497 10.016-10.044 0-5.547-4.485-10.043-10.016-10.043-5.533 0-10.018 4.496-10.018 10.043"/>
        <path fill="#062942" d="M69.489 12.207c0 5.547 4.484 10.044 10.017 10.044 5.531 0 10.016-4.497 10.016-10.044 0-5.547-4.485-10.043-10.016-10.043-5.533 0-10.017 4.496-10.017 10.043"/>
        <path fill="#68B5EB" d="M63.667 93.184l.039.041.034.041c.041.055-.01.001-.073-.082M81.09 42.729a5.375 5.375 0 0 0-6.927 3.455l-.011.036a1437.722 1437.722 0 0 1-7.114 22.225 776.856 776.856 0 0 1-3.722 11.028c-.923 2.648-1.861 5.303-2.84 7.884-1.375-2.786-2.704-5.66-4.01-8.537-3.19-7.059-6.274-14.226-9.275-21.387l-.008-.016a3.477 3.477 0 0 0-4.556-1.866 3.5 3.5 0 0 0-1.917 4.427c2.717 7.37 5.489 14.681 8.414 21.99 1.473 3.657 2.96 7.295 4.637 10.974.425.923.861 1.847 1.348 2.8.244.478.5.961.798 1.476.149.259.308.524.498.815a9.7 9.7 0 0 0 .769 1.038l.157.176c.06.064.106.115.189.196.08.08.141.14.242.229.113.097.197.17.34.277.078.058.157.114.237.168l.12.08.175.103c.122.069.246.133.373.193a4.812 4.812 0 0 0 .86.3 4.94 4.94 0 0 0 .9.128 4.48 4.48 0 0 0 1.964-.354c.13-.054.198-.087.298-.137.714-.377.97-.646 1.202-.85.215-.206.352-.362.472-.503.228-.273.373-.477.499-.661.247-.365.419-.655.58-.936.16-.279.3-.54.433-.794.527-1.01.96-1.945 1.386-2.883 1.667-3.725 3.112-7.374 4.554-11.052a760.698 760.698 0 0 0 4.192-11.02 1433.61 1433.61 0 0 0 8.016-22.115 5.398 5.398 0 0 0-3.273-6.887"/>
        <path fill="#000" d="M31.1 35.547l.647 1.619 22 19.54 1.973-2.226-22-19.54-1.68-.443z"/>
        <path fill="#000" d="M54.085 56.086l.987-1.111-24.874-22.164-.987 1.111z"/>
        <path fill="#68B5EB" d="M36.17 50.336c.372 1.797 2.66 4.03 4.638 9.733l6.246-2.79c-2.698-7.182-2.473-7.191-3.092-9.98-.806-3.627-2.102-4.466-3.957-3.907-1.856.56-4.205 5.147-3.834 6.944"/>
        <path fill="#68B5EB" d="M46.768 50.522s-.478.982-.673 2.232c-.231 1.488.958 4.525.958 4.525l-4.39-2.852 1.322-6.37 2.783 2.465z"/>
        <path fill="#68B5EB" d="M44.146 52.444a1.116 1.116 0 0 0 1.075-1.41L42.13 39.688a1.115 1.115 0 0 0-1.366-.782 1.117 1.117 0 0 0-.78 1.37l3.09 11.346c.136.496.584.822 1.073.822"/>
        <path fill="#062942" d="M51.407 258.019c2.148-.25 27.198-5.103 31.695-5.978 0-.056-.015-.624-.156-1.45l-31.583 5.874c-.089.479-.03.985.044 1.554"/>
        <path fill="#005DAB" d="M84.597 105.983c.162 1.41.326 2.755.454 4.008.129 1.256.219 2.43.26 3.603.08 2.331-.029 4.727-.281 7.253a79.022 79.022 0 0 1-.209 1.902l-.12.993-.132 1.022-.526 4.093-1.09 8.202c-.733 5.482-1.498 10.974-2.167 16.58-.34 2.796-.638 5.64-.879 8.53-.237 2.894-.406 5.854-.36 8.974.016.782.055 1.583.085 2.373.03.438.075.91.116 1.363.019.24.048.43.075.635l.083.606.083.606.095.57.191 1.135.422 2.182a211.08 211.08 0 0 0 1.915 8.362c1.36 5.476 2.82 10.863 4.319 16.233 3.009 10.74 6.159 21.367 9.428 32.016l10.832-3.156c-2.843-10.625-5.596-21.336-8.172-32.019-1.283-5.344-2.524-10.692-3.64-16.006a198.373 198.373 0 0 1-1.507-7.885l-.296-1.907-.12-.916-.06-.457-.04-.424-.042-.423c-.014-.14-.032-.292-.033-.398l-.033-.707c.004-.595-.007-1.177.004-1.778.05-2.417.281-4.986.595-7.599.315-2.616.688-5.269 1.115-7.954.839-5.361 1.8-10.805 2.735-16.266l1.397-8.216.685-4.122.34-2.093c.113-.733.227-1.467.324-2.215.408-2.968.684-6.108.692-9.312a70.235 70.235 0 0 0-.16-4.688c-.098-1.505-.22-2.915-.324-4.258l-16.054 1.558z"/>
        <path fill="#062942" d="M97.707 237.729c.435 2.684-.1 4.865-3.513 6.409l4.852 1.945 4.685-3.12-1.974-3.657-4.05-1.577zM71.205 242.426c.435 2.684-.1 4.866-3.513 6.409l4.852 1.945 4.684-3.12-1.974-3.657-4.049-1.577z"/>
    </g>
</svg>
