<svg xmlns="http://www.w3.org/2000/svg" xmlns:xlink="http://www.w3.org/1999/xlink" width="344" height="271" viewBox="0 0 344 271">
    <defs>
        <path id="a" d="M0 .624h194.573v109.875H0z"/>
        <path id="c" d="M0 271h343.735V.624H0z"/>
    </defs>
    <g fill="none" fill-rule="evenodd">
        <path fill="#1565B0" fill-opacity=".15" d="M230.42 221.189c-2.498-.514-5.213-.68-6.054-.369l-23.056 8.516-82.252-16.915.042 1.52 79.564 16.372-14.81 5.47-112.425-23.124-.364 1.414 110.197 22.667-25.746 9.51c-.84.31.508.98 3.005 1.494l110.062 22.64c2.497.513 5.212.679 6.051.368l68.852-25.429c.84-.31-.51-.98-3.005-1.495l-110.062-22.64z"/>
        <path fill="#EAEAEA" d="M117 214h9V94h-9zM69 214h9V94h-9z"/>
        <g>
            <path fill="#FFF" d="M4.962 108.685h184.649a3.162 3.162 0 0 0 3.155-3.167V5.605a3.162 3.162 0 0 0-3.155-3.168H4.962a3.161 3.161 0 0 0-3.155 3.168v99.913a3.161 3.161 0 0 0 3.155 3.167"/>
            <mask id="b" fill="#fff">
                <use xlink:href="#a"/>
            </mask>
            <path fill="#1565B0" d="M7.043 4.25a3.44 3.44 0 0 0-3.429 3.444v95.735a3.44 3.44 0 0 0 3.43 3.443h180.485a3.442 3.442 0 0 0 3.431-3.443V7.694c0-1.9-1.54-3.443-3.431-3.443H7.043zM187.53 110.5H7.043C3.16 110.5 0 107.326 0 103.43V7.693C0 3.795 3.16.624 7.043.624H187.53c3.884 0 7.044 3.171 7.044 7.07v95.735c0 3.898-3.16 7.07-7.044 7.07z" mask="url(#b)"/>
            <path fill="#1565B0" d="M10.167 103.21h174.24a2.91 2.91 0 0 0 2.904-2.916V10.83a2.91 2.91 0 0 0-2.905-2.915H10.166a2.91 2.91 0 0 0-2.903 2.915v89.464a2.91 2.91 0 0 0 2.904 2.915"/>
            <mask id="d" fill="#fff">
                <use xlink:href="#c"/>
            </mask>
            <text fill="#FFF" font-family="Helvetica" font-size="17" mask="url(#d)">
                <tspan x="50.271" y="64">Approaching</tspan> <tspan x="25.725" y="84">Self-Employed City</tspan>
            </text>
            <path fill="#FFF" d="M87.274 33.825c-.626 0-1.431 1.508-2.407 2.938-.401.592-.675.439-.675.439s.12 1.05 1.443.779c0 0 1.13-3.061 2.55-4.156h-.91z" mask="url(#d)"/>
            <path fill="#FFF" d="M96.762 27.697c-4.481.449-8.571 5.386-8.571 5.386s4.063-6.168 8.868-6.648c4.888-.491 7.873-2.91 7.873-2.91s-2.973 3.647-8.17 4.172m.945-5.297c-9.83-.315-10.702 11.86-10.702 11.86 21.553 2.523 21.466-14.779 21.466-14.779s-2.618 3.18-10.764 2.92" mask="url(#d)"/>
        </g>
    </g>
</svg>
