<svg xmlns="http://www.w3.org/2000/svg" xmlns:xlink="http://www.w3.org/1999/xlink" width="315" height="182" viewBox="0 0 315 182">
    <defs>
        <path id="a" d="M.295 184h314V0h-314z"/>
    </defs>
    <g fill="none" fill-rule="evenodd" transform="translate(0 -2)">
        <path fill="#DDF0FE" d="M276.107 184a119.046 119.046 0 0 0 6.647-39.263c0-66.026-53.66-119.55-119.852-119.55-66.193 0-119.853 53.524-119.853 119.55 0 13.76 2.36 26.961 6.648 39.263h226.41z"/>
        <path stroke="#EFC100" stroke-linejoin="round" stroke-width="7" d="M28.33 153.217l55.356-76.95 39.852 34.187 54.387-88.996S247.8 125.61 250.44 122.58c2.64-3.03 52.64-106.49 52.64-106.49"/>
        <path fill="#EFC100" d="M310.79 22.388l-1.421-19.59-16.101 11.035z"/>
        <mask id="b" fill="#fff">
            <use xlink:href="#a"/>
        </mask>
        <path fill="#F0F7FC" d="M240 184h32.942v-60.867H240zM1.344 184h32.245a17.198 17.198 0 0 0 1.05-5.924c0-9.48-7.683-17.163-17.173-17.163-9.49 0-17.171 7.683-17.171 17.163 0 2.087.374 4.08 1.049 5.924zM314.295 184h-28.036v-20.989z" mask="url(#b)"/>
        <path fill="#A5D5F2" d="M177.62 151.118h23.13v-55.27h-23.13z" mask="url(#b)" opacity=".527"/>
        <path fill="#F0F7FC" d="M99.821 164.877a37.112 37.112 0 0 0 5.32 19.123h61.554a37.112 37.112 0 0 0 5.318-19.123c0-19.962-16.161-36.147-36.095-36.147-19.935 0-36.097 16.185-36.097 36.147M204.594 115.437h-8.05l9.112 11.894z" mask="url(#b)"/>
        <path fill="#F0F7FC" d="M129.259 184h20.326l-5.082-60.168-.922-10.9-.762-8.98-2.889-34.321-.508-5.966-.508 5.975-2.504 29.714-.667 7.885-1.402 16.593zM48.656 123.935V184h74.295v-76.958l-20.783 17.756-13.731-8.681-.174.178-19.169 16.978-.015.019zM196.545 115.437v46.875h23.13v-29.795z" mask="url(#b)"/>
        <path fill="#A5D5F2" d="M204.955 115.437v46.875h23.13v-29.795zM129.259 184h20.326l-4.978-58.86-9.787-6.904-.48 5.65z" mask="url(#b)" opacity=".527"/>
        <path fill="#F0F7FC" d="M174.116 125.232V184H240v-39.492zM123.652 90.246a.88.88 0 0 0 .047.268c.578 1.811 7.075 3.235 15.022 3.235s14.444-1.424 15.022-3.235a.88.88 0 0 0 .047-.268c0-1.931-6.744-3.493-15.07-3.493-8.325 0-15.068 1.562-15.068 3.493M272.942 184h16.12v-31.483h-16.12z" mask="url(#b)"/>
        <path fill="#A5D5F2" d="M48.656 123.689v3.005L83.8 142.602c.188.083.396.12.593.12.329 0 .602-.11.856-.333l37.702-31.703v-3.644l-20.783 17.498-18.029 15.167-15.052-6.816-.012.019-20.419-9.221z" mask="url(#b)" opacity=".527"/>
        <path fill="#F0F7FC" d="M157.995 84.249V184h30.84V69.262zM139.071 184v-17.49l-10.23-8.396-11.38 3.498-5.724 8.979V184zM24.125 184h32.942v-37.08H24.125z" mask="url(#b)"/>
        <path fill="#A5D5F2" d="M128.67 166.69l1.411 17.31 11.093-.902-1.41-17.309-11.327-7.675-11.093.902z" mask="url(#b)" opacity=".243"/>
        <path fill="#71B9E6" d="M188.134 148.804l38.38 9.467-33.4 6.62a2.268 2.268 0 0 0-1.85 2.161 2.267 2.267 0 0 0 1.726 2.253L240 181.202v-4.683l-36.118-9.142 33.544-6.64a2.26 2.26 0 0 0 1.848-2.17c.028-1.056-.698-1.993-1.745-2.252l-49.395-12.193v4.682zM48.656 152.517h74.295v-2.798H48.656z" mask="url(#b)" opacity=".243"/>
        <path fill="#A5D5F2" d="M157.995 96.548V184h30.84v-64.87z" mask="url(#b)" opacity=".527"/>
        <g fill="#71B9E6" mask="url(#b)" opacity=".243">
            <path d="M182.15 183.285a2.33 2.33 0 0 1-2.33-2.332V75.821a2.33 2.33 0 1 1 4.66 0v105.132a2.331 2.331 0 0 1-2.33 2.332M175.583 183.285a2.33 2.33 0 0 1-2.33-2.332V78.636a2.331 2.331 0 0 1 2.33-2.331 2.332 2.332 0 0 1 2.33 2.33v102.318a2.331 2.331 0 0 1-2.33 2.332M169.016 183.285a2.33 2.33 0 0 1-2.33-2.332V82.391a2.33 2.33 0 1 1 4.66 0v98.562a2.33 2.33 0 0 1-2.33 2.332M162.45 183.285a2.33 2.33 0 0 1-2.33-2.332V87.085a2.33 2.33 0 1 1 4.66 0v93.868a2.331 2.331 0 0 1-2.33 2.332"/>
        </g>
        <path fill="#F0F7FC" d="M102.625 184v-13.992l-10.368-8.396H80.946l-5.656 8.979V184z" mask="url(#b)"/>
        <path fill="#F0F7FC" d="M67.58 184h17.523v-13.992H67.58z" mask="url(#b)"/>
        <path fill="#71B9E6" d="M93.513 181.202h7.01v-8.396h-7.01z" mask="url(#b)" opacity=".243"/>
        <path fill="#C8E0F1" d="M104.701 122.5l-.66.566.672-.543z" mask="url(#b)"/>
        <path fill="#A5D5F2" d="M85.103 139.924l17.522-15.091-13.576-8.696-.186.178zM136.175 93.41l-.495 5.639 6.471 4.495-.884-10.134c6.775-.266 12.01-1.557 12.523-3.159h-30.138c.513 1.602 5.748 2.893 12.523 3.159" mask="url(#b)" opacity=".527"/>
        <path fill="#E7BA20" d="M275.745 179.452c0 .966.785 1.75 1.753 1.75.967 0 1.752-.784 1.752-1.75 0-.965-.785-1.749-1.752-1.749a1.75 1.75 0 0 0-1.752 1.75" mask="url(#b)"/>
        <path fill="#ED4096" d="M292.567 178.053a1.75 1.75 0 0 0 1.752 1.75c.968 0 1.752-.784 1.752-1.75 0-.965-.784-1.749-1.752-1.749a1.75 1.75 0 0 0-1.752 1.75" mask="url(#b)"/>
        <path fill="#E7BA20" d="M79.496 168.259c0 .965.784 1.749 1.752 1.749.967 0 1.752-.784 1.752-1.75 0-.965-.785-1.748-1.752-1.748a1.75 1.75 0 0 0-1.752 1.749M45.152 175.255a1.75 1.75 0 0 0 1.752 1.749c.967 0 1.752-.784 1.752-1.75 0-.965-.785-1.748-1.752-1.748a1.75 1.75 0 0 0-1.752 1.749" mask="url(#b)"/>
        <path fill="#ED4096" d="M54.964 176.654c0 .966.785 1.749 1.752 1.749.968 0 1.753-.783 1.753-1.749 0-.966-.785-1.75-1.753-1.75a1.75 1.75 0 0 0-1.752 1.75" mask="url(#b)"/>
        <path fill="#E7BA20" d="M54.282 168.513a1.752 1.752 0 0 0 3.467-.508 1.751 1.751 0 0 0-1.988-1.477 1.75 1.75 0 0 0-1.479 1.985M16.434 176.908a1.752 1.752 0 0 0 3.467-.508 1.751 1.751 0 0 0-1.988-1.476 1.75 1.75 0 0 0-1.479 1.984" mask="url(#b)"/>
        <path fill="#ED4096" d="M67.6 167.813a1.752 1.752 0 0 0 3.466-.508 1.751 1.751 0 0 0-1.988-1.476 1.75 1.75 0 0 0-1.479 1.984" mask="url(#b)"/>
        <path fill="#7FBF42" d="M80.897 176.654c0 .966.785 1.749 1.753 1.749a1.75 1.75 0 0 0 1.752-1.749 1.75 1.75 0 0 0-1.752-1.75 1.75 1.75 0 0 0-1.753 1.75" mask="url(#b)"/>
        <path fill="#E7BA20" d="M282.754 173.856c0 .965.785 1.749 1.753 1.749.967 0 1.752-.784 1.752-1.75 0-.965-.785-1.749-1.752-1.749-.968 0-1.753.784-1.753 1.75" mask="url(#b)"/>
        <path fill="#7FBF42" d="M192.34 179.452a1.751 1.751 0 1 0 3.504 0c0-.965-.785-1.749-1.753-1.749a1.75 1.75 0 0 0-1.752 1.75" mask="url(#b)"/>
        <path fill="#E7BA20" d="M249.812 179.452c0 .966.785 1.75 1.753 1.75.967 0 1.752-.784 1.752-1.75 0-.965-.785-1.749-1.752-1.749-.968 0-1.753.784-1.753 1.75" mask="url(#b)"/>
        <path fill="#7FBF42" d="M243.504 172.456a1.75 1.75 0 0 0 1.753 1.75c.967 0 1.752-.784 1.752-1.75 0-.965-.785-1.749-1.752-1.749a1.75 1.75 0 0 0-1.753 1.75" mask="url(#b)"/>
        <path fill="#71B9E6" d="M28.33 181.202h15.42v-13.293H28.33zM28.33 163.011h15.42v-5.597H28.33z" mask="url(#b)" opacity=".243"/>
        <path fill="#ED4096" d="M32.555 176.908a1.752 1.752 0 0 0 3.466-.508 1.752 1.752 0 0 0-3.466.508" mask="url(#b)"/>
        <path fill="#A5D5F2" d="M256.821 126.88V184h16.12v-60.867h-7.073z" mask="url(#b)" opacity=".527"/>
        <path fill="#F0F7FC" d="M240 123.133v.18l16.612 16.611 16.292-16.753.038-.038h-.038z" mask="url(#b)"/>
        <path fill="#A5D5F2" d="M274.344 164.41h11.214v-6.996h-11.214z" mask="url(#b)"/>
    </g>
</svg>
