<svg xmlns="http://www.w3.org/2000/svg" xmlns:xlink="http://www.w3.org/1999/xlink" width="671" height="387" viewBox="0 0 671 387">
    <defs>
        <path id="a" d="M0 393h671V0H0z"/>
    </defs>
    <g fill="none" fill-rule="evenodd" transform="translate(0 -6)">
        <path fill="#DDF0FE" d="M589.801 393A255.392 255.392 0 0 0 604 308.943C604 167.59 489.385 53 348 53S92 167.59 92 308.943c0 29.457 5.04 57.72 14.199 84.057H589.8z"/>
        <path stroke="#EFC100" stroke-linejoin="round" stroke-width="10" d="M60 328l118.266-164.423 85.143 73.05 116.197-190.16s149.288 222.547 154.929 216.072C540.175 256.064 647 35 647 35"/>
        <path fill="#EFC100" d="M664.5 48l-3.082-42L626.5 29.659z"/>
        <mask id="b" fill="#fff">
            <use xlink:href="#a"/>
        </mask>
        <path fill="#F0F7FC" d="M513 393h70V263h-70zM2.23 393H70.77A36.452 36.452 0 0 0 73 380.427C73 360.307 56.67 344 36.5 344 16.327 344 0 360.307 0 380.427c0 4.429.796 8.66 2.23 12.573zM671 393h-60v-46z" mask="url(#b)"/>
        <path fill="#A5D5F2" d="M379 323h50V205h-50z" mask="url(#b)" opacity=".527"/>
        <path fill="#F0F7FC" d="M213 351.827A80.073 80.073 0 0 0 224.42 393h132.16A80.072 80.072 0 0 0 368 351.827c0-42.98-34.7-77.827-77.5-77.827S213 308.847 213 351.827M436.67 247H419l20 25z" mask="url(#b)"/>
        <path fill="#F0F7FC" d="M276 393h43l-10.75-128.5-1.951-23.28-1.613-19.18-6.111-73.3-1.076-12.74-1.074 12.76-5.296 63.46-1.412 16.84-2.967 35.44zM105 265v128h158V229l-44.2 37.84-29.2-18.5-.37.38-40.765 36.18-.033.04zM419 247v100h50v-63.563z" mask="url(#b)"/>
        <path fill="#A5D5F2" d="M437 247v100h50v-63.563zM276 393h43l-10.53-126.196L287.765 252l-1.016 12.116z" mask="url(#b)" opacity=".527"/>
        <path fill="#F0F7FC" d="M373 268v125h140v-84zM265 192.49c0 .198.04.377.101.575C266.327 196.948 280.125 200 297 200s30.672-3.052 31.899-6.935c.06-.198.101-.377.101-.575 0-4.141-14.32-7.49-32-7.49s-32 3.349-32 7.49M583 393h34v-68h-34z" mask="url(#b)"/>
        <path fill="#A5D5F2" d="M105 264.925v6.486l74.74 34.33c.4.18.84.259 1.26.259.7 0 1.28-.24 1.82-.72L263 236.864V229l-44.2 37.761-38.34 32.732-32.01-14.71-.025.04L105 264.925z" mask="url(#b)" opacity=".527"/>
        <path fill="#F0F7FC" d="M337 180v213h66V148zM297 393v-37.838L275.293 337l-24.147 7.568L239 363.992V393zM51 393h70v-80H51z" mask="url(#b)"/>
        <path fill="#A5D5F2" d="M274.24 355.554L277.26 393l23.74-1.952-3.02-37.444L273.74 337 250 338.95z" mask="url(#b)" opacity=".243"/>
        <path fill="#71B9E6" d="M403 318.103l81.4 20.424-70.84 14.284a4.869 4.869 0 0 0-3.92 4.662 4.877 4.877 0 0 0 3.66 4.86L513 388v-10.103l-76.6-19.724 71.141-14.325a4.852 4.852 0 0 0 3.92-4.68c.06-2.281-1.48-4.301-3.7-4.861L403 308v10.103zM105 327h158v-6H105z" mask="url(#b)" opacity=".243"/>
        <path fill="#A5D5F2" d="M337 206v187h66V254.29z" mask="url(#b)" opacity=".527"/>
        <g fill="#71B9E6" mask="url(#b)" opacity=".243">
            <path d="M389.745 391.966c-2.727 0-4.939-2.224-4.939-4.966V163.029c0-2.742 2.212-4.966 4.939-4.966 2.726 0 4.938 2.224 4.938 4.966v223.97c0 2.743-2.212 4.967-4.938 4.967M375.823 391.966c-2.727 0-4.938-2.224-4.938-4.966V169.026c0-2.74 2.211-4.966 4.938-4.966 2.726 0 4.939 2.225 4.939 4.966V387c0 2.742-2.213 4.966-4.939 4.966M361.904 391.966c-2.727 0-4.938-2.224-4.938-4.966V177.026c0-2.742 2.211-4.966 4.938-4.966s4.939 2.224 4.939 4.966V387c0 2.742-2.212 4.966-4.939 4.966M347.986 391.966c-2.727 0-4.938-2.224-4.938-4.966V187.027c0-2.743 2.211-4.967 4.938-4.967 2.726 0 4.939 2.224 4.939 4.967V387c0 2.742-2.213 4.966-4.939 4.966"/>
        </g>
        <path fill="#F0F7FC" d="M219 393v-30l-22-18h-24l-12 19.25V393z" mask="url(#b)"/>
        <path fill="#F0F7FC" d="M145 393h38v-30h-38z" mask="url(#b)"/>
        <path fill="#71B9E6" d="M199 387h16v-18h-16z" mask="url(#b)" opacity=".243"/>
        <path fill="#C8E0F1" d="M223.962 262.096l-.941.808.958-.776z" mask="url(#b)"/>
        <path fill="#A5D5F2" d="M181 299l38-32.356L189.559 248l-.405.382zM291.593 199.891l-1.05 12.302L304.284 222l-1.877-22.109c14.387-.58 25.504-3.396 26.593-6.891h-64c1.089 3.495 12.206 6.312 26.593 6.891" mask="url(#b)" opacity=".527"/>
        <path fill="#E7BA20" d="M590 382a4 4 0 1 0 8 0 4 4 0 0 0-8 0" mask="url(#b)"/>
        <path fill="#ED4096" d="M624 380a4 4 0 1 0 8 0 4 4 0 0 0-8 0" mask="url(#b)"/>
        <path fill="#E7BA20" d="M170 359a4 4 0 1 0 8 0 4 4 0 0 0-8 0M97 375a4 4 0 1 0 8 0 4 4 0 0 0-8 0" mask="url(#b)"/>
        <path fill="#ED4096" d="M118 377a4 4 0 1 0 8 0 4 4 0 0 0-8 0" mask="url(#b)"/>
        <path fill="#E7BA20" d="M116.043 359.58a4 4 0 1 0 7.914-1.16 4 4 0 0 0-7.914 1.16M34.043 377.58a4 4 0 1 0 7.914-1.16 4 4 0 0 0-7.914 1.16" mask="url(#b)"/>
        <path fill="#ED4096" d="M144.043 358.58a4 4 0 1 0 7.914-1.16 4 4 0 0 0-7.914 1.16" mask="url(#b)"/>
        <path fill="#7FBF42" d="M172 378a4 4 0 1 0 8.001-.001A4 4 0 0 0 172 378" mask="url(#b)"/>
        <path fill="#E7BA20" d="M604 371a4.001 4.001 0 0 0 8 0 4.001 4.001 0 0 0-8 0" mask="url(#b)"/>
        <path fill="#7FBF42" d="M412 382a4 4 0 1 0 8 0 4 4 0 0 0-8 0" mask="url(#b)"/>
        <path fill="#E7BA20" d="M534 382a4.001 4.001 0 0 0 8 0 4.001 4.001 0 0 0-8 0" mask="url(#b)"/>
        <path fill="#7FBF42" d="M521 368a4 4 0 1 0 8 0 4 4 0 0 0-8 0" mask="url(#b)"/>
        <path fill="#71B9E6" d="M61 387h32v-28H61zM61 349h32v-12H61z" mask="url(#b)" opacity=".243"/>
        <path fill="#ED4096" d="M69.043 377.58a4 4 0 1 0 7.914-1.16 4 4 0 0 0-7.914 1.16" mask="url(#b)"/>
        <path fill="#A5D5F2" d="M549 271v122h34V263h-14.92z" mask="url(#b)" opacity=".527"/>
        <path fill="#F0F7FC" d="M513 263v.377L548.299 298l34.621-34.92.08-.08h-.08z" mask="url(#b)"/>
        <path fill="#A5D5F2" d="M587 351h24v-16h-24z" mask="url(#b)"/>
    </g>
</svg>
