<svg xmlns="http://www.w3.org/2000/svg" xmlns:xlink="http://www.w3.org/1999/xlink" width="449" height="259" viewBox="0 0 449 259">
    <defs>
        <path id="a" d="M.42 263h448V0H.42z"/>
    </defs>
    <g fill="none" fill-rule="evenodd" transform="translate(0 -4)">
        <path fill="#DDF0FE" d="M393.936 263a170.438 170.438 0 0 0 9.484-56.12c0-94.374-76.559-170.88-171-170.88-94.44 0-171 76.506-171 170.88 0 19.666 3.367 38.536 9.485 56.12h323.031z"/>
        <path stroke="#EFC100" stroke-linejoin="round" stroke-width="10" d="M40.42 219L119.4 109.01l56.859 48.867 77.596-127.206s99.695 148.87 103.462 144.54C361.083 170.878 432.42 23 432.42 23"/>
        <path fill="#EFC100" d="M443.42 32l-2.028-28-22.972 15.773z"/>
        <mask id="b" fill="#fff">
            <use xlink:href="#a"/>
        </mask>
        <path fill="#F0F7FC" d="M342.42 263h47v-87h-47zM1.917 263h46.006a24.623 24.623 0 0 0 1.497-8.467c0-13.55-10.96-24.533-24.5-24.533S.42 240.982.42 254.533c0 2.982.535 5.832 1.497 8.467zM448.42 263h-40v-30z" mask="url(#b)"/>
        <path fill="#A5D5F2" d="M253.42 216h33v-79h-33z" mask="url(#b)" opacity=".527"/>
        <path fill="#F0F7FC" d="M142.42 235.667A53.119 53.119 0 0 0 150.01 263h87.822c4.81-8 7.588-17.44 7.588-27.333 0-28.533-23.058-51.667-51.5-51.667-28.44 0-51.5 23.134-51.5 51.667M291.905 165H280.42l13 17z" mask="url(#b)"/>
        <path fill="#F0F7FC" d="M184.42 263h29l-7.25-86-1.316-15.58-1.087-12.837-4.122-49.057L198.92 91l-.725 8.54-3.572 42.471-.952 11.27-2 23.719zM69.42 177.146V263h106V153l-29.652 25.38-19.59-12.409-.249.255-27.349 24.268-.022.026zM280.42 165v67h33v-42.587z" mask="url(#b)"/>
        <path fill="#A5D5F2" d="M292.42 165v67h33v-42.587zM184.42 263h29l-7.102-84.13-13.963-9.87-.684 8.077z" mask="url(#b)" opacity=".527"/>
        <path fill="#F0F7FC" d="M248.42 179v84h94v-56.448zM176.42 128.993c0 .132.027.251.068.383.824 2.59 10.094 4.624 21.432 4.624s20.608-2.035 21.432-4.624a1.26 1.26 0 0 0 .068-.383c0-2.76-9.621-4.993-21.5-4.993-11.878 0-21.5 2.233-21.5 4.993M389.42 263h23v-45h-23z" mask="url(#b)"/>
        <path fill="#A5D5F2" d="M69.42 176.794v4.296l50.142 22.738c.268.12.564.172.845.172.47 0 .86-.159 1.222-.476l53.791-45.316V153l-29.652 25.01-25.722 21.68-21.475-9.742-.017.026-29.134-13.18z" mask="url(#b)" opacity=".527"/>
        <path fill="#F0F7FC" d="M225.42 120.42V263h44V99zM198.42 263v-25l-14.596-12-16.236 5-8.168 12.834V263zM34.42 263h47v-53h-47z" mask="url(#b)"/>
        <path fill="#A5D5F2" d="M183.58 238.259L185.594 263l15.827-1.29-2.012-24.74-16.16-10.97-15.828 1.289z" mask="url(#b)" opacity=".243"/>
        <path fill="#71B9E6" d="M268.42 212.693l54.76 13.531-47.655 9.463a3.24 3.24 0 0 0-2.638 3.089 3.239 3.239 0 0 0 2.463 3.22L342.42 259v-6.693l-51.53-13.067 47.858-9.49c1.507-.292 2.61-1.577 2.636-3.102.041-1.51-.995-2.849-2.489-3.22L268.42 206v6.693zM69.42 218h106v-4h-106z" mask="url(#b)" opacity=".243"/>
        <path fill="#A5D5F2" d="M225.42 138v125h44v-92.721z" mask="url(#b)" opacity=".527"/>
        <g fill="#71B9E6" mask="url(#b)" opacity=".243">
            <path d="M259.883 261.977a3.329 3.329 0 0 1-3.324-3.332v-150.27a3.329 3.329 0 0 1 3.324-3.333 3.33 3.33 0 0 1 3.324 3.332v150.271a3.33 3.33 0 0 1-3.324 3.332M250.513 261.977a3.329 3.329 0 0 1-3.324-3.332V112.398a3.33 3.33 0 0 1 3.324-3.332 3.33 3.33 0 0 1 3.324 3.332v146.247a3.33 3.33 0 0 1-3.324 3.332M241.144 261.977a3.329 3.329 0 0 1-3.324-3.332v-140.88a3.329 3.329 0 0 1 3.324-3.332 3.329 3.329 0 0 1 3.325 3.332v140.88a3.329 3.329 0 0 1-3.325 3.332M231.776 261.977a3.329 3.329 0 0 1-3.324-3.332v-134.17a3.329 3.329 0 0 1 3.324-3.332 3.33 3.33 0 0 1 3.325 3.332v134.17a3.33 3.33 0 0 1-3.325 3.332"/>
        </g>
        <path fill="#F0F7FC" d="M146.42 263v-20l-14.792-12h-16.139l-8.069 12.834V263z" mask="url(#b)"/>
        <path fill="#F0F7FC" d="M96.42 263h25v-20h-25z" mask="url(#b)"/>
        <path fill="#71B9E6" d="M133.42 259h10v-12h-10z" mask="url(#b)" opacity=".243"/>
        <path fill="#C8E0F1" d="M149.382 175.095l-.94.81.957-.776z" mask="url(#b)"/>
        <path fill="#A5D5F2" d="M121.42 200l25-21.57L127.05 166l-.265.254zM194.287 133.515l-.705 8.06 9.233 6.425-1.262-14.485c9.666-.38 17.136-2.225 17.867-4.515h-43c.732 2.29 8.201 4.135 17.867 4.515" mask="url(#b)" opacity=".527"/>
        <path fill="#E7BA20" d="M393.42 256.5a2.5 2.5 0 1 0 5 0 2.5 2.5 0 0 0-5 0" mask="url(#b)"/>
        <path fill="#ED4096" d="M417.42 254.5a2.5 2.5 0 1 0 5 0 2.5 2.5 0 0 0-5 0" mask="url(#b)"/>
        <path fill="#E7BA20" d="M113.42 240.5a2.5 2.5 0 1 0 5 0 2.5 2.5 0 0 0-5 0M64.42 250.5a2.5 2.5 0 1 0 5 0 2.5 2.5 0 0 0-5 0" mask="url(#b)"/>
        <path fill="#ED4096" d="M78.42 252.5a2.5 2.5 0 1 0 5 0 2.5 2.5 0 0 0-5 0" mask="url(#b)"/>
        <path fill="#E7BA20" d="M77.447 240.863a2.5 2.5 0 1 0 4.946-.726 2.5 2.5 0 0 0-4.946.726M23.447 252.863a2.5 2.5 0 1 0 4.946-.726 2.5 2.5 0 0 0-4.946.726" mask="url(#b)"/>
        <path fill="#ED4096" d="M96.447 239.863a2.5 2.5 0 1 0 4.946-.726 2.5 2.5 0 0 0-4.946.726" mask="url(#b)"/>
        <path fill="#7FBF42" d="M115.42 252.5a2.5 2.5 0 1 0 5.001 0 2.5 2.5 0 0 0-5 0" mask="url(#b)"/>
        <path fill="#E7BA20" d="M403.42 248.5a2.5 2.5 0 1 0 5.002-.001 2.5 2.5 0 0 0-5.002.001" mask="url(#b)"/>
        <path fill="#7FBF42" d="M274.42 256.5a2.5 2.5 0 1 0 5 0 2.5 2.5 0 0 0-5 0" mask="url(#b)"/>
        <path fill="#E7BA20" d="M356.42 256.5a2.5 2.5 0 1 0 5.002-.001 2.5 2.5 0 0 0-5.002.001" mask="url(#b)"/>
        <path fill="#7FBF42" d="M347.42 246.5a2.5 2.5 0 1 0 5 0 2.5 2.5 0 0 0-5 0" mask="url(#b)"/>
        <path fill="#71B9E6" d="M40.42 259h22v-19h-22zM40.42 233h22v-8h-22z" mask="url(#b)" opacity=".243"/>
        <path fill="#ED4096" d="M46.447 252.863a2.5 2.5 0 1 0 4.946-.726 2.5 2.5 0 0 0-4.946.726" mask="url(#b)"/>
        <path fill="#A5D5F2" d="M366.42 181.354V263h23v-87h-10.092z" mask="url(#b)" opacity=".527"/>
        <path fill="#F0F7FC" d="M342.42 176v.258L366.121 200l23.246-23.946.053-.054h-.053z" mask="url(#b)"/>
        <path fill="#A5D5F2" d="M391.42 235h16v-10h-16z" mask="url(#b)"/>
    </g>
</svg>
