<svg xmlns="http://www.w3.org/2000/svg" xmlns:xlink="http://www.w3.org/1999/xlink" viewBox="0 0 30 30"><defs><style>.a{fill:#fff;}.b{mask:url(#a);}.c{fill:#cfe9fc;}.d{fill:#359ce4;}.e{fill:#1881da;}</style><mask id="a" x="0" y="0.39" width="29.38" height="29.38" maskUnits="userSpaceOnUse"><polygon class="a" points="0 0.4 29.38 0.4 29.38 29.77 0 29.77 0 0.4"/></mask></defs><title>emoji-smile</title><g class="b"><path class="c" d="M29.38,15.08A14.69,14.69,0,1,1,14.69.39,14.69,14.69,0,0,1,29.38,15.08"/></g><path class="d" d="M10.54,14a.73.73,0,1,1,.72-.72.72.72,0,0,1-.72.72"/><path class="e" d="M10.54,11a2.28,2.28,0,1,0,2.27,2.28A2.28,2.28,0,0,0,10.54,11"/><path class="d" d="M18.84,14a.73.73,0,1,1,.72-.72.72.72,0,0,1-.72.72"/><path class="e" d="M18.84,11a2.28,2.28,0,1,0,2.28,2.28A2.28,2.28,0,0,0,18.84,11"/><path class="e" d="M14.76,22.28A8.06,8.06,0,0,1,9.1,20.11.83.83,0,1,1,10.3,19a6.45,6.45,0,0,0,4.46,1.65A5.92,5.92,0,0,0,19.05,19a.83.83,0,0,1,1.17-.08.82.82,0,0,1,.08,1.17,7.51,7.51,0,0,1-5.54,2.19"/><path class="d" d="M7.88,8.15a5,5,0,0,1,3-1.08,4.21,4.21,0,0,1,1.72.37"/><path class="e" d="M7.88,8.77a.62.62,0,0,1-.48-.22.63.63,0,0,1,.07-.88,5.58,5.58,0,0,1,3.41-1.23,4.75,4.75,0,0,1,2,.43.63.63,0,0,1,.32.83.64.64,0,0,1-.83.31,3.48,3.48,0,0,0-1.46-.31,4.44,4.44,0,0,0-2.6.92.6.6,0,0,1-.4.15"/><path class="d" d="M21.5,8.15a5,5,0,0,0-3-1.08,4.17,4.17,0,0,0-1.72.37"/><path class="e" d="M21.5,8.77a.65.65,0,0,1-.41-.15A4.39,4.39,0,0,0,18.5,7.7,3.48,3.48,0,0,0,17,8a.63.63,0,0,1-.52-1.14,4.8,4.8,0,0,1,2-.43,5.65,5.65,0,0,1,3.41,1.23.62.62,0,0,1-.41,1.1"/></svg>