<svg xmlns="http://www.w3.org/2000/svg" viewBox="0 0 30 30"><defs><style>.a{fill:#cfe9fc;}.b{fill:#0d83dd;}.c{fill:#1881da;}</style></defs><title>emoji-grin</title><path class="a" d="M14.94,29.89A14.94,14.94,0,1,1,29.88,15,14.93,14.93,0,0,1,14.94,29.89Z"/><path class="b" d="M10.93,13.62a.76.76,0,1,1,.76-.76.76.76,0,0,1-.76.76"/><path class="c" d="M10.42,10.57a2.29,2.29,0,1,0,2.29,2.29,2.29,2.29,0,0,0-2.29-2.29"/><path class="b" d="M19.58,13.62a.76.76,0,1,1,0-1.52.76.76,0,0,1,0,1.52"/><path class="c" d="M16.78,12.86a2.29,2.29,0,1,0,2.29-2.29A2.29,2.29,0,0,0,16.78,12.86Z"/><path class="c" d="M9.15,19.22a6.35,6.35,0,0,0,.47,1.68,5.56,5.56,0,0,0,10.25,0,6.35,6.35,0,0,0,.47-1.68Z"/><path class="c" d="M8.18,8.37l-.13-.16.13.16h0l-.13-.16.13.16A3.62,3.62,0,0,1,9,7.85a4,4,0,0,1,1.87-.49,3.52,3.52,0,0,1,1.49.34.61.61,0,0,0,.84-.34.69.69,0,0,0-.32-.9,4.62,4.62,0,0,0-2-.46,5.26,5.26,0,0,0-2.5.66,5,5,0,0,0-1,.68.71.71,0,0,0-.07,1A.61.61,0,0,0,8.18,8.37Z"/><path class="c" d="M22.15,7.34a5,5,0,0,0-1-.68A5.23,5.23,0,0,0,18.66,6a4.62,4.62,0,0,0-2,.46.7.7,0,0,0-.32.9.62.62,0,0,0,.85.34,3.44,3.44,0,0,1,1.48-.34,4.07,4.07,0,0,1,1.92.52,5.87,5.87,0,0,1,.56.35l.14.11,0,0h0l.13-.16-.14.16h0l.13-.16-.14.16a.61.61,0,0,0,.91-.07A.71.71,0,0,0,22.15,7.34Z"/></svg>