<svg xmlns="http://www.w3.org/2000/svg" viewBox="0 0 30 30"><defs><style>.a{fill:#cfe9fc;}.b{fill:#359ce4;}.c{fill:#1881da;}</style></defs><title>emoji-neutral</title><path class="a" d="M29.42,15.08A14.69,14.69,0,1,1,14.73.39,14.69,14.69,0,0,1,29.42,15.08"/><path class="b" d="M10.49,14a.73.73,0,1,1,.72-.72.72.72,0,0,1-.72.72"/><path class="c" d="M10.49,11a2.28,2.28,0,1,0,2.28,2.28A2.28,2.28,0,0,0,10.49,11"/><path class="b" d="M18.79,14a.73.73,0,0,1,0-1.45.73.73,0,1,1,0,1.45"/><path class="c" d="M18.79,11a2.28,2.28,0,1,0,2.28,2.28A2.28,2.28,0,0,0,18.79,11"/><path class="c" d="M19.77,20.75H9.52a.63.63,0,1,1,0-1.25H19.77a.63.63,0,0,1,0,1.25"/><path class="b" d="M7.83,8.15a5,5,0,0,1,3-1.08,4.17,4.17,0,0,1,1.72.37"/><path class="c" d="M8.24,8.62l-.13-.15.13.15h0l-.13-.15.13.15A3.73,3.73,0,0,1,9,8.14a4.22,4.22,0,0,1,1.83-.44A3.55,3.55,0,0,1,12.29,8a.63.63,0,0,0,.52-1.14,4.68,4.68,0,0,0-2-.43,5.42,5.42,0,0,0-2.44.61,5.64,5.64,0,0,0-1,.62.64.64,0,0,0-.07.89A.63.63,0,0,0,8.24,8.62Z"/><path class="b" d="M21.45,8.15a5,5,0,0,0-3-1.08,4.21,4.21,0,0,0-1.72.37"/><path class="c" d="M21.86,7.67a4.8,4.8,0,0,0-1-.62,5.39,5.39,0,0,0-2.44-.61,4.79,4.79,0,0,0-2,.43.63.63,0,0,0-.32.83A.64.64,0,0,0,17,8a3.55,3.55,0,0,1,1.46-.31,4.19,4.19,0,0,1,1.88.47,6,6,0,0,1,.54.32l.14.1,0,0h0l.12-.15L21,8.62h0l.12-.15L21,8.62a.63.63,0,1,0,.82-.95Z"/></svg>