<svg xmlns="http://www.w3.org/2000/svg" xmlns:xlink="http://www.w3.org/1999/xlink" viewBox="0 0 30 30"><defs><style>.a{fill:#fff;}.b{mask:url(#a);}.c{fill:#cfe9fc;}.d{fill:#359ce4;}.e{fill:#1881da;}</style><mask id="a" x="0" y="0.39" width="29.38" height="29.38" maskUnits="userSpaceOnUse"><polygon class="a" points="0 0.4 29.38 0.4 29.38 29.77 0 29.77 0 0.4"/></mask></defs><title>emoji-bad</title><g class="b"><path class="c" d="M29.38,15.08A14.69,14.69,0,1,1,14.69.39,14.69,14.69,0,0,1,29.38,15.08"/></g><path class="d" d="M10.43,14a.73.73,0,1,1,.73-.73.73.73,0,0,1-.73.73"/><path class="e" d="M10.43,11a2.29,2.29,0,1,0,2.29,2.29A2.3,2.3,0,0,0,10.43,11"/><path class="d" d="M18.79,14a.73.73,0,1,1,.72-.73.73.73,0,0,1-.72.73"/><path class="e" d="M18.79,11a2.29,2.29,0,1,0,2.29,2.29A2.29,2.29,0,0,0,18.79,11"/><path class="e" d="M9.6,21.64a.66.66,0,0,1-.42-.15.64.64,0,0,1-.06-.89,7.41,7.41,0,0,1,5.42-2.13,7.91,7.91,0,0,1,5.54,2.12.63.63,0,0,1,0,.88.62.62,0,0,1-.88,0,6.77,6.77,0,0,0-4.63-1.72,6.13,6.13,0,0,0-4.47,1.7.64.64,0,0,1-.47.21"/><path class="d" d="M21.34,8.09a4.63,4.63,0,0,1-2.77,1A3.72,3.72,0,0,1,17,8.74"/><path class="e" d="M18.57,9.71a4.4,4.4,0,0,1-1.83-.4.63.63,0,0,1-.32-.83.64.64,0,0,1,.83-.31,3.16,3.16,0,0,0,1.32.28,4,4,0,0,0,2.36-.84.64.64,0,0,1,.89.07.63.63,0,0,1-.07.88,5.21,5.21,0,0,1-3.18,1.15"/><path class="d" d="M7.88,8.09a4.58,4.58,0,0,0,2.76,1,3.74,3.74,0,0,0,1.58-.34"/><path class="e" d="M10.64,9.71A5.17,5.17,0,0,1,7.47,8.56a.61.61,0,0,1-.07-.88.63.63,0,0,1,.88-.07,4.06,4.06,0,0,0,2.36.84A3.13,3.13,0,0,0,12,8.17a.63.63,0,0,1,.83.31.62.62,0,0,1-.31.83,4.48,4.48,0,0,1-1.84.4"/></svg>