<svg xmlns="http://www.w3.org/2000/svg" xmlns:xlink="http://www.w3.org/1999/xlink" viewBox="0 0 142 142"><defs><style>.a{fill:#fff;}.b{fill:#0d83dd;}.c{mask:url(#a);}.d{fill:#cfe6f8;}</style><mask id="a" x="10.62" y="32.72" width="59.61" height="92.39" maskUnits="userSpaceOnUse"><path class="a" d="M25.12,125.12a71.24,71.24,0,0,1-14.5-16.79V33.67l.6-1h59v92.4Z"/></mask></defs><title>heart-hands</title><path class="b" d="M141.71,71A70.86,70.86,0,1,1,70.86.14,70.86,70.86,0,0,1,141.71,71"/><g class="c"><path class="d" d="M69.93,105.53c3.27-8.44-21.25-12.32-23.81-29.77C43.67,59.12,56.79,54,64.29,61.47c3.68,3.66,13.37-5-4.68-10.32C45.51,47,39.92,63.79,38.73,63.46c-3.55-1,9.77-13.29,14-23.38,3.18-7.68-.1-11.91-9.48,1.22C38.68,47.63,33,62,30.53,61.41c-1.86-.42,14.91-25.86,7-28.55S25.05,66.77,21.51,65.1c-1.75-.83,9.5-25.67,2.94-24.27C14.74,42.91,12.3,73.7,16.59,89.62c2,7.28-2.35,16.23-6,23.7a82.93,82.93,0,0,0,13.69,11.8c6.51-12.85,15.81-27.83,21.81-28,5.32-.17,22.27,12.38,23.81,8.44"/></g><path class="d" d="M131,113.39c-3.73-7.75-7.1-15-5-23.24,4-16,1.77-47.24-7.93-49.32-6.57-1.4,4.69,23.44,2.94,24.27-3.55,1.67-8.15-34.74-16.07-32.24-9.2,2.92,8.91,28.13,7,28.55-2.49.55-8.9-13.3-12.67-20.11-8.17-14.78-12.66-8.9-9.48-1.22,4.18,10.1,17.4,20.76,14,23.38-1,.75-6.78-16.48-20.88-12.31-18,5.33-8.35,14-4.69,10.32C85.7,54,98.83,59.12,96.38,75.76c-2.57,17.45-27.09,21.33-23.81,29.77,1.53,3.94,18.48-8.61,23.81-8.44,5.91.19,15.19,14.91,21.67,27.58a82.54,82.54,0,0,0,13-11.28"/></svg>